<?xml version="1.0" encoding="UTF-8"?><svg xmlns="http://www.w3.org/2000/svg" xmlns:xlink="http://www.w3.org/1999/xlink" fill-opacity="1" color-rendering="auto" color-interpolation="auto" text-rendering="auto" stroke="black" stroke-linecap="square" width="316" stroke-miterlimit="10" shape-rendering="auto" stroke-opacity="1" fill="black" stroke-dasharray="none" font-weight="normal" stroke-width="1" height="281" font-family="'Dialog'" font-style="normal" stroke-linejoin="miter" font-size="12px" stroke-dashoffset="0" image-rendering="auto">
  <!--Generated by ySVG 2.6-->
  <defs id="genericDefs"/>
  <g>
    <defs id="defs1">
      <clipPath clipPathUnits="userSpaceOnUse" id="clipPath1">
        <path d="M0 0 L316 0 L316 281 L0 281 L0 0 Z"/>
      </clipPath>
      <clipPath clipPathUnits="userSpaceOnUse" id="clipPath2">
        <path d="M805 554 L1121 554 L1121 835 L805 835 L805 554 Z"/>
      </clipPath>
    </defs>
    <g fill="rgb(255,204,0)" text-rendering="geometricPrecision" shape-rendering="geometricPrecision" transform="matrix(1,0,0,1,-805,-554)" stroke="rgb(255,204,0)">
      <circle r="15" clip-path="url(#clipPath2)" cx="962.58" cy="624" stroke="none"/>
    </g>
    <g text-rendering="geometricPrecision" stroke-miterlimit="1.45" shape-rendering="geometricPrecision" transform="matrix(1,0,0,1,-805,-554)" stroke-linecap="butt">
      <circle fill="none" r="15" clip-path="url(#clipPath2)" cx="962.58" cy="624"/>
      <text x="955.9062" xml:space="preserve" y="628.7139" clip-path="url(#clipPath2)" font-family="sans-serif" stroke="none">31</text>
    </g>
    <g fill="rgb(255,204,0)" text-rendering="geometricPrecision" shape-rendering="geometricPrecision" transform="matrix(1,0,0,1,-805,-554)" stroke="rgb(255,204,0)">
      <circle r="15" clip-path="url(#clipPath2)" cx="1045.08" cy="684" stroke="none"/>
    </g>
    <g text-rendering="geometricPrecision" stroke-miterlimit="1.45" shape-rendering="geometricPrecision" transform="matrix(1,0,0,1,-805,-554)" stroke-linecap="butt">
      <circle fill="none" r="15" clip-path="url(#clipPath2)" cx="1045.08" cy="684"/>
      <text x="1038.4061" xml:space="preserve" y="688.7139" clip-path="url(#clipPath2)" font-family="sans-serif" stroke="none">40</text>
    </g>
    <g fill="rgb(255,204,0)" text-rendering="geometricPrecision" shape-rendering="geometricPrecision" transform="matrix(1,0,0,1,-805,-554)" stroke="rgb(255,204,0)">
      <circle r="15" clip-path="url(#clipPath2)" cx="1000.08" cy="744" stroke="none"/>
    </g>
    <g text-rendering="geometricPrecision" stroke-miterlimit="1.45" shape-rendering="geometricPrecision" transform="matrix(1,0,0,1,-805,-554)" stroke-linecap="butt">
      <circle fill="none" r="15" clip-path="url(#clipPath2)" cx="1000.08" cy="744"/>
      <text x="993.4062" xml:space="preserve" y="748.7139" clip-path="url(#clipPath2)" font-family="sans-serif" stroke="none">39</text>
    </g>
    <g fill="rgb(255,204,0)" text-rendering="geometricPrecision" shape-rendering="geometricPrecision" transform="matrix(1,0,0,1,-805,-554)" stroke="rgb(255,204,0)">
      <circle r="15" clip-path="url(#clipPath2)" cx="880.08" cy="684" stroke="none"/>
    </g>
    <g text-rendering="geometricPrecision" stroke-miterlimit="1.45" shape-rendering="geometricPrecision" transform="matrix(1,0,0,1,-805,-554)" stroke-linecap="butt">
      <circle fill="none" r="15" clip-path="url(#clipPath2)" cx="880.08" cy="684"/>
      <text x="873.4062" xml:space="preserve" y="688.7139" clip-path="url(#clipPath2)" font-family="sans-serif" stroke="none">16</text>
    </g>
    <g fill="rgb(255,204,0)" text-rendering="geometricPrecision" shape-rendering="geometricPrecision" transform="matrix(1,0,0,1,-805,-554)" stroke="rgb(255,204,0)">
      <circle r="15" clip-path="url(#clipPath2)" cx="835.08" cy="744" stroke="none"/>
    </g>
    <g text-rendering="geometricPrecision" stroke-miterlimit="1.45" shape-rendering="geometricPrecision" transform="matrix(1,0,0,1,-805,-554)" stroke-linecap="butt">
      <circle fill="none" r="15" clip-path="url(#clipPath2)" cx="835.08" cy="744"/>
      <text x="831.7431" xml:space="preserve" y="748.7139" clip-path="url(#clipPath2)" font-family="sans-serif" stroke="none">5</text>
    </g>
    <g fill="rgb(255,204,0)" text-rendering="geometricPrecision" shape-rendering="geometricPrecision" transform="matrix(1,0,0,1,-805,-554)" stroke="rgb(255,204,0)">
      <circle r="15" clip-path="url(#clipPath2)" cx="925.08" cy="744" stroke="none"/>
    </g>
    <g text-rendering="geometricPrecision" stroke-miterlimit="1.45" shape-rendering="geometricPrecision" transform="matrix(1,0,0,1,-805,-554)" stroke-linecap="butt">
      <circle fill="none" r="15" clip-path="url(#clipPath2)" cx="925.08" cy="744"/>
      <text x="918.4062" xml:space="preserve" y="748.7139" clip-path="url(#clipPath2)" font-family="sans-serif" stroke="none">25</text>
    </g>
    <g fill="rgb(255,204,0)" text-rendering="geometricPrecision" shape-rendering="geometricPrecision" transform="matrix(1,0,0,1,-805,-554)" stroke="rgb(255,204,0)">
      <circle r="15" clip-path="url(#clipPath2)" cx="1090.08" cy="744" stroke="none"/>
    </g>
    <g text-rendering="geometricPrecision" stroke-miterlimit="1.45" shape-rendering="geometricPrecision" transform="matrix(1,0,0,1,-805,-554)" stroke-linecap="butt">
      <circle fill="none" r="15" clip-path="url(#clipPath2)" cx="1090.08" cy="744"/>
      <text x="1083.4061" xml:space="preserve" y="748.7139" clip-path="url(#clipPath2)" font-family="sans-serif" stroke="none">42</text>
    </g>
    <g transform="matrix(1,0,0,1,-805,-554)" fill-opacity="0.498" fill="rgb(255,0,0)" text-rendering="geometricPrecision" shape-rendering="geometricPrecision" stroke="rgb(255,0,0)" stroke-opacity="0.498">
      <rect x="903.68" width="36.4" height="20" y="569.2" clip-path="url(#clipPath2)" stroke="none"/>
    </g>
    <g text-rendering="geometricPrecision" stroke-miterlimit="1.45" shape-rendering="geometricPrecision" transform="matrix(1,0,0,1,-805,-554)" stroke-linecap="butt">
      <rect fill="none" x="903.68" width="36.4" height="20" y="569.2" clip-path="url(#clipPath2)"/>
      <text x="906.5372" xml:space="preserve" y="583.9139" clip-path="url(#clipPath2)" font-family="sans-serif" stroke="none">ABB3</text>
    </g>
    <g fill="rgb(255,204,0)" text-rendering="geometricPrecision" shape-rendering="geometricPrecision" transform="matrix(1,0,0,1,-805,-554)" stroke="rgb(255,204,0)">
      <circle r="15" clip-path="url(#clipPath2)" cx="1060.08" cy="804" stroke="none"/>
    </g>
    <g text-rendering="geometricPrecision" stroke-miterlimit="1.45" shape-rendering="geometricPrecision" transform="matrix(1,0,0,1,-805,-554)" stroke-linecap="butt">
      <circle fill="none" r="15" clip-path="url(#clipPath2)" cx="1060.08" cy="804"/>
      <text x="1053.4061" xml:space="preserve" y="808.7139" clip-path="url(#clipPath2)" font-family="sans-serif" stroke="none">41</text>
    </g>
    <g fill="rgb(255,204,0)" text-rendering="geometricPrecision" shape-rendering="geometricPrecision" transform="matrix(1,0,0,1,-805,-554)" stroke="rgb(255,204,0)">
      <circle r="15" clip-path="url(#clipPath2)" cx="955.08" cy="804" stroke="none"/>
    </g>
    <g text-rendering="geometricPrecision" stroke-miterlimit="1.45" shape-rendering="geometricPrecision" transform="matrix(1,0,0,1,-805,-554)" stroke-linecap="butt">
      <circle fill="none" r="15" clip-path="url(#clipPath2)" cx="955.08" cy="804"/>
      <text x="948.4062" xml:space="preserve" y="808.7139" clip-path="url(#clipPath2)" font-family="sans-serif" stroke="none">26</text>
    </g>
    <g fill="rgb(255,204,0)" text-rendering="geometricPrecision" shape-rendering="geometricPrecision" transform="matrix(1,0,0,1,-805,-554)" stroke="rgb(255,204,0)">
      <circle r="15" clip-path="url(#clipPath2)" cx="865.08" cy="804" stroke="none"/>
    </g>
    <g text-rendering="geometricPrecision" stroke-miterlimit="1.45" shape-rendering="geometricPrecision" transform="matrix(1,0,0,1,-805,-554)" stroke-linecap="butt">
      <circle fill="none" r="15" clip-path="url(#clipPath2)" cx="865.08" cy="804"/>
      <text x="861.7431" xml:space="preserve" y="808.7139" clip-path="url(#clipPath2)" font-family="sans-serif" stroke="none">7</text>
      <path fill="none" d="M974.7111 632.8226 L1024.0529 668.7075" clip-path="url(#clipPath2)"/>
      <path d="M1032.949 675.1774 L1026.7732 663.267 L1019.7151 672.9718 Z" clip-path="url(#clipPath2)" stroke="none"/>
      <path fill="none" d="M1036.08 696 L1015.68 723.2" clip-path="url(#clipPath2)"/>
      <path d="M1009.08 732 L1021.08 726 L1011.48 718.8 Z" clip-path="url(#clipPath2)" stroke="none"/>
      <path fill="none" d="M950.449 632.8226 L901.1071 668.7075" clip-path="url(#clipPath2)"/>
      <path d="M892.2111 675.1774 L905.4449 672.9717 L898.3868 663.2669 Z" clip-path="url(#clipPath2)" stroke="none"/>
      <path fill="none" d="M871.08 696 L850.68 723.2" clip-path="url(#clipPath2)"/>
      <path d="M844.08 732 L856.08 726 L846.48 718.8 Z" clip-path="url(#clipPath2)" stroke="none"/>
      <path fill="none" d="M889.08 696 L909.48 723.2" clip-path="url(#clipPath2)"/>
      <path d="M916.08 732 L913.68 718.8 L904.08 726.0001 Z" clip-path="url(#clipPath2)" stroke="none"/>
      <path fill="none" d="M1056.0409 694.2302 L1075.4023 722.5392" clip-path="url(#clipPath2)"/>
      <path d="M1081.6121 731.6188 L1079.7903 718.3267 L1069.8853 725.101 Z" clip-path="url(#clipPath2)" stroke="none"/>
      <path fill="none" d="M940.08 578.9771 L962.58 578.7015 L962.58 598" clip-path="url(#clipPath2)"/>
      <path d="M962.58 609 L968.58 597 L956.58 597 Z" clip-path="url(#clipPath2)" stroke="none"/>
      <path fill="none" d="M1083.3718 757.4164 L1071.7075 780.7449" clip-path="url(#clipPath2)"/>
      <path d="M1066.7882 790.5836 L1077.5212 782.5337 L1066.7881 777.1672 Z" clip-path="url(#clipPath2)" stroke="none"/>
      <path fill="none" d="M931.7882 757.4164 L943.4525 780.7449" clip-path="url(#clipPath2)"/>
      <path d="M948.3718 790.5836 L948.3718 777.1672 L937.6387 782.5337 Z" clip-path="url(#clipPath2)" stroke="none"/>
      <path fill="none" d="M841.7882 757.4164 L853.4525 780.7449" clip-path="url(#clipPath2)"/>
      <path d="M858.3718 790.5836 L858.3718 777.1672 L847.6387 782.5337 Z" clip-path="url(#clipPath2)" stroke="none"/>
    </g>
  </g>
</svg>
