<?xml version="1.0" encoding="UTF-8"?><svg xmlns="http://www.w3.org/2000/svg" xmlns:xlink="http://www.w3.org/1999/xlink" fill-opacity="1" color-rendering="auto" color-interpolation="auto" text-rendering="auto" stroke="black" stroke-linecap="square" width="962" stroke-miterlimit="10" shape-rendering="auto" stroke-opacity="1" fill="black" stroke-dasharray="none" font-weight="normal" stroke-width="1" height="285" font-family="'Dialog'" font-style="normal" stroke-linejoin="miter" font-size="12px" stroke-dashoffset="0" image-rendering="auto">
  <!--Generated by ySVG 2.6-->
  <defs id="genericDefs"/>
  <g>
    <defs id="defs1">
      <clipPath clipPathUnits="userSpaceOnUse" id="clipPath1">
        <path d="M0 0 L962 0 L962 285 L0 285 L0 0 Z"/>
      </clipPath>
      <clipPath clipPathUnits="userSpaceOnUse" id="clipPath2">
        <path d="M653 385 L1615 385 L1615 670 L653 670 L653 385 Z"/>
      </clipPath>
    </defs>
    <g fill="rgb(255,204,0)" text-rendering="geometricPrecision" shape-rendering="geometricPrecision" transform="matrix(1,0,0,1,-653,-385)" stroke="rgb(255,204,0)">
      <rect x="668.5" y="605" clip-path="url(#clipPath2)" width="185" rx="4" ry="4" height="50" stroke="none"/>
    </g>
    <g text-rendering="geometricPrecision" stroke-miterlimit="1.45" shape-rendering="geometricPrecision" transform="matrix(1,0,0,1,-653,-385)" stroke-linecap="butt">
      <rect x="668.5" y="605" clip-path="url(#clipPath2)" fill="none" width="185" rx="4" ry="4" height="50"/>
      <text x="674.5" font-size="16px" y="625.1953" clip-path="url(#clipPath2)" font-family="'Courier New'" stroke="none" xml:space="preserve">Cuenta     142000</text>
      <text x="674.5" font-size="16px" y="643.3203" clip-path="url(#clipPath2)" font-family="'Courier New'" stroke="none" xml:space="preserve">'alma.observatory'</text>
    </g>
    <g fill="rgb(255,204,0)" text-rendering="geometricPrecision" shape-rendering="geometricPrecision" transform="matrix(1,0,0,1,-653,-385)" stroke="rgb(255,204,0)">
      <rect x="790" y="515" clip-path="url(#clipPath2)" width="160" rx="4" ry="4" height="50" stroke="none"/>
    </g>
    <g text-rendering="geometricPrecision" stroke-miterlimit="1.45" shape-rendering="geometricPrecision" transform="matrix(1,0,0,1,-653,-385)" stroke-linecap="butt">
      <rect x="790" y="515" clip-path="url(#clipPath2)" fill="none" width="160" rx="4" ry="4" height="50"/>
      <text x="796" font-size="16px" y="535.1953" clip-path="url(#clipPath2)" font-family="'Courier New'" stroke="none" xml:space="preserve">Cuenta  6800000</text>
      <text x="796" font-size="16px" y="553.3203" clip-path="url(#clipPath2)" font-family="'Courier New'" stroke="none" xml:space="preserve">'chayanne'</text>
    </g>
    <g fill="rgb(255,204,0)" text-rendering="geometricPrecision" shape-rendering="geometricPrecision" transform="matrix(1,0,0,1,-653,-385)" stroke="rgb(255,204,0)">
      <rect x="1270" y="515" clip-path="url(#clipPath2)" width="160" rx="4" ry="4" height="50" stroke="none"/>
    </g>
    <g text-rendering="geometricPrecision" stroke-miterlimit="1.45" shape-rendering="geometricPrecision" transform="matrix(1,0,0,1,-653,-385)" stroke-linecap="butt">
      <rect x="1270" y="515" clip-path="url(#clipPath2)" fill="none" width="160" rx="4" ry="4" height="50"/>
      <text x="1276" font-size="16px" y="535.1953" clip-path="url(#clipPath2)" font-family="'Courier New'" stroke="none" xml:space="preserve">Cuenta   199000</text>
      <text x="1276" font-size="16px" y="553.3203" clip-path="url(#clipPath2)" font-family="'Courier New'" stroke="none" xml:space="preserve">'spyfamily_en'</text>
    </g>
    <g fill="rgb(255,204,0)" text-rendering="geometricPrecision" shape-rendering="geometricPrecision" transform="matrix(1,0,0,1,-653,-385)" stroke="rgb(255,204,0)">
      <rect x="890" y="605" clip-path="url(#clipPath2)" width="240" rx="4" ry="4" height="50" stroke="none"/>
    </g>
    <g text-rendering="geometricPrecision" stroke-miterlimit="1.45" shape-rendering="geometricPrecision" transform="matrix(1,0,0,1,-653,-385)" stroke-linecap="butt">
      <rect x="890" y="605" clip-path="url(#clipPath2)" fill="none" width="240" rx="4" ry="4" height="50"/>
      <text x="896" font-size="16px" y="625.1953" clip-path="url(#clipPath2)" font-family="'Courier New'" stroke="none" xml:space="preserve">Cuenta             2450</text>
      <text x="896" font-size="16px" y="643.3203" clip-path="url(#clipPath2)" font-family="'Courier New'" stroke="none" xml:space="preserve">'noot.notbeauchems'</text>
    </g>
    <g fill="rgb(255,204,0)" text-rendering="geometricPrecision" shape-rendering="geometricPrecision" transform="matrix(1,0,0,1,-653,-385)" stroke="rgb(255,204,0)">
      <rect x="1000" y="455" clip-path="url(#clipPath2)" width="220" rx="4" ry="4" height="50" stroke="none"/>
    </g>
    <g text-rendering="geometricPrecision" stroke-miterlimit="1.45" shape-rendering="geometricPrecision" transform="matrix(1,0,0,1,-653,-385)" stroke-linecap="butt">
      <rect x="1000" y="455" clip-path="url(#clipPath2)" fill="none" width="220" rx="4" ry="4" height="50"/>
      <text x="1006" font-size="16px" y="475.1953" clip-path="url(#clipPath2)" font-family="'Courier New'" stroke="none" xml:space="preserve">Cuenta        1100000</text>
      <text x="1006" font-size="16px" y="493.3203" clip-path="url(#clipPath2)" font-family="'Courier New'" stroke="none" xml:space="preserve">'playvalorantofficial'</text>
    </g>
    <g fill="rgb(255,102,0)" text-rendering="geometricPrecision" shape-rendering="geometricPrecision" transform="matrix(1,0,0,1,-653,-385)" stroke="rgb(255,102,0)">
      <rect x="883.3594" width="115" height="30" y="400.2797" clip-path="url(#clipPath2)" stroke="none"/>
    </g>
    <g text-rendering="geometricPrecision" stroke-miterlimit="1.45" shape-rendering="geometricPrecision" transform="matrix(1,0,0,1,-653,-385)" stroke-linecap="butt">
      <rect fill="none" x="883.3594" width="115" height="30" y="400.2797" clip-path="url(#clipPath2)"/>
      <text x="892.8516" font-size="16px" y="419.5375" clip-path="url(#clipPath2)" font-family="'Courier New'" stroke="none" xml:space="preserve">ABBcuentas</text>
    </g>
    <g fill="rgb(255,204,0)" text-rendering="geometricPrecision" shape-rendering="geometricPrecision" transform="matrix(1,0,0,1,-653,-385)" stroke="rgb(255,204,0)">
      <rect x="1389.375" y="605" clip-path="url(#clipPath2)" width="210" rx="4" ry="4" height="50" stroke="none"/>
    </g>
    <g text-rendering="geometricPrecision" stroke-miterlimit="1.45" shape-rendering="geometricPrecision" transform="matrix(1,0,0,1,-653,-385)" stroke-linecap="butt">
      <rect x="1389.375" y="605" clip-path="url(#clipPath2)" fill="none" width="210" rx="4" ry="4" height="50"/>
      <text x="1395.375" font-size="16px" y="625.1953" clip-path="url(#clipPath2)" font-family="'Courier New'" stroke="none" xml:space="preserve"> Cuenta        57100</text>
      <text x="1395.375" font-size="16px" y="643.3203" clip-path="url(#clipPath2)" font-family="'Courier New'" stroke="none" xml:space="preserve">'willowthesquishycat'</text>
    </g>
    <g fill="rgb(255,204,0)" text-rendering="geometricPrecision" shape-rendering="geometricPrecision" transform="matrix(1,0,0,1,-653,-385)" stroke="rgb(255,204,0)">
      <rect x="1150" y="605" clip-path="url(#clipPath2)" width="160" rx="4" ry="4" height="50" stroke="none"/>
    </g>
    <g text-rendering="geometricPrecision" stroke-miterlimit="1.45" shape-rendering="geometricPrecision" transform="matrix(1,0,0,1,-653,-385)" stroke-linecap="butt">
      <rect x="1150" y="605" clip-path="url(#clipPath2)" fill="none" width="160" rx="4" ry="4" height="50"/>
      <text x="1156" font-size="16px" y="625.1953" clip-path="url(#clipPath2)" font-family="'Courier New'" stroke="none" xml:space="preserve">Cuenta  4100000</text>
      <text x="1156" font-size="16px" y="643.3203" clip-path="url(#clipPath2)" font-family="'Courier New'" stroke="none" xml:space="preserve">'pokemon'</text>
    </g>
    <g fill="rgb(204,153,255)" text-rendering="geometricPrecision" shape-rendering="geometricPrecision" transform="matrix(1,0,0,1,-653,-385)" stroke="rgb(204,153,255)">
      <ellipse rx="50" ry="20" clip-path="url(#clipPath2)" cx="1260" cy="420" stroke="none"/>
    </g>
    <g text-rendering="geometricPrecision" stroke-miterlimit="1.45" shape-rendering="geometricPrecision" transform="matrix(1,0,0,1,-653,-385)" stroke-linecap="butt">
      <ellipse rx="50" fill="none" ry="20" clip-path="url(#clipPath2)" cx="1260" cy="420"/>
      <text x="1221.5938" font-size="16px" y="424.2578" clip-path="url(#clipPath2)" font-family="'Courier New'" stroke="none" xml:space="preserve">pokemon?</text>
      <path fill="none" d="M839.7429 564.9829 L801.8619 596.2608" stroke-width="3" clip-path="url(#clipPath2)"/>
      <path d="M791.2591 605.0154 L807.601 601.2483 L798.0506 589.6816 Z" stroke-width="3" clip-path="url(#clipPath2)" stroke="none"/>
      <path fill="none" d="M908.8623 564.9829 L959.5442 597.5641" stroke-width="3" clip-path="url(#clipPath2)"/>
      <path d="M971.1104 604.9995 L962.5484 590.5793 L954.4371 603.197 Z" stroke-width="3" clip-path="url(#clipPath2)" stroke="none"/>
      <path fill="none" d="M1000.0431 501.6883 L962.4028 512.7775" stroke-width="3" clip-path="url(#clipPath2)"/>
      <path d="M949.2133 516.6632 L965.7213 519.6185 L961.4823 505.2299 Z" stroke-width="3" clip-path="url(#clipPath2)" stroke="none"/>
      <path fill="none" d="M1219.9095 501.8735 L1257.4994 512.8902" stroke-width="3" clip-path="url(#clipPath2)"/>
      <path d="M1270.6943 516.7573 L1258.4092 505.3414 L1254.1904 519.7359 Z" stroke-width="3" clip-path="url(#clipPath2)" stroke="none"/>
      <path fill="none" d="M998.3594 415.2797 L1108.3594 415.2797 L1109.4309 441.2229" stroke-width="3" clip-path="url(#clipPath2)"/>
      <path d="M1109.9984 454.9612 L1116.8729 439.6645 L1101.8857 440.2835 Z" stroke-width="3" clip-path="url(#clipPath2)" stroke="none"/>
      <path fill="none" d="M1390.0768 564.9829 L1441.4347 596.9983" stroke-width="4" clip-path="url(#clipPath2)"/>
      <path d="M1454.27 604.9995 L1444.6321 589.2698 L1435.9036 603.272 Z" stroke-width="4" clip-path="url(#clipPath2)" stroke="none"/>
      <path fill="none" d="M1316.6895 564.9829 L1275.434 595.9246" stroke-width="4" clip-path="url(#clipPath2)"/>
      <path d="M1263.334 604.9995 L1281.484 601.6995 L1271.584 588.4995 Z" stroke-width="4" clip-path="url(#clipPath2)" stroke="none"/>
    </g>
  </g>
</svg>
