<?xml version="1.0" encoding="UTF-8"?><svg xmlns="http://www.w3.org/2000/svg" xmlns:xlink="http://www.w3.org/1999/xlink" fill-opacity="1" color-rendering="auto" color-interpolation="auto" text-rendering="auto" stroke="black" stroke-linecap="square" width="1125" stroke-miterlimit="10" shape-rendering="auto" stroke-opacity="1" fill="black" stroke-dasharray="none" font-weight="normal" stroke-width="1" height="376" font-family="'Dialog'" font-style="normal" stroke-linejoin="miter" font-size="12px" stroke-dashoffset="0" image-rendering="auto">
  <!--Generated by ySVG 2.6-->
  <defs id="genericDefs"/>
  <g>
    <defs id="defs1">
      <clipPath clipPathUnits="userSpaceOnUse" id="clipPath1">
        <path d="M0 0 L1125 0 L1125 376 L0 376 L0 0 Z"/>
      </clipPath>
      <clipPath clipPathUnits="userSpaceOnUse" id="clipPath2">
        <path d="M-345 410 L780 410 L780 786 L-345 786 L-345 410 Z"/>
      </clipPath>
    </defs>
    <g fill="rgb(255,204,0)" text-rendering="geometricPrecision" shape-rendering="geometricPrecision" transform="matrix(1,0,0,1,345,-410)" stroke="rgb(255,204,0)">
      <rect x="-329.9844" y="630.2797" clip-path="url(#clipPath2)" width="240" rx="4" ry="4" height="50" stroke="none"/>
    </g>
    <g text-rendering="geometricPrecision" stroke-miterlimit="1.45" shape-rendering="geometricPrecision" transform="matrix(1,0,0,1,345,-410)" stroke-linecap="butt">
      <rect x="-329.9844" y="630.2797" clip-path="url(#clipPath2)" fill="none" width="240" rx="4" ry="4" height="50"/>
      <text x="-323.9844" font-size="16px" y="650.475" clip-path="url(#clipPath2)" font-family="'Courier New'" stroke="none" xml:space="preserve">Cuenta             2450</text>
      <text x="-323.9844" font-size="16px" y="668.6" clip-path="url(#clipPath2)" font-family="'Courier New'" stroke="none" xml:space="preserve">'noot.notbeaucheems'</text>
    </g>
    <g fill="rgb(255,204,0)" text-rendering="geometricPrecision" shape-rendering="geometricPrecision" transform="matrix(1,0,0,1,345,-410)" stroke="rgb(255,204,0)">
      <rect x="-205.9844" y="540.2797" clip-path="url(#clipPath2)" width="210" rx="4" ry="4" height="50" stroke="none"/>
    </g>
    <g text-rendering="geometricPrecision" stroke-miterlimit="1.45" shape-rendering="geometricPrecision" transform="matrix(1,0,0,1,345,-410)" stroke-linecap="butt">
      <rect x="-205.9844" y="540.2797" clip-path="url(#clipPath2)" fill="none" width="210" rx="4" ry="4" height="50"/>
      <text x="-199.9844" font-size="16px" y="560.475" clip-path="url(#clipPath2)" font-family="'Courier New'" stroke="none" xml:space="preserve"> Cuenta        57100</text>
      <text x="-199.9844" font-size="16px" y="578.6" clip-path="url(#clipPath2)" font-family="'Courier New'" stroke="none" xml:space="preserve">'willowthesquishycat'</text>
    </g>
    <g fill="rgb(255,204,0)" text-rendering="geometricPrecision" shape-rendering="geometricPrecision" transform="matrix(1,0,0,1,345,-410)" stroke="rgb(255,204,0)">
      <rect x="458.3906" y="630.2797" clip-path="url(#clipPath2)" width="160" rx="4" ry="4" height="50" stroke="none"/>
    </g>
    <g text-rendering="geometricPrecision" stroke-miterlimit="1.45" shape-rendering="geometricPrecision" transform="matrix(1,0,0,1,345,-410)" stroke-linecap="butt">
      <rect x="458.3906" y="630.2797" clip-path="url(#clipPath2)" fill="none" width="160" rx="4" ry="4" height="50"/>
      <text x="464.3906" font-size="16px" y="650.475" clip-path="url(#clipPath2)" font-family="'Courier New'" stroke="none" xml:space="preserve">Cuenta  4100000</text>
      <text x="464.3906" font-size="16px" y="668.6" clip-path="url(#clipPath2)" font-family="'Courier New'" stroke="none" xml:space="preserve">'pokemon'</text>
    </g>
    <g fill="rgb(255,204,0)" text-rendering="geometricPrecision" shape-rendering="geometricPrecision" transform="matrix(1,0,0,1,345,-410)" stroke="rgb(255,204,0)">
      <rect x="-53.4844" y="630.2797" clip-path="url(#clipPath2)" width="185" rx="4" ry="4" height="50" stroke="none"/>
    </g>
    <g text-rendering="geometricPrecision" stroke-miterlimit="1.45" shape-rendering="geometricPrecision" transform="matrix(1,0,0,1,345,-410)" stroke-linecap="butt">
      <rect x="-53.4844" y="630.2797" clip-path="url(#clipPath2)" fill="none" width="185" rx="4" ry="4" height="50"/>
      <text x="-47.4844" font-size="16px" y="650.475" clip-path="url(#clipPath2)" font-family="'Courier New'" stroke="none" xml:space="preserve">Cuenta     100000</text>
      <text x="-47.4844" font-size="16px" y="668.6" clip-path="url(#clipPath2)" font-family="'Courier New'" stroke="none" xml:space="preserve">'burgerking_chile'</text>
    </g>
    <g fill="rgb(255,204,0)" text-rendering="geometricPrecision" shape-rendering="geometricPrecision" transform="matrix(1,0,0,1,345,-410)" stroke="rgb(255,204,0)">
      <rect x="46.5156" y="480.2797" clip-path="url(#clipPath2)" width="185" rx="4" ry="4" height="50" stroke="none"/>
    </g>
    <g text-rendering="geometricPrecision" stroke-miterlimit="1.45" shape-rendering="geometricPrecision" transform="matrix(1,0,0,1,345,-410)" stroke-linecap="butt">
      <rect x="46.5156" y="480.2797" clip-path="url(#clipPath2)" fill="none" width="185" rx="4" ry="4" height="50"/>
      <text x="52.5156" font-size="16px" y="500.475" clip-path="url(#clipPath2)" font-family="'Courier New'" stroke="none" xml:space="preserve">Cuenta     142000</text>
      <text x="52.5156" font-size="16px" y="518.6" clip-path="url(#clipPath2)" font-family="'Courier New'" stroke="none" xml:space="preserve">'alma.observatory'</text>
    </g>
    <g fill="rgb(255,102,0)" text-rendering="geometricPrecision" shape-rendering="geometricPrecision" transform="matrix(1,0,0,1,345,-410)" stroke="rgb(255,102,0)">
      <rect x="-87.625" width="115" height="30" y="425.5594" clip-path="url(#clipPath2)" stroke="none"/>
    </g>
    <g text-rendering="geometricPrecision" stroke-miterlimit="1.45" shape-rendering="geometricPrecision" transform="matrix(1,0,0,1,345,-410)" stroke-linecap="butt">
      <rect fill="none" x="-87.625" width="115" height="30" y="425.5594" clip-path="url(#clipPath2)"/>
      <text x="-78.1328" font-size="16px" y="444.8172" clip-path="url(#clipPath2)" font-family="'Courier New'" stroke="none" xml:space="preserve">ABBcuentas</text>
    </g>
    <g fill="rgb(255,204,0)" text-rendering="geometricPrecision" shape-rendering="geometricPrecision" transform="matrix(1,0,0,1,345,-410)" stroke="rgb(255,204,0)">
      <rect x="604.3281" y="720.2797" clip-path="url(#clipPath2)" width="160" rx="4" ry="4" height="50" stroke="none"/>
    </g>
    <g text-rendering="geometricPrecision" stroke-miterlimit="1.45" shape-rendering="geometricPrecision" transform="matrix(1,0,0,1,345,-410)" stroke-linecap="butt">
      <rect x="604.3281" y="720.2797" clip-path="url(#clipPath2)" fill="none" width="160" rx="4" ry="4" height="50"/>
      <text x="610.3281" font-size="16px" y="740.475" clip-path="url(#clipPath2)" font-family="'Courier New'" stroke="none" xml:space="preserve">Cuenta  6800000</text>
      <text x="610.3281" font-size="16px" y="758.6" clip-path="url(#clipPath2)" font-family="'Courier New'" stroke="none" xml:space="preserve">'chayanne'</text>
    </g>
    <g fill="rgb(255,204,0)" text-rendering="geometricPrecision" shape-rendering="geometricPrecision" transform="matrix(1,0,0,1,345,-410)" stroke="rgb(255,204,0)">
      <rect x="308.3906" y="720.2797" clip-path="url(#clipPath2)" width="220" rx="4" ry="4" height="50" stroke="none"/>
    </g>
    <g text-rendering="geometricPrecision" stroke-miterlimit="1.45" shape-rendering="geometricPrecision" transform="matrix(1,0,0,1,345,-410)" stroke-linecap="butt">
      <rect x="308.3906" y="720.2797" clip-path="url(#clipPath2)" fill="none" width="220" rx="4" ry="4" height="50"/>
      <text x="314.3906" font-size="16px" y="740.475" clip-path="url(#clipPath2)" font-family="'Courier New'" stroke="none" xml:space="preserve">Cuenta        1100000</text>
      <text x="314.3906" font-size="16px" y="758.6" clip-path="url(#clipPath2)" font-family="'Courier New'" stroke="none" xml:space="preserve">'playvalorantofficial'</text>
    </g>
    <g fill="rgb(255,204,0)" text-rendering="geometricPrecision" shape-rendering="geometricPrecision" transform="matrix(1,0,0,1,345,-410)" stroke="rgb(255,204,0)">
      <rect x="284.6406" y="540.2797" clip-path="url(#clipPath2)" width="185" rx="4" ry="4" height="50" stroke="none"/>
    </g>
    <g text-rendering="geometricPrecision" stroke-miterlimit="1.45" shape-rendering="geometricPrecision" transform="matrix(1,0,0,1,345,-410)" stroke-linecap="butt">
      <rect x="284.6406" y="540.2797" clip-path="url(#clipPath2)" fill="none" width="185" rx="4" ry="4" height="50"/>
      <text x="290.6406" font-size="16px" y="560.475" clip-path="url(#clipPath2)" font-family="'Courier New'" stroke="none" xml:space="preserve">Cuenta   199000</text>
      <text x="290.6406" font-size="16px" y="578.6" clip-path="url(#clipPath2)" font-family="'Courier New'" stroke="none" xml:space="preserve">'spyfamily_en'</text>
      <path fill="none" d="M-131.2415 590.2626 L-169.1225 621.5405" stroke-width="3" clip-path="url(#clipPath2)"/>
      <path d="M-179.7252 630.2951 L-163.3833 626.528 L-172.9338 614.9612 Z" stroke-width="3" clip-path="url(#clipPath2)" stroke="none"/>
      <path fill="none" d="M-62.1221 590.2626 L-11.4402 622.8438" stroke-width="3" clip-path="url(#clipPath2)"/>
      <path d="M0.126 630.2792 L-8.436 615.859 L-16.5474 628.4767 Z" stroke-width="3" clip-path="url(#clipPath2)" stroke="none"/>
      <path fill="none" d="M47.271 528.6508 L13.5297 536.9871" stroke-width="3" clip-path="url(#clipPath2)"/>
      <path d="M0.1811 540.2851 L16.5422 543.9683 L12.9443 529.4062 Z" stroke-width="3" clip-path="url(#clipPath2)" stroke="none"/>
      <path fill="none" d="M27.375 440.5594 L137.375 440.5594 L138.4466 466.5026" stroke-width="3" clip-path="url(#clipPath2)"/>
      <path d="M139.014 480.2409 L145.8886 464.9442 L130.9014 465.5632 Z" stroke-width="3" clip-path="url(#clipPath2)" stroke="none"/>
      <path fill="none" d="M578.9011 680.2626 L630.9154 712.34" stroke-width="4" clip-path="url(#clipPath2)"/>
      <path d="M643.7892 720.2792 L634.0756 704.5962 L625.4146 718.6403 Z" stroke-width="4" clip-path="url(#clipPath2)" stroke="none"/>
      <path fill="none" d="M505.0801 680.2626 L463.8246 711.2042" stroke-width="4" clip-path="url(#clipPath2)"/>
      <path d="M451.7246 720.2792 L469.8746 716.9792 L459.9746 703.7792 Z" stroke-width="4" clip-path="url(#clipPath2)" stroke="none"/>
      <path fill="none" d="M231.4904 526.9254 L271.3762 537.4286" stroke-width="4" clip-path="url(#clipPath2)"/>
      <path d="M286.0025 541.2802 L272.1474 529.1004 L267.9456 545.0565 Z" stroke-width="4" clip-path="url(#clipPath2)" stroke="none"/>
      <path fill="none" d="M421.6891 590.2856 L481.5037 623.5979" stroke-width="3" clip-path="url(#clipPath2)"/>
      <path d="M493.5164 630.2881 L484.0609 616.4373 L476.7625 629.5421 Z" stroke-width="3" clip-path="url(#clipPath2)" stroke="none"/>
    </g>
  </g>
</svg>
