<?xml version="1.0" encoding="UTF-8"?><svg xmlns="http://www.w3.org/2000/svg" xmlns:xlink="http://www.w3.org/1999/xlink" fill-opacity="1" color-rendering="auto" color-interpolation="auto" text-rendering="auto" stroke="black" stroke-linecap="square" width="425" stroke-miterlimit="10" shape-rendering="auto" stroke-opacity="1" fill="black" stroke-dasharray="none" font-weight="normal" stroke-width="1" height="181" font-family="'Dialog'" font-style="normal" stroke-linejoin="miter" font-size="12px" stroke-dashoffset="0" image-rendering="auto">
  <!--Generated by ySVG 2.6-->
  <defs id="genericDefs"/>
  <g>
    <defs id="defs1">
      <clipPath clipPathUnits="userSpaceOnUse" id="clipPath1">
        <path d="M0 0 L425 0 L425 181 L0 181 L0 0 Z"/>
      </clipPath>
      <clipPath clipPathUnits="userSpaceOnUse" id="clipPath2">
        <path d="M776 472 L1201 472 L1201 653 L776 653 L776 472 Z"/>
      </clipPath>
    </defs>
    <g fill="rgb(255,204,0)" text-rendering="geometricPrecision" shape-rendering="geometricPrecision" transform="matrix(1,0,0,1,-776,-472)" stroke="rgb(255,204,0)">
      <circle r="15" clip-path="url(#clipPath2)" cx="885.8644" cy="547.32" stroke="none"/>
    </g>
    <g text-rendering="geometricPrecision" stroke-miterlimit="1.45" shape-rendering="geometricPrecision" transform="matrix(1,0,0,1,-776,-472)" stroke-linecap="butt">
      <circle fill="none" r="15" clip-path="url(#clipPath2)" cx="885.8644" cy="547.32"/>
      <text x="880.2365" xml:space="preserve" y="552.0339" clip-path="url(#clipPath2)" font-family="sans-serif" stroke="none">'n'</text>
    </g>
    <g fill="rgb(255,204,0)" text-rendering="geometricPrecision" shape-rendering="geometricPrecision" transform="matrix(1,0,0,1,-776,-472)" stroke="rgb(255,204,0)">
      <circle r="15" clip-path="url(#clipPath2)" cx="938.3644" cy="577.32" stroke="none"/>
    </g>
    <g text-rendering="geometricPrecision" stroke-miterlimit="1.45" shape-rendering="geometricPrecision" transform="matrix(1,0,0,1,-776,-472)" stroke-linecap="butt">
      <circle fill="none" r="15" clip-path="url(#clipPath2)" cx="938.3644" cy="577.32"/>
      <text x="931.7404" xml:space="preserve" y="582.0339" clip-path="url(#clipPath2)" font-family="sans-serif" stroke="none">'w'</text>
    </g>
    <g fill="rgb(255,204,0)" text-rendering="geometricPrecision" shape-rendering="geometricPrecision" transform="matrix(1,0,0,1,-776,-472)" stroke="rgb(255,204,0)">
      <circle r="15" clip-path="url(#clipPath2)" cx="908.3644" cy="616.12" stroke="none"/>
    </g>
    <g text-rendering="geometricPrecision" stroke-miterlimit="1.45" shape-rendering="geometricPrecision" transform="matrix(1,0,0,1,-776,-472)" stroke-linecap="butt">
      <circle fill="none" r="15" clip-path="url(#clipPath2)" cx="908.3644" cy="616.12"/>
      <text x="902.7365" xml:space="preserve" y="620.8339" clip-path="url(#clipPath2)" font-family="sans-serif" stroke="none">'p'</text>
    </g>
    <g fill="rgb(255,204,0)" text-rendering="geometricPrecision" shape-rendering="geometricPrecision" transform="matrix(1,0,0,1,-776,-472)" stroke="rgb(255,204,0)">
      <circle r="15" clip-path="url(#clipPath2)" cx="843.8124" cy="577.32" stroke="none"/>
    </g>
    <g text-rendering="geometricPrecision" stroke-miterlimit="1.45" shape-rendering="geometricPrecision" transform="matrix(1,0,0,1,-776,-472)" stroke-linecap="butt">
      <circle fill="none" r="15" clip-path="url(#clipPath2)" cx="843.8124" cy="577.32"/>
      <text x="838.1844" xml:space="preserve" y="582.0339" clip-path="url(#clipPath2)" font-family="sans-serif" stroke="none">'b'</text>
    </g>
    <g fill="rgb(255,204,0)" text-rendering="geometricPrecision" shape-rendering="geometricPrecision" transform="matrix(1,0,0,1,-776,-472)" stroke="rgb(255,204,0)">
      <circle r="15" clip-path="url(#clipPath2)" cx="813.8124" cy="616.12" stroke="none"/>
    </g>
    <g text-rendering="geometricPrecision" stroke-miterlimit="1.45" shape-rendering="geometricPrecision" transform="matrix(1,0,0,1,-776,-472)" stroke-linecap="butt">
      <circle fill="none" r="15" clip-path="url(#clipPath2)" cx="813.8124" cy="616.12"/>
      <text x="808.1844" xml:space="preserve" y="620.8339" clip-path="url(#clipPath2)" font-family="sans-serif" stroke="none">'a'</text>
    </g>
    <g fill="rgb(255,204,0)" text-rendering="geometricPrecision" shape-rendering="geometricPrecision" transform="matrix(1,0,0,1,-776,-472)" stroke="rgb(255,204,0)">
      <circle r="15" clip-path="url(#clipPath2)" cx="873.8124" cy="616.12" stroke="none"/>
    </g>
    <g text-rendering="geometricPrecision" stroke-miterlimit="1.45" shape-rendering="geometricPrecision" transform="matrix(1,0,0,1,-776,-472)" stroke-linecap="butt">
      <circle fill="none" r="15" clip-path="url(#clipPath2)" cx="873.8124" cy="616.12"/>
      <text x="866.5233" xml:space="preserve" y="620.8339" clip-path="url(#clipPath2)" font-family="sans-serif" stroke="none">'m'</text>
    </g>
    <g transform="matrix(1,0,0,1,-776,-472)" fill-opacity="0.498" fill="rgb(255,0,0)" text-rendering="geometricPrecision" shape-rendering="geometricPrecision" stroke="rgb(255,0,0)" stroke-opacity="0.498">
      <rect x="810.1644" width="53.2" height="20" y="492.52" clip-path="url(#clipPath2)" stroke="none"/>
    </g>
    <g text-rendering="geometricPrecision" stroke-miterlimit="1.45" shape-rendering="geometricPrecision" transform="matrix(1,0,0,1,-776,-472)" stroke-linecap="butt">
      <rect fill="none" x="810.1644" width="53.2" height="20" y="492.52" clip-path="url(#clipPath2)"/>
      <text x="814.0886" xml:space="preserve" y="507.2339" clip-path="url(#clipPath2)" font-family="sans-serif" stroke="none">ABletras</text>
      <rect x="791.3124" y="487.64" clip-path="url(#clipPath2)" fill="none" width="165" stroke-dasharray="6,2" height="150"/>
    </g>
    <g fill="rgb(255,204,0)" text-rendering="geometricPrecision" shape-rendering="geometricPrecision" transform="matrix(1,0,0,1,-776,-472)" stroke="rgb(255,204,0)">
      <rect x="983.3644" width="125" height="20" y="512.32" clip-path="url(#clipPath2)" stroke="none"/>
    </g>
    <g text-rendering="geometricPrecision" stroke-miterlimit="1.45" shape-rendering="geometricPrecision" transform="matrix(1,0,0,1,-776,-472)" stroke-linecap="butt">
      <rect fill="none" x="983.3644" width="125" height="20" y="512.32" clip-path="url(#clipPath2)"/>
      <text x="990.5607" xml:space="preserve" y="527.0339" clip-path="url(#clipPath2)" font-family="sans-serif" stroke="none">buscar(ABletras, 'm')</text>
    </g>
    <g fill="rgb(255,204,0)" text-rendering="geometricPrecision" shape-rendering="geometricPrecision" transform="matrix(1,0,0,1,-776,-472)" stroke="rgb(255,204,0)">
      <rect x="983.3644" width="125" height="20" y="592.32" clip-path="url(#clipPath2)" stroke="none"/>
    </g>
    <g text-rendering="geometricPrecision" stroke-miterlimit="1.45" shape-rendering="geometricPrecision" transform="matrix(1,0,0,1,-776,-472)" stroke-linecap="butt">
      <rect fill="none" x="983.3644" width="125" height="20" y="592.32" clip-path="url(#clipPath2)"/>
      <text x="993.8917" xml:space="preserve" y="607.0339" clip-path="url(#clipPath2)" font-family="sans-serif" stroke="none">buscar(ABletras, 't')</text>
    </g>
    <g fill="rgb(255,102,0)" text-rendering="geometricPrecision" shape-rendering="geometricPrecision" transform="matrix(1,0,0,1,-776,-472)" stroke="rgb(255,102,0)">
      <rect x="1135.4164" width="50" height="30" y="587.32" clip-path="url(#clipPath2)" stroke="none"/>
    </g>
    <g text-rendering="geometricPrecision" stroke-miterlimit="1.45" shape-rendering="geometricPrecision" transform="matrix(1,0,0,1,-776,-472)" stroke-linecap="butt">
      <rect fill="none" x="1135.4164" width="50" height="30" y="587.32" clip-path="url(#clipPath2)"/>
      <text x="1145.7445" xml:space="preserve" y="607.0339" clip-path="url(#clipPath2)" font-family="sans-serif" stroke="none">False</text>
    </g>
    <g fill="rgb(204,255,204)" text-rendering="geometricPrecision" shape-rendering="geometricPrecision" transform="matrix(1,0,0,1,-776,-472)" stroke="rgb(204,255,204)">
      <rect x="1135.4164" width="50" height="30" y="507.32" clip-path="url(#clipPath2)" stroke="none"/>
    </g>
    <g text-rendering="geometricPrecision" stroke-miterlimit="1.45" shape-rendering="geometricPrecision" transform="matrix(1,0,0,1,-776,-472)" stroke-linecap="butt">
      <rect fill="none" x="1135.4164" width="50" height="30" y="507.32" clip-path="url(#clipPath2)"/>
      <text x="1148.0795" xml:space="preserve" y="527.0339" clip-path="url(#clipPath2)" font-family="sans-serif" stroke="none">True</text>
      <path fill="none" d="M898.8881 554.7621 L915.7901 564.4204" clip-path="url(#clipPath2)"/>
      <path d="M925.3408 569.8779 L917.8987 558.7148 L911.945 569.1337 Z" clip-path="url(#clipPath2)" stroke="none"/>
      <path fill="none" d="M929.1892 589.1866 L924.2681 595.5513" clip-path="url(#clipPath2)"/>
      <path d="M917.5396 604.2534 L929.6264 598.4302 L920.1331 591.0901 Z" clip-path="url(#clipPath2)" stroke="none"/>
      <path fill="none" d="M873.6533 556.0314 L864.9783 562.2202" clip-path="url(#clipPath2)"/>
      <path d="M856.0235 568.6086 L869.277 566.5239 L862.3079 556.755 Z" clip-path="url(#clipPath2)" stroke="none"/>
      <path fill="none" d="M834.6372 589.1866 L829.7161 595.5513" clip-path="url(#clipPath2)"/>
      <path d="M822.9876 604.2534 L835.0744 598.4302 L825.5811 591.0901 Z" clip-path="url(#clipPath2)" stroke="none"/>
      <path fill="none" d="M852.9876 589.1866 L857.9088 595.5513" clip-path="url(#clipPath2)"/>
      <path d="M864.6372 604.2534 L862.0437 591.0901 L852.5504 598.4302 Z" clip-path="url(#clipPath2)" stroke="none"/>
      <path fill="none" d="M863.3644 502.2499 L885.8644 502.0215 L885.8644 521.32" clip-path="url(#clipPath2)"/>
      <path d="M885.8644 532.32 L891.8644 520.32 L879.8644 520.32 Z" clip-path="url(#clipPath2)" stroke="none"/>
      <path fill="none" d="M956.3213 522.32 L969.6144 522.32" stroke-width="3" clip-path="url(#clipPath2)"/>
      <path d="M983.3644 522.32 L968.3644 514.82 L968.3644 529.82 Z" stroke-width="3" clip-path="url(#clipPath2)" stroke="none"/>
      <path fill="none" d="M956.3213 602.32 L969.6144 602.32" stroke-width="3" clip-path="url(#clipPath2)"/>
      <path d="M983.3644 602.32 L968.3644 594.82 L968.3644 609.82 Z" stroke-width="3" clip-path="url(#clipPath2)" stroke="none"/>
      <path fill="none" d="M1108.3644 602.32 L1121.6664 602.32" stroke-width="3" clip-path="url(#clipPath2)"/>
      <path d="M1135.4164 602.32 L1120.4164 594.82 L1120.4164 609.82 Z" stroke-width="3" clip-path="url(#clipPath2)" stroke="none"/>
      <path fill="none" d="M1108.3644 522.32 L1121.6664 522.32" stroke-width="3" clip-path="url(#clipPath2)"/>
      <path d="M1135.4164 522.32 L1120.4164 514.82 L1120.4164 529.82 Z" stroke-width="3" clip-path="url(#clipPath2)" stroke="none"/>
    </g>
  </g>
</svg>
