<?xml version="1.0" encoding="UTF-8"?><svg xmlns="http://www.w3.org/2000/svg" xmlns:xlink="http://www.w3.org/1999/xlink" fill-opacity="1" color-rendering="auto" color-interpolation="auto" text-rendering="auto" stroke="black" stroke-linecap="square" width="882" stroke-miterlimit="10" shape-rendering="auto" stroke-opacity="1" fill="black" stroke-dasharray="none" font-weight="normal" stroke-width="1" height="475" font-family="'Dialog'" font-style="normal" stroke-linejoin="miter" font-size="12px" stroke-dashoffset="0" image-rendering="auto">
  <!--Generated by ySVG 2.6-->
  <defs id="genericDefs"/>
  <g>
    <defs id="defs1">
      <clipPath clipPathUnits="userSpaceOnUse" id="clipPath1">
        <path d="M0 0 L882 0 L882 475 L0 475 L0 0 Z"/>
      </clipPath>
      <clipPath clipPathUnits="userSpaceOnUse" id="clipPath2">
        <path d="M390 425 L1272 425 L1272 900 L390 900 L390 425 Z"/>
      </clipPath>
    </defs>
    <g fill="rgb(255,204,0)" text-rendering="geometricPrecision" shape-rendering="geometricPrecision" transform="matrix(1,0,0,1,-390,-425)" stroke="rgb(255,204,0)">
      <circle r="15" clip-path="url(#clipPath2)" cx="810" cy="510" stroke="none"/>
    </g>
    <g text-rendering="geometricPrecision" stroke-miterlimit="1.45" shape-rendering="geometricPrecision" transform="matrix(1,0,0,1,-390,-425)" stroke-linecap="butt">
      <circle fill="none" r="15" clip-path="url(#clipPath2)" cx="810" cy="510"/>
    </g>
    <g fill="rgb(255,204,0)" text-rendering="geometricPrecision" shape-rendering="geometricPrecision" transform="matrix(1,0,0,1,-390,-425)" stroke="rgb(255,204,0)">
      <circle r="15" clip-path="url(#clipPath2)" cx="930" cy="570" stroke="none"/>
    </g>
    <g text-rendering="geometricPrecision" stroke-miterlimit="1.45" shape-rendering="geometricPrecision" transform="matrix(1,0,0,1,-390,-425)" stroke-linecap="butt">
      <circle fill="none" r="15" clip-path="url(#clipPath2)" cx="930" cy="570"/>
    </g>
    <g fill="rgb(255,204,0)" text-rendering="geometricPrecision" shape-rendering="geometricPrecision" transform="matrix(1,0,0,1,-390,-425)" stroke="rgb(255,204,0)">
      <circle r="15" clip-path="url(#clipPath2)" cx="690" cy="570" stroke="none"/>
    </g>
    <g text-rendering="geometricPrecision" stroke-miterlimit="1.45" shape-rendering="geometricPrecision" transform="matrix(1,0,0,1,-390,-425)" stroke-linecap="butt">
      <circle fill="none" r="15" clip-path="url(#clipPath2)" cx="690" cy="570"/>
    </g>
    <g transform="matrix(1,0,0,1,-390,-425)" fill-opacity="0.498" fill="rgb(255,0,0)" text-rendering="geometricPrecision" shape-rendering="geometricPrecision" stroke="rgb(255,0,0)" stroke-opacity="0.498">
      <rect x="735" width="30" height="20" y="440" clip-path="url(#clipPath2)" stroke="none"/>
    </g>
    <g text-rendering="geometricPrecision" stroke-miterlimit="1.45" shape-rendering="geometricPrecision" transform="matrix(1,0,0,1,-390,-425)" stroke-linecap="butt">
      <rect fill="none" x="735" width="30" height="20" y="440" clip-path="url(#clipPath2)"/>
      <text x="737.9941" xml:space="preserve" y="454.7139" clip-path="url(#clipPath2)" font-family="sans-serif" stroke="none">ABB</text>
    </g>
    <g fill="rgb(255,204,0)" text-rendering="geometricPrecision" shape-rendering="geometricPrecision" transform="matrix(1,0,0,1,-390,-425)" stroke="rgb(255,204,0)">
      <circle r="15" clip-path="url(#clipPath2)" cx="600" cy="690" stroke="none"/>
    </g>
    <g text-rendering="geometricPrecision" stroke-miterlimit="1.45" shape-rendering="geometricPrecision" transform="matrix(1,0,0,1,-390,-425)" stroke-linecap="butt">
      <circle fill="none" r="15" clip-path="url(#clipPath2)" cx="600" cy="690"/>
    </g>
    <g fill="rgb(255,204,0)" text-rendering="geometricPrecision" shape-rendering="geometricPrecision" transform="matrix(1,0,0,1,-390,-425)" stroke="rgb(255,204,0)">
      <circle r="15" clip-path="url(#clipPath2)" cx="720" cy="690" stroke="none"/>
    </g>
    <g text-rendering="geometricPrecision" stroke-miterlimit="1.45" shape-rendering="geometricPrecision" transform="matrix(1,0,0,1,-390,-425)" stroke-linecap="butt">
      <circle fill="none" r="15" clip-path="url(#clipPath2)" cx="720" cy="690"/>
    </g>
    <g fill="rgb(255,204,0)" text-rendering="geometricPrecision" shape-rendering="geometricPrecision" transform="matrix(1,0,0,1,-390,-425)" stroke="rgb(255,204,0)">
      <circle r="15" clip-path="url(#clipPath2)" cx="840" cy="690" stroke="none"/>
    </g>
    <g text-rendering="geometricPrecision" stroke-miterlimit="1.45" shape-rendering="geometricPrecision" transform="matrix(1,0,0,1,-390,-425)" stroke-linecap="butt">
      <circle fill="none" r="15" clip-path="url(#clipPath2)" cx="840" cy="690"/>
    </g>
    <g fill="rgb(255,204,0)" text-rendering="geometricPrecision" shape-rendering="geometricPrecision" transform="matrix(1,0,0,1,-390,-425)" stroke="rgb(255,204,0)">
      <circle r="15" clip-path="url(#clipPath2)" cx="960" cy="690" stroke="none"/>
    </g>
    <g text-rendering="geometricPrecision" stroke-miterlimit="1.45" shape-rendering="geometricPrecision" transform="matrix(1,0,0,1,-390,-425)" stroke-linecap="butt">
      <circle fill="none" r="15" clip-path="url(#clipPath2)" cx="960" cy="690"/>
    </g>
    <g fill="rgb(255,204,0)" text-rendering="geometricPrecision" shape-rendering="geometricPrecision" transform="matrix(1,0,0,1,-390,-425)" stroke="rgb(255,204,0)">
      <circle r="15" clip-path="url(#clipPath2)" cx="750" cy="630" stroke="none"/>
    </g>
    <g text-rendering="geometricPrecision" stroke-miterlimit="1.45" shape-rendering="geometricPrecision" transform="matrix(1,0,0,1,-390,-425)" stroke-linecap="butt">
      <circle fill="none" r="15" clip-path="url(#clipPath2)" cx="750" cy="630"/>
    </g>
    <g fill="rgb(255,204,0)" text-rendering="geometricPrecision" shape-rendering="geometricPrecision" transform="matrix(1,0,0,1,-390,-425)" stroke="rgb(255,204,0)">
      <circle r="15" clip-path="url(#clipPath2)" cx="990" cy="630" stroke="none"/>
    </g>
    <g text-rendering="geometricPrecision" stroke-miterlimit="1.45" shape-rendering="geometricPrecision" transform="matrix(1,0,0,1,-390,-425)" stroke-linecap="butt">
      <circle fill="none" r="15" clip-path="url(#clipPath2)" cx="990" cy="630"/>
    </g>
    <g fill="rgb(255,204,0)" text-rendering="geometricPrecision" shape-rendering="geometricPrecision" transform="matrix(1,0,0,1,-390,-425)" stroke="rgb(255,204,0)">
      <circle r="15" clip-path="url(#clipPath2)" cx="660" cy="690" stroke="none"/>
    </g>
    <g text-rendering="geometricPrecision" stroke-miterlimit="1.45" shape-rendering="geometricPrecision" transform="matrix(1,0,0,1,-390,-425)" stroke-linecap="butt">
      <circle fill="none" r="15" clip-path="url(#clipPath2)" cx="660" cy="690"/>
    </g>
    <g fill="rgb(255,204,0)" text-rendering="geometricPrecision" shape-rendering="geometricPrecision" transform="matrix(1,0,0,1,-390,-425)" stroke="rgb(255,204,0)">
      <circle r="15" clip-path="url(#clipPath2)" cx="780" cy="690" stroke="none"/>
    </g>
    <g text-rendering="geometricPrecision" stroke-miterlimit="1.45" shape-rendering="geometricPrecision" transform="matrix(1,0,0,1,-390,-425)" stroke-linecap="butt">
      <circle fill="none" r="15" clip-path="url(#clipPath2)" cx="780" cy="690"/>
    </g>
    <g fill="rgb(255,204,0)" text-rendering="geometricPrecision" shape-rendering="geometricPrecision" transform="matrix(1,0,0,1,-390,-425)" stroke="rgb(255,204,0)">
      <circle r="15" clip-path="url(#clipPath2)" cx="900" cy="690" stroke="none"/>
    </g>
    <g text-rendering="geometricPrecision" stroke-miterlimit="1.45" shape-rendering="geometricPrecision" transform="matrix(1,0,0,1,-390,-425)" stroke-linecap="butt">
      <circle fill="none" r="15" clip-path="url(#clipPath2)" cx="900" cy="690"/>
    </g>
    <g fill="rgb(255,204,0)" text-rendering="geometricPrecision" shape-rendering="geometricPrecision" transform="matrix(1,0,0,1,-390,-425)" stroke="rgb(255,204,0)">
      <circle r="15" clip-path="url(#clipPath2)" cx="870" cy="630" stroke="none"/>
    </g>
    <g text-rendering="geometricPrecision" stroke-miterlimit="1.45" shape-rendering="geometricPrecision" transform="matrix(1,0,0,1,-390,-425)" stroke-linecap="butt">
      <circle fill="none" r="15" clip-path="url(#clipPath2)" cx="870" cy="630"/>
    </g>
    <g fill="rgb(255,204,0)" text-rendering="geometricPrecision" shape-rendering="geometricPrecision" transform="matrix(1,0,0,1,-390,-425)" stroke="rgb(255,204,0)">
      <circle r="15" clip-path="url(#clipPath2)" cx="630" cy="630" stroke="none"/>
    </g>
    <g text-rendering="geometricPrecision" stroke-miterlimit="1.45" shape-rendering="geometricPrecision" transform="matrix(1,0,0,1,-390,-425)" stroke-linecap="butt">
      <circle fill="none" r="15" clip-path="url(#clipPath2)" cx="630" cy="630"/>
    </g>
    <g fill="rgb(255,204,0)" text-rendering="geometricPrecision" shape-rendering="geometricPrecision" transform="matrix(1,0,0,1,-390,-425)" stroke="rgb(255,204,0)">
      <circle r="15" clip-path="url(#clipPath2)" cx="1020" cy="690" stroke="none"/>
    </g>
    <g text-rendering="geometricPrecision" stroke-miterlimit="1.45" shape-rendering="geometricPrecision" transform="matrix(1,0,0,1,-390,-425)" stroke-linecap="butt">
      <circle fill="none" r="15" clip-path="url(#clipPath2)" cx="1020" cy="690"/>
    </g>
    <g fill="rgb(255,204,0)" text-rendering="geometricPrecision" shape-rendering="geometricPrecision" transform="matrix(1,0,0,1,-390,-425)" stroke="rgb(255,204,0)">
      <circle r="15" clip-path="url(#clipPath2)" cx="510" cy="810" stroke="none"/>
    </g>
    <g text-rendering="geometricPrecision" stroke-miterlimit="1.45" shape-rendering="geometricPrecision" transform="matrix(1,0,0,1,-390,-425)" stroke-linecap="butt">
      <circle fill="none" r="15" clip-path="url(#clipPath2)" cx="510" cy="810"/>
    </g>
    <g fill="rgb(255,204,0)" text-rendering="geometricPrecision" shape-rendering="geometricPrecision" transform="matrix(1,0,0,1,-390,-425)" stroke="rgb(255,204,0)">
      <circle r="15" clip-path="url(#clipPath2)" cx="630" cy="810" stroke="none"/>
    </g>
    <g text-rendering="geometricPrecision" stroke-miterlimit="1.45" shape-rendering="geometricPrecision" transform="matrix(1,0,0,1,-390,-425)" stroke-linecap="butt">
      <circle fill="none" r="15" clip-path="url(#clipPath2)" cx="630" cy="810"/>
    </g>
    <g fill="rgb(255,204,0)" text-rendering="geometricPrecision" shape-rendering="geometricPrecision" transform="matrix(1,0,0,1,-390,-425)" stroke="rgb(255,204,0)">
      <circle r="15" clip-path="url(#clipPath2)" cx="750" cy="810" stroke="none"/>
    </g>
    <g text-rendering="geometricPrecision" stroke-miterlimit="1.45" shape-rendering="geometricPrecision" transform="matrix(1,0,0,1,-390,-425)" stroke-linecap="butt">
      <circle fill="none" r="15" clip-path="url(#clipPath2)" cx="750" cy="810"/>
    </g>
    <g fill="rgb(255,204,0)" text-rendering="geometricPrecision" shape-rendering="geometricPrecision" transform="matrix(1,0,0,1,-390,-425)" stroke="rgb(255,204,0)">
      <circle r="15" clip-path="url(#clipPath2)" cx="870" cy="810" stroke="none"/>
    </g>
    <g text-rendering="geometricPrecision" stroke-miterlimit="1.45" shape-rendering="geometricPrecision" transform="matrix(1,0,0,1,-390,-425)" stroke-linecap="butt">
      <circle fill="none" r="15" clip-path="url(#clipPath2)" cx="870" cy="810"/>
    </g>
    <g fill="rgb(255,204,0)" text-rendering="geometricPrecision" shape-rendering="geometricPrecision" transform="matrix(1,0,0,1,-390,-425)" stroke="rgb(255,204,0)">
      <circle r="15" clip-path="url(#clipPath2)" cx="990" cy="810" stroke="none"/>
    </g>
    <g text-rendering="geometricPrecision" stroke-miterlimit="1.45" shape-rendering="geometricPrecision" transform="matrix(1,0,0,1,-390,-425)" stroke-linecap="butt">
      <circle fill="none" r="15" clip-path="url(#clipPath2)" cx="990" cy="810"/>
    </g>
    <g fill="rgb(255,204,0)" text-rendering="geometricPrecision" shape-rendering="geometricPrecision" transform="matrix(1,0,0,1,-390,-425)" stroke="rgb(255,204,0)">
      <circle r="15" clip-path="url(#clipPath2)" cx="1110" cy="810" stroke="none"/>
    </g>
    <g text-rendering="geometricPrecision" stroke-miterlimit="1.45" shape-rendering="geometricPrecision" transform="matrix(1,0,0,1,-390,-425)" stroke-linecap="butt">
      <circle fill="none" r="15" clip-path="url(#clipPath2)" cx="1110" cy="810"/>
    </g>
    <g fill="rgb(255,204,0)" text-rendering="geometricPrecision" shape-rendering="geometricPrecision" transform="matrix(1,0,0,1,-390,-425)" stroke="rgb(255,204,0)">
      <circle r="15" clip-path="url(#clipPath2)" cx="540" cy="870" stroke="none"/>
    </g>
    <g text-rendering="geometricPrecision" stroke-miterlimit="1.45" shape-rendering="geometricPrecision" transform="matrix(1,0,0,1,-390,-425)" stroke-linecap="butt">
      <circle fill="none" r="15" clip-path="url(#clipPath2)" cx="540" cy="870"/>
    </g>
    <g fill="rgb(255,204,0)" text-rendering="geometricPrecision" shape-rendering="geometricPrecision" transform="matrix(1,0,0,1,-390,-425)" stroke="rgb(255,204,0)">
      <circle r="15" clip-path="url(#clipPath2)" cx="480" cy="870" stroke="none"/>
    </g>
    <g text-rendering="geometricPrecision" stroke-miterlimit="1.45" shape-rendering="geometricPrecision" transform="matrix(1,0,0,1,-390,-425)" stroke-linecap="butt">
      <circle fill="none" r="15" clip-path="url(#clipPath2)" cx="480" cy="870"/>
    </g>
    <g fill="rgb(255,204,0)" text-rendering="geometricPrecision" shape-rendering="geometricPrecision" transform="matrix(1,0,0,1,-390,-425)" stroke="rgb(255,204,0)">
      <circle r="15" clip-path="url(#clipPath2)" cx="600" cy="870" stroke="none"/>
    </g>
    <g text-rendering="geometricPrecision" stroke-miterlimit="1.45" shape-rendering="geometricPrecision" transform="matrix(1,0,0,1,-390,-425)" stroke-linecap="butt">
      <circle fill="none" r="15" clip-path="url(#clipPath2)" cx="600" cy="870"/>
    </g>
    <g fill="rgb(255,204,0)" text-rendering="geometricPrecision" shape-rendering="geometricPrecision" transform="matrix(1,0,0,1,-390,-425)" stroke="rgb(255,204,0)">
      <circle r="15" clip-path="url(#clipPath2)" cx="660" cy="870" stroke="none"/>
    </g>
    <g text-rendering="geometricPrecision" stroke-miterlimit="1.45" shape-rendering="geometricPrecision" transform="matrix(1,0,0,1,-390,-425)" stroke-linecap="butt">
      <circle fill="none" r="15" clip-path="url(#clipPath2)" cx="660" cy="870"/>
    </g>
    <g fill="rgb(255,204,0)" text-rendering="geometricPrecision" shape-rendering="geometricPrecision" transform="matrix(1,0,0,1,-390,-425)" stroke="rgb(255,204,0)">
      <circle r="15" clip-path="url(#clipPath2)" cx="720" cy="870" stroke="none"/>
    </g>
    <g text-rendering="geometricPrecision" stroke-miterlimit="1.45" shape-rendering="geometricPrecision" transform="matrix(1,0,0,1,-390,-425)" stroke-linecap="butt">
      <circle fill="none" r="15" clip-path="url(#clipPath2)" cx="720" cy="870"/>
    </g>
    <g fill="rgb(255,204,0)" text-rendering="geometricPrecision" shape-rendering="geometricPrecision" transform="matrix(1,0,0,1,-390,-425)" stroke="rgb(255,204,0)">
      <circle r="15" clip-path="url(#clipPath2)" cx="780" cy="870" stroke="none"/>
    </g>
    <g text-rendering="geometricPrecision" stroke-miterlimit="1.45" shape-rendering="geometricPrecision" transform="matrix(1,0,0,1,-390,-425)" stroke-linecap="butt">
      <circle fill="none" r="15" clip-path="url(#clipPath2)" cx="780" cy="870"/>
    </g>
    <g fill="rgb(255,204,0)" text-rendering="geometricPrecision" shape-rendering="geometricPrecision" transform="matrix(1,0,0,1,-390,-425)" stroke="rgb(255,204,0)">
      <circle r="15" clip-path="url(#clipPath2)" cx="840" cy="870" stroke="none"/>
    </g>
    <g text-rendering="geometricPrecision" stroke-miterlimit="1.45" shape-rendering="geometricPrecision" transform="matrix(1,0,0,1,-390,-425)" stroke-linecap="butt">
      <circle fill="none" r="15" clip-path="url(#clipPath2)" cx="840" cy="870"/>
    </g>
    <g fill="rgb(255,204,0)" text-rendering="geometricPrecision" shape-rendering="geometricPrecision" transform="matrix(1,0,0,1,-390,-425)" stroke="rgb(255,204,0)">
      <circle r="15" clip-path="url(#clipPath2)" cx="900" cy="870" stroke="none"/>
    </g>
    <g text-rendering="geometricPrecision" stroke-miterlimit="1.45" shape-rendering="geometricPrecision" transform="matrix(1,0,0,1,-390,-425)" stroke-linecap="butt">
      <circle fill="none" r="15" clip-path="url(#clipPath2)" cx="900" cy="870"/>
    </g>
    <g fill="rgb(255,204,0)" text-rendering="geometricPrecision" shape-rendering="geometricPrecision" transform="matrix(1,0,0,1,-390,-425)" stroke="rgb(255,204,0)">
      <circle r="15" clip-path="url(#clipPath2)" cx="960" cy="870" stroke="none"/>
    </g>
    <g text-rendering="geometricPrecision" stroke-miterlimit="1.45" shape-rendering="geometricPrecision" transform="matrix(1,0,0,1,-390,-425)" stroke-linecap="butt">
      <circle fill="none" r="15" clip-path="url(#clipPath2)" cx="960" cy="870"/>
    </g>
    <g fill="rgb(255,204,0)" text-rendering="geometricPrecision" shape-rendering="geometricPrecision" transform="matrix(1,0,0,1,-390,-425)" stroke="rgb(255,204,0)">
      <circle r="15" clip-path="url(#clipPath2)" cx="1020" cy="870" stroke="none"/>
    </g>
    <g text-rendering="geometricPrecision" stroke-miterlimit="1.45" shape-rendering="geometricPrecision" transform="matrix(1,0,0,1,-390,-425)" stroke-linecap="butt">
      <circle fill="none" r="15" clip-path="url(#clipPath2)" cx="1020" cy="870"/>
    </g>
    <g fill="rgb(255,204,0)" text-rendering="geometricPrecision" shape-rendering="geometricPrecision" transform="matrix(1,0,0,1,-390,-425)" stroke="rgb(255,204,0)">
      <circle r="15" clip-path="url(#clipPath2)" cx="1080" cy="870" stroke="none"/>
    </g>
    <g text-rendering="geometricPrecision" stroke-miterlimit="1.45" shape-rendering="geometricPrecision" transform="matrix(1,0,0,1,-390,-425)" stroke-linecap="butt">
      <circle fill="none" r="15" clip-path="url(#clipPath2)" cx="1080" cy="870"/>
    </g>
    <g fill="rgb(255,204,0)" text-rendering="geometricPrecision" shape-rendering="geometricPrecision" transform="matrix(1,0,0,1,-390,-425)" stroke="rgb(255,204,0)">
      <circle r="15" clip-path="url(#clipPath2)" cx="1140" cy="870" stroke="none"/>
    </g>
    <g text-rendering="geometricPrecision" stroke-miterlimit="1.45" shape-rendering="geometricPrecision" transform="matrix(1,0,0,1,-390,-425)" stroke-linecap="butt">
      <circle fill="none" r="15" clip-path="url(#clipPath2)" cx="1140" cy="870"/>
      <text x="1223.999" font-size="20px" y="515.3223" clip-path="url(#clipPath2)" font-family="'Courier New'" stroke="none" xml:space="preserve">1</text>
      <text x="1223.999" font-size="20px" y="575.3223" clip-path="url(#clipPath2)" font-family="'Courier New'" stroke="none" xml:space="preserve">3</text>
      <text x="1223.999" font-size="20px" y="635.3223" clip-path="url(#clipPath2)" font-family="'Courier New'" stroke="none" xml:space="preserve">7</text>
      <text x="1217.998" font-size="20px" y="695.3223" clip-path="url(#clipPath2)" font-family="'Courier New'" stroke="none" xml:space="preserve">15</text>
      <text x="1211.9971" font-size="20px" y="755.3223" clip-path="url(#clipPath2)" font-family="'Courier New'" stroke="none" xml:space="preserve">...</text>
      <text x="1205.9961" font-size="20px" y="875.3223" clip-path="url(#clipPath2)" font-family="'Courier New'" stroke="none" xml:space="preserve">1023</text>
      <text x="1211.9971" font-size="20px" y="815.3223" clip-path="url(#clipPath2)" font-family="'Courier New'" stroke="none" xml:space="preserve">511</text>
      <path fill="none" d="M823.4164 516.7082 L906.7449 558.3724" clip-path="url(#clipPath2)"/>
      <path d="M916.5836 563.2918 L908.5337 552.5587 L903.1672 563.2918 Z" clip-path="url(#clipPath2)" stroke="none"/>
      <path fill="none" d="M796.5836 516.7082 L713.2551 558.3724" clip-path="url(#clipPath2)"/>
      <path d="M703.4164 563.2918 L716.8328 563.2918 L711.4663 552.5587 Z" clip-path="url(#clipPath2)" stroke="none"/>
      <path fill="none" d="M765 450 L810 450 L810 484" clip-path="url(#clipPath2)"/>
      <path d="M810 495 L816 483 L804 483 Z" clip-path="url(#clipPath2)" stroke="none"/>
      <path fill="none" d="M700.6066 580.6066 L731.6152 611.6152" clip-path="url(#clipPath2)"/>
      <path d="M739.3934 619.3934 L735.1508 606.6655 L726.6655 615.1508 Z" clip-path="url(#clipPath2)" stroke="none"/>
      <path fill="none" d="M743.2918 643.4164 L731.6276 666.7449" clip-path="url(#clipPath2)"/>
      <path d="M726.7082 676.5836 L737.4413 668.5337 L726.7082 663.1672 Z" clip-path="url(#clipPath2)" stroke="none"/>
      <path fill="none" d="M940.6066 580.6066 L971.6152 611.6152" clip-path="url(#clipPath2)"/>
      <path d="M979.3934 619.3934 L975.1508 606.6655 L966.6655 615.1508 Z" clip-path="url(#clipPath2)" stroke="none"/>
      <path fill="none" d="M983.2918 643.4164 L971.6276 666.7449" clip-path="url(#clipPath2)"/>
      <path d="M966.7082 676.5836 L977.4413 668.5337 L966.7082 663.1672 Z" clip-path="url(#clipPath2)" stroke="none"/>
      <path fill="none" d="M756.7082 643.4164 L768.3724 666.7449" clip-path="url(#clipPath2)"/>
      <path d="M773.2918 676.5836 L773.2918 663.1672 L762.5587 668.5337 Z" clip-path="url(#clipPath2)" stroke="none"/>
      <path fill="none" d="M919.3934 580.6066 L888.3848 611.6152" clip-path="url(#clipPath2)"/>
      <path d="M880.6066 619.3934 L893.3345 615.1508 L884.8492 606.6655 Z" clip-path="url(#clipPath2)" stroke="none"/>
      <path fill="none" d="M863.2918 643.4164 L851.6276 666.7449" clip-path="url(#clipPath2)"/>
      <path d="M846.7082 676.5836 L857.4413 668.5337 L846.7082 663.1672 Z" clip-path="url(#clipPath2)" stroke="none"/>
      <path fill="none" d="M876.7082 643.4164 L888.3724 666.7449" clip-path="url(#clipPath2)"/>
      <path d="M893.2918 676.5836 L893.2918 663.1672 L882.5587 668.5337 Z" clip-path="url(#clipPath2)" stroke="none"/>
      <path fill="none" d="M679.3934 580.6066 L648.3848 611.6152" clip-path="url(#clipPath2)"/>
      <path d="M640.6066 619.3934 L653.3345 615.1508 L644.8492 606.6655 Z" clip-path="url(#clipPath2)" stroke="none"/>
      <path fill="none" d="M623.2918 643.4164 L611.6276 666.7449" clip-path="url(#clipPath2)"/>
      <path d="M606.7082 676.5836 L617.4413 668.5337 L606.7082 663.1672 Z" clip-path="url(#clipPath2)" stroke="none"/>
      <path fill="none" d="M636.7082 643.4164 L648.3724 666.7449" clip-path="url(#clipPath2)"/>
      <path d="M653.2918 676.5836 L653.2918 663.1672 L642.5587 668.5337 Z" clip-path="url(#clipPath2)" stroke="none"/>
      <path fill="none" d="M996.7082 643.4164 L1008.3724 666.7449" clip-path="url(#clipPath2)"/>
      <path d="M1013.2918 676.5836 L1013.2918 663.1672 L1002.5587 668.5337 Z" clip-path="url(#clipPath2)" stroke="none"/>
      <path fill="none" stroke-dasharray="6,2" d="M606.7082 703.4164 L623.2918 736.5836" clip-path="url(#clipPath2)"/>
      <path fill="none" stroke-dasharray="6,2" d="M653.2918 703.4164 L636.7082 736.5836" clip-path="url(#clipPath2)"/>
      <path fill="none" stroke-dasharray="6,2" d="M593.2918 703.4164 L576.7082 736.5836" clip-path="url(#clipPath2)"/>
      <path fill="none" stroke-dasharray="6,2" d="M666.7082 703.4164 L683.2918 736.5836" clip-path="url(#clipPath2)"/>
      <path fill="none" stroke-dasharray="6,2" d="M713.2918 703.4164 L696.7082 736.5836" clip-path="url(#clipPath2)"/>
      <path fill="none" stroke-dasharray="6,2" d="M726.7082 703.4164 L743.2918 736.5836" clip-path="url(#clipPath2)"/>
      <path fill="none" stroke-dasharray="6,2" d="M773.2918 703.4164 L756.7082 736.5836" clip-path="url(#clipPath2)"/>
      <path fill="none" stroke-dasharray="6,2" d="M786.7082 703.4164 L803.2918 736.5836" clip-path="url(#clipPath2)"/>
      <path fill="none" stroke-dasharray="6,2" d="M833.2918 703.4164 L816.7082 736.5836" clip-path="url(#clipPath2)"/>
      <path fill="none" stroke-dasharray="6,2" d="M846.7082 703.4164 L863.2918 736.5836" clip-path="url(#clipPath2)"/>
      <path fill="none" stroke-dasharray="6,2" d="M893.2918 703.4164 L876.7082 736.5836" clip-path="url(#clipPath2)"/>
      <path fill="none" stroke-dasharray="6,2" d="M906.7082 703.4164 L923.2918 736.5836" clip-path="url(#clipPath2)"/>
      <path fill="none" stroke-dasharray="6,2" d="M953.2918 703.4164 L936.7082 736.5836" clip-path="url(#clipPath2)"/>
      <path fill="none" stroke-dasharray="6,2" d="M966.7082 703.4164 L983.2918 736.5836" clip-path="url(#clipPath2)"/>
      <path fill="none" stroke-dasharray="6,2" d="M1013.2918 703.4164 L996.7082 736.5836" clip-path="url(#clipPath2)"/>
      <path fill="none" stroke-dasharray="6,2" d="M1026.7083 703.4164 L1043.2917 736.5836" clip-path="url(#clipPath2)"/>
      <path fill="none" stroke-dasharray="6,2" d="M559.3934 760.6066 L528.3848 791.6152" clip-path="url(#clipPath2)"/>
      <path stroke-dasharray="6,2" d="M520.6066 799.3934 L533.3345 795.1508 L524.8492 786.6655 Z" clip-path="url(#clipPath2)" stroke="none"/>
      <path fill="none" stroke-dasharray="6,2" d="M679.3934 760.6066 L648.3848 791.6152" clip-path="url(#clipPath2)"/>
      <path stroke-dasharray="6,2" d="M640.6066 799.3934 L653.3345 795.1508 L644.8492 786.6655 Z" clip-path="url(#clipPath2)" stroke="none"/>
    </g>
    <g stroke-linecap="round" transform="matrix(1,0,0,1,-390,-425)" stroke-dashoffset="2" text-rendering="geometricPrecision" shape-rendering="geometricPrecision" stroke-dasharray="0,20" stroke-width="5" stroke-miterlimit="1.45">
      <path fill="none" d="M615 810 L525 810" clip-path="url(#clipPath2)"/>
    </g>
    <g text-rendering="geometricPrecision" stroke-miterlimit="1.45" stroke-dasharray="6,2" shape-rendering="geometricPrecision" transform="matrix(1,0,0,1,-390,-425)" stroke-linecap="butt">
      <path fill="none" d="M799.3934 760.6066 L768.3848 791.6152" clip-path="url(#clipPath2)"/>
      <path d="M760.6066 799.3934 L773.3345 795.1508 L764.8492 786.6655 Z" clip-path="url(#clipPath2)" stroke="none"/>
    </g>
    <g stroke-linecap="round" transform="matrix(1,0,0,1,-390,-425)" stroke-dashoffset="2" text-rendering="geometricPrecision" shape-rendering="geometricPrecision" stroke-dasharray="0,20" stroke-width="5" stroke-miterlimit="1.45">
      <path fill="none" d="M735 810 L645 810" clip-path="url(#clipPath2)"/>
    </g>
    <g text-rendering="geometricPrecision" stroke-miterlimit="1.45" stroke-dasharray="6,2" shape-rendering="geometricPrecision" transform="matrix(1,0,0,1,-390,-425)" stroke-linecap="butt">
      <path fill="none" d="M820.6066 760.6066 L851.6152 791.6152" clip-path="url(#clipPath2)"/>
      <path d="M859.3934 799.3934 L855.1508 786.6655 L846.6655 795.1508 Z" clip-path="url(#clipPath2)" stroke="none"/>
      <path fill="none" d="M940.6066 760.6066 L971.6152 791.6152" clip-path="url(#clipPath2)"/>
      <path d="M979.3934 799.3934 L975.1508 786.6655 L966.6655 795.1508 Z" clip-path="url(#clipPath2)" stroke="none"/>
    </g>
    <g stroke-linecap="round" transform="matrix(1,0,0,1,-390,-425)" stroke-dashoffset="2" text-rendering="geometricPrecision" shape-rendering="geometricPrecision" stroke-dasharray="0,20" stroke-width="5" stroke-miterlimit="1.45">
      <path fill="none" d="M885 810 L975 810" clip-path="url(#clipPath2)"/>
    </g>
    <g text-rendering="geometricPrecision" stroke-miterlimit="1.45" stroke-dasharray="6,2" shape-rendering="geometricPrecision" transform="matrix(1,0,0,1,-390,-425)" stroke-linecap="butt">
      <path fill="none" d="M1060.6066 760.6066 L1091.6152 791.6152" clip-path="url(#clipPath2)"/>
      <path d="M1099.3934 799.3934 L1095.1508 786.6655 L1086.6655 795.1508 Z" clip-path="url(#clipPath2)" stroke="none"/>
    </g>
    <g stroke-linecap="round" transform="matrix(1,0,0,1,-390,-425)" stroke-dashoffset="2" text-rendering="geometricPrecision" shape-rendering="geometricPrecision" stroke-dasharray="0,20" stroke-width="5" stroke-miterlimit="1.45">
      <path fill="none" d="M1005 810 L1095 810" clip-path="url(#clipPath2)"/>
    </g>
    <g text-rendering="geometricPrecision" stroke-miterlimit="1.45" shape-rendering="geometricPrecision" transform="matrix(1,0,0,1,-390,-425)" stroke-linecap="butt">
      <path fill="none" d="M516.7082 823.4164 L529.7141 849.4282" clip-path="url(#clipPath2)"/>
      <path d="M533.2918 856.5836 L532.3974 843.6144 L529.2669 848.5338 L523.4531 848.0865 Z" clip-path="url(#clipPath2)" stroke="none"/>
      <path fill="none" d="M503.2918 823.4164 L490.2859 849.4282" clip-path="url(#clipPath2)"/>
      <path d="M486.7082 856.5836 L496.5469 848.0865 L490.7332 848.5337 L487.6027 843.6144 Z" clip-path="url(#clipPath2)" stroke="none"/>
      <path fill="none" d="M623.2918 823.4164 L610.2859 849.4282" clip-path="url(#clipPath2)"/>
      <path d="M606.7082 856.5836 L616.5469 848.0865 L610.7331 848.5338 L607.6026 843.6144 Z" clip-path="url(#clipPath2)" stroke="none"/>
      <path fill="none" d="M636.7082 823.4164 L649.7141 849.4282" clip-path="url(#clipPath2)"/>
      <path d="M653.2918 856.5836 L652.3974 843.6144 L649.2669 848.5338 L643.4531 848.0865 Z" clip-path="url(#clipPath2)" stroke="none"/>
      <path fill="none" d="M743.2918 823.4164 L730.2859 849.4282" clip-path="url(#clipPath2)"/>
      <path d="M726.7082 856.5836 L736.5469 848.0865 L730.7331 848.5338 L727.6026 843.6144 Z" clip-path="url(#clipPath2)" stroke="none"/>
      <path fill="none" d="M756.7082 823.4164 L769.7141 849.4282" clip-path="url(#clipPath2)"/>
      <path d="M773.2918 856.5836 L772.3974 843.6144 L769.2669 848.5338 L763.4531 848.0865 Z" clip-path="url(#clipPath2)" stroke="none"/>
      <path fill="none" d="M863.2918 823.4164 L850.2859 849.4282" clip-path="url(#clipPath2)"/>
      <path d="M846.7082 856.5836 L856.5469 848.0865 L850.7331 848.5338 L847.6026 843.6144 Z" clip-path="url(#clipPath2)" stroke="none"/>
      <path fill="none" d="M876.7082 823.4164 L889.7141 849.4282" clip-path="url(#clipPath2)"/>
      <path d="M893.2918 856.5836 L892.3974 843.6144 L889.2669 848.5338 L883.4531 848.0865 Z" clip-path="url(#clipPath2)" stroke="none"/>
      <path fill="none" d="M983.2918 823.4164 L970.2859 849.4282" clip-path="url(#clipPath2)"/>
      <path d="M966.7082 856.5836 L976.5469 848.0865 L970.7331 848.5338 L967.6026 843.6144 Z" clip-path="url(#clipPath2)" stroke="none"/>
      <path fill="none" d="M996.7082 823.4164 L1009.7141 849.4282" clip-path="url(#clipPath2)"/>
      <path d="M1013.2918 856.5836 L1012.3974 843.6144 L1009.2669 848.5338 L1003.4531 848.0865 Z" clip-path="url(#clipPath2)" stroke="none"/>
      <path fill="none" d="M1103.2917 823.4164 L1090.2859 849.4282" clip-path="url(#clipPath2)"/>
      <path d="M1086.7083 856.5836 L1096.5469 848.0865 L1090.733 848.5338 L1087.6025 843.6144 Z" clip-path="url(#clipPath2)" stroke="none"/>
      <path fill="none" d="M1116.7083 823.4164 L1129.7141 849.4282" clip-path="url(#clipPath2)"/>
      <path d="M1133.2917 856.5836 L1132.3975 843.6144 L1129.267 848.5338 L1123.4531 848.0865 Z" clip-path="url(#clipPath2)" stroke="none"/>
      <path fill="none" stroke-dasharray="4,3,0,3" d="M435 840 L1215 840" clip-path="url(#clipPath2)" stroke-linecap="round"/>
      <path fill="none" stroke-dasharray="4,3,0,3" d="M435 720 L1215 720" clip-path="url(#clipPath2)" stroke-linecap="round"/>
      <path fill="none" stroke-dasharray="4,3,0,3" d="M435 780 L1215 780" clip-path="url(#clipPath2)" stroke-linecap="round"/>
      <path fill="none" stroke-dasharray="4,3,0,3" d="M435 660 L1215 660" clip-path="url(#clipPath2)" stroke-linecap="round"/>
      <path fill="none" stroke-dasharray="4,3,0,3" d="M435 600 L1215 600" clip-path="url(#clipPath2)" stroke-linecap="round"/>
      <path fill="none" stroke-dasharray="4,3,0,3" d="M435 540 L1215 540" clip-path="url(#clipPath2)" stroke-linecap="round"/>
    </g>
  </g>
</svg>
