<?xml version="1.0" encoding="UTF-8"?><svg xmlns="http://www.w3.org/2000/svg" xmlns:xlink="http://www.w3.org/1999/xlink" fill-opacity="1" color-rendering="auto" color-interpolation="auto" text-rendering="auto" stroke="black" stroke-linecap="square" width="625" stroke-miterlimit="10" shape-rendering="auto" stroke-opacity="1" fill="black" stroke-dasharray="none" font-weight="normal" stroke-width="1" height="215" font-family="'Dialog'" font-style="normal" stroke-linejoin="miter" font-size="12px" stroke-dashoffset="0" image-rendering="auto">
  <!--Generated by ySVG 2.6-->
  <defs id="genericDefs"/>
  <g>
    <defs id="defs1">
      <clipPath clipPathUnits="userSpaceOnUse" id="clipPath1">
        <path d="M0 0 L625 0 L625 215 L0 215 L0 0 Z"/>
      </clipPath>
      <clipPath clipPathUnits="userSpaceOnUse" id="clipPath2">
        <path d="M640 455 L1265 455 L1265 670 L640 670 L640 455 Z"/>
      </clipPath>
    </defs>
    <g fill="rgb(255,204,0)" text-rendering="geometricPrecision" shape-rendering="geometricPrecision" transform="matrix(1,0,0,1,-640,-455)" stroke="rgb(255,204,0)">
      <rect x="987.5" y="472.5" clip-path="url(#clipPath2)" width="185" rx="4" ry="4" height="50" stroke="none"/>
    </g>
    <g text-rendering="geometricPrecision" stroke-miterlimit="1.45" shape-rendering="geometricPrecision" transform="matrix(1,0,0,1,-640,-455)" stroke-linecap="butt">
      <rect x="987.5" y="472.5" clip-path="url(#clipPath2)" fill="none" width="185" rx="4" ry="4" height="50"/>
      <text x="993.5" font-size="16px" y="492.6953" clip-path="url(#clipPath2)" font-family="'Courier New'" stroke="none" xml:space="preserve">Cuenta</text>
      <text x="993.5" font-size="16px" y="510.8203" clip-path="url(#clipPath2)" font-family="'Courier New'" stroke="none" xml:space="preserve">'alma.observatory'</text>
    </g>
    <g fill="rgb(255,204,0)" text-rendering="geometricPrecision" shape-rendering="geometricPrecision" transform="matrix(1,0,0,1,-640,-455)" stroke="rgb(255,204,0)">
      <rect x="656.25" y="545" clip-path="url(#clipPath2)" width="160" rx="4" ry="4" height="50" stroke="none"/>
    </g>
    <g text-rendering="geometricPrecision" stroke-miterlimit="1.45" shape-rendering="geometricPrecision" transform="matrix(1,0,0,1,-640,-455)" stroke-linecap="butt">
      <rect x="656.25" y="545" clip-path="url(#clipPath2)" fill="none" width="160" rx="4" ry="4" height="50"/>
      <text x="662.25" font-size="16px" y="565.1953" clip-path="url(#clipPath2)" font-family="'Courier New'" stroke="none" xml:space="preserve">Cuenta</text>
      <text x="662.25" font-size="16px" y="583.3203" clip-path="url(#clipPath2)" font-family="'Courier New'" stroke="none" xml:space="preserve">'chayanne'</text>
    </g>
    <g fill="rgb(255,204,0)" text-rendering="geometricPrecision" shape-rendering="geometricPrecision" transform="matrix(1,0,0,1,-640,-455)" stroke="rgb(255,204,0)">
      <rect x="970" y="605" clip-path="url(#clipPath2)" width="160" rx="4" ry="4" height="50" stroke="none"/>
    </g>
    <g text-rendering="geometricPrecision" stroke-miterlimit="1.45" shape-rendering="geometricPrecision" transform="matrix(1,0,0,1,-640,-455)" stroke-linecap="butt">
      <rect x="970" y="605" clip-path="url(#clipPath2)" fill="none" width="160" rx="4" ry="4" height="50"/>
      <text x="976" font-size="16px" y="625.1953" clip-path="url(#clipPath2)" font-family="'Courier New'" stroke="none" xml:space="preserve">Cuenta</text>
      <text x="976" font-size="16px" y="643.3203" clip-path="url(#clipPath2)" font-family="'Courier New'" stroke="none" xml:space="preserve">'spyfamily_en'</text>
    </g>
    <g fill="rgb(255,204,0)" text-rendering="geometricPrecision" shape-rendering="geometricPrecision" transform="matrix(1,0,0,1,-640,-455)" stroke="rgb(255,204,0)">
      <rect x="840" y="545" clip-path="url(#clipPath2)" width="240" rx="4" ry="4" height="50" stroke="none"/>
    </g>
    <g text-rendering="geometricPrecision" stroke-miterlimit="1.45" shape-rendering="geometricPrecision" transform="matrix(1,0,0,1,-640,-455)" stroke-linecap="butt">
      <rect x="840" y="545" clip-path="url(#clipPath2)" fill="none" width="240" rx="4" ry="4" height="50"/>
      <text x="846" font-size="16px" y="565.1953" clip-path="url(#clipPath2)" font-family="'Courier New'" stroke="none" xml:space="preserve">Cuenta</text>
      <text x="846" font-size="16px" y="583.3203" clip-path="url(#clipPath2)" font-family="'Courier New'" stroke="none" xml:space="preserve">'noot.notbeaucheems'</text>
    </g>
    <g fill="rgb(255,204,0)" text-rendering="geometricPrecision" shape-rendering="geometricPrecision" transform="matrix(1,0,0,1,-640,-455)" stroke="rgb(255,204,0)">
      <rect x="655.5" y="470.2797" clip-path="url(#clipPath2)" width="220" rx="4" ry="4" height="50" stroke="none"/>
    </g>
    <g text-rendering="geometricPrecision" stroke-miterlimit="1.45" shape-rendering="geometricPrecision" transform="matrix(1,0,0,1,-640,-455)" stroke-linecap="butt">
      <rect x="655.5" y="470.2797" clip-path="url(#clipPath2)" fill="none" width="220" rx="4" ry="4" height="50"/>
      <text x="661.5" font-size="16px" y="490.475" clip-path="url(#clipPath2)" font-family="'Courier New'" stroke="none" xml:space="preserve">Cuenta</text>
      <text x="661.5" font-size="16px" y="508.6" clip-path="url(#clipPath2)" font-family="'Courier New'" stroke="none" xml:space="preserve">'playvalorantofficial'</text>
    </g>
    <g fill="rgb(255,204,0)" text-rendering="geometricPrecision" shape-rendering="geometricPrecision" transform="matrix(1,0,0,1,-640,-455)" stroke="rgb(255,204,0)">
      <rect x="705" y="605" clip-path="url(#clipPath2)" width="210" rx="4" ry="4" height="50" stroke="none"/>
    </g>
    <g text-rendering="geometricPrecision" stroke-miterlimit="1.45" shape-rendering="geometricPrecision" transform="matrix(1,0,0,1,-640,-455)" stroke-linecap="butt">
      <rect x="705" y="605" clip-path="url(#clipPath2)" fill="none" width="210" rx="4" ry="4" height="50"/>
      <text x="711" font-size="16px" y="625.1953" clip-path="url(#clipPath2)" font-family="'Courier New'" stroke="none" xml:space="preserve">Cuenta</text>
      <text x="711" font-size="16px" y="643.3203" clip-path="url(#clipPath2)" font-family="'Courier New'" stroke="none" xml:space="preserve">'willowthesquishycat'</text>
    </g>
    <g fill="rgb(255,204,0)" text-rendering="geometricPrecision" shape-rendering="geometricPrecision" transform="matrix(1,0,0,1,-640,-455)" stroke="rgb(255,204,0)">
      <rect x="1090" y="545" clip-path="url(#clipPath2)" width="160" rx="4" ry="4" height="50" stroke="none"/>
    </g>
    <g text-rendering="geometricPrecision" stroke-miterlimit="1.45" shape-rendering="geometricPrecision" transform="matrix(1,0,0,1,-640,-455)" stroke-linecap="butt">
      <rect x="1090" y="545" clip-path="url(#clipPath2)" fill="none" width="160" rx="4" ry="4" height="50"/>
      <text x="1096" font-size="16px" y="565.1953" clip-path="url(#clipPath2)" font-family="'Courier New'" stroke="none" xml:space="preserve">Cuenta</text>
      <text x="1096" font-size="16px" y="583.3203" clip-path="url(#clipPath2)" font-family="'Courier New'" stroke="none" xml:space="preserve">'pokemon'</text>
    </g>
  </g>
</svg>
