<?xml version="1.0" encoding="UTF-8"?><svg xmlns="http://www.w3.org/2000/svg" xmlns:xlink="http://www.w3.org/1999/xlink" fill-opacity="1" color-rendering="auto" color-interpolation="auto" text-rendering="auto" stroke="black" stroke-linecap="square" width="1050" stroke-miterlimit="10" shape-rendering="auto" stroke-opacity="1" fill="black" stroke-dasharray="none" font-weight="normal" stroke-width="1" height="660" font-family="'Dialog'" font-style="normal" stroke-linejoin="miter" font-size="12px" stroke-dashoffset="0" image-rendering="auto">
  <!--Generated by ySVG 2.6-->
  <defs id="genericDefs"/>
  <g>
    <defs id="defs1">
      <clipPath clipPathUnits="userSpaceOnUse" id="clipPath1">
        <path d="M0 0 L1050 0 L1050 660 L0 660 L0 0 Z"/>
      </clipPath>
      <clipPath clipPathUnits="userSpaceOnUse" id="clipPath2">
        <path d="M825 525 L1875 525 L1875 1185 L825 1185 L825 525 Z"/>
      </clipPath>
    </defs>
    <g fill="rgb(255,204,0)" text-rendering="geometricPrecision" shape-rendering="geometricPrecision" transform="matrix(1,0,0,1,-825,-525)" stroke="rgb(255,204,0)">
      <rect x="929.7614" width="30" height="30" y="1005" clip-path="url(#clipPath2)" stroke="none"/>
    </g>
    <g text-rendering="geometricPrecision" stroke-miterlimit="1.45" shape-rendering="geometricPrecision" transform="matrix(1,0,0,1,-825,-525)" stroke-linecap="butt">
      <rect fill="none" x="929.7614" width="30" height="30" y="1005" clip-path="url(#clipPath2)"/>
    </g>
    <g fill="rgb(255,204,0)" text-rendering="geometricPrecision" shape-rendering="geometricPrecision" transform="matrix(1,0,0,1,-825,-525)" stroke="rgb(255,204,0)">
      <rect x="959.7614" width="15" height="30" y="1005" clip-path="url(#clipPath2)" stroke="none"/>
    </g>
    <g text-rendering="geometricPrecision" stroke-miterlimit="1.45" shape-rendering="geometricPrecision" transform="matrix(1,0,0,1,-825,-525)" stroke-linecap="butt">
      <rect fill="none" x="959.7614" width="15" height="30" y="1005" clip-path="url(#clipPath2)"/>
    </g>
    <g fill="rgb(255,204,0)" text-rendering="geometricPrecision" shape-rendering="geometricPrecision" transform="matrix(1,0,0,1,-825,-525)" stroke="rgb(255,204,0)">
      <rect x="1002.2614" width="30" height="30" y="1005" clip-path="url(#clipPath2)" stroke="none"/>
    </g>
    <g text-rendering="geometricPrecision" stroke-miterlimit="1.45" shape-rendering="geometricPrecision" transform="matrix(1,0,0,1,-825,-525)" stroke-linecap="butt">
      <rect fill="none" x="1002.2614" width="30" height="30" y="1005" clip-path="url(#clipPath2)"/>
    </g>
    <g fill="rgb(255,204,0)" text-rendering="geometricPrecision" shape-rendering="geometricPrecision" transform="matrix(1,0,0,1,-825,-525)" stroke="rgb(255,204,0)">
      <rect x="1032.2614" width="15" height="30" y="1005" clip-path="url(#clipPath2)" stroke="none"/>
    </g>
    <g text-rendering="geometricPrecision" stroke-miterlimit="1.45" shape-rendering="geometricPrecision" transform="matrix(1,0,0,1,-825,-525)" stroke-linecap="butt">
      <rect fill="none" x="1032.2614" width="15" height="30" y="1005" clip-path="url(#clipPath2)"/>
    </g>
    <g fill="rgb(255,204,0)" text-rendering="geometricPrecision" shape-rendering="geometricPrecision" transform="matrix(1,0,0,1,-825,-525)" stroke="rgb(255,204,0)">
      <rect x="962.2614" width="10" height="10" y="1015" clip-path="url(#clipPath2)" stroke="none"/>
      <rect x="1065" width="30" height="30" y="1095" clip-path="url(#clipPath2)" stroke="none"/>
    </g>
    <g text-rendering="geometricPrecision" stroke-miterlimit="1.45" shape-rendering="geometricPrecision" transform="matrix(1,0,0,1,-825,-525)" stroke-linecap="butt">
      <rect fill="none" x="1065" width="30" height="30" y="1095" clip-path="url(#clipPath2)"/>
    </g>
    <g fill="rgb(255,204,0)" text-rendering="geometricPrecision" shape-rendering="geometricPrecision" transform="matrix(1,0,0,1,-825,-525)" stroke="rgb(255,204,0)">
      <rect x="1095" width="15" height="30" y="1095" clip-path="url(#clipPath2)" stroke="none"/>
    </g>
    <g text-rendering="geometricPrecision" stroke-miterlimit="1.45" shape-rendering="geometricPrecision" transform="matrix(1,0,0,1,-825,-525)" stroke-linecap="butt">
      <rect fill="none" x="1095" width="15" height="30" y="1095" clip-path="url(#clipPath2)"/>
    </g>
    <g fill="rgb(255,204,0)" text-rendering="geometricPrecision" shape-rendering="geometricPrecision" transform="matrix(1,0,0,1,-825,-525)" stroke="rgb(255,204,0)">
      <rect x="1034.7614" width="10" height="10" y="1015" clip-path="url(#clipPath2)" stroke="none"/>
      <rect x="1137.5" width="30" height="30" y="1095" clip-path="url(#clipPath2)" stroke="none"/>
    </g>
    <g text-rendering="geometricPrecision" stroke-miterlimit="1.45" shape-rendering="geometricPrecision" transform="matrix(1,0,0,1,-825,-525)" stroke-linecap="butt">
      <rect fill="none" x="1137.5" width="30" height="30" y="1095" clip-path="url(#clipPath2)"/>
    </g>
    <g fill="rgb(255,204,0)" text-rendering="geometricPrecision" shape-rendering="geometricPrecision" transform="matrix(1,0,0,1,-825,-525)" stroke="rgb(255,204,0)">
      <rect x="1167.5" width="15" height="30" y="1095" clip-path="url(#clipPath2)" stroke="none"/>
    </g>
    <g text-rendering="geometricPrecision" stroke-miterlimit="1.45" shape-rendering="geometricPrecision" transform="matrix(1,0,0,1,-825,-525)" stroke-linecap="butt">
      <rect fill="none" x="1167.5" width="15" height="30" y="1095" clip-path="url(#clipPath2)"/>
    </g>
    <g fill="rgb(255,204,0)" text-rendering="geometricPrecision" shape-rendering="geometricPrecision" transform="matrix(1,0,0,1,-825,-525)" stroke="rgb(255,204,0)">
      <rect x="1097.5" width="10" height="10" y="1105" clip-path="url(#clipPath2)" stroke="none"/>
    </g>
    <g text-rendering="geometricPrecision" stroke-miterlimit="1.45" shape-rendering="geometricPrecision" transform="matrix(1,0,0,1,-825,-525)" stroke-linecap="butt">
      <circle fill="none" r="10" clip-path="url(#clipPath2)" cx="1194.768" cy="1142.952"/>
      <text x="1190.6005" font-size="10px" y="1146.8802" clip-path="url(#clipPath2)" font-family="sans-serif" stroke="none" xml:space="preserve">///</text>
    </g>
    <g fill="rgb(255,204,0)" text-rendering="geometricPrecision" shape-rendering="geometricPrecision" transform="matrix(1,0,0,1,-825,-525)" stroke="rgb(255,204,0)">
      <rect x="1170" width="10" height="10" y="1105" clip-path="url(#clipPath2)" stroke="none"/>
    </g>
    <g transform="matrix(1,0,0,1,-825,-525)" fill-opacity="0.498" fill="rgb(255,0,0)" text-rendering="geometricPrecision" shape-rendering="geometricPrecision" stroke="rgb(255,0,0)" stroke-opacity="0.498">
      <rect x="854.7614" width="45" height="20" y="1010" clip-path="url(#clipPath2)" stroke="none"/>
    </g>
    <g text-rendering="geometricPrecision" stroke-miterlimit="1.45" shape-rendering="geometricPrecision" transform="matrix(1,0,0,1,-825,-525)" stroke-linecap="butt">
      <rect fill="none" x="854.7614" width="45" height="20" y="1010" clip-path="url(#clipPath2)"/>
      <text x="872.8121" font-size="16px" y="1026.2852" clip-path="url(#clipPath2)" font-family="sans-serif" stroke="none" xml:space="preserve">L</text>
    </g>
    <g fill="rgb(255,204,0)" text-rendering="geometricPrecision" shape-rendering="geometricPrecision" transform="matrix(1,0,0,1,-825,-525)" stroke="rgb(255,204,0)">
      <rect x="1021.0197" width="15" height="30" y="1095" clip-path="url(#clipPath2)" stroke="none"/>
    </g>
    <g text-rendering="geometricPrecision" stroke-miterlimit="1.45" shape-rendering="geometricPrecision" transform="matrix(1,0,0,1,-825,-525)" stroke-linecap="butt">
      <rect fill="none" x="1021.0197" width="15" height="30" y="1095" clip-path="url(#clipPath2)"/>
    </g>
    <g fill="rgb(255,204,0)" text-rendering="geometricPrecision" shape-rendering="geometricPrecision" transform="matrix(1,0,0,1,-825,-525)" stroke="rgb(255,204,0)">
      <rect x="1023.5197" width="10" height="10" y="1105" clip-path="url(#clipPath2)" stroke="none"/>
      <rect x="1074.7614" width="30" height="30" y="1005" clip-path="url(#clipPath2)" stroke="none"/>
    </g>
    <g text-rendering="geometricPrecision" stroke-miterlimit="1.45" shape-rendering="geometricPrecision" transform="matrix(1,0,0,1,-825,-525)" stroke-linecap="butt">
      <rect fill="none" x="1074.7614" width="30" height="30" y="1005" clip-path="url(#clipPath2)"/>
    </g>
    <g fill="rgb(255,204,0)" text-rendering="geometricPrecision" shape-rendering="geometricPrecision" transform="matrix(1,0,0,1,-825,-525)" stroke="rgb(255,204,0)">
      <rect x="1104.7614" width="15" height="30" y="1005" clip-path="url(#clipPath2)" stroke="none"/>
    </g>
    <g text-rendering="geometricPrecision" stroke-miterlimit="1.45" shape-rendering="geometricPrecision" transform="matrix(1,0,0,1,-825,-525)" stroke-linecap="butt">
      <rect fill="none" x="1104.7614" width="15" height="30" y="1005" clip-path="url(#clipPath2)"/>
    </g>
    <g fill="rgb(255,204,0)" text-rendering="geometricPrecision" shape-rendering="geometricPrecision" transform="matrix(1,0,0,1,-825,-525)" stroke="rgb(255,204,0)">
      <rect x="1107.2614" width="10" height="10" y="1015" clip-path="url(#clipPath2)" stroke="none"/>
      <rect x="991.0197" width="30" height="30" y="1095" clip-path="url(#clipPath2)" stroke="none"/>
    </g>
    <g text-rendering="geometricPrecision" stroke-miterlimit="1.45" shape-rendering="geometricPrecision" transform="matrix(1,0,0,1,-825,-525)" stroke-linecap="butt">
      <rect fill="none" x="991.0197" width="30" height="30" y="1095" clip-path="url(#clipPath2)"/>
    </g>
    <g fill="rgb(255,204,0)" text-rendering="geometricPrecision" shape-rendering="geometricPrecision" transform="matrix(1,0,0,1,-825,-525)" stroke="rgb(255,204,0)">
      <rect x="1147.5" width="30" height="30" y="1005" clip-path="url(#clipPath2)" stroke="none"/>
    </g>
    <g text-rendering="geometricPrecision" stroke-miterlimit="1.45" shape-rendering="geometricPrecision" transform="matrix(1,0,0,1,-825,-525)" stroke-linecap="butt">
      <rect fill="none" x="1147.5" width="30" height="30" y="1005" clip-path="url(#clipPath2)"/>
    </g>
    <g fill="rgb(255,204,0)" text-rendering="geometricPrecision" shape-rendering="geometricPrecision" transform="matrix(1,0,0,1,-825,-525)" stroke="rgb(255,204,0)">
      <rect x="1177.5" width="15" height="30" y="1005" clip-path="url(#clipPath2)" stroke="none"/>
    </g>
    <g text-rendering="geometricPrecision" stroke-miterlimit="1.45" shape-rendering="geometricPrecision" transform="matrix(1,0,0,1,-825,-525)" stroke-linecap="butt">
      <rect fill="none" x="1177.5" width="15" height="30" y="1005" clip-path="url(#clipPath2)"/>
    </g>
    <g fill="rgb(255,204,0)" text-rendering="geometricPrecision" shape-rendering="geometricPrecision" transform="matrix(1,0,0,1,-825,-525)" stroke="rgb(255,204,0)">
      <rect x="1180" width="10" height="10" y="1015" clip-path="url(#clipPath2)" stroke="none"/>
      <rect x="912.7386" width="30" height="30" y="1095" clip-path="url(#clipPath2)" stroke="none"/>
    </g>
    <g text-rendering="geometricPrecision" stroke-miterlimit="1.45" shape-rendering="geometricPrecision" transform="matrix(1,0,0,1,-825,-525)" stroke-linecap="butt">
      <rect fill="none" x="912.7386" width="30" height="30" y="1095" clip-path="url(#clipPath2)"/>
    </g>
    <g fill="rgb(255,204,0)" text-rendering="geometricPrecision" shape-rendering="geometricPrecision" transform="matrix(1,0,0,1,-825,-525)" stroke="rgb(255,204,0)">
      <rect x="942.7386" width="15" height="30" y="1095" clip-path="url(#clipPath2)" stroke="none"/>
    </g>
    <g text-rendering="geometricPrecision" stroke-miterlimit="1.45" shape-rendering="geometricPrecision" transform="matrix(1,0,0,1,-825,-525)" stroke-linecap="butt">
      <rect fill="none" x="942.7386" width="15" height="30" y="1095" clip-path="url(#clipPath2)"/>
    </g>
    <g fill="rgb(255,204,0)" text-rendering="geometricPrecision" shape-rendering="geometricPrecision" transform="matrix(1,0,0,1,-825,-525)" stroke="rgb(255,204,0)">
      <rect x="945.2386" width="10" height="10" y="1105" clip-path="url(#clipPath2)" stroke="none"/>
      <rect x="975" y="615" clip-path="url(#clipPath2)" width="30" rx="4" ry="4" height="30" stroke="none"/>
    </g>
    <g text-rendering="geometricPrecision" stroke-miterlimit="1.45" shape-rendering="geometricPrecision" transform="matrix(1,0,0,1,-825,-525)" stroke-linecap="butt">
      <rect x="975" y="615" clip-path="url(#clipPath2)" fill="none" width="30" rx="4" ry="4" height="30"/>
    </g>
    <g fill="rgb(255,204,0)" text-rendering="geometricPrecision" shape-rendering="geometricPrecision" transform="matrix(1,0,0,1,-825,-525)" stroke="rgb(255,204,0)">
      <rect x="1035" y="675" clip-path="url(#clipPath2)" width="30" rx="4" ry="4" height="30" stroke="none"/>
    </g>
    <g text-rendering="geometricPrecision" stroke-miterlimit="1.45" shape-rendering="geometricPrecision" transform="matrix(1,0,0,1,-825,-525)" stroke-linecap="butt">
      <rect x="1035" y="675" clip-path="url(#clipPath2)" fill="none" width="30" rx="4" ry="4" height="30"/>
    </g>
    <g fill="rgb(255,204,0)" text-rendering="geometricPrecision" shape-rendering="geometricPrecision" transform="matrix(1,0,0,1,-825,-525)" stroke="rgb(255,204,0)">
      <rect x="915" y="675" clip-path="url(#clipPath2)" width="30" rx="4" ry="4" height="30" stroke="none"/>
    </g>
    <g text-rendering="geometricPrecision" stroke-miterlimit="1.45" shape-rendering="geometricPrecision" transform="matrix(1,0,0,1,-825,-525)" stroke-linecap="butt">
      <rect x="915" y="675" clip-path="url(#clipPath2)" fill="none" width="30" rx="4" ry="4" height="30"/>
    </g>
    <g fill="rgb(255,204,0)" text-rendering="geometricPrecision" shape-rendering="geometricPrecision" transform="matrix(1,0,0,1,-825,-525)" stroke="rgb(255,204,0)">
      <rect x="1065" y="735" clip-path="url(#clipPath2)" width="30" rx="4" ry="4" height="30" stroke="none"/>
    </g>
    <g text-rendering="geometricPrecision" stroke-miterlimit="1.45" shape-rendering="geometricPrecision" transform="matrix(1,0,0,1,-825,-525)" stroke-linecap="butt">
      <rect x="1065" y="735" clip-path="url(#clipPath2)" fill="none" width="30" rx="4" ry="4" height="30"/>
    </g>
    <g fill="rgb(255,204,0)" text-rendering="geometricPrecision" shape-rendering="geometricPrecision" transform="matrix(1,0,0,1,-825,-525)" stroke="rgb(255,204,0)">
      <rect x="1005" y="735" clip-path="url(#clipPath2)" width="30" rx="4" ry="4" height="30" stroke="none"/>
    </g>
    <g text-rendering="geometricPrecision" stroke-miterlimit="1.45" shape-rendering="geometricPrecision" transform="matrix(1,0,0,1,-825,-525)" stroke-linecap="butt">
      <rect x="1005" y="735" clip-path="url(#clipPath2)" fill="none" width="30" rx="4" ry="4" height="30"/>
    </g>
    <g fill="rgb(255,204,0)" text-rendering="geometricPrecision" shape-rendering="geometricPrecision" transform="matrix(1,0,0,1,-825,-525)" stroke="rgb(255,204,0)">
      <rect x="945" y="735" clip-path="url(#clipPath2)" width="30" rx="4" ry="4" height="30" stroke="none"/>
    </g>
    <g text-rendering="geometricPrecision" stroke-miterlimit="1.45" shape-rendering="geometricPrecision" transform="matrix(1,0,0,1,-825,-525)" stroke-linecap="butt">
      <rect x="945" y="735" clip-path="url(#clipPath2)" fill="none" width="30" rx="4" ry="4" height="30"/>
    </g>
    <g fill="rgb(255,204,0)" text-rendering="geometricPrecision" shape-rendering="geometricPrecision" transform="matrix(1,0,0,1,-825,-525)" stroke="rgb(255,204,0)">
      <rect x="885" y="735" clip-path="url(#clipPath2)" width="30" rx="4" ry="4" height="30" stroke="none"/>
    </g>
    <g text-rendering="geometricPrecision" stroke-miterlimit="1.45" shape-rendering="geometricPrecision" transform="matrix(1,0,0,1,-825,-525)" stroke-linecap="butt">
      <rect x="885" y="735" clip-path="url(#clipPath2)" fill="none" width="30" rx="4" ry="4" height="30"/>
    </g>
    <g fill="rgb(255,204,0)" text-rendering="geometricPrecision" shape-rendering="geometricPrecision" transform="matrix(1,0,0,1,-825,-525)" stroke="rgb(255,204,0)">
      <rect x="915" y="795" clip-path="url(#clipPath2)" width="30" rx="4" ry="4" height="30" stroke="none"/>
    </g>
    <g text-rendering="geometricPrecision" stroke-miterlimit="1.45" shape-rendering="geometricPrecision" transform="matrix(1,0,0,1,-825,-525)" stroke-linecap="butt">
      <rect x="915" y="795" clip-path="url(#clipPath2)" fill="none" width="30" rx="4" ry="4" height="30"/>
    </g>
    <g transform="matrix(1,0,0,1,-825,-525)" fill-opacity="0.498" fill="rgb(255,0,0)" text-rendering="geometricPrecision" shape-rendering="geometricPrecision" stroke="rgb(255,0,0)" stroke-opacity="0.498">
      <rect x="907.5" width="45" height="20" y="560" clip-path="url(#clipPath2)" stroke="none"/>
    </g>
    <g text-rendering="geometricPrecision" stroke-miterlimit="1.45" shape-rendering="geometricPrecision" transform="matrix(1,0,0,1,-825,-525)" stroke-linecap="butt">
      <rect fill="none" x="907.5" width="45" height="20" y="560" clip-path="url(#clipPath2)"/>
      <text x="919.3281" font-size="16px" y="576.2852" clip-path="url(#clipPath2)" font-family="sans-serif" stroke="none" xml:space="preserve">AB</text>
    </g>
    <g fill="rgb(255,204,0)" text-rendering="geometricPrecision" shape-rendering="geometricPrecision" transform="matrix(1,0,0,1,-825,-525)" stroke="rgb(255,204,0)">
      <rect x="1695" y="615" clip-path="url(#clipPath2)" width="30" rx="4" ry="4" height="30" stroke="none"/>
    </g>
    <g text-rendering="geometricPrecision" stroke-miterlimit="1.45" shape-rendering="geometricPrecision" transform="matrix(1,0,0,1,-825,-525)" stroke-linecap="butt">
      <rect x="1695" y="615" clip-path="url(#clipPath2)" fill="none" width="30" rx="4" ry="4" height="30"/>
    </g>
    <g fill="rgb(255,204,0)" text-rendering="geometricPrecision" shape-rendering="geometricPrecision" transform="matrix(1,0,0,1,-825,-525)" stroke="rgb(255,204,0)">
      <rect x="1755" y="675" clip-path="url(#clipPath2)" width="30" rx="4" ry="4" height="30" stroke="none"/>
    </g>
    <g text-rendering="geometricPrecision" stroke-miterlimit="1.45" shape-rendering="geometricPrecision" transform="matrix(1,0,0,1,-825,-525)" stroke-linecap="butt">
      <rect x="1755" y="675" clip-path="url(#clipPath2)" fill="none" width="30" rx="4" ry="4" height="30"/>
    </g>
    <g fill="rgb(255,204,0)" text-rendering="geometricPrecision" shape-rendering="geometricPrecision" transform="matrix(1,0,0,1,-825,-525)" stroke="rgb(255,204,0)">
      <rect x="1635" y="675" clip-path="url(#clipPath2)" width="30" rx="4" ry="4" height="30" stroke="none"/>
    </g>
    <g text-rendering="geometricPrecision" stroke-miterlimit="1.45" shape-rendering="geometricPrecision" transform="matrix(1,0,0,1,-825,-525)" stroke-linecap="butt">
      <rect x="1635" y="675" clip-path="url(#clipPath2)" fill="none" width="30" rx="4" ry="4" height="30"/>
    </g>
    <g fill="rgb(255,204,0)" text-rendering="geometricPrecision" shape-rendering="geometricPrecision" transform="matrix(1,0,0,1,-825,-525)" stroke="rgb(255,204,0)">
      <rect x="1785" y="735" clip-path="url(#clipPath2)" width="30" rx="4" ry="4" height="30" stroke="none"/>
    </g>
    <g text-rendering="geometricPrecision" stroke-miterlimit="1.45" shape-rendering="geometricPrecision" transform="matrix(1,0,0,1,-825,-525)" stroke-linecap="butt">
      <rect x="1785" y="735" clip-path="url(#clipPath2)" fill="none" width="30" rx="4" ry="4" height="30"/>
    </g>
    <g fill="rgb(255,204,0)" text-rendering="geometricPrecision" shape-rendering="geometricPrecision" transform="matrix(1,0,0,1,-825,-525)" stroke="rgb(255,204,0)">
      <rect x="1665" y="735" clip-path="url(#clipPath2)" width="30" rx="4" ry="4" height="30" stroke="none"/>
    </g>
    <g text-rendering="geometricPrecision" stroke-miterlimit="1.45" shape-rendering="geometricPrecision" transform="matrix(1,0,0,1,-825,-525)" stroke-linecap="butt">
      <rect x="1665" y="735" clip-path="url(#clipPath2)" fill="none" width="30" rx="4" ry="4" height="30"/>
    </g>
    <g fill="rgb(255,204,0)" text-rendering="geometricPrecision" shape-rendering="geometricPrecision" transform="matrix(1,0,0,1,-825,-525)" stroke="rgb(255,204,0)">
      <rect x="1605" y="735" clip-path="url(#clipPath2)" width="30" rx="4" ry="4" height="30" stroke="none"/>
    </g>
    <g text-rendering="geometricPrecision" stroke-miterlimit="1.45" shape-rendering="geometricPrecision" transform="matrix(1,0,0,1,-825,-525)" stroke-linecap="butt">
      <rect x="1605" y="735" clip-path="url(#clipPath2)" fill="none" width="30" rx="4" ry="4" height="30"/>
    </g>
    <g fill="rgb(255,204,0)" text-rendering="geometricPrecision" shape-rendering="geometricPrecision" transform="matrix(1,0,0,1,-825,-525)" stroke="rgb(255,204,0)">
      <rect x="1635" y="795" clip-path="url(#clipPath2)" width="30" rx="4" ry="4" height="30" stroke="none"/>
    </g>
    <g text-rendering="geometricPrecision" stroke-miterlimit="1.45" shape-rendering="geometricPrecision" transform="matrix(1,0,0,1,-825,-525)" stroke-linecap="butt">
      <rect x="1635" y="795" clip-path="url(#clipPath2)" fill="none" width="30" rx="4" ry="4" height="30"/>
    </g>
    <g transform="matrix(1,0,0,1,-825,-525)" fill-opacity="0.498" fill="rgb(255,0,0)" text-rendering="geometricPrecision" shape-rendering="geometricPrecision" stroke="rgb(255,0,0)" stroke-opacity="0.498">
      <rect x="1627.5" width="45" height="20" y="560" clip-path="url(#clipPath2)" stroke="none"/>
    </g>
    <g text-rendering="geometricPrecision" stroke-miterlimit="1.45" shape-rendering="geometricPrecision" transform="matrix(1,0,0,1,-825,-525)" stroke-linecap="butt">
      <rect fill="none" x="1627.5" width="45" height="20" y="560" clip-path="url(#clipPath2)"/>
      <text x="1639.3281" font-size="16px" y="576.2852" clip-path="url(#clipPath2)" font-family="sans-serif" stroke="none" xml:space="preserve">AB</text>
      <rect x="840" y="548.8661" clip-path="url(#clipPath2)" fill="none" width="300" stroke-dasharray="6,2" height="300"/>
      <rect x="1560" y="540" clip-path="url(#clipPath2)" fill="none" width="300" stroke-dasharray="6,2" height="300"/>
    </g>
    <g fill="rgb(255,204,0)" text-rendering="geometricPrecision" shape-rendering="geometricPrecision" transform="matrix(1,0,0,1,-825,-525)" stroke="rgb(255,204,0)">
      <rect x="1562.5" width="30" height="30" y="1005" clip-path="url(#clipPath2)" stroke="none"/>
    </g>
    <g text-rendering="geometricPrecision" stroke-miterlimit="1.45" shape-rendering="geometricPrecision" transform="matrix(1,0,0,1,-825,-525)" stroke-linecap="butt">
      <rect fill="none" x="1562.5" width="30" height="30" y="1005" clip-path="url(#clipPath2)"/>
    </g>
    <g fill="rgb(255,204,0)" text-rendering="geometricPrecision" shape-rendering="geometricPrecision" transform="matrix(1,0,0,1,-825,-525)" stroke="rgb(255,204,0)">
      <rect x="1592.5" width="15" height="30" y="1005" clip-path="url(#clipPath2)" stroke="none"/>
    </g>
    <g text-rendering="geometricPrecision" stroke-miterlimit="1.45" shape-rendering="geometricPrecision" transform="matrix(1,0,0,1,-825,-525)" stroke-linecap="butt">
      <rect fill="none" x="1592.5" width="15" height="30" y="1005" clip-path="url(#clipPath2)"/>
    </g>
    <g fill="rgb(255,204,0)" text-rendering="geometricPrecision" shape-rendering="geometricPrecision" transform="matrix(1,0,0,1,-825,-525)" stroke="rgb(255,204,0)">
      <rect x="1635" width="30" height="30" y="1005" clip-path="url(#clipPath2)" stroke="none"/>
    </g>
    <g text-rendering="geometricPrecision" stroke-miterlimit="1.45" shape-rendering="geometricPrecision" transform="matrix(1,0,0,1,-825,-525)" stroke-linecap="butt">
      <rect fill="none" x="1635" width="30" height="30" y="1005" clip-path="url(#clipPath2)"/>
    </g>
    <g fill="rgb(255,204,0)" text-rendering="geometricPrecision" shape-rendering="geometricPrecision" transform="matrix(1,0,0,1,-825,-525)" stroke="rgb(255,204,0)">
      <rect x="1665" width="15" height="30" y="1005" clip-path="url(#clipPath2)" stroke="none"/>
    </g>
    <g text-rendering="geometricPrecision" stroke-miterlimit="1.45" shape-rendering="geometricPrecision" transform="matrix(1,0,0,1,-825,-525)" stroke-linecap="butt">
      <rect fill="none" x="1665" width="15" height="30" y="1005" clip-path="url(#clipPath2)"/>
    </g>
    <g fill="rgb(255,204,0)" text-rendering="geometricPrecision" shape-rendering="geometricPrecision" transform="matrix(1,0,0,1,-825,-525)" stroke="rgb(255,204,0)">
      <rect x="1595" width="10" height="10" y="1015" clip-path="url(#clipPath2)" stroke="none"/>
      <rect x="1697.7386" width="30" height="30" y="1095" clip-path="url(#clipPath2)" stroke="none"/>
    </g>
    <g text-rendering="geometricPrecision" stroke-miterlimit="1.45" shape-rendering="geometricPrecision" transform="matrix(1,0,0,1,-825,-525)" stroke-linecap="butt">
      <rect fill="none" x="1697.7386" width="30" height="30" y="1095" clip-path="url(#clipPath2)"/>
    </g>
    <g fill="rgb(255,204,0)" text-rendering="geometricPrecision" shape-rendering="geometricPrecision" transform="matrix(1,0,0,1,-825,-525)" stroke="rgb(255,204,0)">
      <rect x="1727.7386" width="15" height="30" y="1095" clip-path="url(#clipPath2)" stroke="none"/>
    </g>
    <g text-rendering="geometricPrecision" stroke-miterlimit="1.45" shape-rendering="geometricPrecision" transform="matrix(1,0,0,1,-825,-525)" stroke-linecap="butt">
      <rect fill="none" x="1727.7386" width="15" height="30" y="1095" clip-path="url(#clipPath2)"/>
    </g>
    <g fill="rgb(255,204,0)" text-rendering="geometricPrecision" shape-rendering="geometricPrecision" transform="matrix(1,0,0,1,-825,-525)" stroke="rgb(255,204,0)">
      <rect x="1667.5" width="10" height="10" y="1015" clip-path="url(#clipPath2)" stroke="none"/>
      <rect x="1770.2386" width="30" height="30" y="1095" clip-path="url(#clipPath2)" stroke="none"/>
    </g>
    <g text-rendering="geometricPrecision" stroke-miterlimit="1.45" shape-rendering="geometricPrecision" transform="matrix(1,0,0,1,-825,-525)" stroke-linecap="butt">
      <rect fill="none" x="1770.2386" width="30" height="30" y="1095" clip-path="url(#clipPath2)"/>
    </g>
    <g fill="rgb(255,204,0)" text-rendering="geometricPrecision" shape-rendering="geometricPrecision" transform="matrix(1,0,0,1,-825,-525)" stroke="rgb(255,204,0)">
      <rect x="1800.2386" width="15" height="30" y="1095" clip-path="url(#clipPath2)" stroke="none"/>
    </g>
    <g text-rendering="geometricPrecision" stroke-miterlimit="1.45" shape-rendering="geometricPrecision" transform="matrix(1,0,0,1,-825,-525)" stroke-linecap="butt">
      <rect fill="none" x="1800.2386" width="15" height="30" y="1095" clip-path="url(#clipPath2)"/>
    </g>
    <g fill="rgb(255,204,0)" text-rendering="geometricPrecision" shape-rendering="geometricPrecision" transform="matrix(1,0,0,1,-825,-525)" stroke="rgb(255,204,0)">
      <rect x="1730.2386" width="10" height="10" y="1105" clip-path="url(#clipPath2)" stroke="none"/>
    </g>
    <g text-rendering="geometricPrecision" stroke-miterlimit="1.45" shape-rendering="geometricPrecision" transform="matrix(1,0,0,1,-825,-525)" stroke-linecap="butt">
      <circle fill="none" r="10" clip-path="url(#clipPath2)" cx="1827.5066" cy="1142.952"/>
      <text x="1823.3391" font-size="10px" y="1146.8802" clip-path="url(#clipPath2)" font-family="sans-serif" stroke="none" xml:space="preserve">///</text>
    </g>
    <g fill="rgb(255,204,0)" text-rendering="geometricPrecision" shape-rendering="geometricPrecision" transform="matrix(1,0,0,1,-825,-525)" stroke="rgb(255,204,0)">
      <rect x="1802.7386" width="10" height="10" y="1105" clip-path="url(#clipPath2)" stroke="none"/>
    </g>
    <g transform="matrix(1,0,0,1,-825,-525)" fill-opacity="0.498" fill="rgb(255,0,0)" text-rendering="geometricPrecision" shape-rendering="geometricPrecision" stroke="rgb(255,0,0)" stroke-opacity="0.498">
      <rect x="1487.5" width="45" height="20" y="1010" clip-path="url(#clipPath2)" stroke="none"/>
    </g>
    <g text-rendering="geometricPrecision" stroke-miterlimit="1.45" shape-rendering="geometricPrecision" transform="matrix(1,0,0,1,-825,-525)" stroke-linecap="butt">
      <rect fill="none" x="1487.5" width="45" height="20" y="1010" clip-path="url(#clipPath2)"/>
      <text x="1505.5508" font-size="16px" y="1026.2852" clip-path="url(#clipPath2)" font-family="sans-serif" stroke="none" xml:space="preserve">L</text>
    </g>
    <g fill="rgb(255,204,0)" text-rendering="geometricPrecision" shape-rendering="geometricPrecision" transform="matrix(1,0,0,1,-825,-525)" stroke="rgb(255,204,0)">
      <rect x="1653.7583" width="15" height="30" y="1095" clip-path="url(#clipPath2)" stroke="none"/>
    </g>
    <g text-rendering="geometricPrecision" stroke-miterlimit="1.45" shape-rendering="geometricPrecision" transform="matrix(1,0,0,1,-825,-525)" stroke-linecap="butt">
      <rect fill="none" x="1653.7583" width="15" height="30" y="1095" clip-path="url(#clipPath2)"/>
    </g>
    <g fill="rgb(255,204,0)" text-rendering="geometricPrecision" shape-rendering="geometricPrecision" transform="matrix(1,0,0,1,-825,-525)" stroke="rgb(255,204,0)">
      <rect x="1656.2583" width="10" height="10" y="1105" clip-path="url(#clipPath2)" stroke="none"/>
      <rect x="1707.5" width="30" height="30" y="1005" clip-path="url(#clipPath2)" stroke="none"/>
    </g>
    <g text-rendering="geometricPrecision" stroke-miterlimit="1.45" shape-rendering="geometricPrecision" transform="matrix(1,0,0,1,-825,-525)" stroke-linecap="butt">
      <rect fill="none" x="1707.5" width="30" height="30" y="1005" clip-path="url(#clipPath2)"/>
    </g>
    <g fill="rgb(255,204,0)" text-rendering="geometricPrecision" shape-rendering="geometricPrecision" transform="matrix(1,0,0,1,-825,-525)" stroke="rgb(255,204,0)">
      <rect x="1737.5" width="15" height="30" y="1005" clip-path="url(#clipPath2)" stroke="none"/>
    </g>
    <g text-rendering="geometricPrecision" stroke-miterlimit="1.45" shape-rendering="geometricPrecision" transform="matrix(1,0,0,1,-825,-525)" stroke-linecap="butt">
      <rect fill="none" x="1737.5" width="15" height="30" y="1005" clip-path="url(#clipPath2)"/>
    </g>
    <g fill="rgb(255,204,0)" text-rendering="geometricPrecision" shape-rendering="geometricPrecision" transform="matrix(1,0,0,1,-825,-525)" stroke="rgb(255,204,0)">
      <rect x="1740" width="10" height="10" y="1015" clip-path="url(#clipPath2)" stroke="none"/>
      <rect x="1623.7583" width="30" height="30" y="1095" clip-path="url(#clipPath2)" stroke="none"/>
    </g>
    <g text-rendering="geometricPrecision" stroke-miterlimit="1.45" shape-rendering="geometricPrecision" transform="matrix(1,0,0,1,-825,-525)" stroke-linecap="butt">
      <rect fill="none" x="1623.7583" width="30" height="30" y="1095" clip-path="url(#clipPath2)"/>
    </g>
    <g fill="rgb(255,204,0)" text-rendering="geometricPrecision" shape-rendering="geometricPrecision" transform="matrix(1,0,0,1,-825,-525)" stroke="rgb(255,204,0)">
      <rect x="1780.2386" width="30" height="30" y="1005" clip-path="url(#clipPath2)" stroke="none"/>
    </g>
    <g text-rendering="geometricPrecision" stroke-miterlimit="1.45" shape-rendering="geometricPrecision" transform="matrix(1,0,0,1,-825,-525)" stroke-linecap="butt">
      <rect fill="none" x="1780.2386" width="30" height="30" y="1005" clip-path="url(#clipPath2)"/>
    </g>
    <g fill="rgb(255,204,0)" text-rendering="geometricPrecision" shape-rendering="geometricPrecision" transform="matrix(1,0,0,1,-825,-525)" stroke="rgb(255,204,0)">
      <rect x="1810.2386" width="15" height="30" y="1005" clip-path="url(#clipPath2)" stroke="none"/>
    </g>
    <g text-rendering="geometricPrecision" stroke-miterlimit="1.45" shape-rendering="geometricPrecision" transform="matrix(1,0,0,1,-825,-525)" stroke-linecap="butt">
      <rect fill="none" x="1810.2386" width="15" height="30" y="1005" clip-path="url(#clipPath2)"/>
    </g>
    <g fill="rgb(255,204,0)" text-rendering="geometricPrecision" shape-rendering="geometricPrecision" transform="matrix(1,0,0,1,-825,-525)" stroke="rgb(255,204,0)">
      <rect x="1812.7386" width="10" height="10" y="1015" clip-path="url(#clipPath2)" stroke="none"/>
    </g>
    <g text-rendering="geometricPrecision" stroke-miterlimit="1.45" stroke-dasharray="6,2" shape-rendering="geometricPrecision" transform="matrix(1,0,0,1,-825,-525)" stroke-linecap="butt">
      <rect fill="none" x="840" width="380" height="180" y="990" clip-path="url(#clipPath2)"/>
      <rect fill="none" x="1478.7583" width="380" height="180" y="990" clip-path="url(#clipPath2)"/>
    </g>
    <g fill="rgb(255,204,0)" text-rendering="geometricPrecision" shape-rendering="geometricPrecision" transform="matrix(1,0,0,1,-825,-525)" stroke="rgb(255,204,0)">
      <rect x="1260" width="180" height="30" y="675" clip-path="url(#clipPath2)" stroke="none"/>
    </g>
    <g text-rendering="geometricPrecision" stroke-miterlimit="1.45" shape-rendering="geometricPrecision" transform="matrix(1,0,0,1,-825,-525)" stroke-linecap="butt">
      <rect fill="none" x="1260" width="180" height="30" y="675" clip-path="url(#clipPath2)"/>
      <text x="1297.1914" font-size="16px" y="694.2578" clip-path="url(#clipPath2)" font-family="'Courier New'" stroke="none" xml:space="preserve">eliminarABB</text>
    </g>
    <g fill="rgb(255,204,0)" text-rendering="geometricPrecision" shape-rendering="geometricPrecision" transform="matrix(1,0,0,1,-825,-525)" stroke="rgb(255,204,0)">
      <rect x="1260" width="180" height="30" y="1065" clip-path="url(#clipPath2)" stroke="none"/>
    </g>
    <g text-rendering="geometricPrecision" stroke-miterlimit="1.45" shape-rendering="geometricPrecision" transform="matrix(1,0,0,1,-825,-525)" stroke-linecap="butt">
      <rect fill="none" x="1260" width="180" height="30" y="1065" clip-path="url(#clipPath2)"/>
      <text x="1287.5898" font-size="16px" y="1084.2578" clip-path="url(#clipPath2)" font-family="'Courier New'" stroke="none" xml:space="preserve">eliminarLista</text>
    </g>
    <g fill="rgb(255,204,0)" text-rendering="geometricPrecision" shape-rendering="geometricPrecision" transform="matrix(1,0,0,1,-825,-525)" stroke="rgb(255,204,0)">
      <rect x="900" width="180" height="30" y="900.3318" clip-path="url(#clipPath2)" stroke="none"/>
    </g>
    <g text-rendering="geometricPrecision" stroke-miterlimit="1.45" shape-rendering="geometricPrecision" transform="matrix(1,0,0,1,-825,-525)" stroke-linecap="butt">
      <rect fill="none" x="900" width="180" height="30" y="900.3318" clip-path="url(#clipPath2)"/>
      <text x="946.793" font-size="16px" y="919.5896" clip-path="url(#clipPath2)" font-family="'Courier New'" stroke="none" xml:space="preserve">ABBaLista</text>
    </g>
    <g fill="rgb(255,204,0)" text-rendering="geometricPrecision" shape-rendering="geometricPrecision" transform="matrix(1,0,0,1,-825,-525)" stroke="rgb(255,204,0)">
      <rect x="1620" width="180" height="30" y="899.7614" clip-path="url(#clipPath2)" stroke="none"/>
    </g>
    <g text-rendering="geometricPrecision" stroke-miterlimit="1.45" shape-rendering="geometricPrecision" transform="matrix(1,0,0,1,-825,-525)" stroke-linecap="butt">
      <rect fill="none" x="1620" width="180" height="30" y="899.7614" clip-path="url(#clipPath2)"/>
      <text x="1666.793" font-size="16px" y="919.0192" clip-path="url(#clipPath2)" font-family="'Courier New'" stroke="none" xml:space="preserve">ListaaABB</text>
      <path fill="none" d="M972.2614 1020 L987.1364 1020" stroke-width="4" clip-path="url(#clipPath2)"/>
      <path d="M1002.2614 1020 L985.7614 1011.75 L985.7614 1028.25 Z" stroke-width="4" clip-path="url(#clipPath2)" stroke="none"/>
      <path fill="none" d="M1107.5 1110 L1122.375 1110" stroke-width="4" clip-path="url(#clipPath2)"/>
      <path d="M1137.5 1110 L1121 1101.75 L1121 1118.25 Z" stroke-width="4" clip-path="url(#clipPath2)" stroke="none"/>
      <path fill="none" d="M1180 1110 L1194.7679 1110 L1194.7679 1117.827" stroke-width="4" clip-path="url(#clipPath2)"/>
      <path d="M1194.7679 1132.952 L1203.0179 1116.452 L1186.5179 1116.452 Z" stroke-width="4" clip-path="url(#clipPath2)" stroke="none"/>
      <path fill="none" d="M900.8414 1020 L914.6081 1020" stroke-width="4" clip-path="url(#clipPath2)"/>
      <path d="M929.7331 1020 L913.2331 1011.75 L913.2331 1028.25 Z" stroke-width="4" clip-path="url(#clipPath2)" stroke="none"/>
      <path fill="none" d="M1033.5197 1110 L1049.875 1110" stroke-width="4" clip-path="url(#clipPath2)"/>
      <path d="M1065 1110 L1048.5 1101.75 L1048.5 1118.25 Z" stroke-width="4" clip-path="url(#clipPath2)" stroke="none"/>
      <path fill="none" d="M1044.7614 1020.1481 L1059.6548 1020.5894" stroke-width="4" clip-path="url(#clipPath2)"/>
      <path d="M1074.7732 1021.0374 L1058.5248 1012.3023 L1058.0361 1028.795 Z" stroke-width="4" clip-path="url(#clipPath2)" stroke="none"/>
      <path fill="none" d="M1117.2614 1020 L1132.375 1020" stroke-width="4" clip-path="url(#clipPath2)"/>
      <path d="M1147.5 1020 L1131 1011.75 L1131 1028.25 Z" stroke-width="4" clip-path="url(#clipPath2)" stroke="none"/>
      <path fill="none" d="M1185.3308 1024.9951 L1185.3895 1066.9264 L875 1068.621 L875 1110 L897.6003 1110" stroke-width="4" clip-path="url(#clipPath2)"/>
      <path d="M912.7253 1110 L896.2253 1101.75 L896.2253 1118.25 Z" stroke-width="4" clip-path="url(#clipPath2)" stroke="none"/>
      <path fill="none" d="M955.2386 1110 L975.8947 1110" stroke-width="4" clip-path="url(#clipPath2)"/>
      <path d="M991.0197 1110 L974.5197 1101.75 L974.5197 1118.25 Z" stroke-width="4" clip-path="url(#clipPath2)" stroke="none"/>
      <path fill="none" d="M1003.8574 643.8574 L1030.5319 670.5319" clip-path="url(#clipPath2)"/>
      <path d="M1036.1887 676.1888 L1031.239 664.168 L1029.8247 669.8248 L1024.1678 671.239 Z" clip-path="url(#clipPath2)" stroke="none"/>
      <path fill="none" d="M976.1426 643.8574 L949.4681 670.5319" clip-path="url(#clipPath2)"/>
      <path d="M943.8112 676.1888 L955.832 671.239 L950.1752 669.8248 L948.761 664.168 Z" clip-path="url(#clipPath2)" stroke="none"/>
      <path fill="none" d="M1057.4854 704.9707 L1068.9247 727.8495" clip-path="url(#clipPath2)"/>
      <path d="M1072.5024 735.0049 L1071.6079 722.0357 L1068.4774 726.9551 L1062.6637 726.5079 Z" clip-path="url(#clipPath2)" stroke="none"/>
      <path fill="none" d="M1042.5146 704.9707 L1031.0753 727.8495" clip-path="url(#clipPath2)"/>
      <path d="M1027.4976 735.0049 L1037.3363 726.5079 L1031.5226 726.9551 L1028.3921 722.0357 Z" clip-path="url(#clipPath2)" stroke="none"/>
      <path fill="none" d="M937.4854 704.9707 L948.9247 727.8495" clip-path="url(#clipPath2)"/>
      <path d="M952.5024 735.0049 L951.608 722.0357 L948.4775 726.955 L942.6638 726.5078 Z" clip-path="url(#clipPath2)" stroke="none"/>
      <path fill="none" d="M922.5146 704.9707 L911.0753 727.8495" clip-path="url(#clipPath2)"/>
      <path d="M907.4976 735.0049 L917.3362 726.5078 L911.5225 726.955 L908.392 722.0357 Z" clip-path="url(#clipPath2)" stroke="none"/>
      <path fill="none" d="M907.4854 764.9707 L918.9247 787.8495" clip-path="url(#clipPath2)"/>
      <path d="M922.5024 795.0049 L921.608 782.0357 L918.4775 786.955 L912.6638 786.5078 Z" clip-path="url(#clipPath2)" stroke="none"/>
      <path fill="none" d="M952.5 570 L990 570 L990 603.9707" clip-path="url(#clipPath2)"/>
      <path d="M990 614.9707 L996 602.9707 L984 602.9707 Z" clip-path="url(#clipPath2)" stroke="none"/>
      <path fill="none" d="M1723.8574 643.8574 L1750.5319 670.5319" clip-path="url(#clipPath2)"/>
      <path d="M1756.1887 676.1888 L1751.239 664.168 L1749.8247 669.8248 L1744.1678 671.239 Z" clip-path="url(#clipPath2)" stroke="none"/>
      <path fill="none" d="M1696.1426 643.8574 L1669.4681 670.5319" clip-path="url(#clipPath2)"/>
      <path d="M1663.8113 676.1888 L1675.8322 671.239 L1670.1753 669.8248 L1668.761 664.168 Z" clip-path="url(#clipPath2)" stroke="none"/>
      <path fill="none" d="M1777.4854 704.9707 L1788.9247 727.8495" clip-path="url(#clipPath2)"/>
      <path d="M1792.5024 735.0049 L1791.6079 722.0357 L1788.4774 726.9551 L1782.6637 726.5079 Z" clip-path="url(#clipPath2)" stroke="none"/>
      <path fill="none" d="M1657.4854 704.9707 L1668.9247 727.8495" clip-path="url(#clipPath2)"/>
      <path d="M1672.5024 735.0049 L1671.6079 722.0357 L1668.4774 726.9551 L1662.6637 726.5079 Z" clip-path="url(#clipPath2)" stroke="none"/>
      <path fill="none" d="M1642.5146 704.9707 L1631.0753 727.8495" clip-path="url(#clipPath2)"/>
      <path d="M1627.4976 735.0049 L1637.3363 726.5079 L1631.5226 726.9551 L1628.3921 722.0357 Z" clip-path="url(#clipPath2)" stroke="none"/>
      <path fill="none" d="M1627.4854 764.9707 L1638.9247 787.8495" clip-path="url(#clipPath2)"/>
      <path d="M1642.5024 795.0049 L1641.6079 782.0357 L1638.4774 786.9551 L1632.6637 786.5079 Z" clip-path="url(#clipPath2)" stroke="none"/>
      <path fill="none" d="M1672.5 570 L1710 570 L1710 603.9707" clip-path="url(#clipPath2)"/>
      <path d="M1710 614.9707 L1716 602.9707 L1704 602.9707 Z" clip-path="url(#clipPath2)" stroke="none"/>
      <path fill="none" d="M1605 1020 L1619.875 1020" stroke-width="4" clip-path="url(#clipPath2)"/>
      <path d="M1635 1020 L1618.5 1011.75 L1618.5 1028.25 Z" stroke-width="4" clip-path="url(#clipPath2)" stroke="none"/>
      <path fill="none" d="M1740.2386 1110 L1755.1136 1110" stroke-width="4" clip-path="url(#clipPath2)"/>
      <path d="M1770.2386 1110 L1753.7386 1101.75 L1753.7386 1118.25 Z" stroke-width="4" clip-path="url(#clipPath2)" stroke="none"/>
      <path fill="none" d="M1812.7386 1110 L1827.5066 1110 L1827.5066 1117.827" stroke-width="4" clip-path="url(#clipPath2)"/>
      <path d="M1827.5066 1132.952 L1835.7566 1116.452 L1819.2566 1116.452 Z" stroke-width="4" clip-path="url(#clipPath2)" stroke="none"/>
      <path fill="none" d="M1533.58 1020 L1547.3468 1020" stroke-width="4" clip-path="url(#clipPath2)"/>
      <path d="M1562.4718 1020 L1545.9718 1011.75 L1545.9718 1028.25 Z" stroke-width="4" clip-path="url(#clipPath2)" stroke="none"/>
      <path fill="none" d="M1666.2583 1110 L1682.6136 1110" stroke-width="4" clip-path="url(#clipPath2)"/>
      <path d="M1697.7386 1110 L1681.2386 1101.75 L1681.2386 1118.25 Z" stroke-width="4" clip-path="url(#clipPath2)" stroke="none"/>
      <path fill="none" d="M1677.5 1020.1481 L1692.3934 1020.5894" stroke-width="4" clip-path="url(#clipPath2)"/>
      <path d="M1707.5118 1021.0374 L1691.2634 1012.3023 L1690.7748 1028.795 Z" stroke-width="4" clip-path="url(#clipPath2)" stroke="none"/>
      <path fill="none" d="M1750 1020 L1765.1136 1020" stroke-width="4" clip-path="url(#clipPath2)"/>
      <path d="M1780.2386 1020 L1763.7386 1011.75 L1763.7386 1028.25 Z" stroke-width="4" clip-path="url(#clipPath2)" stroke="none"/>
      <path fill="none" d="M1818.0695 1024.9951 L1818.1282 1066.9264 L1575.2386 1067.4751 L1575.2386 1110 L1608.6027 1110" stroke-width="4" clip-path="url(#clipPath2)"/>
      <path d="M1623.7277 1110 L1607.2277 1101.75 L1607.2277 1118.25 Z" stroke-width="4" clip-path="url(#clipPath2)" stroke="none"/>
      <path fill="none" d="M1139.9946 690 L1244.875 690" stroke-width="4" clip-path="url(#clipPath2)"/>
      <path d="M1260 690 L1243.5 681.75 L1243.5 698.25 Z" stroke-width="4" clip-path="url(#clipPath2)" stroke="none"/>
      <path fill="none" d="M1440 690 L1544.875 690" stroke-width="4" clip-path="url(#clipPath2)"/>
      <path d="M1560 690 L1543.5 681.75 L1543.5 698.25 Z" stroke-width="4" clip-path="url(#clipPath2)" stroke="none"/>
      <path fill="none" d="M1220 1080 L1239.375 1080" stroke-width="4" clip-path="url(#clipPath2)"/>
      <path fill="white" d="M1260 1080 L1238 1071.75 L1238 1088.25 Z" stroke-width="4" clip-path="url(#clipPath2)" stroke="none"/>
      <path fill="none" d="M1260 1080 L1238 1071.75 L1238 1088.25 Z" clip-path="url(#clipPath2)"/>
      <path fill="none" d="M1440 1080 L1458.1333 1080" stroke-width="4" clip-path="url(#clipPath2)"/>
      <path fill="white" d="M1478.7583 1080 L1456.7583 1071.75 L1456.7583 1088.25 Z" stroke-width="4" clip-path="url(#clipPath2)" stroke="none"/>
      <path fill="none" d="M1478.7583 1080 L1456.7583 1071.75 L1456.7583 1088.25 Z" clip-path="url(#clipPath2)"/>
      <path fill="none" d="M990 848.8661 L990 879.7068" stroke-width="4" clip-path="url(#clipPath2)"/>
      <path fill="white" d="M990 900.3318 L998.25 878.3318 L981.75 878.3318 Z" stroke-width="4" clip-path="url(#clipPath2)" stroke="none"/>
      <path fill="none" d="M990 900.3318 L998.25 878.3318 L981.75 878.3318 Z" clip-path="url(#clipPath2)"/>
      <path fill="none" d="M990 930.3318 L990 969.3546" stroke-width="4" clip-path="url(#clipPath2)"/>
      <path fill="white" d="M990 989.9796 L998.25 967.9796 L981.75 967.9796 Z" stroke-width="4" clip-path="url(#clipPath2)" stroke="none"/>
      <path fill="none" d="M990 989.9796 L998.25 967.9796 L981.75 967.9796 Z" clip-path="url(#clipPath2)"/>
      <path fill="none" d="M1710 990.0095 L1710 950.3864" stroke-width="4" clip-path="url(#clipPath2)"/>
      <path fill="white" d="M1710 929.7614 L1701.75 951.7614 L1718.25 951.7614 Z" stroke-width="4" clip-path="url(#clipPath2)" stroke="none"/>
      <path fill="none" d="M1710 929.7614 L1701.75 951.7614 L1718.25 951.7614 Z" clip-path="url(#clipPath2)"/>
      <path fill="none" d="M1710 899.7614 L1710 860.625" stroke-width="4" clip-path="url(#clipPath2)"/>
      <path fill="white" d="M1710 840 L1701.75 862 L1718.25 862 Z" stroke-width="4" clip-path="url(#clipPath2)" stroke="none"/>
      <path fill="none" d="M1710 840 L1701.75 862 L1718.25 862 Z" clip-path="url(#clipPath2)"/>
    </g>
  </g>
</svg>
