<?xml version="1.0" encoding="UTF-8"?><svg xmlns="http://www.w3.org/2000/svg" xmlns:xlink="http://www.w3.org/1999/xlink" fill-opacity="1" color-rendering="auto" color-interpolation="auto" text-rendering="auto" stroke="black" stroke-linecap="square" width="1050" stroke-miterlimit="10" shape-rendering="auto" stroke-opacity="1" fill="black" stroke-dasharray="none" font-weight="normal" stroke-width="1" height="815" font-family="'Dialog'" font-style="normal" stroke-linejoin="miter" font-size="12px" stroke-dashoffset="0" image-rendering="auto">
  <!--Generated by ySVG 2.6-->
  <defs id="genericDefs"/>
  <g>
    <defs id="defs1">
      <clipPath clipPathUnits="userSpaceOnUse" id="clipPath1">
        <path d="M0 0 L1050 0 L1050 815 L0 815 L0 0 Z"/>
      </clipPath>
      <clipPath clipPathUnits="userSpaceOnUse" id="clipPath2">
        <path d="M850 558 L1900 558 L1900 1373 L850 1373 L850 558 Z"/>
      </clipPath>
    </defs>
    <g fill="rgb(255,204,0)" text-rendering="geometricPrecision" shape-rendering="geometricPrecision" transform="matrix(1,0,0,1,-850,-558)" stroke="rgb(255,204,0)">
      <rect x="1000" y="640" clip-path="url(#clipPath2)" width="30" rx="4" ry="4" height="30" stroke="none"/>
    </g>
    <g text-rendering="geometricPrecision" stroke-miterlimit="1.45" shape-rendering="geometricPrecision" transform="matrix(1,0,0,1,-850,-558)" stroke-linecap="butt">
      <rect x="1000" y="640" clip-path="url(#clipPath2)" fill="none" width="30" rx="4" ry="4" height="30"/>
    </g>
    <g fill="rgb(255,204,0)" text-rendering="geometricPrecision" shape-rendering="geometricPrecision" transform="matrix(1,0,0,1,-850,-558)" stroke="rgb(255,204,0)">
      <rect x="1060" y="700" clip-path="url(#clipPath2)" width="30" rx="4" ry="4" height="30" stroke="none"/>
    </g>
    <g text-rendering="geometricPrecision" stroke-miterlimit="1.45" shape-rendering="geometricPrecision" transform="matrix(1,0,0,1,-850,-558)" stroke-linecap="butt">
      <rect x="1060" y="700" clip-path="url(#clipPath2)" fill="none" width="30" rx="4" ry="4" height="30"/>
    </g>
    <g fill="rgb(255,204,0)" text-rendering="geometricPrecision" shape-rendering="geometricPrecision" transform="matrix(1,0,0,1,-850,-558)" stroke="rgb(255,204,0)">
      <rect x="940" y="700" clip-path="url(#clipPath2)" width="30" rx="4" ry="4" height="30" stroke="none"/>
    </g>
    <g text-rendering="geometricPrecision" stroke-miterlimit="1.45" shape-rendering="geometricPrecision" transform="matrix(1,0,0,1,-850,-558)" stroke-linecap="butt">
      <rect x="940" y="700" clip-path="url(#clipPath2)" fill="none" width="30" rx="4" ry="4" height="30"/>
    </g>
    <g fill="rgb(255,204,0)" text-rendering="geometricPrecision" shape-rendering="geometricPrecision" transform="matrix(1,0,0,1,-850,-558)" stroke="rgb(255,204,0)">
      <rect x="1090" y="760" clip-path="url(#clipPath2)" width="30" rx="4" ry="4" height="30" stroke="none"/>
    </g>
    <g text-rendering="geometricPrecision" stroke-miterlimit="1.45" shape-rendering="geometricPrecision" transform="matrix(1,0,0,1,-850,-558)" stroke-linecap="butt">
      <rect x="1090" y="760" clip-path="url(#clipPath2)" fill="none" width="30" rx="4" ry="4" height="30"/>
    </g>
    <g fill="rgb(204,153,255)" text-rendering="geometricPrecision" shape-rendering="geometricPrecision" transform="matrix(1,0,0,1,-850,-558)" stroke="rgb(204,153,255)">
      <rect x="1030" y="760" clip-path="url(#clipPath2)" width="30" rx="4" ry="4" height="30" stroke="none"/>
    </g>
    <g text-rendering="geometricPrecision" stroke-miterlimit="1.45" shape-rendering="geometricPrecision" transform="matrix(1,0,0,1,-850,-558)" stroke-linecap="butt">
      <rect x="1030" y="760" clip-path="url(#clipPath2)" fill="none" width="30" rx="4" ry="4" height="30"/>
    </g>
    <g fill="rgb(255,204,0)" text-rendering="geometricPrecision" shape-rendering="geometricPrecision" transform="matrix(1,0,0,1,-850,-558)" stroke="rgb(255,204,0)">
      <rect x="970" y="760" clip-path="url(#clipPath2)" width="30" rx="4" ry="4" height="30" stroke="none"/>
    </g>
    <g text-rendering="geometricPrecision" stroke-miterlimit="1.45" shape-rendering="geometricPrecision" transform="matrix(1,0,0,1,-850,-558)" stroke-linecap="butt">
      <rect x="970" y="760" clip-path="url(#clipPath2)" fill="none" width="30" rx="4" ry="4" height="30"/>
    </g>
    <g fill="rgb(255,204,0)" text-rendering="geometricPrecision" shape-rendering="geometricPrecision" transform="matrix(1,0,0,1,-850,-558)" stroke="rgb(255,204,0)">
      <rect x="910" y="760" clip-path="url(#clipPath2)" width="30" rx="4" ry="4" height="30" stroke="none"/>
    </g>
    <g text-rendering="geometricPrecision" stroke-miterlimit="1.45" shape-rendering="geometricPrecision" transform="matrix(1,0,0,1,-850,-558)" stroke-linecap="butt">
      <rect x="910" y="760" clip-path="url(#clipPath2)" fill="none" width="30" rx="4" ry="4" height="30"/>
    </g>
    <g fill="rgb(255,204,0)" text-rendering="geometricPrecision" shape-rendering="geometricPrecision" transform="matrix(1,0,0,1,-850,-558)" stroke="rgb(255,204,0)">
      <rect x="940" y="820" clip-path="url(#clipPath2)" width="30" rx="4" ry="4" height="30" stroke="none"/>
    </g>
    <g text-rendering="geometricPrecision" stroke-miterlimit="1.45" shape-rendering="geometricPrecision" transform="matrix(1,0,0,1,-850,-558)" stroke-linecap="butt">
      <rect x="940" y="820" clip-path="url(#clipPath2)" fill="none" width="30" rx="4" ry="4" height="30"/>
    </g>
    <g transform="matrix(1,0,0,1,-850,-558)" fill-opacity="0.498" fill="rgb(255,0,0)" text-rendering="geometricPrecision" shape-rendering="geometricPrecision" stroke="rgb(255,0,0)" stroke-opacity="0.498">
      <rect x="932.5" width="45" height="20" y="585" clip-path="url(#clipPath2)" stroke="none"/>
    </g>
    <g text-rendering="geometricPrecision" stroke-miterlimit="1.45" shape-rendering="geometricPrecision" transform="matrix(1,0,0,1,-850,-558)" stroke-linecap="butt">
      <rect fill="none" x="932.5" width="45" height="20" y="585" clip-path="url(#clipPath2)"/>
      <text x="944.3281" font-size="16px" y="601.2852" clip-path="url(#clipPath2)" font-family="sans-serif" stroke="none" xml:space="preserve">AB</text>
    </g>
    <g fill="rgb(255,204,0)" text-rendering="geometricPrecision" shape-rendering="geometricPrecision" transform="matrix(1,0,0,1,-850,-558)" stroke="rgb(255,204,0)">
      <rect x="1720" y="640" clip-path="url(#clipPath2)" width="30" rx="4" ry="4" height="30" stroke="none"/>
    </g>
    <g text-rendering="geometricPrecision" stroke-miterlimit="1.45" shape-rendering="geometricPrecision" transform="matrix(1,0,0,1,-850,-558)" stroke-linecap="butt">
      <rect x="1720" y="640" clip-path="url(#clipPath2)" fill="none" width="30" rx="4" ry="4" height="30"/>
    </g>
    <g fill="rgb(255,204,0)" text-rendering="geometricPrecision" shape-rendering="geometricPrecision" transform="matrix(1,0,0,1,-850,-558)" stroke="rgb(255,204,0)">
      <rect x="1780" y="700" clip-path="url(#clipPath2)" width="30" rx="4" ry="4" height="30" stroke="none"/>
    </g>
    <g text-rendering="geometricPrecision" stroke-miterlimit="1.45" shape-rendering="geometricPrecision" transform="matrix(1,0,0,1,-850,-558)" stroke-linecap="butt">
      <rect x="1780" y="700" clip-path="url(#clipPath2)" fill="none" width="30" rx="4" ry="4" height="30"/>
    </g>
    <g fill="rgb(255,204,0)" text-rendering="geometricPrecision" shape-rendering="geometricPrecision" transform="matrix(1,0,0,1,-850,-558)" stroke="rgb(255,204,0)">
      <rect x="1660" y="700" clip-path="url(#clipPath2)" width="30" rx="4" ry="4" height="30" stroke="none"/>
    </g>
    <g text-rendering="geometricPrecision" stroke-miterlimit="1.45" shape-rendering="geometricPrecision" transform="matrix(1,0,0,1,-850,-558)" stroke-linecap="butt">
      <rect x="1660" y="700" clip-path="url(#clipPath2)" fill="none" width="30" rx="4" ry="4" height="30"/>
    </g>
    <g fill="rgb(255,204,0)" text-rendering="geometricPrecision" shape-rendering="geometricPrecision" transform="matrix(1,0,0,1,-850,-558)" stroke="rgb(255,204,0)">
      <rect x="1810" y="760" clip-path="url(#clipPath2)" width="30" rx="4" ry="4" height="30" stroke="none"/>
    </g>
    <g text-rendering="geometricPrecision" stroke-miterlimit="1.45" shape-rendering="geometricPrecision" transform="matrix(1,0,0,1,-850,-558)" stroke-linecap="butt">
      <rect x="1810" y="760" clip-path="url(#clipPath2)" fill="none" width="30" rx="4" ry="4" height="30"/>
    </g>
    <g fill="rgb(255,204,0)" text-rendering="geometricPrecision" shape-rendering="geometricPrecision" transform="matrix(1,0,0,1,-850,-558)" stroke="rgb(255,204,0)">
      <rect x="1690" y="760" clip-path="url(#clipPath2)" width="30" rx="4" ry="4" height="30" stroke="none"/>
    </g>
    <g text-rendering="geometricPrecision" stroke-miterlimit="1.45" shape-rendering="geometricPrecision" transform="matrix(1,0,0,1,-850,-558)" stroke-linecap="butt">
      <rect x="1690" y="760" clip-path="url(#clipPath2)" fill="none" width="30" rx="4" ry="4" height="30"/>
    </g>
    <g fill="rgb(255,204,0)" text-rendering="geometricPrecision" shape-rendering="geometricPrecision" transform="matrix(1,0,0,1,-850,-558)" stroke="rgb(255,204,0)">
      <rect x="1630" y="760" clip-path="url(#clipPath2)" width="30" rx="4" ry="4" height="30" stroke="none"/>
    </g>
    <g text-rendering="geometricPrecision" stroke-miterlimit="1.45" shape-rendering="geometricPrecision" transform="matrix(1,0,0,1,-850,-558)" stroke-linecap="butt">
      <rect x="1630" y="760" clip-path="url(#clipPath2)" fill="none" width="30" rx="4" ry="4" height="30"/>
    </g>
    <g fill="rgb(255,204,0)" text-rendering="geometricPrecision" shape-rendering="geometricPrecision" transform="matrix(1,0,0,1,-850,-558)" stroke="rgb(255,204,0)">
      <rect x="1660" y="820" clip-path="url(#clipPath2)" width="30" rx="4" ry="4" height="30" stroke="none"/>
    </g>
    <g text-rendering="geometricPrecision" stroke-miterlimit="1.45" shape-rendering="geometricPrecision" transform="matrix(1,0,0,1,-850,-558)" stroke-linecap="butt">
      <rect x="1660" y="820" clip-path="url(#clipPath2)" fill="none" width="30" rx="4" ry="4" height="30"/>
    </g>
    <g transform="matrix(1,0,0,1,-850,-558)" fill-opacity="0.498" fill="rgb(255,0,0)" text-rendering="geometricPrecision" shape-rendering="geometricPrecision" stroke="rgb(255,0,0)" stroke-opacity="0.498">
      <rect x="1652.5" width="45" height="20" y="585" clip-path="url(#clipPath2)" stroke="none"/>
    </g>
    <g text-rendering="geometricPrecision" stroke-miterlimit="1.45" shape-rendering="geometricPrecision" transform="matrix(1,0,0,1,-850,-558)" stroke-linecap="butt">
      <rect fill="none" x="1652.5" width="45" height="20" y="585" clip-path="url(#clipPath2)"/>
      <text x="1664.3281" font-size="16px" y="601.2852" clip-path="url(#clipPath2)" font-family="sans-serif" stroke="none" xml:space="preserve">AB</text>
      <rect x="865" y="573.8661" clip-path="url(#clipPath2)" fill="none" width="300" stroke-dasharray="6,2" height="300"/>
      <rect x="1585" y="573.8661" clip-path="url(#clipPath2)" fill="none" width="300" stroke-dasharray="6,2" height="300"/>
    </g>
    <g fill="rgb(255,204,0)" text-rendering="geometricPrecision" shape-rendering="geometricPrecision" transform="matrix(1,0,0,1,-850,-558)" stroke="rgb(255,204,0)">
      <rect x="1285" width="180" height="30" y="700" clip-path="url(#clipPath2)" stroke="none"/>
    </g>
    <g text-rendering="geometricPrecision" stroke-miterlimit="1.45" shape-rendering="geometricPrecision" transform="matrix(1,0,0,1,-850,-558)" stroke-linecap="butt">
      <rect fill="none" x="1285" width="180" height="30" y="700" clip-path="url(#clipPath2)"/>
      <text x="1326.9922" font-size="16px" y="719.2578" clip-path="url(#clipPath2)" font-family="'Courier New'" stroke="none" xml:space="preserve">cambiarABB</text>
    </g>
    <g fill="rgb(255,204,0)" text-rendering="geometricPrecision" shape-rendering="geometricPrecision" transform="matrix(1,0,0,1,-850,-558)" stroke="rgb(255,204,0)">
      <rect x="1645" width="180" height="30" y="987.8318" clip-path="url(#clipPath2)" stroke="none"/>
    </g>
    <g text-rendering="geometricPrecision" stroke-miterlimit="1.45" shape-rendering="geometricPrecision" transform="matrix(1,0,0,1,-850,-558)" stroke-linecap="butt">
      <rect fill="none" x="1645" width="180" height="30" y="987.8318" clip-path="url(#clipPath2)"/>
      <text x="1686.9922" font-size="16px" y="1007.0896" clip-path="url(#clipPath2)" font-family="'Courier New'" stroke="none" xml:space="preserve">agregarABB</text>
    </g>
    <g fill="rgb(255,204,0)" text-rendering="geometricPrecision" shape-rendering="geometricPrecision" transform="matrix(1,0,0,1,-850,-558)" stroke="rgb(255,204,0)">
      <rect x="925" width="180" height="30" y="987.8318" clip-path="url(#clipPath2)" stroke="none"/>
    </g>
    <g text-rendering="geometricPrecision" stroke-miterlimit="1.45" shape-rendering="geometricPrecision" transform="matrix(1,0,0,1,-850,-558)" stroke-linecap="butt">
      <rect fill="none" x="925" width="180" height="30" y="987.8318" clip-path="url(#clipPath2)"/>
      <text x="962.1914" font-size="16px" y="1007.0896" clip-path="url(#clipPath2)" font-family="'Courier New'" stroke="none" xml:space="preserve">eliminarABB</text>
      <rect x="1225" y="1057.952" clip-path="url(#clipPath2)" fill="none" width="300" stroke-dasharray="6,2" height="300"/>
    </g>
    <g fill="rgb(255,204,0)" text-rendering="geometricPrecision" shape-rendering="geometricPrecision" transform="matrix(1,0,0,1,-850,-558)" stroke="rgb(255,204,0)">
      <rect x="1360" y="1132.952" clip-path="url(#clipPath2)" width="30" rx="4" ry="4" height="30" stroke="none"/>
    </g>
    <g text-rendering="geometricPrecision" stroke-miterlimit="1.45" shape-rendering="geometricPrecision" transform="matrix(1,0,0,1,-850,-558)" stroke-linecap="butt">
      <rect x="1360" y="1132.952" clip-path="url(#clipPath2)" fill="none" width="30" rx="4" ry="4" height="30"/>
    </g>
    <g fill="rgb(255,204,0)" text-rendering="geometricPrecision" shape-rendering="geometricPrecision" transform="matrix(1,0,0,1,-850,-558)" stroke="rgb(255,204,0)">
      <rect x="1420" y="1192.952" clip-path="url(#clipPath2)" width="30" rx="4" ry="4" height="30" stroke="none"/>
    </g>
    <g text-rendering="geometricPrecision" stroke-miterlimit="1.45" shape-rendering="geometricPrecision" transform="matrix(1,0,0,1,-850,-558)" stroke-linecap="butt">
      <rect x="1420" y="1192.952" clip-path="url(#clipPath2)" fill="none" width="30" rx="4" ry="4" height="30"/>
    </g>
    <g fill="rgb(255,204,0)" text-rendering="geometricPrecision" shape-rendering="geometricPrecision" transform="matrix(1,0,0,1,-850,-558)" stroke="rgb(255,204,0)">
      <rect x="1300" y="1192.952" clip-path="url(#clipPath2)" width="30" rx="4" ry="4" height="30" stroke="none"/>
    </g>
    <g text-rendering="geometricPrecision" stroke-miterlimit="1.45" shape-rendering="geometricPrecision" transform="matrix(1,0,0,1,-850,-558)" stroke-linecap="butt">
      <rect x="1300" y="1192.952" clip-path="url(#clipPath2)" fill="none" width="30" rx="4" ry="4" height="30"/>
    </g>
    <g fill="rgb(255,204,0)" text-rendering="geometricPrecision" shape-rendering="geometricPrecision" transform="matrix(1,0,0,1,-850,-558)" stroke="rgb(255,204,0)">
      <rect x="1450" y="1252.952" clip-path="url(#clipPath2)" width="30" rx="4" ry="4" height="30" stroke="none"/>
    </g>
    <g text-rendering="geometricPrecision" stroke-miterlimit="1.45" shape-rendering="geometricPrecision" transform="matrix(1,0,0,1,-850,-558)" stroke-linecap="butt">
      <rect x="1450" y="1252.952" clip-path="url(#clipPath2)" fill="none" width="30" rx="4" ry="4" height="30"/>
    </g>
    <g fill="rgb(255,204,0)" text-rendering="geometricPrecision" shape-rendering="geometricPrecision" transform="matrix(1,0,0,1,-850,-558)" stroke="rgb(255,204,0)">
      <rect x="1330" y="1252.952" clip-path="url(#clipPath2)" width="30" rx="4" ry="4" height="30" stroke="none"/>
    </g>
    <g text-rendering="geometricPrecision" stroke-miterlimit="1.45" shape-rendering="geometricPrecision" transform="matrix(1,0,0,1,-850,-558)" stroke-linecap="butt">
      <rect x="1330" y="1252.952" clip-path="url(#clipPath2)" fill="none" width="30" rx="4" ry="4" height="30"/>
    </g>
    <g fill="rgb(255,204,0)" text-rendering="geometricPrecision" shape-rendering="geometricPrecision" transform="matrix(1,0,0,1,-850,-558)" stroke="rgb(255,204,0)">
      <rect x="1270" y="1252.952" clip-path="url(#clipPath2)" width="30" rx="4" ry="4" height="30" stroke="none"/>
    </g>
    <g text-rendering="geometricPrecision" stroke-miterlimit="1.45" shape-rendering="geometricPrecision" transform="matrix(1,0,0,1,-850,-558)" stroke-linecap="butt">
      <rect x="1270" y="1252.952" clip-path="url(#clipPath2)" fill="none" width="30" rx="4" ry="4" height="30"/>
    </g>
    <g fill="rgb(255,204,0)" text-rendering="geometricPrecision" shape-rendering="geometricPrecision" transform="matrix(1,0,0,1,-850,-558)" stroke="rgb(255,204,0)">
      <rect x="1300" y="1312.952" clip-path="url(#clipPath2)" width="30" rx="4" ry="4" height="30" stroke="none"/>
    </g>
    <g text-rendering="geometricPrecision" stroke-miterlimit="1.45" shape-rendering="geometricPrecision" transform="matrix(1,0,0,1,-850,-558)" stroke-linecap="butt">
      <rect x="1300" y="1312.952" clip-path="url(#clipPath2)" fill="none" width="30" rx="4" ry="4" height="30"/>
    </g>
    <g transform="matrix(1,0,0,1,-850,-558)" fill-opacity="0.498" fill="rgb(255,0,0)" text-rendering="geometricPrecision" shape-rendering="geometricPrecision" stroke="rgb(255,0,0)" stroke-opacity="0.498">
      <rect x="1292.5" width="45" height="20" y="1077.952" clip-path="url(#clipPath2)" stroke="none"/>
    </g>
    <g text-rendering="geometricPrecision" stroke-miterlimit="1.45" shape-rendering="geometricPrecision" transform="matrix(1,0,0,1,-850,-558)" stroke-linecap="butt">
      <rect fill="none" x="1292.5" width="45" height="20" y="1077.952" clip-path="url(#clipPath2)"/>
      <text x="1304.3281" font-size="16px" y="1094.2372" clip-path="url(#clipPath2)" font-family="sans-serif" stroke="none" xml:space="preserve">AB</text>
    </g>
    <g fill="rgb(204,255,204)" text-rendering="geometricPrecision" shape-rendering="geometricPrecision" transform="matrix(1,0,0,1,-850,-558)" stroke="rgb(204,255,204)">
      <rect x="1840" y="820" clip-path="url(#clipPath2)" width="30" rx="4" ry="4" height="30" stroke="none"/>
    </g>
    <g text-rendering="geometricPrecision" stroke-miterlimit="1.45" shape-rendering="geometricPrecision" transform="matrix(1,0,0,1,-850,-558)" stroke-linecap="butt">
      <rect x="1840" y="820" clip-path="url(#clipPath2)" fill="none" width="30" rx="4" ry="4" height="30"/>
      <path fill="none" d="M1028.8574 668.8574 L1055.5319 695.5319" clip-path="url(#clipPath2)"/>
      <path d="M1061.1887 701.1888 L1056.239 689.168 L1054.8247 694.8248 L1049.1678 696.239 Z" clip-path="url(#clipPath2)" stroke="none"/>
      <path fill="none" d="M1001.1426 668.8574 L974.4681 695.5319" clip-path="url(#clipPath2)"/>
      <path d="M968.8112 701.1888 L980.832 696.239 L975.1752 694.8248 L973.761 689.168 Z" clip-path="url(#clipPath2)" stroke="none"/>
      <path fill="none" d="M1082.4854 729.9707 L1093.9247 752.8495" clip-path="url(#clipPath2)"/>
      <path d="M1097.5024 760.0049 L1096.6079 747.0357 L1093.4774 751.9551 L1087.6637 751.5079 Z" clip-path="url(#clipPath2)" stroke="none"/>
      <path fill="none" d="M1067.5146 729.9707 L1056.0753 752.8495" clip-path="url(#clipPath2)"/>
      <path d="M1052.4976 760.0049 L1062.3363 751.5079 L1056.5226 751.9551 L1053.3921 747.0357 Z" clip-path="url(#clipPath2)" stroke="none"/>
      <path fill="none" d="M962.4854 729.9707 L973.9247 752.8495" clip-path="url(#clipPath2)"/>
      <path d="M977.5024 760.0049 L976.608 747.0357 L973.4775 751.955 L967.6638 751.5078 Z" clip-path="url(#clipPath2)" stroke="none"/>
      <path fill="none" d="M947.5146 729.9707 L936.0753 752.8495" clip-path="url(#clipPath2)"/>
      <path d="M932.4976 760.0049 L942.3362 751.5078 L936.5225 751.955 L933.392 747.0357 Z" clip-path="url(#clipPath2)" stroke="none"/>
      <path fill="none" d="M932.4854 789.9707 L943.9247 812.8495" clip-path="url(#clipPath2)"/>
      <path d="M947.5024 820.0049 L946.608 807.0357 L943.4775 811.955 L937.6638 811.5078 Z" clip-path="url(#clipPath2)" stroke="none"/>
      <path fill="none" d="M977.5 595 L1015 595 L1015 628.9707" clip-path="url(#clipPath2)"/>
      <path d="M1015 639.9707 L1021 627.9707 L1009 627.9707 Z" clip-path="url(#clipPath2)" stroke="none"/>
      <path fill="none" d="M1748.8574 668.8574 L1775.5319 695.5319" clip-path="url(#clipPath2)"/>
      <path d="M1781.1887 701.1888 L1776.239 689.168 L1774.8247 694.8248 L1769.1678 696.239 Z" clip-path="url(#clipPath2)" stroke="none"/>
      <path fill="none" d="M1721.1426 668.8574 L1694.4681 695.5319" clip-path="url(#clipPath2)"/>
      <path d="M1688.8113 701.1888 L1700.8322 696.239 L1695.1753 694.8248 L1693.761 689.168 Z" clip-path="url(#clipPath2)" stroke="none"/>
      <path fill="none" d="M1802.4854 729.9707 L1813.9247 752.8495" clip-path="url(#clipPath2)"/>
      <path d="M1817.5024 760.0049 L1816.6079 747.0357 L1813.4774 751.9551 L1807.6637 751.5079 Z" clip-path="url(#clipPath2)" stroke="none"/>
      <path fill="none" d="M1682.4854 729.9707 L1693.9247 752.8495" clip-path="url(#clipPath2)"/>
      <path d="M1697.5024 760.0049 L1696.6079 747.0357 L1693.4774 751.9551 L1687.6637 751.5079 Z" clip-path="url(#clipPath2)" stroke="none"/>
      <path fill="none" d="M1667.5146 729.9707 L1656.0753 752.8495" clip-path="url(#clipPath2)"/>
      <path d="M1652.4976 760.0049 L1662.3363 751.5079 L1656.5226 751.9551 L1653.3921 747.0357 Z" clip-path="url(#clipPath2)" stroke="none"/>
      <path fill="none" d="M1652.4854 789.9707 L1663.9247 812.8495" clip-path="url(#clipPath2)"/>
      <path d="M1667.5024 820.0049 L1666.6079 807.0357 L1663.4774 811.9551 L1657.6637 811.5079 Z" clip-path="url(#clipPath2)" stroke="none"/>
      <path fill="none" d="M1697.5 595 L1735 595 L1735 628.9707" clip-path="url(#clipPath2)"/>
      <path d="M1735 639.9707 L1741 627.9707 L1729 627.9707 Z" clip-path="url(#clipPath2)" stroke="none"/>
      <path fill="none" d="M1164.9946 715 L1269.875 715" stroke-width="4" clip-path="url(#clipPath2)"/>
      <path d="M1285 715 L1268.5 706.75 L1268.5 723.25 Z" stroke-width="4" clip-path="url(#clipPath2)" stroke="none"/>
      <path fill="none" d="M1465 717.2166 L1569.8796 719.7995" stroke-width="4" clip-path="url(#clipPath2)"/>
      <path d="M1585 720.1719 L1568.7081 711.5181 L1568.3019 728.0131 Z" stroke-width="4" clip-path="url(#clipPath2)" stroke="none"/>
      <path fill="none" d="M1748.2805 987.8051 L1743.584 894.4651" stroke-width="4" clip-path="url(#clipPath2)"/>
      <path fill="white" d="M1742.5475 873.8661 L1735.4135 896.2529 L1751.8927 895.4238 Z" stroke-width="4" clip-path="url(#clipPath2)" stroke="none"/>
      <path fill="none" d="M1742.5475 873.8661 L1735.4135 896.2529 L1751.8927 895.4238 Z" clip-path="url(#clipPath2)"/>
      <path fill="none" d="M1015 873.8661 L1015 967.2068" stroke-width="4" clip-path="url(#clipPath2)"/>
      <path fill="white" d="M1015 987.8318 L1023.25 965.8318 L1006.75 965.8318 Z" stroke-width="4" clip-path="url(#clipPath2)" stroke="none"/>
      <path fill="none" d="M1015 987.8318 L1023.25 965.8318 L1006.75 965.8318 Z" clip-path="url(#clipPath2)"/>
      <path fill="none" d="M1038.3654 1017.8318 L1207.6731 1126.5231" stroke-width="4" clip-path="url(#clipPath2)"/>
      <path fill="white" d="M1225.0294 1137.6654 L1210.973 1118.8378 L1202.0592 1132.7228 Z" stroke-width="4" clip-path="url(#clipPath2)" stroke="none"/>
      <path fill="none" d="M1225.0294 1137.6654 L1210.973 1118.8378 L1202.0592 1132.7228 Z" clip-path="url(#clipPath2)"/>
      <path fill="none" d="M1525 1122.4852 L1690.7538 1028.0424" stroke-width="4" clip-path="url(#clipPath2)"/>
      <path fill="white" d="M1708.674 1017.8318 L1685.4749 1021.555 L1693.6433 1035.8912 Z" stroke-width="4" clip-path="url(#clipPath2)" stroke="none"/>
      <path fill="none" d="M1708.674 1017.8318 L1685.4749 1021.555 L1693.6433 1035.8912 Z" clip-path="url(#clipPath2)"/>
      <path fill="none" d="M1388.8574 1161.8094 L1415.5319 1188.4839" clip-path="url(#clipPath2)"/>
      <path d="M1421.1887 1194.1407 L1416.239 1182.1199 L1414.8247 1187.7767 L1409.1678 1189.191 Z" clip-path="url(#clipPath2)" stroke="none"/>
      <path fill="none" d="M1361.1426 1161.8094 L1334.4681 1188.4839" clip-path="url(#clipPath2)"/>
      <path d="M1328.8113 1194.1407 L1340.8322 1189.191 L1335.1753 1187.7767 L1333.761 1182.1199 Z" clip-path="url(#clipPath2)" stroke="none"/>
      <path fill="none" d="M1442.4854 1222.9227 L1453.9247 1245.8015" clip-path="url(#clipPath2)"/>
      <path d="M1457.5024 1252.9569 L1456.6079 1239.9877 L1453.4774 1244.9071 L1447.6637 1244.46 Z" clip-path="url(#clipPath2)" stroke="none"/>
      <path fill="none" d="M1322.4854 1222.9227 L1333.9247 1245.8015" clip-path="url(#clipPath2)"/>
      <path d="M1337.5024 1252.9569 L1336.6079 1239.9877 L1333.4774 1244.9071 L1327.6637 1244.46 Z" clip-path="url(#clipPath2)" stroke="none"/>
      <path fill="none" d="M1307.5146 1222.9227 L1296.0753 1245.8015" clip-path="url(#clipPath2)"/>
      <path d="M1292.4976 1252.9569 L1302.3363 1244.46 L1296.5226 1244.9071 L1293.3921 1239.9877 Z" clip-path="url(#clipPath2)" stroke="none"/>
      <path fill="none" d="M1292.4854 1282.9227 L1303.9247 1305.8015" clip-path="url(#clipPath2)"/>
      <path d="M1307.5024 1312.9569 L1306.6079 1299.9877 L1303.4774 1304.9071 L1297.6637 1304.46 Z" clip-path="url(#clipPath2)" stroke="none"/>
      <path fill="none" d="M1337.5 1087.952 L1375 1087.952 L1375 1121.9227" clip-path="url(#clipPath2)"/>
      <path d="M1375 1132.9227 L1381 1120.9227 L1369 1120.9227 Z" clip-path="url(#clipPath2)" stroke="none"/>
      <path fill="none" d="M1832.4854 789.9707 L1843.9247 812.8495" clip-path="url(#clipPath2)"/>
      <path d="M1847.5024 820.0049 L1846.6079 807.0357 L1843.4774 811.9551 L1837.6637 811.5079 Z" clip-path="url(#clipPath2)" stroke="none"/>
    </g>
  </g>
</svg>
