<?xml version="1.0" encoding="UTF-8"?><svg xmlns="http://www.w3.org/2000/svg" xmlns:xlink="http://www.w3.org/1999/xlink" fill-opacity="1" color-rendering="auto" color-interpolation="auto" text-rendering="auto" stroke="black" stroke-linecap="square" width="271" stroke-miterlimit="10" shape-rendering="auto" stroke-opacity="1" fill="black" stroke-dasharray="none" font-weight="normal" stroke-width="1" height="281" font-family="'Dialog'" font-style="normal" stroke-linejoin="miter" font-size="12px" stroke-dashoffset="0" image-rendering="auto">
  <!--Generated by ySVG 2.5-->
  <defs id="genericDefs"/>
  <g>
    <defs id="defs1">
      <clipPath clipPathUnits="userSpaceOnUse" id="clipPath1">
        <path d="M0 0 L271 0 L271 281 L0 281 L0 0 Z"/>
      </clipPath>
      <clipPath clipPathUnits="userSpaceOnUse" id="clipPath2">
        <path d="M676 426 L947 426 L947 707 L676 707 L676 426 Z"/>
      </clipPath>
    </defs>
    <g fill="rgb(255,204,0)" text-rendering="geometricPrecision" shape-rendering="geometricPrecision" transform="matrix(1,0,0,1,-676,-426)" stroke="rgb(255,204,0)">
      <circle r="15" clip-path="url(#clipPath2)" cx="834.44" cy="496.4" stroke="none"/>
    </g>
    <g text-rendering="geometricPrecision" stroke-miterlimit="1.45" shape-rendering="geometricPrecision" transform="matrix(1,0,0,1,-676,-426)" stroke-linecap="butt">
      <circle fill="none" r="15" clip-path="url(#clipPath2)" cx="834.44" cy="496.4"/>
      <text x="827.7662" xml:space="preserve" y="501.1139" clip-path="url(#clipPath2)" font-family="sans-serif" stroke="none">31</text>
    </g>
    <g fill="rgb(255,204,0)" text-rendering="geometricPrecision" shape-rendering="geometricPrecision" transform="matrix(1,0,0,1,-676,-426)" stroke="rgb(255,204,0)">
      <circle r="15" clip-path="url(#clipPath2)" cx="916.94" cy="556.4" stroke="none"/>
    </g>
    <g text-rendering="geometricPrecision" stroke-miterlimit="1.45" shape-rendering="geometricPrecision" transform="matrix(1,0,0,1,-676,-426)" stroke-linecap="butt">
      <circle fill="none" r="15" clip-path="url(#clipPath2)" cx="916.94" cy="556.4"/>
      <text x="910.2662" xml:space="preserve" y="561.1139" clip-path="url(#clipPath2)" font-family="sans-serif" stroke="none">40</text>
    </g>
    <g fill="rgb(255,204,0)" text-rendering="geometricPrecision" shape-rendering="geometricPrecision" transform="matrix(1,0,0,1,-676,-426)" stroke="rgb(255,204,0)">
      <circle r="15" clip-path="url(#clipPath2)" cx="886.94" cy="616.4" stroke="none"/>
    </g>
    <g text-rendering="geometricPrecision" stroke-miterlimit="1.45" shape-rendering="geometricPrecision" transform="matrix(1,0,0,1,-676,-426)" stroke-linecap="butt">
      <circle fill="none" r="15" clip-path="url(#clipPath2)" cx="886.94" cy="616.4"/>
      <text x="880.2662" xml:space="preserve" y="621.1139" clip-path="url(#clipPath2)" font-family="sans-serif" stroke="none">39</text>
    </g>
    <g fill="rgb(255,204,0)" text-rendering="geometricPrecision" shape-rendering="geometricPrecision" transform="matrix(1,0,0,1,-676,-426)" stroke="rgb(255,204,0)">
      <circle r="15" clip-path="url(#clipPath2)" cx="751.94" cy="556.4" stroke="none"/>
    </g>
    <g text-rendering="geometricPrecision" stroke-miterlimit="1.45" shape-rendering="geometricPrecision" transform="matrix(1,0,0,1,-676,-426)" stroke-linecap="butt">
      <circle fill="none" r="15" clip-path="url(#clipPath2)" cx="751.94" cy="556.4"/>
      <text x="745.2662" xml:space="preserve" y="561.1139" clip-path="url(#clipPath2)" font-family="sans-serif" stroke="none">16</text>
    </g>
    <g fill="rgb(255,204,0)" text-rendering="geometricPrecision" shape-rendering="geometricPrecision" transform="matrix(1,0,0,1,-676,-426)" stroke="rgb(255,204,0)">
      <circle r="15" clip-path="url(#clipPath2)" cx="706.94" cy="616.4" stroke="none"/>
    </g>
    <g text-rendering="geometricPrecision" stroke-miterlimit="1.45" shape-rendering="geometricPrecision" transform="matrix(1,0,0,1,-676,-426)" stroke-linecap="butt">
      <circle fill="none" r="15" clip-path="url(#clipPath2)" cx="706.94" cy="616.4"/>
      <text x="703.6031" xml:space="preserve" y="621.1139" clip-path="url(#clipPath2)" font-family="sans-serif" stroke="none">5</text>
    </g>
    <g fill="rgb(255,204,0)" text-rendering="geometricPrecision" shape-rendering="geometricPrecision" transform="matrix(1,0,0,1,-676,-426)" stroke="rgb(255,204,0)">
      <circle r="15" clip-path="url(#clipPath2)" cx="796.94" cy="616.4" stroke="none"/>
    </g>
    <g text-rendering="geometricPrecision" stroke-miterlimit="1.45" shape-rendering="geometricPrecision" transform="matrix(1,0,0,1,-676,-426)" stroke-linecap="butt">
      <circle fill="none" r="15" clip-path="url(#clipPath2)" cx="796.94" cy="616.4"/>
      <text x="790.2662" xml:space="preserve" y="621.1139" clip-path="url(#clipPath2)" font-family="sans-serif" stroke="none">25</text>
    </g>
    <g fill="rgb(255,204,0)" text-rendering="geometricPrecision" shape-rendering="geometricPrecision" transform="matrix(1,0,0,1,-676,-426)" stroke="rgb(255,204,0)">
      <circle r="15" clip-path="url(#clipPath2)" cx="766.94" cy="676.4" stroke="none"/>
    </g>
    <g text-rendering="geometricPrecision" stroke-miterlimit="1.45" shape-rendering="geometricPrecision" transform="matrix(1,0,0,1,-676,-426)" stroke-linecap="butt">
      <circle fill="none" r="15" clip-path="url(#clipPath2)" cx="766.94" cy="676.4"/>
      <text x="760.2662" xml:space="preserve" y="681.1139" clip-path="url(#clipPath2)" font-family="sans-serif" stroke="none">19</text>
    </g>
    <g fill="rgb(255,204,0)" text-rendering="geometricPrecision" shape-rendering="geometricPrecision" transform="matrix(1,0,0,1,-676,-426)" stroke="rgb(255,204,0)">
      <circle r="15" clip-path="url(#clipPath2)" cx="826.94" cy="676.4" stroke="none"/>
    </g>
    <g text-rendering="geometricPrecision" stroke-miterlimit="1.45" shape-rendering="geometricPrecision" transform="matrix(1,0,0,1,-676,-426)" stroke-linecap="butt">
      <circle fill="none" r="15" clip-path="url(#clipPath2)" cx="826.94" cy="676.4"/>
      <text x="820.2662" xml:space="preserve" y="681.1139" clip-path="url(#clipPath2)" font-family="sans-serif" stroke="none">26</text>
    </g>
    <g transform="matrix(1,0,0,1,-676,-426)" fill-opacity="0.498" fill="rgb(255,0,0)" text-rendering="geometricPrecision" shape-rendering="geometricPrecision" stroke="rgb(255,0,0)" stroke-opacity="0.498">
      <rect x="775.54" width="36.4" height="20" y="441.6" clip-path="url(#clipPath2)" stroke="none"/>
    </g>
    <g text-rendering="geometricPrecision" stroke-miterlimit="1.45" shape-rendering="geometricPrecision" transform="matrix(1,0,0,1,-676,-426)" stroke-linecap="butt">
      <rect fill="none" x="775.54" width="36.4" height="20" y="441.6" clip-path="url(#clipPath2)"/>
      <text x="778.3972" xml:space="preserve" y="456.3139" clip-path="url(#clipPath2)" font-family="sans-serif" stroke="none">ABB1</text>
      <path fill="none" d="M846.571 505.2226 L895.9128 541.1075" clip-path="url(#clipPath2)"/>
      <path d="M904.809 547.5775 L898.6332 535.667 L891.5751 545.3718 Z" clip-path="url(#clipPath2)" stroke="none"/>
      <path fill="none" d="M910.2318 569.8164 L898.5676 593.1449" clip-path="url(#clipPath2)"/>
      <path d="M893.6482 602.9836 L904.3813 594.9338 L893.6483 589.5672 Z" clip-path="url(#clipPath2)" stroke="none"/>
      <path fill="none" d="M822.309 505.2226 L772.9672 541.1075" clip-path="url(#clipPath2)"/>
      <path d="M764.071 547.5775 L777.3049 545.3718 L770.2468 535.667 Z" clip-path="url(#clipPath2)" stroke="none"/>
      <path fill="none" d="M742.94 568.4 L722.54 595.6" clip-path="url(#clipPath2)"/>
      <path d="M715.94 604.4 L727.94 598.4 L718.34 591.2 Z" clip-path="url(#clipPath2)" stroke="none"/>
      <path fill="none" d="M760.94 568.4 L781.34 595.6" clip-path="url(#clipPath2)"/>
      <path d="M787.94 604.4 L785.54 591.2 L775.94 598.4 Z" clip-path="url(#clipPath2)" stroke="none"/>
      <path fill="none" d="M790.2318 629.8164 L778.5676 653.1449" clip-path="url(#clipPath2)"/>
      <path d="M773.6482 662.9836 L784.3813 654.9338 L773.6483 649.5672 Z" clip-path="url(#clipPath2)" stroke="none"/>
      <path fill="none" d="M803.6482 629.8164 L815.3124 653.1449" clip-path="url(#clipPath2)"/>
      <path d="M820.2318 662.9836 L820.2318 649.5672 L809.4987 654.9338 Z" clip-path="url(#clipPath2)" stroke="none"/>
      <path fill="none" d="M811.94 451.3771 L834.44 451.1015 L834.44 470.4" clip-path="url(#clipPath2)"/>
      <path d="M834.44 481.4 L840.44 469.4 L828.44 469.4 Z" clip-path="url(#clipPath2)" stroke="none"/>
    </g>
  </g>
</svg>
