<?xml version="1.0" encoding="UTF-8"?><svg xmlns="http://www.w3.org/2000/svg" xmlns:xlink="http://www.w3.org/1999/xlink" fill-opacity="1" color-rendering="auto" color-interpolation="auto" text-rendering="auto" stroke="black" stroke-linecap="square" width="286" stroke-miterlimit="10" shape-rendering="auto" stroke-opacity="1" fill="black" stroke-dasharray="none" font-weight="normal" stroke-width="1" height="333" font-family="'Dialog'" font-style="normal" stroke-linejoin="miter" font-size="12px" stroke-dashoffset="0" image-rendering="auto">
  <!--Generated by ySVG 2.5-->
  <defs id="genericDefs"/>
  <g>
    <defs id="defs1">
      <clipPath clipPathUnits="userSpaceOnUse" id="clipPath1">
        <path d="M0 0 L286 0 L286 333 L0 333 L0 0 Z"/>
      </clipPath>
      <clipPath clipPathUnits="userSpaceOnUse" id="clipPath2">
        <path d="M753 465 L1039 465 L1039 798 L753 798 L753 465 Z"/>
      </clipPath>
    </defs>
    <g fill="rgb(255,204,0)" text-rendering="geometricPrecision" shape-rendering="geometricPrecision" transform="matrix(1,0,0,1,-753,-465)" stroke="rgb(255,204,0)">
      <circle r="15" clip-path="url(#clipPath2)" cx="919.02" cy="572.8" stroke="none"/>
    </g>
    <g text-rendering="geometricPrecision" stroke-miterlimit="1.45" shape-rendering="geometricPrecision" transform="matrix(1,0,0,1,-753,-465)" stroke-linecap="butt">
      <circle fill="none" r="15" clip-path="url(#clipPath2)" cx="919.02" cy="572.8"/>
      <text x="912.3462" xml:space="preserve" y="577.5139" clip-path="url(#clipPath2)" font-family="sans-serif" stroke="none">31</text>
    </g>
    <g fill="rgb(255,204,0)" text-rendering="geometricPrecision" shape-rendering="geometricPrecision" transform="matrix(1,0,0,1,-753,-465)" stroke="rgb(255,204,0)">
      <circle r="15" clip-path="url(#clipPath2)" cx="1001.52" cy="632.8" stroke="none"/>
    </g>
    <g text-rendering="geometricPrecision" stroke-miterlimit="1.45" shape-rendering="geometricPrecision" transform="matrix(1,0,0,1,-753,-465)" stroke-linecap="butt">
      <circle fill="none" r="15" clip-path="url(#clipPath2)" cx="1001.52" cy="632.8"/>
      <text x="994.8462" xml:space="preserve" y="637.5139" clip-path="url(#clipPath2)" font-family="sans-serif" stroke="none">40</text>
    </g>
    <g fill="rgb(255,204,0)" text-rendering="geometricPrecision" shape-rendering="geometricPrecision" transform="matrix(1,0,0,1,-753,-465)" stroke="rgb(255,204,0)">
      <circle r="15" clip-path="url(#clipPath2)" cx="971.52" cy="692.8" stroke="none"/>
    </g>
    <g text-rendering="geometricPrecision" stroke-miterlimit="1.45" shape-rendering="geometricPrecision" transform="matrix(1,0,0,1,-753,-465)" stroke-linecap="butt">
      <circle fill="none" r="15" clip-path="url(#clipPath2)" cx="971.52" cy="692.8"/>
      <text x="964.8462" xml:space="preserve" y="697.5139" clip-path="url(#clipPath2)" font-family="sans-serif" stroke="none">39</text>
    </g>
    <g fill="rgb(255,204,0)" text-rendering="geometricPrecision" shape-rendering="geometricPrecision" transform="matrix(1,0,0,1,-753,-465)" stroke="rgb(255,204,0)">
      <circle r="15" clip-path="url(#clipPath2)" cx="836.52" cy="632.8" stroke="none"/>
    </g>
    <g text-rendering="geometricPrecision" stroke-miterlimit="1.45" shape-rendering="geometricPrecision" transform="matrix(1,0,0,1,-753,-465)" stroke-linecap="butt">
      <circle fill="none" r="15" clip-path="url(#clipPath2)" cx="836.52" cy="632.8"/>
      <text x="829.8462" xml:space="preserve" y="637.5139" clip-path="url(#clipPath2)" font-family="sans-serif" stroke="none">16</text>
    </g>
    <g fill="rgb(255,204,0)" text-rendering="geometricPrecision" shape-rendering="geometricPrecision" transform="matrix(1,0,0,1,-753,-465)" stroke="rgb(255,204,0)">
      <circle r="15" clip-path="url(#clipPath2)" cx="791.52" cy="692.8" stroke="none"/>
    </g>
    <g text-rendering="geometricPrecision" stroke-miterlimit="1.45" shape-rendering="geometricPrecision" transform="matrix(1,0,0,1,-753,-465)" stroke-linecap="butt">
      <circle fill="none" r="15" clip-path="url(#clipPath2)" cx="791.52" cy="692.8"/>
      <text x="788.1831" xml:space="preserve" y="697.5139" clip-path="url(#clipPath2)" font-family="sans-serif" stroke="none">5</text>
    </g>
    <g fill="rgb(255,204,0)" text-rendering="geometricPrecision" shape-rendering="geometricPrecision" transform="matrix(1,0,0,1,-753,-465)" stroke="rgb(255,204,0)">
      <circle r="15" clip-path="url(#clipPath2)" cx="881.52" cy="692.8" stroke="none"/>
    </g>
    <g text-rendering="geometricPrecision" stroke-miterlimit="1.45" shape-rendering="geometricPrecision" transform="matrix(1,0,0,1,-753,-465)" stroke-linecap="butt">
      <circle fill="none" r="15" clip-path="url(#clipPath2)" cx="881.52" cy="692.8"/>
      <text x="874.8462" xml:space="preserve" y="697.5139" clip-path="url(#clipPath2)" font-family="sans-serif" stroke="none">25</text>
    </g>
    <g fill="rgb(255,204,0)" text-rendering="geometricPrecision" shape-rendering="geometricPrecision" transform="matrix(1,0,0,1,-753,-465)" stroke="rgb(255,204,0)">
      <circle r="15" clip-path="url(#clipPath2)" cx="851.52" cy="752.8" stroke="none"/>
    </g>
    <g text-rendering="geometricPrecision" stroke-miterlimit="1.45" shape-rendering="geometricPrecision" transform="matrix(1,0,0,1,-753,-465)" stroke-linecap="butt">
      <circle fill="none" r="15" clip-path="url(#clipPath2)" cx="851.52" cy="752.8"/>
      <text x="844.8462" xml:space="preserve" y="757.5139" clip-path="url(#clipPath2)" font-family="sans-serif" stroke="none">19</text>
    </g>
    <g fill="rgb(255,204,0)" text-rendering="geometricPrecision" shape-rendering="geometricPrecision" transform="matrix(1,0,0,1,-753,-465)" stroke="rgb(255,204,0)">
      <circle r="15" clip-path="url(#clipPath2)" cx="911.52" cy="752.8" stroke="none"/>
    </g>
    <g text-rendering="geometricPrecision" stroke-miterlimit="1.45" shape-rendering="geometricPrecision" transform="matrix(1,0,0,1,-753,-465)" stroke-linecap="butt">
      <circle fill="none" r="15" clip-path="url(#clipPath2)" cx="911.52" cy="752.8"/>
      <text x="904.8462" xml:space="preserve" y="757.5139" clip-path="url(#clipPath2)" font-family="sans-serif" stroke="none">26</text>
    </g>
    <g transform="matrix(1,0,0,1,-753,-465)" fill-opacity="0.498" fill="rgb(255,0,0)" text-rendering="geometricPrecision" shape-rendering="geometricPrecision" stroke="rgb(255,0,0)" stroke-opacity="0.498">
      <rect x="900.82" width="36.4" height="20" y="480.4" clip-path="url(#clipPath2)" stroke="none"/>
    </g>
    <g text-rendering="geometricPrecision" stroke-miterlimit="1.45" shape-rendering="geometricPrecision" transform="matrix(1,0,0,1,-753,-465)" stroke-linecap="butt">
      <rect fill="none" x="900.82" width="36.4" height="20" y="480.4" clip-path="url(#clipPath2)"/>
      <text x="903.6772" xml:space="preserve" y="495.1139" clip-path="url(#clipPath2)" font-family="sans-serif" stroke="none">ABB1</text>
      <rect fill="none" x="862.54" width="38.28" height="20" y="512.8" clip-path="url(#clipPath2)"/>
      <text x="873.345" xml:space="preserve" y="527.5139" clip-path="url(#clipPath2)" font-family="sans-serif" stroke="none">Fin</text>
      <rect fill="none" x="937.22" width="38.28" height="20" y="512.8" clip-path="url(#clipPath2)"/>
      <text x="942.3531" xml:space="preserve" y="527.5139" clip-path="url(#clipPath2)" font-family="sans-serif" stroke="none">Inicio</text>
    </g>
    <g fill="rgb(204,255,204)" text-rendering="geometricPrecision" shape-rendering="geometricPrecision" transform="matrix(1,0,0,1,-753,-465)" stroke="rgb(204,255,204)">
      <circle r="7.5" clip-path="url(#clipPath2)" cx="919.02" cy="595.3" stroke="none"/>
    </g>
    <g text-rendering="geometricPrecision" stroke-miterlimit="1.45" shape-rendering="geometricPrecision" transform="matrix(1,0,0,1,-753,-465)" stroke-linecap="butt">
      <circle fill="none" r="7.5" clip-path="url(#clipPath2)" cx="919.02" cy="595.3"/>
    </g>
    <g fill="rgb(204,255,204)" text-rendering="geometricPrecision" shape-rendering="geometricPrecision" transform="matrix(1,0,0,1,-753,-465)" stroke="rgb(204,255,204)">
      <circle r="7.5" clip-path="url(#clipPath2)" cx="1001.52" cy="655.3" stroke="none"/>
    </g>
    <g text-rendering="geometricPrecision" stroke-miterlimit="1.45" shape-rendering="geometricPrecision" transform="matrix(1,0,0,1,-753,-465)" stroke-linecap="butt">
      <circle fill="none" r="7.5" clip-path="url(#clipPath2)" cx="1001.52" cy="655.3"/>
    </g>
    <g fill="rgb(204,255,204)" text-rendering="geometricPrecision" shape-rendering="geometricPrecision" transform="matrix(1,0,0,1,-753,-465)" stroke="rgb(204,255,204)">
      <circle r="7.5" clip-path="url(#clipPath2)" cx="971.52" cy="715.3" stroke="none"/>
    </g>
    <g text-rendering="geometricPrecision" stroke-miterlimit="1.45" shape-rendering="geometricPrecision" transform="matrix(1,0,0,1,-753,-465)" stroke-linecap="butt">
      <circle fill="none" r="7.5" clip-path="url(#clipPath2)" cx="971.52" cy="715.3"/>
    </g>
    <g fill="rgb(204,255,204)" text-rendering="geometricPrecision" shape-rendering="geometricPrecision" transform="matrix(1,0,0,1,-753,-465)" stroke="rgb(204,255,204)">
      <circle r="7.5" clip-path="url(#clipPath2)" cx="911.52" cy="775.3" stroke="none"/>
    </g>
    <g text-rendering="geometricPrecision" stroke-miterlimit="1.45" shape-rendering="geometricPrecision" transform="matrix(1,0,0,1,-753,-465)" stroke-linecap="butt">
      <circle fill="none" r="7.5" clip-path="url(#clipPath2)" cx="911.52" cy="775.3"/>
    </g>
    <g fill="rgb(204,255,204)" text-rendering="geometricPrecision" shape-rendering="geometricPrecision" transform="matrix(1,0,0,1,-753,-465)" stroke="rgb(204,255,204)">
      <circle r="7.5" clip-path="url(#clipPath2)" cx="881.52" cy="715.3" stroke="none"/>
    </g>
    <g text-rendering="geometricPrecision" stroke-miterlimit="1.45" shape-rendering="geometricPrecision" transform="matrix(1,0,0,1,-753,-465)" stroke-linecap="butt">
      <circle fill="none" r="7.5" clip-path="url(#clipPath2)" cx="881.52" cy="715.3"/>
    </g>
    <g fill="rgb(204,255,204)" text-rendering="geometricPrecision" shape-rendering="geometricPrecision" transform="matrix(1,0,0,1,-753,-465)" stroke="rgb(204,255,204)">
      <circle r="7.5" clip-path="url(#clipPath2)" cx="851.52" cy="775.3" stroke="none"/>
    </g>
    <g text-rendering="geometricPrecision" stroke-miterlimit="1.45" shape-rendering="geometricPrecision" transform="matrix(1,0,0,1,-753,-465)" stroke-linecap="butt">
      <circle fill="none" r="7.5" clip-path="url(#clipPath2)" cx="851.52" cy="775.3"/>
    </g>
    <g fill="rgb(204,255,204)" text-rendering="geometricPrecision" shape-rendering="geometricPrecision" transform="matrix(1,0,0,1,-753,-465)" stroke="rgb(204,255,204)">
      <circle r="7.5" clip-path="url(#clipPath2)" cx="836.52" cy="655.3" stroke="none"/>
    </g>
    <g text-rendering="geometricPrecision" stroke-miterlimit="1.45" shape-rendering="geometricPrecision" transform="matrix(1,0,0,1,-753,-465)" stroke-linecap="butt">
      <circle fill="none" r="7.5" clip-path="url(#clipPath2)" cx="836.52" cy="655.3"/>
    </g>
    <g fill="rgb(204,255,204)" text-rendering="geometricPrecision" shape-rendering="geometricPrecision" transform="matrix(1,0,0,1,-753,-465)" stroke="rgb(204,255,204)">
      <circle r="7.5" clip-path="url(#clipPath2)" cx="791.52" cy="715.3" stroke="none"/>
    </g>
    <g text-rendering="geometricPrecision" stroke-miterlimit="1.45" shape-rendering="geometricPrecision" transform="matrix(1,0,0,1,-753,-465)" stroke-linecap="butt">
      <circle fill="none" r="7.5" clip-path="url(#clipPath2)" cx="791.52" cy="715.3"/>
      <path fill="none" d="M931.1511 581.6226 L980.4929 617.5075" clip-path="url(#clipPath2)"/>
      <path d="M989.389 623.9774 L983.2132 612.067 L976.1551 621.7718 Z" clip-path="url(#clipPath2)" stroke="none"/>
      <path fill="none" d="M994.8118 646.2164 L983.1476 669.5449" clip-path="url(#clipPath2)"/>
      <path d="M978.2282 679.3836 L988.9614 671.3338 L978.2283 665.9672 Z" clip-path="url(#clipPath2)" stroke="none"/>
      <path fill="none" d="M906.889 581.6226 L857.5471 617.5075" clip-path="url(#clipPath2)"/>
      <path d="M848.6511 623.9774 L861.8849 621.7717 L854.8268 612.0669 Z" clip-path="url(#clipPath2)" stroke="none"/>
      <path fill="none" d="M827.52 644.8 L807.12 672" clip-path="url(#clipPath2)"/>
      <path d="M800.52 680.8 L812.52 674.8 L802.92 667.6 Z" clip-path="url(#clipPath2)" stroke="none"/>
      <path fill="none" d="M845.52 644.8 L865.92 672" clip-path="url(#clipPath2)"/>
      <path d="M872.52 680.8 L870.12 667.6 L860.52 674.8 Z" clip-path="url(#clipPath2)" stroke="none"/>
      <path fill="none" d="M874.8118 706.2164 L863.1476 729.5449" clip-path="url(#clipPath2)"/>
      <path d="M858.2282 739.3836 L868.9614 731.3338 L858.2283 725.9672 Z" clip-path="url(#clipPath2)" stroke="none"/>
      <path fill="none" d="M888.2282 706.2164 L899.8925 729.5449" clip-path="url(#clipPath2)"/>
      <path d="M904.8118 739.3836 L904.8118 725.9672 L894.0787 731.3337 Z" clip-path="url(#clipPath2)" stroke="none"/>
      <path fill="none" d="M919.02 500.4 L919.02 527.5015 L919.02 546.8" clip-path="url(#clipPath2)"/>
      <path d="M919.02 557.8 L925.02 545.8 L913.02 545.8 Z" clip-path="url(#clipPath2)" stroke="none"/>
    </g>
    <g stroke-linecap="butt" transform="matrix(1,0,0,1,-753,-465)" fill-opacity="0.498" fill="rgb(255,0,0)" text-rendering="geometricPrecision" shape-rendering="geometricPrecision" stroke-dasharray="6,2" stroke="rgb(255,0,0)" stroke-opacity="0.498" stroke-miterlimit="1.45">
      <path fill="none" d="M891.7458 543.8478 L891.8137 543.9212 L892.7498 545.075 L895.094 548.3665 L897.0427 551.6731 L898.5168 554.9978 L899.4373 558.3438 L899.7249 561.7139 L899.3006 565.1113 L898.0854 568.539 L896 572 L893.0012 575.4931 L889.1882 579.0005 L884.6962 582.5 L879.6602 585.9696 L874.2154 589.3873 L868.4968 592.7308 L862.6395 595.9781 L856.7785 599.1074 L851.049 602.0962 L845.5861 604.9226 L840.5247 607.5646 L836 610 L832.1131 612.2172 L828.8291 614.2458 L826.0792 616.1262 L823.7944 617.8983 L821.906 619.6025 L820.3451 621.2787 L819.0427 622.9673 L817.9301 624.7084 L816.9384 626.542 L815.9987 628.5084 L815.0422 630.6476 L814 633 L812.8156 635.592 L811.4814 638.3959 L810.0027 641.3704 L808.3842 644.4741 L806.631 647.6658 L804.7479 650.9042 L802.7399 654.1478 L800.612 657.3555 L798.3691 660.4858 L796.0162 663.4976 L793.5582 666.3494 L791 669 L788.3546 671.4207 L785.6664 673.6337 L782.9882 675.6737 L780.3724 677.5756 L777.8716 679.3744 L775.5384 681.1047 L773.4252 682.8013 L771.5847 684.4993 L770.0694 686.2333 L768.9318 688.0382 L768.2245 689.9489 L768 692 L768.2929 694.212 L769.0658 696.5464 L770.2632 698.9506 L771.8297 701.3715 L773.71 703.7563 L775.8484 706.0522 L778.1899 708.2064 L780.6786 710.1658 L783.2595 711.8778 L785.877 713.2894 L788.4756 714.3478 L791 715 L793.4055 715.2049 L795.6909 714.9678 L797.8653 714.3054 L799.9383 713.2348 L801.9193 711.7728 L803.8177 709.9364 L805.6429 707.7424 L807.4042 705.2076 L809.1113 702.3492 L810.7733 699.1838 L812.3997 695.7285 L814 692 L815.5837 688.0286 L817.1616 683.8974 L818.7444 679.7028 L820.343 675.5411 L821.9681 671.5088 L823.6307 667.7021 L825.3417 664.2177 L827.1117 661.1516 L828.9517 658.6005 L830.8726 656.6606 L832.885 655.4283 L835 655 L837.2206 655.4405 L839.5192 656.688 L841.8602 658.649 L844.2083 661.2303 L846.5282 664.3384 L848.7843 667.8799 L850.9413 671.7614 L852.9637 675.8895 L854.8163 680.1708 L856.4634 684.512 L857.8698 688.8195 L859 693 L859.826 696.9774 L860.3498 700.7442 L860.5805 704.3104 L860.5274 707.6857 L860.1998 710.8799 L859.6071 713.9031 L858.7583 716.7651 L857.6629 719.4755 L856.3301 722.0444 L854.7692 724.4815 L852.9894 726.7968 L851 729 L848.8189 731.1026 L846.4984 733.1223 L844.0992 735.0784 L841.6821 736.9901 L839.3079 738.8766 L837.0376 740.7575 L834.9318 742.6518 L833.0514 744.5788 L831.4572 746.5579 L830.21 748.6083 L829.3707 750.7492 L829 753 L829.1401 755.3686 L829.7585 757.8176 L830.8041 760.2982 L832.2258 762.7615 L833.9724 765.1591 L835.9927 767.4419 L838.2357 769.5613 L840.6501 771.4685 L843.1849 773.1147 L845.7889 774.4512 L848.4109 775.4293 L851 776 L853.5125 776.1255 L855.9351 775.8112 L858.2624 775.0729 L860.4888 773.9267 L862.6088 772.3887 L864.6167 770.4749 L866.5071 768.2014 L868.2742 765.5843 L869.9127 762.6395 L871.4169 759.3832 L872.7811 755.8314 L874 752 L875.0712 747.9191 L876.0058 743.6739 L876.8181 739.3636 L877.5226 735.0873 L878.1335 730.9442 L878.6654 727.0334 L879.1325 723.4541 L879.5493 720.3054 L879.93 717.6865 L880.2891 715.6966 L880.641 714.4347 L881 714 L881.3793 714.4585 L881.7872 715.7432 L882.2308 717.754 L882.7171 720.3907 L883.2534 723.5532 L883.8466 727.1414 L884.5039 731.055 L885.2324 735.194 L886.0392 739.4581 L886.9313 743.7472 L887.9159 747.9612 L889 752 L890.19 755.7776 L891.489 759.2653 L892.8995 762.4485 L894.4237 765.3127 L896.0641 767.8434 L897.8231 770.0261 L899.7031 771.8461 L901.7063 773.2892 L903.8352 774.3406 L906.0922 774.9859 L908.4797 775.2105 L911 775 L913.6448 774.3506 L916.3632 773.3022 L919.0932 771.9052 L921.7731 770.2104 L924.3413 768.2682 L926.7359 766.1295 L928.8951 763.8445 L930.7573 761.4642 L932.2607 759.0389 L933.3434 756.6194 L933.9437 754.2562 L934 752 L933.4742 749.8876 L932.4241 747.9011 L930.9309 746.0088 L929.0763 744.1791 L926.9416 742.3805 L924.6083 740.5812 L922.158 738.7496 L919.6719 736.8541 L917.2316 734.863 L914.9185 732.7447 L912.8142 730.4676 L911 728 L909.5357 725.3219 L908.3943 722.4594 L907.5269 719.4503 L906.8846 716.3323 L906.4189 713.1433 L906.0808 709.9209 L905.8215 706.7029 L905.5923 703.527 L905.3443 700.431 L905.0288 697.4527 L904.597 694.6298 L904 692 L903.1977 689.5894 L902.184 687.3771 L900.9617 685.3307 L899.5332 683.4174 L897.9013 681.6049 L896.0685 679.8604 L894.0375 678.1514 L891.8108 676.4454 L889.3911 674.7098 L886.781 672.9121 L883.9831 671.0197 L881 669 L877.8495 666.8257 L874.6104 664.4903 L871.3765 661.9926 L868.2417 659.3312 L865.3 656.505 L862.6451 653.5127 L860.3712 650.353 L858.5718 647.0247 L857.3412 643.5265 L856.7731 639.8572 L856.9614 636.0154 L858 632 L859.9528 627.8243 L862.7632 623.5598 L866.3448 619.2928 L870.611 615.1095 L875.4752 611.0961 L880.8509 607.3388 L886.6516 603.9238 L892.7906 600.9373 L899.1815 598.4654 L905.7378 596.5944 L912.3728 595.4106 L919 595 L925.5396 595.4201 L931.9385 596.6132 L938.1505 598.4924 L944.1292 600.9714 L949.8282 603.9635 L955.2012 607.3821 L960.202 611.1406 L964.7842 615.1523 L968.9014 619.3307 L972.5073 623.5892 L975.5556 627.8411 L978 632 L979.8096 635.9941 L981.015 639.8117 L981.6625 643.4562 L981.7983 646.9307 L981.4684 650.2385 L980.7192 653.3829 L979.5966 656.3671 L978.1469 659.1944 L976.4162 661.8681 L974.4507 664.3914 L972.2966 666.7676 L970 669 L967.6076 671.0954 L965.168 673.0751 L962.7305 674.9641 L960.3443 676.7874 L958.0584 678.5699 L955.9222 680.3365 L953.9847 682.1122 L952.2951 683.9219 L950.9026 685.7906 L949.8566 687.7432 L949.2059 689.8047 L949 692 L949.2717 694.3408 L949.9887 696.786 L951.1027 699.2811 L952.5653 701.7715 L954.3279 704.2031 L956.3422 706.5212 L958.5598 708.6715 L960.932 710.5995 L963.4106 712.2508 L965.9471 713.5709 L968.493 714.5055 L971 715 L973.4268 715.0146 L975.7614 714.5679 L977.9992 713.6929 L980.1353 712.4226 L982.1652 710.7902 L984.0839 708.8286 L985.8869 706.571 L987.5694 704.0505 L989.1267 701.3 L990.554 698.3527 L991.8467 695.2417 L993 692 L994.0137 688.6613 L994.9054 685.2617 L995.6974 681.838 L996.4119 678.4268 L997.071 675.065 L997.6971 671.7893 L998.3121 668.6364 L998.9384 665.6431 L999.5982 662.846 L1000.3135 660.282 L1001.1068 657.9877 L1002 656 L1003.0087 654.3425 L1004.1216 652.9872 L1005.3205 651.8928 L1006.5874 651.0183 L1007.9042 650.3224 L1009.2528 649.7642 L1010.6151 649.3024 L1011.9731 648.8959 L1013.3087 648.5035 L1014.6038 648.0842 L1015.8402 647.5967 L1017 647 L1018.0677 646.262 L1019.0388 645.3868 L1019.9111 644.3876 L1020.6829 643.2778 L1021.3521 642.0705 L1021.9167 640.7789 L1022.3749 639.4162 L1022.7246 637.9957 L1022.9639 636.5306 L1023.0909 635.0342 L1023.1036 633.5195 L1023 632 L1022.7719 630.484 L1022.3854 628.9611 L1021.8005 627.4159 L1020.9773 625.8334 L1019.8755 624.1983 L1018.4553 622.4953 L1016.6763 620.7092 L1014.4987 618.8249 L1011.8824 616.827 L1008.7872 614.7004 L1005.173 612.4298 L1001 610 L996.2559 607.4011 L991.0402 604.644 L985.4805 601.7455 L979.7042 598.7219 L973.839 595.5895 L968.0122 592.3649 L962.3514 589.0645 L956.9841 585.7047 L952.0378 582.3018 L947.6401 578.8725 L943.9183 575.4331 L941 572 L938.9785 568.5866 L937.8105 565.1942 L937.4183 561.8207 L937.7244 558.4642 L938.6511 555.123 L940.1209 551.795 L942.0563 548.4785 L944.3795 545.1714 L947.0131 541.8719 L949.8794 538.5781 L952.9009 535.2881 L955.2495 532.7963" clip-path="url(#clipPath2)"/>
    </g>
    <g stroke-linecap="butt" transform="matrix(1,0,0,1,-753,-465)" fill="white" text-rendering="geometricPrecision" shape-rendering="geometricPrecision" stroke-dasharray="6,2" stroke="white" stroke-miterlimit="1.45">
      <path d="M881.6923 532.7156 L887.9631 548.6113 L896.869 540.5685 Z" stroke="none" clip-path="url(#clipPath2)"/>
    </g>
    <g stroke-linecap="butt" transform="matrix(1,0,0,1,-753,-465)" fill-opacity="0.498" fill="rgb(255,0,0)" text-rendering="geometricPrecision" shape-rendering="geometricPrecision" stroke="rgb(255,0,0)" stroke-opacity="0.498" stroke-miterlimit="1.45">
      <path fill="none" d="M881.6923 532.7156 L887.9631 548.6113 L896.869 540.5685 Z" clip-path="url(#clipPath2)"/>
    </g>
  </g>
</svg>
