<?xml version="1.0" encoding="UTF-8"?><svg xmlns="http://www.w3.org/2000/svg" xmlns:xlink="http://www.w3.org/1999/xlink" fill-opacity="1" color-rendering="auto" color-interpolation="auto" text-rendering="auto" stroke="black" stroke-linecap="square" width="271" stroke-miterlimit="10" shape-rendering="auto" stroke-opacity="1" fill="black" stroke-dasharray="none" font-weight="normal" stroke-width="1" height="281" font-family="'Dialog'" font-style="normal" stroke-linejoin="miter" font-size="12px" stroke-dashoffset="0" image-rendering="auto">
  <!--Generated by ySVG 2.5-->
  <defs id="genericDefs"/>
  <g>
    <defs id="defs1">
      <clipPath clipPathUnits="userSpaceOnUse" id="clipPath1">
        <path d="M0 0 L271 0 L271 281 L0 281 L0 0 Z"/>
      </clipPath>
      <clipPath clipPathUnits="userSpaceOnUse" id="clipPath2">
        <path d="M754 502 L1025 502 L1025 783 L754 783 L754 502 Z"/>
      </clipPath>
    </defs>
    <g fill="rgb(255,204,0)" text-rendering="geometricPrecision" shape-rendering="geometricPrecision" transform="matrix(1,0,0,1,-754,-502)" stroke="rgb(255,204,0)">
      <circle r="15" clip-path="url(#clipPath2)" cx="912.02" cy="572.6" stroke="none"/>
    </g>
    <g text-rendering="geometricPrecision" stroke-miterlimit="1.45" shape-rendering="geometricPrecision" transform="matrix(1,0,0,1,-754,-502)" stroke-linecap="butt">
      <circle fill="none" r="15" clip-path="url(#clipPath2)" cx="912.02" cy="572.6"/>
      <text x="905.3462" xml:space="preserve" y="577.3138" clip-path="url(#clipPath2)" font-family="sans-serif" stroke="none">31</text>
    </g>
    <g fill="rgb(255,204,0)" text-rendering="geometricPrecision" shape-rendering="geometricPrecision" transform="matrix(1,0,0,1,-754,-502)" stroke="rgb(255,204,0)">
      <circle r="15" clip-path="url(#clipPath2)" cx="994.52" cy="632.6" stroke="none"/>
    </g>
    <g text-rendering="geometricPrecision" stroke-miterlimit="1.45" shape-rendering="geometricPrecision" transform="matrix(1,0,0,1,-754,-502)" stroke-linecap="butt">
      <circle fill="none" r="15" clip-path="url(#clipPath2)" cx="994.52" cy="632.6"/>
      <text x="987.8462" xml:space="preserve" y="637.3138" clip-path="url(#clipPath2)" font-family="sans-serif" stroke="none">40</text>
    </g>
    <g fill="rgb(255,204,0)" text-rendering="geometricPrecision" shape-rendering="geometricPrecision" transform="matrix(1,0,0,1,-754,-502)" stroke="rgb(255,204,0)">
      <circle r="15" clip-path="url(#clipPath2)" cx="964.52" cy="692.6" stroke="none"/>
    </g>
    <g text-rendering="geometricPrecision" stroke-miterlimit="1.45" shape-rendering="geometricPrecision" transform="matrix(1,0,0,1,-754,-502)" stroke-linecap="butt">
      <circle fill="none" r="15" clip-path="url(#clipPath2)" cx="964.52" cy="692.6"/>
      <text x="957.8462" xml:space="preserve" y="697.3138" clip-path="url(#clipPath2)" font-family="sans-serif" stroke="none">39</text>
    </g>
    <g fill="rgb(255,204,0)" text-rendering="geometricPrecision" shape-rendering="geometricPrecision" transform="matrix(1,0,0,1,-754,-502)" stroke="rgb(255,204,0)">
      <circle r="15" clip-path="url(#clipPath2)" cx="829.52" cy="632.6" stroke="none"/>
    </g>
    <g text-rendering="geometricPrecision" stroke-miterlimit="1.45" shape-rendering="geometricPrecision" transform="matrix(1,0,0,1,-754,-502)" stroke-linecap="butt">
      <circle fill="none" r="15" clip-path="url(#clipPath2)" cx="829.52" cy="632.6"/>
      <text x="822.8462" xml:space="preserve" y="637.3138" clip-path="url(#clipPath2)" font-family="sans-serif" stroke="none">16</text>
    </g>
    <g fill="rgb(255,204,0)" text-rendering="geometricPrecision" shape-rendering="geometricPrecision" transform="matrix(1,0,0,1,-754,-502)" stroke="rgb(255,204,0)">
      <circle r="15" clip-path="url(#clipPath2)" cx="784.52" cy="692.6" stroke="none"/>
    </g>
    <g text-rendering="geometricPrecision" stroke-miterlimit="1.45" shape-rendering="geometricPrecision" transform="matrix(1,0,0,1,-754,-502)" stroke-linecap="butt">
      <circle fill="none" r="15" clip-path="url(#clipPath2)" cx="784.52" cy="692.6"/>
      <text x="781.1831" xml:space="preserve" y="697.3138" clip-path="url(#clipPath2)" font-family="sans-serif" stroke="none">5</text>
    </g>
    <g fill="rgb(255,204,0)" text-rendering="geometricPrecision" shape-rendering="geometricPrecision" transform="matrix(1,0,0,1,-754,-502)" stroke="rgb(255,204,0)">
      <circle r="15" clip-path="url(#clipPath2)" cx="874.52" cy="692.6" stroke="none"/>
    </g>
    <g text-rendering="geometricPrecision" stroke-miterlimit="1.45" shape-rendering="geometricPrecision" transform="matrix(1,0,0,1,-754,-502)" stroke-linecap="butt">
      <circle fill="none" r="15" clip-path="url(#clipPath2)" cx="874.52" cy="692.6"/>
      <text x="867.8462" xml:space="preserve" y="697.3138" clip-path="url(#clipPath2)" font-family="sans-serif" stroke="none">25</text>
    </g>
    <g fill="rgb(255,204,0)" text-rendering="geometricPrecision" shape-rendering="geometricPrecision" transform="matrix(1,0,0,1,-754,-502)" stroke="rgb(255,204,0)">
      <circle r="15" clip-path="url(#clipPath2)" cx="844.52" cy="752.6" stroke="none"/>
    </g>
    <g text-rendering="geometricPrecision" stroke-miterlimit="1.45" shape-rendering="geometricPrecision" transform="matrix(1,0,0,1,-754,-502)" stroke-linecap="butt">
      <circle fill="none" r="15" clip-path="url(#clipPath2)" cx="844.52" cy="752.6"/>
      <text x="837.8462" xml:space="preserve" y="757.3138" clip-path="url(#clipPath2)" font-family="sans-serif" stroke="none">19</text>
    </g>
    <g fill="rgb(255,204,0)" text-rendering="geometricPrecision" shape-rendering="geometricPrecision" transform="matrix(1,0,0,1,-754,-502)" stroke="rgb(255,204,0)">
      <circle r="15" clip-path="url(#clipPath2)" cx="904.52" cy="752.6" stroke="none"/>
    </g>
    <g text-rendering="geometricPrecision" stroke-miterlimit="1.45" shape-rendering="geometricPrecision" transform="matrix(1,0,0,1,-754,-502)" stroke-linecap="butt">
      <circle fill="none" r="15" clip-path="url(#clipPath2)" cx="904.52" cy="752.6"/>
      <text x="897.8462" xml:space="preserve" y="757.3138" clip-path="url(#clipPath2)" font-family="sans-serif" stroke="none">26</text>
    </g>
    <g transform="matrix(1,0,0,1,-754,-502)" fill-opacity="0.498" fill="rgb(255,0,0)" text-rendering="geometricPrecision" shape-rendering="geometricPrecision" stroke="rgb(255,0,0)" stroke-opacity="0.498">
      <rect x="853.12" width="36.4" height="20" y="517.8" clip-path="url(#clipPath2)" stroke="none"/>
    </g>
    <g text-rendering="geometricPrecision" stroke-miterlimit="1.45" shape-rendering="geometricPrecision" transform="matrix(1,0,0,1,-754,-502)" stroke-linecap="butt">
      <rect fill="none" x="853.12" width="36.4" height="20" y="517.8" clip-path="url(#clipPath2)"/>
      <text x="855.9772" xml:space="preserve" y="532.5139" clip-path="url(#clipPath2)" font-family="sans-serif" stroke="none">ABB1</text>
    </g>
    <g fill="rgb(255,255,153)" text-rendering="geometricPrecision" shape-rendering="geometricPrecision" transform="matrix(1,0,0,1,-754,-502)" stroke="rgb(255,255,153)">
      <circle r="15" clip-path="url(#clipPath2)" cx="912.02" cy="692.6" stroke="none"/>
    </g>
    <g text-rendering="geometricPrecision" stroke-miterlimit="1.45" stroke-dasharray="6,2" shape-rendering="geometricPrecision" transform="matrix(1,0,0,1,-754,-502)" stroke-linecap="butt">
      <circle fill="none" r="15" clip-path="url(#clipPath2)" cx="912.02" cy="692.6"/>
      <text x="905.3462" y="697.3138" clip-path="url(#clipPath2)" font-family="sans-serif" stroke-dasharray="none" stroke="none" xml:space="preserve">19</text>
      <text x="932.0271" y="697.3138" clip-path="url(#clipPath2)" font-family="sans-serif" stroke-dasharray="none" stroke="none" xml:space="preserve">?</text>
      <path fill="none" stroke-dasharray="none" d="M924.1511 581.4225 L973.4929 617.3076" clip-path="url(#clipPath2)"/>
      <path stroke-dasharray="none" d="M982.389 623.7774 L976.2131 611.8669 L969.1551 621.5718 Z" clip-path="url(#clipPath2)" stroke="none"/>
      <path fill="none" stroke-dasharray="none" d="M987.8118 646.0164 L976.1476 669.3449" clip-path="url(#clipPath2)"/>
      <path stroke-dasharray="none" d="M971.2282 679.1836 L981.9614 671.1338 L971.2283 665.7672 Z" clip-path="url(#clipPath2)" stroke="none"/>
      <path fill="none" stroke-dasharray="none" d="M899.889 581.4225 L850.5471 617.3076" clip-path="url(#clipPath2)" stroke="rgb(51,153,102)"/>
      <path fill="rgb(51,153,102)" stroke-dasharray="none" d="M841.651 623.7775 L854.8849 621.5718 L847.8268 611.867 Z" clip-path="url(#clipPath2)" stroke="none"/>
      <path fill="none" stroke-dasharray="none" d="M820.52 644.6 L800.12 671.8" clip-path="url(#clipPath2)"/>
      <path stroke-dasharray="none" d="M793.52 680.6 L805.52 674.6 L795.92 667.4 Z" clip-path="url(#clipPath2)" stroke="none"/>
      <path fill="none" stroke-dasharray="none" d="M838.52 644.6 L858.92 671.8" clip-path="url(#clipPath2)" stroke="rgb(51,153,102)"/>
      <path fill="rgb(51,153,102)" stroke-dasharray="none" d="M865.52 680.6 L863.12 667.4 L853.52 674.6 Z" clip-path="url(#clipPath2)" stroke="none"/>
      <path fill="none" stroke-dasharray="none" d="M867.8118 706.0164 L856.1476 729.3449" clip-path="url(#clipPath2)"/>
      <path stroke-dasharray="none" d="M851.2282 739.1836 L861.9614 731.1338 L851.2283 725.7672 Z" clip-path="url(#clipPath2)" stroke="none"/>
      <path fill="none" stroke-dasharray="none" d="M881.2282 706.0164 L892.8925 729.3449" clip-path="url(#clipPath2)"/>
      <path stroke-dasharray="none" d="M897.8118 739.1836 L897.8118 725.7672 L887.0787 731.1337 Z" clip-path="url(#clipPath2)" stroke="none"/>
      <path fill="none" stroke-dasharray="none" d="M889.52 527.5771 L912.02 527.3015 L912.02 546.6" clip-path="url(#clipPath2)"/>
      <path stroke-dasharray="none" d="M912.02 557.6 L918.02 545.6 L906.02 545.6 Z" clip-path="url(#clipPath2)" stroke="none"/>
    </g>
  </g>
</svg>
