<?xml version="1.0" encoding="UTF-8"?><svg xmlns="http://www.w3.org/2000/svg" xmlns:xlink="http://www.w3.org/1999/xlink" fill-opacity="1" color-rendering="auto" color-interpolation="auto" text-rendering="auto" stroke="black" stroke-linecap="square" width="431" stroke-miterlimit="10" shape-rendering="auto" stroke-opacity="1" fill="black" stroke-dasharray="none" font-weight="normal" stroke-width="1" height="181" font-family="'Dialog'" font-style="normal" stroke-linejoin="miter" font-size="12px" stroke-dashoffset="0" image-rendering="auto">
  <!--Generated by ySVG 2.6-->
  <defs id="genericDefs"/>
  <g>
    <defs id="defs1">
      <clipPath clipPathUnits="userSpaceOnUse" id="clipPath1">
        <path d="M0 0 L431 0 L431 181 L0 181 L0 0 Z"/>
      </clipPath>
      <clipPath clipPathUnits="userSpaceOnUse" id="clipPath2">
        <path d="M800 497 L1231 497 L1231 678 L800 678 L800 497 Z"/>
      </clipPath>
    </defs>
    <g fill="rgb(255,204,0)" text-rendering="geometricPrecision" shape-rendering="geometricPrecision" transform="matrix(1,0,0,1,-800,-497)" stroke="rgb(255,204,0)">
      <circle r="15" clip-path="url(#clipPath2)" cx="910.5206" cy="572.4" stroke="none"/>
    </g>
    <g text-rendering="geometricPrecision" stroke-miterlimit="1.45" shape-rendering="geometricPrecision" transform="matrix(1,0,0,1,-800,-497)" stroke-linecap="butt">
      <circle fill="none" r="15" clip-path="url(#clipPath2)" cx="910.5206" cy="572.4"/>
      <text x="904.8927" xml:space="preserve" y="577.1139" clip-path="url(#clipPath2)" font-family="sans-serif" stroke="none">'n'</text>
    </g>
    <g fill="rgb(255,204,0)" text-rendering="geometricPrecision" shape-rendering="geometricPrecision" transform="matrix(1,0,0,1,-800,-497)" stroke="rgb(255,204,0)">
      <circle r="15" clip-path="url(#clipPath2)" cx="963.0206" cy="602.4" stroke="none"/>
    </g>
    <g text-rendering="geometricPrecision" stroke-miterlimit="1.45" shape-rendering="geometricPrecision" transform="matrix(1,0,0,1,-800,-497)" stroke-linecap="butt">
      <circle fill="none" r="15" clip-path="url(#clipPath2)" cx="963.0206" cy="602.4"/>
      <text x="956.3966" xml:space="preserve" y="607.1139" clip-path="url(#clipPath2)" font-family="sans-serif" stroke="none">'w'</text>
    </g>
    <g fill="rgb(255,204,0)" text-rendering="geometricPrecision" shape-rendering="geometricPrecision" transform="matrix(1,0,0,1,-800,-497)" stroke="rgb(255,204,0)">
      <circle r="15" clip-path="url(#clipPath2)" cx="933.0206" cy="641.2" stroke="none"/>
    </g>
    <g text-rendering="geometricPrecision" stroke-miterlimit="1.45" shape-rendering="geometricPrecision" transform="matrix(1,0,0,1,-800,-497)" stroke-linecap="butt">
      <circle fill="none" r="15" clip-path="url(#clipPath2)" cx="933.0206" cy="641.2"/>
      <text x="927.3927" xml:space="preserve" y="645.9139" clip-path="url(#clipPath2)" font-family="sans-serif" stroke="none">'p'</text>
    </g>
    <g fill="rgb(255,204,0)" text-rendering="geometricPrecision" shape-rendering="geometricPrecision" transform="matrix(1,0,0,1,-800,-497)" stroke="rgb(255,204,0)">
      <circle r="15" clip-path="url(#clipPath2)" cx="868.4686" cy="602.4" stroke="none"/>
    </g>
    <g text-rendering="geometricPrecision" stroke-miterlimit="1.45" shape-rendering="geometricPrecision" transform="matrix(1,0,0,1,-800,-497)" stroke-linecap="butt">
      <circle fill="none" r="15" clip-path="url(#clipPath2)" cx="868.4686" cy="602.4"/>
      <text x="862.8407" xml:space="preserve" y="607.1139" clip-path="url(#clipPath2)" font-family="sans-serif" stroke="none">'b'</text>
    </g>
    <g fill="rgb(255,204,0)" text-rendering="geometricPrecision" shape-rendering="geometricPrecision" transform="matrix(1,0,0,1,-800,-497)" stroke="rgb(255,204,0)">
      <circle r="15" clip-path="url(#clipPath2)" cx="838.4686" cy="641.2" stroke="none"/>
    </g>
    <g text-rendering="geometricPrecision" stroke-miterlimit="1.45" shape-rendering="geometricPrecision" transform="matrix(1,0,0,1,-800,-497)" stroke-linecap="butt">
      <circle fill="none" r="15" clip-path="url(#clipPath2)" cx="838.4686" cy="641.2"/>
      <text x="832.8407" xml:space="preserve" y="645.9139" clip-path="url(#clipPath2)" font-family="sans-serif" stroke="none">'a'</text>
    </g>
    <g fill="rgb(255,204,0)" text-rendering="geometricPrecision" shape-rendering="geometricPrecision" transform="matrix(1,0,0,1,-800,-497)" stroke="rgb(255,204,0)">
      <circle r="15" clip-path="url(#clipPath2)" cx="898.4686" cy="641.2" stroke="none"/>
    </g>
    <g text-rendering="geometricPrecision" stroke-miterlimit="1.45" shape-rendering="geometricPrecision" transform="matrix(1,0,0,1,-800,-497)" stroke-linecap="butt">
      <circle fill="none" r="15" clip-path="url(#clipPath2)" cx="898.4686" cy="641.2"/>
      <text x="891.1796" xml:space="preserve" y="645.9139" clip-path="url(#clipPath2)" font-family="sans-serif" stroke="none">'m'</text>
    </g>
    <g transform="matrix(1,0,0,1,-800,-497)" fill-opacity="0.498" fill="rgb(255,0,0)" text-rendering="geometricPrecision" shape-rendering="geometricPrecision" stroke="rgb(255,0,0)" stroke-opacity="0.498">
      <rect x="834.8206" width="53.2" height="20" y="517.6" clip-path="url(#clipPath2)" stroke="none"/>
    </g>
    <g text-rendering="geometricPrecision" stroke-miterlimit="1.45" shape-rendering="geometricPrecision" transform="matrix(1,0,0,1,-800,-497)" stroke-linecap="butt">
      <rect fill="none" x="834.8206" width="53.2" height="20" y="517.6" clip-path="url(#clipPath2)"/>
      <text x="838.7448" xml:space="preserve" y="532.3138" clip-path="url(#clipPath2)" font-family="sans-serif" stroke="none">ABletras</text>
      <rect x="815.9686" y="512.72" clip-path="url(#clipPath2)" fill="none" width="165" stroke-dasharray="6,2" height="150"/>
    </g>
    <g fill="rgb(255,204,0)" text-rendering="geometricPrecision" shape-rendering="geometricPrecision" transform="matrix(1,0,0,1,-800,-497)" stroke="rgb(255,204,0)">
      <rect x="1010.9686" width="125" height="20" y="517.6" clip-path="url(#clipPath2)" stroke="none"/>
    </g>
    <g text-rendering="geometricPrecision" stroke-miterlimit="1.45" shape-rendering="geometricPrecision" transform="matrix(1,0,0,1,-800,-497)" stroke-linecap="butt">
      <rect fill="none" x="1010.9686" width="125" height="20" y="517.6" clip-path="url(#clipPath2)"/>
      <text x="1027.455" xml:space="preserve" y="532.3138" clip-path="url(#clipPath2)" font-family="sans-serif" stroke="none">valores(ABletras)</text>
    </g>
    <g fill="rgb(255,204,0)" text-rendering="geometricPrecision" shape-rendering="geometricPrecision" transform="matrix(1,0,0,1,-800,-497)" stroke="rgb(255,204,0)">
      <rect x="1010.9686" width="125" height="20" y="572.6" clip-path="url(#clipPath2)" stroke="none"/>
    </g>
    <g text-rendering="geometricPrecision" stroke-miterlimit="1.45" shape-rendering="geometricPrecision" transform="matrix(1,0,0,1,-800,-497)" stroke-linecap="butt">
      <rect fill="none" x="1010.9686" width="125" height="20" y="572.6" clip-path="url(#clipPath2)"/>
      <text x="1031.788" xml:space="preserve" y="587.3138" clip-path="url(#clipPath2)" font-family="sans-serif" stroke="none">altura(ABletras)</text>
    </g>
    <g fill="rgb(255,204,0)" text-rendering="geometricPrecision" shape-rendering="geometricPrecision" transform="matrix(1,0,0,1,-800,-497)" stroke="rgb(255,204,0)">
      <rect x="1010.9686" width="125" height="20" y="627.6" clip-path="url(#clipPath2)" stroke="none"/>
    </g>
    <g text-rendering="geometricPrecision" stroke-miterlimit="1.45" shape-rendering="geometricPrecision" transform="matrix(1,0,0,1,-800,-497)" stroke-linecap="butt">
      <rect fill="none" x="1010.9686" width="125" height="20" y="627.6" clip-path="url(#clipPath2)"/>
      <text x="1032.453" xml:space="preserve" y="642.3138" clip-path="url(#clipPath2)" font-family="sans-serif" stroke="none">hojas(ABletras)</text>
    </g>
    <g fill="rgb(204,255,204)" text-rendering="geometricPrecision" shape-rendering="geometricPrecision" transform="matrix(1,0,0,1,-800,-497)" stroke="rgb(204,255,204)">
      <rect x="1165.9686" width="50" height="30" y="512.6" clip-path="url(#clipPath2)" stroke="none"/>
    </g>
    <g text-rendering="geometricPrecision" stroke-miterlimit="1.45" shape-rendering="geometricPrecision" transform="matrix(1,0,0,1,-800,-497)" stroke-linecap="butt">
      <rect fill="none" x="1165.9686" width="50" height="30" y="512.6" clip-path="url(#clipPath2)"/>
      <text x="1187.6317" xml:space="preserve" y="532.3138" clip-path="url(#clipPath2)" font-family="sans-serif" stroke="none">6</text>
    </g>
    <g fill="rgb(204,255,204)" text-rendering="geometricPrecision" shape-rendering="geometricPrecision" transform="matrix(1,0,0,1,-800,-497)" stroke="rgb(204,255,204)">
      <rect x="1165.9686" width="50" height="30" y="567.6" clip-path="url(#clipPath2)" stroke="none"/>
    </g>
    <g text-rendering="geometricPrecision" stroke-miterlimit="1.45" shape-rendering="geometricPrecision" transform="matrix(1,0,0,1,-800,-497)" stroke-linecap="butt">
      <rect fill="none" x="1165.9686" width="50" height="30" y="567.6" clip-path="url(#clipPath2)"/>
      <text x="1187.6317" xml:space="preserve" y="587.3138" clip-path="url(#clipPath2)" font-family="sans-serif" stroke="none">3</text>
    </g>
    <g fill="rgb(204,255,204)" text-rendering="geometricPrecision" shape-rendering="geometricPrecision" transform="matrix(1,0,0,1,-800,-497)" stroke="rgb(204,255,204)">
      <rect x="1165.9686" width="50" height="30" y="622.6" clip-path="url(#clipPath2)" stroke="none"/>
    </g>
    <g text-rendering="geometricPrecision" stroke-miterlimit="1.45" shape-rendering="geometricPrecision" transform="matrix(1,0,0,1,-800,-497)" stroke-linecap="butt">
      <rect fill="none" x="1165.9686" width="50" height="30" y="622.6" clip-path="url(#clipPath2)"/>
      <text x="1187.6317" xml:space="preserve" y="642.3138" clip-path="url(#clipPath2)" font-family="sans-serif" stroke="none">3</text>
      <path fill="none" d="M923.5443 579.8421 L940.4463 589.5004" clip-path="url(#clipPath2)"/>
      <path d="M949.9969 594.9579 L942.5549 583.7947 L936.6012 594.2137 Z" clip-path="url(#clipPath2)" stroke="none"/>
      <path fill="none" d="M953.8454 614.2666 L948.9243 620.6312" clip-path="url(#clipPath2)"/>
      <path d="M942.1958 629.3334 L954.2826 623.5102 L944.7892 616.1701 Z" clip-path="url(#clipPath2)" stroke="none"/>
      <path fill="none" d="M898.3095 581.1115 L889.6345 587.3002" clip-path="url(#clipPath2)"/>
      <path d="M880.6797 593.6886 L893.9332 591.6039 L886.9641 581.835 Z" clip-path="url(#clipPath2)" stroke="none"/>
      <path fill="none" d="M859.2934 614.2666 L854.3723 620.6312" clip-path="url(#clipPath2)"/>
      <path d="M847.6438 629.3334 L859.7306 623.5102 L850.2372 616.1701 Z" clip-path="url(#clipPath2)" stroke="none"/>
      <path fill="none" d="M877.6438 614.2666 L882.5649 620.6312" clip-path="url(#clipPath2)"/>
      <path d="M889.2934 629.3334 L886.7 616.1701 L877.2066 623.5102 Z" clip-path="url(#clipPath2)" stroke="none"/>
      <path fill="none" d="M888.0206 527.33 L910.5206 527.1015 L910.5206 546.4" clip-path="url(#clipPath2)"/>
      <path d="M910.5206 557.4 L916.5206 545.4 L904.5206 545.4 Z" clip-path="url(#clipPath2)" stroke="none"/>
      <path fill="none" d="M980.9866 527.6 L997.2186 527.6" stroke-width="3" clip-path="url(#clipPath2)"/>
      <path d="M1010.9686 527.6 L995.9686 520.1 L995.9686 535.1 Z" stroke-width="3" clip-path="url(#clipPath2)" stroke="none"/>
      <path fill="none" d="M980.9974 582.6 L997.1893 582.6" stroke-width="3" clip-path="url(#clipPath2)"/>
      <path d="M1010.9393 582.6 L995.9393 575.1 L995.9393 590.1 Z" stroke-width="3" clip-path="url(#clipPath2)" stroke="none"/>
      <path fill="none" d="M981.0173 637.6 L997.2186 637.6" stroke-width="3" clip-path="url(#clipPath2)"/>
      <path d="M1010.9686 637.6 L995.9686 630.1 L995.9686 645.1 Z" stroke-width="3" clip-path="url(#clipPath2)" stroke="none"/>
      <path fill="none" d="M1135.9686 527.6 L1152.2186 527.6" stroke-width="3" clip-path="url(#clipPath2)"/>
      <path d="M1165.9686 527.6 L1150.9686 520.1 L1150.9686 535.1 Z" stroke-width="3" clip-path="url(#clipPath2)" stroke="none"/>
      <path fill="none" d="M1135.9686 582.6 L1152.2186 582.6" stroke-width="3" clip-path="url(#clipPath2)"/>
      <path d="M1165.9686 582.6 L1150.9686 575.1 L1150.9686 590.1 Z" stroke-width="3" clip-path="url(#clipPath2)" stroke="none"/>
      <path fill="none" d="M1135.9686 637.6 L1152.2186 637.6" stroke-width="3" clip-path="url(#clipPath2)"/>
      <path d="M1165.9686 637.6 L1150.9686 630.1 L1150.9686 645.1 Z" stroke-width="3" clip-path="url(#clipPath2)" stroke="none"/>
    </g>
  </g>
</svg>
