<?xml version="1.0" encoding="UTF-8"?><svg xmlns="http://www.w3.org/2000/svg" xmlns:xlink="http://www.w3.org/1999/xlink" fill-opacity="1" color-rendering="auto" color-interpolation="auto" text-rendering="auto" stroke="black" stroke-linecap="square" width="325" stroke-miterlimit="10" shape-rendering="auto" stroke-opacity="1" fill="black" stroke-dasharray="none" font-weight="normal" stroke-width="1" height="281" font-family="'Dialog'" font-style="normal" stroke-linejoin="miter" font-size="12px" stroke-dashoffset="0" image-rendering="auto">
  <!--Generated by ySVG 2.5-->
  <defs id="genericDefs"/>
  <g>
    <defs id="defs1">
      <clipPath clipPathUnits="userSpaceOnUse" id="clipPath1">
        <path d="M0 0 L325 0 L325 281 L0 281 L0 0 Z"/>
      </clipPath>
      <clipPath clipPathUnits="userSpaceOnUse" id="clipPath2">
        <path d="M702 452 L1027 452 L1027 733 L702 733 L702 452 Z"/>
      </clipPath>
    </defs>
    <g fill="rgb(255,204,0)" text-rendering="geometricPrecision" shape-rendering="geometricPrecision" transform="matrix(1,0,0,1,-702,-452)" stroke="rgb(255,204,0)">
      <circle r="15" clip-path="url(#clipPath2)" cx="860.38" cy="522" stroke="none"/>
    </g>
    <g text-rendering="geometricPrecision" stroke-miterlimit="1.45" shape-rendering="geometricPrecision" transform="matrix(1,0,0,1,-702,-452)" stroke-linecap="butt">
      <circle fill="none" r="15" clip-path="url(#clipPath2)" cx="860.38" cy="522"/>
      <text x="853.7062" xml:space="preserve" y="526.7139" clip-path="url(#clipPath2)" font-family="sans-serif" stroke="none">31</text>
    </g>
    <g fill="rgb(255,204,0)" text-rendering="geometricPrecision" shape-rendering="geometricPrecision" transform="matrix(1,0,0,1,-702,-452)" stroke="rgb(255,204,0)">
      <circle r="15" clip-path="url(#clipPath2)" cx="942.88" cy="582" stroke="none"/>
    </g>
    <g text-rendering="geometricPrecision" stroke-miterlimit="1.45" shape-rendering="geometricPrecision" transform="matrix(1,0,0,1,-702,-452)" stroke-linecap="butt">
      <circle fill="none" r="15" clip-path="url(#clipPath2)" cx="942.88" cy="582"/>
      <text x="936.2062" xml:space="preserve" y="586.7139" clip-path="url(#clipPath2)" font-family="sans-serif" stroke="none">40</text>
    </g>
    <g fill="rgb(255,204,0)" text-rendering="geometricPrecision" shape-rendering="geometricPrecision" transform="matrix(1,0,0,1,-702,-452)" stroke="rgb(255,204,0)">
      <circle r="15" clip-path="url(#clipPath2)" cx="912.88" cy="642" stroke="none"/>
    </g>
    <g text-rendering="geometricPrecision" stroke-miterlimit="1.45" shape-rendering="geometricPrecision" transform="matrix(1,0,0,1,-702,-452)" stroke-linecap="butt">
      <circle fill="none" r="15" clip-path="url(#clipPath2)" cx="912.88" cy="642"/>
      <text x="906.2062" xml:space="preserve" y="646.7139" clip-path="url(#clipPath2)" font-family="sans-serif" stroke="none">39</text>
    </g>
    <g fill="rgb(255,204,0)" text-rendering="geometricPrecision" shape-rendering="geometricPrecision" transform="matrix(1,0,0,1,-702,-452)" stroke="rgb(255,204,0)">
      <circle r="15" clip-path="url(#clipPath2)" cx="777.88" cy="582" stroke="none"/>
    </g>
    <g text-rendering="geometricPrecision" stroke-miterlimit="1.45" shape-rendering="geometricPrecision" transform="matrix(1,0,0,1,-702,-452)" stroke-linecap="butt">
      <circle fill="none" r="15" clip-path="url(#clipPath2)" cx="777.88" cy="582"/>
      <text x="771.2062" xml:space="preserve" y="586.7139" clip-path="url(#clipPath2)" font-family="sans-serif" stroke="none">16</text>
    </g>
    <g fill="rgb(255,204,0)" text-rendering="geometricPrecision" shape-rendering="geometricPrecision" transform="matrix(1,0,0,1,-702,-452)" stroke="rgb(255,204,0)">
      <circle r="15" clip-path="url(#clipPath2)" cx="732.88" cy="642" stroke="none"/>
    </g>
    <g text-rendering="geometricPrecision" stroke-miterlimit="1.45" shape-rendering="geometricPrecision" transform="matrix(1,0,0,1,-702,-452)" stroke-linecap="butt">
      <circle fill="none" r="15" clip-path="url(#clipPath2)" cx="732.88" cy="642"/>
      <text x="729.5431" xml:space="preserve" y="646.7139" clip-path="url(#clipPath2)" font-family="sans-serif" stroke="none">5</text>
    </g>
    <g fill="rgb(255,204,0)" text-rendering="geometricPrecision" shape-rendering="geometricPrecision" transform="matrix(1,0,0,1,-702,-452)" stroke="rgb(255,204,0)">
      <circle r="15" clip-path="url(#clipPath2)" cx="822.88" cy="642" stroke="none"/>
    </g>
    <g text-rendering="geometricPrecision" stroke-miterlimit="1.45" shape-rendering="geometricPrecision" transform="matrix(1,0,0,1,-702,-452)" stroke-linecap="butt">
      <circle fill="none" r="15" clip-path="url(#clipPath2)" cx="822.88" cy="642"/>
      <text x="816.2062" xml:space="preserve" y="646.7139" clip-path="url(#clipPath2)" font-family="sans-serif" stroke="none">25</text>
    </g>
    <g fill="rgb(255,204,0)" text-rendering="geometricPrecision" shape-rendering="geometricPrecision" transform="matrix(1,0,0,1,-702,-452)" stroke="rgb(255,204,0)">
      <circle r="15" clip-path="url(#clipPath2)" cx="792.88" cy="702" stroke="none"/>
    </g>
    <g text-rendering="geometricPrecision" stroke-miterlimit="1.45" shape-rendering="geometricPrecision" transform="matrix(1,0,0,1,-702,-452)" stroke-linecap="butt">
      <circle fill="none" r="15" clip-path="url(#clipPath2)" cx="792.88" cy="702"/>
      <text x="786.2062" xml:space="preserve" y="706.7139" clip-path="url(#clipPath2)" font-family="sans-serif" stroke="none">19</text>
    </g>
    <g fill="rgb(255,204,0)" text-rendering="geometricPrecision" shape-rendering="geometricPrecision" transform="matrix(1,0,0,1,-702,-452)" stroke="rgb(255,204,0)">
      <circle r="15" clip-path="url(#clipPath2)" cx="852.88" cy="702" stroke="none"/>
    </g>
    <g text-rendering="geometricPrecision" stroke-miterlimit="1.45" shape-rendering="geometricPrecision" transform="matrix(1,0,0,1,-702,-452)" stroke-linecap="butt">
      <circle fill="none" r="15" clip-path="url(#clipPath2)" cx="852.88" cy="702"/>
      <text x="846.2062" xml:space="preserve" y="706.7139" clip-path="url(#clipPath2)" font-family="sans-serif" stroke="none">26</text>
    </g>
    <g transform="matrix(1,0,0,1,-702,-452)" fill-opacity="0.498" fill="rgb(255,0,0)" text-rendering="geometricPrecision" shape-rendering="geometricPrecision" stroke="rgb(255,0,0)" stroke-opacity="0.498">
      <rect x="801.48" width="36.4" height="20" y="467.2" clip-path="url(#clipPath2)" stroke="none"/>
    </g>
    <g text-rendering="geometricPrecision" stroke-miterlimit="1.45" shape-rendering="geometricPrecision" transform="matrix(1,0,0,1,-702,-452)" stroke-linecap="butt">
      <rect fill="none" x="801.48" width="36.4" height="20" y="467.2" clip-path="url(#clipPath2)"/>
      <text x="804.3372" xml:space="preserve" y="481.9139" clip-path="url(#clipPath2)" font-family="sans-serif" stroke="none">ABB1</text>
    </g>
    <g fill="rgb(255,255,153)" text-rendering="geometricPrecision" shape-rendering="geometricPrecision" transform="matrix(1,0,0,1,-702,-452)" stroke="rgb(255,255,153)">
      <circle r="15" clip-path="url(#clipPath2)" cx="980.876" cy="582" stroke="none"/>
    </g>
    <g text-rendering="geometricPrecision" stroke-miterlimit="1.45" stroke-dasharray="6,2" shape-rendering="geometricPrecision" transform="matrix(1,0,0,1,-702,-452)" stroke-linecap="butt">
      <circle fill="none" r="15" clip-path="url(#clipPath2)" cx="980.876" cy="582"/>
      <text x="974.2021" y="586.7139" clip-path="url(#clipPath2)" font-family="sans-serif" stroke-dasharray="none" stroke="none" xml:space="preserve">99</text>
      <text x="1000.8831" y="586.7139" clip-path="url(#clipPath2)" font-family="sans-serif" stroke-dasharray="none" stroke="none" xml:space="preserve">?</text>
      <path fill="none" stroke-dasharray="none" d="M872.511 530.8226 L921.8528 566.7075" clip-path="url(#clipPath2)" stroke="rgb(51,153,102)"/>
      <path fill="rgb(51,153,102)" stroke-dasharray="none" d="M930.749 573.1774 L924.5732 561.267 L917.5151 570.9718 Z" clip-path="url(#clipPath2)" stroke="none"/>
      <path fill="none" stroke-dasharray="none" d="M936.1718 595.4164 L924.5076 618.7449" clip-path="url(#clipPath2)"/>
      <path stroke-dasharray="none" d="M919.5882 628.5836 L930.3214 620.5337 L919.5882 615.1672 Z" clip-path="url(#clipPath2)" stroke="none"/>
      <path fill="none" stroke-dasharray="none" d="M848.249 530.8226 L798.9072 566.7075" clip-path="url(#clipPath2)"/>
      <path stroke-dasharray="none" d="M790.011 573.1774 L803.2449 570.9718 L796.1868 561.267 Z" clip-path="url(#clipPath2)" stroke="none"/>
      <path fill="none" stroke-dasharray="none" d="M768.88 594 L748.48 621.2" clip-path="url(#clipPath2)"/>
      <path stroke-dasharray="none" d="M741.88 630 L753.88 624 L744.28 616.8 Z" clip-path="url(#clipPath2)" stroke="none"/>
      <path fill="none" stroke-dasharray="none" d="M786.88 594 L807.28 621.2" clip-path="url(#clipPath2)"/>
      <path stroke-dasharray="none" d="M813.88 630 L811.48 616.8 L801.88 624 Z" clip-path="url(#clipPath2)" stroke="none"/>
      <path fill="none" stroke-dasharray="none" d="M816.1718 655.4164 L804.5076 678.7449" clip-path="url(#clipPath2)"/>
      <path stroke-dasharray="none" d="M799.5882 688.5836 L810.3214 680.5337 L799.5882 675.1672 Z" clip-path="url(#clipPath2)" stroke="none"/>
      <path fill="none" stroke-dasharray="none" d="M829.5882 655.4164 L841.2524 678.7449" clip-path="url(#clipPath2)"/>
      <path stroke-dasharray="none" d="M846.1718 688.5836 L846.1718 675.1672 L835.4387 680.5337 Z" clip-path="url(#clipPath2)" stroke="none"/>
      <path fill="none" stroke-dasharray="none" d="M837.88 476.9771 L860.38 476.7015 L860.38 496" clip-path="url(#clipPath2)"/>
      <path stroke-dasharray="none" d="M860.38 507 L866.38 495 L854.38 495 Z" clip-path="url(#clipPath2)" stroke="none"/>
    </g>
  </g>
</svg>
