<?xml version="1.0" encoding="UTF-8"?><svg xmlns="http://www.w3.org/2000/svg" xmlns:xlink="http://www.w3.org/1999/xlink" fill-opacity="1" color-rendering="auto" color-interpolation="auto" text-rendering="auto" stroke="black" stroke-linecap="square" width="331" stroke-miterlimit="10" shape-rendering="auto" stroke-opacity="1" fill="black" stroke-dasharray="none" font-weight="normal" stroke-width="1" height="281" font-family="'Dialog'" font-style="normal" stroke-linejoin="miter" font-size="12px" stroke-dashoffset="0" image-rendering="auto">
  <!--Generated by ySVG 2.5-->
  <defs id="genericDefs"/>
  <g>
    <defs id="defs1">
      <clipPath clipPathUnits="userSpaceOnUse" id="clipPath1">
        <path d="M0 0 L331 0 L331 281 L0 281 L0 0 Z"/>
      </clipPath>
      <clipPath clipPathUnits="userSpaceOnUse" id="clipPath2">
        <path d="M728 477 L1059 477 L1059 758 L728 758 L728 477 Z"/>
      </clipPath>
    </defs>
    <g fill="rgb(255,204,0)" text-rendering="geometricPrecision" shape-rendering="geometricPrecision" transform="matrix(1,0,0,1,-728,-477)" stroke="rgb(255,204,0)">
      <circle r="15" clip-path="url(#clipPath2)" cx="886.26" cy="547.2" stroke="none"/>
    </g>
    <g text-rendering="geometricPrecision" stroke-miterlimit="1.45" shape-rendering="geometricPrecision" transform="matrix(1,0,0,1,-728,-477)" stroke-linecap="butt">
      <circle fill="none" r="15" clip-path="url(#clipPath2)" cx="886.26" cy="547.2"/>
      <text x="879.5862" xml:space="preserve" y="551.9139" clip-path="url(#clipPath2)" font-family="sans-serif" stroke="none">31</text>
    </g>
    <g fill="rgb(255,204,0)" text-rendering="geometricPrecision" shape-rendering="geometricPrecision" transform="matrix(1,0,0,1,-728,-477)" stroke="rgb(255,204,0)">
      <circle r="15" clip-path="url(#clipPath2)" cx="968.76" cy="607.2" stroke="none"/>
    </g>
    <g text-rendering="geometricPrecision" stroke-miterlimit="1.45" shape-rendering="geometricPrecision" transform="matrix(1,0,0,1,-728,-477)" stroke-linecap="butt">
      <circle fill="none" r="15" clip-path="url(#clipPath2)" cx="968.76" cy="607.2"/>
      <text x="962.0862" xml:space="preserve" y="611.9139" clip-path="url(#clipPath2)" font-family="sans-serif" stroke="none">40</text>
    </g>
    <g fill="rgb(255,204,0)" text-rendering="geometricPrecision" shape-rendering="geometricPrecision" transform="matrix(1,0,0,1,-728,-477)" stroke="rgb(255,204,0)">
      <circle r="15" clip-path="url(#clipPath2)" cx="938.76" cy="667.2" stroke="none"/>
    </g>
    <g text-rendering="geometricPrecision" stroke-miterlimit="1.45" shape-rendering="geometricPrecision" transform="matrix(1,0,0,1,-728,-477)" stroke-linecap="butt">
      <circle fill="none" r="15" clip-path="url(#clipPath2)" cx="938.76" cy="667.2"/>
      <text x="932.0862" xml:space="preserve" y="671.9139" clip-path="url(#clipPath2)" font-family="sans-serif" stroke="none">39</text>
    </g>
    <g fill="rgb(255,204,0)" text-rendering="geometricPrecision" shape-rendering="geometricPrecision" transform="matrix(1,0,0,1,-728,-477)" stroke="rgb(255,204,0)">
      <circle r="15" clip-path="url(#clipPath2)" cx="803.76" cy="607.2" stroke="none"/>
    </g>
    <g text-rendering="geometricPrecision" stroke-miterlimit="1.45" shape-rendering="geometricPrecision" transform="matrix(1,0,0,1,-728,-477)" stroke-linecap="butt">
      <circle fill="none" r="15" clip-path="url(#clipPath2)" cx="803.76" cy="607.2"/>
      <text x="797.0862" xml:space="preserve" y="611.9139" clip-path="url(#clipPath2)" font-family="sans-serif" stroke="none">16</text>
    </g>
    <g fill="rgb(255,204,0)" text-rendering="geometricPrecision" shape-rendering="geometricPrecision" transform="matrix(1,0,0,1,-728,-477)" stroke="rgb(255,204,0)">
      <circle r="15" clip-path="url(#clipPath2)" cx="758.76" cy="667.2" stroke="none"/>
    </g>
    <g text-rendering="geometricPrecision" stroke-miterlimit="1.45" shape-rendering="geometricPrecision" transform="matrix(1,0,0,1,-728,-477)" stroke-linecap="butt">
      <circle fill="none" r="15" clip-path="url(#clipPath2)" cx="758.76" cy="667.2"/>
      <text x="755.4231" xml:space="preserve" y="671.9139" clip-path="url(#clipPath2)" font-family="sans-serif" stroke="none">5</text>
    </g>
    <g fill="rgb(255,204,0)" text-rendering="geometricPrecision" shape-rendering="geometricPrecision" transform="matrix(1,0,0,1,-728,-477)" stroke="rgb(255,204,0)">
      <circle r="15" clip-path="url(#clipPath2)" cx="848.76" cy="667.2" stroke="none"/>
    </g>
    <g text-rendering="geometricPrecision" stroke-miterlimit="1.45" shape-rendering="geometricPrecision" transform="matrix(1,0,0,1,-728,-477)" stroke-linecap="butt">
      <circle fill="none" r="15" clip-path="url(#clipPath2)" cx="848.76" cy="667.2"/>
      <text x="842.0862" xml:space="preserve" y="671.9139" clip-path="url(#clipPath2)" font-family="sans-serif" stroke="none">25</text>
    </g>
    <g fill="rgb(255,204,0)" text-rendering="geometricPrecision" shape-rendering="geometricPrecision" transform="matrix(1,0,0,1,-728,-477)" stroke="rgb(255,204,0)">
      <circle r="15" clip-path="url(#clipPath2)" cx="818.76" cy="727.2" stroke="none"/>
    </g>
    <g text-rendering="geometricPrecision" stroke-miterlimit="1.45" shape-rendering="geometricPrecision" transform="matrix(1,0,0,1,-728,-477)" stroke-linecap="butt">
      <circle fill="none" r="15" clip-path="url(#clipPath2)" cx="818.76" cy="727.2"/>
      <text x="812.0862" xml:space="preserve" y="731.9139" clip-path="url(#clipPath2)" font-family="sans-serif" stroke="none">19</text>
    </g>
    <g fill="rgb(255,204,0)" text-rendering="geometricPrecision" shape-rendering="geometricPrecision" transform="matrix(1,0,0,1,-728,-477)" stroke="rgb(255,204,0)">
      <circle r="15" clip-path="url(#clipPath2)" cx="878.76" cy="727.2" stroke="none"/>
    </g>
    <g text-rendering="geometricPrecision" stroke-miterlimit="1.45" shape-rendering="geometricPrecision" transform="matrix(1,0,0,1,-728,-477)" stroke-linecap="butt">
      <circle fill="none" r="15" clip-path="url(#clipPath2)" cx="878.76" cy="727.2"/>
      <text x="872.0862" xml:space="preserve" y="731.9139" clip-path="url(#clipPath2)" font-family="sans-serif" stroke="none">26</text>
    </g>
    <g transform="matrix(1,0,0,1,-728,-477)" fill-opacity="0.498" fill="rgb(255,0,0)" text-rendering="geometricPrecision" shape-rendering="geometricPrecision" stroke="rgb(255,0,0)" stroke-opacity="0.498">
      <rect x="827.36" width="36.4" height="20" y="492.4" clip-path="url(#clipPath2)" stroke="none"/>
    </g>
    <g text-rendering="geometricPrecision" stroke-miterlimit="1.45" shape-rendering="geometricPrecision" transform="matrix(1,0,0,1,-728,-477)" stroke-linecap="butt">
      <rect fill="none" x="827.36" width="36.4" height="20" y="492.4" clip-path="url(#clipPath2)"/>
      <text x="830.2172" xml:space="preserve" y="507.1139" clip-path="url(#clipPath2)" font-family="sans-serif" stroke="none">ABB1</text>
    </g>
    <g fill="rgb(204,255,204)" text-rendering="geometricPrecision" shape-rendering="geometricPrecision" transform="matrix(1,0,0,1,-728,-477)" stroke="rgb(204,255,204)">
      <circle r="15" clip-path="url(#clipPath2)" cx="1028.76" cy="667.2" stroke="none"/>
    </g>
    <g text-rendering="geometricPrecision" stroke-miterlimit="1.45" stroke-dasharray="6,2" shape-rendering="geometricPrecision" transform="matrix(1,0,0,1,-728,-477)" stroke-linecap="butt">
      <circle fill="none" r="15" clip-path="url(#clipPath2)" cx="1028.76" cy="667.2"/>
      <text x="1022.0862" y="671.9139" clip-path="url(#clipPath2)" font-family="sans-serif" stroke-dasharray="none" stroke="none" xml:space="preserve">99</text>
      <circle fill="none" r="7.5" clip-path="url(#clipPath2)" cx="999.696" cy="667.2"/>
      <text x="994.695" y="671.9139" clip-path="url(#clipPath2)" font-family="sans-serif" stroke-dasharray="none" stroke="none" xml:space="preserve">///</text>
      <path fill="none" stroke-dasharray="none" d="M898.3911 556.0226 L947.7328 591.9075" clip-path="url(#clipPath2)" stroke="rgb(51,153,102)"/>
      <path fill="rgb(51,153,102)" stroke-dasharray="none" d="M956.629 598.3774 L950.4532 586.467 L943.3951 596.1718 Z" clip-path="url(#clipPath2)" stroke="none"/>
      <path fill="none" stroke-dasharray="none" d="M962.0518 620.6164 L950.3876 643.9449" clip-path="url(#clipPath2)"/>
      <path stroke-dasharray="none" d="M945.4682 653.7836 L956.2014 645.7338 L945.4683 640.3672 Z" clip-path="url(#clipPath2)" stroke="none"/>
      <path fill="none" stroke-dasharray="none" d="M874.129 556.0226 L824.7871 591.9075" clip-path="url(#clipPath2)"/>
      <path stroke-dasharray="none" d="M815.8911 598.3774 L829.1249 596.1718 L822.0668 586.4669 Z" clip-path="url(#clipPath2)" stroke="none"/>
      <path fill="none" stroke-dasharray="none" d="M794.76 619.2 L774.36 646.4" clip-path="url(#clipPath2)"/>
      <path stroke-dasharray="none" d="M767.76 655.2 L779.76 649.2 L770.16 642 Z" clip-path="url(#clipPath2)" stroke="none"/>
      <path fill="none" stroke-dasharray="none" d="M812.76 619.2 L833.16 646.4" clip-path="url(#clipPath2)"/>
      <path stroke-dasharray="none" d="M839.76 655.2 L837.36 642 L827.76 649.2001 Z" clip-path="url(#clipPath2)" stroke="none"/>
      <path fill="none" stroke-dasharray="none" d="M842.0518 680.6164 L830.3876 703.9449" clip-path="url(#clipPath2)"/>
      <path stroke-dasharray="none" d="M825.4682 713.7836 L836.2014 705.7338 L825.4683 700.3672 Z" clip-path="url(#clipPath2)" stroke="none"/>
      <path fill="none" stroke-dasharray="none" d="M855.4682 680.6164 L867.1324 703.9449" clip-path="url(#clipPath2)"/>
      <path stroke-dasharray="none" d="M872.0518 713.7836 L872.0518 700.3672 L861.3187 705.7338 Z" clip-path="url(#clipPath2)" stroke="none"/>
      <path fill="none" stroke-dasharray="none" d="M863.76 502.1771 L886.26 501.9015 L886.26 521.2" clip-path="url(#clipPath2)"/>
      <path stroke-dasharray="none" d="M886.26 532.2 L892.26 520.2 L880.26 520.2 Z" clip-path="url(#clipPath2)" stroke="none"/>
      <path fill="none" d="M975.6341 620.5322 L989.3849 647.2017" clip-path="url(#clipPath2)" stroke="rgb(51,153,102)"/>
      <path fill="white" d="M996.259 660.5339 L994.2595 643.5633 L983.5938 649.0626 Z" clip-path="url(#clipPath2)" stroke="none"/>
      <path fill="none" stroke-dasharray="none" d="M996.259 660.5339 L994.2595 643.5633 L983.5938 649.0626 Z" clip-path="url(#clipPath2)" stroke="rgb(51,153,102)"/>
    </g>
  </g>
</svg>
