<?xml version="1.0" encoding="UTF-8"?><svg xmlns="http://www.w3.org/2000/svg" xmlns:xlink="http://www.w3.org/1999/xlink" fill-opacity="1" color-rendering="auto" color-interpolation="auto" text-rendering="auto" stroke="black" stroke-linecap="square" width="316" stroke-miterlimit="10" shape-rendering="auto" stroke-opacity="1" fill="black" stroke-dasharray="none" font-weight="normal" stroke-width="1" height="221" font-family="'Dialog'" font-style="normal" stroke-linejoin="miter" font-size="12px" stroke-dashoffset="0" image-rendering="auto">
  <!--Generated by ySVG 2.5-->
  <defs id="genericDefs"/>
  <g>
    <defs id="defs1">
      <clipPath clipPathUnits="userSpaceOnUse" id="clipPath1">
        <path d="M0 0 L316 0 L316 221 L0 221 L0 0 Z"/>
      </clipPath>
      <clipPath clipPathUnits="userSpaceOnUse" id="clipPath2">
        <path d="M780 528 L1096 528 L1096 749 L780 749 L780 528 Z"/>
      </clipPath>
    </defs>
    <g fill="rgb(255,204,0)" text-rendering="geometricPrecision" shape-rendering="geometricPrecision" transform="matrix(1,0,0,1,-780,-528)" stroke="rgb(255,204,0)">
      <circle r="15" clip-path="url(#clipPath2)" cx="937.54" cy="598.4" stroke="none"/>
    </g>
    <g text-rendering="geometricPrecision" stroke-miterlimit="1.45" shape-rendering="geometricPrecision" transform="matrix(1,0,0,1,-780,-528)" stroke-linecap="butt">
      <circle fill="none" r="15" clip-path="url(#clipPath2)" cx="937.54" cy="598.4"/>
      <text x="930.8661" xml:space="preserve" y="603.1139" clip-path="url(#clipPath2)" font-family="sans-serif" stroke="none">31</text>
    </g>
    <g fill="rgb(255,204,0)" text-rendering="geometricPrecision" shape-rendering="geometricPrecision" transform="matrix(1,0,0,1,-780,-528)" stroke="rgb(255,204,0)">
      <circle r="15" clip-path="url(#clipPath2)" cx="1020.04" cy="658.4" stroke="none"/>
    </g>
    <g text-rendering="geometricPrecision" stroke-miterlimit="1.45" shape-rendering="geometricPrecision" transform="matrix(1,0,0,1,-780,-528)" stroke-linecap="butt">
      <circle fill="none" r="15" clip-path="url(#clipPath2)" cx="1020.04" cy="658.4"/>
      <text x="1013.3661" xml:space="preserve" y="663.1139" clip-path="url(#clipPath2)" font-family="sans-serif" stroke="none">40</text>
    </g>
    <g fill="rgb(255,204,0)" text-rendering="geometricPrecision" shape-rendering="geometricPrecision" transform="matrix(1,0,0,1,-780,-528)" stroke="rgb(255,204,0)">
      <circle r="15" clip-path="url(#clipPath2)" cx="975.04" cy="718.4" stroke="none"/>
    </g>
    <g text-rendering="geometricPrecision" stroke-miterlimit="1.45" shape-rendering="geometricPrecision" transform="matrix(1,0,0,1,-780,-528)" stroke-linecap="butt">
      <circle fill="none" r="15" clip-path="url(#clipPath2)" cx="975.04" cy="718.4"/>
      <text x="968.3661" xml:space="preserve" y="723.1139" clip-path="url(#clipPath2)" font-family="sans-serif" stroke="none">39</text>
    </g>
    <g fill="rgb(255,204,0)" text-rendering="geometricPrecision" shape-rendering="geometricPrecision" transform="matrix(1,0,0,1,-780,-528)" stroke="rgb(255,204,0)">
      <circle r="15" clip-path="url(#clipPath2)" cx="855.04" cy="658.4" stroke="none"/>
    </g>
    <g text-rendering="geometricPrecision" stroke-miterlimit="1.45" shape-rendering="geometricPrecision" transform="matrix(1,0,0,1,-780,-528)" stroke-linecap="butt">
      <circle fill="none" r="15" clip-path="url(#clipPath2)" cx="855.04" cy="658.4"/>
      <text x="848.3661" xml:space="preserve" y="663.1139" clip-path="url(#clipPath2)" font-family="sans-serif" stroke="none">16</text>
    </g>
    <g fill="rgb(255,204,0)" text-rendering="geometricPrecision" shape-rendering="geometricPrecision" transform="matrix(1,0,0,1,-780,-528)" stroke="rgb(255,204,0)">
      <circle r="15" clip-path="url(#clipPath2)" cx="810.04" cy="718.4" stroke="none"/>
    </g>
    <g text-rendering="geometricPrecision" stroke-miterlimit="1.45" shape-rendering="geometricPrecision" transform="matrix(1,0,0,1,-780,-528)" stroke-linecap="butt">
      <circle fill="none" r="15" clip-path="url(#clipPath2)" cx="810.04" cy="718.4"/>
      <text x="806.7031" xml:space="preserve" y="723.1139" clip-path="url(#clipPath2)" font-family="sans-serif" stroke="none">5</text>
    </g>
    <g fill="rgb(255,204,0)" text-rendering="geometricPrecision" shape-rendering="geometricPrecision" transform="matrix(1,0,0,1,-780,-528)" stroke="rgb(255,204,0)">
      <circle r="15" clip-path="url(#clipPath2)" cx="900.04" cy="718.4" stroke="none"/>
    </g>
    <g text-rendering="geometricPrecision" stroke-miterlimit="1.45" shape-rendering="geometricPrecision" transform="matrix(1,0,0,1,-780,-528)" stroke-linecap="butt">
      <circle fill="none" r="15" clip-path="url(#clipPath2)" cx="900.04" cy="718.4"/>
      <text x="893.3661" xml:space="preserve" y="723.1139" clip-path="url(#clipPath2)" font-family="sans-serif" stroke="none">25</text>
    </g>
    <g fill="rgb(255,204,0)" text-rendering="geometricPrecision" shape-rendering="geometricPrecision" transform="matrix(1,0,0,1,-780,-528)" stroke="rgb(255,204,0)">
      <circle r="15" clip-path="url(#clipPath2)" cx="1065.04" cy="718.4" stroke="none"/>
    </g>
    <g text-rendering="geometricPrecision" stroke-miterlimit="1.45" shape-rendering="geometricPrecision" transform="matrix(1,0,0,1,-780,-528)" stroke-linecap="butt">
      <circle fill="none" r="15" clip-path="url(#clipPath2)" cx="1065.04" cy="718.4"/>
      <text x="1058.3662" xml:space="preserve" y="723.1139" clip-path="url(#clipPath2)" font-family="sans-serif" stroke="none">42</text>
    </g>
    <g transform="matrix(1,0,0,1,-780,-528)" fill-opacity="0.498" fill="rgb(255,0,0)" text-rendering="geometricPrecision" shape-rendering="geometricPrecision" stroke="rgb(255,0,0)" stroke-opacity="0.498">
      <rect x="878.64" width="36.4" height="20" y="543.6" clip-path="url(#clipPath2)" stroke="none"/>
    </g>
    <g text-rendering="geometricPrecision" stroke-miterlimit="1.45" shape-rendering="geometricPrecision" transform="matrix(1,0,0,1,-780,-528)" stroke-linecap="butt">
      <rect fill="none" x="878.64" width="36.4" height="20" y="543.6" clip-path="url(#clipPath2)"/>
      <text x="881.4973" xml:space="preserve" y="558.3138" clip-path="url(#clipPath2)" font-family="sans-serif" stroke="none">ABB2</text>
      <path fill="none" d="M949.671 607.2226 L999.0129 643.1075" clip-path="url(#clipPath2)"/>
      <path d="M1007.9089 649.5775 L1001.7332 637.6669 L994.6751 647.3718 Z" clip-path="url(#clipPath2)" stroke="none"/>
      <path fill="none" d="M1011.04 670.4 L990.64 697.6" clip-path="url(#clipPath2)"/>
      <path d="M984.04 706.4 L996.04 700.4 L986.4401 693.2 Z" clip-path="url(#clipPath2)" stroke="none"/>
      <path fill="none" d="M925.4089 607.2226 L876.0671 643.1075" clip-path="url(#clipPath2)"/>
      <path d="M867.171 649.5775 L880.4049 647.3718 L873.3468 637.667 Z" clip-path="url(#clipPath2)" stroke="none"/>
      <path fill="none" d="M846.04 670.4 L825.64 697.6" clip-path="url(#clipPath2)"/>
      <path d="M819.04 706.4 L831.04 700.4 L821.4401 693.2 Z" clip-path="url(#clipPath2)" stroke="none"/>
      <path fill="none" d="M864.04 670.4 L884.44 697.6" clip-path="url(#clipPath2)"/>
      <path d="M891.04 706.4 L888.64 693.2 L879.04 700.4 Z" clip-path="url(#clipPath2)" stroke="none"/>
      <path fill="none" d="M1031.0009 668.6302 L1050.3623 696.9392" clip-path="url(#clipPath2)"/>
      <path d="M1056.5721 706.0187 L1054.7502 692.7266 L1044.8453 699.5009 Z" clip-path="url(#clipPath2)" stroke="none"/>
      <path fill="none" d="M915.04 553.3771 L937.54 553.1015 L937.54 572.4" clip-path="url(#clipPath2)"/>
      <path d="M937.54 583.4 L943.54 571.4 L931.54 571.4 Z" clip-path="url(#clipPath2)" stroke="none"/>
    </g>
  </g>
</svg>
