<?xml version="1.0" encoding="UTF-8"?><svg xmlns="http://www.w3.org/2000/svg" xmlns:xlink="http://www.w3.org/1999/xlink" fill-opacity="1" color-rendering="auto" color-interpolation="auto" text-rendering="auto" stroke="black" stroke-linecap="square" width="294" stroke-miterlimit="10" shape-rendering="auto" stroke-opacity="1" fill="black" stroke-dasharray="none" font-weight="normal" stroke-width="1" height="327" font-family="'Dialog'" font-style="normal" stroke-linejoin="miter" font-size="12px" stroke-dashoffset="0" image-rendering="auto">
  <!--Generated by ySVG 2.5-->
  <defs id="genericDefs"/>
  <g>
    <defs id="defs1">
      <clipPath clipPathUnits="userSpaceOnUse" id="clipPath1">
        <path d="M0 0 L294 0 L294 327 L0 327 L0 0 Z"/>
      </clipPath>
      <clipPath clipPathUnits="userSpaceOnUse" id="clipPath2">
        <path d="M713 440 L1007 440 L1007 767 L713 767 L713 440 Z"/>
      </clipPath>
    </defs>
    <g fill="rgb(255,204,0)" text-rendering="geometricPrecision" shape-rendering="geometricPrecision" transform="matrix(1,0,0,1,-713,-440)" stroke="rgb(255,204,0)">
      <circle r="15" clip-path="url(#clipPath2)" cx="886.26" cy="547.6" stroke="none"/>
    </g>
    <g text-rendering="geometricPrecision" stroke-miterlimit="1.45" shape-rendering="geometricPrecision" transform="matrix(1,0,0,1,-713,-440)" stroke-linecap="butt">
      <circle fill="none" r="15" clip-path="url(#clipPath2)" cx="886.26" cy="547.6"/>
      <text x="879.5862" xml:space="preserve" y="552.3138" clip-path="url(#clipPath2)" font-family="sans-serif" stroke="none">31</text>
    </g>
    <g fill="rgb(255,204,0)" text-rendering="geometricPrecision" shape-rendering="geometricPrecision" transform="matrix(1,0,0,1,-713,-440)" stroke="rgb(255,204,0)">
      <circle r="15" clip-path="url(#clipPath2)" cx="968.76" cy="607.6" stroke="none"/>
    </g>
    <g text-rendering="geometricPrecision" stroke-miterlimit="1.45" shape-rendering="geometricPrecision" transform="matrix(1,0,0,1,-713,-440)" stroke-linecap="butt">
      <circle fill="none" r="15" clip-path="url(#clipPath2)" cx="968.76" cy="607.6"/>
      <text x="962.0862" xml:space="preserve" y="612.3138" clip-path="url(#clipPath2)" font-family="sans-serif" stroke="none">40</text>
    </g>
    <g fill="rgb(255,204,0)" text-rendering="geometricPrecision" shape-rendering="geometricPrecision" transform="matrix(1,0,0,1,-713,-440)" stroke="rgb(255,204,0)">
      <circle r="15" clip-path="url(#clipPath2)" cx="938.76" cy="667.6" stroke="none"/>
    </g>
    <g text-rendering="geometricPrecision" stroke-miterlimit="1.45" shape-rendering="geometricPrecision" transform="matrix(1,0,0,1,-713,-440)" stroke-linecap="butt">
      <circle fill="none" r="15" clip-path="url(#clipPath2)" cx="938.76" cy="667.6"/>
      <text x="932.0862" xml:space="preserve" y="672.3138" clip-path="url(#clipPath2)" font-family="sans-serif" stroke="none">39</text>
    </g>
    <g fill="rgb(255,204,0)" text-rendering="geometricPrecision" shape-rendering="geometricPrecision" transform="matrix(1,0,0,1,-713,-440)" stroke="rgb(255,204,0)">
      <circle r="15" clip-path="url(#clipPath2)" cx="803.76" cy="607.6" stroke="none"/>
    </g>
    <g text-rendering="geometricPrecision" stroke-miterlimit="1.45" shape-rendering="geometricPrecision" transform="matrix(1,0,0,1,-713,-440)" stroke-linecap="butt">
      <circle fill="none" r="15" clip-path="url(#clipPath2)" cx="803.76" cy="607.6"/>
      <text x="797.0862" xml:space="preserve" y="612.3138" clip-path="url(#clipPath2)" font-family="sans-serif" stroke="none">16</text>
    </g>
    <g fill="rgb(255,204,0)" text-rendering="geometricPrecision" shape-rendering="geometricPrecision" transform="matrix(1,0,0,1,-713,-440)" stroke="rgb(255,204,0)">
      <circle r="15" clip-path="url(#clipPath2)" cx="758.76" cy="667.6" stroke="none"/>
    </g>
    <g text-rendering="geometricPrecision" stroke-miterlimit="1.45" shape-rendering="geometricPrecision" transform="matrix(1,0,0,1,-713,-440)" stroke-linecap="butt">
      <circle fill="none" r="15" clip-path="url(#clipPath2)" cx="758.76" cy="667.6"/>
      <text x="755.4231" xml:space="preserve" y="672.3138" clip-path="url(#clipPath2)" font-family="sans-serif" stroke="none">5</text>
    </g>
    <g fill="rgb(255,204,0)" text-rendering="geometricPrecision" shape-rendering="geometricPrecision" transform="matrix(1,0,0,1,-713,-440)" stroke="rgb(255,204,0)">
      <circle r="15" clip-path="url(#clipPath2)" cx="848.76" cy="667.6" stroke="none"/>
    </g>
    <g text-rendering="geometricPrecision" stroke-miterlimit="1.45" shape-rendering="geometricPrecision" transform="matrix(1,0,0,1,-713,-440)" stroke-linecap="butt">
      <circle fill="none" r="15" clip-path="url(#clipPath2)" cx="848.76" cy="667.6"/>
      <text x="842.0862" xml:space="preserve" y="672.3138" clip-path="url(#clipPath2)" font-family="sans-serif" stroke="none">25</text>
    </g>
    <g fill="rgb(255,204,0)" text-rendering="geometricPrecision" shape-rendering="geometricPrecision" transform="matrix(1,0,0,1,-713,-440)" stroke="rgb(255,204,0)">
      <circle r="15" clip-path="url(#clipPath2)" cx="818.76" cy="727.6" stroke="none"/>
    </g>
    <g text-rendering="geometricPrecision" stroke-miterlimit="1.45" shape-rendering="geometricPrecision" transform="matrix(1,0,0,1,-713,-440)" stroke-linecap="butt">
      <circle fill="none" r="15" clip-path="url(#clipPath2)" cx="818.76" cy="727.6"/>
      <text x="812.0862" xml:space="preserve" y="732.3138" clip-path="url(#clipPath2)" font-family="sans-serif" stroke="none">19</text>
    </g>
    <g fill="rgb(255,204,0)" text-rendering="geometricPrecision" shape-rendering="geometricPrecision" transform="matrix(1,0,0,1,-713,-440)" stroke="rgb(255,204,0)">
      <circle r="15" clip-path="url(#clipPath2)" cx="878.76" cy="727.6" stroke="none"/>
    </g>
    <g text-rendering="geometricPrecision" stroke-miterlimit="1.45" shape-rendering="geometricPrecision" transform="matrix(1,0,0,1,-713,-440)" stroke-linecap="butt">
      <circle fill="none" r="15" clip-path="url(#clipPath2)" cx="878.76" cy="727.6"/>
      <text x="872.0862" xml:space="preserve" y="732.3138" clip-path="url(#clipPath2)" font-family="sans-serif" stroke="none">26</text>
    </g>
    <g transform="matrix(1,0,0,1,-713,-440)" fill-opacity="0.498" fill="rgb(255,0,0)" text-rendering="geometricPrecision" shape-rendering="geometricPrecision" stroke="rgb(255,0,0)" stroke-opacity="0.498">
      <rect x="868.06" width="36.4" height="20" y="455.2" clip-path="url(#clipPath2)" stroke="none"/>
    </g>
    <g text-rendering="geometricPrecision" stroke-miterlimit="1.45" shape-rendering="geometricPrecision" transform="matrix(1,0,0,1,-713,-440)" stroke-linecap="butt">
      <rect fill="none" x="868.06" width="36.4" height="20" y="455.2" clip-path="url(#clipPath2)"/>
      <text x="870.9172" xml:space="preserve" y="469.9139" clip-path="url(#clipPath2)" font-family="sans-serif" stroke="none">ABB1</text>
      <rect fill="none" x="829.78" width="38.28" height="20" y="487.6" clip-path="url(#clipPath2)"/>
      <text x="834.9131" xml:space="preserve" y="502.3139" clip-path="url(#clipPath2)" font-family="sans-serif" stroke="none">Inicio</text>
      <rect fill="none" x="904.46" width="38.28" height="20" y="487.6" clip-path="url(#clipPath2)"/>
      <text x="915.265" xml:space="preserve" y="502.3139" clip-path="url(#clipPath2)" font-family="sans-serif" stroke="none">Fin</text>
    </g>
    <g fill="rgb(204,255,204)" text-rendering="geometricPrecision" shape-rendering="geometricPrecision" transform="matrix(1,0,0,1,-713,-440)" stroke="rgb(204,255,204)">
      <circle r="7.5" clip-path="url(#clipPath2)" cx="781.26" cy="607.6" stroke="none"/>
    </g>
    <g text-rendering="geometricPrecision" stroke-miterlimit="1.45" shape-rendering="geometricPrecision" transform="matrix(1,0,0,1,-713,-440)" stroke-linecap="butt">
      <circle fill="none" r="7.5" clip-path="url(#clipPath2)" cx="781.26" cy="607.6"/>
    </g>
    <g fill="rgb(204,255,204)" text-rendering="geometricPrecision" shape-rendering="geometricPrecision" transform="matrix(1,0,0,1,-713,-440)" stroke="rgb(204,255,204)">
      <circle r="7.5" clip-path="url(#clipPath2)" cx="863.76" cy="547.6" stroke="none"/>
    </g>
    <g text-rendering="geometricPrecision" stroke-miterlimit="1.45" shape-rendering="geometricPrecision" transform="matrix(1,0,0,1,-713,-440)" stroke-linecap="butt">
      <circle fill="none" r="7.5" clip-path="url(#clipPath2)" cx="863.76" cy="547.6"/>
    </g>
    <g fill="rgb(204,255,204)" text-rendering="geometricPrecision" shape-rendering="geometricPrecision" transform="matrix(1,0,0,1,-713,-440)" stroke="rgb(204,255,204)">
      <circle r="7.5" clip-path="url(#clipPath2)" cx="736.26" cy="667.6" stroke="none"/>
    </g>
    <g text-rendering="geometricPrecision" stroke-miterlimit="1.45" shape-rendering="geometricPrecision" transform="matrix(1,0,0,1,-713,-440)" stroke-linecap="butt">
      <circle fill="none" r="7.5" clip-path="url(#clipPath2)" cx="736.26" cy="667.6"/>
    </g>
    <g fill="rgb(204,255,204)" text-rendering="geometricPrecision" shape-rendering="geometricPrecision" transform="matrix(1,0,0,1,-713,-440)" stroke="rgb(204,255,204)">
      <circle r="7.5" clip-path="url(#clipPath2)" cx="826.26" cy="667.6" stroke="none"/>
    </g>
    <g text-rendering="geometricPrecision" stroke-miterlimit="1.45" shape-rendering="geometricPrecision" transform="matrix(1,0,0,1,-713,-440)" stroke-linecap="butt">
      <circle fill="none" r="7.5" clip-path="url(#clipPath2)" cx="826.26" cy="667.6"/>
    </g>
    <g fill="rgb(204,255,204)" text-rendering="geometricPrecision" shape-rendering="geometricPrecision" transform="matrix(1,0,0,1,-713,-440)" stroke="rgb(204,255,204)">
      <circle r="7.5" clip-path="url(#clipPath2)" cx="796.26" cy="727.6" stroke="none"/>
    </g>
    <g text-rendering="geometricPrecision" stroke-miterlimit="1.45" shape-rendering="geometricPrecision" transform="matrix(1,0,0,1,-713,-440)" stroke-linecap="butt">
      <circle fill="none" r="7.5" clip-path="url(#clipPath2)" cx="796.26" cy="727.6"/>
    </g>
    <g fill="rgb(204,255,204)" text-rendering="geometricPrecision" shape-rendering="geometricPrecision" transform="matrix(1,0,0,1,-713,-440)" stroke="rgb(204,255,204)">
      <circle r="7.5" clip-path="url(#clipPath2)" cx="856.26" cy="727.6" stroke="none"/>
    </g>
    <g text-rendering="geometricPrecision" stroke-miterlimit="1.45" shape-rendering="geometricPrecision" transform="matrix(1,0,0,1,-713,-440)" stroke-linecap="butt">
      <circle fill="none" r="7.5" clip-path="url(#clipPath2)" cx="856.26" cy="727.6"/>
    </g>
    <g fill="rgb(204,255,204)" text-rendering="geometricPrecision" shape-rendering="geometricPrecision" transform="matrix(1,0,0,1,-713,-440)" stroke="rgb(204,255,204)">
      <circle r="7.5" clip-path="url(#clipPath2)" cx="916.26" cy="667.6" stroke="none"/>
    </g>
    <g text-rendering="geometricPrecision" stroke-miterlimit="1.45" shape-rendering="geometricPrecision" transform="matrix(1,0,0,1,-713,-440)" stroke-linecap="butt">
      <circle fill="none" r="7.5" clip-path="url(#clipPath2)" cx="916.26" cy="667.6"/>
    </g>
    <g fill="rgb(204,255,204)" text-rendering="geometricPrecision" shape-rendering="geometricPrecision" transform="matrix(1,0,0,1,-713,-440)" stroke="rgb(204,255,204)">
      <circle r="7.5" clip-path="url(#clipPath2)" cx="946.26" cy="607.6" stroke="none"/>
    </g>
    <g text-rendering="geometricPrecision" stroke-miterlimit="1.45" shape-rendering="geometricPrecision" transform="matrix(1,0,0,1,-713,-440)" stroke-linecap="butt">
      <circle fill="none" r="7.5" clip-path="url(#clipPath2)" cx="946.26" cy="607.6"/>
      <path fill="none" d="M898.3911 556.4225 L947.7328 592.3076" clip-path="url(#clipPath2)"/>
      <path d="M956.629 598.7774 L950.4531 586.8669 L943.3951 596.5718 Z" clip-path="url(#clipPath2)" stroke="none"/>
      <path fill="none" d="M962.0518 621.0164 L950.3876 644.3449" clip-path="url(#clipPath2)"/>
      <path d="M945.4682 654.1836 L956.2014 646.1338 L945.4683 640.7672 Z" clip-path="url(#clipPath2)" stroke="none"/>
      <path fill="none" d="M874.129 556.4225 L824.7871 592.3076" clip-path="url(#clipPath2)"/>
      <path d="M815.891 598.7775 L829.1249 596.5718 L822.0668 586.867 Z" clip-path="url(#clipPath2)" stroke="none"/>
      <path fill="none" d="M794.76 619.6 L774.36 646.8" clip-path="url(#clipPath2)"/>
      <path d="M767.76 655.6 L779.76 649.6 L770.16 642.4 Z" clip-path="url(#clipPath2)" stroke="none"/>
      <path fill="none" d="M812.76 619.6 L833.16 646.8" clip-path="url(#clipPath2)"/>
      <path d="M839.76 655.6 L837.36 642.4 L827.76 649.6 Z" clip-path="url(#clipPath2)" stroke="none"/>
      <path fill="none" d="M842.0518 681.0164 L830.3876 704.3449" clip-path="url(#clipPath2)"/>
      <path d="M825.4682 714.1836 L836.2014 706.1338 L825.4683 700.7672 Z" clip-path="url(#clipPath2)" stroke="none"/>
      <path fill="none" d="M855.4682 681.0164 L867.1324 704.3449" clip-path="url(#clipPath2)"/>
      <path d="M872.0518 714.1836 L872.0518 700.7672 L861.3187 706.1338 Z" clip-path="url(#clipPath2)" stroke="none"/>
      <path fill="none" d="M886.26 475.2 L886.26 502.3015 L886.26 521.6" clip-path="url(#clipPath2)"/>
      <path d="M886.26 532.6 L892.26 520.6 L880.26 520.6 Z" clip-path="url(#clipPath2)" stroke="none"/>
    </g>
    <g stroke-linecap="butt" transform="matrix(1,0,0,1,-713,-440)" fill-opacity="0.498" fill="rgb(255,0,0)" text-rendering="geometricPrecision" shape-rendering="geometricPrecision" stroke-dasharray="6,2" stroke="rgb(255,0,0)" stroke-opacity="0.498" stroke-miterlimit="1.45">
      <path fill="none" d="M848.5635 507.586 L851.1359 510.2612 L854.1926 513.5254 L857.0911 516.7957 L859.7523 520.075 L862.0969 523.3665 L864.0458 526.6731 L865.52 529.9978 L866.4403 533.3438 L866.7276 536.7139 L866.3027 540.1113 L865.0865 543.539 L863 547 L859.9996 550.4931 L856.1849 554.0005 L851.6911 557.5 L846.6535 560.9696 L841.2072 564.3873 L835.4875 567.7308 L829.6296 570.9781 L823.7687 574.1074 L818.0401 577.0962 L812.5789 579.9226 L807.5205 582.5646 L803 585 L799.1185 587.2172 L795.8408 589.2458 L793.0975 591.1262 L790.819 592.8983 L788.9361 594.6025 L787.3793 596.2787 L786.0792 597.9673 L784.9664 599.7084 L783.9714 601.542 L783.025 603.5084 L782.0577 605.6476 L781 608 L779.7953 610.592 L778.4379 613.3959 L776.9347 616.3704 L775.2927 619.4741 L773.519 622.6658 L771.6205 625.9042 L769.6041 629.1478 L767.477 632.3555 L765.246 635.4858 L762.9182 638.4976 L760.5005 641.3494 L758 644 L755.4305 646.4207 L752.8336 648.6337 L750.2575 650.6737 L747.7508 652.5756 L745.3618 654.3744 L743.1389 656.1047 L741.1305 657.8013 L739.385 659.4993 L737.9508 661.2333 L736.8763 663.0382 L736.2099 664.9489 L736 667 L736.2783 669.212 L737.0103 671.5464 L738.1446 673.9506 L739.63 676.3715 L741.4152 678.7563 L743.449 681.0522 L745.68 683.2064 L748.057 685.1658 L750.5288 686.8778 L753.0441 688.2894 L755.5516 689.3478 L758 690 L760.3479 690.2049 L762.5928 689.9678 L764.7421 689.3054 L766.8033 688.2348 L768.7835 686.7728 L770.6903 684.9364 L772.5309 682.7424 L774.3128 680.2076 L776.0433 677.3492 L777.7297 674.1838 L779.3795 670.7285 L781 667 L782.5992 663.0286 L784.1879 658.8974 L785.7774 654.7028 L787.3792 650.5411 L789.0045 646.5088 L790.6649 642.7021 L792.3716 639.2177 L794.1362 636.1516 L795.9699 633.6005 L797.8842 631.6605 L799.8904 630.4283 L802 630 L804.2165 630.4405 L806.5121 631.688 L808.8513 633.6491 L811.1986 636.2304 L813.5184 639.3385 L815.7751 642.8799 L817.9333 646.7615 L819.9572 650.8896 L821.8114 655.1708 L823.4603 659.512 L824.8683 663.8195 L826 668 L826.8271 671.9774 L827.3517 675.7441 L827.5828 679.3102 L827.53 682.6855 L827.2025 685.8798 L826.6095 688.903 L825.7604 691.7649 L824.6646 694.4753 L823.3314 697.0442 L821.77 699.4814 L819.9897 701.7967 L818 704 L815.8187 706.1027 L813.4979 708.1225 L811.0985 710.0787 L808.6814 711.9905 L806.3073 713.8773 L804.0369 715.7581 L801.9312 717.6525 L800.0509 719.5795 L798.4568 721.5585 L797.2098 723.6088 L796.3706 725.7495 L796 728 L796.1402 730.3682 L796.7587 732.8167 L797.8043 735.2969 L799.226 737.7598 L800.9725 740.157 L802.9929 742.4395 L805.2358 744.5587 L807.6502 746.4659 L810.1849 748.1124 L812.7889 749.4493 L815.411 750.4282 L818 751 L820.5124 751.127 L822.9351 750.8142 L825.2623 750.0776 L827.4888 748.9331 L829.6088 747.3965 L831.6167 745.4839 L833.507 743.211 L835.2742 740.5938 L836.9127 737.6482 L838.4168 734.3901 L839.7811 730.8354 L841 727 L842.0712 722.9138 L843.0058 718.6625 L843.8181 714.3458 L844.5226 710.0633 L845.1335 705.9148 L845.6654 701.9999 L846.1325 698.4185 L846.5493 695.27 L846.93 692.6542 L847.2891 690.6708 L847.641 689.4195 L848 689 L848.3793 689.4783 L848.7872 690.7859 L849.2308 692.8207 L849.7171 695.4804 L850.2534 698.663 L850.8466 702.2664 L851.5039 706.1882 L852.2324 710.3264 L853.0392 714.5788 L853.9313 718.8433 L854.9158 723.0178 L856 727 L857.19 730.7031 L858.489 734.1013 L859.8995 737.1841 L861.4238 739.9409 L863.0641 742.3613 L864.8231 744.4348 L866.7031 746.1507 L868.7063 747.4986 L870.8352 748.468 L873.0922 749.0484 L875.4797 749.2292 L878 749 L880.6448 748.3597 L883.3632 747.3459 L886.0931 746.0055 L888.7731 744.3855 L891.3412 742.5329 L893.7358 740.4947 L895.8951 738.3179 L897.7573 736.0495 L899.2606 733.7366 L900.3433 731.426 L900.9437 729.1648 L901 727 L900.4742 724.9655 L899.4241 723.0428 L897.931 721.2001 L896.0764 719.406 L893.9418 717.6287 L891.6085 715.8365 L889.1581 713.9978 L886.6721 712.0811 L884.2318 710.0546 L881.9186 707.8867 L879.8143 705.5457 L878 703 L876.5356 700.2302 L875.394 697.2654 L874.5265 694.147 L873.8842 690.9165 L873.4183 687.6152 L873.0801 684.2845 L872.8208 680.9657 L872.5916 677.7003 L872.3437 674.5297 L872.0283 671.4951 L871.5967 668.6381 L871 666 L870.1981 663.6092 L869.1848 661.442 L867.963 659.4617 L866.535 657.6317 L864.9034 655.9152 L863.0709 654.2757 L861.04 652.6765 L858.8134 651.0807 L856.3934 649.4519 L853.7828 647.7533 L850.9842 645.9482 L848 644 L844.8481 641.8783 L841.6073 639.5779 L838.3717 637.1 L835.2352 634.4457 L832.2921 631.6162 L829.6361 628.6127 L827.3615 625.4362 L825.5623 622.0879 L824.3325 618.569 L823.7661 614.8806 L823.9573 611.0239 L825 607 L826.9581 602.8239 L829.7747 598.5659 L833.3628 594.3102 L837.6351 590.141 L842.5048 586.1424 L847.8846 582.3986 L853.6874 578.9938 L859.8263 576.0121 L866.2141 573.5377 L872.7637 571.6547 L879.388 570.4474 L886 570 L892.5197 570.3684 L898.8956 571.4965 L905.0835 573.2998 L911.0389 575.694 L916.7178 578.5949 L922.0756 581.918 L927.0681 585.579 L931.6509 589.4935 L935.7799 593.5771 L939.4106 597.7457 L942.4987 601.9148 L945 606 L946.8845 609.9316 L948.1799 613.6982 L948.9283 617.3031 L949.172 620.7495 L948.9529 624.0405 L948.3131 627.1795 L947.2949 630.1696 L945.9402 633.014 L944.2913 635.7161 L942.3902 638.279 L940.2791 640.7059 L938 643 L935.5969 645.1679 L933.1209 647.2291 L930.625 649.2065 L928.162 651.1229 L925.785 653.0011 L923.547 654.8641 L921.5007 656.7346 L919.6992 658.6354 L918.1955 660.5896 L917.0424 662.6199 L916.2929 664.749 L916 667 L916.1996 669.383 L916.8596 671.8576 L917.9312 674.371 L919.3651 676.8702 L921.1124 679.3023 L923.124 681.6143 L925.351 683.7533 L927.7443 685.6663 L930.2549 687.3005 L932.8337 688.6027 L935.4318 689.5202 L938 690 L940.4966 690.0034 L942.9081 689.5488 L945.2286 688.6688 L947.4518 687.3962 L949.5717 685.7636 L951.582 683.8036 L953.4766 681.5491 L955.2495 679.0326 L956.8943 676.2867 L958.4052 673.3442 L959.7758 670.2377 L961 667 L962.0764 663.6643 L963.0217 660.2668 L963.8575 656.8444 L964.6053 653.4339 L965.2867 650.0721 L965.923 646.796 L966.5358 643.6423 L967.1467 640.6478 L967.777 637.8495 L968.4484 635.2842 L969.1822 632.9888 L970 631 L970.9174 629.3417 L971.9265 627.9858 L973.0132 626.8911 L974.1638 626.0164 L975.3644 625.3206 L976.601 624.7624 L977.8597 624.3008 L979.1268 623.8946 L980.3882 623.5026 L981.6302 623.0836 L982.8387 622.5964 L984 622 L985.1011 621.2622 L986.1335 620.3871 L987.0895 619.3881 L987.9615 618.2783 L988.7419 617.071 L989.4231 615.7794 L989.9974 614.4166 L990.4573 612.9961 L990.7951 611.5309 L991.0032 610.0344 L991.0741 608.5197 L991 607 L990.7687 605.4839 L990.3495 603.9609 L989.7067 602.4158 L988.8047 600.8333 L987.6082 599.1981 L986.0816 597.4952 L984.1893 595.7092 L981.8959 593.8248 L979.1658 591.827 L975.9634 589.7004 L972.2533 587.4298 L968 585 L963.1947 582.4011 L957.936 579.6441 L952.3494 576.7456 L946.5602 573.7219 L940.6937 570.5896 L934.8755 567.3649 L929.2308 564.0645 L923.8851 560.7047 L918.9638 557.3018 L914.5922 553.8725 L910.8959 550.4331 L908 547 L905.9963 543.5866 L904.8414 540.1942 L904.4582 536.8206 L904.7694 533.4642 L905.6979 530.123 L907.1665 526.795 L909.0981 523.4785 L911.4155 520.1714 L912.4947 518.8154 L912.5618 518.7413" clip-path="url(#clipPath2)"/>
    </g>
    <g stroke-linecap="butt" transform="matrix(1,0,0,1,-713,-440)" fill="white" text-rendering="geometricPrecision" shape-rendering="geometricPrecision" stroke-dasharray="6,2" stroke="white" stroke-miterlimit="1.45">
      <path d="M922.5113 507.516 L907.4084 515.5098 L916.3887 523.4694 Z" stroke="none" clip-path="url(#clipPath2)"/>
    </g>
    <g stroke-linecap="butt" transform="matrix(1,0,0,1,-713,-440)" fill-opacity="0.498" fill="rgb(255,0,0)" text-rendering="geometricPrecision" shape-rendering="geometricPrecision" stroke="rgb(255,0,0)" stroke-opacity="0.498" stroke-miterlimit="1.45">
      <path fill="none" d="M922.5113 507.516 L907.4084 515.5098 L916.3887 523.4694 Z" clip-path="url(#clipPath2)"/>
    </g>
  </g>
</svg>
