<?xml version="1.0" encoding="UTF-8"?><svg xmlns="http://www.w3.org/2000/svg" xmlns:xlink="http://www.w3.org/1999/xlink" fill-opacity="1" color-rendering="auto" color-interpolation="auto" text-rendering="auto" stroke="black" stroke-linecap="square" width="690" stroke-miterlimit="10" shape-rendering="auto" stroke-opacity="1" fill="black" stroke-dasharray="none" font-weight="normal" stroke-width="1" height="92" font-family="'Dialog'" font-style="normal" stroke-linejoin="miter" font-size="12px" stroke-dashoffset="0" image-rendering="auto">
  <!--Generated by ySVG 2.6-->
  <defs id="genericDefs"/>
  <g>
    <defs id="defs1">
      <clipPath clipPathUnits="userSpaceOnUse" id="clipPath1">
        <path d="M0 0 L690 0 L690 92 L0 92 L0 0 Z"/>
      </clipPath>
      <clipPath clipPathUnits="userSpaceOnUse" id="clipPath2">
        <path d="M80 479 L770 479 L770 571 L80 571 L80 479 Z"/>
      </clipPath>
    </defs>
    <g transform="matrix(1,0,0,1,-80,-479)" fill-opacity="0.498" fill="rgb(255,102,0)" text-rendering="geometricPrecision" shape-rendering="geometricPrecision" stroke="rgb(255,102,0)" stroke-opacity="0.498">
      <rect x="170" width="30" height="30" y="495" clip-path="url(#clipPath2)" stroke="none"/>
    </g>
    <g text-rendering="geometricPrecision" stroke-miterlimit="1.45" shape-rendering="geometricPrecision" transform="matrix(1,0,0,1,-80,-479)" stroke-linecap="butt">
      <rect fill="none" x="170" width="30" height="30" y="495" clip-path="url(#clipPath2)"/>
      <text x="178.999" font-size="20px" y="547.6504" clip-path="url(#clipPath2)" font-family="'Courier New'" stroke="none" xml:space="preserve">1</text>
    </g>
    <g transform="matrix(1,0,0,1,-80,-479)" fill-opacity="0.498" fill="rgb(255,102,0)" text-rendering="geometricPrecision" shape-rendering="geometricPrecision" stroke="rgb(255,102,0)" stroke-opacity="0.498">
      <rect x="200" width="15" height="30" y="495" clip-path="url(#clipPath2)" stroke="none"/>
    </g>
    <g text-rendering="geometricPrecision" stroke-miterlimit="1.45" shape-rendering="geometricPrecision" transform="matrix(1,0,0,1,-80,-479)" stroke-linecap="butt">
      <rect fill="none" x="200" width="15" height="30" y="495" clip-path="url(#clipPath2)"/>
    </g>
    <g transform="matrix(1,0,0,1,-80,-479)" fill-opacity="0.498" fill="rgb(0,128,0)" text-rendering="geometricPrecision" shape-rendering="geometricPrecision" stroke="rgb(0,128,0)" stroke-opacity="0.498">
      <rect x="242.5" width="30" height="30" y="495" clip-path="url(#clipPath2)" stroke="none"/>
    </g>
    <g text-rendering="geometricPrecision" stroke-miterlimit="1.45" shape-rendering="geometricPrecision" transform="matrix(1,0,0,1,-80,-479)" stroke-linecap="butt">
      <rect fill="none" x="242.5" width="30" height="30" y="495" clip-path="url(#clipPath2)"/>
      <text x="254.498" font-size="20px" y="547.6504" clip-path="url(#clipPath2)" font-family="'Courier New'" stroke="none" xml:space="preserve">2</text>
    </g>
    <g transform="matrix(1,0,0,1,-80,-479)" fill-opacity="0.498" fill="rgb(0,128,0)" text-rendering="geometricPrecision" shape-rendering="geometricPrecision" stroke="rgb(0,128,0)" stroke-opacity="0.498">
      <rect x="272.5" width="15" height="30" y="495" clip-path="url(#clipPath2)" stroke="none"/>
    </g>
    <g text-rendering="geometricPrecision" stroke-miterlimit="1.45" shape-rendering="geometricPrecision" transform="matrix(1,0,0,1,-80,-479)" stroke-linecap="butt">
      <rect fill="none" x="272.5" width="15" height="30" y="495" clip-path="url(#clipPath2)"/>
    </g>
    <g transform="matrix(1,0,0,1,-80,-479)" fill-opacity="0.498" fill="rgb(0,0,255)" text-rendering="geometricPrecision" shape-rendering="geometricPrecision" stroke="rgb(0,0,255)" stroke-opacity="0.498">
      <rect x="615" width="30" height="30" y="495" clip-path="url(#clipPath2)" stroke="none"/>
    </g>
    <g text-rendering="geometricPrecision" stroke-miterlimit="1.45" shape-rendering="geometricPrecision" transform="matrix(1,0,0,1,-80,-479)" stroke-linecap="butt">
      <rect fill="none" x="615" width="30" height="30" y="495" clip-path="url(#clipPath2)"/>
      <text x="611.9971" font-size="20px" y="547.6504" clip-path="url(#clipPath2)" font-family="'Courier New'" stroke="none" xml:space="preserve">999</text>
    </g>
    <g transform="matrix(1,0,0,1,-80,-479)" fill-opacity="0.498" fill="rgb(0,0,255)" text-rendering="geometricPrecision" shape-rendering="geometricPrecision" stroke="rgb(0,0,255)" stroke-opacity="0.498">
      <rect x="645" width="15" height="30" y="495" clip-path="url(#clipPath2)" stroke="none"/>
    </g>
    <g text-rendering="geometricPrecision" stroke-miterlimit="1.45" shape-rendering="geometricPrecision" transform="matrix(1,0,0,1,-80,-479)" stroke-linecap="butt">
      <rect fill="none" x="645" width="15" height="30" y="495" clip-path="url(#clipPath2)"/>
    </g>
    <g transform="matrix(1,0,0,1,-80,-479)" fill-opacity="0.498" fill="rgb(181,35,196)" text-rendering="geometricPrecision" shape-rendering="geometricPrecision" stroke="rgb(181,35,196)" stroke-opacity="0.498">
      <rect x="687.5" width="30" height="30" y="495" clip-path="url(#clipPath2)" stroke="none"/>
    </g>
    <g text-rendering="geometricPrecision" stroke-miterlimit="1.45" shape-rendering="geometricPrecision" transform="matrix(1,0,0,1,-80,-479)" stroke-linecap="butt">
      <rect fill="none" x="687.5" width="30" height="30" y="495" clip-path="url(#clipPath2)"/>
      <text x="678.4961" font-size="20px" y="547.6504" clip-path="url(#clipPath2)" font-family="'Courier New'" stroke="none" xml:space="preserve">1000</text>
    </g>
    <g transform="matrix(1,0,0,1,-80,-479)" fill-opacity="0.498" fill="rgb(181,35,196)" text-rendering="geometricPrecision" shape-rendering="geometricPrecision" stroke="rgb(181,35,196)" stroke-opacity="0.498">
      <rect x="717.5" width="15" height="30" y="495" clip-path="url(#clipPath2)" stroke="none"/>
    </g>
    <g text-rendering="geometricPrecision" stroke-miterlimit="1.45" shape-rendering="geometricPrecision" transform="matrix(1,0,0,1,-80,-479)" stroke-linecap="butt">
      <rect fill="none" x="717.5" width="15" height="30" y="495" clip-path="url(#clipPath2)"/>
      <circle fill="none" r="10" clip-path="url(#clipPath2)" cx="744.768" cy="542.952"/>
      <text x="740.6005" font-size="10px" y="546.8802" clip-path="url(#clipPath2)" font-family="sans-serif" stroke="none" xml:space="preserve">///</text>
    </g>
    <g transform="matrix(1,0,0,1,-80,-479)" fill-opacity="0.498" fill="rgb(255,0,0)" text-rendering="geometricPrecision" shape-rendering="geometricPrecision" stroke="rgb(255,0,0)" stroke-opacity="0.498">
      <rect x="95" width="45" height="20" y="500" clip-path="url(#clipPath2)" stroke="none"/>
    </g>
    <g text-rendering="geometricPrecision" stroke-miterlimit="1.45" shape-rendering="geometricPrecision" transform="matrix(1,0,0,1,-80,-479)" stroke-linecap="butt">
      <rect fill="none" x="95" width="45" height="20" y="500" clip-path="url(#clipPath2)"/>
      <text x="97.4883" font-size="16px" y="516.2852" clip-path="url(#clipPath2)" font-family="sans-serif" stroke="none" xml:space="preserve">Lnum</text>
    </g>
    <g fill="rgb(255,255,153)" text-rendering="geometricPrecision" shape-rendering="geometricPrecision" transform="matrix(1,0,0,1,-80,-479)" stroke="rgb(255,255,153)">
      <rect x="541.0197" width="30" height="30" y="495" clip-path="url(#clipPath2)" stroke="none"/>
    </g>
    <g text-rendering="geometricPrecision" stroke-miterlimit="1.45" shape-rendering="geometricPrecision" transform="matrix(1,0,0,1,-80,-479)" stroke-linecap="butt">
      <rect fill="none" x="541.0197" width="30" height="30" y="495" clip-path="url(#clipPath2)"/>
      <text x="538.0167" font-size="20px" y="547.6504" clip-path="url(#clipPath2)" font-family="'Courier New'" stroke="none" xml:space="preserve">998</text>
    </g>
    <g fill="rgb(255,255,153)" text-rendering="geometricPrecision" shape-rendering="geometricPrecision" transform="matrix(1,0,0,1,-80,-479)" stroke="rgb(255,255,153)">
      <rect x="571.0197" width="15" height="30" y="495" clip-path="url(#clipPath2)" stroke="none"/>
    </g>
    <g text-rendering="geometricPrecision" stroke-miterlimit="1.45" shape-rendering="geometricPrecision" transform="matrix(1,0,0,1,-80,-479)" stroke-linecap="butt">
      <rect fill="none" x="571.0197" width="15" height="30" y="495" clip-path="url(#clipPath2)"/>
    </g>
    <g fill="rgb(255,255,153)" text-rendering="geometricPrecision" shape-rendering="geometricPrecision" transform="matrix(1,0,0,1,-80,-479)" stroke="rgb(255,255,153)">
      <rect x="573.5197" width="10" height="10" y="505" clip-path="url(#clipPath2)" stroke="none"/>
      <rect x="315" width="30" height="30" y="495" clip-path="url(#clipPath2)" stroke="none"/>
    </g>
    <g text-rendering="geometricPrecision" stroke-miterlimit="1.45" shape-rendering="geometricPrecision" transform="matrix(1,0,0,1,-80,-479)" stroke-linecap="butt">
      <rect fill="none" x="315" width="30" height="30" y="495" clip-path="url(#clipPath2)"/>
      <text x="323.999" font-size="20px" y="547.6504" clip-path="url(#clipPath2)" font-family="'Courier New'" stroke="none" xml:space="preserve">3</text>
    </g>
    <g fill="rgb(255,255,153)" text-rendering="geometricPrecision" shape-rendering="geometricPrecision" transform="matrix(1,0,0,1,-80,-479)" stroke="rgb(255,255,153)">
      <rect x="345" width="15" height="30" y="495" clip-path="url(#clipPath2)" stroke="none"/>
    </g>
    <g text-rendering="geometricPrecision" stroke-miterlimit="1.45" shape-rendering="geometricPrecision" transform="matrix(1,0,0,1,-80,-479)" stroke-linecap="butt">
      <rect fill="none" x="345" width="15" height="30" y="495" clip-path="url(#clipPath2)"/>
    </g>
    <g fill="rgb(255,255,153)" text-rendering="geometricPrecision" shape-rendering="geometricPrecision" transform="matrix(1,0,0,1,-80,-479)" stroke="rgb(255,255,153)">
      <rect x="347.5" width="10" height="10" y="505" clip-path="url(#clipPath2)" stroke="none"/>
      <rect x="435" width="30" height="30" y="495" clip-path="url(#clipPath2)" stroke="none"/>
    </g>
    <g text-rendering="geometricPrecision" stroke-miterlimit="1.45" shape-rendering="geometricPrecision" transform="matrix(1,0,0,1,-80,-479)" stroke-linecap="butt">
      <rect fill="none" x="435" width="30" height="30" y="495" clip-path="url(#clipPath2)"/>
    </g>
    <g fill="rgb(255,255,153)" text-rendering="geometricPrecision" shape-rendering="geometricPrecision" transform="matrix(1,0,0,1,-80,-479)" stroke="rgb(255,255,153)">
      <rect x="465" width="15" height="30" y="495" clip-path="url(#clipPath2)" stroke="none"/>
    </g>
    <g text-rendering="geometricPrecision" stroke-miterlimit="1.45" shape-rendering="geometricPrecision" transform="matrix(1,0,0,1,-80,-479)" stroke-linecap="butt">
      <rect fill="none" x="465" width="15" height="30" y="495" clip-path="url(#clipPath2)"/>
    </g>
    <g fill="rgb(255,255,153)" text-rendering="geometricPrecision" shape-rendering="geometricPrecision" transform="matrix(1,0,0,1,-80,-479)" stroke="rgb(255,255,153)">
      <rect x="467.5" width="10" height="10" y="505" clip-path="url(#clipPath2)" stroke="none"/>
    </g>
    <g text-rendering="geometricPrecision" stroke-miterlimit="1.45" stroke-width="4" shape-rendering="geometricPrecision" transform="matrix(1,0,0,1,-80,-479)" stroke-linecap="butt">
      <path fill="none" d="M212.5 510 L227.375 510" clip-path="url(#clipPath2)"/>
      <path d="M242.5 510 L226 501.75 L226 518.25 Z" clip-path="url(#clipPath2)" stroke="none"/>
      <path fill="none" d="M657.5 510 L672.375 510" clip-path="url(#clipPath2)"/>
      <path d="M687.5 510 L671 501.75 L671 518.25 Z" clip-path="url(#clipPath2)" stroke="none"/>
      <path fill="none" d="M730 510 L744.768 510 L744.768 517.827" clip-path="url(#clipPath2)"/>
      <path d="M744.768 532.952 L753.018 516.452 L736.518 516.452 Z" clip-path="url(#clipPath2)" stroke="none"/>
      <path fill="none" d="M141.08 510 L154.8468 510" clip-path="url(#clipPath2)"/>
      <path d="M169.9718 510 L153.4718 501.75 L153.4718 518.25 Z" clip-path="url(#clipPath2)" stroke="none"/>
      <path fill="none" d="M583.5197 510 L599.875 510" clip-path="url(#clipPath2)"/>
      <path d="M615 510 L598.5 501.75 L598.5 518.25 Z" clip-path="url(#clipPath2)" stroke="none"/>
      <path fill="none" d="M285 510.1481 L299.8934 510.5894" clip-path="url(#clipPath2)"/>
      <path d="M315.0118 511.0373 L298.7634 502.3023 L298.2747 518.795 Z" clip-path="url(#clipPath2)" stroke="none"/>
    </g>
    <g stroke-linecap="round" transform="matrix(1,0,0,1,-80,-479)" stroke-dashoffset="2" text-rendering="geometricPrecision" shape-rendering="geometricPrecision" stroke-dasharray="0,8" stroke-width="2" stroke-miterlimit="1.45">
      <path fill="none" d="M357.5 510 L418.125 510" clip-path="url(#clipPath2)"/>
      <path fill="white" d="M435 510 L417 503.25 L417 516.75 Z" clip-path="url(#clipPath2)" stroke="none"/>
    </g>
    <g text-rendering="geometricPrecision" stroke-miterlimit="1.45" shape-rendering="geometricPrecision" transform="matrix(1,0,0,1,-80,-479)" stroke-linecap="butt">
      <path fill="none" d="M435 510 L417 503.25 L417 516.75 Z" clip-path="url(#clipPath2)"/>
    </g>
    <g stroke-linecap="round" transform="matrix(1,0,0,1,-80,-479)" stroke-dashoffset="2" text-rendering="geometricPrecision" shape-rendering="geometricPrecision" stroke-dasharray="0,8" stroke-width="2" stroke-miterlimit="1.45">
      <path fill="none" d="M477.5 510 L524.1447 510" clip-path="url(#clipPath2)"/>
      <path fill="white" d="M541.0197 510 L523.0197 503.25 L523.0197 516.75 Z" clip-path="url(#clipPath2)" stroke="none"/>
    </g>
    <g text-rendering="geometricPrecision" stroke-miterlimit="1.45" shape-rendering="geometricPrecision" transform="matrix(1,0,0,1,-80,-479)" stroke-linecap="butt">
      <path fill="none" d="M541.0197 510 L523.0197 503.25 L523.0197 516.75 Z" clip-path="url(#clipPath2)"/>
    </g>
  </g>
</svg>
