<?xml version="1.0" encoding="UTF-8"?><svg xmlns="http://www.w3.org/2000/svg" xmlns:xlink="http://www.w3.org/1999/xlink" fill-opacity="1" color-rendering="auto" color-interpolation="auto" text-rendering="auto" stroke="black" stroke-linecap="square" width="225" stroke-miterlimit="10" shape-rendering="auto" stroke-opacity="1" fill="black" stroke-dasharray="none" font-weight="normal" stroke-width="1" height="125" font-family="'Dialog'" font-style="normal" stroke-linejoin="miter" font-size="12px" stroke-dashoffset="0" image-rendering="auto">
  <!--Generated by ySVG 2.5-->
  <defs id="genericDefs"/>
  <g>
    <defs id="defs1">
      <clipPath clipPathUnits="userSpaceOnUse" id="clipPath1">
        <path d="M0 0 L225 0 L225 125 L0 125 L0 0 Z"/>
      </clipPath>
      <clipPath clipPathUnits="userSpaceOnUse" id="clipPath2">
        <path d="M675 415 L900 415 L900 540 L675 540 L675 415 Z"/>
      </clipPath>
    </defs>
    <g fill="rgb(255,204,0)" text-rendering="geometricPrecision" shape-rendering="geometricPrecision" transform="matrix(1,0,0,1,-675,-415)" stroke="rgb(255,204,0)">
      <circle r="20" clip-path="url(#clipPath2)" cx="787.5" cy="450" stroke="none"/>
    </g>
    <g text-rendering="geometricPrecision" stroke-miterlimit="1.45" shape-rendering="geometricPrecision" transform="matrix(1,0,0,1,-675,-415)" stroke-linecap="butt">
      <circle fill="none" r="20" clip-path="url(#clipPath2)" cx="787.5" cy="450"/>
      <text x="774.4951" xml:space="preserve" y="454.7139" clip-path="url(#clipPath2)" font-family="sans-serif" stroke="none">valor</text>
      <text x="730.4021" xml:space="preserve" y="476.3201" clip-path="url(#clipPath2)" font-family="sans-serif" stroke="none">izq</text>
      <text x="828.2561" xml:space="preserve" y="476.3201" clip-path="url(#clipPath2)" font-family="sans-serif" stroke="none">der</text>
      <path fill="none" d="M803.6747 461.7634 L848.9728 494.7076" clip-path="url(#clipPath2)"/>
      <path d="M857.869 501.1774 L851.6931 489.267 L844.6351 498.9718 Z" clip-path="url(#clipPath2)" stroke="none"/>
      <path fill="none" d="M771.3253 461.7634 L726.0272 494.7076" clip-path="url(#clipPath2)"/>
      <path d="M717.131 501.1774 L730.3649 498.9718 L723.3069 489.267 Z" clip-path="url(#clipPath2)" stroke="none"/>
    </g>
  </g>
</svg>
