<svg width="3173" height="612" xmlns="http://www.w3.org/2000/svg" xmlns:xlink="http://www.w3.org/1999/xlink" xml:space="preserve" overflow="hidden"><defs><clipPath id="clip0"><rect x="64" y="1539" width="3173" height="612"/></clipPath></defs><g clip-path="url(#clip0)" transform="translate(-64 -1539)"><rect x="66.4998" y="2018.5" width="1429" height="130" stroke="#000000" stroke-width="4.58333" stroke-miterlimit="8" fill="#BF9000"/><rect x="286.5" y="1629.5" width="65.0003" height="389" stroke="#000000" stroke-width="4.58333" stroke-miterlimit="8" fill="#BF9000"/><path d="M221.5 1964.33C221.5 1958.35 226.35 1953.5 232.333 1953.5L405.667 1953.5C411.65 1953.5 416.5 1958.35 416.5 1964.33L416.5 2007.67C416.5 2013.65 411.65 2018.5 405.667 2018.5L232.333 2018.5C226.35 2018.5 221.5 2013.65 221.5 2007.67Z" stroke="#000000" stroke-width="4.58333" stroke-miterlimit="8" fill="#FF7700" fill-rule="evenodd"/><rect x="748.5" y="1629.5" width="65.0003" height="389" stroke="#000000" stroke-width="4.58333" stroke-miterlimit="8" fill="#BF9000"/><rect x="1203.5" y="1629.5" width="65" height="389" stroke="#000000" stroke-width="4.58333" stroke-miterlimit="8" fill="#BF9000"/><rect x="1805.5" y="2018.5" width="1429" height="130" stroke="#000000" stroke-width="4.58333" stroke-miterlimit="8" fill="#BF9000"/><rect x="2025.5" y="1629.5" width="64.9999" height="389" stroke="#000000" stroke-width="4.58333" stroke-miterlimit="8" fill="#BF9000"/><rect x="2487.5" y="1629.5" width="65" height="389" stroke="#000000" stroke-width="4.58333" stroke-miterlimit="8" fill="#BF9000"/><rect x="2941.5" y="1629.5" width="65" height="389" stroke="#000000" stroke-width="4.58333" stroke-miterlimit="8" fill="#BF9000"/><path d="M2876.5 1964.33C2876.5 1958.35 2881.35 1953.5 2887.33 1953.5L3059.67 1953.5C3065.65 1953.5 3070.5 1958.35 3070.5 1964.33L3070.5 2007.67C3070.5 2013.65 3065.65 2018.5 3059.67 2018.5L2887.33 2018.5C2881.35 2018.5 2876.5 2013.65 2876.5 2007.67Z" stroke="#000000" stroke-width="4.58333" stroke-miterlimit="8" fill="#FF7700" fill-rule="evenodd"/><path d="M312.129 1953.56 312.825 1934.27 314.809 1914.75 318.134 1895.31 322.668 1876.02 328.41 1856.95 333.118 1844 346.041 1848.7 341.399 1861.47 341.521 1861.1 335.896 1879.78 336.005 1879.38 331.568 1898.25 331.652 1897.84 328.402 1916.84 328.465 1916.37 326.527 1935.44 326.558 1934.99 325.871 1954.05ZM350.046 1805.6 352.286 1801.04 362.393 1782.99 373.44 1765.28 385.374 1748.01 398.25 1731.14 411.943 1714.72 413.094 1713.46 423.252 1722.73 422.204 1723.87 422.405 1723.64 408.905 1739.83 409.09 1739.6 396.403 1756.22 396.593 1755.96 384.843 1772.96 385.021 1772.69 374.146 1790.13 374.311 1789.85 364.374 1807.6 364.545 1807.27 362.387 1811.67ZM441.953 1683.21 457.68 1668.6 474.341 1654.41 491.687 1640.86 509.539 1628.01 528.025 1615.86 529.69 1614.86 536.781 1626.64 535.233 1627.57 535.465 1627.42 517.215 1639.42 517.454 1639.26 499.829 1651.95 500.044 1651.78 482.919 1665.16 483.145 1664.97 466.708 1678.97 466.928 1678.78 451.309 1693.28ZM565.711 1594.2 566.393 1593.83 586.22 1584.07 606.495 1575.14 627.086 1567.15 647.941 1560.05 669.14 1553.96 669.78 1553.81 672.918 1567.2 672.444 1567.31 672.774 1567.22 651.899 1573.22 652.216 1573.12 631.653 1580.12 631.923 1580.03 611.61 1587.9 611.897 1587.78 591.897 1596.59 592.16 1596.47 572.598 1606.1 572.863 1605.96 572.312 1606.26ZM710.417 1545.19 712.038 1544.89 733.771 1542.03 755.558 1540.25 777.378 1539.61 820.526 1540.12 821.621 1540.15 821.177 1553.9 820.153 1553.86 820.295 1553.87 777.357 1553.37 777.637 1553.36 756.137 1553.99 756.497 1553.97 735.059 1555.72 735.397 1555.68 714.022 1558.49 714.4 1558.43 712.967 1558.7ZM862.849 1541.48 863.227 1541.5 905.306 1543.69 946.313 1546.7 966.336 1548.52 973.021 1549.18 971.67 1562.86 965.012 1562.21 965.065 1562.21 945.128 1560.4 945.247 1560.41 904.372 1557.41 904.517 1557.42 862.579 1555.23 862.716 1555.24 862.405 1555.23ZM1014.19 1553.7 1024.07 1554.92 1042.32 1557.37 1060.09 1559.94 1077.24 1562.64 1093.79 1565.48 1109.64 1568.5 1123.28 1571.27 1120.54 1584.74 1106.94 1581.98 1107.03 1581.99 1091.28 1578.99 1091.4 1579.02 1074.97 1576.2 1075.06 1576.22 1057.99 1573.53 1058.08 1573.54 1040.39 1570.98 1040.46 1570.99 1022.27 1568.55 1022.34 1568.56 1012.5 1567.35ZM1163.79 1580.98 1165.72 1581.49 1177.72 1584.99 1188.74 1588.61 1199.37 1592.43 1213.26 1600.62 1206.27 1612.47 1192.94 1604.6 1194.12 1605.15 1184.18 1601.59 1184.35 1601.65 1173.54 1598.08 1173.77 1598.15 1161.95 1594.72 1162.11 1594.76 1160.25 1594.27ZM1218.04 1586.44 1235.79 1629 1191.09 1617.67Z"/><path d="M1470.5 1811.25 1736 1811.25 1736 1767.5 1823.5 1855 1736 1942.5 1736 1898.75 1470.5 1898.75Z" stroke="#000000" stroke-width="4.58333" stroke-miterlimit="8" fill="#70AD47" fill-rule="evenodd"/></g></svg>