<svg width="3178" height="612" xmlns="http://www.w3.org/2000/svg" xmlns:xlink="http://www.w3.org/1999/xlink" xml:space="preserve" overflow="hidden"><defs><clipPath id="clip0"><rect x="59" y="1539" width="3178" height="612"/></clipPath></defs><g clip-path="url(#clip0)" transform="translate(-59 -1539)"><rect x="66.4998" y="2018.5" width="1429" height="130" stroke="#000000" stroke-width="4.58333" stroke-miterlimit="8" fill="#BF9000"/><rect x="286.5" y="1629.5" width="65.0003" height="389" stroke="#000000" stroke-width="4.58333" stroke-miterlimit="8" fill="#BF9000"/><path d="M124.5 1964.33C124.5 1958.35 129.35 1953.5 135.333 1953.5L503.667 1953.5C509.65 1953.5 514.5 1958.35 514.5 1964.33L514.5 2007.67C514.5 2013.65 509.65 2018.5 503.667 2018.5L135.333 2018.5C129.35 2018.5 124.5 2013.65 124.5 2007.67Z" stroke="#000000" stroke-width="4.58333" stroke-miterlimit="8" fill="#00AA00" fill-rule="evenodd"/><path d="M156.5 1899.33C156.5 1893.35 161.35 1888.5 167.333 1888.5L470.667 1888.5C476.65 1888.5 481.5 1893.35 481.5 1899.33L481.5 1942.67C481.5 1948.65 476.65 1953.5 470.667 1953.5L167.333 1953.5C161.35 1953.5 156.5 1948.65 156.5 1942.67Z" stroke="#000000" stroke-width="4.58333" stroke-miterlimit="8" fill="#0000FF" fill-rule="evenodd"/><path d="M189.5 1834.33C189.5 1828.35 194.35 1823.5 200.334 1823.5L438.667 1823.5C444.65 1823.5 449.5 1828.35 449.5 1834.33L449.5 1877.67C449.5 1883.65 444.65 1888.5 438.667 1888.5L200.334 1888.5C194.35 1888.5 189.5 1883.65 189.5 1877.67Z" stroke="#000000" stroke-width="4.58333" stroke-miterlimit="8" fill="#FF0000" fill-rule="evenodd"/><path d="M223.5 1769.33C223.5 1763.35 228.35 1758.5 234.333 1758.5L407.666 1758.5C413.649 1758.5 418.5 1763.35 418.5 1769.33L418.5 1812.67C418.5 1818.65 413.649 1823.5 407.666 1823.5L234.333 1823.5C228.35 1823.5 223.5 1818.65 223.5 1812.67Z" stroke="#000000" stroke-width="4.58333" stroke-miterlimit="8" fill="#FF7700" fill-rule="evenodd"/><rect x="748.5" y="1629.5" width="65.0003" height="389" stroke="#000000" stroke-width="4.58333" stroke-miterlimit="8" fill="#BF9000"/><rect x="1203.5" y="1629.5" width="65" height="389" stroke="#000000" stroke-width="4.58333" stroke-miterlimit="8" fill="#BF9000"/><path d="M1470.5 1811.25 1736 1811.25 1736 1767.5 1823.5 1855 1736 1942.5 1736 1898.75 1470.5 1898.75Z" stroke="#000000" stroke-width="4.58333" stroke-miterlimit="8" fill="#70AD47" fill-rule="evenodd"/><rect x="1805.5" y="2018.5" width="1429" height="130" stroke="#000000" stroke-width="4.58333" stroke-miterlimit="8" fill="#BF9000"/><rect x="2025.5" y="1629.5" width="64.9999" height="389" stroke="#000000" stroke-width="4.58333" stroke-miterlimit="8" fill="#BF9000"/><path d="M1862.5 1964.33C1862.5 1958.35 1867.35 1953.5 1873.33 1953.5L2241.67 1953.5C2247.65 1953.5 2252.5 1958.35 2252.5 1964.33L2252.5 2007.67C2252.5 2013.65 2247.65 2018.5 2241.67 2018.5L1873.33 2018.5C1867.35 2018.5 1862.5 2013.65 1862.5 2007.67Z" stroke="#000000" stroke-width="4.58333" stroke-miterlimit="8" fill="#00AA00" fill-rule="evenodd"/><rect x="2487.5" y="1629.5" width="65" height="389" stroke="#000000" stroke-width="4.58333" stroke-miterlimit="8" fill="#BF9000"/><rect x="2941.5" y="1629.5" width="65" height="389" stroke="#000000" stroke-width="4.58333" stroke-miterlimit="8" fill="#BF9000"/><path d="M2355.5 1964.33C2355.5 1958.35 2360.35 1953.5 2366.33 1953.5L2669.67 1953.5C2675.65 1953.5 2680.5 1958.35 2680.5 1964.33L2680.5 2007.67C2680.5 2013.65 2675.65 2018.5 2669.67 2018.5L2366.33 2018.5C2360.35 2018.5 2355.5 2013.65 2355.5 2007.67Z" stroke="#000000" stroke-width="4.58333" stroke-miterlimit="8" fill="#0000FF" fill-rule="evenodd"/><path d="M2387.5 1899.33C2387.5 1893.35 2392.35 1888.5 2398.33 1888.5L2636.67 1888.5C2642.65 1888.5 2647.5 1893.35 2647.5 1899.33L2647.5 1942.67C2647.5 1948.65 2642.65 1953.5 2636.67 1953.5L2398.33 1953.5C2392.35 1953.5 2387.5 1948.65 2387.5 1942.67Z" stroke="#000000" stroke-width="4.58333" stroke-miterlimit="8" fill="#FF0000" fill-rule="evenodd"/><path d="M2420.5 1834.33C2420.5 1828.35 2425.35 1823.5 2431.33 1823.5L2604.67 1823.5C2610.65 1823.5 2615.5 1828.35 2615.5 1834.33L2615.5 1877.67C2615.5 1883.65 2610.65 1888.5 2604.67 1888.5L2431.33 1888.5C2425.35 1888.5 2420.5 1883.65 2420.5 1877.67Z" stroke="#000000" stroke-width="4.58333" stroke-miterlimit="8" fill="#FF7700" fill-rule="evenodd"/><rect x="66" y="1741" width="507" height="239" stroke="#000000" stroke-width="13.75" stroke-miterlimit="8" stroke-dasharray="13.75 13.75" fill="none"/><path d="M312.129 1740.9 312.45 1731.51 313.504 1721.9 315.211 1712.38 317.568 1702.95 320.502 1693.63 324.029 1684.35 328.189 1675.25 332.788 1666.31 337.969 1657.51 343.594 1648.91 349.729 1640.51 353.06 1636.36 363.781 1644.97 360.548 1649 360.738 1648.75 354.801 1656.88 355.003 1656.58 349.566 1664.9 349.738 1664.62 344.738 1673.12 344.926 1672.78 340.488 1681.4 340.627 1681.12 336.627 1689.87 336.801 1689.45 333.426 1698.33 333.558 1697.95 330.745 1706.88 330.857 1706.49 328.607 1715.49 328.704 1715.03 327.079 1724.1 327.146 1723.63 326.146 1732.76 326.183 1732.24 325.871 1741.37ZM382.365 1605.76 386.68 1601.96 403.945 1588.59 422.406 1576.52 432.087 1570.97 442.019 1565.84 452.087 1561.1 462.411 1556.8 472.873 1552.88 479.904 1550.64 484.086 1563.74 477.216 1565.93 477.534 1565.82 467.347 1569.63 467.579 1569.54 457.516 1573.73 457.806 1573.6 447.993 1578.23 448.215 1578.12 438.528 1583.12 438.794 1582.97 429.419 1588.35 429.763 1588.14 411.7 1599.95 412.146 1599.63 395.271 1612.69 395.61 1612.41 391.459 1616.07ZM521.344 1541.49 527.306 1540.73 538.455 1539.89 549.605 1539.57 571.487 1540.07 593.199 1541.47 614.6 1543.68 632.773 1546.33 630.788 1559.94 612.757 1557.31 613.042 1557.35 591.917 1555.16 592.185 1555.18 570.747 1553.81 571.028 1553.82 549.465 1553.32 549.823 1553.32 539.011 1553.63 539.328 1553.61 528.515 1554.43 528.872 1554.39 523.089 1555.13ZM673.731 1554.75 674.947 1555.03 693.296 1560.11 710.469 1565.71 718.631 1568.79 726.372 1571.93 733.749 1575.2 740.777 1578.55 747.394 1582.05 753.609 1585.65 760.167 1589.95 765.561 1596.91 754.692 1605.33 750.003 1599.28 751.67 1600.82 746.232 1597.26 746.555 1597.46 740.618 1594.02 740.846 1594.15 734.471 1590.77 734.727 1590.9 727.915 1587.65 728.088 1587.73 720.9 1584.54 721.107 1584.63 713.544 1581.57 713.694 1581.63 705.757 1578.63 706.057 1578.73 689.182 1573.23 689.478 1573.32 671.416 1568.32 671.691 1568.39 670.614 1568.14ZM772.832 1583.48 780.235 1629 739.377 1607.61Z"/></g></svg>