<svg width="3172" height="612" xmlns="http://www.w3.org/2000/svg" xmlns:xlink="http://www.w3.org/1999/xlink" xml:space="preserve" overflow="hidden"><defs><clipPath id="clip0"><rect x="65" y="1539" width="3172" height="612"/></clipPath></defs><g clip-path="url(#clip0)" transform="translate(-65 -1539)"><path d="M1470.5 1811.25 1736 1811.25 1736 1767.5 1823.5 1855 1736 1942.5 1736 1898.75 1470.5 1898.75Z" stroke="#000000" stroke-width="4.58333" stroke-miterlimit="8" fill="#70AD47" fill-rule="evenodd"/><rect x="1805.5" y="2018.5" width="1429" height="130" stroke="#000000" stroke-width="4.58333" stroke-miterlimit="8" fill="#BF9000"/><rect x="2025.5" y="1629.5" width="64.9999" height="389" stroke="#000000" stroke-width="4.58333" stroke-miterlimit="8" fill="#BF9000"/><rect x="2487.5" y="1629.5" width="65" height="389" stroke="#000000" stroke-width="4.58333" stroke-miterlimit="8" fill="#BF9000"/><rect x="2941.5" y="1629.5" width="65" height="389" stroke="#000000" stroke-width="4.58333" stroke-miterlimit="8" fill="#BF9000"/><path d="M2813.5 1908.33C2813.5 1902.35 2818.35 1897.5 2824.33 1897.5L3127.67 1897.5C3133.65 1897.5 3138.5 1902.35 3138.5 1908.33L3138.5 1951.67C3138.5 1957.65 3133.65 1962.5 3127.67 1962.5L2824.33 1962.5C2818.35 1962.5 2813.5 1957.65 2813.5 1951.67Z" stroke="#000000" stroke-width="4.58333" stroke-miterlimit="8" fill="#0000FF" fill-rule="evenodd"/><path d="M2846.5 1843.33C2846.5 1837.35 2851.35 1832.5 2857.33 1832.5L3094.67 1832.5C3100.65 1832.5 3105.5 1837.35 3105.5 1843.33L3105.5 1886.67C3105.5 1892.65 3100.65 1897.5 3094.67 1897.5L2857.33 1897.5C2851.35 1897.5 2846.5 1892.65 2846.5 1886.67Z" stroke="#000000" stroke-width="4.58333" stroke-miterlimit="8" fill="#FF0000" fill-rule="evenodd"/><path d="M2878.5 1778.33C2878.5 1772.35 2883.35 1767.5 2889.33 1767.5L3062.67 1767.5C3068.65 1767.5 3073.5 1772.35 3073.5 1778.33L3073.5 1821.67C3073.5 1827.65 3068.65 1832.5 3062.67 1832.5L2889.33 1832.5C2883.35 1832.5 2878.5 1827.65 2878.5 1821.67Z" stroke="#000000" stroke-width="4.58333" stroke-miterlimit="8" fill="#FF7700" fill-rule="evenodd"/><path d="M2782.5 1964.33C2782.5 1958.35 2787.35 1953.5 2793.33 1953.5L3161.67 1953.5C3167.65 1953.5 3172.5 1958.35 3172.5 1964.33L3172.5 2007.67C3172.5 2013.65 3167.65 2018.5 3161.67 2018.5L2793.33 2018.5C2787.35 2018.5 2782.5 2013.65 2782.5 2007.67Z" stroke="#000000" stroke-width="4.58333" stroke-miterlimit="8" fill="#00AA00" fill-rule="evenodd"/><rect x="67.4999" y="2018.5" width="1429" height="130" stroke="#000000" stroke-width="4.58333" stroke-miterlimit="8" fill="#BF9000"/><rect x="287.5" y="1629.5" width="65" height="389" stroke="#000000" stroke-width="4.58333" stroke-miterlimit="8" fill="#BF9000"/><rect x="749.5" y="1629.5" width="65" height="389" stroke="#000000" stroke-width="4.58333" stroke-miterlimit="8" fill="#BF9000"/><rect x="1204.5" y="1629.5" width="65" height="389" stroke="#000000" stroke-width="4.58333" stroke-miterlimit="8" fill="#BF9000"/><path d="M617.5 1964.33C617.5 1958.35 622.35 1953.5 628.333 1953.5L931.667 1953.5C937.65 1953.5 942.5 1958.35 942.5 1964.33L942.5 2007.67C942.5 2013.65 937.65 2018.5 931.667 2018.5L628.333 2018.5C622.35 2018.5 617.5 2013.65 617.5 2007.67Z" stroke="#000000" stroke-width="4.58333" stroke-miterlimit="8" fill="#0000FF" fill-rule="evenodd"/><path d="M650.5 1899.33C650.5 1893.35 655.35 1888.5 661.333 1888.5L898.667 1888.5C904.65 1888.5 909.5 1893.35 909.5 1899.33L909.5 1942.67C909.5 1948.65 904.65 1953.5 898.667 1953.5L661.333 1953.5C655.35 1953.5 650.5 1948.65 650.5 1942.67Z" stroke="#000000" stroke-width="4.58333" stroke-miterlimit="8" fill="#FF0000" fill-rule="evenodd"/><path d="M682.5 1834.33C682.5 1828.35 687.35 1823.5 693.333 1823.5L866.667 1823.5C872.65 1823.5 877.5 1828.35 877.5 1834.33L877.5 1877.67C877.5 1883.65 872.65 1888.5 866.667 1888.5L693.333 1888.5C687.35 1888.5 682.5 1883.65 682.5 1877.67Z" stroke="#000000" stroke-width="4.58333" stroke-miterlimit="8" fill="#FF7700" fill-rule="evenodd"/><path d="M1045.5 1964.33C1045.5 1958.35 1050.35 1953.5 1056.33 1953.5L1423.67 1953.5C1429.65 1953.5 1434.5 1958.35 1434.5 1964.33L1434.5 2007.67C1434.5 2013.65 1429.65 2018.5 1423.67 2018.5L1056.33 2018.5C1050.35 2018.5 1045.5 2013.65 1045.5 2007.67Z" stroke="#000000" stroke-width="4.58333" stroke-miterlimit="8" fill="#00AA00" fill-rule="evenodd"/><rect x="522" y="1810" width="507" height="240" stroke="#000000" stroke-width="13.75" stroke-miterlimit="8" stroke-dasharray="13.75 13.75" fill="none"/><path d="M769.127 1810.25 769.444 1797.68 770.474 1785.01 772.144 1772.35 774.454 1759.77 777.338 1747.34 780.799 1735.03 784.838 1722.85 789.443 1710.89 793.616 1701.17 806.251 1706.6 802.129 1716.2 802.228 1715.95 797.728 1727.64 797.838 1727.33 793.9 1739.21 793.993 1738.91 790.618 1750.91 790.697 1750.6 787.884 1762.72 787.949 1762.41 785.699 1774.66 785.753 1774.32 784.128 1786.63 784.165 1786.29 783.165 1798.6 783.185 1798.22 782.872 1810.59ZM813.622 1663.81 819.617 1654.57 826.966 1644.15 834.706 1634.11 842.817 1624.46 851.249 1615.14 860.03 1606.23 869.128 1597.84 878.543 1589.83 888.159 1582.39 889.457 1581.47 897.401 1592.7 896.221 1593.53 896.455 1593.36 887.08 1600.61 887.328 1600.41 878.141 1608.22 878.349 1608.04 869.474 1616.22 869.709 1616 861.146 1624.68 861.349 1624.47 853.099 1633.59 853.261 1633.41 845.324 1642.85 845.508 1642.62 837.945 1652.43 838.117 1652.2 830.93 1662.38 831.08 1662.16 825.157 1671.29ZM925.573 1559.57 929.086 1557.82 939.745 1553.17 950.609 1549.16 961.56 1545.79 972.669 1543.12 983.863 1541.17 995.085 1540 1006.34 1539.61 1028.24 1540.11 1036.02 1540.61 1035.14 1554.34 1027.5 1553.84 1027.78 1553.86 1006.22 1553.36 1006.61 1553.35 995.8 1553.73 996.278 1553.7 985.528 1554.82 985.993 1554.76 975.243 1556.63 975.665 1556.54 964.978 1559.11 965.396 1558.99 954.834 1562.24 955.192 1562.12 944.692 1566 945.062 1565.85 934.749 1570.35 935.074 1570.2 931.722 1571.87ZM1077.61 1544.65 1092.07 1546.76 1112.23 1550.57 1131.51 1555.07 1149.86 1560.15 1166.97 1565.75 1175.13 1568.83 1182.87 1571.97 1185.46 1573.11 1179.89 1585.68 1177.4 1584.58 1177.61 1584.67 1170.04 1581.61 1170.19 1581.66 1162.26 1578.66 1162.55 1578.77 1145.74 1573.27 1146.04 1573.36 1127.98 1568.36 1128.25 1568.43 1109.25 1563.99 1109.54 1564.05 1089.66 1560.3 1089.94 1560.35 1075.63 1558.26ZM1229.27 1583.48 1236.66 1629 1195.81 1607.6Z"/></g></svg>