<svg width="2695" height="1334" xmlns="http://www.w3.org/2000/svg" xmlns:xlink="http://www.w3.org/1999/xlink" xml:space="preserve" overflow="hidden"><defs><clipPath id="clip0"><rect x="210" y="911" width="2695" height="1334"/></clipPath></defs><g clip-path="url(#clip0)" transform="translate(-210 -911)"><rect x="227.5" y="920.5" width="1784" height="133" stroke="#FF7700" stroke-width="3.4375" stroke-linejoin="round" stroke-miterlimit="10" fill="none"/><text font-family="Courier New,Courier New_MSFontService,sans-serif" font-weight="400" font-size="83" transform="matrix(1 0 0 1 259.875 1009)">factorial(4) = 4 * <tspan fill="#00AA00" font-size="83" x="936.146" y="0">factorial(3)</tspan></text><rect x="459.5" y="1208.5" width="1784" height="133" stroke="#FF7700" stroke-width="3.4375" stroke-linejoin="round" stroke-miterlimit="10" fill="none"/><text fill="#00AA00" font-family="Courier New,Courier New_MSFontService,sans-serif" font-weight="400" font-size="83" transform="matrix(1 0 0 1 491.906 1298)">factorial(3) <tspan fill="#000000" font-size="83" x="640.521" y="0">= 3 * </tspan><tspan fill="#0000FF" font-size="83" x="936.146" y="0">factorial(2)</tspan></text><rect x="796.5" y="1498.5" width="1784" height="134" stroke="#FF7700" stroke-width="3.4375" stroke-linejoin="round" stroke-miterlimit="10" fill="none"/><text fill="#0000FF" font-family="Courier New,Courier New_MSFontService,sans-serif" font-weight="400" font-size="83" transform="matrix(1 0 0 1 829.115 1588)">factorial(2) <tspan fill="#000000" font-size="83" x="640.521" y="0">= 2 * </tspan><tspan fill="#FF0000" font-size="83" x="936.146" y="0">factorial(1)</tspan></text><rect x="1119.5" y="1789.5" width="1784" height="133" stroke="#FF7700" stroke-width="3.4375" stroke-linejoin="round" stroke-miterlimit="10" fill="none"/><text fill="#FF0000" font-family="Courier New,Courier New_MSFontService,sans-serif" font-weight="400" font-size="83" transform="matrix(1 0 0 1 1151.91 1878)">factorial(1) <tspan fill="#000000" font-size="83" x="640.521" y="0">= 1 * </tspan><tspan fill="#900090" font-size="83" x="936.146" y="0">factorial(0)</tspan></text><rect x="1399.5" y="2079.5" width="966" height="134" stroke="#00AA00" stroke-width="3.4375" stroke-linejoin="round" stroke-miterlimit="10" fill="none"/><text fill="#900090" font-family="Courier New,Courier New_MSFontService,sans-serif" font-weight="400" font-size="83" transform="matrix(1 0 0 1 1431.71 2169)">factorial(0) <tspan fill="#000000" font-size="83" x="640.521" y="0">= 1</tspan></text><path d="M1446.62 1051.91 1446 1056.58 1443.83 1061.7 1440.73 1066.39 1436.6 1070.82 1431.66 1074.91 1426.02 1078.85 1419.55 1082.66 1412.35 1086.32 1404.39 1089.94 1395.77 1093.42 1386.44 1096.81 1376.44 1100.12 1365.83 1103.29 1354.65 1106.39 1342.88 1109.43 1330.55 1112.27 1317.69 1115.05 1304.4 1117.63 1290.68 1120.15 1276.45 1122.54 1261.91 1124.74 1246.98 1126.76 1216.21 1130.4 1184.41 1133.29 1151.86 1135.43 1118.75 1136.75 1085.47 1137.25 1052.27 1137.69 1052.46 1137.68 1019.52 1138.99 1019.71 1138.98 987.332 1141.17 987.491 1141.16 955.866 1144.03 956.04 1144.02 925.477 1147.58 925.63 1147.56 910.817 1149.62 910.894 1149.61 896.394 1151.8 896.484 1151.78 882.422 1154.1 882.542 1154.08 868.854 1156.58 868.961 1156.56 855.774 1159.18 855.856 1159.16 843.169 1161.85 843.322 1161.82 831.135 1164.69 831.241 1164.67 819.616 1167.6 819.766 1167.56 808.703 1170.63 808.841 1170.59 798.403 1173.71 798.593 1173.65 788.781 1176.9 788.965 1176.84 779.84 1180.15 780.104 1180.05 771.729 1183.49 771.925 1183.4 764.238 1186.84 766.043 1185.66 760.311 1190.85 751.087 1180.65 757.629 1174.73 766.41 1170.81 775.015 1167.27 784.365 1163.88 794.364 1160.57 804.966 1157.39 816.172 1154.29 827.925 1151.32 840.242 1148.42 853.048 1145.7 866.33 1143.06 880.131 1140.54 894.298 1138.21 908.882 1136.01 923.809 1133.93 954.535 1130.35 986.326 1127.46 1018.88 1125.26 1052 1123.94 1085.27 1123.5 1118.45 1123 1118.28 1123.01 1151.22 1121.69 1151.04 1121.7 1183.42 1119.58 1183.25 1119.59 1214.87 1116.72 1214.69 1116.74 1245.31 1113.11 1245.2 1113.12 1260.01 1111.12 1259.9 1111.14 1274.34 1108.95 1274.23 1108.97 1288.35 1106.6 1288.25 1106.61 1301.88 1104.11 1301.81 1104.13 1314.99 1101.56 1314.86 1101.59 1327.61 1098.84 1327.51 1098.86 1339.7 1096.05 1339.53 1096.09 1351.15 1093.09 1351.03 1093.12 1362.1 1090.06 1361.96 1090.1 1372.4 1086.98 1372.21 1087.04 1382.02 1083.79 1381.84 1083.85 1390.96 1080.54 1390.74 1080.62 1399.11 1077.25 1398.83 1077.37 1406.52 1073.87 1406.25 1074 1413.12 1070.5 1412.76 1070.7 1418.82 1067.14 1418.37 1067.43 1423.56 1063.8 1423.11 1064.14 1427.48 1060.52 1426.84 1061.12 1430.28 1057.44 1429.57 1058.33 1432.01 1054.65 1431.41 1055.76 1432.98 1052.07 1432.49 1053.84 1432.99 1050.09ZM774.984 1195.79 731 1209.66 746.294 1166.15Z" fill="#00AA00"/><path d="M1678.73 1339.78 1678.21 1344.29 1676.54 1349.4 1673.85 1354.22 1670.41 1358.71 1666.2 1362.99 1661.39 1367.04 1655.93 1371.02 1649.76 1374.87 1643.01 1378.6 1635.69 1382.16 1627.84 1385.7 1619.37 1389.1 1610.38 1392.42 1600.96 1395.6 1590.99 1398.71 1580.58 1401.7 1569.75 1404.48 1558.52 1407.2 1546.95 1409.79 1534.92 1412.19 1510.11 1416.6 1484.21 1420.32 1457.37 1423.34 1429.91 1425.55 1402 1426.93 1374.01 1427.37 1346.13 1427.81 1346.36 1427.8 1318.68 1429.18 1318.89 1429.17 1291.64 1431.35 1291.86 1431.33 1265.29 1434.33 1265.5 1434.31 1239.75 1437.99 1239.96 1437.96 1215.33 1442.27 1215.54 1442.23 1203.72 1444.67 1203.8 1444.66 1192.3 1447.16 1192.46 1447.12 1181.4 1449.81 1181.52 1449.77 1170.84 1452.59 1170.98 1452.55 1160.73 1455.48 1160.85 1455.45 1151.03 1458.45 1151.21 1458.39 1141.9 1461.52 1142.1 1461.44 1133.35 1464.69 1133.52 1464.63 1125.27 1467.94 1125.54 1467.83 1117.91 1471.27 1118.14 1471.16 1111.08 1474.66 1112.42 1473.78 1103.19 1481.47 1094.39 1470.9 1104.25 1462.7 1112.15 1458.78 1120.02 1455.24 1128.48 1451.84 1137.42 1448.52 1146.92 1445.33 1156.88 1442.28 1167.26 1439.31 1178.09 1436.46 1189.29 1433.74 1200.91 1431.21 1212.86 1428.75 1237.69 1424.4 1263.65 1420.68 1290.42 1417.66 1317.89 1415.45 1345.8 1414.07 1373.79 1413.63 1401.67 1413.19 1401.43 1413.2 1429.12 1411.82 1428.91 1411.83 1456.16 1409.65 1455.94 1409.67 1482.57 1406.67 1482.36 1406.69 1508.05 1403.01 1507.82 1403.04 1532.45 1398.67 1532.3 1398.7 1544.17 1396.32 1544.02 1396.35 1555.46 1393.79 1555.35 1393.82 1566.47 1391.13 1566.37 1391.15 1577.06 1388.4 1576.88 1388.45 1587.13 1385.52 1586.97 1385.56 1596.79 1382.5 1596.64 1382.55 1605.89 1379.42 1605.71 1379.49 1614.52 1376.24 1614.34 1376.31 1622.59 1373 1622.32 1373.11 1629.95 1369.67 1629.76 1369.76 1636.83 1366.32 1636.51 1366.48 1642.94 1362.92 1642.64 1363.1 1648.45 1359.48 1648.04 1359.76 1653.1 1356.07 1652.72 1356.37 1657.09 1352.68 1656.62 1353.12 1660.31 1349.37 1659.75 1350 1662.63 1346.25 1662.08 1347.09 1664.21 1343.28 1663.68 1344.48 1664.93 1340.67 1664.63 1342.03 1665.07 1338.22ZM1118.79 1484.72 1076 1501.92 1087.91 1457.36Z" fill="#0000FF"/><path d="M2016.91 1631.81 2016.38 1636.27 2014.6 1641.27 2011.87 1646 2008.26 1650.37 2004.01 1654.47 1999.04 1658.47 1993.44 1662.25 1987.16 1665.95 1980.24 1669.55 1972.75 1673.03 1964.7 1676.45 1956.04 1679.72 1946.82 1682.9 1937.16 1686.01 1926.93 1689 1916.29 1691.85 1905.24 1694.56 1893.74 1697.22 1881.79 1699.68 1869.55 1702.02 1844.11 1706.3 1817.53 1709.89 1790.07 1712.79 1761.93 1714.86 1733.36 1716.18 1704.64 1716.69 1676 1717.12 1676.21 1717.12 1647.84 1718.43 1648.04 1718.42 1620.1 1720.54 1620.3 1720.52 1593.05 1723.4 1593.25 1723.38 1566.88 1726.94 1567.1 1726.9 1541.85 1731.15 1541.99 1731.13 1529.87 1733.44 1529.98 1733.42 1518.23 1735.86 1518.33 1735.83 1506.9 1738.4 1507.07 1738.36 1496.13 1741.11 1496.23 1741.08 1485.73 1743.89 1485.88 1743.85 1475.82 1746.79 1475.96 1746.74 1466.46 1749.74 1466.65 1749.68 1457.65 1752.81 1457.85 1752.73 1449.35 1755.98 1449.58 1755.89 1441.76 1759.2 1441.94 1759.13 1434.69 1762.44 1436.11 1761.57 1426.87 1768.92 1418.31 1758.16 1428.21 1750.28 1436.31 1746.58 1444.32 1743.19 1453.04 1739.85 1462.23 1736.66 1471.89 1733.61 1482.1 1730.63 1492.73 1727.78 1503.8 1725 1515.38 1722.4 1527.24 1719.94 1539.49 1717.61 1564.92 1713.33 1591.51 1709.74 1618.96 1706.84 1647.1 1704.7 1675.68 1703.38 1704.4 1702.94 1733.02 1702.44 1732.83 1702.44 1761.2 1701.13 1761.01 1701.14 1788.95 1699.08 1788.73 1699.1 1815.98 1696.23 1815.79 1696.25 1842.16 1692.69 1841.94 1692.72 1867.19 1688.47 1867.04 1688.5 1879.17 1686.18 1879.07 1686.2 1890.88 1683.77 1890.72 1683.8 1902.1 1681.18 1902 1681.2 1912.94 1678.51 1912.8 1678.55 1923.3 1675.73 1923.15 1675.78 1933.22 1672.84 1933.03 1672.89 1942.53 1669.83 1942.4 1669.88 1951.46 1666.75 1951.28 1666.82 1959.71 1663.63 1959.46 1663.73 1967.27 1660.42 1967.05 1660.52 1974.3 1657.14 1974.04 1657.27 1980.66 1653.84 1980.34 1654.02 1986.28 1650.52 1985.92 1650.74 1991.11 1647.24 1990.64 1647.58 1995.14 1643.96 1994.68 1644.37 1998.43 1640.74 1997.91 1641.3 2000.91 1637.68 2000.25 1638.63 2002.37 1634.94 2001.85 1636.07 2003.17 1632.38 2002.82 1633.88 2003.25 1630.19ZM1442.31 1772.69 1399 1788.54 1412.3 1744.38Z" fill="#FF0000"/><path d="M2337.07 1919.88 2336.47 1924.5 2334.61 1929.67 2331.67 1934.51 2327.86 1939.06 2323.26 1943.31 2318 1947.41 2311.96 1951.37 2305.27 1955.17 2297.91 1958.95 2289.83 1962.57 2281.16 1966.1 2271.9 1969.49 2262.05 1972.79 2251.64 1976.03 2240.67 1979.14 2229.22 1982.11 2217.28 1984.95 2204.92 1987.66 2192.19 1990.25 2178.99 1992.71 2151.68 1997.12 2123.1 2000.83 2093.6 2003.85 2063.34 2006.05 2032.65 2007.44 2001.73 2007.94 1970.98 2008.44 1971.18 2008.43 1940.62 2009.81 1940.81 2009.79 1910.81 2011.98 1911.01 2011.96 1881.63 2014.96 1881.82 2014.94 1853.51 2018.63 1853.72 2018.6 1826.53 2022.98 1826.7 2022.95 1813.63 2025.38 1813.74 2025.36 1801.12 2027.93 1801.22 2027.9 1788.97 2030.59 1789.09 2030.56 1777.28 2033.38 1777.45 2033.33 1766.14 2036.33 1766.25 2036.3 1755.43 2039.36 1755.57 2039.33 1745.32 2042.45 1745.5 2042.39 1735.81 2045.64 1736.02 2045.57 1726.96 2048.94 1727.15 2048.87 1718.72 2052.3 1718.93 2052.21 1711.12 2055.71 1711.41 2055.58 1704.34 2059.14 1706.26 2057.71 1701.53 2062.74 1691.51 2053.32 1697.07 2047.41 1705.36 2043.23 1713.42 2039.62 1722.06 2036.09 1731.33 2032.64 1741.21 2029.33 1751.62 2026.15 1762.55 2023.06 1774.01 2020.02 1785.96 2017.17 1798.33 2014.46 1811.06 2011.88 1824.26 2009.41 1851.63 2005.01 1880.14 2001.3 1909.71 1998.28 1939.91 1996.07 1970.66 1994.69 2001.51 1994.19 2032.32 1993.69 2032.13 1993.69 2062.63 1992.32 2062.44 1992.33 2092.5 1990.14 2092.3 1990.16 2121.61 1987.16 2121.42 1987.18 2149.8 1983.49 2149.59 1983.53 2176.72 1979.15 2176.55 1979.18 2189.61 1976.74 2189.51 1976.76 2202.13 1974.2 2202.02 1974.22 2214.27 1971.53 2214.16 1971.56 2225.97 1968.75 2225.83 1968.78 2237.14 1965.85 2237 1965.89 2247.81 1962.82 2247.64 1962.87 2257.89 1959.69 2257.75 1959.73 2267.44 1956.48 2267.26 1956.54 2276.33 1953.23 2276.09 1953.32 2284.53 1949.88 2284.31 1949.98 2292.12 1946.48 2291.8 1946.63 2298.86 1943.01 2298.6 1943.15 2304.97 1939.52 2304.6 1939.75 2310.23 1936.06 2309.77 1936.39 2314.58 1932.64 2314.15 1933.01 2318.21 1929.26 2317.6 1929.9 2320.79 1926.09 2320.18 1926.93 2322.49 1923.12 2321.91 1924.36 2323.28 1920.54 2322.93 1922 2323.43 1918.12ZM1716.27 2067.13 1673 2083.09 1686.18 2038.9Z" fill="#900090"/></g></svg>