<svg width="1803" height="1172" xmlns="http://www.w3.org/2000/svg" xmlns:xlink="http://www.w3.org/1999/xlink" xml:space="preserve" overflow="hidden"><defs><clipPath id="clip0"><rect x="371" y="1173" width="1803" height="1172"/></clipPath></defs><g clip-path="url(#clip0)" transform="translate(-371 -1173)"><rect x="388.5" y="1182.5" width="1784" height="133" stroke="#FF7700" stroke-width="3.4375" stroke-linejoin="round" stroke-miterlimit="10" fill="none"/><text font-family="Courier New,Courier New_MSFontService,sans-serif" font-weight="400" font-size="83" transform="matrix(1 0 0 1 420.512 1271)">mover(4) = 1 + 2 * <tspan fill="#00AA00" font-size="83" x="936.146" y="0">mover(3)</tspan></text><rect x="388.5" y="1426.5" width="1784" height="133" stroke="#FF7700" stroke-width="3.4375" stroke-linejoin="round" stroke-miterlimit="10" fill="none"/><text fill="#00AA00" font-family="Courier New,Courier New_MSFontService,sans-serif" font-weight="400" font-size="83" transform="matrix(1 0 0 1 420.512 1515)">mover(3) <tspan fill="#000000" font-size="83" x="443.438" y="0">= 1 + 2 * </tspan><tspan fill="#0000FF" font-size="83" x="936.146" y="0">mover(2)</tspan></text><rect x="388.5" y="1669.5" width="1784" height="133" stroke="#FF7700" stroke-width="3.4375" stroke-linejoin="round" stroke-miterlimit="10" fill="none"/><text fill="#0000FF" font-family="Courier New,Courier New_MSFontService,sans-serif" font-weight="400" font-size="83" transform="matrix(1 0 0 1 420.512 1759)">mover(2) <tspan fill="#000000" font-size="83" x="443.438" y="0">= 1 + 2 * </tspan><tspan fill="#FF0000" font-size="83" x="936.146" y="0">mover(1)</tspan></text><rect x="388.5" y="1930.5" width="929" height="133" stroke="#FF7700" stroke-width="3.4375" stroke-linejoin="round" stroke-miterlimit="10" fill="none"/><text fill="#FF0000" font-family="Courier New,Courier New_MSFontService,sans-serif" font-weight="400" font-size="83" transform="matrix(1 0 0 1 420.512 2020)">mover(1) <tspan fill="#000000" font-size="83" x="443.438" y="0">= 1 </tspan></text><path d="M1474.77 1313.74 1473.73 1317.7 1470.37 1322.1 1465.97 1325.59 1460.75 1328.56 1454.5 1331.42 1447.22 1334.13 1438.93 1336.72 1429.58 1339.28 1419.33 1341.77 1408.06 1344.17 1395.94 1346.57 1382.88 1348.84 1368.99 1351.11 1354.27 1353.31 1338.81 1355.38 1322.62 1357.39 1305.82 1359.33 1288.32 1361.21 1270.19 1362.97 1251.57 1364.6 1232.4 1366.17 1212.78 1367.61 1192.74 1368.92 1172.3 1370.18 1130.41 1372.18 1087.57 1373.75 1043.96 1374.69 1000.1 1375 956.29 1375.31 956.389 1375.31 912.889 1376.25 912.982 1376.25 870.17 1377.75 870.268 1377.74 828.518 1379.8 828.6 1379.8 808.225 1381.05 808.254 1381.05 788.254 1382.36 788.306 1382.36 768.681 1383.79 768.74 1383.79 749.678 1385.35 749.714 1385.35 731.089 1386.97 731.157 1386.97 713.157 1388.72 713.226 1388.71 695.789 1390.59 695.841 1390.58 679.028 1392.52 679.088 1392.51 662.963 1394.51 663.03 1394.5 647.655 1396.56 647.763 1396.55 633.2 1398.74 633.284 1398.72 619.472 1400.97 619.544 1400.96 606.607 1403.21 606.764 1403.18 594.764 1405.56 594.864 1405.54 583.739 1407.91 583.922 1407.87 573.86 1410.31 574.98 1409.93 565.012 1414.26 559.534 1401.65 570.046 1397.08 580.777 1394.48 592.044 1392.08 604.172 1389.68 617.225 1387.41 631.115 1385.15 645.774 1382.94 661.236 1380.87 677.425 1378.86 694.293 1376.92 711.791 1375.04 729.86 1373.28 748.537 1371.65 767.647 1370.08 787.328 1368.64 807.368 1367.33 827.799 1366.07 869.639 1364.01 912.547 1362.5 956.143 1361.56 1000 1361.25 1043.82 1360.94 1043.72 1360.94 1087.22 1360 1087.12 1360 1129.87 1358.44 1129.79 1358.45 1171.6 1356.45 1171.51 1356.45 1191.88 1355.2 1191.85 1355.2 1211.85 1353.89 1211.8 1353.89 1231.36 1352.46 1231.31 1352.46 1250.43 1350.9 1250.39 1350.9 1268.95 1349.28 1268.89 1349.28 1286.95 1347.53 1286.88 1347.54 1304.32 1345.66 1304.26 1345.67 1321.01 1343.73 1320.96 1343.74 1337.08 1341.74 1337.01 1341.75 1352.39 1339.69 1352.29 1339.7 1366.91 1337.51 1366.82 1337.53 1380.64 1335.28 1380.56 1335.29 1393.5 1333.04 1393.34 1333.07 1405.34 1330.69 1405.24 1330.71 1416.37 1328.34 1416.19 1328.38 1426.25 1325.94 1426.05 1325.99 1435.17 1323.49 1434.94 1323.56 1442.94 1321.06 1442.59 1321.18 1449.47 1318.62 1449.01 1318.81 1454.76 1316.18 1454.21 1316.46 1458.71 1313.9 1457.85 1314.49 1461.16 1311.86 1459.96 1313.08 1461.96 1310.46 1460.78 1312.88 1461.47 1310.26ZM578.098 1422.86 532 1424.24 558.556 1386.53Z" fill="#00AA00"/><path d="M1474.05 1556.7 1473.02 1560.7 1469.72 1565.14 1465.42 1568.7 1460.16 1571.84 1453.94 1574.71 1446.74 1577.48 1438.51 1580.14 1429.28 1582.77 1419.02 1585.32 1407.86 1587.79 1395.81 1590.19 1382.88 1592.59 1369.1 1594.85 1354.51 1597.11 1339.18 1599.25 1323.17 1601.32 1306.42 1603.33 1289.09 1605.21 1271.1 1606.97 1252.62 1608.66 1233.62 1610.29 1214.19 1611.73 1194.27 1613.11 1173.96 1614.36 1132.5 1616.49 1089.9 1618 1046.68 1619 1003.19 1619.31 959.748 1619.62 959.858 1619.62 916.733 1620.62 916.817 1620.62 874.379 1622.12 874.488 1622.12 833.051 1624.24 833.124 1624.24 812.936 1625.49 812.964 1625.49 793.089 1626.8 793.167 1626.79 773.792 1628.29 773.825 1628.29 754.825 1629.85 754.888 1629.85 736.45 1631.53 736.517 1631.53 718.642 1633.34 718.692 1633.33 701.442 1635.21 701.517 1635.2 684.829 1637.2 684.894 1637.19 668.956 1639.26 669.023 1639.25 653.773 1641.37 653.849 1641.36 639.349 1643.55 639.469 1643.53 625.782 1645.84 625.857 1645.83 613.045 1648.14 613.199 1648.11 601.262 1650.55 601.374 1650.52 590.374 1652.96 590.544 1652.92 580.481 1655.42 581.648 1655.02 571.902 1659.41 566.254 1646.87 576.565 1642.23 587.314 1639.56 598.455 1637.09 610.525 1634.62 623.453 1632.29 637.238 1629.96 651.837 1627.76 667.158 1625.62 683.161 1623.55 699.918 1621.54 717.231 1619.66 735.164 1617.84 753.666 1616.15 772.714 1614.58 792.144 1613.08 812.072 1611.76 832.31 1610.51 873.839 1608.38 916.373 1606.88 959.594 1605.88 1003.09 1605.56 1046.52 1605.25 1046.41 1605.25 1089.54 1604.25 1089.46 1604.25 1131.96 1602.75 1131.85 1602.76 1173.22 1600.63 1173.15 1600.64 1193.4 1599.39 1193.35 1599.39 1213.22 1598.02 1213.19 1598.02 1232.57 1596.58 1232.49 1596.59 1251.42 1594.96 1251.38 1594.97 1269.82 1593.28 1269.78 1593.28 1287.72 1591.53 1287.64 1591.54 1304.89 1589.67 1304.82 1589.67 1321.51 1587.67 1321.44 1587.68 1337.38 1585.62 1337.31 1585.63 1352.56 1583.5 1352.46 1583.52 1366.96 1581.27 1366.9 1581.28 1380.58 1579.03 1380.45 1579.05 1393.26 1576.68 1393.17 1576.69 1405.11 1574.32 1404.96 1574.35 1415.96 1571.91 1415.79 1571.95 1425.85 1569.45 1425.63 1569.51 1434.63 1566.95 1434.4 1567.02 1442.34 1564.46 1441.98 1564.58 1448.79 1561.96 1448.38 1562.13 1454.07 1559.51 1453.42 1559.85 1457.92 1557.16 1457.07 1557.76 1460.32 1555.08 1459.18 1556.27 1461.18 1553.58 1460.04 1555.98 1460.73 1553.3ZM585.079 1667.86 539 1669.78 565.108 1631.77Z" fill="#0000FF"/><path d="M1474.85 1801.54 1473.87 1805.8 1470.68 1810.49 1466.42 1814.34 1461.18 1817.76 1454.93 1820.99 1447.63 1824.04 1439.39 1826.96 1430.15 1829.85 1419.95 1832.65 1408.72 1835.44 1396.64 1838.1 1383.71 1840.75 1369.9 1843.27 1355.31 1845.72 1339.97 1848.11 1323.89 1850.38 1307.13 1852.57 1289.75 1854.64 1271.82 1856.65 1253.31 1858.53 1234.25 1860.29 1214.76 1861.92 1194.89 1863.42 1174.57 1864.8 1132.98 1867.12 1090.43 1868.81 1047.14 1869.87 1003.58 1870.25 960.085 1870.62 960.195 1870.62 917.07 1871.69 917.173 1871.68 874.673 1873.37 874.784 1873.36 833.346 1875.68 833.429 1875.67 813.179 1877.05 813.23 1877.04 793.355 1878.54 793.413 1878.54 774.038 1880.16 774.094 1880.16 755.094 1881.91 755.159 1881.9 736.721 1883.78 736.79 1883.77 718.915 1885.77 718.964 1885.76 701.651 1887.83 701.732 1887.82 685.044 1890 685.108 1890 669.108 1892.25 669.208 1892.23 653.958 1894.61 654.04 1894.59 639.54 1897.03 639.636 1897.01 625.948 1899.51 626.061 1899.49 613.249 1902.05 613.411 1902.02 601.473 1904.71 601.586 1904.68 590.524 1907.37 590.724 1907.32 580.724 1910.07 581.879 1909.63 571.193 1914.77 565.236 1902.38 576.48 1896.97 587.177 1894.03 598.396 1891.31 610.471 1888.59 623.421 1886 637.213 1883.48 651.802 1881.03 667.143 1878.64 683.225 1876.38 699.985 1874.18 717.362 1872.11 735.295 1870.1 753.8 1868.22 772.86 1866.46 792.292 1864.83 812.221 1863.33 832.539 1861.95 874.073 1859.63 916.679 1857.94 959.911 1856.88 1003.47 1856.5 1046.97 1856.13 1046.86 1856.13 1090.04 1855.06 1089.94 1855.07 1132.38 1853.38 1132.27 1853.39 1173.77 1851.07 1173.68 1851.08 1193.93 1849.7 1193.88 1849.71 1213.69 1848.21 1213.64 1848.21 1233.08 1846.59 1233.02 1846.59 1252.02 1844.84 1251.95 1844.85 1270.39 1842.97 1270.32 1842.98 1288.2 1840.98 1288.15 1840.99 1305.46 1838.92 1305.38 1838.93 1322.07 1836.75 1322.01 1836.75 1338.01 1834.5 1337.91 1834.52 1353.16 1832.14 1353.07 1832.16 1367.57 1829.72 1367.48 1829.74 1381.17 1827.24 1381.02 1827.26 1393.83 1824.64 1393.74 1824.66 1405.67 1822.04 1405.49 1822.08 1416.55 1819.33 1416.39 1819.37 1426.39 1816.62 1426.16 1816.69 1435.16 1813.88 1434.92 1813.96 1442.85 1811.14 1442.5 1811.28 1449.37 1808.41 1448.87 1808.64 1454.56 1805.7 1453.95 1806.06 1458.45 1803.12 1457.6 1803.77 1460.85 1800.84 1459.78 1802.07 1461.78 1799.13 1460.76 1801.46 1461.45 1798.46ZM584.926 1922.48 539 1926.69 563.188 1887.42Z" fill="#FF0000"/></g></svg>