<svg width="1803" height="1422" xmlns="http://www.w3.org/2000/svg" xmlns:xlink="http://www.w3.org/1999/xlink" xml:space="preserve" overflow="hidden"><defs><clipPath id="clip0"><rect x="210" y="829" width="1803" height="1422"/></clipPath></defs><g clip-path="url(#clip0)" transform="translate(-210 -829)"><rect x="227.5" y="1887.5" width="1784" height="333" stroke="#00AA00" stroke-width="3.4375" stroke-linejoin="round" stroke-miterlimit="10" fill="none"/><text font-family="Courier New,Courier New_MSFontService,sans-serif" font-weight="400" font-size="83" transform="matrix(1 0 0 1 259.875 1977)">mover(4) = 1 + 2 * <tspan fill="#00AA00" font-size="83" x="936.146" y="0">mover(3)</tspan><tspan font-size="83" x="443.438" y="99">= 1 + 2 * 7</tspan><tspan font-size="83" x="443.438" y="198">= 15</tspan></text><rect x="227.5" y="1471.5" width="1784" height="333" stroke="#00AA00" stroke-width="3.4375" stroke-linejoin="round" stroke-miterlimit="10" fill="none"/><text fill="#00AA00" font-family="Courier New,Courier New_MSFontService,sans-serif" font-weight="400" font-size="83" transform="matrix(1 0 0 1 259.875 1560)">mover(3) <tspan fill="#000000" font-size="83" x="443.438" y="0">= 1 + 2 * </tspan><tspan fill="#0000FF" font-size="83" x="936.146" y="0">mover(2)</tspan><tspan fill="#000000" font-size="83" x="443.438" y="99">= 1 + 2 * 3</tspan><tspan fill="#000000" font-size="83" x="443.438" y="198">= </tspan><tspan font-size="83" x="541.979" y="198">7</tspan></text><rect x="227.5" y="1054.5" width="1784" height="333" stroke="#00AA00" stroke-width="3.4375" stroke-linejoin="round" stroke-miterlimit="10" fill="none"/><text fill="#0000FF" font-family="Courier New,Courier New_MSFontService,sans-serif" font-weight="400" font-size="83" transform="matrix(1 0 0 1 259.875 1144)">mover(2) <tspan fill="#000000" font-size="83" x="443.438" y="0">= 1 + 2 * </tspan><tspan fill="#FF0000" font-size="83" x="936.146" y="0">mover(1)</tspan><tspan fill="#000000" font-size="83" x="443.438" y="99">= 1 + 2 * 1</tspan><tspan fill="#000000" font-size="83" x="443.438" y="198">= </tspan>3</text><rect x="227.5" y="837.5" width="1069" height="134" stroke="#00AA00" stroke-width="3.4375" stroke-linejoin="round" stroke-miterlimit="10" fill="none"/><text fill="#FF0000" font-family="Courier New,Courier New_MSFontService,sans-serif" font-weight="400" font-size="83" transform="matrix(1 0 0 1 259.875 927)">mover(1) <tspan fill="#000000" font-size="83" x="443.438" y="0">= </tspan><tspan font-size="83" x="541.979" y="0">1</tspan></text><path d="M1.26698-6.75725 4.38189-6.1732 8.14521-4.05633 11.1262-1.16851 13.6548 2.07132 16.0253 5.92333 18.1907 10.324 20.2624 15.2024 22.3038 20.6681 24.2617 26.6725 26.1287 33.1748 27.9821 40.2048 29.7691 47.7359 31.4802 55.7208 33.1912 64.1491 34.7729 73.0069 36.3482 82.2693 37.8646 91.9995 39.2535 102.037 41.8925 123.024 44.2198 145.165 46.1686 168.362 47.739 192.295 48.9329 216.8 49.6241 241.745 49.8747 266.806 50.1247 291.806 50.1223 291.684 50.8098 316.434 50.8044 316.291 51.9919 340.729 51.9852 340.612 53.5477 364.425 53.5382 364.298 55.4757 387.298 55.4625 387.158 57.775 409.221 57.7613 409.1 60.3238 429.975 60.3042 429.828 61.7417 439.766 61.7371 439.734 63.1746 449.359 63.1527 449.222 64.7152 458.41 64.6969 458.307 66.3219 467.057 66.3098 466.993 67.9348 475.306 67.9099 475.184 69.5974 483.059 69.5643 482.913 71.3143 490.288 70.9876 489.271 75.7773 500.972 63.0521 506.18 58.0594 493.984 56.1684 486.014 54.4521 478.005 52.809 469.6 51.1686 460.767 49.5857 451.459 48.1356 441.75 46.6852 431.724 44.1063 410.715 41.7802 388.522 39.8314 365.389 38.2609 341.454 37.0671 316.887 36.376 292.005 36.1253 266.944 35.8753 241.944 35.8776 242.065 35.1901 217.253 35.1956 217.397 34.0081 193.022 34.0148 193.138 32.4523 169.325 32.4616 169.451 30.5241 146.388 30.5377 146.531 28.2252 124.531 28.2412 124.67 25.6162 103.795 25.6274 103.88 24.2524 93.9423 24.2695 94.0586 22.7695 84.4336 22.7848 84.5277 21.2223 75.3402 21.2321 75.3961 19.6696 66.6461 19.6999 66.8053 18.0124 58.4928 18.0276 58.5655 16.3401 50.6905 16.3732 50.8373 14.6232 43.4623 14.6646 43.6276 12.8521 36.7526 12.892 36.8973 11.0795 30.5848 11.1512 30.8189 9.27623 25.0689 9.37205 25.343 7.43455 20.1555 7.54695 20.4373 5.60944 15.8748 5.76885 16.2229 3.83135 12.2854 4.14485 12.8532 2.14485 9.60317 2.58033 10.23 0.580329 7.66749 1.21641 8.3754-0.783592 6.4379 0.629454 7.49208-1.37055 6.36708 0.733016 7.13225-1.26698 6.75725ZM84.2201 487.656 85.8924 533.744 48.0182 507.429Z" fill="#00AA00" transform="matrix(1.83697e-16 1 1 -1.83697e-16 828 1801)"/><path d="M1.3064-6.74974 4.33734-6.1631 8.13111-4.02911 11.0723-1.08787 13.5243 2.15501 15.7967 5.9668 17.9584 10.36 19.9778 15.2737 21.9516 20.7346 23.8336 26.7051 25.6993 33.2029 27.4957 40.2601 29.2124 47.763 30.9281 55.7695 32.5124 64.1981 34.0894 73.0293 35.6017 82.2918 37.1146 91.9995 38.5062 102.058 41.0208 123.054 43.2841 145.184 45.1692 168.371 46.7396 192.304 47.8706 216.809 48.5616 241.745 48.8122 266.806 49.0622 291.806 49.0598 291.684 49.7473 316.434 49.7427 316.309 50.8677 340.746 50.8602 340.612 52.4227 364.425 52.4148 364.316 54.2898 387.316 54.277 387.177 56.527 409.24 56.5137 409.12 59.0137 429.995 58.9976 429.87 60.3726 439.808 60.3621 439.734 61.7996 449.359 61.7777 449.222 63.3402 458.41 63.3304 458.354 64.8929 467.104 64.8817 467.042 66.4442 475.355 66.4099 475.184 68.0974 483.059 68.0768 482.966 69.7643 490.342 69.4444 489.318 74.0591 500.837 61.2954 505.95 56.4806 493.933 54.6626 485.987 52.9469 477.98 51.3626 469.552 49.7896 460.743 48.2107 451.459 46.7575 441.729 45.3688 431.692 42.8541 410.695 40.5909 388.503 38.7058 365.379 37.1354 341.446 36.0044 316.879 35.3135 292.005 35.0628 266.944 34.8128 241.944 34.8151 242.065 34.1276 217.253 34.1323 217.379 33.0073 193.004 33.0148 193.138 31.4523 169.325 31.4601 169.432 29.5851 146.37 29.5982 146.512 27.3482 124.512 27.3613 124.63 24.8613 103.755 24.8774 103.88 23.5024 93.9423 23.5195 94.0586 22.0195 84.4336 22.0273 84.4828 20.5273 75.2953 20.5446 75.3961 18.9821 66.6461 18.9933 66.7076 17.4308 58.3951 17.4651 58.5655 15.7776 50.6905 15.7982 50.7835 14.1107 43.4085 14.15 43.5709 12.4 36.6959 12.4545 36.8973 10.642 30.5848 10.693 30.7544 8.88054 25.0044 8.97188 25.2745 7.09688 20.087 7.20353 20.3633 5.32854 15.8008 5.51885 16.2229 3.58135 12.2854 3.84474 12.7704 1.90724 9.52044 2.32859 10.1464 0.391092 7.58387 1.01364 8.29886-0.923859 6.36136 0.566953 7.49208-1.43305 6.36708 0.631099 7.12474-1.3064 6.74974ZM82.6598 487.64 83.8165 533.744 46.239 507.007Z" fill="#0000FF" transform="matrix(1.83697e-16 1 1 -1.83697e-16 828 1386)"/><path d="M1.22984-6.76411 4.50908-6.16788 8.17157-3.99328 11.1837-1.25496 13.7978 2.09433 16.1632 6.01199 18.2982 10.3508 20.4506 15.2611 22.4324 20.7441 24.443 26.7759 26.3162 33.2998 28.1643 40.3097 30.0148 47.9031 31.7312 55.9132 33.4374 64.3808 35.0821 73.2372 36.6607 82.5822 38.1738 92.2281 39.6264 102.333 42.2679 123.402 44.5951 145.668 46.543 168.917 48.1768 192.921 49.3077 217.551 50.0615 242.55 50.3122 267.681 50.5622 292.744 50.5594 292.605 51.3094 317.48 51.3053 317.372 52.4303 341.872 52.4216 341.721 54.0466 365.596 54.0385 365.488 55.976 388.613 55.9625 388.471 58.275 410.533 58.2594 410.397 60.8844 431.397 60.8667 431.266 62.3042 441.203 62.293 441.129 63.793 450.754 63.7777 450.66 65.3402 459.847 65.3235 459.753 66.9485 468.566 66.9251 468.445 68.6126 476.757 68.5997 476.695 70.2872 484.633 70.2388 484.422 72.0513 491.797 71.7383 490.835 76.6013 502.724 63.8747 507.93 58.8197 495.571 56.8603 487.598 55.1437 479.524 53.4377 471.12 51.7928 462.2 50.2143 452.918 48.7012 443.209 47.2488 433.169 44.6071 412.035 42.28 389.833 40.332 366.583 38.6982 342.579 37.5673 317.949 36.8135 292.95 36.5628 267.819 36.3128 242.756 36.3156 242.895 35.5656 218.02 35.5697 218.128 34.4447 193.628 34.4534 193.779 32.8284 169.904 32.8365 170.012 30.899 146.886 30.9122 147.027 28.5997 124.902 28.6159 125.043 25.9909 104.105 26.0075 104.228 24.57 94.2282 24.5831 94.3154 23.0831 84.7529 23.096 84.8326 21.5335 75.5826 21.5531 75.6928 19.9281 66.9428 19.9479 67.0455 18.2605 58.6705 18.2776 58.753 16.5901 50.878 16.633 51.0653 14.8205 43.6278 14.8521 43.7526 13.0396 36.8776 13.0795 37.0223 11.267 30.7098 11.3528 30.9866 9.4153 25.1741 9.47188 25.337 7.59688 20.1495 7.7659 20.5727 5.7659 16.0102 5.89385 16.2854 3.95635 12.3479 4.23956 12.866 2.23956 9.55348 2.70533 10.23 0.705329 7.66749 1.50037 8.52459-0.562126 6.64959 0.552546 7.474-1.44745 6.2865 0.832663 7.13911-1.22984 6.76411ZM84.9887 489.356 86.8192 535.438 48.8548 509.253Z" fill="#FF0000" transform="matrix(1.83697e-16 1 1 -1.83697e-16 828 967)"/></g></svg>