<svg width="3003" height="638" xmlns="http://www.w3.org/2000/svg" xmlns:xlink="http://www.w3.org/1999/xlink" xml:space="preserve" overflow="hidden"><defs><clipPath id="clip0"><rect x="169" y="1650" width="3003" height="638"/></clipPath></defs><g clip-path="url(#clip0)" transform="translate(-169 -1650)"><path d="M159.848-21.0308C159.848-17.3462 159.358-13.8291 158.377-10.4795 157.396-7.12988 155.996-4.01953 154.178-1.14844 152.359 1.72266 150.146 4.33057 147.538 6.67529 144.93 9.02002 142.023 11.0298 138.817 12.7046 135.946 14.188 132.872 15.4321 129.594 16.437 126.316 17.4419 122.979 18.2554 119.581 18.8774 116.184 19.4995 112.774 19.9421 109.353 20.2053 105.931 20.4685 102.618 20.6001 99.4116 20.6001 96.2534 20.6001 92.9517 20.4685 89.5063 20.2053 86.061 19.9421 82.6396 19.4995 79.2422 18.8774 75.8447 18.2554 72.5071 17.4419 69.2292 16.437 65.9514 15.4321 62.8769 14.188 60.0059 12.7046 56.7519 11.0298 53.833 9.02002 51.249 6.67529 48.665 4.33057 46.4639 1.71069 44.6455-1.18433 42.8271-4.07935 41.4275-7.1897 40.4465-10.5154 39.4656-13.8411 38.9751-17.3462 38.9751-21.0308 38.9751-22.227 39.0349-23.3994 39.1545-24.5478 39.2742-25.6963 39.4297-26.8686 39.6211-28.0649 40.4346-32.8501 41.6189-37.4797 43.1741-41.9539 44.7292-46.428 46.6912-50.6509 49.0598-54.6226 51.4285-58.5942 54.2397-62.2788 57.4936-65.6763 60.7476-69.0737 64.48-72.0644 68.6909-74.6484L62.6616-107.307C62.5181-108.168 62.4463-109.03 62.4463-109.891 62.4463-111.805 62.8171-113.612 63.5588-115.31 64.3005-117.009 65.3054-118.48 66.5735-119.725 67.8415-120.969 69.3249-121.962 71.0237-122.703 72.7224-123.445 74.5288-123.816 76.4429-123.816 78.3569-123.816 80.1753-123.445 81.8979-122.703 83.6206-121.962 85.104-120.969 86.3481-119.725 87.5923-118.48 88.5852-116.997 89.3269-115.274 90.0686-113.552 90.4394-111.733 90.4394-109.819L90.4394-82.4722C93.0713-82.9028 95.727-83.1182 98.4067-83.1182 100.56-83.1182 102.666-83.0344 104.723-82.8669 106.781-82.6995 108.886-82.4004 111.04-81.9697L111.04-109.819C111.04-111.733 111.41-113.552 112.152-115.274 112.894-116.997 113.887-118.48 115.131-119.725 116.375-120.969 117.846-121.962 119.545-122.703 121.244-123.445 123.074-123.816 125.036-123.816 126.95-123.816 128.769-123.445 130.491-122.703 132.214-121.962 133.697-120.957 134.941-119.689 136.186-118.421 137.178-116.925 137.92-115.203 138.662-113.48 139.033-111.662 139.033-109.748 139.033-108.886 138.961-108.073 138.817-107.307L132.501-73.2129C136.377-70.6289 139.822-67.6741 142.837-64.3484 145.852-61.0227 148.459-57.4219 150.661-53.5459 152.862-49.6699 154.68-45.5786 156.116-41.272 157.551-36.9653 158.628-32.563 159.346-28.0649 159.537-26.9165 159.693-25.78 159.812-24.6555 159.932-23.531 159.992-22.3945 159.992-21.2461Z" fill="#CDC4D6" transform="translate(257.832 1984)"/><path d="M79.1704-75.7251C78.3569-75.7251 77.6272-75.9883 76.9812-76.5146 76.3352-77.041 75.9404-77.7109 75.7969-78.5244L70.1982-108.743C70.1504-108.982 70.1265-109.341 70.1265-109.819 70.1265-111.542 70.7366-113.013 71.9568-114.234 73.177-115.454 74.6484-116.064 76.3711-116.064 77.2324-116.064 78.0459-115.896 78.8115-115.562 79.5771-115.227 80.2471-114.76 80.8213-114.162 81.3955-113.564 81.8501-112.882 82.1851-112.116 82.52-111.351 82.6875-110.537 82.6875-109.676L82.6875-79.1704C82.6875-78.2134 82.3406-77.3999 81.6467-76.73 80.9529-76.0601 80.1274-75.7251 79.1704-75.7251ZM118.72-109.676C118.72-110.537 118.887-111.351 119.222-112.116 119.557-112.882 120.012-113.564 120.586-114.162 121.16-114.76 121.83-115.227 122.596-115.562 123.361-115.896 124.175-116.064 125.036-116.064 126.759-116.064 128.23-115.454 129.45-114.234 130.671-113.013 131.281-111.542 131.281-109.819 131.281-109.628 131.281-109.437 131.281-109.245 131.281-109.054 131.257-108.862 131.209-108.671L125.61-78.5244C125.467-77.7109 125.072-77.041 124.426-76.5146 123.78-75.9883 123.05-75.7251 122.237-75.7251 121.28-75.7251 120.454-76.0601 119.76-76.73 119.067-77.3999 118.72-78.2134 118.72-79.1704Z" fill="#FF8687" transform="translate(257.832 1984)"/><path d="M67.3989-25.8398C68.0688-25.8398 68.667-25.5767 69.1934-25.0503 69.7197-24.5239 69.9829-23.9258 69.9829-23.2559 69.9829-22.5381 69.7317-21.928 69.2292-21.4255 68.7268-20.9231 68.1167-20.6719 67.3989-20.6719L31.2949-20.6719C30.5771-20.6719 29.967-20.9231 29.4646-21.4255 28.9622-21.928 28.7109-22.5381 28.7109-23.2559 28.7109-23.9258 28.9741-24.5239 29.5005-25.0503 30.0269-25.5767 30.625-25.8398 31.2949-25.8398ZM69.9829-12.8481C69.9829-12.3218 69.8035-11.8193 69.4446-11.3408 69.0857-10.8623 68.6431-10.5513 68.1167-10.4077 67.4946-10.2163 66.1907-9.8335 64.2048-9.25928 62.219-8.68506 59.8982-8.01514 57.2424-7.24951 54.5867-6.48389 51.7873-5.67041 48.8445-4.80908 45.9016-3.94775 43.1741-3.1582 40.6619-2.44043 38.1497-1.72266 36.0083-1.13647 34.2378-0.681885 32.4673-0.227295 31.4624 0 31.2231 0 30.5532 0 29.967-0.251221 29.4646-0.753662 28.9622-1.2561 28.7109-1.84228 28.7109-2.51221 28.7109-3.08643 28.8904-3.62476 29.2493-4.1272 29.6082-4.62964 30.0508-4.95264 30.5771-5.09619 31.1514-5.2876 32.4434-5.67041 34.4531-6.24463 36.4629-6.81885 38.7837-7.48877 41.4155-8.25439 44.0474-9.02002 46.8467-9.8335 49.8135-10.6948 52.7803-11.5562 55.5317-12.3337 58.0679-13.0276 60.604-13.7214 62.7454-14.3076 64.4919-14.7861 66.2385-15.2646 67.2314-15.5039 67.4707-15.5039 68.1406-15.5039 68.7268-15.2407 69.2292-14.7144 69.7317-14.188 69.9829-13.5659 69.9829-12.8481ZM131.855-23.2559C131.855-23.9258 132.118-24.5239 132.645-25.0503 133.171-25.5767 133.769-25.8398 134.439-25.8398L170.543-25.8398C171.213-25.8398 171.811-25.5767 172.337-25.0503 172.864-24.5239 173.127-23.9258 173.127-23.2559 173.127-22.5381 172.876-21.928 172.373-21.4255 171.871-20.9231 171.261-20.6719 170.543-20.6719L134.439-20.6719C133.721-20.6719 133.111-20.9231 132.609-21.4255 132.106-21.928 131.855-22.5381 131.855-23.2559ZM134.367-15.5039C134.559-15.5039 135.181-15.3723 136.233-15.1091 137.286-14.8459 138.626-14.4871 140.253-14.0325 141.88-13.5779 143.71-13.0635 145.744-12.4893 147.778-11.915 149.871-11.3169 152.024-10.6948 154.178-10.0728 156.307-9.45068 158.413-8.82861 160.518-8.20654 162.444-7.64429 164.191-7.14184 165.937-6.6394 167.445-6.20874 168.713-5.84985 169.981-5.49097 170.83-5.23975 171.261-5.09619 171.787-4.95264 172.23-4.62964 172.589-4.1272 172.947-3.62476 173.127-3.08643 173.127-2.51221 173.127-1.84228 172.876-1.2561 172.373-0.753662 171.871-0.251221 171.285 0 170.615 0 170.375 0 169.383-0.239258 167.636-0.717773 165.889-1.19629 163.748-1.78247 161.212-2.47632 158.676-3.17017 155.924-3.94775 152.958-4.80908 149.991-5.67041 147.191-6.48389 144.56-7.24951 141.928-8.01514 139.607-8.68506 137.597-9.25928 135.587-9.8335 134.295-10.2163 133.721-10.4077 133.195-10.5513 132.752-10.8623 132.393-11.3408 132.034-11.8193 131.855-12.3218 131.855-12.8481 131.855-13.5659 132.106-14.188 132.609-14.7144 133.111-15.2407 133.697-15.5039 134.367-15.5039Z" fill="#B4ACBC" transform="translate(257.832 1984)"/><path d="M107.81-3.08643C108.288-2.84717 108.527-2.46436 108.527-1.93799L108.527 2.08154C108.527 2.70361 108.3 3.24194 107.845 3.69653 107.391 4.15112 106.853 4.37842 106.23 4.37842L95.3203 4.37842C94.6504 4.37842 94.1001 4.16309 93.6694 3.73242 93.2388 3.30176 93.0234 2.75146 93.0234 2.08154L93.0234-1.93799C93.0234-2.46436 93.2388-2.84717 93.6694-3.08643L100.704-6.89062Z" fill="#F4F4F4" transform="translate(257.832 1984)"/><path d="M92.3774-23.0405C92.3774-23.9976 92.7004-24.811 93.3464-25.481 93.9924-26.1509 94.7939-26.4858 95.751-26.4858L105.656-26.4858C106.613-26.4858 107.427-26.1509 108.097-25.481 108.767-24.811 109.102-23.9976 109.102-23.0405 109.102-22.0356 108.671-21.1743 107.81-20.4565L103-16.437C102.331-15.9106 101.565-15.6475 100.704-15.6475 99.8423-15.6475 99.0767-15.9106 98.4067-16.437L93.5976-20.4565C92.7842-21.1265 92.3774-21.9878 92.3774-23.0405Z" fill="#CA0B4A" transform="translate(257.832 1984)"/><path d="M75.1509-41.4155C75.1509-42.8032 75.6533-44.0115 76.6582-45.0403 77.6631-46.0691 78.8594-46.5835 80.2471-46.5835 81.6826-46.5835 82.9028-46.0811 83.9077-45.0762 84.9126-44.0713 85.415-42.8511 85.415-41.4155L85.415-36.3193C85.415-34.8838 84.9126-33.6636 83.9077-32.6587 82.9028-31.6538 81.6826-31.1514 80.2471-31.1514 78.8594-31.1514 77.6631-31.6658 76.6582-32.6946 75.6533-33.7234 75.1509-34.9316 75.1509-36.3193ZM116.423-41.4155C116.423-42.8032 116.925-44.0115 117.93-45.0403 118.935-46.0691 120.131-46.5835 121.519-46.5835 122.955-46.5835 124.175-46.0811 125.18-45.0762 126.185-44.0713 126.687-42.8511 126.687-41.4155L126.687-36.3193C126.687-34.8838 126.185-33.6636 125.18-32.6587 124.175-31.6538 122.955-31.1514 121.519-31.1514 120.131-31.1514 118.935-31.6658 117.93-32.6946 116.925-33.7234 116.423-34.9316 116.423-36.3193ZM82.7593-15.3603C83.477-15.3603 84.0872-15.1091 84.5896-14.6067 85.092-14.1042 85.3433-13.4941 85.3433-12.7764 85.3433-11.0059 85.9653-9.49853 87.2095-8.25439 88.4536-7.01025 89.9609-6.38818 91.7314-6.38818 93.5019-6.38818 95.0093-7.01025 96.2534-8.25439 97.4976-9.49853 98.1196-11.0059 98.1196-12.7764 98.1196-13.542 98.3828-14.1641 98.9092-14.6426 99.4355-15.1211 100.058-15.3603 100.775-15.3603 101.493-15.3603 102.103-15.1091 102.606-14.6067 103.108-14.1042 103.359-13.4941 103.359-12.7764 103.359-11.0059 103.981-9.49853 105.226-8.25439 106.47-7.01025 107.977-6.38818 109.748-6.38818 111.518-6.38818 113.025-7.01025 114.27-8.25439 115.514-9.49853 116.136-11.0059 116.136-12.7764 116.136-13.4941 116.387-14.1042 116.889-14.6067 117.392-15.1091 118.002-15.3603 118.72-15.3603 119.437-15.3603 120.048-15.1091 120.55-14.6067 121.052-14.1042 121.304-13.4941 121.304-12.7764 121.304-11.1973 120.993-9.7019 120.371-8.29028 119.749-6.87866 118.923-5.65845 117.894-4.62964 116.865-3.60083 115.645-2.77539 114.234-2.15332 112.822-1.53125 111.327-1.22021 109.748-1.22021 107.977-1.22021 106.302-1.60303 104.723-2.36865 103.144-3.13428 101.804-4.21094 100.704-5.59863 99.603-4.21094 98.2751-3.13428 96.72-2.36865 95.1648-1.60303 93.5019-1.22021 91.7314-1.22021 90.1523-1.22021 88.657-1.53125 87.2454-2.15332 85.8337-2.77539 84.6135-3.60083 83.5847-4.62964 82.5559-5.65845 81.7305-6.87866 81.1084-8.29028 80.4863-9.7019 80.1753-11.1973 80.1753-12.7764 80.1753-13.4941 80.4265-14.1042 80.9289-14.6067 81.4314-15.1091 82.0415-15.3603 82.7593-15.3603Z" fill="#1C1C1C" transform="translate(257.832 1984)"/><path d="M159.848-21.0308C159.848-17.3462 159.358-13.8291 158.377-10.4795 157.396-7.12988 155.996-4.01953 154.178-1.14844 152.359 1.72266 150.146 4.33057 147.538 6.67529 144.93 9.02002 142.023 11.0298 138.817 12.7046 135.946 14.188 132.872 15.4321 129.594 16.437 126.316 17.4419 122.979 18.2554 119.581 18.8774 116.184 19.4995 112.774 19.9421 109.353 20.2053 105.931 20.4685 102.618 20.6001 99.4116 20.6001 96.2534 20.6001 92.9517 20.4685 89.5063 20.2053 86.061 19.9421 82.6396 19.4995 79.2422 18.8774 75.8447 18.2554 72.5071 17.4419 69.2292 16.437 65.9514 15.4321 62.8769 14.188 60.0059 12.7046 56.7519 11.0298 53.833 9.02002 51.249 6.67529 48.665 4.33057 46.4639 1.71069 44.6455-1.18433 42.8271-4.07935 41.4275-7.1897 40.4465-10.5154 39.4656-13.8411 38.9751-17.3462 38.9751-21.0308 38.9751-22.227 39.0349-23.3994 39.1545-24.5478 39.2742-25.6963 39.4297-26.8686 39.6211-28.0649 40.4346-32.8501 41.6189-37.4797 43.1741-41.9539 44.7292-46.428 46.6912-50.6509 49.0598-54.6226 51.4285-58.5942 54.2397-62.2788 57.4936-65.6763 60.7476-69.0737 64.48-72.0644 68.6909-74.6484L62.6616-107.307C62.5181-108.168 62.4463-109.03 62.4463-109.891 62.4463-111.805 62.8171-113.612 63.5588-115.31 64.3005-117.009 65.3054-118.48 66.5735-119.725 67.8415-120.969 69.3249-121.962 71.0237-122.703 72.7224-123.445 74.5288-123.816 76.4429-123.816 78.3569-123.816 80.1753-123.445 81.8979-122.703 83.6206-121.962 85.104-120.969 86.3481-119.725 87.5923-118.48 88.5852-116.997 89.3269-115.274 90.0686-113.552 90.4394-111.733 90.4394-109.819L90.4394-82.4722C93.0713-82.9028 95.727-83.1182 98.4067-83.1182 100.56-83.1182 102.666-83.0344 104.723-82.8669 106.781-82.6995 108.886-82.4004 111.04-81.9697L111.04-109.819C111.04-111.733 111.41-113.552 112.152-115.274 112.894-116.997 113.887-118.48 115.131-119.725 116.375-120.969 117.846-121.962 119.545-122.703 121.244-123.445 123.074-123.816 125.036-123.816 126.95-123.816 128.769-123.445 130.491-122.703 132.214-121.962 133.697-120.957 134.941-119.689 136.186-118.421 137.178-116.925 137.92-115.203 138.662-113.48 139.033-111.662 139.033-109.748 139.033-108.886 138.961-108.073 138.817-107.307L132.501-73.2129C136.377-70.6289 139.822-67.6741 142.837-64.3484 145.852-61.0227 148.459-57.4219 150.661-53.5459 152.862-49.6699 154.68-45.5786 156.116-41.272 157.551-36.9653 158.628-32.563 159.346-28.0649 159.537-26.9165 159.693-25.78 159.812-24.6555 159.932-23.531 159.992-22.3945 159.992-21.2461Z" fill="#CDC4D6" transform="translate(459.499 1984)"/><path d="M79.1704-75.7251C78.3569-75.7251 77.6272-75.9883 76.9812-76.5146 76.3352-77.041 75.9404-77.7109 75.7969-78.5244L70.1982-108.743C70.1504-108.982 70.1265-109.341 70.1265-109.819 70.1265-111.542 70.7366-113.013 71.9568-114.234 73.177-115.454 74.6484-116.064 76.3711-116.064 77.2324-116.064 78.0459-115.896 78.8115-115.562 79.5771-115.227 80.2471-114.76 80.8213-114.162 81.3955-113.564 81.8501-112.882 82.1851-112.116 82.52-111.351 82.6875-110.537 82.6875-109.676L82.6875-79.1704C82.6875-78.2134 82.3406-77.3999 81.6467-76.73 80.9529-76.0601 80.1274-75.7251 79.1704-75.7251ZM118.72-109.676C118.72-110.537 118.887-111.351 119.222-112.116 119.557-112.882 120.012-113.564 120.586-114.162 121.16-114.76 121.83-115.227 122.596-115.562 123.361-115.896 124.175-116.064 125.036-116.064 126.759-116.064 128.23-115.454 129.45-114.234 130.671-113.013 131.281-111.542 131.281-109.819 131.281-109.628 131.281-109.437 131.281-109.245 131.281-109.054 131.257-108.862 131.209-108.671L125.61-78.5244C125.467-77.7109 125.072-77.041 124.426-76.5146 123.78-75.9883 123.05-75.7251 122.237-75.7251 121.28-75.7251 120.454-76.0601 119.76-76.73 119.067-77.3999 118.72-78.2134 118.72-79.1704Z" fill="#FF8687" transform="translate(459.499 1984)"/><path d="M67.3989-25.8398C68.0688-25.8398 68.667-25.5767 69.1934-25.0503 69.7197-24.5239 69.9829-23.9258 69.9829-23.2559 69.9829-22.5381 69.7317-21.928 69.2292-21.4255 68.7268-20.9231 68.1167-20.6719 67.3989-20.6719L31.2949-20.6719C30.5771-20.6719 29.967-20.9231 29.4646-21.4255 28.9622-21.928 28.7109-22.5381 28.7109-23.2559 28.7109-23.9258 28.9741-24.5239 29.5005-25.0503 30.0269-25.5767 30.625-25.8398 31.2949-25.8398ZM69.9829-12.8481C69.9829-12.3218 69.8035-11.8193 69.4446-11.3408 69.0857-10.8623 68.6431-10.5513 68.1167-10.4077 67.4946-10.2163 66.1907-9.8335 64.2048-9.25928 62.219-8.68506 59.8982-8.01514 57.2424-7.24951 54.5867-6.48389 51.7873-5.67041 48.8445-4.80908 45.9016-3.94775 43.1741-3.1582 40.6619-2.44043 38.1497-1.72266 36.0083-1.13647 34.2378-0.681885 32.4673-0.227295 31.4624 0 31.2231 0 30.5532 0 29.967-0.251221 29.4646-0.753662 28.9622-1.2561 28.7109-1.84228 28.7109-2.51221 28.7109-3.08643 28.8904-3.62476 29.2493-4.1272 29.6082-4.62964 30.0508-4.95264 30.5771-5.09619 31.1514-5.2876 32.4434-5.67041 34.4531-6.24463 36.4629-6.81885 38.7837-7.48877 41.4155-8.25439 44.0474-9.02002 46.8467-9.8335 49.8135-10.6948 52.7803-11.5562 55.5317-12.3337 58.0679-13.0276 60.604-13.7214 62.7454-14.3076 64.4919-14.7861 66.2385-15.2646 67.2314-15.5039 67.4707-15.5039 68.1406-15.5039 68.7268-15.2407 69.2292-14.7144 69.7317-14.188 69.9829-13.5659 69.9829-12.8481ZM131.855-23.2559C131.855-23.9258 132.118-24.5239 132.645-25.0503 133.171-25.5767 133.769-25.8398 134.439-25.8398L170.543-25.8398C171.213-25.8398 171.811-25.5767 172.337-25.0503 172.864-24.5239 173.127-23.9258 173.127-23.2559 173.127-22.5381 172.876-21.928 172.373-21.4255 171.871-20.9231 171.261-20.6719 170.543-20.6719L134.439-20.6719C133.721-20.6719 133.111-20.9231 132.609-21.4255 132.106-21.928 131.855-22.5381 131.855-23.2559ZM134.367-15.5039C134.559-15.5039 135.181-15.3723 136.233-15.1091 137.286-14.8459 138.626-14.4871 140.253-14.0325 141.88-13.5779 143.71-13.0635 145.744-12.4893 147.778-11.915 149.871-11.3169 152.024-10.6948 154.178-10.0728 156.307-9.45068 158.413-8.82861 160.518-8.20654 162.444-7.64429 164.191-7.14184 165.937-6.6394 167.445-6.20874 168.713-5.84985 169.981-5.49097 170.83-5.23975 171.261-5.09619 171.787-4.95264 172.23-4.62964 172.589-4.1272 172.947-3.62476 173.127-3.08643 173.127-2.51221 173.127-1.84228 172.876-1.2561 172.373-0.753662 171.871-0.251221 171.285 0 170.615 0 170.375 0 169.383-0.239258 167.636-0.717773 165.889-1.19629 163.748-1.78247 161.212-2.47632 158.676-3.17017 155.924-3.94775 152.958-4.80908 149.991-5.67041 147.191-6.48389 144.56-7.24951 141.928-8.01514 139.607-8.68506 137.597-9.25928 135.587-9.8335 134.295-10.2163 133.721-10.4077 133.195-10.5513 132.752-10.8623 132.393-11.3408 132.034-11.8193 131.855-12.3218 131.855-12.8481 131.855-13.5659 132.106-14.188 132.609-14.7144 133.111-15.2407 133.697-15.5039 134.367-15.5039Z" fill="#B4ACBC" transform="translate(459.499 1984)"/><path d="M107.81-3.08643C108.288-2.84717 108.527-2.46436 108.527-1.93799L108.527 2.08154C108.527 2.70361 108.3 3.24194 107.845 3.69653 107.391 4.15112 106.853 4.37842 106.23 4.37842L95.3203 4.37842C94.6504 4.37842 94.1001 4.16309 93.6694 3.73242 93.2388 3.30176 93.0234 2.75146 93.0234 2.08154L93.0234-1.93799C93.0234-2.46436 93.2388-2.84717 93.6694-3.08643L100.704-6.89062Z" fill="#F4F4F4" transform="translate(459.499 1984)"/><path d="M92.3774-23.0405C92.3774-23.9976 92.7004-24.811 93.3464-25.481 93.9924-26.1509 94.7939-26.4858 95.751-26.4858L105.656-26.4858C106.613-26.4858 107.427-26.1509 108.097-25.481 108.767-24.811 109.102-23.9976 109.102-23.0405 109.102-22.0356 108.671-21.1743 107.81-20.4565L103-16.437C102.331-15.9106 101.565-15.6475 100.704-15.6475 99.8423-15.6475 99.0767-15.9106 98.4067-16.437L93.5976-20.4565C92.7842-21.1265 92.3774-21.9878 92.3774-23.0405Z" fill="#CA0B4A" transform="translate(459.499 1984)"/><path d="M75.1509-41.4155C75.1509-42.8032 75.6533-44.0115 76.6582-45.0403 77.6631-46.0691 78.8594-46.5835 80.2471-46.5835 81.6826-46.5835 82.9028-46.0811 83.9077-45.0762 84.9126-44.0713 85.415-42.8511 85.415-41.4155L85.415-36.3193C85.415-34.8838 84.9126-33.6636 83.9077-32.6587 82.9028-31.6538 81.6826-31.1514 80.2471-31.1514 78.8594-31.1514 77.6631-31.6658 76.6582-32.6946 75.6533-33.7234 75.1509-34.9316 75.1509-36.3193ZM116.423-41.4155C116.423-42.8032 116.925-44.0115 117.93-45.0403 118.935-46.0691 120.131-46.5835 121.519-46.5835 122.955-46.5835 124.175-46.0811 125.18-45.0762 126.185-44.0713 126.687-42.8511 126.687-41.4155L126.687-36.3193C126.687-34.8838 126.185-33.6636 125.18-32.6587 124.175-31.6538 122.955-31.1514 121.519-31.1514 120.131-31.1514 118.935-31.6658 117.93-32.6946 116.925-33.7234 116.423-34.9316 116.423-36.3193ZM82.7593-15.3603C83.477-15.3603 84.0872-15.1091 84.5896-14.6067 85.092-14.1042 85.3433-13.4941 85.3433-12.7764 85.3433-11.0059 85.9653-9.49853 87.2095-8.25439 88.4536-7.01025 89.9609-6.38818 91.7314-6.38818 93.5019-6.38818 95.0093-7.01025 96.2534-8.25439 97.4976-9.49853 98.1196-11.0059 98.1196-12.7764 98.1196-13.542 98.3828-14.1641 98.9092-14.6426 99.4355-15.1211 100.058-15.3603 100.775-15.3603 101.493-15.3603 102.103-15.1091 102.606-14.6067 103.108-14.1042 103.359-13.4941 103.359-12.7764 103.359-11.0059 103.981-9.49853 105.226-8.25439 106.47-7.01025 107.977-6.38818 109.748-6.38818 111.518-6.38818 113.025-7.01025 114.27-8.25439 115.514-9.49853 116.136-11.0059 116.136-12.7764 116.136-13.4941 116.387-14.1042 116.889-14.6067 117.392-15.1091 118.002-15.3603 118.72-15.3603 119.437-15.3603 120.048-15.1091 120.55-14.6067 121.052-14.1042 121.304-13.4941 121.304-12.7764 121.304-11.1973 120.993-9.7019 120.371-8.29028 119.749-6.87866 118.923-5.65845 117.894-4.62964 116.865-3.60083 115.645-2.77539 114.234-2.15332 112.822-1.53125 111.327-1.22021 109.748-1.22021 107.977-1.22021 106.302-1.60303 104.723-2.36865 103.144-3.13428 101.804-4.21094 100.704-5.59863 99.603-4.21094 98.2751-3.13428 96.72-2.36865 95.1648-1.60303 93.5019-1.22021 91.7314-1.22021 90.1523-1.22021 88.657-1.53125 87.2454-2.15332 85.8337-2.77539 84.6135-3.60083 83.5847-4.62964 82.5559-5.65845 81.7305-6.87866 81.1084-8.29028 80.4863-9.7019 80.1753-11.1973 80.1753-12.7764 80.1753-13.4941 80.4265-14.1042 80.9289-14.6067 81.4314-15.1091 82.0415-15.3603 82.7593-15.3603Z" fill="#1C1C1C" transform="translate(459.499 1984)"/><path d="M269.676-35.4805C269.676-29.2643 268.848-23.3307 267.193-17.6797 265.538-12.0286 263.177-6.78125 260.109-1.9375 257.042 2.90625 253.308 7.30599 248.908 11.2617 244.508 15.2174 239.604 18.6081 234.195 21.4336 229.352 23.9362 224.165 26.0352 218.635 27.7305 213.105 29.4258 207.474 30.7982 201.742 31.8477 196.01 32.8971 190.258 33.6439 184.486 34.0879 178.714 34.5319 173.124 34.7539 167.715 34.7539 162.387 34.7539 156.816 34.5319 151.004 34.0879 145.191 33.6439 139.419 32.8971 133.687 31.8477 127.956 30.7982 122.325 29.4258 116.795 27.7305 111.265 26.0352 106.078 23.9362 101.234 21.4336 95.7448 18.6081 90.8203 15.2174 86.4609 11.2617 82.1016 7.30599 78.388 2.88607 75.3203-1.99805 72.2526-6.88216 69.8913-12.1296 68.2363-17.7402 66.5814-23.3509 65.7539-29.2643 65.7539-35.4805 65.7539-37.4987 65.8548-39.4766 66.0566-41.4141 66.2585-43.3516 66.5208-45.3294 66.8437-47.3477 68.2161-55.4206 70.2142-63.2311 72.8379-70.7793 75.4616-78.3275 78.7715-85.4518 82.7676-92.1523 86.7637-98.8529 91.5065-105.069 96.9961-110.801 102.486-116.533 108.783-121.578 115.887-125.937L105.715-181.035C105.473-182.488 105.352-183.941 105.352-185.395 105.352-188.624 105.977-191.671 107.229-194.537 108.48-197.403 110.175-199.885 112.314-201.984 114.454-204.083 116.956-205.758 119.822-207.01 122.688-208.261 125.736-208.887 128.965-208.887 132.194-208.887 135.262-208.261 138.168-207.01 141.074-205.758 143.577-204.083 145.676-201.984 147.775-199.885 149.45-197.383 150.701-194.477 151.952-191.57 152.578-188.503 152.578-185.273L152.578-139.137C157.018-139.863 161.499-140.227 166.02-140.227 169.652-140.227 173.204-140.085 176.676-139.803 180.147-139.52 183.699-139.016 187.332-138.289L187.332-185.273C187.332-188.503 187.958-191.57 189.209-194.477 190.46-197.383 192.135-199.885 194.234-201.984 196.333-204.083 198.816-205.758 201.682-207.01 204.548-208.261 207.635-208.887 210.945-208.887 214.174-208.887 217.242-208.261 220.148-207.01 223.055-205.758 225.557-204.063 227.656-201.924 229.755-199.784 231.43-197.262 232.682-194.355 233.933-191.449 234.559-188.382 234.559-185.152 234.559-183.699 234.437-182.327 234.195-181.035L223.539-123.516C230.078-119.156 235.891-114.171 240.977-108.561 246.062-102.95 250.462-96.875 254.176-90.3359 257.889-83.7969 260.957-76.8945 263.379-69.6289 265.801-62.3633 267.617-54.9362 268.828-47.3477 269.151-45.4101 269.413-43.4928 269.615-41.5957 269.817-39.6986 269.918-37.7812 269.918-35.8437Z" fill="#CDC4D6" transform="translate(1154.31 2019)"/><path d="M133.566-127.754C132.194-127.754 130.963-128.198 129.873-129.086 128.783-129.974 128.117-131.104 127.875-132.477L118.43-183.457C118.349-183.861 118.309-184.466 118.309-185.273 118.309-188.18 119.338-190.662 121.396-192.721 123.455-194.779 125.937-195.809 128.844-195.809 130.297-195.809 131.669-195.526 132.961-194.961 134.253-194.396 135.383-193.609 136.352-192.6 137.32-191.59 138.087-190.44 138.652-189.148 139.217-187.857 139.5-186.484 139.5-185.031L139.5-133.566C139.5-131.952 138.915-130.579 137.744-129.449 136.574-128.319 135.181-127.754 133.566-127.754ZM200.289-185.031C200.289-186.484 200.572-187.857 201.137-189.148 201.702-190.44 202.469-191.59 203.437-192.6 204.406-193.609 205.536-194.396 206.828-194.961 208.12-195.526 209.492-195.809 210.945-195.809 213.852-195.809 216.334-194.779 218.393-192.721 220.451-190.662 221.48-188.18 221.48-185.273 221.48-184.951 221.48-184.628 221.48-184.305 221.48-183.982 221.44-183.659 221.359-183.336L211.914-132.477C211.672-131.104 211.006-129.974 209.916-129.086 208.826-128.198 207.595-127.754 206.223-127.754 204.608-127.754 203.215-128.319 202.045-129.449 200.874-130.579 200.289-131.952 200.289-133.566Z" fill="#FF8687" transform="translate(1154.31 2019)"/><path d="M113.707-43.5937C114.837-43.5937 115.846-43.1497 116.734-42.2617 117.622-41.3737 118.066-40.3646 118.066-39.2344 118.066-38.0234 117.643-36.9941 116.795-36.1465 115.947-35.2988 114.918-34.875 113.707-34.875L52.7969-34.875C51.5859-34.875 50.5566-35.2988 49.709-36.1465 48.8613-36.9941 48.4375-38.0234 48.4375-39.2344 48.4375-40.3646 48.8815-41.3737 49.7695-42.2617 50.6575-43.1497 51.6667-43.5937 52.7969-43.5937ZM118.066-21.6758C118.066-20.7878 117.764-19.9401 117.158-19.1328 116.553-18.3255 115.806-17.8008 114.918-17.5586 113.868-17.2357 111.669-16.5898 108.318-15.6211 104.968-14.6523 101.053-13.5221 96.5723-12.2305 92.0918-10.9388 87.3691-9.5664 82.4043-8.11328 77.4394-6.66016 72.8379-5.32812 68.5996-4.11719 64.3613-2.90625 60.7487-1.91732 57.7617-1.15039 54.7747-0.383464 53.0794 0 52.6758 0 51.5456 0 50.5566-0.423828 49.709-1.27148 48.8613-2.11914 48.4375-3.10807 48.4375-4.23828 48.4375-5.20703 48.7402-6.11523 49.3457-6.96289 49.9512-7.81055 50.6979-8.35547 51.5859-8.59766 52.5547-8.92057 54.7344-9.56641 58.125-10.5352 61.5156-11.5039 65.431-12.6341 69.8711-13.9258 74.3112-15.2174 79.0338-16.5898 84.0391-18.043 89.0443-19.4961 93.6862-20.8079 97.9648-21.9785 102.243-23.1491 105.856-24.138 108.803-24.9453 111.749-25.7526 113.424-26.1562 113.828-26.1562 114.958-26.1562 115.947-25.7122 116.795-24.8242 117.643-23.9362 118.066-22.8867 118.066-21.6758ZM222.449-39.2344C222.449-40.3646 222.893-41.3737 223.781-42.2617 224.669-43.1497 225.678-43.5937 226.809-43.5937L287.719-43.5937C288.849-43.5937 289.858-43.1497 290.746-42.2617 291.634-41.3737 292.078-40.3646 292.078-39.2344 292.078-38.0234 291.654-36.9941 290.807-36.1465 289.959-35.2988 288.93-34.875 287.719-34.875L226.809-34.875C225.598-34.875 224.568-35.2988 223.721-36.1465 222.873-36.9941 222.449-38.0234 222.449-39.2344ZM226.687-26.1562C227.01-26.1562 228.06-25.9342 229.836-25.4902 231.612-25.0462 233.872-24.4408 236.617-23.6738 239.362-22.9069 242.45-22.0391 245.881-21.0703 249.312-20.1016 252.844-19.0924 256.477-18.043 260.109-16.9935 263.702-15.944 267.254-14.8945 270.806-13.8451 274.055-12.8965 277.002-12.0488 279.949-11.2012 282.491-10.4746 284.631-9.86914 286.77-9.26367 288.203-8.83984 288.93-8.59766 289.818-8.35547 290.564-7.81055 291.17-6.96289 291.775-6.11523 292.078-5.20703 292.078-4.23828 292.078-3.10807 291.654-2.11914 290.807-1.27148 289.959-0.423828 288.97 0 287.84 0 287.436 0 285.761-0.403646 282.814-1.21094 279.868-2.01823 276.255-3.00716 271.977-4.17773 267.698-5.34831 263.056-6.66016 258.051-8.11328 253.046-9.5664 248.323-10.9388 243.883-12.2305 239.443-13.5221 235.527-14.6523 232.137-15.6211 228.746-16.5898 226.566-17.2357 225.598-17.5586 224.71-17.8008 223.963-18.3255 223.357-19.1328 222.752-19.9401 222.449-20.7878 222.449-21.6758 222.449-22.8867 222.873-23.9362 223.721-24.8242 224.568-25.7122 225.557-26.1562 226.687-26.1562Z" fill="#B4ACBC" transform="translate(1154.31 2019)"/><path d="M181.883-5.20703C182.69-4.80338 183.094-4.15755 183.094-3.26953L183.094 3.51172C183.094 4.5612 182.71 5.4694 181.943 6.23633 181.176 7.00325 180.268 7.38672 179.219 7.38672L160.812 7.38672C159.682 7.38672 158.754 7.02344 158.027 6.29687 157.301 5.57031 156.937 4.64193 156.937 3.51172L156.937-3.26953C156.937-4.15755 157.301-4.80338 158.027-5.20703L169.895-11.625Z" fill="#F4F4F4" transform="translate(1154.31 2019)"/><path d="M155.848-38.8711C155.848-40.4857 156.393-41.8581 157.482-42.9883 158.572-44.1185 159.924-44.6836 161.539-44.6836L178.25-44.6836C179.865-44.6836 181.237-44.1185 182.367-42.9883 183.497-41.8581 184.062-40.4857 184.062-38.8711 184.062-37.1758 183.336-35.7227 181.883-34.5117L173.77-27.7305C172.639-26.8424 171.348-26.3984 169.895-26.3984 168.441-26.3984 167.15-26.8424 166.02-27.7305L157.906-34.5117C156.534-35.6419 155.848-37.095 155.848-38.8711Z" fill="#CA0B4A" transform="translate(1154.31 2019)"/><path d="M126.785-69.8711C126.785-72.2122 127.633-74.2506 129.328-75.9863 131.023-77.722 133.042-78.5898 135.383-78.5898 137.805-78.5898 139.863-77.7422 141.559-76.0469 143.254-74.3516 144.102-72.293 144.102-69.8711L144.102-61.2734C144.102-58.8516 143.254-56.793 141.559-55.0977 139.863-53.4023 137.805-52.5547 135.383-52.5547 133.042-52.5547 131.023-53.4225 129.328-55.1582 127.633-56.8939 126.785-58.9323 126.785-61.2734ZM196.414-69.8711C196.414-72.2122 197.262-74.2506 198.957-75.9863 200.652-77.722 202.671-78.5898 205.012-78.5898 207.434-78.5898 209.492-77.7422 211.187-76.0469 212.883-74.3516 213.73-72.293 213.73-69.8711L213.73-61.2734C213.73-58.8516 212.883-56.793 211.187-55.0977 209.492-53.4023 207.434-52.5547 205.012-52.5547 202.671-52.5547 200.652-53.4225 198.957-55.1582 197.262-56.8939 196.414-58.9323 196.414-61.2734ZM139.621-25.9141C140.832-25.9141 141.861-25.4902 142.709-24.6426 143.557-23.7949 143.98-22.7656 143.98-21.5547 143.98-18.5677 145.03-16.0247 147.129-13.9258 149.228-11.8268 151.771-10.7773 154.758-10.7773 157.745-10.7773 160.288-11.8268 162.387-13.9258 164.486-16.0247 165.535-18.5677 165.535-21.5547 165.535-22.8464 165.979-23.8958 166.867-24.7031 167.755-25.5104 168.805-25.9141 170.016-25.9141 171.227-25.9141 172.256-25.4902 173.104-24.6426 173.951-23.7949 174.375-22.7656 174.375-21.5547 174.375-18.5677 175.424-16.0247 177.523-13.9258 179.622-11.8268 182.165-10.7773 185.152-10.7773 188.139-10.7773 190.682-11.8268 192.781-13.9258 194.88-16.0247 195.93-18.5677 195.93-21.5547 195.93-22.7656 196.353-23.7949 197.201-24.6426 198.049-25.4902 199.078-25.9141 200.289-25.9141 201.5-25.9141 202.529-25.4902 203.377-24.6426 204.225-23.7949 204.648-22.7656 204.648-21.5547 204.648-18.8906 204.124-16.3678 203.074-13.9863 202.025-11.6048 200.632-9.54622 198.896-7.81055 197.161-6.07487 195.102-4.68229 192.721-3.63281 190.339-2.58333 187.816-2.05859 185.152-2.05859 182.165-2.05859 179.34-2.70443 176.676-3.99609 174.012-5.28776 171.751-7.10417 169.895-9.44531 168.038-7.10417 165.798-5.28776 163.174-3.99609 160.55-2.70443 157.745-2.05859 154.758-2.05859 152.094-2.05859 149.571-2.58333 147.189-3.63281 144.808-4.68229 142.749-6.07487 141.014-7.81055 139.278-9.54622 137.885-11.6048 136.836-13.9863 135.786-16.3678 135.262-18.8906 135.262-21.5547 135.262-22.7656 135.686-23.7949 136.533-24.6426 137.381-25.4902 138.41-25.9141 139.621-25.9141Z" fill="#1C1C1C" transform="translate(1154.31 2019)"/><path d="M269.676-35.4805C269.676-29.2643 268.848-23.3307 267.193-17.6797 265.538-12.0286 263.177-6.78125 260.109-1.9375 257.042 2.90625 253.308 7.30599 248.908 11.2617 244.508 15.2174 239.604 18.6081 234.195 21.4336 229.352 23.9362 224.165 26.0352 218.635 27.7305 213.105 29.4258 207.474 30.7982 201.742 31.8477 196.01 32.8971 190.258 33.6439 184.486 34.0879 178.714 34.5319 173.124 34.7539 167.715 34.7539 162.387 34.7539 156.816 34.5319 151.004 34.0879 145.191 33.6439 139.419 32.8971 133.687 31.8477 127.956 30.7982 122.325 29.4258 116.795 27.7305 111.265 26.0352 106.078 23.9362 101.234 21.4336 95.7448 18.6081 90.8203 15.2174 86.4609 11.2617 82.1016 7.30599 78.388 2.88607 75.3203-1.99805 72.2526-6.88216 69.8913-12.1296 68.2363-17.7402 66.5814-23.3509 65.7539-29.2643 65.7539-35.4805 65.7539-37.4987 65.8548-39.4766 66.0566-41.4141 66.2585-43.3516 66.5208-45.3294 66.8437-47.3477 68.2161-55.4206 70.2142-63.2311 72.8379-70.7793 75.4616-78.3275 78.7715-85.4518 82.7676-92.1523 86.7637-98.8529 91.5065-105.069 96.9961-110.801 102.486-116.533 108.783-121.578 115.887-125.937L105.715-181.035C105.473-182.488 105.352-183.941 105.352-185.395 105.352-188.624 105.977-191.671 107.229-194.537 108.48-197.403 110.175-199.885 112.314-201.984 114.454-204.083 116.956-205.758 119.822-207.01 122.688-208.261 125.736-208.887 128.965-208.887 132.194-208.887 135.262-208.261 138.168-207.01 141.074-205.758 143.577-204.083 145.676-201.984 147.775-199.885 149.45-197.383 150.701-194.477 151.952-191.57 152.578-188.503 152.578-185.273L152.578-139.137C157.018-139.863 161.499-140.227 166.02-140.227 169.652-140.227 173.204-140.085 176.676-139.803 180.147-139.52 183.699-139.016 187.332-138.289L187.332-185.273C187.332-188.503 187.958-191.57 189.209-194.477 190.46-197.383 192.135-199.885 194.234-201.984 196.333-204.083 198.816-205.758 201.682-207.01 204.548-208.261 207.635-208.887 210.945-208.887 214.174-208.887 217.242-208.261 220.148-207.01 223.055-205.758 225.557-204.063 227.656-201.924 229.755-199.784 231.43-197.262 232.682-194.355 233.933-191.449 234.559-188.382 234.559-185.152 234.559-183.699 234.437-182.327 234.195-181.035L223.539-123.516C230.078-119.156 235.891-114.171 240.977-108.561 246.062-102.95 250.462-96.875 254.176-90.3359 257.889-83.7969 260.957-76.8945 263.379-69.6289 265.801-62.3633 267.617-54.9362 268.828-47.3477 269.151-45.4101 269.413-43.4928 269.615-41.5957 269.817-39.6986 269.918-37.7812 269.918-35.8437Z" fill="#CDC4D6" transform="translate(1494.05 2019)"/><path d="M133.566-127.754C132.194-127.754 130.963-128.198 129.873-129.086 128.783-129.974 128.117-131.104 127.875-132.477L118.43-183.457C118.349-183.861 118.309-184.466 118.309-185.273 118.309-188.18 119.338-190.662 121.396-192.721 123.455-194.779 125.937-195.809 128.844-195.809 130.297-195.809 131.669-195.526 132.961-194.961 134.253-194.396 135.383-193.609 136.352-192.6 137.32-191.59 138.087-190.44 138.652-189.148 139.217-187.857 139.5-186.484 139.5-185.031L139.5-133.566C139.5-131.952 138.915-130.579 137.744-129.449 136.574-128.319 135.181-127.754 133.566-127.754ZM200.289-185.031C200.289-186.484 200.572-187.857 201.137-189.148 201.702-190.44 202.469-191.59 203.437-192.6 204.406-193.609 205.536-194.396 206.828-194.961 208.12-195.526 209.492-195.809 210.945-195.809 213.852-195.809 216.334-194.779 218.393-192.721 220.451-190.662 221.48-188.18 221.48-185.273 221.48-184.951 221.48-184.628 221.48-184.305 221.48-183.982 221.44-183.659 221.359-183.336L211.914-132.477C211.672-131.104 211.006-129.974 209.916-129.086 208.826-128.198 207.595-127.754 206.223-127.754 204.608-127.754 203.215-128.319 202.045-129.449 200.874-130.579 200.289-131.952 200.289-133.566Z" fill="#FF8687" transform="translate(1494.05 2019)"/><path d="M113.707-43.5937C114.837-43.5937 115.846-43.1497 116.734-42.2617 117.622-41.3737 118.066-40.3646 118.066-39.2344 118.066-38.0234 117.643-36.9941 116.795-36.1465 115.947-35.2988 114.918-34.875 113.707-34.875L52.7969-34.875C51.5859-34.875 50.5566-35.2988 49.709-36.1465 48.8613-36.9941 48.4375-38.0234 48.4375-39.2344 48.4375-40.3646 48.8815-41.3737 49.7695-42.2617 50.6575-43.1497 51.6667-43.5937 52.7969-43.5937ZM118.066-21.6758C118.066-20.7878 117.764-19.9401 117.158-19.1328 116.553-18.3255 115.806-17.8008 114.918-17.5586 113.868-17.2357 111.669-16.5898 108.318-15.6211 104.968-14.6523 101.053-13.5221 96.5723-12.2305 92.0918-10.9388 87.3691-9.5664 82.4043-8.11328 77.4394-6.66016 72.8379-5.32812 68.5996-4.11719 64.3613-2.90625 60.7487-1.91732 57.7617-1.15039 54.7747-0.383464 53.0794 0 52.6758 0 51.5456 0 50.5566-0.423828 49.709-1.27148 48.8613-2.11914 48.4375-3.10807 48.4375-4.23828 48.4375-5.20703 48.7402-6.11523 49.3457-6.96289 49.9512-7.81055 50.6979-8.35547 51.5859-8.59766 52.5547-8.92057 54.7344-9.56641 58.125-10.5352 61.5156-11.5039 65.431-12.6341 69.8711-13.9258 74.3112-15.2174 79.0338-16.5898 84.0391-18.043 89.0443-19.4961 93.6862-20.8079 97.9648-21.9785 102.243-23.1491 105.856-24.138 108.803-24.9453 111.749-25.7526 113.424-26.1562 113.828-26.1562 114.958-26.1562 115.947-25.7122 116.795-24.8242 117.643-23.9362 118.066-22.8867 118.066-21.6758ZM222.449-39.2344C222.449-40.3646 222.893-41.3737 223.781-42.2617 224.669-43.1497 225.678-43.5937 226.809-43.5937L287.719-43.5937C288.849-43.5937 289.858-43.1497 290.746-42.2617 291.634-41.3737 292.078-40.3646 292.078-39.2344 292.078-38.0234 291.654-36.9941 290.807-36.1465 289.959-35.2988 288.93-34.875 287.719-34.875L226.809-34.875C225.598-34.875 224.568-35.2988 223.721-36.1465 222.873-36.9941 222.449-38.0234 222.449-39.2344ZM226.687-26.1562C227.01-26.1562 228.06-25.9342 229.836-25.4902 231.612-25.0462 233.872-24.4408 236.617-23.6738 239.362-22.9069 242.45-22.0391 245.881-21.0703 249.312-20.1016 252.844-19.0924 256.477-18.043 260.109-16.9935 263.702-15.944 267.254-14.8945 270.806-13.8451 274.055-12.8965 277.002-12.0488 279.949-11.2012 282.491-10.4746 284.631-9.86914 286.77-9.26367 288.203-8.83984 288.93-8.59766 289.818-8.35547 290.564-7.81055 291.17-6.96289 291.775-6.11523 292.078-5.20703 292.078-4.23828 292.078-3.10807 291.654-2.11914 290.807-1.27148 289.959-0.423828 288.97 0 287.84 0 287.436 0 285.761-0.403646 282.814-1.21094 279.868-2.01823 276.255-3.00716 271.977-4.17773 267.698-5.34831 263.056-6.66016 258.051-8.11328 253.046-9.5664 248.323-10.9388 243.883-12.2305 239.443-13.5221 235.527-14.6523 232.137-15.6211 228.746-16.5898 226.566-17.2357 225.598-17.5586 224.71-17.8008 223.963-18.3255 223.357-19.1328 222.752-19.9401 222.449-20.7878 222.449-21.6758 222.449-22.8867 222.873-23.9362 223.721-24.8242 224.568-25.7122 225.557-26.1562 226.687-26.1562Z" fill="#B4ACBC" transform="translate(1494.05 2019)"/><path d="M181.883-5.20703C182.69-4.80338 183.094-4.15755 183.094-3.26953L183.094 3.51172C183.094 4.5612 182.71 5.4694 181.943 6.23633 181.176 7.00325 180.268 7.38672 179.219 7.38672L160.812 7.38672C159.682 7.38672 158.754 7.02344 158.027 6.29687 157.301 5.57031 156.937 4.64193 156.937 3.51172L156.937-3.26953C156.937-4.15755 157.301-4.80338 158.027-5.20703L169.895-11.625Z" fill="#F4F4F4" transform="translate(1494.05 2019)"/><path d="M155.848-38.8711C155.848-40.4857 156.393-41.8581 157.482-42.9883 158.572-44.1185 159.924-44.6836 161.539-44.6836L178.25-44.6836C179.865-44.6836 181.237-44.1185 182.367-42.9883 183.497-41.8581 184.062-40.4857 184.062-38.8711 184.062-37.1758 183.336-35.7227 181.883-34.5117L173.77-27.7305C172.639-26.8424 171.348-26.3984 169.895-26.3984 168.441-26.3984 167.15-26.8424 166.02-27.7305L157.906-34.5117C156.534-35.6419 155.848-37.095 155.848-38.8711Z" fill="#CA0B4A" transform="translate(1494.05 2019)"/><path d="M126.785-69.8711C126.785-72.2122 127.633-74.2506 129.328-75.9863 131.023-77.722 133.042-78.5898 135.383-78.5898 137.805-78.5898 139.863-77.7422 141.559-76.0469 143.254-74.3516 144.102-72.293 144.102-69.8711L144.102-61.2734C144.102-58.8516 143.254-56.793 141.559-55.0977 139.863-53.4023 137.805-52.5547 135.383-52.5547 133.042-52.5547 131.023-53.4225 129.328-55.1582 127.633-56.8939 126.785-58.9323 126.785-61.2734ZM196.414-69.8711C196.414-72.2122 197.262-74.2506 198.957-75.9863 200.652-77.722 202.671-78.5898 205.012-78.5898 207.434-78.5898 209.492-77.7422 211.187-76.0469 212.883-74.3516 213.73-72.293 213.73-69.8711L213.73-61.2734C213.73-58.8516 212.883-56.793 211.187-55.0977 209.492-53.4023 207.434-52.5547 205.012-52.5547 202.671-52.5547 200.652-53.4225 198.957-55.1582 197.262-56.8939 196.414-58.9323 196.414-61.2734ZM139.621-25.9141C140.832-25.9141 141.861-25.4902 142.709-24.6426 143.557-23.7949 143.98-22.7656 143.98-21.5547 143.98-18.5677 145.03-16.0247 147.129-13.9258 149.228-11.8268 151.771-10.7773 154.758-10.7773 157.745-10.7773 160.288-11.8268 162.387-13.9258 164.486-16.0247 165.535-18.5677 165.535-21.5547 165.535-22.8464 165.979-23.8958 166.867-24.7031 167.755-25.5104 168.805-25.9141 170.016-25.9141 171.227-25.9141 172.256-25.4902 173.104-24.6426 173.951-23.7949 174.375-22.7656 174.375-21.5547 174.375-18.5677 175.424-16.0247 177.523-13.9258 179.622-11.8268 182.165-10.7773 185.152-10.7773 188.139-10.7773 190.682-11.8268 192.781-13.9258 194.88-16.0247 195.93-18.5677 195.93-21.5547 195.93-22.7656 196.353-23.7949 197.201-24.6426 198.049-25.4902 199.078-25.9141 200.289-25.9141 201.5-25.9141 202.529-25.4902 203.377-24.6426 204.225-23.7949 204.648-22.7656 204.648-21.5547 204.648-18.8906 204.124-16.3678 203.074-13.9863 202.025-11.6048 200.632-9.54622 198.896-7.81055 197.161-6.07487 195.102-4.68229 192.721-3.63281 190.339-2.58333 187.816-2.05859 185.152-2.05859 182.165-2.05859 179.34-2.70443 176.676-3.99609 174.012-5.28776 171.751-7.10417 169.895-9.44531 168.038-7.10417 165.798-5.28776 163.174-3.99609 160.55-2.70443 157.745-2.05859 154.758-2.05859 152.094-2.05859 149.571-2.58333 147.189-3.63281 144.808-4.68229 142.749-6.07487 141.014-7.81055 139.278-9.54622 137.885-11.6048 136.836-13.9863 135.786-16.3678 135.262-18.8906 135.262-21.5547 135.262-22.7656 135.686-23.7949 136.533-24.6426 137.381-25.4902 138.41-25.9141 139.621-25.9141Z" fill="#1C1C1C" transform="translate(1494.05 2019)"/><path d="M269.676-35.4805C269.676-29.2643 268.848-23.3307 267.193-17.6797 265.538-12.0286 263.177-6.78125 260.109-1.9375 257.042 2.90625 253.308 7.30599 248.908 11.2617 244.508 15.2174 239.604 18.6081 234.195 21.4336 229.352 23.9362 224.165 26.0352 218.635 27.7305 213.105 29.4258 207.474 30.7982 201.742 31.8477 196.01 32.8971 190.258 33.6439 184.486 34.0879 178.714 34.5319 173.124 34.7539 167.715 34.7539 162.387 34.7539 156.816 34.5319 151.004 34.0879 145.191 33.6439 139.419 32.8971 133.687 31.8477 127.956 30.7982 122.325 29.4258 116.795 27.7305 111.265 26.0352 106.078 23.9362 101.234 21.4336 95.7448 18.6081 90.8203 15.2174 86.4609 11.2617 82.1016 7.30599 78.388 2.88607 75.3203-1.99805 72.2526-6.88216 69.8913-12.1296 68.2363-17.7402 66.5814-23.3509 65.7539-29.2643 65.7539-35.4805 65.7539-37.4987 65.8548-39.4766 66.0566-41.4141 66.2585-43.3516 66.5208-45.3294 66.8437-47.3477 68.2161-55.4206 70.2142-63.2311 72.8379-70.7793 75.4616-78.3275 78.7715-85.4518 82.7676-92.1523 86.7637-98.8529 91.5065-105.069 96.9961-110.801 102.486-116.533 108.783-121.578 115.887-125.937L105.715-181.035C105.473-182.488 105.352-183.941 105.352-185.395 105.352-188.624 105.977-191.671 107.229-194.537 108.48-197.403 110.175-199.885 112.314-201.984 114.454-204.083 116.956-205.758 119.822-207.01 122.688-208.261 125.736-208.887 128.965-208.887 132.194-208.887 135.262-208.261 138.168-207.01 141.074-205.758 143.577-204.083 145.676-201.984 147.775-199.885 149.45-197.383 150.701-194.477 151.952-191.57 152.578-188.503 152.578-185.273L152.578-139.137C157.018-139.863 161.499-140.227 166.02-140.227 169.652-140.227 173.204-140.085 176.676-139.803 180.147-139.52 183.699-139.016 187.332-138.289L187.332-185.273C187.332-188.503 187.958-191.57 189.209-194.477 190.46-197.383 192.135-199.885 194.234-201.984 196.333-204.083 198.816-205.758 201.682-207.01 204.548-208.261 207.635-208.887 210.945-208.887 214.174-208.887 217.242-208.261 220.148-207.01 223.055-205.758 225.557-204.063 227.656-201.924 229.755-199.784 231.43-197.262 232.682-194.355 233.933-191.449 234.559-188.382 234.559-185.152 234.559-183.699 234.437-182.327 234.195-181.035L223.539-123.516C230.078-119.156 235.891-114.171 240.977-108.561 246.062-102.95 250.462-96.875 254.176-90.3359 257.889-83.7969 260.957-76.8945 263.379-69.6289 265.801-62.3633 267.617-54.9362 268.828-47.3477 269.151-45.4101 269.413-43.4928 269.615-41.5957 269.817-39.6986 269.918-37.7812 269.918-35.8437Z" fill="#CDC4D6" transform="translate(2343.67 1965)"/><path d="M133.566-127.754C132.194-127.754 130.963-128.198 129.873-129.086 128.783-129.974 128.117-131.104 127.875-132.477L118.43-183.457C118.349-183.861 118.309-184.466 118.309-185.273 118.309-188.18 119.338-190.662 121.396-192.721 123.455-194.779 125.937-195.809 128.844-195.809 130.297-195.809 131.669-195.526 132.961-194.961 134.253-194.396 135.383-193.609 136.352-192.6 137.32-191.59 138.087-190.44 138.652-189.148 139.217-187.857 139.5-186.484 139.5-185.031L139.5-133.566C139.5-131.952 138.915-130.579 137.744-129.449 136.574-128.319 135.181-127.754 133.566-127.754ZM200.289-185.031C200.289-186.484 200.572-187.857 201.137-189.148 201.702-190.44 202.469-191.59 203.437-192.6 204.406-193.609 205.536-194.396 206.828-194.961 208.12-195.526 209.492-195.809 210.945-195.809 213.852-195.809 216.334-194.779 218.393-192.721 220.451-190.662 221.48-188.18 221.48-185.273 221.48-184.951 221.48-184.628 221.48-184.305 221.48-183.982 221.44-183.659 221.359-183.336L211.914-132.477C211.672-131.104 211.006-129.974 209.916-129.086 208.826-128.198 207.595-127.754 206.223-127.754 204.608-127.754 203.215-128.319 202.045-129.449 200.874-130.579 200.289-131.952 200.289-133.566Z" fill="#FF8687" transform="translate(2343.67 1965)"/><path d="M113.707-43.5937C114.837-43.5937 115.846-43.1497 116.734-42.2617 117.622-41.3737 118.066-40.3646 118.066-39.2344 118.066-38.0234 117.643-36.9941 116.795-36.1465 115.947-35.2988 114.918-34.875 113.707-34.875L52.7969-34.875C51.5859-34.875 50.5566-35.2988 49.709-36.1465 48.8613-36.9941 48.4375-38.0234 48.4375-39.2344 48.4375-40.3646 48.8815-41.3737 49.7695-42.2617 50.6575-43.1497 51.6667-43.5937 52.7969-43.5937ZM118.066-21.6758C118.066-20.7878 117.764-19.9401 117.158-19.1328 116.553-18.3255 115.806-17.8008 114.918-17.5586 113.868-17.2357 111.669-16.5898 108.318-15.6211 104.968-14.6523 101.053-13.5221 96.5723-12.2305 92.0918-10.9388 87.3691-9.5664 82.4043-8.11328 77.4394-6.66016 72.8379-5.32812 68.5996-4.11719 64.3613-2.90625 60.7487-1.91732 57.7617-1.15039 54.7747-0.383464 53.0794 0 52.6758 0 51.5456 0 50.5566-0.423828 49.709-1.27148 48.8613-2.11914 48.4375-3.10807 48.4375-4.23828 48.4375-5.20703 48.7402-6.11523 49.3457-6.96289 49.9512-7.81055 50.6979-8.35547 51.5859-8.59766 52.5547-8.92057 54.7344-9.56641 58.125-10.5352 61.5156-11.5039 65.431-12.6341 69.8711-13.9258 74.3112-15.2174 79.0338-16.5898 84.0391-18.043 89.0443-19.4961 93.6862-20.8079 97.9648-21.9785 102.243-23.1491 105.856-24.138 108.803-24.9453 111.749-25.7526 113.424-26.1562 113.828-26.1562 114.958-26.1562 115.947-25.7122 116.795-24.8242 117.643-23.9362 118.066-22.8867 118.066-21.6758ZM222.449-39.2344C222.449-40.3646 222.893-41.3737 223.781-42.2617 224.669-43.1497 225.678-43.5937 226.809-43.5937L287.719-43.5937C288.849-43.5937 289.858-43.1497 290.746-42.2617 291.634-41.3737 292.078-40.3646 292.078-39.2344 292.078-38.0234 291.654-36.9941 290.807-36.1465 289.959-35.2988 288.93-34.875 287.719-34.875L226.809-34.875C225.598-34.875 224.568-35.2988 223.721-36.1465 222.873-36.9941 222.449-38.0234 222.449-39.2344ZM226.687-26.1562C227.01-26.1562 228.06-25.9342 229.836-25.4902 231.612-25.0462 233.872-24.4408 236.617-23.6738 239.362-22.9069 242.45-22.0391 245.881-21.0703 249.312-20.1016 252.844-19.0924 256.477-18.043 260.109-16.9935 263.702-15.944 267.254-14.8945 270.806-13.8451 274.055-12.8965 277.002-12.0488 279.949-11.2012 282.491-10.4746 284.631-9.86914 286.77-9.26367 288.203-8.83984 288.93-8.59766 289.818-8.35547 290.564-7.81055 291.17-6.96289 291.775-6.11523 292.078-5.20703 292.078-4.23828 292.078-3.10807 291.654-2.11914 290.807-1.27148 289.959-0.423828 288.97 0 287.84 0 287.436 0 285.761-0.403646 282.814-1.21094 279.868-2.01823 276.255-3.00716 271.977-4.17773 267.698-5.34831 263.056-6.66016 258.051-8.11328 253.046-9.5664 248.323-10.9388 243.883-12.2305 239.443-13.5221 235.527-14.6523 232.137-15.6211 228.746-16.5898 226.566-17.2357 225.598-17.5586 224.71-17.8008 223.963-18.3255 223.357-19.1328 222.752-19.9401 222.449-20.7878 222.449-21.6758 222.449-22.8867 222.873-23.9362 223.721-24.8242 224.568-25.7122 225.557-26.1562 226.687-26.1562Z" fill="#B4ACBC" transform="translate(2343.67 1965)"/><path d="M181.883-5.20703C182.69-4.80338 183.094-4.15755 183.094-3.26953L183.094 3.51172C183.094 4.5612 182.71 5.4694 181.943 6.23633 181.176 7.00325 180.268 7.38672 179.219 7.38672L160.812 7.38672C159.682 7.38672 158.754 7.02344 158.027 6.29687 157.301 5.57031 156.937 4.64193 156.937 3.51172L156.937-3.26953C156.937-4.15755 157.301-4.80338 158.027-5.20703L169.895-11.625Z" fill="#F4F4F4" transform="translate(2343.67 1965)"/><path d="M155.848-38.8711C155.848-40.4857 156.393-41.8581 157.482-42.9883 158.572-44.1185 159.924-44.6836 161.539-44.6836L178.25-44.6836C179.865-44.6836 181.237-44.1185 182.367-42.9883 183.497-41.8581 184.062-40.4857 184.062-38.8711 184.062-37.1758 183.336-35.7227 181.883-34.5117L173.77-27.7305C172.639-26.8424 171.348-26.3984 169.895-26.3984 168.441-26.3984 167.15-26.8424 166.02-27.7305L157.906-34.5117C156.534-35.6419 155.848-37.095 155.848-38.8711Z" fill="#CA0B4A" transform="translate(2343.67 1965)"/><path d="M126.785-69.8711C126.785-72.2122 127.633-74.2506 129.328-75.9863 131.023-77.722 133.042-78.5898 135.383-78.5898 137.805-78.5898 139.863-77.7422 141.559-76.0469 143.254-74.3516 144.102-72.293 144.102-69.8711L144.102-61.2734C144.102-58.8516 143.254-56.793 141.559-55.0977 139.863-53.4023 137.805-52.5547 135.383-52.5547 133.042-52.5547 131.023-53.4225 129.328-55.1582 127.633-56.8939 126.785-58.9323 126.785-61.2734ZM196.414-69.8711C196.414-72.2122 197.262-74.2506 198.957-75.9863 200.652-77.722 202.671-78.5898 205.012-78.5898 207.434-78.5898 209.492-77.7422 211.187-76.0469 212.883-74.3516 213.73-72.293 213.73-69.8711L213.73-61.2734C213.73-58.8516 212.883-56.793 211.187-55.0977 209.492-53.4023 207.434-52.5547 205.012-52.5547 202.671-52.5547 200.652-53.4225 198.957-55.1582 197.262-56.8939 196.414-58.9323 196.414-61.2734ZM139.621-25.9141C140.832-25.9141 141.861-25.4902 142.709-24.6426 143.557-23.7949 143.98-22.7656 143.98-21.5547 143.98-18.5677 145.03-16.0247 147.129-13.9258 149.228-11.8268 151.771-10.7773 154.758-10.7773 157.745-10.7773 160.288-11.8268 162.387-13.9258 164.486-16.0247 165.535-18.5677 165.535-21.5547 165.535-22.8464 165.979-23.8958 166.867-24.7031 167.755-25.5104 168.805-25.9141 170.016-25.9141 171.227-25.9141 172.256-25.4902 173.104-24.6426 173.951-23.7949 174.375-22.7656 174.375-21.5547 174.375-18.5677 175.424-16.0247 177.523-13.9258 179.622-11.8268 182.165-10.7773 185.152-10.7773 188.139-10.7773 190.682-11.8268 192.781-13.9258 194.88-16.0247 195.93-18.5677 195.93-21.5547 195.93-22.7656 196.353-23.7949 197.201-24.6426 198.049-25.4902 199.078-25.9141 200.289-25.9141 201.5-25.9141 202.529-25.4902 203.377-24.6426 204.225-23.7949 204.648-22.7656 204.648-21.5547 204.648-18.8906 204.124-16.3678 203.074-13.9863 202.025-11.6048 200.632-9.54622 198.896-7.81055 197.161-6.07487 195.102-4.68229 192.721-3.63281 190.339-2.58333 187.816-2.05859 185.152-2.05859 182.165-2.05859 179.34-2.70443 176.676-3.99609 174.012-5.28776 171.751-7.10417 169.895-9.44531 168.038-7.10417 165.798-5.28776 163.174-3.99609 160.55-2.70443 157.745-2.05859 154.758-2.05859 152.094-2.05859 149.571-2.58333 147.189-3.63281 144.808-4.68229 142.749-6.07487 141.014-7.81055 139.278-9.54622 137.885-11.6048 136.836-13.9863 135.786-16.3678 135.262-18.8906 135.262-21.5547 135.262-22.7656 135.686-23.7949 136.533-24.6426 137.381-25.4902 138.41-25.9141 139.621-25.9141Z" fill="#1C1C1C" transform="translate(2343.67 1965)"/><path d="M269.676-35.4805C269.676-29.2643 268.848-23.3307 267.193-17.6797 265.538-12.0286 263.177-6.78125 260.109-1.9375 257.042 2.90625 253.308 7.30599 248.908 11.2617 244.508 15.2174 239.604 18.6081 234.195 21.4336 229.352 23.9362 224.165 26.0352 218.635 27.7305 213.105 29.4258 207.474 30.7982 201.742 31.8477 196.01 32.8971 190.258 33.6439 184.486 34.0879 178.714 34.5319 173.124 34.7539 167.715 34.7539 162.387 34.7539 156.816 34.5319 151.004 34.0879 145.191 33.6439 139.419 32.8971 133.687 31.8477 127.956 30.7982 122.325 29.4258 116.795 27.7305 111.265 26.0352 106.078 23.9362 101.234 21.4336 95.7448 18.6081 90.8203 15.2174 86.4609 11.2617 82.1016 7.30599 78.388 2.88607 75.3203-1.99805 72.2526-6.88216 69.8913-12.1296 68.2363-17.7402 66.5814-23.3509 65.7539-29.2643 65.7539-35.4805 65.7539-37.4987 65.8548-39.4766 66.0566-41.4141 66.2585-43.3516 66.5208-45.3294 66.8437-47.3477 68.2161-55.4206 70.2142-63.2311 72.8379-70.7793 75.4616-78.3275 78.7715-85.4518 82.7676-92.1523 86.7637-98.8529 91.5065-105.069 96.9961-110.801 102.486-116.533 108.783-121.578 115.887-125.937L105.715-181.035C105.473-182.488 105.352-183.941 105.352-185.395 105.352-188.624 105.977-191.671 107.229-194.537 108.48-197.403 110.175-199.885 112.314-201.984 114.454-204.083 116.956-205.758 119.822-207.01 122.688-208.261 125.736-208.887 128.965-208.887 132.194-208.887 135.262-208.261 138.168-207.01 141.074-205.758 143.577-204.083 145.676-201.984 147.775-199.885 149.45-197.383 150.701-194.477 151.952-191.57 152.578-188.503 152.578-185.273L152.578-139.137C157.018-139.863 161.499-140.227 166.02-140.227 169.652-140.227 173.204-140.085 176.676-139.803 180.147-139.52 183.699-139.016 187.332-138.289L187.332-185.273C187.332-188.503 187.958-191.57 189.209-194.477 190.46-197.383 192.135-199.885 194.234-201.984 196.333-204.083 198.816-205.758 201.682-207.01 204.548-208.261 207.635-208.887 210.945-208.887 214.174-208.887 217.242-208.261 220.148-207.01 223.055-205.758 225.557-204.063 227.656-201.924 229.755-199.784 231.43-197.262 232.682-194.355 233.933-191.449 234.559-188.382 234.559-185.152 234.559-183.699 234.437-182.327 234.195-181.035L223.539-123.516C230.078-119.156 235.891-114.171 240.977-108.561 246.062-102.95 250.462-96.875 254.176-90.3359 257.889-83.7969 260.957-76.8945 263.379-69.6289 265.801-62.3633 267.617-54.9362 268.828-47.3477 269.151-45.4101 269.413-43.4928 269.615-41.5957 269.817-39.6986 269.918-37.7812 269.918-35.8437Z" fill="#CDC4D6" transform="translate(2683.41 1965)"/><path d="M133.566-127.754C132.194-127.754 130.963-128.198 129.873-129.086 128.783-129.974 128.117-131.104 127.875-132.477L118.43-183.457C118.349-183.861 118.309-184.466 118.309-185.273 118.309-188.18 119.338-190.662 121.396-192.721 123.455-194.779 125.937-195.809 128.844-195.809 130.297-195.809 131.669-195.526 132.961-194.961 134.253-194.396 135.383-193.609 136.352-192.6 137.32-191.59 138.087-190.44 138.652-189.148 139.217-187.857 139.5-186.484 139.5-185.031L139.5-133.566C139.5-131.952 138.915-130.579 137.744-129.449 136.574-128.319 135.181-127.754 133.566-127.754ZM200.289-185.031C200.289-186.484 200.572-187.857 201.137-189.148 201.702-190.44 202.469-191.59 203.437-192.6 204.406-193.609 205.536-194.396 206.828-194.961 208.12-195.526 209.492-195.809 210.945-195.809 213.852-195.809 216.334-194.779 218.393-192.721 220.451-190.662 221.48-188.18 221.48-185.273 221.48-184.951 221.48-184.628 221.48-184.305 221.48-183.982 221.44-183.659 221.359-183.336L211.914-132.477C211.672-131.104 211.006-129.974 209.916-129.086 208.826-128.198 207.595-127.754 206.223-127.754 204.608-127.754 203.215-128.319 202.045-129.449 200.874-130.579 200.289-131.952 200.289-133.566Z" fill="#FF8687" transform="translate(2683.41 1965)"/><path d="M113.707-43.5937C114.837-43.5937 115.846-43.1497 116.734-42.2617 117.622-41.3737 118.066-40.3646 118.066-39.2344 118.066-38.0234 117.643-36.9941 116.795-36.1465 115.947-35.2988 114.918-34.875 113.707-34.875L52.7969-34.875C51.5859-34.875 50.5566-35.2988 49.709-36.1465 48.8613-36.9941 48.4375-38.0234 48.4375-39.2344 48.4375-40.3646 48.8815-41.3737 49.7695-42.2617 50.6575-43.1497 51.6667-43.5937 52.7969-43.5937ZM118.066-21.6758C118.066-20.7878 117.764-19.9401 117.158-19.1328 116.553-18.3255 115.806-17.8008 114.918-17.5586 113.868-17.2357 111.669-16.5898 108.318-15.6211 104.968-14.6523 101.053-13.5221 96.5723-12.2305 92.0918-10.9388 87.3691-9.5664 82.4043-8.11328 77.4394-6.66016 72.8379-5.32812 68.5996-4.11719 64.3613-2.90625 60.7487-1.91732 57.7617-1.15039 54.7747-0.383464 53.0794 0 52.6758 0 51.5456 0 50.5566-0.423828 49.709-1.27148 48.8613-2.11914 48.4375-3.10807 48.4375-4.23828 48.4375-5.20703 48.7402-6.11523 49.3457-6.96289 49.9512-7.81055 50.6979-8.35547 51.5859-8.59766 52.5547-8.92057 54.7344-9.56641 58.125-10.5352 61.5156-11.5039 65.431-12.6341 69.8711-13.9258 74.3112-15.2174 79.0338-16.5898 84.0391-18.043 89.0443-19.4961 93.6862-20.8079 97.9648-21.9785 102.243-23.1491 105.856-24.138 108.803-24.9453 111.749-25.7526 113.424-26.1562 113.828-26.1562 114.958-26.1562 115.947-25.7122 116.795-24.8242 117.643-23.9362 118.066-22.8867 118.066-21.6758ZM222.449-39.2344C222.449-40.3646 222.893-41.3737 223.781-42.2617 224.669-43.1497 225.678-43.5937 226.809-43.5937L287.719-43.5937C288.849-43.5937 289.858-43.1497 290.746-42.2617 291.634-41.3737 292.078-40.3646 292.078-39.2344 292.078-38.0234 291.654-36.9941 290.807-36.1465 289.959-35.2988 288.93-34.875 287.719-34.875L226.809-34.875C225.598-34.875 224.568-35.2988 223.721-36.1465 222.873-36.9941 222.449-38.0234 222.449-39.2344ZM226.687-26.1562C227.01-26.1562 228.06-25.9342 229.836-25.4902 231.612-25.0462 233.872-24.4408 236.617-23.6738 239.362-22.9069 242.45-22.0391 245.881-21.0703 249.312-20.1016 252.844-19.0924 256.477-18.043 260.109-16.9935 263.702-15.944 267.254-14.8945 270.806-13.8451 274.055-12.8965 277.002-12.0488 279.949-11.2012 282.491-10.4746 284.631-9.86914 286.77-9.26367 288.203-8.83984 288.93-8.59766 289.818-8.35547 290.564-7.81055 291.17-6.96289 291.775-6.11523 292.078-5.20703 292.078-4.23828 292.078-3.10807 291.654-2.11914 290.807-1.27148 289.959-0.423828 288.97 0 287.84 0 287.436 0 285.761-0.403646 282.814-1.21094 279.868-2.01823 276.255-3.00716 271.977-4.17773 267.698-5.34831 263.056-6.66016 258.051-8.11328 253.046-9.5664 248.323-10.9388 243.883-12.2305 239.443-13.5221 235.527-14.6523 232.137-15.6211 228.746-16.5898 226.566-17.2357 225.598-17.5586 224.71-17.8008 223.963-18.3255 223.357-19.1328 222.752-19.9401 222.449-20.7878 222.449-21.6758 222.449-22.8867 222.873-23.9362 223.721-24.8242 224.568-25.7122 225.557-26.1562 226.687-26.1562Z" fill="#B4ACBC" transform="translate(2683.41 1965)"/><path d="M181.883-5.20703C182.69-4.80338 183.094-4.15755 183.094-3.26953L183.094 3.51172C183.094 4.5612 182.71 5.4694 181.943 6.23633 181.176 7.00325 180.268 7.38672 179.219 7.38672L160.812 7.38672C159.682 7.38672 158.754 7.02344 158.027 6.29687 157.301 5.57031 156.937 4.64193 156.937 3.51172L156.937-3.26953C156.937-4.15755 157.301-4.80338 158.027-5.20703L169.895-11.625Z" fill="#F4F4F4" transform="translate(2683.41 1965)"/><path d="M155.848-38.8711C155.848-40.4857 156.393-41.8581 157.482-42.9883 158.572-44.1185 159.924-44.6836 161.539-44.6836L178.25-44.6836C179.865-44.6836 181.237-44.1185 182.367-42.9883 183.497-41.8581 184.062-40.4857 184.062-38.8711 184.062-37.1758 183.336-35.7227 181.883-34.5117L173.77-27.7305C172.639-26.8424 171.348-26.3984 169.895-26.3984 168.441-26.3984 167.15-26.8424 166.02-27.7305L157.906-34.5117C156.534-35.6419 155.848-37.095 155.848-38.8711Z" fill="#CA0B4A" transform="translate(2683.41 1965)"/><path d="M126.785-69.8711C126.785-72.2122 127.633-74.2506 129.328-75.9863 131.023-77.722 133.042-78.5898 135.383-78.5898 137.805-78.5898 139.863-77.7422 141.559-76.0469 143.254-74.3516 144.102-72.293 144.102-69.8711L144.102-61.2734C144.102-58.8516 143.254-56.793 141.559-55.0977 139.863-53.4023 137.805-52.5547 135.383-52.5547 133.042-52.5547 131.023-53.4225 129.328-55.1582 127.633-56.8939 126.785-58.9323 126.785-61.2734ZM196.414-69.8711C196.414-72.2122 197.262-74.2506 198.957-75.9863 200.652-77.722 202.671-78.5898 205.012-78.5898 207.434-78.5898 209.492-77.7422 211.187-76.0469 212.883-74.3516 213.73-72.293 213.73-69.8711L213.73-61.2734C213.73-58.8516 212.883-56.793 211.187-55.0977 209.492-53.4023 207.434-52.5547 205.012-52.5547 202.671-52.5547 200.652-53.4225 198.957-55.1582 197.262-56.8939 196.414-58.9323 196.414-61.2734ZM139.621-25.9141C140.832-25.9141 141.861-25.4902 142.709-24.6426 143.557-23.7949 143.98-22.7656 143.98-21.5547 143.98-18.5677 145.03-16.0247 147.129-13.9258 149.228-11.8268 151.771-10.7773 154.758-10.7773 157.745-10.7773 160.288-11.8268 162.387-13.9258 164.486-16.0247 165.535-18.5677 165.535-21.5547 165.535-22.8464 165.979-23.8958 166.867-24.7031 167.755-25.5104 168.805-25.9141 170.016-25.9141 171.227-25.9141 172.256-25.4902 173.104-24.6426 173.951-23.7949 174.375-22.7656 174.375-21.5547 174.375-18.5677 175.424-16.0247 177.523-13.9258 179.622-11.8268 182.165-10.7773 185.152-10.7773 188.139-10.7773 190.682-11.8268 192.781-13.9258 194.88-16.0247 195.93-18.5677 195.93-21.5547 195.93-22.7656 196.353-23.7949 197.201-24.6426 198.049-25.4902 199.078-25.9141 200.289-25.9141 201.5-25.9141 202.529-25.4902 203.377-24.6426 204.225-23.7949 204.648-22.7656 204.648-21.5547 204.648-18.8906 204.124-16.3678 203.074-13.9863 202.025-11.6048 200.632-9.54622 198.896-7.81055 197.161-6.07487 195.102-4.68229 192.721-3.63281 190.339-2.58333 187.816-2.05859 185.152-2.05859 182.165-2.05859 179.34-2.70443 176.676-3.99609 174.012-5.28776 171.751-7.10417 169.895-9.44531 168.038-7.10417 165.798-5.28776 163.174-3.99609 160.55-2.70443 157.745-2.05859 154.758-2.05859 152.094-2.05859 149.571-2.58333 147.189-3.63281 144.808-4.68229 142.749-6.07487 141.014-7.81055 139.278-9.54622 137.885-11.6048 136.836-13.9863 135.786-16.3678 135.262-18.8906 135.262-21.5547 135.262-22.7656 135.686-23.7949 136.533-24.6426 137.381-25.4902 138.41-25.9141 139.621-25.9141Z" fill="#1C1C1C" transform="translate(2683.41 1965)"/><path d="M159.848-21.0308C159.848-17.3462 159.358-13.8291 158.377-10.4795 157.396-7.12988 155.996-4.01953 154.178-1.14844 152.359 1.72266 150.146 4.33057 147.538 6.67529 144.93 9.02002 142.023 11.0298 138.817 12.7046 135.946 14.188 132.872 15.4321 129.594 16.437 126.316 17.4419 122.979 18.2554 119.581 18.8774 116.184 19.4995 112.774 19.9421 109.353 20.2053 105.931 20.4685 102.618 20.6001 99.4116 20.6001 96.2534 20.6001 92.9517 20.4685 89.5063 20.2053 86.061 19.9421 82.6396 19.4995 79.2422 18.8774 75.8447 18.2554 72.5071 17.4419 69.2292 16.437 65.9514 15.4321 62.8769 14.188 60.0059 12.7046 56.7519 11.0298 53.833 9.02002 51.249 6.67529 48.665 4.33057 46.4639 1.71069 44.6455-1.18433 42.8271-4.07935 41.4275-7.1897 40.4465-10.5154 39.4656-13.8411 38.9751-17.3462 38.9751-21.0308 38.9751-22.227 39.0349-23.3994 39.1545-24.5478 39.2742-25.6963 39.4297-26.8686 39.6211-28.0649 40.4346-32.8501 41.6189-37.4797 43.1741-41.9539 44.7292-46.428 46.6912-50.6509 49.0598-54.6226 51.4285-58.5942 54.2397-62.2788 57.4936-65.6763 60.7476-69.0737 64.48-72.0644 68.6909-74.6484L62.6616-107.307C62.5181-108.168 62.4463-109.03 62.4463-109.891 62.4463-111.805 62.8171-113.612 63.5588-115.31 64.3005-117.009 65.3054-118.48 66.5735-119.725 67.8415-120.969 69.3249-121.962 71.0237-122.703 72.7224-123.445 74.5288-123.816 76.4429-123.816 78.3569-123.816 80.1753-123.445 81.8979-122.703 83.6206-121.962 85.104-120.969 86.3481-119.725 87.5923-118.48 88.5852-116.997 89.3269-115.274 90.0686-113.552 90.4394-111.733 90.4394-109.819L90.4394-82.4722C93.0713-82.9028 95.727-83.1182 98.4067-83.1182 100.56-83.1182 102.666-83.0344 104.723-82.8669 106.781-82.6995 108.886-82.4004 111.04-81.9697L111.04-109.819C111.04-111.733 111.41-113.552 112.152-115.274 112.894-116.997 113.887-118.48 115.131-119.725 116.375-120.969 117.846-121.962 119.545-122.703 121.244-123.445 123.074-123.816 125.036-123.816 126.95-123.816 128.769-123.445 130.491-122.703 132.214-121.962 133.697-120.957 134.941-119.689 136.186-118.421 137.178-116.925 137.92-115.203 138.662-113.48 139.033-111.662 139.033-109.748 139.033-108.886 138.961-108.073 138.817-107.307L132.501-73.2129C136.377-70.6289 139.822-67.6741 142.837-64.3484 145.852-61.0227 148.459-57.4219 150.661-53.5459 152.862-49.6699 154.68-45.5786 156.116-41.272 157.551-36.9653 158.628-32.563 159.346-28.0649 159.537-26.9165 159.693-25.78 159.812-24.6555 159.932-23.531 159.992-22.3945 159.992-21.2461Z" fill="#CDC4D6" transform="translate(2476.58 2166)"/><path d="M79.1704-75.7251C78.3569-75.7251 77.6272-75.9883 76.9812-76.5146 76.3352-77.041 75.9404-77.7109 75.7969-78.5244L70.1982-108.743C70.1504-108.982 70.1265-109.341 70.1265-109.819 70.1265-111.542 70.7366-113.013 71.9568-114.234 73.177-115.454 74.6484-116.064 76.3711-116.064 77.2324-116.064 78.0459-115.896 78.8115-115.562 79.5771-115.227 80.2471-114.76 80.8213-114.162 81.3955-113.564 81.8501-112.882 82.1851-112.116 82.52-111.351 82.6875-110.537 82.6875-109.676L82.6875-79.1704C82.6875-78.2134 82.3406-77.3999 81.6467-76.73 80.9529-76.0601 80.1274-75.7251 79.1704-75.7251ZM118.72-109.676C118.72-110.537 118.887-111.351 119.222-112.116 119.557-112.882 120.012-113.564 120.586-114.162 121.16-114.76 121.83-115.227 122.596-115.562 123.361-115.896 124.175-116.064 125.036-116.064 126.759-116.064 128.23-115.454 129.45-114.234 130.671-113.013 131.281-111.542 131.281-109.819 131.281-109.628 131.281-109.437 131.281-109.245 131.281-109.054 131.257-108.862 131.209-108.671L125.61-78.5244C125.467-77.7109 125.072-77.041 124.426-76.5146 123.78-75.9883 123.05-75.7251 122.237-75.7251 121.28-75.7251 120.454-76.0601 119.76-76.73 119.067-77.3999 118.72-78.2134 118.72-79.1704Z" fill="#FF8687" transform="translate(2476.58 2166)"/><path d="M67.3989-25.8398C68.0688-25.8398 68.667-25.5767 69.1934-25.0503 69.7197-24.5239 69.9829-23.9258 69.9829-23.2559 69.9829-22.5381 69.7317-21.928 69.2292-21.4255 68.7268-20.9231 68.1167-20.6719 67.3989-20.6719L31.2949-20.6719C30.5771-20.6719 29.967-20.9231 29.4646-21.4255 28.9622-21.928 28.7109-22.5381 28.7109-23.2559 28.7109-23.9258 28.9741-24.5239 29.5005-25.0503 30.0269-25.5767 30.625-25.8398 31.2949-25.8398ZM69.9829-12.8481C69.9829-12.3218 69.8035-11.8193 69.4446-11.3408 69.0857-10.8623 68.6431-10.5513 68.1167-10.4077 67.4946-10.2163 66.1907-9.8335 64.2048-9.25928 62.219-8.68506 59.8982-8.01514 57.2424-7.24951 54.5867-6.48389 51.7873-5.67041 48.8445-4.80908 45.9016-3.94775 43.1741-3.1582 40.6619-2.44043 38.1497-1.72266 36.0083-1.13647 34.2378-0.681885 32.4673-0.227295 31.4624 0 31.2231 0 30.5532 0 29.967-0.251221 29.4646-0.753662 28.9622-1.2561 28.7109-1.84228 28.7109-2.51221 28.7109-3.08643 28.8904-3.62476 29.2493-4.1272 29.6082-4.62964 30.0508-4.95264 30.5771-5.09619 31.1514-5.2876 32.4434-5.67041 34.4531-6.24463 36.4629-6.81885 38.7837-7.48877 41.4155-8.25439 44.0474-9.02002 46.8467-9.8335 49.8135-10.6948 52.7803-11.5562 55.5317-12.3337 58.0679-13.0276 60.604-13.7214 62.7454-14.3076 64.4919-14.7861 66.2385-15.2646 67.2314-15.5039 67.4707-15.5039 68.1406-15.5039 68.7268-15.2407 69.2292-14.7144 69.7317-14.188 69.9829-13.5659 69.9829-12.8481ZM131.855-23.2559C131.855-23.9258 132.118-24.5239 132.645-25.0503 133.171-25.5767 133.769-25.8398 134.439-25.8398L170.543-25.8398C171.213-25.8398 171.811-25.5767 172.337-25.0503 172.864-24.5239 173.127-23.9258 173.127-23.2559 173.127-22.5381 172.876-21.928 172.373-21.4255 171.871-20.9231 171.261-20.6719 170.543-20.6719L134.439-20.6719C133.721-20.6719 133.111-20.9231 132.609-21.4255 132.106-21.928 131.855-22.5381 131.855-23.2559ZM134.367-15.5039C134.559-15.5039 135.181-15.3723 136.233-15.1091 137.286-14.8459 138.626-14.4871 140.253-14.0325 141.88-13.5779 143.71-13.0635 145.744-12.4893 147.778-11.915 149.871-11.3169 152.024-10.6948 154.178-10.0728 156.307-9.45068 158.413-8.82861 160.518-8.20654 162.444-7.64429 164.191-7.14184 165.937-6.6394 167.445-6.20874 168.713-5.84985 169.981-5.49097 170.83-5.23975 171.261-5.09619 171.787-4.95264 172.23-4.62964 172.589-4.1272 172.947-3.62476 173.127-3.08643 173.127-2.51221 173.127-1.84228 172.876-1.2561 172.373-0.753662 171.871-0.251221 171.285 0 170.615 0 170.375 0 169.383-0.239258 167.636-0.717773 165.889-1.19629 163.748-1.78247 161.212-2.47632 158.676-3.17017 155.924-3.94775 152.958-4.80908 149.991-5.67041 147.191-6.48389 144.56-7.24951 141.928-8.01514 139.607-8.68506 137.597-9.25928 135.587-9.8335 134.295-10.2163 133.721-10.4077 133.195-10.5513 132.752-10.8623 132.393-11.3408 132.034-11.8193 131.855-12.3218 131.855-12.8481 131.855-13.5659 132.106-14.188 132.609-14.7144 133.111-15.2407 133.697-15.5039 134.367-15.5039Z" fill="#B4ACBC" transform="translate(2476.58 2166)"/><path d="M107.81-3.08643C108.288-2.84717 108.527-2.46436 108.527-1.93799L108.527 2.08154C108.527 2.70361 108.3 3.24194 107.845 3.69653 107.391 4.15112 106.853 4.37842 106.23 4.37842L95.3203 4.37842C94.6504 4.37842 94.1001 4.16309 93.6694 3.73242 93.2388 3.30176 93.0234 2.75146 93.0234 2.08154L93.0234-1.93799C93.0234-2.46436 93.2388-2.84717 93.6694-3.08643L100.704-6.89062Z" fill="#F4F4F4" transform="translate(2476.58 2166)"/><path d="M92.3774-23.0405C92.3774-23.9976 92.7004-24.811 93.3464-25.481 93.9924-26.1509 94.7939-26.4858 95.751-26.4858L105.656-26.4858C106.613-26.4858 107.427-26.1509 108.097-25.481 108.767-24.811 109.102-23.9976 109.102-23.0405 109.102-22.0356 108.671-21.1743 107.81-20.4565L103-16.437C102.331-15.9106 101.565-15.6475 100.704-15.6475 99.8423-15.6475 99.0767-15.9106 98.4067-16.437L93.5976-20.4565C92.7842-21.1265 92.3774-21.9878 92.3774-23.0405Z" fill="#CA0B4A" transform="translate(2476.58 2166)"/><path d="M75.1509-41.4155C75.1509-42.8032 75.6533-44.0115 76.6582-45.0403 77.6631-46.0691 78.8594-46.5835 80.2471-46.5835 81.6826-46.5835 82.9028-46.0811 83.9077-45.0762 84.9126-44.0713 85.415-42.8511 85.415-41.4155L85.415-36.3193C85.415-34.8838 84.9126-33.6636 83.9077-32.6587 82.9028-31.6538 81.6826-31.1514 80.2471-31.1514 78.8594-31.1514 77.6631-31.6658 76.6582-32.6946 75.6533-33.7234 75.1509-34.9316 75.1509-36.3193ZM116.423-41.4155C116.423-42.8032 116.925-44.0115 117.93-45.0403 118.935-46.0691 120.131-46.5835 121.519-46.5835 122.955-46.5835 124.175-46.0811 125.18-45.0762 126.185-44.0713 126.687-42.8511 126.687-41.4155L126.687-36.3193C126.687-34.8838 126.185-33.6636 125.18-32.6587 124.175-31.6538 122.955-31.1514 121.519-31.1514 120.131-31.1514 118.935-31.6658 117.93-32.6946 116.925-33.7234 116.423-34.9316 116.423-36.3193ZM82.7593-15.3603C83.477-15.3603 84.0872-15.1091 84.5896-14.6067 85.092-14.1042 85.3433-13.4941 85.3433-12.7764 85.3433-11.0059 85.9653-9.49853 87.2095-8.25439 88.4536-7.01025 89.9609-6.38818 91.7314-6.38818 93.5019-6.38818 95.0093-7.01025 96.2534-8.25439 97.4976-9.49853 98.1196-11.0059 98.1196-12.7764 98.1196-13.542 98.3828-14.1641 98.9092-14.6426 99.4355-15.1211 100.058-15.3603 100.775-15.3603 101.493-15.3603 102.103-15.1091 102.606-14.6067 103.108-14.1042 103.359-13.4941 103.359-12.7764 103.359-11.0059 103.981-9.49853 105.226-8.25439 106.47-7.01025 107.977-6.38818 109.748-6.38818 111.518-6.38818 113.025-7.01025 114.27-8.25439 115.514-9.49853 116.136-11.0059 116.136-12.7764 116.136-13.4941 116.387-14.1042 116.889-14.6067 117.392-15.1091 118.002-15.3603 118.72-15.3603 119.437-15.3603 120.048-15.1091 120.55-14.6067 121.052-14.1042 121.304-13.4941 121.304-12.7764 121.304-11.1973 120.993-9.7019 120.371-8.29028 119.749-6.87866 118.923-5.65845 117.894-4.62964 116.865-3.60083 115.645-2.77539 114.234-2.15332 112.822-1.53125 111.327-1.22021 109.748-1.22021 107.977-1.22021 106.302-1.60303 104.723-2.36865 103.144-3.13428 101.804-4.21094 100.704-5.59863 99.603-4.21094 98.2751-3.13428 96.72-2.36865 95.1648-1.60303 93.5019-1.22021 91.7314-1.22021 90.1523-1.22021 88.657-1.53125 87.2454-2.15332 85.8337-2.77539 84.6135-3.60083 83.5847-4.62964 82.5559-5.65845 81.7305-6.87866 81.1084-8.29028 80.4863-9.7019 80.1753-11.1973 80.1753-12.7764 80.1753-13.4941 80.4265-14.1042 80.9289-14.6067 81.4314-15.1091 82.0415-15.3603 82.7593-15.3603Z" fill="#1C1C1C" transform="translate(2476.58 2166)"/><path d="M159.848-21.0308C159.848-17.3462 159.358-13.8291 158.377-10.4795 157.396-7.12988 155.996-4.01953 154.178-1.14844 152.359 1.72266 150.146 4.33057 147.538 6.67529 144.93 9.02002 142.023 11.0298 138.817 12.7046 135.946 14.188 132.872 15.4321 129.594 16.437 126.316 17.4419 122.979 18.2554 119.581 18.8774 116.184 19.4995 112.774 19.9421 109.353 20.2053 105.931 20.4685 102.618 20.6001 99.4116 20.6001 96.2534 20.6001 92.9517 20.4685 89.5063 20.2053 86.061 19.9421 82.6396 19.4995 79.2422 18.8774 75.8447 18.2554 72.5071 17.4419 69.2292 16.437 65.9514 15.4321 62.8769 14.188 60.0059 12.7046 56.7519 11.0298 53.833 9.02002 51.249 6.67529 48.665 4.33057 46.4639 1.71069 44.6455-1.18433 42.8271-4.07935 41.4275-7.1897 40.4465-10.5154 39.4656-13.8411 38.9751-17.3462 38.9751-21.0308 38.9751-22.227 39.0349-23.3994 39.1545-24.5478 39.2742-25.6963 39.4297-26.8686 39.6211-28.0649 40.4346-32.8501 41.6189-37.4797 43.1741-41.9539 44.7292-46.428 46.6912-50.6509 49.0598-54.6226 51.4285-58.5942 54.2397-62.2788 57.4936-65.6763 60.7476-69.0737 64.48-72.0644 68.6909-74.6484L62.6616-107.307C62.5181-108.168 62.4463-109.03 62.4463-109.891 62.4463-111.805 62.8171-113.612 63.5588-115.31 64.3005-117.009 65.3054-118.48 66.5735-119.725 67.8415-120.969 69.3249-121.962 71.0237-122.703 72.7224-123.445 74.5288-123.816 76.4429-123.816 78.3569-123.816 80.1753-123.445 81.8979-122.703 83.6206-121.962 85.104-120.969 86.3481-119.725 87.5923-118.48 88.5852-116.997 89.3269-115.274 90.0686-113.552 90.4394-111.733 90.4394-109.819L90.4394-82.4722C93.0713-82.9028 95.727-83.1182 98.4067-83.1182 100.56-83.1182 102.666-83.0344 104.723-82.8669 106.781-82.6995 108.886-82.4004 111.04-81.9697L111.04-109.819C111.04-111.733 111.41-113.552 112.152-115.274 112.894-116.997 113.887-118.48 115.131-119.725 116.375-120.969 117.846-121.962 119.545-122.703 121.244-123.445 123.074-123.816 125.036-123.816 126.95-123.816 128.769-123.445 130.491-122.703 132.214-121.962 133.697-120.957 134.941-119.689 136.186-118.421 137.178-116.925 137.92-115.203 138.662-113.48 139.033-111.662 139.033-109.748 139.033-108.886 138.961-108.073 138.817-107.307L132.501-73.2129C136.377-70.6289 139.822-67.6741 142.837-64.3484 145.852-61.0227 148.459-57.4219 150.661-53.5459 152.862-49.6699 154.68-45.5786 156.116-41.272 157.551-36.9653 158.628-32.563 159.346-28.0649 159.537-26.9165 159.693-25.78 159.812-24.6555 159.932-23.531 159.992-22.3945 159.992-21.2461Z" fill="#CDC4D6" transform="translate(2678.25 2166)"/><path d="M79.1704-75.7251C78.3569-75.7251 77.6272-75.9883 76.9812-76.5146 76.3352-77.041 75.9404-77.7109 75.7969-78.5244L70.1982-108.743C70.1504-108.982 70.1265-109.341 70.1265-109.819 70.1265-111.542 70.7366-113.013 71.9568-114.234 73.177-115.454 74.6484-116.064 76.3711-116.064 77.2324-116.064 78.0459-115.896 78.8115-115.562 79.5771-115.227 80.2471-114.76 80.8213-114.162 81.3955-113.564 81.8501-112.882 82.1851-112.116 82.52-111.351 82.6875-110.537 82.6875-109.676L82.6875-79.1704C82.6875-78.2134 82.3406-77.3999 81.6467-76.73 80.9529-76.0601 80.1274-75.7251 79.1704-75.7251ZM118.72-109.676C118.72-110.537 118.887-111.351 119.222-112.116 119.557-112.882 120.012-113.564 120.586-114.162 121.16-114.76 121.83-115.227 122.596-115.562 123.361-115.896 124.175-116.064 125.036-116.064 126.759-116.064 128.23-115.454 129.45-114.234 130.671-113.013 131.281-111.542 131.281-109.819 131.281-109.628 131.281-109.437 131.281-109.245 131.281-109.054 131.257-108.862 131.209-108.671L125.61-78.5244C125.467-77.7109 125.072-77.041 124.426-76.5146 123.78-75.9883 123.05-75.7251 122.237-75.7251 121.28-75.7251 120.454-76.0601 119.76-76.73 119.067-77.3999 118.72-78.2134 118.72-79.1704Z" fill="#FF8687" transform="translate(2678.25 2166)"/><path d="M67.3989-25.8398C68.0688-25.8398 68.667-25.5767 69.1934-25.0503 69.7197-24.5239 69.9829-23.9258 69.9829-23.2559 69.9829-22.5381 69.7317-21.928 69.2292-21.4255 68.7268-20.9231 68.1167-20.6719 67.3989-20.6719L31.2949-20.6719C30.5771-20.6719 29.967-20.9231 29.4646-21.4255 28.9622-21.928 28.7109-22.5381 28.7109-23.2559 28.7109-23.9258 28.9741-24.5239 29.5005-25.0503 30.0269-25.5767 30.625-25.8398 31.2949-25.8398ZM69.9829-12.8481C69.9829-12.3218 69.8035-11.8193 69.4446-11.3408 69.0857-10.8623 68.6431-10.5513 68.1167-10.4077 67.4946-10.2163 66.1907-9.8335 64.2048-9.25928 62.219-8.68506 59.8982-8.01514 57.2424-7.24951 54.5867-6.48389 51.7873-5.67041 48.8445-4.80908 45.9016-3.94775 43.1741-3.1582 40.6619-2.44043 38.1497-1.72266 36.0083-1.13647 34.2378-0.681885 32.4673-0.227295 31.4624 0 31.2231 0 30.5532 0 29.967-0.251221 29.4646-0.753662 28.9622-1.2561 28.7109-1.84228 28.7109-2.51221 28.7109-3.08643 28.8904-3.62476 29.2493-4.1272 29.6082-4.62964 30.0508-4.95264 30.5771-5.09619 31.1514-5.2876 32.4434-5.67041 34.4531-6.24463 36.4629-6.81885 38.7837-7.48877 41.4155-8.25439 44.0474-9.02002 46.8467-9.8335 49.8135-10.6948 52.7803-11.5562 55.5317-12.3337 58.0679-13.0276 60.604-13.7214 62.7454-14.3076 64.4919-14.7861 66.2385-15.2646 67.2314-15.5039 67.4707-15.5039 68.1406-15.5039 68.7268-15.2407 69.2292-14.7144 69.7317-14.188 69.9829-13.5659 69.9829-12.8481ZM131.855-23.2559C131.855-23.9258 132.118-24.5239 132.645-25.0503 133.171-25.5767 133.769-25.8398 134.439-25.8398L170.543-25.8398C171.213-25.8398 171.811-25.5767 172.337-25.0503 172.864-24.5239 173.127-23.9258 173.127-23.2559 173.127-22.5381 172.876-21.928 172.373-21.4255 171.871-20.9231 171.261-20.6719 170.543-20.6719L134.439-20.6719C133.721-20.6719 133.111-20.9231 132.609-21.4255 132.106-21.928 131.855-22.5381 131.855-23.2559ZM134.367-15.5039C134.559-15.5039 135.181-15.3723 136.233-15.1091 137.286-14.8459 138.626-14.4871 140.253-14.0325 141.88-13.5779 143.71-13.0635 145.744-12.4893 147.778-11.915 149.871-11.3169 152.024-10.6948 154.178-10.0728 156.307-9.45068 158.413-8.82861 160.518-8.20654 162.444-7.64429 164.191-7.14184 165.937-6.6394 167.445-6.20874 168.713-5.84985 169.981-5.49097 170.83-5.23975 171.261-5.09619 171.787-4.95264 172.23-4.62964 172.589-4.1272 172.947-3.62476 173.127-3.08643 173.127-2.51221 173.127-1.84228 172.876-1.2561 172.373-0.753662 171.871-0.251221 171.285 0 170.615 0 170.375 0 169.383-0.239258 167.636-0.717773 165.889-1.19629 163.748-1.78247 161.212-2.47632 158.676-3.17017 155.924-3.94775 152.958-4.80908 149.991-5.67041 147.191-6.48389 144.56-7.24951 141.928-8.01514 139.607-8.68506 137.597-9.25928 135.587-9.8335 134.295-10.2163 133.721-10.4077 133.195-10.5513 132.752-10.8623 132.393-11.3408 132.034-11.8193 131.855-12.3218 131.855-12.8481 131.855-13.5659 132.106-14.188 132.609-14.7144 133.111-15.2407 133.697-15.5039 134.367-15.5039Z" fill="#B4ACBC" transform="translate(2678.25 2166)"/><path d="M107.81-3.08643C108.288-2.84717 108.527-2.46436 108.527-1.93799L108.527 2.08154C108.527 2.70361 108.3 3.24194 107.845 3.69653 107.391 4.15112 106.853 4.37842 106.23 4.37842L95.3203 4.37842C94.6504 4.37842 94.1001 4.16309 93.6694 3.73242 93.2388 3.30176 93.0234 2.75146 93.0234 2.08154L93.0234-1.93799C93.0234-2.46436 93.2388-2.84717 93.6694-3.08643L100.704-6.89062Z" fill="#F4F4F4" transform="translate(2678.25 2166)"/><path d="M92.3774-23.0405C92.3774-23.9976 92.7004-24.811 93.3464-25.481 93.9924-26.1509 94.7939-26.4858 95.751-26.4858L105.656-26.4858C106.613-26.4858 107.427-26.1509 108.097-25.481 108.767-24.811 109.102-23.9976 109.102-23.0405 109.102-22.0356 108.671-21.1743 107.81-20.4565L103-16.437C102.331-15.9106 101.565-15.6475 100.704-15.6475 99.8423-15.6475 99.0767-15.9106 98.4067-16.437L93.5976-20.4565C92.7842-21.1265 92.3774-21.9878 92.3774-23.0405Z" fill="#CA0B4A" transform="translate(2678.25 2166)"/><path d="M75.1509-41.4155C75.1509-42.8032 75.6533-44.0115 76.6582-45.0403 77.6631-46.0691 78.8594-46.5835 80.2471-46.5835 81.6826-46.5835 82.9028-46.0811 83.9077-45.0762 84.9126-44.0713 85.415-42.8511 85.415-41.4155L85.415-36.3193C85.415-34.8838 84.9126-33.6636 83.9077-32.6587 82.9028-31.6538 81.6826-31.1514 80.2471-31.1514 78.8594-31.1514 77.6631-31.6658 76.6582-32.6946 75.6533-33.7234 75.1509-34.9316 75.1509-36.3193ZM116.423-41.4155C116.423-42.8032 116.925-44.0115 117.93-45.0403 118.935-46.0691 120.131-46.5835 121.519-46.5835 122.955-46.5835 124.175-46.0811 125.18-45.0762 126.185-44.0713 126.687-42.8511 126.687-41.4155L126.687-36.3193C126.687-34.8838 126.185-33.6636 125.18-32.6587 124.175-31.6538 122.955-31.1514 121.519-31.1514 120.131-31.1514 118.935-31.6658 117.93-32.6946 116.925-33.7234 116.423-34.9316 116.423-36.3193ZM82.7593-15.3603C83.477-15.3603 84.0872-15.1091 84.5896-14.6067 85.092-14.1042 85.3433-13.4941 85.3433-12.7764 85.3433-11.0059 85.9653-9.49853 87.2095-8.25439 88.4536-7.01025 89.9609-6.38818 91.7314-6.38818 93.5019-6.38818 95.0093-7.01025 96.2534-8.25439 97.4976-9.49853 98.1196-11.0059 98.1196-12.7764 98.1196-13.542 98.3828-14.1641 98.9092-14.6426 99.4355-15.1211 100.058-15.3603 100.775-15.3603 101.493-15.3603 102.103-15.1091 102.606-14.6067 103.108-14.1042 103.359-13.4941 103.359-12.7764 103.359-11.0059 103.981-9.49853 105.226-8.25439 106.47-7.01025 107.977-6.38818 109.748-6.38818 111.518-6.38818 113.025-7.01025 114.27-8.25439 115.514-9.49853 116.136-11.0059 116.136-12.7764 116.136-13.4941 116.387-14.1042 116.889-14.6067 117.392-15.1091 118.002-15.3603 118.72-15.3603 119.437-15.3603 120.048-15.1091 120.55-14.6067 121.052-14.1042 121.304-13.4941 121.304-12.7764 121.304-11.1973 120.993-9.7019 120.371-8.29028 119.749-6.87866 118.923-5.65845 117.894-4.62964 116.865-3.60083 115.645-2.77539 114.234-2.15332 112.822-1.53125 111.327-1.22021 109.748-1.22021 107.977-1.22021 106.302-1.60303 104.723-2.36865 103.144-3.13428 101.804-4.21094 100.704-5.59863 99.603-4.21094 98.2751-3.13428 96.72-2.36865 95.1648-1.60303 93.5019-1.22021 91.7314-1.22021 90.1523-1.22021 88.657-1.53125 87.2454-2.15332 85.8337-2.77539 84.6135-3.60083 83.5847-4.62964 82.5559-5.65845 81.7305-6.87866 81.1084-8.29028 80.4863-9.7019 80.1753-11.1973 80.1753-12.7764 80.1753-13.4941 80.4265-14.1042 80.9289-14.6067 81.4314-15.1091 82.0415-15.3603 82.7593-15.3603Z" fill="#1C1C1C" transform="translate(2678.25 2166)"/><path d="M732.5 1891.25 998 1891.25 998 1847.5 1085.5 1935 998 2022.5 998 1978.75 732.5 1978.75Z" stroke="#000000" stroke-width="4.58333" stroke-miterlimit="8" fill="#E2F0D9" fill-rule="evenodd"/><path d="M1922.5 1891.25 2188 1891.25 2188 1847.5 2275.5 1935 2188 2022.5 2188 1978.75 1922.5 1978.75Z" stroke="#000000" stroke-width="4.58333" stroke-miterlimit="8" fill="#E2F0D9" fill-rule="evenodd"/></g></svg>