<svg width="2810" height="1850" xmlns="http://www.w3.org/2000/svg" xmlns:xlink="http://www.w3.org/1999/xlink" xml:space="preserve" overflow="hidden"><defs><clipPath id="clip0"><rect x="304" y="607" width="2810" height="1850"/></clipPath></defs><g clip-path="url(#clip0)" transform="translate(-304 -607)"><rect x="1616.5" y="609.5" width="479" height="190" stroke="#000000" stroke-width="4.58333" stroke-miterlimit="8" fill="#EDEDED"/><text font-family="Calibri,Calibri_MSFontService,sans-serif" font-weight="400" font-size="83" transform="matrix(1 0 0 1 1814.21 732)">=<tspan font-size="83" x="60.1563" y="0">0</tspan></text><rect x="1332.5" y="1668.5" width="479" height="189" stroke="#000000" stroke-width="4.58333" stroke-miterlimit="8" fill="#900090"/><text fill="#FFFFFF" font-family="Calibri,Calibri_MSFontService,sans-serif" font-weight="400" font-size="83" transform="matrix(1 0 0 1 1432.12 1790)">¿<tspan font-size="83" x="57.2916" y="0">n &lt; 0 ?</tspan></text><path d="M2722.34 2233.62 2701.85 2154.59C2570.06 2098 2523.5 1970.82 2597.87 1870.54 2672.24 1770.25 2839.36 1734.82 2971.15 1791.41 3102.95 1848 3149.5 1975.18 3075.13 2075.46 3020.24 2149.49 2911.8 2190.74 2801.05 2179.75Z" stroke="#000000" stroke-width="4.58333" stroke-miterlimit="8" fill="none" fill-rule="evenodd"/><text font-family="Calibri,Calibri_MSFontService,sans-serif" font-weight="400" font-size="83" transform="matrix(1 0 0 1 2698.72 1950)">La<tspan font-size="83" x="93.3855" y="0">suma</tspan><tspan font-size="83" x="89.375" y="99">es:</tspan></text><rect x="1407.5" y="1953.5" width="330" height="190" stroke="#000000" stroke-width="4.58333" stroke-miterlimit="8" fill="none"/><text font-family="Calibri,Calibri_MSFontService,sans-serif" font-weight="400" font-size="83" transform="matrix(1 0 0 1 1465.73 2076)">print()</text><path d="M1578.88 1857 1578.88 1918.51 1565.13 1918.51 1565.12 1857ZM1592.63 1911.63 1572 1952.88 1551.38 1911.63Z" fill="#70AD47"/><path d="M1474.5 2357C1474.5 2303.15 1518.15 2259.5 1572 2259.5 1625.85 2259.5 1669.5 2303.15 1669.5 2357 1669.5 2410.85 1625.85 2454.5 1572 2454.5 1518.15 2454.5 1474.5 2410.85 1474.5 2357Z" stroke="#000000" stroke-width="4.58333" stroke-miterlimit="8" fill="#E2F0D9" fill-rule="evenodd"/><path d="M1573.86 2343.28 1562.55 2371.75C1563.84 2372.31 1565.3 2372.59 1566.92 2372.59 1570.51 2372.59 1573.22 2371.23 1575.06 2368.51 1576.91 2365.8 1577.83 2361.8 1577.83 2356.53 1577.83 2350.43 1576.51 2346.01 1573.86 2343.28ZM1566.64 2340.47C1563.06 2340.47 1560.35 2341.82 1558.52 2344.53 1556.68 2347.24 1555.77 2351.24 1555.77 2356.53 1555.77 2362.68 1557.08 2367.1 1559.7 2369.81L1571.02 2341.31C1569.66 2340.75 1568.2 2340.47 1566.64 2340.47ZM1575.08 2331.09 1578.7 2331.09 1575.73 2338.53C1578.13 2340.09 1579.95 2342.42 1581.2 2345.5 1582.45 2348.58 1583.08 2352.26 1583.08 2356.53 1583.08 2360.7 1582.46 2364.32 1581.22 2367.39 1579.98 2370.46 1578.12 2372.82 1575.66 2374.47 1573.19 2376.11 1570.18 2376.94 1566.64 2376.94 1564.52 2376.94 1562.59 2376.63 1560.86 2376.03L1558.52 2381.94 1554.89 2381.94 1557.83 2374.56C1555.45 2373 1553.64 2370.69 1552.39 2367.62 1551.14 2364.56 1550.52 2360.86 1550.52 2356.53 1550.52 2352.36 1551.14 2348.74 1552.37 2345.67 1553.61 2342.6 1555.47 2340.24 1557.94 2338.59 1560.41 2336.95 1563.41 2336.12 1566.95 2336.12 1569.1 2336.12 1571.02 2336.43 1572.7 2337.03Z" fill-rule="evenodd"/><text fill="#000000" fill-opacity="0" font-family="Arial,Arial_MSFontService,sans-serif" font-size="50.8438" x="1550.52" y="2375.58">∅</text><rect x="1297.5" y="1346.5" width="549" height="190" stroke="#000000" stroke-width="4.58333" stroke-miterlimit="8" fill="none"/><text font-family="Calibri,Calibri_MSFontService,sans-serif" font-weight="400" font-size="83" transform="matrix(1 0 0 1 1406.05 1468)">n =input()</text><path d="M2699.63 1162.5 2679.1 1083.65C2547.07 1027.2 2500.43 900.329 2574.93 800.282 2649.44 700.235 2816.87 664.895 2948.9 721.349 3080.93 777.802 3127.57 904.671 3053.07 1004.72 2998.08 1078.56 2889.44 1119.72 2778.48 1108.75Z" stroke="#000000" stroke-width="4.58333" stroke-miterlimit="8" fill="none" fill-rule="evenodd"/><text font-family="Calibri,Calibri_MSFontService,sans-serif" font-weight="400" font-size="83" transform="matrix(1 0 0 1 2661.52 930)">número?</text><path d="M1578.88 1536 1578.88 1633.55 1565.13 1633.55 1565.12 1536ZM1592.63 1626.68 1572 1667.93 1551.38 1626.68Z" fill="#FF7700"/><rect x="439.5" y="1433.5" width="615" height="190" stroke="#000000" stroke-width="4.58333" stroke-miterlimit="8" fill="#FBE5D6"/><text font-family="Courier New,Courier New_MSFontService,sans-serif" font-weight="400" font-size="73" transform="matrix(1 0 0 1 658.396 1549)">= __+ n</text><path d="M1332.75 1769.5 740.125 1769.5 740.125 1657.37 753.875 1657.37 753.875 1762.63 747 1755.75 1332.75 1755.75ZM726.375 1664.25 747 1623 767.625 1664.25Z" fill="#FF0000"/><rect x="2906.5" y="1996.5" width="65" height="65" stroke="#000000" stroke-width="4.58333" stroke-miterlimit="8" fill="#DEEBF7"/><path d="M0.0644503-6.8747 13.8138-6.7458 13.6849 7.0036-0.0644503 6.8747ZM27.5632-6.6169 40.1399-6.49899 41.463-6.45751 41.0322 7.28574 39.7846 7.24662 39.9356 7.2497 27.4343 7.1325ZM55.2063-6.02669 68.9495-5.59587 68.5187 8.14738 54.7755 7.71656ZM82.8103-5.11509 96.544-4.44568 95.8746 9.28802 82.1409 8.6186ZM110.278-3.77627 120.026-3.30113 124.139-3.02129 123.205 10.697 119.158 10.4216 119.29 10.4293 109.608 9.95742ZM137.857-2.08792 151.575-1.15456 150.642 12.5637 136.924 11.6304ZM165.419-0.0992905 179.116 1.10224 177.915 14.7996 164.218 13.5981ZM192.814 2.30376 198.971 2.84384 206.614 3.64385 205.183 17.3191 197.597 16.5251 197.712 16.5362 191.612 16.0012ZM220.289 5.07524 233.965 6.50663 232.533 20.1819 218.858 18.7505ZM247.749 8.13949 261.394 9.83127 259.702 23.4768 246.057 21.785ZM275.04 11.523 276.35 11.6855 288.786 13.4738 286.828 27.0838 274.459 25.305 274.592 25.3228 273.348 25.1686ZM302.396 15.4309 314.287 17.1409 316.117 17.4362 313.927 31.0107 312.155 30.7247 312.271 30.7425 300.438 29.0409ZM329.692 19.6264 343.266 21.8166 341.076 35.391 327.502 33.2009ZM356.948 24.1244 370.48 26.5616 368.043 40.0939 354.511 37.6567ZM384.012 28.9988 388.163 29.7464 397.647 31.6564 394.932 45.1357 385.518 43.2397 385.656 43.2661 381.575 42.5311ZM411.126 34.3711 423.983 36.9605 424.728 37.125 421.763 50.5515 421.08 50.4008 421.205 50.4272 408.411 47.8504ZM438.154 40.0899 451.581 43.0548 448.616 56.4814 435.189 53.5164ZM465.112 46.172 478.477 49.4023 475.247 62.7675 461.881 59.5372ZM491.842 52.6326 492.936 52.897 505.283 56.1597 501.77 69.4534 489.494 66.2093 489.635 66.2451 488.612 65.9978ZM518.576 59.6727 525.959 61.6236 531.986 63.3677 528.164 76.5758 522.214 74.8541 522.369 74.8968 515.063 72.9664ZM545.194 67.1897 557.855 70.8535 558.536 71.0661 554.438 84.1912 553.826 84 553.964 84.0416 541.372 80.3978ZM571.661 75.1644 584.786 79.2626 580.688 92.3877 567.563 88.2894ZM598.003 83.6601 611.016 88.0997 606.577 101.113 593.563 96.6737ZM624.132 92.7327 637.038 97.4755 632.295 110.382 619.389 105.639ZM650.102 102.412 662.852 107.56 657.704 120.31 644.954 115.162ZM675.726 112.83 686.021 117.27 688.431 118.354 682.794 130.895 680.431 129.833 680.527 129.875 670.28 125.455ZM701.054 124.077 710.615 128.559 713.614 130.05 707.492 142.362 704.564 140.906 704.707 140.975 695.218 136.527ZM725.983 136.263 733.595 140.175 738.303 142.748 731.709 154.814 727.078 152.283 727.232 152.365 719.697 148.492ZM750.429 149.549 754.924 152.137 762.374 156.616 755.289 168.4 747.895 163.954 748.007 164.021 743.568 161.465ZM774.161 164.083 774.529 164.319 783.695 170.493 785.847 172.06 777.755 183.176 775.704 181.683 775.909 181.827 766.909 175.764 767.034 175.847 766.73 175.651ZM797.016 180.373 800.594 183.12 807.908 189.153 799.157 199.76 791.937 193.803 792.127 193.954 788.644 191.281ZM818.462 198.759 822.315 202.464 828.317 208.78 818.351 218.253 812.454 212.049 812.671 212.267 808.93 208.669ZM837.545 219.926 839.436 222.392 844.363 229.538 845.813 232.926 833.172 238.337 831.992 235.58 832.652 236.777 828.214 230.339 828.42 230.621 826.635 228.294ZM861.591 233.046 853.018 278.361 821.909 244.313Z" transform="matrix(1 0 0 -1 1846 1440.36)"/><path d="M1737.07 2041.13 1750.82 2041.26 1750.68 2055.01 1736.93 2054.87ZM1764.7 2041.55 1775.93 2041.88 1778.64 2042.04 1777.83 2055.77 1775.22 2055.61 1775.42 2055.62 1764.3 2055.3ZM1792.37 2042.85 1806.09 2043.65 1805.29 2057.38 1791.56 2056.57ZM1820.06 2044.68 1833.74 2046 1832.43 2059.69 1818.74 2058.37ZM1847.43 2047.31 1852.41 2047.79 1861.33 2048.97 1859.52 2062.61 1850.72 2061.44 1850.97 2061.47 1846.12 2061ZM1874.96 2050.78 1888.59 2052.58 1886.78 2066.22 1873.15 2064.41ZM1902.35 2054.76 1907.59 2055.6 1916.04 2057.12 1913.59 2070.66 1905.21 2069.14 1905.35 2069.16 1900.18 2068.34ZM1929.65 2059.65 1942.72 2062.21 1943.32 2062.34 1940.33 2075.76 1939.82 2075.65 1939.99 2075.68 1927.01 2073.15ZM1956.74 2065.34 1959.67 2065.99 1970.23 2068.52 1967.03 2081.89 1956.52 2079.37 1956.63 2079.4 1953.75 2078.76ZM1983.69 2071.89 1992.24 2074.12 1997.12 2075.5 1993.36 2088.73 1988.56 2087.36 1988.71 2087.4 1980.24 2085.2ZM2010.5 2079.39 2022.75 2083.21 2023.77 2083.56 2019.36 2096.58 2018.42 2096.26 2018.58 2096.31 2006.4 2092.51ZM2036.79 2087.98 2037.1 2088.08 2049.86 2092.75 2045.14 2105.66 2032.45 2101.02 2032.6 2101.07 2032.38 2101ZM2062.83 2097.94 2063.83 2098.34 2075.62 2103.42 2070.18 2116.05 2058.47 2111 2058.62 2111.06 2057.7 2110.69ZM2088.47 2109.63 2098.7 2114.98 2100.88 2116.25 2093.95 2128.13 2091.91 2126.94 2092.19 2127.09 2082.09 2121.81ZM2112.93 2123.59 2117.99 2126.92 2124.48 2131.68 2116.34 2142.76 2109.99 2138.1 2110.29 2138.31 2105.38 2135.08ZM2135.71 2141.3 2140.29 2145.88 2145.33 2152.03 2134.68 2160.74 2129.87 2154.85 2130.33 2155.36 2125.98 2151.02ZM2153.02 2165.43 2153.6 2166.68 2155.66 2174.03 2156.35 2180.98 2156.37 2181.23 2142.65 2182.19 2142.64 2182.04 2142.66 2182.25 2142.03 2176 2142.25 2177.17 2140.5 2170.92 2140.88 2171.94 2140.53 2171.18ZM2158.06 2193.18 2159.67 2198.22 2159.38 2197.47 2162.2 2203.66 2161.91 2203.09 2162.73 2204.53 2150.79 2211.35 2149.81 2209.63 2146.7 2202.79 2144.96 2197.37ZM2169.56 2215.08 2173.87 2220.32 2173.58 2219.99 2178.34 2225.07 2168.31 2234.47 2163.39 2229.23 2158.94 2223.82ZM2187.87 2233.82 2191.49 2236.87 2191.23 2236.66 2198.4 2242.13 2190.06 2253.06 2182.76 2247.49 2179.01 2244.33ZM2209.29 2249.46 2214.41 2252.68 2214.17 2252.54 2220.85 2256.37 2214.01 2268.29 2207.21 2264.39 2201.97 2261.09ZM2232.54 2262.64 2241.93 2267.19 2241.75 2267.1 2244.78 2268.46 2239.15 2281 2236.03 2279.61 2226.55 2275.02ZM2257.2 2273.84 2262.49 2276.02 2262.22 2275.91 2269.76 2278.64 2265.08 2291.57 2257.39 2288.79 2251.96 2286.55ZM2282.69 2283.32 2284.65 2284.04 2284.3 2283.92 2295.46 2287.28 2291.49 2300.45 2280.15 2297.03 2278.01 2296.25ZM2308.27 2291.12 2321.63 2294.36 2318.39 2307.72 2305.03 2304.48ZM2334.7 2297.39 2348.2 2299.97 2345.62 2313.48 2332.11 2310.9ZM2361.39 2302.28 2375.01 2304.17 2373.13 2317.79 2359.51 2315.9ZM2388.29 2305.71 2401.99 2306.84 2400.87 2320.54 2387.16 2319.42ZM2415.47 2307.73 2422.7 2308.07 2422.47 2308.06 2428.98 2308.15 2428.79 2321.9 2422.17 2321.81 2414.83 2321.47ZM2442.51 2308.12 2456.26 2307.87 2456.51 2321.62 2442.76 2321.87ZM2469.77 2307.37 2483.5 2306.66 2484.21 2320.39 2470.48 2321.1ZM2497 2305.7 2510.7 2304.55 2511.84 2318.26 2498.14 2319.4ZM2524.14 2303.11 2537.79 2301.51 2539.4 2315.17 2525.74 2316.77ZM2551.17 2299.55 2564.59 2297.52 2564.36 2297.56 2564.52 2297.52 2567.06 2311.04 2566.78 2311.09 2553.23 2313.15ZM2578.04 2294.99 2587.98 2293.12 2587.75 2293.16 2591.3 2292.37 2594.29 2305.79 2590.63 2306.61 2580.58 2308.5ZM2604.72 2289.38 2610.19 2288.16 2610 2288.21 2617.9 2286.21 2621.27 2299.54 2613.28 2301.56 2607.71 2302.8ZM2630.85 2282.73 2640.43 2279.8 2640.32 2279.84 2643.87 2278.68 2648.11 2291.76 2644.5 2292.93 2634.87 2295.88ZM2656.69 2274.3 2658.5 2273.65 2658.34 2273.71 2666.78 2270.46 2666.54 2270.56 2669.1 2269.46 2674.52 2282.1 2671.84 2283.24 2663.2 2286.57 2661.31 2287.25ZM2681.44 2263.9 2681.6 2263.83 2681.31 2263.97 2688.13 2260.41 2686.73 2261.38 2691.12 2257.45 2700.29 2267.69 2695.26 2272.19 2687.55 2276.23 2687.25 2276.37ZM2679.65 2250.81 2722.02 2232.59 2711.17 2277.42Z"/><path d="M1279.5 708C1279.5 654.152 1323.15 610.5 1377 610.5 1430.85 610.5 1474.5 654.152 1474.5 708 1474.5 761.848 1430.85 805.5 1377 805.5 1323.15 805.5 1279.5 761.848 1279.5 708Z" stroke="#000000" stroke-width="4.58333" stroke-miterlimit="8" fill="#EDEDED" fill-rule="evenodd"/><path d="M1378.98 693.702 1367.66 722.171C1368.96 722.733 1370.41 723.015 1372.04 723.015 1375.62 723.015 1378.34 721.655 1380.18 718.936 1382.02 716.218 1382.95 712.223 1382.95 706.952 1382.95 700.848 1381.62 696.431 1378.98 693.702ZM1371.76 690.89C1368.18 690.89 1365.47 692.244 1363.63 694.952 1361.8 697.66 1360.88 701.66 1360.88 706.952 1360.88 713.098 1362.2 717.525 1364.82 720.233L1376.13 691.733C1374.78 691.171 1373.32 690.89 1371.76 690.89ZM1380.2 681.515 1383.82 681.515 1380.85 688.952C1383.25 690.515 1385.07 692.838 1386.32 695.921 1387.57 699.004 1388.2 702.681 1388.2 706.952 1388.2 711.119 1387.58 714.739 1386.34 717.811 1385.1 720.884 1383.24 723.244 1380.77 724.89 1378.31 726.535 1375.3 727.358 1371.76 727.358 1369.63 727.358 1367.71 727.056 1365.98 726.452L1363.63 732.358 1360.01 732.358 1362.95 724.983C1360.57 723.421 1358.76 721.108 1357.51 718.046 1356.26 714.983 1355.63 711.285 1355.63 706.952 1355.63 702.785 1356.25 699.166 1357.49 696.093 1358.73 693.02 1360.59 690.66 1363.06 689.015 1365.52 687.369 1368.53 686.546 1372.07 686.546 1374.22 686.546 1376.13 686.848 1377.82 687.452Z" fill-rule="evenodd"/><text fill="#000000" fill-opacity="0" font-family="Arial,Arial_MSFontService,sans-serif" font-size="50.8438" x="1355.63" y="726.003">∅</text><rect x="1722.5" y="673.5" width="65" height="65" stroke="#000000" stroke-width="4.58333" stroke-miterlimit="8" fill="#DEEBF7"/><rect x="765.5" y="1500.5" width="64.9999" height="65" stroke="#000000" stroke-width="4.58333" stroke-miterlimit="8" fill="#DEEBF7"/><rect x="541.5" y="1495.5" width="65" height="65" stroke="#000000" stroke-width="4.58333" stroke-miterlimit="8" fill="#DEEBF7"/><rect x="1321.5" y="994.5" width="502" height="190" stroke="#000000" stroke-width="4.58333" stroke-miterlimit="8" fill="#E2F0D9"/><text font-family="Courier New,Courier New_MSFontService,sans-serif" font-weight="400" font-size="73" transform="matrix(1 0 0 1 1417.22 1110)">fun<tspan font-size="73" x="132.344" y="0">(  )</tspan></text><rect x="322" y="941" width="2075" height="1254" stroke="#000000" stroke-width="13.75" stroke-miterlimit="8" stroke-dasharray="55 41.25" fill="none"/><path d="M1578.88 2143 1578.88 2225.18 1565.13 2225.18 1565.12 2143ZM1592.63 2218.31 1572 2259.56 1551.38 2218.31Z" fill="#70AD47"/><path d="M1578.88 1184 1578.88 1311.88 1565.13 1311.88 1565.12 1184ZM1592.63 1305.01 1572 1346.26 1551.38 1305.01Z"/><path d="M1451.95 772.555 1560.71 960.419 1548.81 967.308 1440.05 779.444ZM1569.16 947.58 1571.98 993.613 1533.46 968.247Z"/><path d="M3.88647-5.67106 259.653 169.61 251.88 180.952-3.88647 5.67106ZM261.755 154.381 284.122 194.713 238.436 188.407Z" transform="matrix(-1 0 0 1 1856.12 799)"/><path d="M2034.5 1026.83C2034.5 1008.98 2048.98 994.5 2066.83 994.5L2197.17 994.5C2215.02 994.5 2229.5 1008.98 2229.5 1026.83L2229.5 1156.17C2229.5 1174.02 2215.02 1188.5 2197.17 1188.5L2066.83 1188.5C2048.98 1188.5 2034.5 1174.02 2034.5 1156.17Z" stroke="#000000" stroke-width="4.58333" stroke-miterlimit="8" fill="none" fill-rule="evenodd"/><path d="M1857.45 1082.5 1898.7 1082.95 1898.55 1096.7 1857.3 1096.25ZM1912.44 1083.1 1953.69 1083.55 1953.54 1097.3 1912.29 1096.85ZM1967.44 1083.7 2000.31 1084.06 2000.16 1097.81 1967.29 1097.45ZM1864.02 1110.07 1823 1089 1864.47 1068.83ZM1993.58 1070.24 2034.6 1091.31 1993.13 1111.48Z"/><rect x="2101.5" y="1059.5" width="65.0002" height="65" stroke="#000000" stroke-width="4.58333" stroke-miterlimit="8" fill="#DEEBF7"/><path d="M740.125 1433.31 740.125 1082.13 1286.6 1082.13 1286.6 1095.88 747 1095.88 753.875 1089 753.875 1433.31ZM1279.73 1068.38 1320.98 1089 1279.73 1109.63Z"/><rect x="317.5" y="2270.5" width="912" height="134" stroke="#000000" stroke-width="3.4375" stroke-linejoin="round" stroke-miterlimit="10" fill="none"/><text font-family="Courier New,Courier New_MSFontService,sans-serif" font-weight="400" font-size="83" transform="matrix(1 0 0 1 354.025 2360)">sumainteractiva<tspan font-size="83" x="739.062" y="0">()</tspan></text><rect x="1602.5" y="1056.5" width="65" height="65.0004" stroke="#000000" stroke-width="4.58333" stroke-miterlimit="8" fill="#DEEBF7"/></g></svg>