<svg width="3000" height="1563" xmlns="http://www.w3.org/2000/svg" xmlns:xlink="http://www.w3.org/1999/xlink" xml:space="preserve" overflow="hidden"><defs><clipPath id="clip0"><rect x="60" y="629" width="3000" height="1563"/></clipPath></defs><g clip-path="url(#clip0)" transform="translate(-60 -629)"><path d="M149.5 1603C149.5 1583.95 164.947 1568.5 184.001 1568.5L1648 1568.5C1667.05 1568.5 1682.5 1583.95 1682.5 1603L1682.5 1741C1682.5 1760.05 1667.05 1775.5 1648 1775.5L184.001 1775.5C164.947 1775.5 149.5 1760.05 149.5 1741Z" stroke="#000000" stroke-width="4.58333" stroke-miterlimit="8" fill="none" fill-rule="evenodd"/><text font-family="Courier New,Courier New_MSFontService,sans-serif" font-weight="400" font-size="83" transform="matrix(1 0 0 1 191.648 1695)">num = <tspan font-size="83" x="295.625" y="0">(    *     +     *    )</tspan></text><path d="M149.5 1953.17C149.5 1934.02 165.021 1918.5 184.167 1918.5L1363.83 1918.5C1382.98 1918.5 1398.5 1934.02 1398.5 1953.17L1398.5 2091.83C1398.5 2110.98 1382.98 2126.5 1363.83 2126.5L184.167 2126.5C165.021 2126.5 149.5 2110.98 149.5 2091.83Z" stroke="#000000" stroke-width="4.58333" stroke-miterlimit="8" fill="none" fill-rule="evenodd"/><text font-family="Courier New,Courier New_MSFontService,sans-serif" font-weight="400" font-size="83" transform="matrix(1 0 0 1 191.648 2046)">den = <tspan font-size="83" x="295.625" y="0">(    *    )</tspan></text><path d="M162.5 1133.67C162.5 1102.65 187.647 1077.5 218.668 1077.5L652.332 1077.5C683.353 1077.5 708.5 1102.65 708.5 1133.67L708.5 1358.33C708.5 1389.35 683.353 1414.5 652.332 1414.5L218.668 1414.5C187.647 1414.5 162.5 1389.35 162.5 1358.33Z" stroke="#000000" stroke-width="4.58333" stroke-miterlimit="8" fill="none" fill-rule="evenodd"/><text font-family="Courier New,Courier New_MSFontService,sans-serif" font-weight="400" font-size="83" transform="matrix(1 0 0 1 213.366 1269)">F1 = <tspan font-size="83" x="246.354" y="0">----</tspan></text><path d="M492.5 1161.5C492.5 1125.6 521.602 1096.5 557.5 1096.5 593.399 1096.5 622.5 1125.6 622.5 1161.5 622.5 1197.4 593.399 1226.5 557.5 1226.5 521.602 1226.5 492.5 1197.4 492.5 1161.5Z" stroke="#000000" stroke-width="4.58333" stroke-miterlimit="8" fill="#00AA00" fill-rule="evenodd"/><path d="M492.5 1327C492.5 1291.38 521.602 1262.5 557.5 1262.5 593.399 1262.5 622.5 1291.38 622.5 1327 622.5 1362.62 593.399 1391.5 557.5 1391.5 521.602 1391.5 492.5 1362.62 492.5 1327Z" stroke="#000000" stroke-width="4.58333" stroke-miterlimit="8" fill="#0000FF" fill-rule="evenodd"/><path d="M874.5 1133.67C874.5 1102.65 899.647 1077.5 930.668 1077.5L1364.33 1077.5C1395.35 1077.5 1420.5 1102.65 1420.5 1133.67L1420.5 1358.33C1420.5 1389.35 1395.35 1414.5 1364.33 1414.5L930.668 1414.5C899.647 1414.5 874.5 1389.35 874.5 1358.33Z" stroke="#000000" stroke-width="4.58333" stroke-miterlimit="8" fill="none" fill-rule="evenodd"/><text font-family="Courier New,Courier New_MSFontService,sans-serif" font-weight="400" font-size="83" transform="matrix(1 0 0 1 924.988 1269)">F2 = ----</text><path d="M1204.5 1161.5C1204.5 1125.6 1233.38 1096.5 1269 1096.5 1304.62 1096.5 1333.5 1125.6 1333.5 1161.5 1333.5 1197.4 1304.62 1226.5 1269 1226.5 1233.38 1226.5 1204.5 1197.4 1204.5 1161.5Z" stroke="#000000" stroke-width="4.58333" stroke-miterlimit="8" fill="#FF7700" fill-rule="evenodd"/><path d="M1204.5 1327C1204.5 1291.38 1233.38 1262.5 1269 1262.5 1304.62 1262.5 1333.5 1291.38 1333.5 1327 1333.5 1362.62 1304.62 1391.5 1269 1391.5 1233.38 1391.5 1204.5 1362.62 1204.5 1327Z" stroke="#000000" stroke-width="4.58333" stroke-miterlimit="8" fill="#900090" fill-rule="evenodd"/><path d="M1420.5 1670.5C1420.5 1634.6 1449.6 1605.5 1485.5 1605.5 1521.4 1605.5 1550.5 1634.6 1550.5 1670.5 1550.5 1706.4 1521.4 1735.5 1485.5 1735.5 1449.6 1735.5 1420.5 1706.4 1420.5 1670.5Z" stroke="#000000" stroke-width="4.58333" stroke-miterlimit="8" fill="#0000FF" fill-rule="evenodd"/><path d="M822.5 1670.5C822.5 1634.6 851.602 1605.5 887.5 1605.5 923.399 1605.5 952.5 1634.6 952.5 1670.5 952.5 1706.4 923.399 1735.5 887.5 1735.5 851.602 1735.5 822.5 1706.4 822.5 1670.5Z" stroke="#000000" stroke-width="4.58333" stroke-miterlimit="8" fill="#900090" fill-rule="evenodd"/><path d="M1146.5 1670.5C1146.5 1634.6 1175.6 1605.5 1211.5 1605.5 1247.4 1605.5 1276.5 1634.6 1276.5 1670.5 1276.5 1706.4 1247.4 1735.5 1211.5 1735.5 1175.6 1735.5 1146.5 1706.4 1146.5 1670.5Z" stroke="#000000" stroke-width="4.58333" stroke-miterlimit="8" fill="#FF7700" fill-rule="evenodd"/><path d="M569.5 1670.5C569.5 1634.6 598.602 1605.5 634.5 1605.5 670.399 1605.5 699.5 1634.6 699.5 1670.5 699.5 1706.4 670.399 1735.5 634.5 1735.5 598.602 1735.5 569.5 1706.4 569.5 1670.5Z" stroke="#000000" stroke-width="4.58333" stroke-miterlimit="8" fill="#00AA00" fill-rule="evenodd"/><path d="M569.5 2020.5C569.5 1984.6 598.602 1955.5 634.5 1955.5 670.399 1955.5 699.5 1984.6 699.5 2020.5 699.5 2056.4 670.399 2085.5 634.5 2085.5 598.602 2085.5 569.5 2056.4 569.5 2020.5Z" stroke="#000000" stroke-width="4.58333" stroke-miterlimit="8" fill="#0000FF" fill-rule="evenodd"/><path d="M822.5 2020.5C822.5 1984.6 851.602 1955.5 887.5 1955.5 923.399 1955.5 952.5 1984.6 952.5 2020.5 952.5 2056.4 923.399 2085.5 887.5 2085.5 851.602 2085.5 822.5 2056.4 822.5 2020.5Z" stroke="#000000" stroke-width="4.58333" stroke-miterlimit="8" fill="#900090" fill-rule="evenodd"/><path d="M1806.5 1731.5 1871.5 1601.5 1936.5 1731.5Z" stroke="#000000" stroke-width="4.58333" stroke-miterlimit="8" fill="#FF0000" fill-rule="evenodd"/><path d="M1806.5 2085.5 1871.5 1955.5 1936.5 2085.5Z" stroke="#000000" stroke-width="4.58333" stroke-miterlimit="8" fill="#00B0F0" fill-rule="evenodd"/><path d="M1768.5 1598.17C1768.5 1579.02 1784.02 1563.5 1803.17 1563.5L1941.83 1563.5C1960.98 1563.5 1976.5 1579.02 1976.5 1598.17L1976.5 1736.83C1976.5 1755.98 1960.98 1771.5 1941.83 1771.5L1803.17 1771.5C1784.02 1771.5 1768.5 1755.98 1768.5 1736.83Z" stroke="#000000" stroke-width="4.58333" stroke-miterlimit="8" fill="none" fill-rule="evenodd"/><path d="M1768.5 1951.17C1768.5 1932.02 1784.02 1916.5 1803.17 1916.5L1941.83 1916.5C1960.98 1916.5 1976.5 1932.02 1976.5 1951.17L1976.5 2089.83C1976.5 2108.98 1960.98 2124.5 1941.83 2124.5L1803.17 2124.5C1784.02 2124.5 1768.5 2108.98 1768.5 2089.83Z" stroke="#000000" stroke-width="4.58333" stroke-miterlimit="8" fill="none" fill-rule="evenodd"/><path d="M492.545 1329.79 473.608 1330.17 473.706 1330.16 454.768 1331.35 454.867 1331.34 436.055 1333.34 436.131 1333.33 417.444 1335.96 417.541 1335.94 398.916 1339.38 398.995 1339.36 380.62 1343.43 380.706 1343.4 362.581 1348.15 362.651 1348.13 344.713 1353.45 344.801 1353.42 327.176 1359.42 327.252 1359.39 310.002 1365.95 310.076 1365.93 293.139 1373.05 293.211 1373.02 276.711 1380.64 276.784 1380.61 260.722 1388.73 260.798 1388.69 245.236 1397.32 245.312 1397.27 230.25 1406.4 230.318 1406.35 215.818 1415.85 215.897 1415.8 202.022 1425.74 202.091 1425.69 188.779 1436 188.851 1435.94 176.226 1446.57 176.307 1446.49 164.432 1457.49 164.5 1457.43 153.313 1468.68 153.397 1468.59 143.022 1480.21 143.089 1480.14 133.464 1491.95 133.544 1491.84 124.856 1503.84 124.928 1503.74 117.053 1515.99 117.131 1515.86 110.256 1528.3 110.324 1528.16 104.386 1540.79 104.445 1540.65 99.4446 1553.34 99.5061 1553.16 95.6311 1565.98 95.6741 1565.81 92.7991 1578.69 92.8336 1578.49 91.0836 1591.43 91.1021 1591.22 90.5396 1604.16 90.5408 1604 90.9158 1616.93 90.9091 1616.81 91.9716 1629.75 91.9586 1629.63 93.7086 1642.57 93.6888 1642.45 96.1263 1655.26 96.1028 1655.15 99.1653 1667.84 99.1364 1667.73 102.824 1680.29 102.79 1680.19 107.103 1692.62 107.071 1692.54 111.883 1704.79 111.839 1704.68 117.277 1716.75 117.235 1716.66 123.173 1728.47 123.127 1728.39 129.565 1739.95 129.516 1739.86 136.454 1751.18 136.4 1751.09 143.775 1762.03 143.725 1761.96 151.538 1772.65 151.482 1772.58 159.67 1782.89 159.601 1782.81 168.226 1792.68 168.169 1792.62 177.169 1802.18 177.098 1802.11 186.411 1811.17 186.336 1811.1 196.024 1819.73 195.951 1819.66 205.888 1827.79 205.818 1827.73 216.005 1835.42 215.904 1835.35 226.404 1842.41 226.324 1842.36 237.012 1848.92 236.915 1848.87 247.852 1854.87 247.742 1854.81 258.805 1860.12 258.704 1860.08 269.954 1864.83 269.833 1864.78 281.208 1868.84 281.08 1868.8 292.642 1872.18 292.519 1872.14 304.081 1874.83 303.937 1874.8 315.625 1876.74 315.482 1876.72 327.169 1877.91 327.023 1877.9 338.773 1878.33 338.743 1878.33 362.229 1878.9 385.579 1880.47 408.614 1883.04 431.024 1886.49 452.744 1890.82 473.529 1895.85 493.262 1901.63 511.676 1908.04 520.375 1911.51 528.62 1915.03 536.509 1918.69 543.953 1922.54 550.97 1926.4 557.495 1930.45 563.528 1934.52 569.078 1938.79 573.996 1943.07 578.603 1947.61 581.668 1953.28 577.636 1955.46 574.734 1950.09 575.141 1950.63 570.829 1946.38 570.933 1946.48 566.121 1942.29 566.227 1942.38 560.789 1938.19 560.907 1938.28 554.97 1934.28 555.041 1934.32 548.603 1930.32 548.709 1930.38 541.771 1926.57 541.823 1926.6 534.448 1922.79 534.536 1922.83 526.723 1919.2 526.787 1919.23 518.599 1915.73 518.652 1915.75 510.027 1912.32 510.122 1912.35 491.809 1905.98 491.918 1906.01 472.293 1900.26 472.399 1900.29 451.712 1895.29 451.802 1895.31 430.177 1891 430.276 1891.02 407.964 1887.58 408.058 1887.59 385.121 1885.03 385.221 1885.04 361.971 1883.47 362.07 1883.48 338.617 1882.92 326.779 1882.47 314.947 1881.27 303.115 1879.31 291.419 1876.59 279.731 1873.18 268.231 1869.07 256.87 1864.28 245.702 1858.91 234.661 1852.86 223.885 1846.24 213.294 1839.12 203.022 1831.36 193.012 1823.18 183.251 1814.49 173.866 1805.36 164.802 1795.73 156.114 1785.78 147.864 1775.39 139.999 1764.63 132.572 1753.62 125.584 1742.22 119.099 1730.57 113.118 1718.67 107.638 1706.52 102.788 1694.17 98.4417 1681.64 94.7229 1668.97 91.6342 1656.17 89.1748 1643.24 87.4085 1630.19 86.3361 1617.13 85.9569 1604.05 86.5276 1590.92 88.3047 1577.78 91.2195 1564.73 95.1461 1551.75 100.207 1538.9 106.208 1526.14 113.156 1513.57 121.107 1501.21 129.87 1489.1 139.569 1477.2 150.019 1465.49 161.283 1454.16 173.233 1443.09 185.935 1432.4 199.318 1422.04 213.267 1412.05 227.841 1402.5 242.975 1393.33 258.615 1384.66 274.752 1376.5 291.325 1368.84 308.336 1361.68 325.661 1355.09 343.368 1349.07 361.384 1343.73 379.587 1338.96 398.045 1334.88 416.758 1331.43 435.532 1328.79 454.432 1326.78 473.468 1325.58 492.455 1325.21ZM590.302 1944.54 589.073 1975.26 565.234 1955.84Z" fill="#0000FF"/><path d="M622.526 1325.21 660.863 1325.65 699.101 1326.9 737.213 1329.03 775.135 1331.9 812.682 1335.53 849.916 1339.91 886.651 1344.98 922.884 1350.8 958.554 1357.19 993.539 1364.26 1027.71 1371.89 1061.14 1380.16 1093.62 1388.92 1125.17 1398.18 1155.67 1408.01 1185.03 1418.22 1213.22 1428.93 1240.09 1440.02 1265.66 1451.49 1289.79 1463.33 1301.34 1469.42 1312.44 1475.5 1323.23 1481.72 1333.52 1487.99 1343.51 1494.33 1353 1500.74 1362.11 1507.28 1370.72 1513.82 1378.96 1520.42 1386.71 1527.04 1394.02 1533.78 1400.84 1540.53 1407.15 1547.35 1412.97 1554.18 1418.29 1561.09 1423.11 1568.06 1427.42 1575.04 1431.18 1582.05 1434.37 1589.12 1437.09 1596.32 1438.07 1601.72 1433.56 1602.53 1432.62 1597.35 1432.73 1597.75 1430.11 1590.81 1430.16 1590.94 1427.04 1584 1427.11 1584.15 1423.42 1577.27 1423.49 1577.39 1419.24 1570.52 1419.3 1570.62 1414.55 1563.74 1414.62 1563.84 1409.37 1557.02 1409.44 1557.11 1403.69 1550.36 1403.76 1550.43 1397.51 1543.68 1397.57 1543.75 1390.82 1537.07 1390.88 1537.12 1383.63 1530.43 1383.7 1530.49 1376.01 1523.93 1376.07 1523.98 1367.88 1517.41 1367.93 1517.45 1359.36 1510.95 1359.41 1510.99 1350.35 1504.49 1350.4 1504.52 1340.97 1498.15 1341.02 1498.18 1331.08 1491.87 1331.12 1491.89 1320.87 1485.64 1320.92 1485.67 1310.17 1479.49 1310.21 1479.51 1299.15 1473.45 1299.18 1473.46 1287.68 1467.4 1287.74 1467.43 1263.68 1455.62 1263.75 1455.65 1238.25 1444.22 1238.31 1444.24 1211.5 1433.18 1211.56 1433.2 1183.44 1422.52 1183.5 1422.54 1154.19 1412.35 1154.23 1412.37 1123.8 1402.56 1123.85 1402.57 1092.35 1393.32 1092.4 1393.34 1059.97 1384.59 1060.01 1384.6 1026.64 1376.35 1026.69 1376.36 992.563 1368.74 992.609 1368.75 957.671 1361.68 957.721 1361.69 922.096 1355.32 922.137 1355.33 885.949 1349.51 885.999 1349.52 849.312 1344.46 849.357 1344.46 812.17 1340.09 812.217 1340.09 774.717 1336.47 774.764 1336.47 736.889 1333.6 736.935 1333.6 698.872 1331.48 698.925 1331.48 660.738 1330.23 660.786 1330.23 622.474 1329.79ZM1448.63 1595.36 1439.55 1624.73 1421.5 1599.85Z" fill="#0000FF"/><path d="M622.615 1159.21 630.218 1159.59 637.933 1160.68 645.567 1162.54 653.18 1165.04 660.725 1168.24 668.124 1172.06 675.437 1176.52 682.678 1181.53 689.716 1187.11 696.682 1193.19 703.456 1199.84 710.026 1206.92 716.465 1214.49 722.714 1222.51 728.706 1230.96 734.513 1239.8 745.337 1258.49 755.094 1278.57 763.714 1299.71 771.008 1321.78 774.096 1333.18 776.862 1344.69 779.254 1356.33 781.204 1368.1 782.777 1379.93 783.91 1391.89 784.603 1403.85 784.855 1415.88 784.353 1439.78 782.973 1463.49 780.778 1486.82 777.766 1509.59 774.002 1531.68 769.546 1552.77 764.524 1572.79 758.996 1591.45 755.973 1600.27 752.89 1608.7 749.678 1616.7 746.397 1624.27 742.985 1631.34 739.502 1637.99 735.885 1644.08 732.257 1649.69 728.358 1654.91 721.402 1660.63 718.489 1657.09 725.231 1651.54 724.851 1651.94 728.539 1647 728.452 1647.13 732.014 1641.63 731.967 1641.71 735.53 1635.71 735.47 1635.81 738.908 1629.25 738.873 1629.32 742.248 1622.32 742.21 1622.4 745.46 1614.9 745.436 1614.96 748.623 1607.02 748.598 1607.09 751.66 1598.71 751.645 1598.76 754.645 1590.01 754.615 1590.1 760.115 1571.54 760.09 1571.63 765.09 1551.69 765.07 1551.78 769.508 1530.78 769.491 1530.86 773.241 1508.86 773.228 1508.95 776.228 1486.26 776.218 1486.35 778.406 1463.1 778.4 1463.18 779.775 1439.55 779.771 1439.64 780.271 1415.83 780.271 1415.92 780.021 1403.99 780.025 1404.07 779.337 1392.19 779.344 1392.28 778.219 1380.4 778.228 1380.49 776.666 1368.74 776.677 1368.81 774.739 1357.12 774.755 1357.21 772.38 1345.65 772.397 1345.72 769.647 1334.29 769.663 1334.35 766.601 1323.04 766.637 1323.16 759.387 1301.22 759.44 1301.37 750.878 1280.37 750.939 1280.5 741.251 1260.56 741.329 1260.71 730.579 1242.15 730.647 1242.26 724.897 1233.51 724.943 1233.58 719.006 1225.2 719.068 1225.28 712.88 1217.35 712.941 1217.42 706.566 1209.92 706.633 1210 700.133 1203 700.207 1203.07 693.52 1196.51 693.618 1196.6 686.743 1190.6 686.826 1190.67 679.889 1185.17 680.007 1185.26 672.882 1180.32 672.996 1180.4 665.809 1176.02 665.947 1176.1 658.697 1172.35 658.856 1172.42 651.481 1169.3 651.661 1169.37 644.224 1166.93 644.395 1166.98 636.957 1165.16 637.179 1165.21 629.679 1164.14 629.886 1164.16 622.386 1163.79ZM730.746 1668.53 700.047 1670.23 717.106 1644.65Z" fill="#00AA00"/><path d="M0.130739-2.28793 6.81167-1.90617 13.6146-0.804734 20.3963 1.06829 27.0922 3.57925 33.7081 6.79085 40.2354 10.6304 46.6815 15.098 52.9815 20.1253 59.2019 25.711 65.2945 31.8036 71.1813 38.45 76.9944 45.5267 82.6163 53.1069 88.1079 61.1234 93.3413 69.5725 98.4522 78.4061 107.953 97.0927 116.51 117.164 124.057 138.297 130.408 160.368 135.563 183.25 139.396 206.625 140.718 218.464 141.724 230.406 142.353 242.359 142.542 254.381 142.04 278.278 140.66 301.986 138.465 325.32 135.454 348.093 131.689 370.18 127.233 391.266 122.211 411.292 116.683 429.947 113.66 438.765 110.577 447.196 107.365 455.195 104.084 462.766 100.673 469.842 97.1892 476.492 93.5727 482.583 89.9444 488.185 86.0454 493.406 79.0736 499.146 76.1602 495.608 82.9183 490.043 82.5389 490.441 86.2264 485.504 86.1391 485.629 89.7016 480.129 89.6545 480.205 93.217 474.205 93.1575 474.312 96.595 467.749 96.5607 467.817 99.9357 460.817 99.8973 460.901 103.147 453.401 103.123 453.458 106.311 445.521 106.285 445.588 109.348 437.213 109.332 437.257 112.332 428.507 112.303 428.599 117.803 410.036 117.777 410.13 122.777 390.193 122.758 390.276 127.195 369.276 127.178 369.365 130.928 347.365 130.916 347.45 133.916 324.762 133.906 324.848 136.093 301.598 136.087 301.679 137.462 278.054 137.459 278.139 137.959 254.327 137.959 254.411 137.771 242.473 137.774 242.558 137.149 230.683 137.154 230.755 136.154 218.88 136.16 218.942 134.848 207.192 134.864 207.308 131.051 184.058 131.077 184.191 125.952 161.441 125.985 161.571 119.673 139.634 119.717 139.771 112.217 118.771 112.267 118.899 103.767 98.9613 103.832 99.1011 94.3947 80.5386 94.4539 80.6476 89.3914 71.8976 89.4268 71.9567 84.2393 63.5817 84.2969 63.6701 78.8594 55.7326 78.9093 55.8027 73.3468 48.3027 73.4167 48.3921 67.6667 41.3921 67.722 41.457 61.9095 34.8945 62.0045 34.9955 56.0046 28.9955 56.0939 29.0801 49.9689 23.5801 50.0706 23.6663 43.8831 18.7288 44.0071 18.821 37.6946 14.446 37.8381 14.5378 31.4631 10.7878 31.6242 10.8741 25.1867 7.7491 25.3828 7.83325 18.8828 5.39575 19.0774 5.45896 12.5149 3.64646 12.7587 3.69971 6.19624 2.63721 6.43176 2.66293-0.130739 2.28793ZM88.4097 507.051 57.7096 508.729 74.787 483.162Z" fill="#FF7700" transform="matrix(-1 1.22465e-16 1.22465e-16 1 1204.21 1161.5)"/><path d="M0.078976-2.29031 12.84-1.85027 25.6159-0.585328 38.3849 1.56391 51.0154 4.46892 63.5816 8.13143 75.9552 12.5506 88.2545 17.7226 100.296 23.5228 112.209 30.0148 123.863 37.1335 135.266 44.8195 146.349 53.1315 157.171 61.9405 167.686 71.2587 177.821 81.1419 187.57 91.4571 196.946 102.154 205.881 113.355 214.374 124.868 222.364 136.758 229.915 148.966 236.899 161.55 243.381 174.324 249.236 187.356 254.524 200.639 259.183 214.114 263.214 227.781 266.554 241.583 269.137 255.444 271.095 269.464 271.381 274.491 266.805 274.751 266.525 269.817 266.543 270.004 264.605 256.129 264.622 256.232 262.06 242.482 262.085 242.602 258.773 228.914 258.802 229.023 254.802 215.461 254.834 215.561 250.209 202.186 250.246 202.285 244.996 189.098 245.035 189.189 239.222 176.252 239.269 176.349 232.831 163.662 232.871 163.737 225.934 151.237 225.989 151.331 218.489 139.206 218.535 139.278 210.598 127.466 210.656 127.548 202.218 116.11 202.271 116.179 193.396 105.054 193.464 105.135 184.152 94.5105 184.209 94.5741 174.522 84.3241 174.588 84.3907 164.525 74.5782 164.605 74.6526 154.168 65.4026 154.241 65.4648 143.491 56.7148 143.562 56.7708 132.562 48.5208 132.657 48.5878 121.344 40.9628 121.43 41.0182 109.868 33.9557 109.966 34.0123 98.1534 27.5747 98.2555 27.6271 86.318 21.8771 86.4242 21.925 74.2367 16.8 74.3542 16.8457 62.1042 12.4707 62.2338 12.5126 49.7963 8.88762 49.9238 8.92086 37.4238 6.04586 37.5571 6.07238 24.9321 3.94738 25.0867 3.96802 12.4617 2.71802 12.6085 2.72781-0.078976 2.29031ZM282.571 269.291 270.349 297.503 255.112 270.799Z" fill="#900090" transform="matrix(-1 1.22465e-16 1.22465e-16 1 1203.85 1327.5)"/><path d="M0.0563354 2.29097-15.1937 2.66597-15.0814 2.66046-30.3314 3.78546-30.2284 3.77552-45.4159 5.58802-45.3138 5.57349-60.4388 8.07349-60.3343 8.05371-75.2718 11.2412-75.17 11.2171-89.9825 15.0921-89.8997 15.0687-104.587 19.5062-104.492 19.4751-118.929 24.5376-118.843 24.5053-133.03 30.1303-132.953 30.098-146.891 36.223-146.803 36.1822-160.428 42.8697-160.345 42.8269-173.595 50.0144-173.521 49.9726-186.521 57.6601-186.439 57.6089-198.939 65.7339-198.877 65.6922-211.064 74.1922-210.977 74.1282-222.664 83.1282-222.596 83.0738-233.784 92.3863-233.711 92.3229-244.398 102.01-244.332 101.948-254.52 111.948-254.45 111.876-264.075 122.189-264.001 122.106-273.001 132.731-272.934 132.648-281.309 143.523-281.24 143.428-288.927 154.553-288.869 154.464-295.931 165.776-295.864 165.661-302.176 177.223-302.118 177.11-307.681 188.797-307.628 188.677-312.44 200.49-312.39 200.353-316.39 212.291-316.347 212.148-319.534 224.21-319.497 224.045-321.747 236.108-321.724 235.956-323.162 248.143-323.147 247.957-323.585 260.145-323.585 259.969-323.085 272.156-323.102 271.959-321.539 284.146-321.57 283.964-319.008 296.089-319.05 295.921-315.55 307.921-315.606 307.754-311.106 319.692-311.158 319.564-305.846 331.439-305.917 331.294-299.667 342.982-299.73 342.871-292.73 354.371-292.807 354.253-284.932 365.566-284.996 365.477-276.434 376.602-276.514 376.504-267.139 387.379-267.206 387.304-257.206 397.929-257.289 397.846-246.539 408.159-246.602 408.1-235.289 418.163-235.368 418.096-223.431 427.783-223.506 427.725-211.006 437.037-211.077 436.987-198.077 445.924-198.148 445.877-184.648 454.44-184.731 454.389-170.731 462.452-170.798 462.415-156.36 470.102-156.437 470.063-141.625 477.251-141.701 477.215-126.514 483.903-126.588 483.872-111.088 490.059-111.177 490.026-95.3645 495.588-95.4386 495.564-79.3136 500.626-79.3985 500.601-63.086 505.039-63.1716 505.017-46.6716 508.83-46.7575 508.812-30.07 511.999-30.1547 511.984-13.3422 514.547-13.4437 514.534 3.49384 516.346 3.40188 516.338 20.3394 517.463 20.2379 517.459 37.3004 517.834 71.3474 518.585 105.128 520.716 138.407 524.163 170.933 528.863 202.326 534.628 217.57 537.953 232.427 541.463 246.915 545.226 260.967 549.241 274.518 553.444 287.576 557.839 300.134 562.485 312.125 567.257 323.567 572.161 334.336 577.262 344.41 582.551 353.873 587.913 362.531 593.474 370.505 599.107 377.62 604.824 384 610.693 389.56 616.777 394.232 625.187 390.225 627.413 385.684 619.238 385.996 619.671 380.683 613.859 380.823 613.999 374.573 608.249 374.69 608.349 367.69 602.724 367.803 602.809 359.928 597.247 360.012 597.303 351.449 591.803 351.558 591.869 342.183 586.556 342.247 586.591 332.247 581.341 332.331 581.384 321.644 576.321 321.722 576.356 310.347 571.481 310.403 571.504 298.465 566.754 298.517 566.774 286.017 562.149 286.082 562.172 273.082 557.797 273.134 557.814 259.634 553.626 259.683 553.641 245.683 549.641 245.736 549.656 231.299 545.906 231.348 545.918 216.536 542.418 216.574 542.427 201.387 539.114 201.461 539.129 170.149 533.379 170.235 533.393 137.797 528.706 137.889 528.717 104.701 525.279 104.793 525.287 71.1057 523.162 71.1995 523.166 37.1996 522.416 20.0863 522.04 3.05206 520.909-13.9822 519.086-30.8878 516.509-47.6606 513.305-64.2464 509.473-80.6442 505.012-96.8487 499.925-112.743 494.333-128.324 488.113-143.587 481.393-158.477 474.168-172.986 466.442-187.061 458.336-200.638 449.725-213.709 440.739-226.282 431.372-238.297 421.622-249.68 411.496-260.504 401.113-270.578 390.409-280.027 379.448-288.662 368.229-296.608 356.814-303.678 345.199-309.996 333.385-315.37 321.373-319.925 309.289-323.474 297.121-326.074 284.821-327.661 272.443-328.168 260.068-327.724 247.699-326.267 235.343-323.987 223.121-320.759 210.905-316.712 198.828-311.848 186.887-306.229 175.083-299.854 163.406-292.728 151.991-284.977 140.774-276.533 129.809-267.463 119.102-257.766 108.712-247.51 98.6451-236.753 88.8946-225.495 79.5233-213.73 70.4638-201.468 61.9114-188.896 53.7396-175.817 46.0058-162.489 38.7759-148.779 32.0465-134.759 25.8851-120.489 20.2277-105.961 15.1333-91.1841 10.6688-76.2794 6.76971-61.2387 3.56019-46.0103 1.0431-30.7202-0.78165-15.3625-1.91459-0.0563354-2.29097ZM403.496 617.183 400.27 647.759 377.745 626.833Z" fill="#900090" transform="matrix(-1 0 0 1 1333.77 1327.5)"/><path d="M62.5001 1215.34C62.5001 1107.73 149.732 1020.5 257.338 1020.5L2544.66 1020.5C2652.27 1020.5 2739.5 1107.73 2739.5 1215.34L2739.5 1994.66C2739.5 2102.27 2652.27 2189.5 2544.66 2189.5L257.338 2189.5C149.732 2189.5 62.5001 2102.27 62.5001 1994.66Z" stroke="#000000" stroke-width="4.58333" stroke-miterlimit="8" stroke-dasharray="18.3333 13.75" fill="none" fill-rule="evenodd"/><path d="M526.5 667.167C526.5 648.021 542.021 632.5 561.167 632.5L699.833 632.5C718.979 632.5 734.5 648.021 734.5 667.167L734.5 805.833C734.5 824.979 718.979 840.5 699.833 840.5L561.167 840.5C542.021 840.5 526.5 824.979 526.5 805.833Z" stroke="#000000" stroke-width="4.58333" stroke-miterlimit="8" fill="none" fill-rule="evenodd"/><text font-family="Courier New,Courier New_MSFontService,sans-serif" font-weight="400" font-size="83" transform="matrix(1 0 0 1 580.326 760)">F1</text><path d="M783.5 666.167C783.5 647.021 799.021 631.5 818.167 631.5L956.833 631.5C975.979 631.5 991.5 647.021 991.5 666.167L991.5 804.833C991.5 823.979 975.979 839.5 956.833 839.5L818.167 839.5C799.021 839.5 783.5 823.979 783.5 804.833Z" stroke="#000000" stroke-width="4.58333" stroke-miterlimit="8" fill="none" fill-rule="evenodd"/><text font-family="Courier New,Courier New_MSFontService,sans-serif" font-weight="400" font-size="83" transform="matrix(1 0 0 1 837.983 759)">F2</text><path d="M2119.5 1724.83C2119.5 1693.72 2144.72 1668.5 2175.83 1668.5L2609.17 1668.5C2640.28 1668.5 2665.5 1693.72 2665.5 1724.83L2665.5 1950.17C2665.5 1981.28 2640.28 2006.5 2609.17 2006.5L2175.83 2006.5C2144.72 2006.5 2119.5 1981.28 2119.5 1950.17Z" stroke="#000000" stroke-width="4.58333" stroke-miterlimit="8" fill="none" fill-rule="evenodd"/><text font-family="Courier New,Courier New_MSFontService,sans-serif" font-weight="400" font-size="83" transform="matrix(1 0 0 1 2170.15 1860)">F3 = <tspan font-size="83" x="246.354" y="0">----</tspan></text><path d="M2449.5 1818.5 2514.5 1688.5 2579.5 1818.5Z" stroke="#000000" stroke-width="4.58333" stroke-miterlimit="8" fill="#FF0000" fill-rule="evenodd"/><path d="M2449.5 1983.5 2514.5 1853.5 2579.5 1983.5Z" stroke="#000000" stroke-width="4.58333" stroke-miterlimit="8" fill="#00B0F0" fill-rule="evenodd"/><path d="M2850.5 1767C2850.5 1747.95 2865.95 1732.5 2885 1732.5L3023 1732.5C3042.05 1732.5 3057.5 1747.95 3057.5 1767L3057.5 1906C3057.5 1925.05 3042.05 1940.5 3023 1940.5L2885 1940.5C2865.95 1940.5 2850.5 1925.05 2850.5 1906Z" stroke="#000000" stroke-width="4.58333" stroke-miterlimit="8" fill="none" fill-rule="evenodd"/><text font-family="Courier New,Courier New_MSFontService,sans-serif" font-weight="400" font-size="83" transform="matrix(1 0 0 1 2904.24 1859)">F3</text><path d="M636.379 840.349 635.8 851.741 634.08 863.379 631.31 874.788 627.566 885.889 622.964 896.673 617.454 906.905 611.292 916.673 604.386 925.749 596.884 934.172 588.873 941.719 580.301 948.431 571.281 954.177 561.965 958.835 552.233 962.306 542.334 964.506 532.717 965.23 523.592 965.918 524.567 965.774 515.567 967.774 516.399 967.533 507.524 970.72 508.257 970.408 499.57 974.72 500.206 974.361 491.769 979.736 492.334 979.335 484.334 985.647 484.769 985.273 477.144 992.398 477.584 991.947 470.459 999.947 470.816 999.513 464.316 1008.14 464.611 1007.71 458.673 1016.96 458.966 1016.46 453.778 1026.28 454.017 1025.78 449.642 1035.96 450.029 1034.78 447.841 1044.39 434.434 1041.34 436.761 1031.11 441.493 1020.09 446.945 1009.78 453.179 1000.07 460.004 991.013 467.526 982.567 475.591 975.031 484.089 968.325 493.128 962.567 502.501 957.914 512.16 954.445 522.066 952.244 531.684 951.519 540.809 950.832 539.834 950.976 548.834 948.976 548.016 949.212 556.953 946.024 556.188 946.351 564.813 942.038 564.194 942.389 572.631 937.014 572.087 937.399 580.149 931.087 579.673 931.496 587.236 924.371 586.816 924.802 593.941 916.802 593.604 917.212 600.166 908.587 599.823 909.082 605.698 899.769 605.459 900.178 610.709 890.428 610.44 890.989 614.815 880.739 614.623 881.24 618.186 870.678 618.019 871.253 620.644 860.44 620.524 861.058 622.149 850.058 622.084 850.713 622.647 839.651ZM462.659 1039.78 435 1076.68 422.071 1032.41Z"/><path d="M0.23161-6.8711 6.02468-6.67583 12.1399-6.05743 23.9133-3.72937 35.5169 0.00514272 46.737 4.98446 57.5772 11.1977 67.8995 18.4957 77.6678 26.7562 86.7648 35.9185 95.1292 45.8513 102.644 56.438 109.317 67.6893 114.957 79.4295 119.493 91.5904 122.852 104.106 124.968 116.866 125.676 129.361 126.364 141.486 126.282 140.75 128.282 152.813 128.14 152.155 131.327 164.03 131.129 163.41 135.442 174.972 135.183 174.37 140.621 185.557 140.366 185.081 146.678 195.831 146.356 195.333 153.544 205.458 153.196 205.009 161.196 214.509 160.816 214.094 169.504 222.844 169.064 222.438 178.377 230.313 177.906 229.949 187.719 236.886 187.153 236.526 197.466 242.401 196.086 241.804 206.211 244.922 202.165 258.063 191.317 254.723 180.055 248.307 169.726 241.004 159.957 232.744 150.86 223.581 142.496 213.649 134.972 203.05 128.372 191.811 122.673 180.085 118.132 167.91 114.773 155.394 112.657 142.634 111.949 130.139 111.261 118.014 111.343 118.75 109.343 106.687 109.485 107.345 106.298 95.4698 106.496 96.09 102.183 84.5275 102.428 85.1023 97.0531 73.9148 97.3366 74.4443 90.9616 63.6943 91.2689 64.1671 84.0814 54.0421 84.4287 54.4909 76.4287 44.9909 76.8087 45.4064 68.1212 36.6564 68.5607 37.0621 59.2482 29.1871 59.7186 29.5512 49.9061 22.6137 50.4562 22.9647 40.2062 17.0897 40.8362 17.409 30.2737 12.7215 30.9563 12.9819 20.0813 9.48191 20.8539 9.68191 9.79136 7.49441 10.4333 7.59012 4.8708 7.02762 5.33089 7.0586-0.23161 6.8711ZM202.276 229.836 237.628 259.453 192.723 269.965Z" transform="matrix(1.83697e-16 1 1 -1.83697e-16 887 839)"/><path d="M0.053293-6.87479 8.14455-6.81207 15.9561-6.68608 23.3782-6.49577 29.9829-6.17823 35.5731-5.86418 37.9492-5.73217 40.1681-5.52415 41.946-5.3108 43.6324-5.04453 45.9501-4.41244 47.25-3.4375 47.5-3.25 45.1839-4.38275 45.8714-4.19525 44.417-4.42835 52.2063-4.02617 51.4973 9.70554 42.9682 9.26516 40.2999 8.53744 39 7.5625 38.75 7.375 41.0661 8.50775 40.3786 8.32025 41.1153 8.47837 39.9278 8.29087 40.1809 8.32603 38.6184 8.13853 38.7958 8.15749 36.7958 7.96999 37.0561 7.98942 34.8019 7.86418 29.2394 7.55168 29.2948 7.55457 22.7949 7.24207 22.9488 7.24774 15.6363 7.06024 15.7016 7.06161 7.95163 6.93661 8.00921 6.93729-0.053293 6.87479ZM45.7528-18.028 86.2028 4.125 44.2104 23.1932Z" fill="#FF0000" transform="matrix(1 0 0 -1 1682 1671.12)"/><path d="M1976.51 1660.14 1983.67 1660.68 1991.22 1662.3 1998.56 1664.82 2005.69 1668.28 2012.49 1672.47 2018.87 1677.42 2024.91 1682.93 2030.57 1689.06 2035.72 1695.75 2040.4 1702.83 2044.48 1710.33 2047.97 1718.17 2050.78 1726.36 2052.87 1734.71 2054.16 1743.23 2054.61 1751.5 2055.05 1759.43 2054.99 1758.79 2056.17 1766.66 2056.04 1766.02 2057.98 1773.77 2057.81 1773.2 2060.44 1780.82 2060.24 1780.32 2063.43 1787.63 2063.14 1787.05 2067.01 1794.05 2066.76 1793.62 2071.07 1800.25 2070.76 1799.81 2075.57 1806.06 2075.18 1805.59 2080.43 1811.27 2080.01 1810.86 2085.63 1815.98 2083.63 1814.71 2090.16 1817.42 2084.9 1830.12 2077.26 1826.95 2070.52 1820.82 2064.86 1814.69 2059.7 1807.98 2055.1 1800.92 2050.95 1793.42 2047.53 1785.56 2044.71 1777.39 2042.63 1769.04 2041.34 1760.52 2040.89 1752.25 2040.45 1744.32 2040.51 1744.96 2039.33 1737.09 2039.46 1737.73 2037.52 1729.98 2037.69 1730.55 2035.06 1722.93 2035.28 1723.48 2032.03 1716.17 2032.27 1716.66 2028.46 1709.66 2028.76 1710.16 2024.39 1703.54 2024.68 1703.94 2019.87 1697.69 2020.26 1698.16 2015.01 1692.48 2015.43 1692.89 2009.81 1687.77 2010.22 1688.12 2004.35 1683.55 2004.96 1683.98 1998.77 1680.17 1999.37 1680.5 1992.94 1677.37 1993.71 1677.69 1987.15 1675.44 1987.93 1675.66 1981.24 1674.22 1982.17 1674.36 1975.49 1673.86ZM2088.91 1802.07 2119.38 1836.69 2073.41 1840.3Z" fill="#FF0000"/><path d="M0.512588-6.85586 7.73214-6.31609 15.3619-4.53344 22.7419-1.7923 29.8876 1.95401 36.6936 6.49135 43.0738 11.8534 49.098 17.8107 54.7223 24.3724 59.8599 31.5117 64.5154 39.1599 68.5728 47.2082 72.027 55.6444 74.8213 64.3601 76.8917 73.3096 78.1631 82.4102 78.616 91.2742 79.0535 99.8367 78.9964 99.2363 80.1839 107.736 80.0731 107.138 82.0106 115.513 81.8593 114.964 84.4843 123.151 84.3173 122.688 87.5048 130.626 87.2435 130.052 91.1185 137.615 90.8953 137.213 95.2078 144.4 94.8928 143.922 99.7053 150.609 99.3449 150.151 104.595 156.276 104.209 155.862 109.834 161.424 107.906 160.082 114.762 163.28 108.951 175.741 101.014 172.039 94.3395 165.439 88.7152 158.878 83.5647 151.721 78.9864 144.09 74.8627 136.042 71.4659 127.583 68.6787 118.89 66.6083 109.94 65.3369 100.84 64.8839 91.9758 64.4465 83.4133 64.5036 84.0137 63.3161 75.5137 63.4269 76.1121 61.4894 67.7371 61.6407 68.2865 59.0157 60.099 59.2002 60.605 55.9502 52.6676 56.1735 53.1574 52.361 45.5949 52.6274 46.0746 48.2524 38.8871 48.5447 39.3282 43.7322 32.6407 44.0926 33.0992 38.8426 26.9742 39.2284 27.3884 33.6034 21.8259 34.0142 22.2006 28.1392 17.2631 28.7489 17.7203 22.5614 13.5953 23.1827 13.9639 16.7452 10.5889 17.5437 10.9448 10.9812 8.5073 11.8108 8.7572 5.12332 7.1947 6.17491 7.35586-0.512588 6.85586ZM113.77 147.854 143.384 183.208 97.3321 185.687Z" fill="#00B0F0" transform="matrix(1 0 0 -1 1976 2020.21)"/><path d="M0-6.875 34.4503-6.875 51.4004-6.81245 51.375-6.8125 67.8258-6.8125 83.8393-6.74995 99.0907-6.68744 113.53-6.62494 127.032-6.56243 139.472-6.49991 150.663-6.43739 160.571-6.37469 164.973-6.3118 168.982-6.24916 168.875-6.25 172.505-6.25 175.772-6.18593 178.472-6.12314 178.312-6.125 180.748-6.125 182.661-6.05666 184.015-5.99222 183.688-6 185.346-6 186.417-5.73224 186.667-5.66972 185-5.875 185.976-5.875 187.452-5.80472 187.37-5.80812 189.12-5.74562 189.061-5.74749 191.373-5.68499 191.188-5.6875 193.942-5.6875 197.197-5.62368 200.746-5.56144 200.625-5.5625 204.674-5.5625 209.098-5.4993 209.044-5.49986 218.856-5.43736 230.116-5.37481 242.507-5.24965 242.437-5.25 255.952-5.25 270.467-5.18744 285.716-5.12494 301.652-5.06245 301.625-5.0625 318.062-5.0625 335.039-5.02511 335.008 8.72486 318.062 8.6875 301.612 8.6875 285.659 8.62494 270.408 8.56244 255.908 8.49994 255.938 8.5 242.403 8.5 229.993 8.37465 230.024 8.37489 218.769 8.31236 208.929 8.24969 204.527 8.1868 204.625 8.1875 200.565 8.1875 196.928 8.12368 193.74 8.06118 193.875 8.0625 191.095 8.0625 188.659 7.99668 186.839 7.93166 185.485 7.86722 185.812 7.875 184.154 7.875 183.083 7.60724 182.833 7.54474 184.5 7.75 183.524 7.75 182.048 7.67972 182.13 7.68312 180.38 7.62062 180.625 7.625 178.233 7.625 175.465 7.56064 175.49 7.56118 172.303 7.49868 172.438 7.5 168.821 7.5 164.777 7.4368 160.402 7.3743 160.456 7.37486 150.587 7.31239 139.403 7.24991 126.968 7.18743 113.47 7.12494 99.0343 7.06244 83.7856 6.99995 67.7856 6.93745 67.8125 6.9375 51.3622 6.9375 34.4121 6.87495 34.4375 6.875 0 6.875ZM328.149-18.7753 369.399 1.85066 328.148 22.4747Z" fill="#00B0F0" transform="matrix(1 0 0 -1 1398 2021.85)"/><path d="M0-6.875 17.2629-6.875 33.9771-6.8124 41.9912-6.74979 41.9375-6.75 49.5921-6.75 56.8718-6.68724 63.6262-6.62471 69.8194-6.56215 75.4514-6.49958 80.3995-6.43695 84.615-6.37405 88.0246-6.31091 90.5983-6.24657 92.5023-6.17041 93.2902-6.07191 93.7902-6.00941 93.2123-6.05701 94.7748-5.99451 94.6718-5.99785 97.1718-5.93535 97.1273-5.93632 100.502-5.87382 100.478-5.87423 104.665-5.81173 109.587-5.74945 115.201-5.68708 115.125-5.6875 121.344-5.6875 128.188-5.62471 135.372-5.56224 135.312-5.5625 143-5.5625 150.51-5.54512 150.478 8.20484 143 8.1875 135.283 8.1875 128.062 8.12471 121.249 8.06221 121.312 8.0625 115.087 8.0625 109.413 7.99945 104.46 7.93673 100.26 7.87405 96.8504 7.81091 94.2767 7.74657 92.3727 7.67041 91.5848 7.57191 91.0848 7.50941 91.6627 7.55701 90.1002 7.49451 90.2032 7.49785 87.7032 7.43535 87.7477 7.43632 84.3727 7.37382 84.3974 7.37423 80.2255 7.31195 75.2986 7.24958 69.6806 7.18715 63.4988 7.12471 56.7532 7.06224 49.5032 6.99974 49.5625 7 41.9107 7 33.8838 6.93729 33.9118 6.93745 17.2243 6.87495 17.25 6.875 0 6.875ZM143.656-19.3076 184.869 1.39232 143.581 21.9423Z" fill="#00AA00" transform="matrix(1 0 0 -1 2665 1837.39)"/></g></svg>