<svg width="1495" height="1466" xmlns="http://www.w3.org/2000/svg" xmlns:xlink="http://www.w3.org/1999/xlink" xml:space="preserve" overflow="hidden"><defs><clipPath id="clip0"><rect x="902" y="709" width="1495" height="1466"/></clipPath></defs><g clip-path="url(#clip0)" transform="translate(-902 -709)"><path d="M904.5 1163.67C904.5 1060.85 987.851 977.5 1090.67 977.5L1835.33 977.5C1938.15 977.5 2021.5 1060.85 2021.5 1163.67L2021.5 1986.33C2021.5 2089.15 1938.15 2172.5 1835.33 2172.5L1090.67 2172.5C987.851 2172.5 904.5 2089.15 904.5 1986.33Z" stroke="#000000" stroke-width="4.58333" stroke-miterlimit="8" stroke-dasharray="18.3333 13.75" fill="none" fill-rule="evenodd"/><path d="M1119.5 746.167C1119.5 727.021 1135.02 711.5 1154.17 711.5L1292.83 711.5C1311.98 711.5 1327.5 727.021 1327.5 746.167L1327.5 884.833C1327.5 903.979 1311.98 919.5 1292.83 919.5L1154.17 919.5C1135.02 919.5 1119.5 903.979 1119.5 884.833Z" stroke="#000000" stroke-width="4.58333" stroke-miterlimit="8" fill="none" fill-rule="evenodd"/><text font-family="Courier New,Courier New_MSFontService,sans-serif" font-weight="400" font-size="83" transform="matrix(1 0 0 1 1198.01 839)">F</text><path d="M1004.5 1133.67C1004.5 1102.65 1029.65 1077.5 1060.67 1077.5L1494.33 1077.5C1525.35 1077.5 1550.5 1102.65 1550.5 1133.67L1550.5 1358.33C1550.5 1389.35 1525.35 1414.5 1494.33 1414.5L1060.67 1414.5C1029.65 1414.5 1004.5 1389.35 1004.5 1358.33Z" stroke="#000000" stroke-width="4.58333" stroke-miterlimit="8" fill="none" fill-rule="evenodd"/><text font-family="Courier New,Courier New_MSFontService,sans-serif" font-weight="400" font-size="83" transform="matrix(1 0 0 1 1079.74 1269)">F = <tspan font-size="83" x="197.083" y="0">----</tspan></text><path d="M1305.5 1161.5C1305.5 1125.6 1334.6 1096.5 1370.5 1096.5 1406.4 1096.5 1435.5 1125.6 1435.5 1161.5 1435.5 1197.4 1406.4 1226.5 1370.5 1226.5 1334.6 1226.5 1305.5 1197.4 1305.5 1161.5Z" stroke="#000000" stroke-width="4.58333" stroke-miterlimit="8" fill="#00AA00" fill-rule="evenodd"/><path d="M1305.5 1327C1305.5 1291.38 1334.6 1262.5 1370.5 1262.5 1406.4 1262.5 1435.5 1291.38 1435.5 1327 1435.5 1362.62 1406.4 1391.5 1370.5 1391.5 1334.6 1391.5 1305.5 1362.62 1305.5 1327Z" stroke="#000000" stroke-width="4.58333" stroke-miterlimit="8" fill="#0000FF" fill-rule="evenodd"/><path d="M1004.5 1755.17C1004.5 1736.02 1020.02 1720.5 1039.17 1720.5L1800.83 1720.5C1819.98 1720.5 1835.5 1736.02 1835.5 1755.17L1835.5 1893.83C1835.5 1912.98 1819.98 1928.5 1800.83 1928.5L1039.17 1928.5C1020.02 1928.5 1004.5 1912.98 1004.5 1893.83Z" stroke="#000000" stroke-width="4.58333" stroke-miterlimit="8" fill="none" fill-rule="evenodd"/><text font-family="Courier New,Courier New_MSFontService,sans-serif" font-weight="400" font-size="83" transform="matrix(1 0 0 1 1047.14 1848)">d = <tspan font-size="83" x="197.083" y="0">(    /    )</tspan></text><path d="M1324.5 1824.5C1324.5 1788.6 1353.38 1759.5 1389 1759.5 1424.62 1759.5 1453.5 1788.6 1453.5 1824.5 1453.5 1860.4 1424.62 1889.5 1389 1889.5 1353.38 1889.5 1324.5 1860.4 1324.5 1824.5Z" stroke="#000000" stroke-width="4.58333" stroke-miterlimit="8" fill="#00AA00" fill-rule="evenodd"/><path d="M1564.5 1824.5C1564.5 1788.6 1593.6 1759.5 1629.5 1759.5 1665.4 1759.5 1694.5 1788.6 1694.5 1824.5 1694.5 1860.4 1665.4 1889.5 1629.5 1889.5 1593.6 1889.5 1564.5 1860.4 1564.5 1824.5Z" stroke="#000000" stroke-width="4.58333" stroke-miterlimit="8" fill="#0000FF" fill-rule="evenodd"/><path d="M2186.5 1974.17C2186.5 1955.02 2202.02 1939.5 2221.17 1939.5L2359.83 1939.5C2378.98 1939.5 2394.5 1955.02 2394.5 1974.17L2394.5 2112.83C2394.5 2131.98 2378.98 2147.5 2359.83 2147.5L2221.17 2147.5C2202.02 2147.5 2186.5 2131.98 2186.5 2112.83Z" stroke="#000000" stroke-width="4.58333" stroke-miterlimit="8" fill="none" fill-rule="evenodd"/><text font-family="Courier New,Courier New_MSFontService,sans-serif" font-weight="400" font-size="83" transform="matrix(1 0 0 1 2265.33 2066)">d</text><path d="M1835.26 1817.13 1851.95 1817.76 1868.69 1819.63 1885.22 1822.66 1901.3 1826.77 1916.86 1831.85 1931.79 1837.9 1945.95 1844.72 1959.21 1852.29 1971.41 1860.6 1982.48 1869.52 1992.28 1878.93 1996.7 1883.95 2000.76 1889.01 2004.38 1894.24 2007.6 1899.47 2010.47 1904.93 2012.81 1910.44 2014.67 1916.02 2016.07 1921.68 2016.91 1927.46 2017.18 1932.91 2017.43 1938.04 2017.36 1937.37 2018.11 1942.43 2017.99 1941.81 2019.24 1946.93 2019.08 1946.39 2020.77 1951.45 2020.58 1950.94 2022.7 1955.94 2022.45 1955.4 2025.07 1960.34 2024.88 1959.99 2027.88 1964.93 2027.63 1964.55 2031 1969.36 2030.74 1969.01 2034.55 1973.76 2034.35 1973.52 2038.47 1978.21 2038.07 1977.79 2047.45 1986.79 2047 1986.4 2057.63 1994.96 2057.18 1994.63 2068.93 2002.63 2068.47 2002.34 2081.28 2009.65 2080.86 2009.43 2094.61 2016.06 2094.22 2015.88 2108.65 2021.76 2108.2 2021.59 2123.32 2026.53 2122.86 2026.39 2138.55 2030.33 2137.86 2030.2 2152.31 2032.28 2150.35 2045.89 2135.54 2043.75 2119.28 2039.67 2103.7 2034.58 2088.83 2028.54 2074.68 2021.71 2061.42 2014.15 2049.21 2005.84 2038.14 1996.92 2028.34 1987.51 2023.92 1982.49 2019.87 1977.44 2016.24 1972.26 2013.02 1966.96 2010.16 1961.59 2007.81 1956.06 2005.95 1950.47 2004.56 1944.76 2003.71 1939.05 2003.45 1933.58 2003.2 1928.46 2003.26 1929.12 2002.51 1924 2002.64 1924.65 2001.39 1919.59 2001.54 1920.11 1999.85 1915.05 2000.05 1915.56 1997.92 1910.56 1998.16 1911.07 1995.54 1906.07 1995.77 1906.48 1992.77 1901.6 1992.97 1901.91 1989.6 1897.04 1989.89 1897.43 1986.08 1892.68 1986.28 1892.92 1982.15 1888.23 1982.55 1888.65 1973.18 1879.65 1973.62 1880.04 1963 1871.48 1963.44 1871.81 1951.69 1863.81 1952.15 1864.1 1939.34 1856.78 1939.77 1857.01 1926.02 1850.38 1926.42 1850.56 1911.92 1844.68 1912.37 1844.85 1897.24 1839.91 1897.67 1840.04 1882.04 1836.04 1882.51 1836.14 1866.45 1833.2 1866.93 1833.27 1850.68 1831.46 1851.18 1831.49 1834.74 1830.87ZM2146.46 2017.9 2185.54 2042.38 2142.51 2058.96Z" fill="#00AA00"/><path d="M0.292289-6.86878 15.2387-6.23277 30.0238-4.4819 43.8047-1.69984 50.378 0.0264875 56.4317 2.0005 62.0848 4.06224 67.2654 6.37989 72.0241 8.89921 76.1693 11.6627 79.7833 14.6481 82.795 18.1912 84.9686 22.3315 85.5894 25.968 86.0269 28.5305 85.3371 26.4918 86.6496 28.9918 85.8008 27.7349 87.9258 30.2349 87.0661 29.3871 89.9411 31.7621 89.3302 31.3118 92.9552 33.6868 92.3708 33.3439 96.5583 35.5314 96.1825 35.3494 100.933 37.4744 100.547 37.3159 105.86 39.3159 105.504 39.193 111.254 41.0055 110.934 40.913 117.121 42.538 116.256 42.3692 124.358 43.4158 122.596 57.0525 114.056 55.9492 107.28 54.1696 101.191 52.2504 95.5077 50.1107 90.3768 47.8153 85.7036 45.3741 81.4769 42.6049 77.8417 39.6019 74.83 36.0588 72.6564 31.9185 72.0356 28.282 71.5981 25.7195 72.2879 27.7582 70.9754 25.2582 71.8242 26.5151 69.6992 24.0151 70.5589 24.8629 67.6839 22.4879 68.2489 22.9078 64.6864 20.5328 65.2833 20.8885 61.0333 18.6385 61.4425 18.8381 56.6925 16.7131 57.1444 16.8964 51.8319 14.9589 52.0561 15.0363 46.3061 13.1613 46.6912 13.2745 40.5037 11.6495 40.8895 11.739 27.577 9.05155 28.129 9.1398 13.879 7.4523 14.3952 7.49378-0.292289 6.86878ZM119.017 28.9559 157.624 54.1829 114.278 69.9329Z" transform="matrix(1.83697e-16 1 1 -1.83697e-16 1223 919)"/><path d="M1435.66 1325.21 1444.94 1325.85 1454.28 1327.78 1463.54 1330.87 1472.76 1335.22 1481.88 1340.58 1490.85 1347.13 1499.73 1354.61 1508.4 1363.1 1516.99 1372.57 1525.32 1382.92 1533.51 1394.13 1541.5 1406.21 1549.23 1419.04 1556.77 1432.61 1564 1446.87 1571.03 1461.87 1577.74 1477.44 1584.14 1493.63 1590.17 1510.37 1595.93 1527.62 1601.33 1545.36 1606.34 1563.55 1610.92 1582.1 1615.12 1601.03 1618.88 1620.21 1622.2 1639.77 1625.08 1659.51 1627.47 1679.45 1629.35 1699.57 1630.73 1719.76 1631.35 1737.43 1626.77 1737.59 1626.15 1719.96 1626.15 1720.03 1624.78 1699.91 1624.78 1699.96 1622.91 1679.9 1622.91 1679.96 1620.54 1660.08 1620.54 1660.14 1617.67 1640.46 1617.68 1640.51 1614.37 1621.01 1614.38 1621.07 1610.63 1601.94 1610.64 1602 1606.45 1583.12 1606.46 1583.17 1601.9 1564.67 1601.92 1564.73 1596.92 1546.61 1596.93 1546.67 1591.56 1528.98 1591.58 1529.04 1585.83 1511.85 1585.84 1511.9 1579.84 1495.21 1579.87 1495.28 1573.49 1479.16 1573.52 1479.22 1566.83 1463.72 1566.86 1463.79 1559.86 1448.85 1559.89 1448.91 1552.71 1434.72 1552.75 1434.8 1545.25 1421.3 1545.29 1421.37 1537.6 1408.62 1537.65 1408.7 1529.71 1396.7 1529.77 1396.79 1521.65 1385.66 1521.71 1385.75 1513.46 1375.5 1513.55 1375.6 1505.05 1366.23 1505.15 1366.33 1496.59 1357.95 1496.71 1358.06 1487.96 1350.69 1488.09 1350.79 1479.27 1344.35 1479.46 1344.48 1470.53 1339.23 1470.71 1339.32 1461.71 1335.07 1461.96 1335.17 1452.96 1332.17 1453.22 1332.24 1444.16 1330.37 1444.47 1330.41 1435.34 1329.79ZM1642.71 1732.63 1629.55 1760.42 1615.21 1733.22Z" fill="#0000FF"/><path d="M0.0612526 2.29085-11.6262 2.60335-11.5164 2.59777-23.2039 3.47277-23.0952 3.46203-34.7827 4.89953-34.6838 4.88515-46.2463 6.82266-46.1356 6.80131-57.5731 9.30131-57.4781 9.2784-68.8531 12.2784-68.7567 12.2507-80.0067 15.7507-79.9083 15.7176-90.9708 19.7176-90.8947 19.6886-101.77 24.0636-101.674 24.0225-112.361 28.8975-112.283 28.8598-122.72 34.1098-122.642 34.0687-132.83 39.6937-132.712 39.6242-152.275 51.9992-152.124 51.8951-170.437 65.6451-170.324 65.5552-178.887 72.8677-178.826 72.8143-187.076 80.3768-186.992 80.2949-194.742 88.1699-194.678 88.1027-202.053 96.2277-201.991 96.1559-208.928 104.468-208.849 104.369-215.224 112.931-215.171 112.856-221.108 121.543-221.046 121.447-226.483 130.322-226.414 130.2-231.226 139.262-231.176 139.161-235.488 148.349-235.429 148.211-239.054 157.461-239.009 157.337-242.072 166.712-242.031 166.573-244.469 176.011-244.434 175.853-246.184 185.353-246.16 185.191-247.222 194.753-247.21 194.59-247.585 204.152-247.584 204.003-247.334 213.565-247.34 213.446-246.59 223.008-246.601 222.903-245.414 232.403-245.429 232.299-243.804 241.736-243.828 241.618-241.703 250.993-241.724 250.906-239.224 260.218-239.256 260.11-236.319 269.235-236.348 269.151-233.035 278.213-233.071 278.121-229.384 286.996-229.421 286.91-225.359 295.66-225.422 295.535-216.297 312.41-216.392 312.25-206.017 328.187-206.125 328.035-194.563 342.972-194.683 342.83-182.183 356.517-182.319 356.38-168.944 368.755-169.055 368.659-162.055 374.346-162.141 374.28-155.016 379.53-155.115 379.461-147.803 384.273-147.901 384.212-140.463 388.587-140.56 388.533-132.935 392.533-133.065 392.47-125.377 395.908-125.485 395.863-117.735 398.863-117.869 398.816-109.994 401.316-110.128 401.278-102.19 403.278-102.342 403.245-94.4041 404.682-94.5633 404.659-86.5633 405.534-86.7237 405.523-78.6612 405.835-70.5805 406.151-62.4138 407.044-54.2584 408.573-46.1746 410.61-38.2241 413.218-30.2796 416.332-22.4683 420.015-14.8051 424.132-7.20589 428.691 0.207181 433.697 7.42284 439.14 14.4987 445.016 21.3899 451.211 28.0431 457.865 40.6491 472.046 52.259 487.442 62.7958 503.973 71.9991 521.434 76.0426 530.469 79.8263 539.613 83.1761 548.967 86.078 558.492 88.6657 568.086 90.7501 577.813 92.4624 587.643 93.0191 594.184 88.4522 594.572 87.9041 588.132 87.9298 588.331 86.2423 578.643 86.2592 578.73 84.1967 569.105 84.2249 569.222 81.6624 559.722 81.6828 559.793 78.8078 550.355 78.8425 550.46 75.53 541.21 75.57 541.314 71.82 532.251 71.8458 532.311 67.8458 523.374 67.9102 523.506 58.7852 506.194 58.88 506.357 48.4425 489.982 48.5453 490.13 37.0453 474.88 37.1622 475.022 24.6622 460.96 24.7545 461.058 18.192 454.495 18.2803 454.579 11.4678 448.454 11.536 448.513 4.53601 442.701 4.61987 442.767-2.50513 437.392-2.4074 437.462-9.71991 432.524-9.61656 432.59-17.1166 428.09-17.022 428.144-24.5845 424.081-24.4774 424.135-32.1649 420.51-32.0239 420.571-39.8364 417.509-39.7142 417.553-47.5267 414.99-47.3724 415.035-55.3099 413.035-55.1723 413.065-63.1723 411.565-62.9992 411.591-70.9992 410.716-70.8394 410.727-78.8388 410.415-86.9817 410.099-95.1417 409.207-103.235 407.741-111.315 405.705-119.324 403.163-127.194 400.116-135.001 396.625-142.739 392.566-150.274 388.133-157.686 383.256-164.903 377.938-172.002 372.17-185.502 359.679-198.13 345.852-209.807 330.766-220.284 314.672-229.487 297.653-233.598 288.798-237.323 279.833-240.668 270.682-243.636 261.461-246.163 252.051-248.311 242.573-249.955 233.024-251.156 223.419-251.914 213.745-252.168 204.048-251.787 194.328-250.706 184.603-248.927 174.943-246.451 165.357-243.345 155.85-239.669 146.469-235.301 137.163-230.428 127.988-224.924 119.004-218.928 110.231-212.488 101.58-205.479 93.1825-198.041 84.988-190.217 77.038-181.894 69.4085-173.246 62.0231-154.803 48.1748-135.105 35.7143-124.819 30.035-114.303 24.7456-103.529 19.8309-92.5675 15.4212-81.4179 11.3897-70.0704 7.85939-58.5996 4.83413-47.0593 2.31166-35.3919 0.356579-23.6005-1.09369-11.8037-1.97688-0.0612526-2.29085ZM104.133 588.848 92.3314 617.239 76.6999 590.763Z" fill="#00AA00" transform="matrix(-1 0 0 1 1435.83 1161.5)"/></g></svg>