<?xml version="1.0" encoding="UTF-8"?><svg xmlns="http://www.w3.org/2000/svg" xmlns:xlink="http://www.w3.org/1999/xlink" fill-opacity="1" color-rendering="auto" color-interpolation="auto" text-rendering="auto" stroke="black" stroke-linecap="square" width="1031" stroke-miterlimit="10" shape-rendering="auto" stroke-opacity="1" fill="black" stroke-dasharray="none" font-weight="normal" stroke-width="1" height="125" font-family="'Dialog'" font-style="normal" stroke-linejoin="miter" font-size="12px" stroke-dashoffset="0" image-rendering="auto">
  <!--Generated by ySVG 2.6-->
  <defs id="genericDefs"/>
  <g>
    <defs id="defs1">
      <clipPath clipPathUnits="userSpaceOnUse" id="clipPath1">
        <path d="M0 0 L1031 0 L1031 125 L0 125 L0 0 Z"/>
      </clipPath>
      <clipPath clipPathUnits="userSpaceOnUse" id="clipPath2">
        <path d="M59 366 L1090 366 L1090 491 L59 491 L59 366 Z"/>
      </clipPath>
    </defs>
    <g fill="rgb(255,204,0)" text-rendering="geometricPrecision" shape-rendering="geometricPrecision" transform="matrix(1,0,0,1,-59,-366)" stroke="rgb(255,204,0)">
      <rect x="659.3223" width="197.1875" height="69.0625" y="393.791" clip-path="url(#clipPath2)" stroke="none"/>
    </g>
    <g text-rendering="geometricPrecision" stroke-miterlimit="1.45" shape-rendering="geometricPrecision" transform="matrix(1,0,0,1,-59,-366)" stroke-linecap="butt">
      <rect fill="none" x="659.3223" width="197.1875" height="69.0625" y="393.791" clip-path="url(#clipPath2)"/>
      <text x="693.1055" font-size="24px" y="434.709" clip-path="url(#clipPath2)" font-family="'Courier New'" stroke="none" xml:space="preserve">cabeza(L)</text>
      <rect fill="none" x="936.2549" width="138.1875" height="94.4844" y="381.291" clip-path="url(#clipPath2)"/>
    </g>
    <g transform="matrix(1,0,0,1,-59,-366)" fill-opacity="0.498" fill="rgb(255,102,0)" text-rendering="geometricPrecision" shape-rendering="geometricPrecision" stroke="rgb(255,102,0)" stroke-opacity="0.498">
      <rect x="147.375" width="50" height="50" y="393.3223" clip-path="url(#clipPath2)" stroke="none"/>
    </g>
    <g text-rendering="geometricPrecision" stroke-miterlimit="1.45" shape-rendering="geometricPrecision" transform="matrix(1,0,0,1,-59,-366)" stroke-linecap="butt">
      <rect fill="none" x="147.375" width="50" height="50" y="393.3223" clip-path="url(#clipPath2)"/>
      <text x="166.8135" font-size="20px" y="426.1787" clip-path="url(#clipPath2)" font-family="sans-serif" stroke="none" xml:space="preserve">7</text>
    </g>
    <g transform="matrix(1,0,0,1,-59,-366)" fill-opacity="0.498" fill="rgb(255,102,0)" text-rendering="geometricPrecision" shape-rendering="geometricPrecision" stroke="rgb(255,102,0)" stroke-opacity="0.498">
      <rect x="197.375" width="25" height="50" y="393.3223" clip-path="url(#clipPath2)" stroke="none"/>
    </g>
    <g text-rendering="geometricPrecision" stroke-miterlimit="1.45" shape-rendering="geometricPrecision" transform="matrix(1,0,0,1,-59,-366)" stroke-linecap="butt">
      <rect fill="none" x="197.375" width="25" height="50" y="393.3223" clip-path="url(#clipPath2)"/>
    </g>
    <g transform="matrix(1,0,0,1,-59,-366)" fill-opacity="0.498" fill="rgb(0,128,0)" text-rendering="geometricPrecision" shape-rendering="geometricPrecision" stroke="rgb(0,128,0)" stroke-opacity="0.498">
      <rect x="244.875" width="50" height="50" y="393.3223" clip-path="url(#clipPath2)" stroke="none"/>
    </g>
    <g text-rendering="geometricPrecision" stroke-miterlimit="1.45" shape-rendering="geometricPrecision" transform="matrix(1,0,0,1,-59,-366)" stroke-linecap="butt">
      <rect fill="none" x="244.875" width="50" height="50" y="393.3223" clip-path="url(#clipPath2)"/>
      <text x="264.3135" font-size="20px" y="426.1787" clip-path="url(#clipPath2)" font-family="sans-serif" stroke="none" xml:space="preserve">4</text>
    </g>
    <g transform="matrix(1,0,0,1,-59,-366)" fill-opacity="0.498" fill="rgb(0,128,0)" text-rendering="geometricPrecision" shape-rendering="geometricPrecision" stroke="rgb(0,128,0)" stroke-opacity="0.498">
      <rect x="294.875" width="25" height="50" y="393.3223" clip-path="url(#clipPath2)" stroke="none"/>
    </g>
    <g text-rendering="geometricPrecision" stroke-miterlimit="1.45" shape-rendering="geometricPrecision" transform="matrix(1,0,0,1,-59,-366)" stroke-linecap="butt">
      <rect fill="none" x="294.875" width="25" height="50" y="393.3223" clip-path="url(#clipPath2)"/>
    </g>
    <g transform="matrix(1,0,0,1,-59,-366)" fill-opacity="0.498" fill="rgb(0,0,255)" text-rendering="geometricPrecision" shape-rendering="geometricPrecision" stroke="rgb(0,0,255)" stroke-opacity="0.498">
      <rect x="342.375" width="50" height="50" y="393.3223" clip-path="url(#clipPath2)" stroke="none"/>
    </g>
    <g text-rendering="geometricPrecision" stroke-miterlimit="1.45" shape-rendering="geometricPrecision" transform="matrix(1,0,0,1,-59,-366)" stroke-linecap="butt">
      <rect fill="none" x="342.375" width="50" height="50" y="393.3223" clip-path="url(#clipPath2)"/>
      <text x="356.252" font-size="20px" y="426.1787" clip-path="url(#clipPath2)" font-family="sans-serif" stroke="none" xml:space="preserve">25</text>
    </g>
    <g transform="matrix(1,0,0,1,-59,-366)" fill-opacity="0.498" fill="rgb(0,0,255)" text-rendering="geometricPrecision" shape-rendering="geometricPrecision" stroke="rgb(0,0,255)" stroke-opacity="0.498">
      <rect x="392.375" width="25" height="50" y="393.3223" clip-path="url(#clipPath2)" stroke="none"/>
    </g>
    <g text-rendering="geometricPrecision" stroke-miterlimit="1.45" shape-rendering="geometricPrecision" transform="matrix(1,0,0,1,-59,-366)" stroke-linecap="butt">
      <rect fill="none" x="392.375" width="25" height="50" y="393.3223" clip-path="url(#clipPath2)"/>
    </g>
    <g transform="matrix(1,0,0,1,-59,-366)" fill-opacity="0.498" fill="rgb(181,35,196)" text-rendering="geometricPrecision" shape-rendering="geometricPrecision" stroke="rgb(181,35,196)" stroke-opacity="0.498">
      <rect x="439.875" width="50" height="50" y="393.3223" clip-path="url(#clipPath2)" stroke="none"/>
    </g>
    <g text-rendering="geometricPrecision" stroke-miterlimit="1.45" shape-rendering="geometricPrecision" transform="matrix(1,0,0,1,-59,-366)" stroke-linecap="butt">
      <rect fill="none" x="439.875" width="50" height="50" y="393.3223" clip-path="url(#clipPath2)"/>
      <text x="459.3135" font-size="20px" y="426.1787" clip-path="url(#clipPath2)" font-family="sans-serif" stroke="none" xml:space="preserve">2</text>
    </g>
    <g transform="matrix(1,0,0,1,-59,-366)" fill-opacity="0.498" fill="rgb(181,35,196)" text-rendering="geometricPrecision" shape-rendering="geometricPrecision" stroke="rgb(181,35,196)" stroke-opacity="0.498">
      <rect x="489.875" width="25" height="50" y="393.3223" clip-path="url(#clipPath2)" stroke="none"/>
    </g>
    <g text-rendering="geometricPrecision" stroke-miterlimit="1.45" shape-rendering="geometricPrecision" transform="matrix(1,0,0,1,-59,-366)" stroke-linecap="butt">
      <rect fill="none" x="489.875" width="25" height="50" y="393.3223" clip-path="url(#clipPath2)"/>
      <circle fill="none" r="10" clip-path="url(#clipPath2)" cx="527.375" cy="453.3223"/>
      <text x="523.2075" font-size="10px" y="457.2505" clip-path="url(#clipPath2)" font-family="sans-serif" stroke="none" xml:space="preserve">///</text>
    </g>
    <g transform="matrix(1,0,0,1,-59,-366)" fill-opacity="0.498" fill="rgb(255,0,0)" text-rendering="geometricPrecision" shape-rendering="geometricPrecision" stroke="rgb(255,0,0)" stroke-opacity="0.498">
      <rect x="87.375" width="30" height="30" y="403.3223" clip-path="url(#clipPath2)" stroke="none"/>
    </g>
    <g text-rendering="geometricPrecision" stroke-miterlimit="1.45" shape-rendering="geometricPrecision" transform="matrix(1,0,0,1,-59,-366)" stroke-linecap="butt">
      <rect fill="none" x="87.375" width="30" height="30" y="403.3223" clip-path="url(#clipPath2)"/>
      <text x="96.8135" font-size="20px" y="426.1787" clip-path="url(#clipPath2)" font-family="sans-serif" stroke="none" xml:space="preserve">L</text>
      <rect fill="none" x="74.875" width="492.5" height="94.0625" y="381.291" clip-path="url(#clipPath2)"/>
    </g>
    <g transform="matrix(1,0,0,1,-59,-366)" fill-opacity="0.498" fill="rgb(255,102,0)" text-rendering="geometricPrecision" shape-rendering="geometricPrecision" stroke="rgb(255,102,0)" stroke-opacity="0.498">
      <rect x="980.3486" width="50" height="50" y="403.5332" clip-path="url(#clipPath2)" stroke="none"/>
    </g>
    <g text-rendering="geometricPrecision" stroke-miterlimit="1.45" shape-rendering="geometricPrecision" transform="matrix(1,0,0,1,-59,-366)" stroke-linecap="butt">
      <rect fill="none" x="980.3486" width="50" height="50" y="403.5332" clip-path="url(#clipPath2)"/>
      <text x="999.7871" font-size="20px" y="436.3896" clip-path="url(#clipPath2)" font-family="sans-serif" stroke="none" xml:space="preserve">7</text>
      <path fill="none" d="M567.375 428.3223 L645.5723 428.3223" stroke-width="3" clip-path="url(#clipPath2)"/>
      <path d="M659.3223 428.3223 L644.3223 420.8223 L644.3223 435.8223 Z" stroke-width="3" clip-path="url(#clipPath2)" stroke="none"/>
      <path fill="none" d="M856.5098 428.4063 L922.5049 428.4626" stroke-width="3" clip-path="url(#clipPath2)"/>
      <path d="M936.2549 428.4743 L921.2613 420.9615 L921.2485 435.9615 Z" stroke-width="3" clip-path="url(#clipPath2)" stroke="none"/>
      <path fill="none" d="M214.875 418.3223 L229.75 418.3223" stroke-width="4" clip-path="url(#clipPath2)"/>
      <path d="M244.875 418.3223 L228.375 410.0723 L228.375 426.5723 Z" stroke-width="4" clip-path="url(#clipPath2)" stroke="none"/>
      <path fill="none" d="M312.375 418.3223 L327.25 418.3223" stroke-width="4" clip-path="url(#clipPath2)"/>
      <path d="M342.375 418.3223 L325.875 410.0723 L325.875 426.5723 Z" stroke-width="4" clip-path="url(#clipPath2)" stroke="none"/>
      <path fill="none" d="M409.875 418.3223 L424.75 418.3223" stroke-width="4" clip-path="url(#clipPath2)"/>
      <path d="M439.875 418.3223 L423.375 410.0723 L423.375 426.5723 Z" stroke-width="4" clip-path="url(#clipPath2)" stroke="none"/>
      <path fill="none" d="M507.375 418.3223 L527.375 418.3223 L527.375 428.1973" stroke-width="4" clip-path="url(#clipPath2)"/>
      <path d="M527.375 443.3223 L535.625 426.8223 L519.125 426.8223 Z" stroke-width="4" clip-path="url(#clipPath2)" stroke="none"/>
      <path fill="none" d="M117.375 418.3223 L132.25 418.3223" stroke-width="4" clip-path="url(#clipPath2)"/>
      <path d="M147.375 418.3223 L130.875 410.0723 L130.875 426.5723 Z" stroke-width="4" clip-path="url(#clipPath2)" stroke="none"/>
    </g>
  </g>
</svg>
