<?xml version="1.0" encoding="UTF-8"?><svg xmlns="http://www.w3.org/2000/svg" xmlns:xlink="http://www.w3.org/1999/xlink" fill-opacity="1" color-rendering="auto" color-interpolation="auto" text-rendering="auto" stroke="black" stroke-linecap="square" width="699" stroke-miterlimit="10" shape-rendering="auto" stroke-opacity="1" fill="black" stroke-dasharray="none" font-weight="normal" stroke-width="1" height="130" font-family="'Dialog'" font-style="normal" stroke-linejoin="miter" font-size="12px" stroke-dashoffset="0" image-rendering="auto">
  <!--Generated by ySVG 2.6-->
  <defs id="genericDefs"/>
  <g>
    <defs id="defs1">
      <clipPath clipPathUnits="userSpaceOnUse" id="clipPath1">
        <path d="M0 0 L699 0 L699 130 L0 130 L0 0 Z"/>
      </clipPath>
      <clipPath clipPathUnits="userSpaceOnUse" id="clipPath2">
        <path d="M417 391 L1116 391 L1116 521 L417 521 L417 391 Z"/>
      </clipPath>
    </defs>
    <g fill="rgb(255,204,0)" text-rendering="geometricPrecision" shape-rendering="geometricPrecision" transform="matrix(1,0,0,1,-417,-391)" stroke="rgb(255,204,0)">
      <rect x="685.1973" width="197.1875" height="69.0625" y="419.082" clip-path="url(#clipPath2)" stroke="none"/>
    </g>
    <g text-rendering="geometricPrecision" stroke-miterlimit="1.45" shape-rendering="geometricPrecision" transform="matrix(1,0,0,1,-417,-391)" stroke-linecap="butt">
      <rect fill="none" x="685.1973" width="197.1875" height="69.0625" y="419.082" clip-path="url(#clipPath2)"/>
      <text x="718.9805" font-size="24px" y="460" clip-path="url(#clipPath2)" font-family="'Courier New'" stroke="none" xml:space="preserve">cabeza(L)</text>
      <rect fill="none" x="962.1299" width="138.1875" height="94.4844" y="406.582" clip-path="url(#clipPath2)"/>
      <rect fill="none" x="432.8584" width="179.5" height="94.0625" y="411.582" clip-path="url(#clipPath2)"/>
      <circle fill="none" r="10" clip-path="url(#clipPath2)" cx="588.3584" cy="483.6133"/>
      <text x="584.1909" font-size="10px" y="487.5415" clip-path="url(#clipPath2)" font-family="sans-serif" stroke="none" xml:space="preserve">///</text>
    </g>
    <g transform="matrix(1,0,0,1,-417,-391)" fill-opacity="0.498" fill="rgb(255,0,0)" text-rendering="geometricPrecision" shape-rendering="geometricPrecision" stroke="rgb(255,0,0)" stroke-opacity="0.498">
      <rect x="440.8584" width="130" height="40" y="433.6133" clip-path="url(#clipPath2)" stroke="none"/>
    </g>
    <g text-rendering="geometricPrecision" stroke-miterlimit="1.45" shape-rendering="geometricPrecision" transform="matrix(1,0,0,1,-417,-391)" stroke-linecap="butt">
      <rect fill="none" x="440.8584" width="130" height="40" y="433.6133" clip-path="url(#clipPath2)"/>
      <text x="445.8486" font-size="20px" y="458.9355" clip-path="url(#clipPath2)" font-family="'Courier New'" stroke="none" xml:space="preserve">listaVacia</text>
      <circle fill="none" r="10" clip-path="url(#clipPath2)" cx="1032.7168" cy="452.2266"/>
      <text x="1028.5493" font-size="10px" y="456.1548" clip-path="url(#clipPath2)" font-family="sans-serif" stroke="none" xml:space="preserve">///</text>
      <path fill="none" d="M882.3848 453.6973 L948.3799 453.7536" stroke-width="3" clip-path="url(#clipPath2)"/>
      <path d="M962.1299 453.7653 L947.1363 446.2525 L947.1235 461.2525 Z" stroke-width="3" clip-path="url(#clipPath2)" stroke="none"/>
      <path fill="none" d="M612.3584 456.8951 L671.4498 455.7639" stroke-width="3" clip-path="url(#clipPath2)"/>
      <path d="M685.1973 455.5007 L670.0565 448.2892 L670.3436 463.2865 Z" stroke-width="3" clip-path="url(#clipPath2)" stroke="none"/>
      <path fill="none" d="M570.8584 453.6133 L588.3584 453.6133 L588.3584 459.8633" stroke-width="3" clip-path="url(#clipPath2)"/>
      <path d="M588.3584 473.6133 L595.8584 458.6133 L580.8584 458.6133 Z" stroke-width="3" clip-path="url(#clipPath2)" stroke="none"/>
    </g>
  </g>
</svg>
