<?xml version="1.0" encoding="UTF-8"?><svg xmlns="http://www.w3.org/2000/svg" xmlns:xlink="http://www.w3.org/1999/xlink" fill-opacity="1" color-rendering="auto" color-interpolation="auto" text-rendering="auto" stroke="black" stroke-linecap="square" width="699" stroke-miterlimit="10" shape-rendering="auto" stroke-opacity="1" fill="black" stroke-dasharray="none" font-weight="normal" stroke-width="1" height="130" font-family="'Dialog'" font-style="normal" stroke-linejoin="miter" font-size="12px" stroke-dashoffset="0" image-rendering="auto">
  <!--Generated by ySVG 2.6-->
  <defs id="genericDefs"/>
  <g>
    <defs id="defs1">
      <clipPath clipPathUnits="userSpaceOnUse" id="clipPath1">
        <path d="M0 0 L699 0 L699 130 L0 130 L0 0 Z"/>
      </clipPath>
      <clipPath clipPathUnits="userSpaceOnUse" id="clipPath2">
        <path d="M443 417 L1142 417 L1142 547 L443 547 L443 417 Z"/>
      </clipPath>
    </defs>
    <g fill="rgb(255,204,0)" text-rendering="geometricPrecision" shape-rendering="geometricPrecision" transform="matrix(1,0,0,1,-443,-417)" stroke="rgb(255,204,0)">
      <rect x="711.0557" width="197.1875" height="69.0625" y="444.6641" clip-path="url(#clipPath2)" stroke="none"/>
    </g>
    <g text-rendering="geometricPrecision" stroke-miterlimit="1.45" shape-rendering="geometricPrecision" transform="matrix(1,0,0,1,-443,-417)" stroke-linecap="butt">
      <rect fill="none" x="711.0557" width="197.1875" height="69.0625" y="444.6641" clip-path="url(#clipPath2)"/>
      <text x="759.2412" font-size="24px" y="485.582" clip-path="url(#clipPath2)" font-family="'Courier New'" stroke="none" xml:space="preserve">cola(L)</text>
      <rect fill="none" x="987.9883" width="138.1875" height="94.4844" y="432.1641" clip-path="url(#clipPath2)"/>
      <rect fill="none" x="458.7168" width="179.5" height="94.0625" y="437.1641" clip-path="url(#clipPath2)"/>
      <circle fill="none" r="10" clip-path="url(#clipPath2)" cx="614.2168" cy="509.1953"/>
      <text x="610.0493" font-size="10px" y="513.1235" clip-path="url(#clipPath2)" font-family="sans-serif" stroke="none" xml:space="preserve">///</text>
    </g>
    <g transform="matrix(1,0,0,1,-443,-417)" fill-opacity="0.498" fill="rgb(255,0,0)" text-rendering="geometricPrecision" shape-rendering="geometricPrecision" stroke="rgb(255,0,0)" stroke-opacity="0.498">
      <rect x="466.7168" width="130" height="40" y="459.1953" clip-path="url(#clipPath2)" stroke="none"/>
    </g>
    <g text-rendering="geometricPrecision" stroke-miterlimit="1.45" shape-rendering="geometricPrecision" transform="matrix(1,0,0,1,-443,-417)" stroke-linecap="butt">
      <rect fill="none" x="466.7168" width="130" height="40" y="459.1953" clip-path="url(#clipPath2)"/>
      <text x="471.707" font-size="20px" y="484.5176" clip-path="url(#clipPath2)" font-family="'Courier New'" stroke="none" xml:space="preserve">listaVacia</text>
      <circle fill="none" r="10" clip-path="url(#clipPath2)" cx="1058.4336" cy="477.4531"/>
      <text x="1054.2661" font-size="10px" y="481.3813" clip-path="url(#clipPath2)" font-family="sans-serif" stroke="none" xml:space="preserve">///</text>
      <path fill="none" d="M908.2432 479.2794 L974.2383 479.3356" stroke-width="3" clip-path="url(#clipPath2)"/>
      <path d="M987.9883 479.3474 L972.9947 471.8346 L972.9819 486.8346 Z" stroke-width="3" clip-path="url(#clipPath2)" stroke="none"/>
      <path fill="none" d="M638.2168 482.4772 L697.3082 481.3459" stroke-width="3" clip-path="url(#clipPath2)"/>
      <path d="M711.0557 481.0828 L695.9149 473.8712 L696.202 488.8685 Z" stroke-width="3" clip-path="url(#clipPath2)" stroke="none"/>
      <path fill="none" d="M596.7168 479.1953 L614.2168 479.1953 L614.2168 485.4453" stroke-width="3" clip-path="url(#clipPath2)"/>
      <path d="M614.2168 499.1953 L621.7168 484.1953 L606.7168 484.1953 Z" stroke-width="3" clip-path="url(#clipPath2)" stroke="none"/>
    </g>
  </g>
</svg>
