<?xml version="1.0" encoding="UTF-8"?><svg xmlns="http://www.w3.org/2000/svg" xmlns:xlink="http://www.w3.org/1999/xlink" fill-opacity="1" color-rendering="auto" color-interpolation="auto" text-rendering="auto" stroke="black" stroke-linecap="square" width="900" stroke-miterlimit="10" shape-rendering="auto" stroke-opacity="1" fill="black" stroke-dasharray="none" font-weight="normal" stroke-width="1" height="234" font-family="'Dialog'" font-style="normal" stroke-linejoin="miter" font-size="12px" stroke-dashoffset="0" image-rendering="auto">
  <!--Generated by ySVG 2.6-->
  <defs id="genericDefs"/>
  <g>
    <defs id="defs1">
      <clipPath clipPathUnits="userSpaceOnUse" id="clipPath1">
        <path d="M0 0 L900 0 L900 234 L0 234 L0 0 Z"/>
      </clipPath>
      <clipPath clipPathUnits="userSpaceOnUse" id="clipPath2">
        <path d="M85 391 L985 391 L985 625 L85 625 L85 391 Z"/>
      </clipPath>
    </defs>
    <g fill="rgb(255,204,0)" text-rendering="geometricPrecision" shape-rendering="geometricPrecision" transform="matrix(1,0,0,1,-85,-391)" stroke="rgb(255,204,0)">
      <rect x="248.4062" width="197.1875" height="69.0625" y="530.6445" clip-path="url(#clipPath2)" stroke="none"/>
    </g>
    <g text-rendering="geometricPrecision" stroke-miterlimit="1.45" shape-rendering="geometricPrecision" transform="matrix(1,0,0,1,-85,-391)" stroke-linecap="butt">
      <rect fill="none" x="248.4062" width="197.1875" height="69.0625" y="530.6445" clip-path="url(#clipPath2)"/>
      <text x="296.5918" font-size="24px" y="571.5625" clip-path="url(#clipPath2)" font-family="'Courier New'" stroke="none" xml:space="preserve">cola(L)</text>
      <rect fill="none" x="593.25" width="376.1875" height="94.4844" y="515.0625" clip-path="url(#clipPath2)"/>
    </g>
    <g transform="matrix(1,0,0,1,-85,-391)" fill-opacity="0.498" fill="rgb(255,102,0)" text-rendering="geometricPrecision" shape-rendering="geometricPrecision" stroke="rgb(255,102,0)" stroke-opacity="0.498">
      <rect x="173.25" width="50" height="50" y="418.6133" clip-path="url(#clipPath2)" stroke="none"/>
    </g>
    <g text-rendering="geometricPrecision" stroke-miterlimit="1.45" shape-rendering="geometricPrecision" transform="matrix(1,0,0,1,-85,-391)" stroke-linecap="butt">
      <rect fill="none" x="173.25" width="50" height="50" y="418.6133" clip-path="url(#clipPath2)"/>
      <text x="192.6885" font-size="20px" y="451.4697" clip-path="url(#clipPath2)" font-family="sans-serif" stroke="none" xml:space="preserve">7</text>
    </g>
    <g transform="matrix(1,0,0,1,-85,-391)" fill-opacity="0.498" fill="rgb(255,102,0)" text-rendering="geometricPrecision" shape-rendering="geometricPrecision" stroke="rgb(255,102,0)" stroke-opacity="0.498">
      <rect x="223.25" width="25" height="50" y="418.6133" clip-path="url(#clipPath2)" stroke="none"/>
    </g>
    <g text-rendering="geometricPrecision" stroke-miterlimit="1.45" shape-rendering="geometricPrecision" transform="matrix(1,0,0,1,-85,-391)" stroke-linecap="butt">
      <rect fill="none" x="223.25" width="25" height="50" y="418.6133" clip-path="url(#clipPath2)"/>
    </g>
    <g transform="matrix(1,0,0,1,-85,-391)" fill-opacity="0.498" fill="rgb(0,128,0)" text-rendering="geometricPrecision" shape-rendering="geometricPrecision" stroke="rgb(0,128,0)" stroke-opacity="0.498">
      <rect x="270.75" width="50" height="50" y="418.6133" clip-path="url(#clipPath2)" stroke="none"/>
    </g>
    <g text-rendering="geometricPrecision" stroke-miterlimit="1.45" shape-rendering="geometricPrecision" transform="matrix(1,0,0,1,-85,-391)" stroke-linecap="butt">
      <rect fill="none" x="270.75" width="50" height="50" y="418.6133" clip-path="url(#clipPath2)"/>
      <text x="290.1885" font-size="20px" y="451.4697" clip-path="url(#clipPath2)" font-family="sans-serif" stroke="none" xml:space="preserve">4</text>
    </g>
    <g transform="matrix(1,0,0,1,-85,-391)" fill-opacity="0.498" fill="rgb(0,128,0)" text-rendering="geometricPrecision" shape-rendering="geometricPrecision" stroke="rgb(0,128,0)" stroke-opacity="0.498">
      <rect x="320.75" width="25" height="50" y="418.6133" clip-path="url(#clipPath2)" stroke="none"/>
    </g>
    <g text-rendering="geometricPrecision" stroke-miterlimit="1.45" shape-rendering="geometricPrecision" transform="matrix(1,0,0,1,-85,-391)" stroke-linecap="butt">
      <rect fill="none" x="320.75" width="25" height="50" y="418.6133" clip-path="url(#clipPath2)"/>
    </g>
    <g transform="matrix(1,0,0,1,-85,-391)" fill-opacity="0.498" fill="rgb(0,0,255)" text-rendering="geometricPrecision" shape-rendering="geometricPrecision" stroke="rgb(0,0,255)" stroke-opacity="0.498">
      <rect x="368.25" width="50" height="50" y="418.6133" clip-path="url(#clipPath2)" stroke="none"/>
    </g>
    <g text-rendering="geometricPrecision" stroke-miterlimit="1.45" shape-rendering="geometricPrecision" transform="matrix(1,0,0,1,-85,-391)" stroke-linecap="butt">
      <rect fill="none" x="368.25" width="50" height="50" y="418.6133" clip-path="url(#clipPath2)"/>
      <text x="382.127" font-size="20px" y="451.4697" clip-path="url(#clipPath2)" font-family="sans-serif" stroke="none" xml:space="preserve">25</text>
    </g>
    <g transform="matrix(1,0,0,1,-85,-391)" fill-opacity="0.498" fill="rgb(0,0,255)" text-rendering="geometricPrecision" shape-rendering="geometricPrecision" stroke="rgb(0,0,255)" stroke-opacity="0.498">
      <rect x="418.25" width="25" height="50" y="418.6133" clip-path="url(#clipPath2)" stroke="none"/>
    </g>
    <g text-rendering="geometricPrecision" stroke-miterlimit="1.45" shape-rendering="geometricPrecision" transform="matrix(1,0,0,1,-85,-391)" stroke-linecap="butt">
      <rect fill="none" x="418.25" width="25" height="50" y="418.6133" clip-path="url(#clipPath2)"/>
    </g>
    <g transform="matrix(1,0,0,1,-85,-391)" fill-opacity="0.498" fill="rgb(181,35,196)" text-rendering="geometricPrecision" shape-rendering="geometricPrecision" stroke="rgb(181,35,196)" stroke-opacity="0.498">
      <rect x="465.75" width="50" height="50" y="418.6133" clip-path="url(#clipPath2)" stroke="none"/>
    </g>
    <g text-rendering="geometricPrecision" stroke-miterlimit="1.45" shape-rendering="geometricPrecision" transform="matrix(1,0,0,1,-85,-391)" stroke-linecap="butt">
      <rect fill="none" x="465.75" width="50" height="50" y="418.6133" clip-path="url(#clipPath2)"/>
      <text x="485.1885" font-size="20px" y="451.4697" clip-path="url(#clipPath2)" font-family="sans-serif" stroke="none" xml:space="preserve">2</text>
    </g>
    <g transform="matrix(1,0,0,1,-85,-391)" fill-opacity="0.498" fill="rgb(181,35,196)" text-rendering="geometricPrecision" shape-rendering="geometricPrecision" stroke="rgb(181,35,196)" stroke-opacity="0.498">
      <rect x="515.75" width="25" height="50" y="418.6133" clip-path="url(#clipPath2)" stroke="none"/>
    </g>
    <g text-rendering="geometricPrecision" stroke-miterlimit="1.45" shape-rendering="geometricPrecision" transform="matrix(1,0,0,1,-85,-391)" stroke-linecap="butt">
      <rect fill="none" x="515.75" width="25" height="50" y="418.6133" clip-path="url(#clipPath2)"/>
      <circle fill="none" r="10" clip-path="url(#clipPath2)" cx="553.25" cy="478.6133"/>
      <text x="549.0825" font-size="10px" y="482.5415" clip-path="url(#clipPath2)" font-family="sans-serif" stroke="none" xml:space="preserve">///</text>
    </g>
    <g transform="matrix(1,0,0,1,-85,-391)" fill-opacity="0.498" fill="rgb(255,0,0)" text-rendering="geometricPrecision" shape-rendering="geometricPrecision" stroke="rgb(255,0,0)" stroke-opacity="0.498">
      <rect x="113.25" width="30" height="30" y="428.6133" clip-path="url(#clipPath2)" stroke="none"/>
    </g>
    <g text-rendering="geometricPrecision" stroke-miterlimit="1.45" shape-rendering="geometricPrecision" transform="matrix(1,0,0,1,-85,-391)" stroke-linecap="butt">
      <rect fill="none" x="113.25" width="30" height="30" y="428.6133" clip-path="url(#clipPath2)"/>
      <text x="122.6885" font-size="20px" y="451.4697" clip-path="url(#clipPath2)" font-family="sans-serif" stroke="none" xml:space="preserve">L</text>
      <rect fill="none" x="100.75" width="492.5" height="94.0625" y="406.582" clip-path="url(#clipPath2)"/>
    </g>
    <g transform="matrix(1,0,0,1,-85,-391)" fill-opacity="0.498" fill="rgb(0,128,0)" text-rendering="geometricPrecision" shape-rendering="geometricPrecision" stroke="rgb(0,128,0)" stroke-opacity="0.498">
      <rect x="665.4521" width="50" height="50" y="529.707" clip-path="url(#clipPath2)" stroke="none"/>
    </g>
    <g text-rendering="geometricPrecision" stroke-miterlimit="1.45" shape-rendering="geometricPrecision" transform="matrix(1,0,0,1,-85,-391)" stroke-linecap="butt">
      <rect fill="none" x="665.4521" width="50" height="50" y="529.707" clip-path="url(#clipPath2)"/>
      <text x="684.8906" font-size="20px" y="562.5635" clip-path="url(#clipPath2)" font-family="sans-serif" stroke="none" xml:space="preserve">4</text>
    </g>
    <g transform="matrix(1,0,0,1,-85,-391)" fill-opacity="0.498" fill="rgb(0,128,0)" text-rendering="geometricPrecision" shape-rendering="geometricPrecision" stroke="rgb(0,128,0)" stroke-opacity="0.498">
      <rect x="715.4521" width="25" height="50" y="529.707" clip-path="url(#clipPath2)" stroke="none"/>
    </g>
    <g text-rendering="geometricPrecision" stroke-miterlimit="1.45" shape-rendering="geometricPrecision" transform="matrix(1,0,0,1,-85,-391)" stroke-linecap="butt">
      <rect fill="none" x="715.4521" width="25" height="50" y="529.707" clip-path="url(#clipPath2)"/>
    </g>
    <g transform="matrix(1,0,0,1,-85,-391)" fill-opacity="0.498" fill="rgb(0,0,255)" text-rendering="geometricPrecision" shape-rendering="geometricPrecision" stroke="rgb(0,0,255)" stroke-opacity="0.498">
      <rect x="762.9521" width="50" height="50" y="529.707" clip-path="url(#clipPath2)" stroke="none"/>
    </g>
    <g text-rendering="geometricPrecision" stroke-miterlimit="1.45" shape-rendering="geometricPrecision" transform="matrix(1,0,0,1,-85,-391)" stroke-linecap="butt">
      <rect fill="none" x="762.9521" width="50" height="50" y="529.707" clip-path="url(#clipPath2)"/>
      <text x="776.8291" font-size="20px" y="562.5635" clip-path="url(#clipPath2)" font-family="sans-serif" stroke="none" xml:space="preserve">25</text>
    </g>
    <g transform="matrix(1,0,0,1,-85,-391)" fill-opacity="0.498" fill="rgb(0,0,255)" text-rendering="geometricPrecision" shape-rendering="geometricPrecision" stroke="rgb(0,0,255)" stroke-opacity="0.498">
      <rect x="812.9521" width="25" height="50" y="529.707" clip-path="url(#clipPath2)" stroke="none"/>
    </g>
    <g text-rendering="geometricPrecision" stroke-miterlimit="1.45" shape-rendering="geometricPrecision" transform="matrix(1,0,0,1,-85,-391)" stroke-linecap="butt">
      <rect fill="none" x="812.9521" width="25" height="50" y="529.707" clip-path="url(#clipPath2)"/>
    </g>
    <g transform="matrix(1,0,0,1,-85,-391)" fill-opacity="0.498" fill="rgb(181,35,196)" text-rendering="geometricPrecision" shape-rendering="geometricPrecision" stroke="rgb(181,35,196)" stroke-opacity="0.498">
      <rect x="860.4521" width="50" height="50" y="529.707" clip-path="url(#clipPath2)" stroke="none"/>
    </g>
    <g text-rendering="geometricPrecision" stroke-miterlimit="1.45" shape-rendering="geometricPrecision" transform="matrix(1,0,0,1,-85,-391)" stroke-linecap="butt">
      <rect fill="none" x="860.4521" width="50" height="50" y="529.707" clip-path="url(#clipPath2)"/>
      <text x="879.8906" font-size="20px" y="562.5635" clip-path="url(#clipPath2)" font-family="sans-serif" stroke="none" xml:space="preserve">2</text>
    </g>
    <g transform="matrix(1,0,0,1,-85,-391)" fill-opacity="0.498" fill="rgb(181,35,196)" text-rendering="geometricPrecision" shape-rendering="geometricPrecision" stroke="rgb(181,35,196)" stroke-opacity="0.498">
      <rect x="910.4521" width="25" height="50" y="529.707" clip-path="url(#clipPath2)" stroke="none"/>
    </g>
    <g text-rendering="geometricPrecision" stroke-miterlimit="1.45" shape-rendering="geometricPrecision" transform="matrix(1,0,0,1,-85,-391)" stroke-linecap="butt">
      <rect fill="none" x="910.4521" width="25" height="50" y="529.707" clip-path="url(#clipPath2)"/>
      <circle fill="none" r="10" clip-path="url(#clipPath2)" cx="947.9521" cy="589.707"/>
      <text x="943.7847" font-size="10px" y="593.6353" clip-path="url(#clipPath2)" font-family="sans-serif" stroke="none" xml:space="preserve">///</text>
    </g>
    <g transform="matrix(1,0,0,1,-85,-391)" fill-opacity="0.498" fill="rgb(255,0,0)" text-rendering="geometricPrecision" shape-rendering="geometricPrecision" stroke="rgb(255,0,0)" stroke-opacity="0.498">
      <rect x="605.4521" width="30" height="30" y="539.707" clip-path="url(#clipPath2)" stroke="none"/>
    </g>
    <g text-rendering="geometricPrecision" stroke-miterlimit="1.45" shape-rendering="geometricPrecision" transform="matrix(1,0,0,1,-85,-391)" stroke-linecap="butt">
      <rect fill="none" x="605.4521" width="30" height="30" y="539.707" clip-path="url(#clipPath2)"/>
      <text x="612.9814" font-size="20px" y="562.5635" clip-path="url(#clipPath2)" font-family="sans-serif" stroke="none" xml:space="preserve">L'</text>
      <path fill="none" d="M445.5938 564.524 L579.5003 563.6389" stroke-width="3" clip-path="url(#clipPath2)"/>
      <path d="M593.25 563.548 L578.2007 556.1473 L578.2999 571.147 Z" stroke-width="3" clip-path="url(#clipPath2)" stroke="none"/>
      <path fill="none" d="M240.75 443.6133 L255.625 443.6133" stroke-width="4" clip-path="url(#clipPath2)"/>
      <path d="M270.75 443.6133 L254.25 435.3633 L254.25 451.8633 Z" stroke-width="4" clip-path="url(#clipPath2)" stroke="none"/>
      <path fill="none" d="M338.25 443.6133 L353.125 443.6133" stroke-width="4" clip-path="url(#clipPath2)"/>
      <path d="M368.25 443.6133 L351.75 435.3633 L351.75 451.8633 Z" stroke-width="4" clip-path="url(#clipPath2)" stroke="none"/>
      <path fill="none" d="M435.75 443.6133 L450.625 443.6133" stroke-width="4" clip-path="url(#clipPath2)"/>
      <path d="M465.75 443.6133 L449.25 435.3633 L449.25 451.8633 Z" stroke-width="4" clip-path="url(#clipPath2)" stroke="none"/>
      <path fill="none" d="M533.25 443.6133 L553.25 443.6133 L553.25 453.4883" stroke-width="4" clip-path="url(#clipPath2)"/>
      <path d="M553.25 468.6133 L561.5 452.1133 L545 452.1133 Z" stroke-width="4" clip-path="url(#clipPath2)" stroke="none"/>
      <path fill="none" d="M143.25 443.6133 L158.125 443.6133" stroke-width="4" clip-path="url(#clipPath2)"/>
      <path d="M173.25 443.6133 L156.75 435.3633 L156.75 451.8633 Z" stroke-width="4" clip-path="url(#clipPath2)" stroke="none"/>
      <path fill="none" d="M347 500.6445 L347 516.8945" stroke-width="3" clip-path="url(#clipPath2)"/>
      <path d="M347 530.6445 L354.5 515.6445 L339.5 515.6445 Z" stroke-width="3" clip-path="url(#clipPath2)" stroke="none"/>
      <path fill="none" d="M732.9521 554.707 L747.8271 554.707" stroke-width="4" clip-path="url(#clipPath2)"/>
      <path d="M762.9521 554.707 L746.4521 546.457 L746.4521 562.957 Z" stroke-width="4" clip-path="url(#clipPath2)" stroke="none"/>
      <path fill="none" d="M830.4521 554.707 L845.3271 554.707" stroke-width="4" clip-path="url(#clipPath2)"/>
      <path d="M860.4521 554.707 L843.9521 546.457 L843.9521 562.957 Z" stroke-width="4" clip-path="url(#clipPath2)" stroke="none"/>
      <path fill="none" d="M927.9521 554.707 L947.9521 554.707 L947.9521 564.582" stroke-width="4" clip-path="url(#clipPath2)"/>
      <path d="M947.9521 579.707 L956.2021 563.207 L939.7021 563.207 Z" stroke-width="4" clip-path="url(#clipPath2)" stroke="none"/>
      <path fill="none" d="M635.4521 554.707 L651.7021 554.707" stroke-width="3" clip-path="url(#clipPath2)"/>
      <path d="M665.4521 554.707 L650.4521 547.207 L650.4521 562.207 Z" stroke-width="3" clip-path="url(#clipPath2)" stroke="none"/>
    </g>
  </g>
</svg>
