<?xml version="1.0" encoding="UTF-8"?><svg xmlns="http://www.w3.org/2000/svg" xmlns:xlink="http://www.w3.org/1999/xlink" fill-opacity="1" color-rendering="auto" color-interpolation="auto" text-rendering="auto" stroke="black" stroke-linecap="square" width="662" stroke-miterlimit="10" shape-rendering="auto" stroke-opacity="1" fill="black" stroke-dasharray="none" font-weight="normal" stroke-width="1" height="125" font-family="'Dialog'" font-style="normal" stroke-linejoin="miter" font-size="12px" stroke-dashoffset="0" image-rendering="auto">
  <!--Generated by ySVG 2.6-->
  <defs id="genericDefs"/>
  <g>
    <defs id="defs1">
      <clipPath clipPathUnits="userSpaceOnUse" id="clipPath1">
        <path d="M0 0 L662 0 L662 125 L0 125 L0 0 Z"/>
      </clipPath>
      <clipPath clipPathUnits="userSpaceOnUse" id="clipPath2">
        <path d="M443 422 L1105 422 L1105 547 L443 547 L443 422 Z"/>
      </clipPath>
    </defs>
    <g fill="rgb(255,204,0)" text-rendering="geometricPrecision" shape-rendering="geometricPrecision" transform="matrix(1,0,0,1,-443,-422)" stroke="rgb(255,204,0)">
      <rect x="669.0557" width="308.1875" height="69.0625" y="448.6641" clip-path="url(#clipPath2)" stroke="none"/>
    </g>
    <g text-rendering="geometricPrecision" stroke-miterlimit="1.45" shape-rendering="geometricPrecision" transform="matrix(1,0,0,1,-443,-422)" stroke-linecap="butt">
      <rect fill="none" x="669.0557" width="308.1875" height="69.0625" y="448.6641" clip-path="url(#clipPath2)"/>
      <text x="679.126" font-size="24px" y="489.582" clip-path="url(#clipPath2)" font-family="'Courier New'" stroke="none" xml:space="preserve">esLista(listaVacia)?</text>
      <rect fill="none" x="458.7168" width="179.5" height="94.0625" y="437.1641" clip-path="url(#clipPath2)"/>
      <circle fill="none" r="10" clip-path="url(#clipPath2)" cx="614.2168" cy="509.1953"/>
      <text x="610.0493" font-size="10px" y="513.1235" clip-path="url(#clipPath2)" font-family="sans-serif" stroke="none" xml:space="preserve">///</text>
    </g>
    <g transform="matrix(1,0,0,1,-443,-422)" fill-opacity="0.498" fill="rgb(255,0,0)" text-rendering="geometricPrecision" shape-rendering="geometricPrecision" stroke="rgb(255,0,0)" stroke-opacity="0.498">
      <rect x="466.7168" width="130" height="40" y="459.1953" clip-path="url(#clipPath2)" stroke="none"/>
    </g>
    <g text-rendering="geometricPrecision" stroke-miterlimit="1.45" shape-rendering="geometricPrecision" transform="matrix(1,0,0,1,-443,-422)" stroke-linecap="butt">
      <rect fill="none" x="466.7168" width="130" height="40" y="459.1953" clip-path="url(#clipPath2)"/>
      <text x="471.707" font-size="20px" y="484.5176" clip-path="url(#clipPath2)" font-family="'Courier New'" stroke="none" xml:space="preserve">listaVacia</text>
    </g>
    <g transform="matrix(1,0,0,1,-443,-422)" fill-opacity="0.498" fill="rgb(0,128,0)" text-rendering="geometricPrecision" shape-rendering="geometricPrecision" stroke="rgb(0,128,0)" stroke-opacity="0.498">
      <rect x="1016.9883" width="72.1875" height="44.9844" y="460.7031" clip-path="url(#clipPath2)" stroke="none"/>
    </g>
    <g text-rendering="geometricPrecision" stroke-miterlimit="1.45" shape-rendering="geometricPrecision" transform="matrix(1,0,0,1,-443,-422)" stroke-linecap="butt">
      <rect fill="none" x="1016.9883" width="72.1875" height="44.9844" y="460.7031" clip-path="url(#clipPath2)"/>
      <text x="1024.2773" font-size="24px" y="489.582" clip-path="url(#clipPath2)" font-family="'Courier New'" stroke="none" xml:space="preserve">True</text>
      <path fill="none" d="M638.2168 483.8686 L655.3057 483.8064" stroke-width="3" clip-path="url(#clipPath2)"/>
      <path d="M669.0557 483.7563 L654.0284 476.311 L654.0831 491.3109 Z" stroke-width="3" clip-path="url(#clipPath2)" stroke="none"/>
      <path fill="none" d="M596.7168 479.1953 L614.2168 479.1953 L614.2168 485.4453" stroke-width="3" clip-path="url(#clipPath2)"/>
      <path d="M614.2168 499.1953 L621.7168 484.1953 L606.7168 484.1953 Z" stroke-width="3" clip-path="url(#clipPath2)" stroke="none"/>
      <path fill="none" d="M977.2432 483.1953 L1003.2383 483.1953" stroke-width="3" clip-path="url(#clipPath2)"/>
      <path d="M1016.9883 483.1953 L1001.9883 475.6953 L1001.9883 490.6953 Z" stroke-width="3" clip-path="url(#clipPath2)" stroke="none"/>
    </g>
  </g>
</svg>
