<?xml version="1.0" encoding="UTF-8"?><svg xmlns="http://www.w3.org/2000/svg" xmlns:xlink="http://www.w3.org/1999/xlink" fill-opacity="1" color-rendering="auto" color-interpolation="auto" text-rendering="auto" stroke="black" stroke-linecap="square" width="939" stroke-miterlimit="10" shape-rendering="auto" stroke-opacity="1" fill="black" stroke-dasharray="none" font-weight="normal" stroke-width="1" height="126" font-family="'Dialog'" font-style="normal" stroke-linejoin="miter" font-size="12px" stroke-dashoffset="0" image-rendering="auto">
  <!--Generated by ySVG 2.6-->
  <defs id="genericDefs"/>
  <g>
    <defs id="defs1">
      <clipPath clipPathUnits="userSpaceOnUse" id="clipPath1">
        <path d="M0 0 L939 0 L939 126 L0 126 L0 0 Z"/>
      </clipPath>
      <clipPath clipPathUnits="userSpaceOnUse" id="clipPath2">
        <path d="M34 339 L973 339 L973 465 L34 465 L34 339 Z"/>
      </clipPath>
    </defs>
    <g fill="rgb(255,204,0)" text-rendering="geometricPrecision" shape-rendering="geometricPrecision" transform="matrix(1,0,0,1,-34,-339)" stroke="rgb(255,204,0)">
      <rect x="633.8848" width="197.1875" height="69.0625" y="367.8438" clip-path="url(#clipPath2)" stroke="none"/>
    </g>
    <g text-rendering="geometricPrecision" stroke-miterlimit="1.45" shape-rendering="geometricPrecision" transform="matrix(1,0,0,1,-34,-339)" stroke-linecap="butt">
      <rect fill="none" x="633.8848" width="197.1875" height="69.0625" y="367.8438" clip-path="url(#clipPath2)"/>
      <text x="646.0645" font-size="24px" y="408.7617" clip-path="url(#clipPath2)" font-family="'Courier New'" stroke="none" xml:space="preserve">esLista(L) ?</text>
    </g>
    <g transform="matrix(1,0,0,1,-34,-339)" fill-opacity="0.498" fill="rgb(0,128,0)" text-rendering="geometricPrecision" shape-rendering="geometricPrecision" stroke="rgb(0,128,0)" stroke-opacity="0.498">
      <rect x="885.5195" width="72.1875" height="44.9844" y="379.8828" clip-path="url(#clipPath2)" stroke="none"/>
    </g>
    <g text-rendering="geometricPrecision" stroke-miterlimit="1.45" shape-rendering="geometricPrecision" transform="matrix(1,0,0,1,-34,-339)" stroke-linecap="butt">
      <rect fill="none" x="885.5195" width="72.1875" height="44.9844" y="379.8828" clip-path="url(#clipPath2)"/>
      <text x="892.8086" font-size="24px" y="408.7617" clip-path="url(#clipPath2)" font-family="'Courier New'" stroke="none" xml:space="preserve">True</text>
    </g>
    <g transform="matrix(1,0,0,1,-34,-339)" fill-opacity="0.498" fill="rgb(255,102,0)" text-rendering="geometricPrecision" shape-rendering="geometricPrecision" stroke="rgb(255,102,0)" stroke-opacity="0.498">
      <rect x="121.9375" width="50" height="50" y="367.375" clip-path="url(#clipPath2)" stroke="none"/>
    </g>
    <g text-rendering="geometricPrecision" stroke-miterlimit="1.45" shape-rendering="geometricPrecision" transform="matrix(1,0,0,1,-34,-339)" stroke-linecap="butt">
      <rect fill="none" x="121.9375" width="50" height="50" y="367.375" clip-path="url(#clipPath2)"/>
    </g>
    <g transform="matrix(1,0,0,1,-34,-339)" fill-opacity="0.498" fill="rgb(255,102,0)" text-rendering="geometricPrecision" shape-rendering="geometricPrecision" stroke="rgb(255,102,0)" stroke-opacity="0.498">
      <rect x="171.9375" width="25" height="50" y="367.375" clip-path="url(#clipPath2)" stroke="none"/>
    </g>
    <g text-rendering="geometricPrecision" stroke-miterlimit="1.45" shape-rendering="geometricPrecision" transform="matrix(1,0,0,1,-34,-339)" stroke-linecap="butt">
      <rect fill="none" x="171.9375" width="25" height="50" y="367.375" clip-path="url(#clipPath2)"/>
    </g>
    <g transform="matrix(1,0,0,1,-34,-339)" fill-opacity="0.498" fill="rgb(0,128,0)" text-rendering="geometricPrecision" shape-rendering="geometricPrecision" stroke="rgb(0,128,0)" stroke-opacity="0.498">
      <rect x="219.4375" width="50" height="50" y="367.375" clip-path="url(#clipPath2)" stroke="none"/>
    </g>
    <g text-rendering="geometricPrecision" stroke-miterlimit="1.45" shape-rendering="geometricPrecision" transform="matrix(1,0,0,1,-34,-339)" stroke-linecap="butt">
      <rect fill="none" x="219.4375" width="50" height="50" y="367.375" clip-path="url(#clipPath2)"/>
    </g>
    <g transform="matrix(1,0,0,1,-34,-339)" fill-opacity="0.498" fill="rgb(0,128,0)" text-rendering="geometricPrecision" shape-rendering="geometricPrecision" stroke="rgb(0,128,0)" stroke-opacity="0.498">
      <rect x="269.4375" width="25" height="50" y="367.375" clip-path="url(#clipPath2)" stroke="none"/>
    </g>
    <g text-rendering="geometricPrecision" stroke-miterlimit="1.45" shape-rendering="geometricPrecision" transform="matrix(1,0,0,1,-34,-339)" stroke-linecap="butt">
      <rect fill="none" x="269.4375" width="25" height="50" y="367.375" clip-path="url(#clipPath2)"/>
    </g>
    <g transform="matrix(1,0,0,1,-34,-339)" fill-opacity="0.498" fill="rgb(0,0,255)" text-rendering="geometricPrecision" shape-rendering="geometricPrecision" stroke="rgb(0,0,255)" stroke-opacity="0.498">
      <rect x="316.9375" width="50" height="50" y="367.375" clip-path="url(#clipPath2)" stroke="none"/>
    </g>
    <g text-rendering="geometricPrecision" stroke-miterlimit="1.45" shape-rendering="geometricPrecision" transform="matrix(1,0,0,1,-34,-339)" stroke-linecap="butt">
      <rect fill="none" x="316.9375" width="50" height="50" y="367.375" clip-path="url(#clipPath2)"/>
    </g>
    <g transform="matrix(1,0,0,1,-34,-339)" fill-opacity="0.498" fill="rgb(0,0,255)" text-rendering="geometricPrecision" shape-rendering="geometricPrecision" stroke="rgb(0,0,255)" stroke-opacity="0.498">
      <rect x="366.9375" width="25" height="50" y="367.375" clip-path="url(#clipPath2)" stroke="none"/>
    </g>
    <g text-rendering="geometricPrecision" stroke-miterlimit="1.45" shape-rendering="geometricPrecision" transform="matrix(1,0,0,1,-34,-339)" stroke-linecap="butt">
      <rect fill="none" x="366.9375" width="25" height="50" y="367.375" clip-path="url(#clipPath2)"/>
    </g>
    <g transform="matrix(1,0,0,1,-34,-339)" fill-opacity="0.498" fill="rgb(181,35,196)" text-rendering="geometricPrecision" shape-rendering="geometricPrecision" stroke="rgb(181,35,196)" stroke-opacity="0.498">
      <rect x="414.4375" width="50" height="50" y="367.375" clip-path="url(#clipPath2)" stroke="none"/>
    </g>
    <g text-rendering="geometricPrecision" stroke-miterlimit="1.45" shape-rendering="geometricPrecision" transform="matrix(1,0,0,1,-34,-339)" stroke-linecap="butt">
      <rect fill="none" x="414.4375" width="50" height="50" y="367.375" clip-path="url(#clipPath2)"/>
    </g>
    <g transform="matrix(1,0,0,1,-34,-339)" fill-opacity="0.498" fill="rgb(181,35,196)" text-rendering="geometricPrecision" shape-rendering="geometricPrecision" stroke="rgb(181,35,196)" stroke-opacity="0.498">
      <rect x="464.4375" width="25" height="50" y="367.375" clip-path="url(#clipPath2)" stroke="none"/>
    </g>
    <g text-rendering="geometricPrecision" stroke-miterlimit="1.45" shape-rendering="geometricPrecision" transform="matrix(1,0,0,1,-34,-339)" stroke-linecap="butt">
      <rect fill="none" x="464.4375" width="25" height="50" y="367.375" clip-path="url(#clipPath2)"/>
      <circle fill="none" r="10" clip-path="url(#clipPath2)" cx="501.9375" cy="427.375"/>
      <text x="497.77" font-size="10px" y="431.3032" clip-path="url(#clipPath2)" font-family="sans-serif" stroke="none" xml:space="preserve">///</text>
    </g>
    <g transform="matrix(1,0,0,1,-34,-339)" fill-opacity="0.498" fill="rgb(255,0,0)" text-rendering="geometricPrecision" shape-rendering="geometricPrecision" stroke="rgb(255,0,0)" stroke-opacity="0.498">
      <rect x="61.9375" width="30" height="30" y="377.375" clip-path="url(#clipPath2)" stroke="none"/>
    </g>
    <g text-rendering="geometricPrecision" stroke-miterlimit="1.45" shape-rendering="geometricPrecision" transform="matrix(1,0,0,1,-34,-339)" stroke-linecap="butt">
      <rect fill="none" x="61.9375" width="30" height="30" y="377.375" clip-path="url(#clipPath2)"/>
      <text x="70.9365" font-size="20px" y="397.6973" clip-path="url(#clipPath2)" font-family="'Courier New'" stroke="none" xml:space="preserve">L</text>
      <rect fill="none" x="49.5986" width="492.5" height="94.0625" y="354.9473" clip-path="url(#clipPath2)"/>
      <path fill="none" d="M541.9375 402.375 L620.1348 402.375" stroke-width="3" clip-path="url(#clipPath2)"/>
      <path d="M633.8848 402.375 L618.8848 394.875 L618.8848 409.875 Z" stroke-width="3" clip-path="url(#clipPath2)" stroke="none"/>
      <path fill="none" d="M831.0723 402.375 L871.7695 402.375" stroke-width="3" clip-path="url(#clipPath2)"/>
      <path d="M885.5195 402.375 L870.5195 394.875 L870.5195 409.875 Z" stroke-width="3" clip-path="url(#clipPath2)" stroke="none"/>
      <path fill="none" d="M189.4375 392.375 L204.3125 392.375" stroke-width="4" clip-path="url(#clipPath2)"/>
      <path d="M219.4375 392.375 L202.9375 384.125 L202.9375 400.625 Z" stroke-width="4" clip-path="url(#clipPath2)" stroke="none"/>
      <path fill="none" d="M286.9375 392.375 L301.8125 392.375" stroke-width="4" clip-path="url(#clipPath2)"/>
      <path d="M316.9375 392.375 L300.4375 384.125 L300.4375 400.625 Z" stroke-width="4" clip-path="url(#clipPath2)" stroke="none"/>
      <path fill="none" d="M384.4375 392.375 L399.3125 392.375" stroke-width="4" clip-path="url(#clipPath2)"/>
      <path d="M414.4375 392.375 L397.9375 384.125 L397.9375 400.625 Z" stroke-width="4" clip-path="url(#clipPath2)" stroke="none"/>
      <path fill="none" d="M481.9375 392.375 L501.9375 392.375 L501.9375 402.25" stroke-width="4" clip-path="url(#clipPath2)"/>
      <path d="M501.9375 417.375 L510.1875 400.875 L493.6875 400.875 Z" stroke-width="4" clip-path="url(#clipPath2)" stroke="none"/>
      <path fill="none" d="M91.9375 392.375 L106.8125 392.375" stroke-width="4" clip-path="url(#clipPath2)"/>
      <path d="M121.9375 392.375 L105.4375 384.125 L105.4375 400.625 Z" stroke-width="4" clip-path="url(#clipPath2)" stroke="none"/>
    </g>
  </g>
</svg>
