<?xml version="1.0" encoding="UTF-8"?><svg xmlns="http://www.w3.org/2000/svg" xmlns:xlink="http://www.w3.org/1999/xlink" fill-opacity="1" color-rendering="auto" color-interpolation="auto" text-rendering="auto" stroke="black" stroke-linecap="square" width="313" stroke-miterlimit="10" shape-rendering="auto" stroke-opacity="1" fill="black" stroke-dasharray="none" font-weight="normal" stroke-width="1" height="179" font-family="'Dialog'" font-style="normal" stroke-linejoin="miter" font-size="12px" stroke-dashoffset="0" image-rendering="auto">
  <!--Generated by ySVG 2.6-->
  <defs id="genericDefs"/>
  <g>
    <defs id="defs1">
      <clipPath clipPathUnits="userSpaceOnUse" id="clipPath1">
        <path d="M0 0 L313 0 L313 179 L0 179 L0 0 Z"/>
      </clipPath>
      <clipPath clipPathUnits="userSpaceOnUse" id="clipPath2">
        <path d="M1151 253 L1464 253 L1464 432 L1151 432 L1151 253 Z"/>
      </clipPath>
    </defs>
    <g transform="matrix(1,0,0,1,-1151,-253)" fill-opacity="0.498" fill="rgb(181,35,196)" text-rendering="geometricPrecision" shape-rendering="geometricPrecision" stroke="rgb(181,35,196)" stroke-opacity="0.498">
      <rect x="1166" width="150" height="100" y="268" clip-path="url(#clipPath2)" stroke="none"/>
    </g>
    <g text-rendering="geometricPrecision" stroke-miterlimit="1.45" shape-rendering="geometricPrecision" transform="matrix(1,0,0,1,-1151,-253)" stroke-linecap="butt">
      <rect fill="none" x="1166" width="150" height="100" y="268" clip-path="url(#clipPath2)"/>
    </g>
    <g transform="matrix(1,0,0,1,-1151,-253)" fill-opacity="0.498" fill="rgb(181,35,196)" text-rendering="geometricPrecision" shape-rendering="geometricPrecision" stroke="rgb(181,35,196)" stroke-opacity="0.498">
      <rect x="1316" width="50" height="100" y="268" clip-path="url(#clipPath2)" stroke="none"/>
    </g>
    <g text-rendering="geometricPrecision" stroke-miterlimit="1.45" shape-rendering="geometricPrecision" transform="matrix(1,0,0,1,-1151,-253)" stroke-linecap="butt">
      <rect fill="none" x="1316" width="50" height="100" y="268" clip-path="url(#clipPath2)"/>
      <ellipse rx="25" fill="none" ry="24.375" clip-path="url(#clipPath2)" cx="1424" cy="392.375"/>
      <text x="1414.8315" font-size="22px" y="401.0171" clip-path="url(#clipPath2)" font-family="sans-serif" stroke="none" xml:space="preserve">///</text>
      <path fill="none" d="M1346 318 L1424 318 L1424 352.875" stroke-width="4" clip-path="url(#clipPath2)"/>
      <path d="M1424 368 L1432.25 351.5 L1415.75 351.5 Z" stroke-width="4" clip-path="url(#clipPath2)" stroke="none"/>
    </g>
  </g>
</svg>
