<?xml version="1.0" encoding="UTF-8"?><svg xmlns="http://www.w3.org/2000/svg" xmlns:xlink="http://www.w3.org/1999/xlink" fill-opacity="1" color-rendering="auto" color-interpolation="auto" text-rendering="auto" stroke="black" stroke-linecap="square" width="363" stroke-miterlimit="10" shape-rendering="auto" stroke-opacity="1" fill="black" stroke-dasharray="none" font-weight="normal" stroke-width="1" height="130" font-family="'Dialog'" font-style="normal" stroke-linejoin="miter" font-size="12px" stroke-dashoffset="0" image-rendering="auto">
  <!--Generated by ySVG 2.6-->
  <defs id="genericDefs"/>
  <g>
    <defs id="defs1">
      <clipPath clipPathUnits="userSpaceOnUse" id="clipPath1">
        <path d="M0 0 L363 0 L363 130 L0 130 L0 0 Z"/>
      </clipPath>
      <clipPath clipPathUnits="userSpaceOnUse" id="clipPath2">
        <path d="M144 228 L507 228 L507 358 L144 358 L144 228 Z"/>
      </clipPath>
    </defs>
    <g transform="matrix(1,0,0,1,-144,-228)" fill-opacity="0.498" fill="rgb(255,102,0)" text-rendering="geometricPrecision" shape-rendering="geometricPrecision" stroke="rgb(255,102,0)" stroke-opacity="0.498">
      <rect x="292" width="150" height="100" y="243" clip-path="url(#clipPath2)" stroke="none"/>
    </g>
    <g text-rendering="geometricPrecision" stroke-miterlimit="1.45" shape-rendering="geometricPrecision" transform="matrix(1,0,0,1,-144,-228)" stroke-linecap="butt">
      <rect fill="none" x="292" width="150" height="100" y="243" clip-path="url(#clipPath2)"/>
    </g>
    <g transform="matrix(1,0,0,1,-144,-228)" fill-opacity="0.498" fill="rgb(255,102,0)" text-rendering="geometricPrecision" shape-rendering="geometricPrecision" stroke="rgb(255,102,0)" stroke-opacity="0.498">
      <rect x="442" width="50" height="100" y="243" clip-path="url(#clipPath2)" stroke="none"/>
    </g>
    <g text-rendering="geometricPrecision" stroke-miterlimit="1.45" shape-rendering="geometricPrecision" transform="matrix(1,0,0,1,-144,-228)" stroke-linecap="butt">
      <rect fill="none" x="442" width="50" height="100" y="243" clip-path="url(#clipPath2)"/>
    </g>
    <g transform="matrix(1,0,0,1,-144,-228)" fill-opacity="0.498" fill="rgb(255,0,0)" text-rendering="geometricPrecision" shape-rendering="geometricPrecision" stroke="rgb(255,0,0)" stroke-opacity="0.498">
      <rect x="159" width="70" height="66.25" y="259.875" clip-path="url(#clipPath2)" stroke="none"/>
    </g>
    <g text-rendering="geometricPrecision" stroke-miterlimit="1.45" shape-rendering="geometricPrecision" transform="matrix(1,0,0,1,-144,-228)" stroke-linecap="butt">
      <rect fill="none" x="159" width="70" height="66.25" y="259.875" clip-path="url(#clipPath2)"/>
      <text x="183.1982" font-size="36px" y="302.5801" clip-path="url(#clipPath2)" font-family="'Courier New'" stroke="none" xml:space="preserve">L</text>
      <path fill="none" d="M229 293 L276.875 293" stroke-width="4" clip-path="url(#clipPath2)"/>
      <path d="M292 293 L275.5 284.75 L275.5 301.25 Z" stroke-width="4" clip-path="url(#clipPath2)" stroke="none"/>
    </g>
  </g>
</svg>
