<?xml version="1.0" encoding="UTF-8"?><svg xmlns="http://www.w3.org/2000/svg" xmlns:xlink="http://www.w3.org/1999/xlink" fill-opacity="1" color-rendering="auto" color-interpolation="auto" text-rendering="auto" stroke="black" stroke-linecap="square" width="511" stroke-miterlimit="10" shape-rendering="auto" stroke-opacity="1" fill="black" stroke-dasharray="none" font-weight="normal" stroke-width="1" height="101" font-family="'Dialog'" font-style="normal" stroke-linejoin="miter" font-size="12px" stroke-dashoffset="0" image-rendering="auto">
  <!--Generated by ySVG 2.6-->
  <defs id="genericDefs"/>
  <g>
    <defs id="defs1">
      <clipPath clipPathUnits="userSpaceOnUse" id="clipPath1">
        <path d="M0 0 L511 0 L511 101 L0 101 L0 0 Z"/>
      </clipPath>
      <clipPath clipPathUnits="userSpaceOnUse" id="clipPath2">
        <path d="M98 403 L609 403 L609 504 L98 504 L98 403 Z"/>
      </clipPath>
    </defs>
    <g transform="matrix(1,0,0,1,-98,-403)" fill-opacity="0.498" fill="rgb(255,102,0)" text-rendering="geometricPrecision" shape-rendering="geometricPrecision" stroke="rgb(255,102,0)" stroke-opacity="0.498">
      <rect x="173.25" width="50" height="50" y="418.6133" clip-path="url(#clipPath2)" stroke="none"/>
    </g>
    <g text-rendering="geometricPrecision" stroke-miterlimit="1.45" shape-rendering="geometricPrecision" transform="matrix(1,0,0,1,-98,-403)" stroke-linecap="butt">
      <rect fill="none" x="173.25" width="50" height="50" y="418.6133" clip-path="url(#clipPath2)"/>
      <text x="192.6885" font-size="20px" y="451.4697" clip-path="url(#clipPath2)" font-family="sans-serif" stroke="none" xml:space="preserve">7</text>
    </g>
    <g transform="matrix(1,0,0,1,-98,-403)" fill-opacity="0.498" fill="rgb(255,102,0)" text-rendering="geometricPrecision" shape-rendering="geometricPrecision" stroke="rgb(255,102,0)" stroke-opacity="0.498">
      <rect x="223.25" width="25" height="50" y="418.6133" clip-path="url(#clipPath2)" stroke="none"/>
    </g>
    <g text-rendering="geometricPrecision" stroke-miterlimit="1.45" shape-rendering="geometricPrecision" transform="matrix(1,0,0,1,-98,-403)" stroke-linecap="butt">
      <rect fill="none" x="223.25" width="25" height="50" y="418.6133" clip-path="url(#clipPath2)"/>
    </g>
    <g transform="matrix(1,0,0,1,-98,-403)" fill-opacity="0.498" fill="rgb(0,128,0)" text-rendering="geometricPrecision" shape-rendering="geometricPrecision" stroke="rgb(0,128,0)" stroke-opacity="0.498">
      <rect x="270.75" width="50" height="50" y="418.6133" clip-path="url(#clipPath2)" stroke="none"/>
    </g>
    <g text-rendering="geometricPrecision" stroke-miterlimit="1.45" shape-rendering="geometricPrecision" transform="matrix(1,0,0,1,-98,-403)" stroke-linecap="butt">
      <rect fill="none" x="270.75" width="50" height="50" y="418.6133" clip-path="url(#clipPath2)"/>
      <text x="290.1885" font-size="20px" y="451.4697" clip-path="url(#clipPath2)" font-family="sans-serif" stroke="none" xml:space="preserve">4</text>
    </g>
    <g transform="matrix(1,0,0,1,-98,-403)" fill-opacity="0.498" fill="rgb(0,128,0)" text-rendering="geometricPrecision" shape-rendering="geometricPrecision" stroke="rgb(0,128,0)" stroke-opacity="0.498">
      <rect x="320.75" width="25" height="50" y="418.6133" clip-path="url(#clipPath2)" stroke="none"/>
    </g>
    <g text-rendering="geometricPrecision" stroke-miterlimit="1.45" shape-rendering="geometricPrecision" transform="matrix(1,0,0,1,-98,-403)" stroke-linecap="butt">
      <rect fill="none" x="320.75" width="25" height="50" y="418.6133" clip-path="url(#clipPath2)"/>
    </g>
    <g transform="matrix(1,0,0,1,-98,-403)" fill-opacity="0.498" fill="rgb(0,0,255)" text-rendering="geometricPrecision" shape-rendering="geometricPrecision" stroke="rgb(0,0,255)" stroke-opacity="0.498">
      <rect x="368.25" width="50" height="50" y="418.6133" clip-path="url(#clipPath2)" stroke="none"/>
    </g>
    <g text-rendering="geometricPrecision" stroke-miterlimit="1.45" shape-rendering="geometricPrecision" transform="matrix(1,0,0,1,-98,-403)" stroke-linecap="butt">
      <rect fill="none" x="368.25" width="50" height="50" y="418.6133" clip-path="url(#clipPath2)"/>
      <text x="382.127" font-size="20px" y="451.4697" clip-path="url(#clipPath2)" font-family="sans-serif" stroke="none" xml:space="preserve">25</text>
    </g>
    <g transform="matrix(1,0,0,1,-98,-403)" fill-opacity="0.498" fill="rgb(0,0,255)" text-rendering="geometricPrecision" shape-rendering="geometricPrecision" stroke="rgb(0,0,255)" stroke-opacity="0.498">
      <rect x="418.25" width="25" height="50" y="418.6133" clip-path="url(#clipPath2)" stroke="none"/>
    </g>
    <g text-rendering="geometricPrecision" stroke-miterlimit="1.45" shape-rendering="geometricPrecision" transform="matrix(1,0,0,1,-98,-403)" stroke-linecap="butt">
      <rect fill="none" x="418.25" width="25" height="50" y="418.6133" clip-path="url(#clipPath2)"/>
    </g>
    <g transform="matrix(1,0,0,1,-98,-403)" fill-opacity="0.498" fill="rgb(181,35,196)" text-rendering="geometricPrecision" shape-rendering="geometricPrecision" stroke="rgb(181,35,196)" stroke-opacity="0.498">
      <rect x="465.75" width="50" height="50" y="418.6133" clip-path="url(#clipPath2)" stroke="none"/>
    </g>
    <g text-rendering="geometricPrecision" stroke-miterlimit="1.45" shape-rendering="geometricPrecision" transform="matrix(1,0,0,1,-98,-403)" stroke-linecap="butt">
      <rect fill="none" x="465.75" width="50" height="50" y="418.6133" clip-path="url(#clipPath2)"/>
      <text x="485.1885" font-size="20px" y="451.4697" clip-path="url(#clipPath2)" font-family="sans-serif" stroke="none" xml:space="preserve">2</text>
    </g>
    <g transform="matrix(1,0,0,1,-98,-403)" fill-opacity="0.498" fill="rgb(181,35,196)" text-rendering="geometricPrecision" shape-rendering="geometricPrecision" stroke="rgb(181,35,196)" stroke-opacity="0.498">
      <rect x="515.75" width="25" height="50" y="418.6133" clip-path="url(#clipPath2)" stroke="none"/>
    </g>
    <g text-rendering="geometricPrecision" stroke-miterlimit="1.45" shape-rendering="geometricPrecision" transform="matrix(1,0,0,1,-98,-403)" stroke-linecap="butt">
      <rect fill="none" x="515.75" width="25" height="50" y="418.6133" clip-path="url(#clipPath2)"/>
      <circle fill="none" r="10" clip-path="url(#clipPath2)" cx="553.25" cy="478.6133"/>
      <text x="549.0825" font-size="10px" y="482.5415" clip-path="url(#clipPath2)" font-family="sans-serif" stroke="none" xml:space="preserve">///</text>
    </g>
    <g transform="matrix(1,0,0,1,-98,-403)" fill-opacity="0.498" fill="rgb(255,0,0)" text-rendering="geometricPrecision" shape-rendering="geometricPrecision" stroke="rgb(255,0,0)" stroke-opacity="0.498">
      <rect x="113.25" width="30" height="30" y="428.6133" clip-path="url(#clipPath2)" stroke="none"/>
    </g>
    <g text-rendering="geometricPrecision" stroke-miterlimit="1.45" shape-rendering="geometricPrecision" transform="matrix(1,0,0,1,-98,-403)" stroke-linecap="butt">
      <rect fill="none" x="113.25" width="30" height="30" y="428.6133" clip-path="url(#clipPath2)"/>
      <text x="122.249" font-size="20px" y="448.9355" clip-path="url(#clipPath2)" font-family="'Courier New'" stroke="none" xml:space="preserve">L</text>
      <path fill="none" d="M240.75 443.6133 L255.625 443.6133" stroke-width="4" clip-path="url(#clipPath2)"/>
      <path d="M270.75 443.6133 L254.25 435.3633 L254.25 451.8633 Z" stroke-width="4" clip-path="url(#clipPath2)" stroke="none"/>
      <path fill="none" d="M338.25 443.6133 L353.125 443.6133" stroke-width="4" clip-path="url(#clipPath2)"/>
      <path d="M368.25 443.6133 L351.75 435.3633 L351.75 451.8633 Z" stroke-width="4" clip-path="url(#clipPath2)" stroke="none"/>
      <path fill="none" d="M435.75 443.6133 L450.625 443.6133" stroke-width="4" clip-path="url(#clipPath2)"/>
      <path d="M465.75 443.6133 L449.25 435.3633 L449.25 451.8633 Z" stroke-width="4" clip-path="url(#clipPath2)" stroke="none"/>
      <path fill="none" d="M533.25 443.6133 L553.25 443.6133 L553.25 453.4883" stroke-width="4" clip-path="url(#clipPath2)"/>
      <path d="M553.25 468.6133 L561.5 452.1133 L545 452.1133 Z" stroke-width="4" clip-path="url(#clipPath2)" stroke="none"/>
      <path fill="none" d="M143.25 443.6133 L158.125 443.6133" stroke-width="4" clip-path="url(#clipPath2)"/>
      <path d="M173.25 443.6133 L156.75 435.3633 L156.75 451.8633 Z" stroke-width="4" clip-path="url(#clipPath2)" stroke="none"/>
    </g>
  </g>
</svg>
