<?xml version="1.0" encoding="UTF-8"?><svg xmlns="http://www.w3.org/2000/svg" xmlns:xlink="http://www.w3.org/1999/xlink" fill-opacity="1" color-rendering="auto" color-interpolation="auto" text-rendering="auto" stroke="black" stroke-linecap="square" width="718" stroke-miterlimit="10" shape-rendering="auto" stroke-opacity="1" fill="black" stroke-dasharray="none" font-weight="normal" stroke-width="1" height="125" font-family="'Dialog'" font-style="normal" stroke-linejoin="miter" font-size="12px" stroke-dashoffset="0" image-rendering="auto">
  <!--Generated by ySVG 2.6-->
  <defs id="genericDefs"/>
  <g>
    <defs id="defs1">
      <clipPath clipPathUnits="userSpaceOnUse" id="clipPath1">
        <path d="M0 0 L718 0 L718 125 L0 125 L0 0 Z"/>
      </clipPath>
      <clipPath clipPathUnits="userSpaceOnUse" id="clipPath2">
        <path d="M424 417 L1142 417 L1142 542 L424 542 L424 417 Z"/>
      </clipPath>
    </defs>
    <g fill="rgb(255,204,0)" text-rendering="geometricPrecision" shape-rendering="geometricPrecision" transform="matrix(1,0,0,1,-424,-417)" stroke="rgb(255,204,0)">
      <rect x="684.541" width="250" height="69.0625" y="444.6641" clip-path="url(#clipPath2)" stroke="none"/>
    </g>
    <g text-rendering="geometricPrecision" stroke-miterlimit="1.45" shape-rendering="geometricPrecision" transform="matrix(1,0,0,1,-424,-417)" stroke-linecap="butt">
      <rect fill="none" x="684.541" width="250" height="69.0625" y="444.6641" clip-path="url(#clipPath2)"/>
      <text x="687.1211" font-size="24px" y="485.582" clip-path="url(#clipPath2)" font-family="'Courier New'" stroke="none" xml:space="preserve">largo(listaVacia)</text>
      <rect fill="none" x="987.8799" width="138.1875" height="94.4844" y="432.1641" clip-path="url(#clipPath2)"/>
      <text x="1050.2998" font-size="24px" y="488.834" clip-path="url(#clipPath2)" font-family="sans-serif" stroke="none" xml:space="preserve">0</text>
      <rect fill="none" x="439.5" width="179.5" height="94.0625" y="432.1641" clip-path="url(#clipPath2)"/>
      <circle fill="none" r="10" clip-path="url(#clipPath2)" cx="595" cy="504.1953"/>
      <text x="590.8325" font-size="10px" y="508.1235" clip-path="url(#clipPath2)" font-family="sans-serif" stroke="none" xml:space="preserve">///</text>
    </g>
    <g transform="matrix(1,0,0,1,-424,-417)" fill-opacity="0.498" fill="rgb(255,0,0)" text-rendering="geometricPrecision" shape-rendering="geometricPrecision" stroke="rgb(255,0,0)" stroke-opacity="0.498">
      <rect x="457" width="111" height="40" y="454.1953" clip-path="url(#clipPath2)" stroke="none"/>
    </g>
    <g text-rendering="geometricPrecision" stroke-miterlimit="1.45" shape-rendering="geometricPrecision" transform="matrix(1,0,0,1,-424,-417)" stroke-linecap="butt">
      <rect fill="none" x="457" width="111" height="40" y="454.1953" clip-path="url(#clipPath2)"/>
      <text x="469.7021" font-size="20px" y="482.0518" clip-path="url(#clipPath2)" font-family="sans-serif" stroke="none" xml:space="preserve">listaVacia</text>
      <path fill="none" d="M619 479.1953 L670.791 479.1953" stroke-width="3" clip-path="url(#clipPath2)"/>
      <path d="M684.541 479.1953 L669.541 471.6953 L669.541 486.6953 Z" stroke-width="3" clip-path="url(#clipPath2)" stroke="none"/>
      <path fill="none" d="M934.541 479.3019 L974.1299 479.3356" stroke-width="3" clip-path="url(#clipPath2)"/>
      <path d="M987.8799 479.3474 L972.8863 471.8346 L972.8735 486.8346 Z" stroke-width="3" clip-path="url(#clipPath2)" stroke="none"/>
      <path fill="none" d="M568 474.1953 L595 474.1953 L595 480.4453" stroke-width="3" clip-path="url(#clipPath2)"/>
      <path d="M595 494.1953 L602.5 479.1953 L587.5 479.1953 Z" stroke-width="3" clip-path="url(#clipPath2)" stroke="none"/>
    </g>
  </g>
</svg>
