<?xml version="1.0" encoding="UTF-8"?><svg xmlns="http://www.w3.org/2000/svg" xmlns:xlink="http://www.w3.org/1999/xlink" fill-opacity="1" color-rendering="auto" color-interpolation="auto" text-rendering="auto" stroke="black" stroke-linecap="square" width="1295" stroke-miterlimit="10" shape-rendering="auto" stroke-opacity="1" fill="black" stroke-dasharray="none" font-weight="normal" stroke-width="1" height="179" font-family="'Dialog'" font-style="normal" stroke-linejoin="miter" font-size="12px" stroke-dashoffset="0" image-rendering="auto">
  <!--Generated by ySVG 2.6-->
  <defs id="genericDefs"/>
  <g>
    <defs id="defs1">
      <clipPath clipPathUnits="userSpaceOnUse" id="clipPath1">
        <path d="M0 0 L1295 0 L1295 179 L0 179 L0 0 Z"/>
      </clipPath>
      <clipPath clipPathUnits="userSpaceOnUse" id="clipPath2">
        <path d="M114 198 L1409 198 L1409 377 L114 377 L114 198 Z"/>
      </clipPath>
    </defs>
    <g transform="matrix(1,0,0,1,-114,-198)" fill-opacity="0.498" fill="rgb(255,102,0)" text-rendering="geometricPrecision" shape-rendering="geometricPrecision" stroke="rgb(255,102,0)" stroke-opacity="0.498">
      <rect x="262" width="150" height="100" y="213" clip-path="url(#clipPath2)" stroke="none"/>
    </g>
    <g text-rendering="geometricPrecision" stroke-miterlimit="1.45" shape-rendering="geometricPrecision" transform="matrix(1,0,0,1,-114,-198)" stroke-linecap="butt">
      <rect fill="none" x="262" width="150" height="100" y="213" clip-path="url(#clipPath2)"/>
    </g>
    <g transform="matrix(1,0,0,1,-114,-198)" fill-opacity="0.498" fill="rgb(255,102,0)" text-rendering="geometricPrecision" shape-rendering="geometricPrecision" stroke="rgb(255,102,0)" stroke-opacity="0.498">
      <rect x="412" width="50" height="100" y="213" clip-path="url(#clipPath2)" stroke="none"/>
    </g>
    <g text-rendering="geometricPrecision" stroke-miterlimit="1.45" shape-rendering="geometricPrecision" transform="matrix(1,0,0,1,-114,-198)" stroke-linecap="butt">
      <rect fill="none" x="412" width="50" height="100" y="213" clip-path="url(#clipPath2)"/>
    </g>
    <g transform="matrix(1,0,0,1,-114,-198)" fill-opacity="0.498" fill="rgb(0,128,0)" text-rendering="geometricPrecision" shape-rendering="geometricPrecision" stroke="rgb(0,128,0)" stroke-opacity="0.498">
      <rect x="545" width="150" height="100" y="213" clip-path="url(#clipPath2)" stroke="none"/>
    </g>
    <g text-rendering="geometricPrecision" stroke-miterlimit="1.45" shape-rendering="geometricPrecision" transform="matrix(1,0,0,1,-114,-198)" stroke-linecap="butt">
      <rect fill="none" x="545" width="150" height="100" y="213" clip-path="url(#clipPath2)"/>
    </g>
    <g transform="matrix(1,0,0,1,-114,-198)" fill-opacity="0.498" fill="rgb(0,128,0)" text-rendering="geometricPrecision" shape-rendering="geometricPrecision" stroke="rgb(0,128,0)" stroke-opacity="0.498">
      <rect x="695" width="50" height="100" y="213" clip-path="url(#clipPath2)" stroke="none"/>
    </g>
    <g text-rendering="geometricPrecision" stroke-miterlimit="1.45" shape-rendering="geometricPrecision" transform="matrix(1,0,0,1,-114,-198)" stroke-linecap="butt">
      <rect fill="none" x="695" width="50" height="100" y="213" clip-path="url(#clipPath2)"/>
    </g>
    <g transform="matrix(1,0,0,1,-114,-198)" fill-opacity="0.498" fill="rgb(0,0,255)" text-rendering="geometricPrecision" shape-rendering="geometricPrecision" stroke="rgb(0,0,255)" stroke-opacity="0.498">
      <rect x="828" width="150" height="100" y="213" clip-path="url(#clipPath2)" stroke="none"/>
    </g>
    <g text-rendering="geometricPrecision" stroke-miterlimit="1.45" shape-rendering="geometricPrecision" transform="matrix(1,0,0,1,-114,-198)" stroke-linecap="butt">
      <rect fill="none" x="828" width="150" height="100" y="213" clip-path="url(#clipPath2)"/>
    </g>
    <g transform="matrix(1,0,0,1,-114,-198)" fill-opacity="0.498" fill="rgb(0,0,255)" text-rendering="geometricPrecision" shape-rendering="geometricPrecision" stroke="rgb(0,0,255)" stroke-opacity="0.498">
      <rect x="978" width="50" height="100" y="213" clip-path="url(#clipPath2)" stroke="none"/>
    </g>
    <g text-rendering="geometricPrecision" stroke-miterlimit="1.45" shape-rendering="geometricPrecision" transform="matrix(1,0,0,1,-114,-198)" stroke-linecap="butt">
      <rect fill="none" x="978" width="50" height="100" y="213" clip-path="url(#clipPath2)"/>
    </g>
    <g transform="matrix(1,0,0,1,-114,-198)" fill-opacity="0.498" fill="rgb(181,35,196)" text-rendering="geometricPrecision" shape-rendering="geometricPrecision" stroke="rgb(181,35,196)" stroke-opacity="0.498">
      <rect x="1111" width="150" height="100" y="213" clip-path="url(#clipPath2)" stroke="none"/>
    </g>
    <g text-rendering="geometricPrecision" stroke-miterlimit="1.45" shape-rendering="geometricPrecision" transform="matrix(1,0,0,1,-114,-198)" stroke-linecap="butt">
      <rect fill="none" x="1111" width="150" height="100" y="213" clip-path="url(#clipPath2)"/>
    </g>
    <g transform="matrix(1,0,0,1,-114,-198)" fill-opacity="0.498" fill="rgb(181,35,196)" text-rendering="geometricPrecision" shape-rendering="geometricPrecision" stroke="rgb(181,35,196)" stroke-opacity="0.498">
      <rect x="1261" width="50" height="100" y="213" clip-path="url(#clipPath2)" stroke="none"/>
    </g>
    <g text-rendering="geometricPrecision" stroke-miterlimit="1.45" shape-rendering="geometricPrecision" transform="matrix(1,0,0,1,-114,-198)" stroke-linecap="butt">
      <rect fill="none" x="1261" width="50" height="100" y="213" clip-path="url(#clipPath2)"/>
      <ellipse rx="25" fill="none" ry="24.375" clip-path="url(#clipPath2)" cx="1369" cy="337.375"/>
      <text x="1359.8315" font-size="22px" y="346.0171" clip-path="url(#clipPath2)" font-family="sans-serif" stroke="none" xml:space="preserve">///</text>
    </g>
    <g transform="matrix(1,0,0,1,-114,-198)" fill-opacity="0.498" fill="rgb(255,0,0)" text-rendering="geometricPrecision" shape-rendering="geometricPrecision" stroke="rgb(255,0,0)" stroke-opacity="0.498">
      <rect x="129" width="70" height="66.25" y="229.875" clip-path="url(#clipPath2)" stroke="none"/>
    </g>
    <g text-rendering="geometricPrecision" stroke-miterlimit="1.45" shape-rendering="geometricPrecision" transform="matrix(1,0,0,1,-114,-198)" stroke-linecap="butt">
      <rect fill="none" x="129" width="70" height="66.25" y="229.875" clip-path="url(#clipPath2)"/>
      <text x="153.1982" font-size="36px" y="272.5801" clip-path="url(#clipPath2)" font-family="'Courier New'" stroke="none" xml:space="preserve">L</text>
      <path fill="none" d="M442 263 L529.875 263" stroke-width="4" clip-path="url(#clipPath2)"/>
      <path d="M545 263 L528.5 254.75 L528.5 271.25 Z" stroke-width="4" clip-path="url(#clipPath2)" stroke="none"/>
      <path fill="none" d="M725 263 L812.8499 263" stroke-width="4" clip-path="url(#clipPath2)"/>
      <path d="M827.9749 263 L811.4749 254.75 L811.4749 271.25 Z" stroke-width="4" clip-path="url(#clipPath2)" stroke="none"/>
      <path fill="none" d="M1008 263 L1095.875 263" stroke-width="4" clip-path="url(#clipPath2)"/>
      <path d="M1111 263 L1094.5 254.75 L1094.5 271.25 Z" stroke-width="4" clip-path="url(#clipPath2)" stroke="none"/>
      <path fill="none" d="M1291 263 L1369 263 L1369 297.875" stroke-width="4" clip-path="url(#clipPath2)"/>
      <path d="M1369 313 L1377.25 296.5 L1360.75 296.5 Z" stroke-width="4" clip-path="url(#clipPath2)" stroke="none"/>
      <path fill="none" d="M199 263 L246.875 263" stroke-width="4" clip-path="url(#clipPath2)"/>
      <path d="M262 263 L245.5 254.75 L245.5 271.25 Z" stroke-width="4" clip-path="url(#clipPath2)" stroke="none"/>
    </g>
  </g>
</svg>
