<?xml version="1.0" encoding="UTF-8"?><svg xmlns="http://www.w3.org/2000/svg" xmlns:xlink="http://www.w3.org/1999/xlink" fill-opacity="1" color-rendering="auto" color-interpolation="auto" text-rendering="auto" stroke="black" stroke-linecap="square" width="398" stroke-miterlimit="10" shape-rendering="auto" stroke-opacity="1" fill="black" stroke-dasharray="none" font-weight="normal" stroke-width="1" height="213" font-family="'Dialog'" font-style="normal" stroke-linejoin="miter" font-size="12px" stroke-dashoffset="0" image-rendering="auto">
  <!--Generated by ySVG 2.6-->
  <defs id="genericDefs"/>
  <g>
    <defs id="defs1">
      <clipPath clipPathUnits="userSpaceOnUse" id="clipPath1">
        <path d="M0 0 L398 0 L398 213 L0 213 L0 0 Z"/>
      </clipPath>
      <clipPath clipPathUnits="userSpaceOnUse" id="clipPath2">
        <path d="M608 195 L1006 195 L1006 408 L608 408 L608 195 Z"/>
      </clipPath>
    </defs>
    <g transform="matrix(1,0,0,1,-608,-195)" fill-opacity="0.498" fill="rgb(0,128,0)" text-rendering="geometricPrecision" shape-rendering="geometricPrecision" stroke="rgb(0,128,0)" stroke-opacity="0.498">
      <rect x="625" width="150" height="100" y="293" clip-path="url(#clipPath2)" stroke="none"/>
    </g>
    <g text-rendering="geometricPrecision" stroke-miterlimit="1.45" shape-rendering="geometricPrecision" transform="matrix(1,0,0,1,-608,-195)" stroke-linecap="butt">
      <rect fill="none" x="625" width="150" height="100" y="293" clip-path="url(#clipPath2)"/>
    </g>
    <g transform="matrix(1,0,0,1,-608,-195)" fill-opacity="0.498" fill="rgb(0,128,0)" text-rendering="geometricPrecision" shape-rendering="geometricPrecision" stroke="rgb(0,128,0)" stroke-opacity="0.498">
      <rect x="775" width="50" height="100" y="293" clip-path="url(#clipPath2)" stroke="none"/>
    </g>
    <g text-rendering="geometricPrecision" stroke-miterlimit="1.45" shape-rendering="geometricPrecision" transform="matrix(1,0,0,1,-608,-195)" stroke-linecap="butt">
      <rect fill="none" x="775" width="50" height="100" y="293" clip-path="url(#clipPath2)"/>
      <rect fill="none" x="623.5" width="130" height="50" y="210.5" clip-path="url(#clipPath2)"/>
      <text x="628.4902" font-size="40px" y="246.1445" clip-path="url(#clipPath2)" font-family="'Courier New'" stroke="none" xml:space="preserve">valor</text>
      <rect fill="none" x="770" width="220" height="50" y="211" clip-path="url(#clipPath2)"/>
      <text x="771.9824" font-size="40px" y="246.6445" clip-path="url(#clipPath2)" font-family="'Courier New'" stroke="none" xml:space="preserve">siguiente</text>
      <path fill="none" d="M805 343 L892.8499 343" stroke-width="4" clip-path="url(#clipPath2)"/>
      <path d="M907.9749 343 L891.4749 334.75 L891.4749 351.25 Z" stroke-width="4" clip-path="url(#clipPath2)" stroke="none"/>
      <path fill="none" stroke-dasharray="6,2" d="M691.1744 260.5 L693.8002 285.0454" clip-path="url(#clipPath2)"/>
      <path stroke-dasharray="6,2" d="M694.6512 293 L698.3464 280.5362 L693.6938 284.0511 L688.4031 281.5999 Z" clip-path="url(#clipPath2)" stroke="none"/>
      <path fill="none" stroke-dasharray="6,2" d="M861.3084 261 L829.7904 303.1553" clip-path="url(#clipPath2)"/>
      <path stroke-dasharray="6,2" d="M825 309.5625 L836.1901 302.9457 L830.3892 302.3544 L828.1812 296.9577 Z" clip-path="url(#clipPath2)" stroke="none"/>
    </g>
  </g>
</svg>
