<?xml version="1.0" encoding="UTF-8"?><svg xmlns="http://www.w3.org/2000/svg" xmlns:xlink="http://www.w3.org/1999/xlink" fill-opacity="1" color-rendering="auto" color-interpolation="auto" text-rendering="auto" stroke="black" stroke-linecap="square" width="837" stroke-miterlimit="10" shape-rendering="auto" stroke-opacity="1" fill="black" stroke-dasharray="none" font-weight="normal" stroke-width="1" height="127" font-family="'Dialog'" font-style="normal" stroke-linejoin="miter" font-size="12px" stroke-dashoffset="0" image-rendering="auto">
  <!--Generated by ySVG 2.6-->
  <defs id="genericDefs"/>
  <g>
    <defs id="defs1">
      <clipPath clipPathUnits="userSpaceOnUse" id="clipPath1">
        <path d="M0 0 L837 0 L837 127 L0 127 L0 0 Z"/>
      </clipPath>
      <clipPath clipPathUnits="userSpaceOnUse" id="clipPath2">
        <path d="M253 364 L1090 364 L1090 491 L253 491 L253 364 Z"/>
      </clipPath>
    </defs>
    <g fill="rgb(255,204,0)" text-rendering="geometricPrecision" shape-rendering="geometricPrecision" transform="matrix(1,0,0,1,-253,-364)" stroke="rgb(255,204,0)">
      <rect x="659.3223" width="197.1875" height="69.0625" y="393.791" clip-path="url(#clipPath2)" stroke="none"/>
    </g>
    <g text-rendering="geometricPrecision" stroke-miterlimit="1.45" shape-rendering="geometricPrecision" transform="matrix(1,0,0,1,-253,-364)" stroke-linecap="butt">
      <rect fill="none" x="659.3223" width="197.1875" height="69.0625" y="393.791" clip-path="url(#clipPath2)"/>
      <text x="707.5078" font-size="24px" y="434.709" clip-path="url(#clipPath2)" font-family="'Courier New'" stroke="none" xml:space="preserve">suma(L)</text>
      <rect fill="none" x="936.2549" width="138.1875" height="94.4844" y="381.291" clip-path="url(#clipPath2)"/>
      <text x="988.0049" font-size="24px" y="437.9609" clip-path="url(#clipPath2)" font-family="sans-serif" stroke="none" xml:space="preserve">-10</text>
    </g>
    <g transform="matrix(1,0,0,1,-253,-364)" fill-opacity="0.498" fill="rgb(255,102,0)" text-rendering="geometricPrecision" shape-rendering="geometricPrecision" stroke="rgb(255,102,0)" stroke-opacity="0.498">
      <rect x="334.875" width="50" height="50" y="393.3223" clip-path="url(#clipPath2)" stroke="none"/>
    </g>
    <g text-rendering="geometricPrecision" stroke-miterlimit="1.45" shape-rendering="geometricPrecision" transform="matrix(1,0,0,1,-253,-364)" stroke-linecap="butt">
      <rect fill="none" x="334.875" width="50" height="50" y="393.3223" clip-path="url(#clipPath2)"/>
      <text x="354.3135" font-size="20px" y="426.1787" clip-path="url(#clipPath2)" font-family="sans-serif" stroke="none" xml:space="preserve">7</text>
    </g>
    <g transform="matrix(1,0,0,1,-253,-364)" fill-opacity="0.498" fill="rgb(255,102,0)" text-rendering="geometricPrecision" shape-rendering="geometricPrecision" stroke="rgb(255,102,0)" stroke-opacity="0.498">
      <rect x="384.875" width="25" height="50" y="393.3223" clip-path="url(#clipPath2)" stroke="none"/>
    </g>
    <g text-rendering="geometricPrecision" stroke-miterlimit="1.45" shape-rendering="geometricPrecision" transform="matrix(1,0,0,1,-253,-364)" stroke-linecap="butt">
      <rect fill="none" x="384.875" width="25" height="50" y="393.3223" clip-path="url(#clipPath2)"/>
    </g>
    <g transform="matrix(1,0,0,1,-253,-364)" fill-opacity="0.498" fill="rgb(181,35,196)" text-rendering="geometricPrecision" shape-rendering="geometricPrecision" stroke="rgb(181,35,196)" stroke-opacity="0.498">
      <rect x="439.875" width="50" height="50" y="393.3223" clip-path="url(#clipPath2)" stroke="none"/>
    </g>
    <g text-rendering="geometricPrecision" stroke-miterlimit="1.45" shape-rendering="geometricPrecision" transform="matrix(1,0,0,1,-253,-364)" stroke-linecap="butt">
      <rect fill="none" x="439.875" width="50" height="50" y="393.3223" clip-path="url(#clipPath2)"/>
      <text x="450.4219" font-size="20px" y="426.1787" clip-path="url(#clipPath2)" font-family="sans-serif" stroke="none" xml:space="preserve">-17</text>
    </g>
    <g transform="matrix(1,0,0,1,-253,-364)" fill-opacity="0.498" fill="rgb(181,35,196)" text-rendering="geometricPrecision" shape-rendering="geometricPrecision" stroke="rgb(181,35,196)" stroke-opacity="0.498">
      <rect x="489.875" width="25" height="50" y="393.3223" clip-path="url(#clipPath2)" stroke="none"/>
    </g>
    <g text-rendering="geometricPrecision" stroke-miterlimit="1.45" shape-rendering="geometricPrecision" transform="matrix(1,0,0,1,-253,-364)" stroke-linecap="butt">
      <rect fill="none" x="489.875" width="25" height="50" y="393.3223" clip-path="url(#clipPath2)"/>
      <circle fill="none" r="10" clip-path="url(#clipPath2)" cx="527.375" cy="453.3223"/>
      <text x="523.2075" font-size="10px" y="457.2505" clip-path="url(#clipPath2)" font-family="sans-serif" stroke="none" xml:space="preserve">///</text>
    </g>
    <g transform="matrix(1,0,0,1,-253,-364)" fill-opacity="0.498" fill="rgb(255,0,0)" text-rendering="geometricPrecision" shape-rendering="geometricPrecision" stroke="rgb(255,0,0)" stroke-opacity="0.498">
      <rect x="274.875" width="30" height="30" y="403.3223" clip-path="url(#clipPath2)" stroke="none"/>
    </g>
    <g text-rendering="geometricPrecision" stroke-miterlimit="1.45" shape-rendering="geometricPrecision" transform="matrix(1,0,0,1,-253,-364)" stroke-linecap="butt">
      <rect fill="none" x="274.875" width="30" height="30" y="403.3223" clip-path="url(#clipPath2)"/>
      <text x="284.8262" font-size="20px" y="423.1953" clip-path="url(#clipPath2)" font-family="'Corbel Light'" stroke="none" xml:space="preserve">L</text>
      <rect fill="none" x="268.3686" width="299.22" height="94.0625" y="379.9803" clip-path="url(#clipPath2)"/>
      <path fill="none" d="M567.375 428.3223 L645.5723 428.3223" stroke-width="3" clip-path="url(#clipPath2)"/>
      <path d="M659.3223 428.3223 L644.3223 420.8223 L644.3223 435.8223 Z" stroke-width="3" clip-path="url(#clipPath2)" stroke="none"/>
      <path fill="none" d="M856.5098 428.4063 L922.5049 428.4626" stroke-width="3" clip-path="url(#clipPath2)"/>
      <path d="M936.2549 428.4743 L921.2613 420.9615 L921.2485 435.9615 Z" stroke-width="3" clip-path="url(#clipPath2)" stroke="none"/>
      <path fill="none" d="M402.375 418.3223 L424.75 418.3223" stroke-width="4" clip-path="url(#clipPath2)"/>
      <path d="M439.875 418.3223 L423.375 410.0723 L423.375 426.5723 Z" stroke-width="4" clip-path="url(#clipPath2)" stroke="none"/>
      <path fill="none" d="M507.375 418.3223 L527.375 418.3223 L527.375 428.1973" stroke-width="4" clip-path="url(#clipPath2)"/>
      <path d="M527.375 443.3223 L535.625 426.8223 L519.125 426.8223 Z" stroke-width="4" clip-path="url(#clipPath2)" stroke="none"/>
      <path fill="none" d="M304.875 418.3223 L319.75 418.3223" stroke-width="4" clip-path="url(#clipPath2)"/>
      <path d="M334.875 418.3223 L318.375 410.0723 L318.375 426.5723 Z" stroke-width="4" clip-path="url(#clipPath2)" stroke="none"/>
    </g>
  </g>
</svg>
