<?xml version="1.0" encoding="UTF-8"?><svg xmlns="http://www.w3.org/2000/svg" xmlns:xlink="http://www.w3.org/1999/xlink" fill-opacity="1" color-rendering="auto" color-interpolation="auto" text-rendering="auto" stroke="black" stroke-linecap="square" width="188" stroke-miterlimit="10" shape-rendering="auto" stroke-opacity="1" fill="black" stroke-dasharray="none" font-weight="normal" stroke-width="1" height="91" font-family="'Dialog'" font-style="normal" stroke-linejoin="miter" font-size="12px" stroke-dashoffset="0" image-rendering="auto">
  <!--Generated by ySVG 2.6-->
  <defs id="genericDefs"/>
  <g>
    <defs id="defs1">
      <clipPath clipPathUnits="userSpaceOnUse" id="clipPath1">
        <path d="M0 0 L188 0 L188 91 L0 91 L0 0 Z"/>
      </clipPath>
      <clipPath clipPathUnits="userSpaceOnUse" id="clipPath2">
        <path d="M232 364 L420 364 L420 455 L232 455 L232 364 Z"/>
      </clipPath>
    </defs>
    <g text-rendering="geometricPrecision" stroke-miterlimit="1.45" shape-rendering="geometricPrecision" transform="matrix(1,0,0,1,-232,-364)" stroke-linecap="butt">
      <circle fill="none" r="10" clip-path="url(#clipPath2)" cx="394.5" cy="429.2266"/>
    </g>
    <g font-size="10px" stroke-linecap="butt" transform="matrix(1,0,0,1,-232,-364)" text-rendering="geometricPrecision" font-family="sans-serif" shape-rendering="geometricPrecision" stroke-miterlimit="1.45">
      <text x="390.3325" xml:space="preserve" y="433.1548" clip-path="url(#clipPath2)" stroke="none">///</text>
    </g>
    <g transform="matrix(1,0,0,1,-232,-364)" fill-opacity="0.498" fill="rgb(255,0,0)" text-rendering="geometricPrecision" shape-rendering="geometricPrecision" stroke="rgb(255,0,0)" stroke-opacity="0.498">
      <rect x="247" width="130" height="40" y="379.2266" clip-path="url(#clipPath2)" stroke="none"/>
    </g>
    <g text-rendering="geometricPrecision" stroke-miterlimit="1.45" shape-rendering="geometricPrecision" transform="matrix(1,0,0,1,-232,-364)" stroke-linecap="butt">
      <rect fill="none" x="247" width="130" height="40" y="379.2266" clip-path="url(#clipPath2)"/>
      <text x="251.9902" font-size="20px" y="404.5488" clip-path="url(#clipPath2)" font-family="'Courier New'" stroke="none" xml:space="preserve">listaVacia</text>
      <path fill="none" d="M377 399.2266 L394.5 399.2266 L394.5 405.4766" stroke-width="3" clip-path="url(#clipPath2)"/>
      <path d="M394.5 419.2266 L402 404.2266 L387 404.2266 Z" stroke-width="3" clip-path="url(#clipPath2)" stroke="none"/>
    </g>
  </g>
</svg>
