<svg width="2848" height="1492" xmlns="http://www.w3.org/2000/svg" xmlns:xlink="http://www.w3.org/1999/xlink" xml:space="preserve" overflow="hidden"><defs><clipPath id="clip0"><rect x="138" y="749" width="2848" height="1492"/></clipPath></defs><g clip-path="url(#clip0)" transform="translate(-138 -749)"><path d="M198.688 2125.5C230.824 2125.5 256.875 2099.45 256.875 2067.31L198.688 2067.31C214.756 2067.31 227.781 2054.29 227.781 2038.22 227.781 2022.15 214.756 2009.12 198.688 2009.12L256.875 2009.12 256.875 1188.69C256.875 1156.55 282.927 1130.5 315.063 1130.5L1013.31 1130.5C1045.45 1130.5 1071.5 1156.55 1071.5 1188.69 1071.5 1220.82 1045.45 1246.88 1013.31 1246.88L955.125 1246.88 955.125 2067.31C955.125 2099.45 929.074 2125.5 896.938 2125.5ZM373.25 1188.69C373.25 1220.82 347.199 1246.88 315.063 1246.88 298.995 1246.88 285.969 1233.85 285.969 1217.78 285.969 1201.71 298.995 1188.69 315.063 1188.69Z" fill="#E2F0D9" fill-rule="evenodd"/><path d="M373.25 1188.69C373.25 1220.82 347.199 1246.88 315.063 1246.88 298.995 1246.88 285.969 1233.85 285.969 1217.78 285.969 1201.71 298.995 1188.69 315.063 1188.69ZM256.875 2067.31C256.875 2099.45 230.824 2125.5 198.688 2125.5 166.552 2125.5 140.5 2099.45 140.5 2067.31 140.5 2035.18 166.552 2009.12 198.688 2009.12 214.756 2009.12 227.781 2022.15 227.781 2038.22 227.781 2054.29 214.756 2067.31 198.688 2067.31Z" fill="#B6C1AE" fill-rule="evenodd"/><path d="M256.875 2009.12 256.875 1188.69C256.875 1156.55 282.927 1130.5 315.063 1130.5L1013.31 1130.5C1045.45 1130.5 1071.5 1156.55 1071.5 1188.69 1071.5 1220.82 1045.45 1246.88 1013.31 1246.88L955.125 1246.88 955.125 2067.31C955.125 2099.45 929.074 2125.5 896.938 2125.5L198.688 2125.5C166.552 2125.5 140.5 2099.45 140.5 2067.31 140.5 2035.18 166.552 2009.12 198.688 2009.12ZM315.063 1130.5C347.199 1130.5 373.25 1156.55 373.25 1188.69 373.25 1220.82 347.199 1246.88 315.063 1246.88 298.995 1246.88 285.969 1233.85 285.969 1217.78 285.969 1201.71 298.995 1188.69 315.063 1188.69L373.25 1188.69M955.125 1246.88 315.063 1246.88M198.688 2009.12C214.756 2009.12 227.781 2022.15 227.781 2038.22 227.781 2054.29 214.756 2067.31 198.688 2067.31L256.875 2067.31M198.688 2125.5C230.824 2125.5 256.875 2099.45 256.875 2067.31L256.875 2009.12" stroke="#000000" stroke-width="4.58333" stroke-miterlimit="8" fill="none" fill-rule="evenodd"/><text font-family="Calibri,Calibri_MSFontService,sans-serif" font-weight="400" font-size="83" transform="matrix(1 0 0 1 289.298 1982)">Programa Principal</text><path d="M1372.19 927.796C1363.08 865.747 1409.99 808.603 1476.97 800.163 1504.11 796.742 1531.71 801.855 1555.34 814.683 1580.39 770.951 1638.91 754.331 1686.05 777.561 1694.3 781.622 1701.86 786.771 1708.52 792.845 1728.02 756.595 1775.53 741.868 1814.63 759.95 1825.45 764.955 1834.89 772.193 1842.22 781.109 1873.66 746.828 1929.21 742.594 1966.3 771.651 1981.89 783.863 1992.39 800.708 1996.02 819.296 2047.52 832.317 2077.91 881.636 2063.89 929.453 2062.71 933.473 2061.23 937.412 2059.46 941.241 2100.77 991.067 2090.66 1062.48 2036.87 1100.75 2020.13 1112.66 2000.35 1120.38 1979.45 1123.14 1978.99 1176.75 1931.67 1219.86 1873.76 1219.43 1854.42 1219.28 1835.49 1214.19 1819.08 1204.7 1799.49 1264.8 1731.17 1298.77 1666.48 1280.57 1639.37 1272.94 1615.95 1256.82 1600.21 1234.94 1533.98 1271.95 1448.01 1252.04 1408.19 1190.47 1407.69 1189.69 1407.2 1188.91 1406.71 1188.13 1363.37 1192.83 1324.1 1164.17 1319.02 1124.12 1316.3 1102.77 1323.91 1081.41 1339.81 1065.71 1302.28 1045.24 1289.67 1000.31 1311.65 965.352 1324.33 945.185 1346.57 931.854 1371.53 929.457Z" stroke="#000000" stroke-width="4.58333" stroke-miterlimit="8" fill="#FFF2CC" fill-rule="evenodd"/><path d="M1386.56 1073.47C1370.54 1074.63 1354.52 1071.2 1340.65 1063.64M1427.07 1181.08C1420.63 1183.46 1413.87 1185.04 1406.98 1185.79M1600.16 1232.79C1595.32 1226.06 1591.26 1218.86 1588.06 1211.32M1823.99 1179.26C1823.28 1187.25 1821.66 1195.14 1819.16 1202.81M1920.09 1033.71C1956.42 1050.09 1979.34 1084.34 1979.02 1121.74M2059.09 939.937C2053.21 952.675 2044.22 963.974 2032.85 972.95M1996.12 817.446C1997.12 822.589 1997.59 827.811 1997.51 833.037M1828.54 799.26C1831.96 792.067 1836.49 785.369 1841.98 779.376M1702.81 808.735C1704.2 802.791 1706.39 797.031 1709.32 791.587M1555.25 814.559C1563.8 819.2 1571.71 824.786 1578.81 831.195M1376.3 945.304C1374.44 939.579 1373.06 933.726 1372.19 927.801" stroke="#000000" stroke-width="4.58333" stroke-miterlimit="8" fill="none" fill-rule="evenodd"/><text font-family="Calibri,Calibri_MSFontService,sans-serif" font-weight="400" font-size="83" transform="matrix(1 0 0 1 1532.97 988)">Módulo <tspan font-family="Courier New,Courier New_MSFontService,sans-serif" font-size="73" x="-22.6188" y="87">math.py</tspan></text><path d="M2270.19 1272.8C2261.08 1210.75 2307.99 1153.6 2374.97 1145.16 2402.11 1141.74 2429.71 1146.86 2453.34 1159.68 2478.39 1115.95 2536.91 1099.33 2584.05 1122.56 2592.3 1126.62 2599.86 1131.77 2606.52 1137.84 2626.02 1101.6 2673.53 1086.87 2712.63 1104.95 2723.45 1109.96 2732.89 1117.19 2740.22 1126.11 2771.66 1091.83 2827.21 1087.59 2864.3 1116.65 2879.89 1128.86 2890.39 1145.71 2894.02 1164.3 2945.52 1177.32 2975.91 1226.64 2961.89 1274.45 2960.71 1278.47 2959.23 1282.41 2957.46 1286.24 2998.77 1336.07 2988.66 1407.48 2934.87 1445.75 2918.13 1457.66 2898.35 1465.38 2877.45 1468.14 2876.99 1521.75 2829.67 1564.85 2771.76 1564.42 2752.42 1564.28 2733.49 1559.19 2717.08 1549.7 2697.49 1609.8 2629.17 1643.77 2564.48 1625.57 2537.37 1617.94 2513.95 1601.82 2498.21 1579.94 2431.98 1616.95 2346.01 1597.04 2306.19 1535.47 2305.69 1534.69 2305.2 1533.91 2304.71 1533.13 2261.37 1537.83 2222.1 1509.17 2217.02 1469.12 2214.3 1447.77 2221.91 1426.41 2237.81 1410.71 2200.28 1390.24 2187.67 1345.31 2209.65 1310.35 2222.33 1290.19 2244.57 1276.85 2269.53 1274.46Z" stroke="#000000" stroke-width="4.58333" stroke-miterlimit="8" fill="#FFF2CC" fill-rule="evenodd"/><path d="M2284.56 1418.47C2268.54 1419.63 2252.52 1416.2 2238.65 1408.64M2325.07 1526.08C2318.63 1528.46 2311.87 1530.04 2304.98 1530.79M2498.16 1577.79C2493.32 1571.06 2489.26 1563.86 2486.06 1556.32M2721.99 1524.26C2721.28 1532.24 2719.66 1540.14 2717.16 1547.81M2818.09 1378.71C2854.42 1395.09 2877.34 1429.34 2877.02 1466.74M2957.09 1284.94C2951.21 1297.67 2942.22 1308.97 2930.85 1317.95M2894.12 1162.45C2895.12 1167.59 2895.59 1172.81 2895.51 1178.04M2726.54 1144.26C2729.96 1137.07 2734.49 1130.37 2739.98 1124.38M2600.81 1153.74C2602.2 1147.79 2604.39 1142.03 2607.32 1136.59M2453.25 1159.56C2461.8 1164.2 2469.71 1169.79 2476.81 1176.19M2274.3 1290.3C2272.44 1284.58 2271.06 1278.73 2270.19 1272.8" stroke="#000000" stroke-width="4.58333" stroke-miterlimit="8" fill="none" fill-rule="evenodd"/><text font-family="Calibri,Calibri_MSFontService,sans-serif" font-weight="400" font-size="83" transform="matrix(1 0 0 1 2430.63 1332)">Módulo<tspan font-family="Courier New,Courier New_MSFontService,sans-serif" font-size="73" x="-66.7334" y="87">random.py</tspan></text><path d="M1742.64 1880.8C1731.79 1818.75 1787.63 1761.6 1867.36 1753.16 1899.67 1749.74 1932.52 1754.86 1960.65 1767.68 1990.46 1723.95 2060.11 1707.33 2116.23 1730.56 2126.04 1734.62 2135.05 1739.77 2142.97 1745.85 2166.18 1709.6 2222.73 1694.87 2269.27 1712.95 2282.15 1717.96 2293.39 1725.19 2302.12 1734.11 2339.54 1699.83 2405.66 1695.59 2449.81 1724.65 2468.36 1736.86 2480.87 1753.71 2485.18 1772.3 2546.49 1785.32 2582.66 1834.64 2565.96 1882.45 2564.56 1886.47 2562.8 1890.41 2560.69 1894.24 2609.86 1944.07 2597.83 2015.48 2533.81 2053.75 2513.88 2065.66 2490.34 2073.38 2465.46 2076.14 2464.91 2129.75 2408.59 2172.85 2339.66 2172.43 2316.63 2172.28 2294.1 2167.19 2274.57 2157.7 2251.26 2217.8 2169.94 2251.77 2092.94 2233.57 2060.67 2225.94 2032.79 2209.82 2014.05 2187.94 1935.21 2224.95 1832.89 2205.04 1785.5 2143.47 1784.9 2142.69 1784.31 2141.91 1783.74 2141.13 1732.14 2145.83 1685.41 2117.17 1679.35 2077.12 1676.12 2055.77 1685.18 2034.41 1704.1 2018.71 1659.42 1998.24 1644.42 1953.31 1670.58 1918.35 1685.67 1898.19 1712.14 1884.85 1741.85 1882.46Z" stroke="#000000" stroke-width="4.58333" stroke-miterlimit="8" fill="#DEEBF7" fill-rule="evenodd"/><path d="M1759.75 2026.47C1740.68 2027.63 1721.61 2024.2 1705.1 2016.64M1807.97 2134.08C1800.3 2136.46 1792.26 2138.04 1784.05 2138.79M2014 2185.79C2008.23 2179.06 2003.4 2171.86 1999.59 2164.32M2280.42 2132.26C2279.57 2140.25 2277.64 2148.14 2274.66 2155.81M2394.8 1986.71C2438.04 2003.09 2465.33 2037.34 2464.95 2074.74M2560.25 1892.94C2553.25 1905.67 2542.56 1916.97 2529.02 1925.95M2485.3 1770.45C2486.5 1775.59 2487.05 1780.81 2486.95 1786.04M2285.83 1752.26C2289.9 1745.07 2295.29 1738.37 2301.83 1732.38M2136.17 1761.74C2137.83 1755.79 2140.44 1750.03 2143.92 1744.59M1960.54 1767.56C1970.72 1772.2 1980.13 1777.79 1988.58 1784.2M1747.54 1898.3C1745.31 1892.58 1743.68 1886.73 1742.64 1880.8" stroke="#000000" stroke-width="4.58333" stroke-miterlimit="8" fill="none" fill-rule="evenodd"/><text font-family="Calibri,Calibri_MSFontService,sans-serif" font-weight="400" font-size="83" transform="matrix(1 0 0 1 1839.77 1940)">Módulo propio<tspan font-family="Courier New,Courier New_MSFontService,sans-serif" font-size="73" x="-13.2688" y="87">triangulo.py</tspan><tspan fill="#FF7700" font-family="Courier New,Courier New_MSFontService,sans-serif" font-size="64" x="-1546" y="-586">import</tspan><tspan font-family="Courier New,Courier New_MSFontService,sans-serif" font-size="64" x="-1277.3" y="-586">math</tspan></text><path d="M3.45649-5.94292 15.3423 0.970073 8.42934 12.8559-3.45649 5.94292ZM27.2282 7.88306 39.114 14.7961 32.201 26.6819 20.3152 19.7689ZM50.9998 21.709 62.8857 28.622 55.9727 40.5079 44.0868 33.5949ZM74.7715 35.535 86.6573 42.448 79.7443 54.3338 67.8585 47.4209ZM98.5432 49.361 110.429 56.274 103.516 68.1598 91.6302 61.2468ZM122.315 63.187 134.201 70.1 127.288 81.9858 115.402 75.0728ZM146.087 77.013 157.972 83.926 151.059 95.8118 139.174 88.8988ZM169.858 90.839 181.744 97.7519 174.831 109.638 162.945 102.725ZM193.63 104.665 205.516 111.578 198.603 123.464 186.717 116.551ZM217.402 118.491 229.287 125.404 222.374 137.29 210.489 130.377ZM241.173 132.317 253.059 139.23 246.146 151.116 234.26 144.203ZM264.945 146.143 276.831 153.056 269.918 164.942 258.032 158.029ZM288.716 159.969 300.602 166.882 293.689 178.768 281.804 171.855ZM312.488 173.795 324.374 180.708 317.461 192.594 305.575 185.681ZM336.26 187.621 348.146 194.534 341.233 206.42 329.347 199.507ZM360.031 201.447 371.917 208.36 365.004 220.246 353.119 213.333ZM383.803 215.273 395.689 222.186 388.776 234.072 376.89 227.159ZM407.575 229.099 419.461 236.012 412.548 247.898 400.662 240.985ZM431.347 242.925 443.232 249.838 436.319 261.724 424.434 254.811ZM455.118 256.751 467.004 263.664 460.091 275.55 448.205 268.637ZM478.89 270.577 490.776 277.49 483.863 289.376 471.977 282.463ZM502.662 284.403 514.547 291.316 507.634 303.202 495.749 296.289ZM-10.3695 17.8288C-20.216 12.1019-23.5557-0.522926-17.8288-10.3695-12.1019-20.216 0.522926-23.5557 10.3695-17.8288 20.216-12.1019 23.5557 0.522926 17.8288 10.3695 12.1019 20.216-0.522926 23.5557-10.3695 17.8288ZM524.3 281.082 549.588 319.649 503.561 316.739Z" fill="#0000FF" transform="matrix(-1 0 0 1 1303.59 1017)"/><text fill="#FF7700" font-family="Courier New,Courier New_MSFontService,sans-serif" font-weight="400" font-size="64" transform="matrix(1 0 0 1 292.932 1466)">import<tspan fill="#000000" font-size="64" x="268.698" y="0">random</tspan></text><path d="M0.433735-6.8613 14.1563-5.99383 13.2889 7.72878-0.433735 6.8613ZM27.879-5.12636 41.6016-4.25889 40.7341 9.46372 27.0115 8.59624ZM55.3242-3.39142 69.0468-2.52395 68.1793 11.1987 54.4567 10.3312ZM82.7694-1.65648 96.492-0.789012 95.6245 12.9336 81.9019 12.0661ZM110.215 0.0784589 123.937 0.945929 123.07 14.6685 109.347 13.8011ZM137.66 1.8134 151.382 2.68087 150.515 16.4035 136.792 15.536ZM165.105 3.54834 178.828 4.41581 177.96 18.1384 164.238 17.2709ZM192.55 5.28328 206.273 6.15075 205.405 19.8734 191.683 19.0059ZM219.995 7.01822 233.718 7.88569 232.851 21.6083 219.128 20.7408ZM247.441 8.75316 261.163 9.62063 260.296 23.3432 246.573 22.4758ZM274.886 10.4881 288.609 11.3556 287.741 25.0782 274.018 24.2107ZM302.331 12.223 316.054 13.0905 315.186 26.8131 301.464 25.9457ZM329.776 13.958 343.499 14.8255 342.632 28.5481 328.909 27.6806ZM357.222 15.6929 370.944 16.5604 370.077 30.283 356.354 29.4155ZM384.667 17.4279 398.39 18.2953 397.522 32.0179 383.799 31.1505ZM412.112 19.1628 425.835 20.0303 424.967 33.7529 411.245 32.8854ZM439.557 20.8977 453.28 21.7652 452.412 35.4878 438.69 34.6203ZM467.003 22.6327 480.725 23.5002 479.858 37.2228 466.135 36.3553ZM494.448 24.3676 508.17 25.2351 507.303 38.9577 493.58 38.0902ZM521.893 26.1026 535.616 26.97 534.748 40.6926 521.026 39.8252ZM549.338 27.8375 563.061 28.705 562.193 42.4276 548.471 41.5601ZM576.784 29.5724 590.506 30.4399 589.639 44.1625 575.916 43.295ZM604.229 31.3074 617.951 32.1748 617.084 45.8975 603.361 45.03ZM631.674 33.0423 645.397 33.9098 644.529 47.6324 630.807 46.7649ZM659.119 34.7773 672.842 35.6447 671.974 49.3673 658.252 48.4999ZM686.564 36.5122 700.287 37.3797 699.42 51.1023 685.697 50.2348ZM714.01 38.2471 727.732 39.1146 726.865 52.8372 713.142 51.9697ZM741.455 39.9821 755.178 40.8496 754.31 54.5722 740.587 53.7047ZM768.9 41.717 782.623 42.5845 781.755 56.3071 768.033 55.4396ZM796.345 43.452 810.068 44.3194 809.2 58.042 795.478 57.1746ZM823.79 45.1869 837.513 46.0544 836.646 59.777 822.923 58.9095ZM851.236 46.9219 864.958 47.7893 864.091 61.5119 850.368 60.6445ZM878.681 48.6568 892.403 49.5243 891.536 63.2469 877.813 62.3794ZM906.126 50.3917 919.848 51.2592 918.981 64.9818 905.258 64.1144ZM933.571 52.1267 947.294 52.9942 946.426 66.7168 932.704 65.8493ZM961.016 53.8616 974.739 54.7291 973.871 68.4517 960.149 67.5842ZM988.461 55.5966 1002.18 56.4641 1001.32 70.1867 987.594 69.3192ZM1015.91 57.3315 1029.63 58.199 1028.76 71.9216 1015.04 71.0541ZM1043.35 59.0665 1057.07 59.9339 1056.21 73.6565 1042.48 72.7891ZM1070.8 60.8014 1084.52 61.6689 1083.65 75.3915 1069.93 74.524ZM1098.24 62.5363 1111.96 63.4038 1111.1 77.1264 1097.37 76.2589ZM1125.69 64.2713 1139.41 65.1388 1138.54 78.8614 1124.82 77.9939ZM1153.13 66.0062 1166.86 66.8737 1165.99 80.5963 1152.27 79.7288ZM1180.58 67.7412 1194.3 68.6086 1193.43 82.3312 1179.71 81.4638ZM1208.02 69.4761 1221.75 70.3436 1220.88 84.0662 1207.16 83.1987ZM1235.47 71.211 1249.19 72.0785 1248.32 85.8011 1234.6 84.9336ZM1262.91 72.946 1276.64 73.8134 1275.77 87.5361 1262.05 86.6686ZM1290.36 74.6809 1304.08 75.5484 1303.21 89.271 1289.49 88.4035ZM1317.8 76.4159 1331.53 77.2833 1330.66 91.0059 1316.94 90.1385ZM-1.3012 20.5839C-12.6694 19.8653-21.3025 10.067-20.5839-1.3012-19.8653-12.6694-10.067-21.3025 1.3012-20.5839 12.6694-19.8653 21.3025-10.067 20.5839 1.3012 19.8653 12.6694 10.067 21.3025-1.3012 20.5839ZM1330.7 63.4535 1370.56 86.6398 1328.1 104.621Z" fill="#0000FF" transform="matrix(-1 0 0 1 2200.56 1361)"/><text fill="#FF7700" font-family="Courier New,Courier New_MSFontService,sans-serif" font-weight="400" font-size="64" transform="matrix(1 0 0 1 292.932 1576)">import<tspan fill="#000000" font-size="64" x="268.698" y="0">triangulo</tspan></text><path d="M1658.11 1975.01 1646.19 1968.16 1653.05 1956.24 1664.96 1963.09ZM1634.27 1961.3 1622.35 1954.44 1629.21 1942.52 1641.13 1949.38ZM1610.43 1947.59 1598.51 1940.73 1605.37 1928.81 1617.29 1935.67ZM1586.6 1933.87 1574.68 1927.02 1581.53 1915.1 1593.45 1921.96ZM1562.76 1920.16 1550.84 1913.3 1557.7 1901.39 1569.62 1908.24ZM1538.92 1906.45 1527 1899.59 1533.86 1887.67 1545.78 1894.53ZM1515.09 1892.74 1503.17 1885.88 1510.02 1873.96 1521.94 1880.82ZM1491.25 1879.02 1479.33 1872.17 1486.19 1860.25 1498.1 1867.1ZM1467.41 1865.31 1455.49 1858.45 1462.35 1846.53 1474.27 1853.39ZM1443.57 1851.6 1431.66 1844.74 1438.51 1832.82 1450.43 1839.68ZM1419.74 1837.88 1407.82 1831.03 1414.67 1819.11 1426.59 1825.97ZM1395.9 1824.17 1383.98 1817.31 1390.84 1805.4 1402.76 1812.25ZM1372.06 1810.46 1360.14 1803.6 1367 1791.68 1378.92 1798.54ZM1348.23 1796.75 1336.31 1789.89 1343.16 1777.97 1355.08 1784.83ZM1324.39 1783.03 1312.47 1776.18 1319.33 1764.26 1331.24 1771.11ZM1300.55 1769.32 1288.63 1762.46 1295.49 1750.54 1307.41 1757.4ZM1276.71 1755.61 1264.8 1748.75 1271.65 1736.83 1283.57 1743.69ZM1252.88 1741.89 1240.96 1735.04 1247.81 1723.12 1259.73 1729.98ZM1229.04 1728.18 1217.12 1721.32 1223.98 1709.41 1235.9 1716.26ZM1205.2 1714.47 1193.28 1707.61 1200.14 1695.69 1212.06 1702.55ZM1181.37 1700.76 1169.45 1693.9 1176.3 1681.98 1188.22 1688.84ZM1157.53 1687.04 1145.61 1680.19 1152.47 1668.27 1164.38 1675.12ZM1133.69 1673.33 1121.77 1666.47 1128.63 1654.55 1140.55 1661.41ZM1109.85 1659.62 1097.94 1652.76 1104.79 1640.84 1116.71 1647.7ZM1086.02 1645.9 1074.1 1639.05 1080.95 1627.13 1092.87 1633.99ZM1062.18 1632.19 1050.26 1625.33 1057.12 1613.42 1069.04 1620.27ZM1038.34 1618.48 1026.42 1611.62 1033.28 1599.7 1045.2 1606.56ZM1014.51 1604.77 1002.59 1597.91 1009.44 1585.99 1021.36 1592.85ZM990.669 1591.05 978.75 1584.2 985.606 1572.28 997.525 1579.13ZM1671.82 1951.18C1681.69 1956.86 1685.09 1969.46 1679.41 1979.34 1673.73 1989.21 1661.12 1992.61 1651.25 1986.93 1641.38 1981.25 1637.98 1968.64 1643.66 1958.77 1649.34 1948.89 1661.95 1945.5 1671.82 1951.18ZM972.471 1596.45 947 1558 993.04 1560.69Z" fill="#0000FF"/></g></svg>