<svg width="3256" height="1957" xmlns="http://www.w3.org/2000/svg" xmlns:xlink="http://www.w3.org/1999/xlink" xml:space="preserve" overflow="hidden"><defs><clipPath id="clip0"><rect x="39" y="529" width="3256" height="1957"/></clipPath></defs><g clip-path="url(#clip0)" transform="translate(-39 -529)"><path d="M41.5001 2213.5C41.5001 2156.06 92.7635 2109.5 156 2109.5 219.237 2109.5 270.5 2156.06 270.5 2213.5 270.5 2270.94 219.237 2317.5 156 2317.5 92.7635 2317.5 41.5001 2270.94 41.5001 2213.5Z" stroke="#000000" stroke-width="4.58333" stroke-miterlimit="8" fill="#FFF2CC" fill-rule="evenodd"/><path d="M141.742 2196.91 128.839 2229.38C130.312 2230.02 131.976 2230.34 133.829 2230.34 137.916 2230.34 141.011 2228.79 143.114 2225.69 145.218 2222.59 146.269 2218.04 146.269 2212.02 146.269 2205.06 144.76 2200.02 141.742 2196.91ZM133.508 2193.7C129.421 2193.7 126.332 2195.25 124.241 2198.34 122.15 2201.43 121.104 2205.99 121.104 2212.02 121.104 2219.03 122.601 2224.08 125.595 2227.17L138.499 2194.66C136.954 2194.02 135.291 2193.7 133.508 2193.7ZM143.132 2183.01 147.267 2183.01 143.881 2191.49C146.614 2193.27 148.693 2195.92 150.119 2199.44 151.544 2202.96 152.257 2207.15 152.257 2212.02 152.257 2216.78 151.55 2220.9 150.136 2224.41 148.723 2227.92 146.608 2230.61 143.792 2232.48 140.976 2234.36 137.548 2235.3 133.508 2235.3 131.084 2235.3 128.886 2234.95 126.914 2234.27L124.241 2241 120.106 2241 123.457 2232.59C120.748 2230.81 118.68 2228.17 117.254 2224.68 115.829 2221.18 115.116 2216.97 115.116 2212.02 115.116 2207.27 115.823 2203.14 117.237 2199.64 118.65 2196.13 120.765 2193.44 123.581 2191.56 126.397 2189.69 129.825 2188.75 133.865 2188.75 136.312 2188.75 138.499 2189.09 140.423 2189.78Z" fill-rule="evenodd"/><text fill="#000000" fill-opacity="0" font-family="Arial,Arial_MSFontService,sans-serif" font-size="57.9937" x="115.116" y="2233.75">∅</text><path d="M270 2206.12 336.526 2206.13 336.526 2219.88 270 2219.88ZM329.651 2192.38 370.901 2213 329.651 2233.63Z" fill="#70AD47"/><rect x="1349.5" y="1771.5" width="318" height="330" stroke="#000000" stroke-width="4.58333" stroke-miterlimit="8" fill="#ED7D31"/><text fill="#FFFFFF" font-family="Courier New,Courier New_MSFontService,sans-serif" font-weight="400" font-size="83" transform="matrix(1 0 0 1 1434.34 1861)">str<tspan fill="#202122" font-family="Arial,Arial_MSFontService,sans-serif" font-weight="700" font-size="83" x="53.2813" y="101">↓</tspan><tspan font-size="83" x="-49.2708" y="198">float</tspan></text><path d="M0.121707-6.87392 59.0857-5.82993 58.8423 7.91792-0.121707 6.87392ZM52.4552-19.6995 93.3336 1.65253 51.725 21.5441Z" fill="#70AD47" transform="matrix(1 0 0 -1 1667 1936.65)"/><path d="M2935 2206.12 3028.46 2206.13 3028.46 2219.88 2935 2219.88ZM3021.58 2192.38 3062.83 2213 3021.58 2233.63Z" fill="#70AD47"/><path d="M3063.5 2213.5C3063.5 2156.06 3114.76 2109.5 3178 2109.5 3241.24 2109.5 3292.5 2156.06 3292.5 2213.5 3292.5 2270.94 3241.24 2317.5 3178 2317.5 3114.76 2317.5 3063.5 2270.94 3063.5 2213.5Z" stroke="#000000" stroke-width="4.58333" stroke-miterlimit="8" fill="#E2F0D9" fill-rule="evenodd"/><path d="M3165.33 2199.07 3154.02 2227.54C3155.31 2228.11 3156.77 2228.39 3158.39 2228.39 3161.98 2228.39 3164.69 2227.03 3166.53 2224.31 3168.38 2221.59 3169.3 2217.6 3169.3 2212.32 3169.3 2206.22 3167.98 2201.8 3165.33 2199.07ZM3158.11 2196.26C3154.53 2196.26 3151.82 2197.62 3149.99 2200.32 3148.15 2203.03 3147.24 2207.03 3147.24 2212.32 3147.24 2218.47 3148.55 2222.9 3151.18 2225.61L3162.49 2197.11C3161.13 2196.54 3159.68 2196.26 3158.11 2196.26ZM3166.55 2186.89 3170.18 2186.89 3167.21 2194.32C3169.6 2195.89 3171.43 2198.21 3172.68 2201.29 3173.93 2204.38 3174.55 2208.05 3174.55 2212.32 3174.55 2216.49 3173.93 2220.11 3172.69 2223.18 3171.45 2226.26 3169.6 2228.62 3167.13 2230.26 3164.66 2231.91 3161.65 2232.73 3158.11 2232.73 3155.99 2232.73 3154.06 2232.43 3152.33 2231.82L3149.99 2237.73 3146.36 2237.73 3149.3 2230.36C3146.93 2228.79 3145.11 2226.48 3143.86 2223.42 3142.61 2220.36 3141.99 2216.66 3141.99 2212.32 3141.99 2208.16 3142.61 2204.54 3143.85 2201.47 3145.09 2198.39 3146.94 2196.03 3149.41 2194.39 3151.88 2192.74 3154.88 2191.92 3158.43 2191.92 3160.57 2191.92 3162.49 2192.22 3164.18 2192.82Z" fill-rule="evenodd"/><text fill="#000000" fill-opacity="0" font-family="Arial,Arial_MSFontService,sans-serif" font-size="50.8438" x="3141.99" y="2231.38">∅</text><rect x="309" y="1641" width="2682" height="641" stroke="#000000" stroke-width="13.75" stroke-miterlimit="8" fill="none"/><rect x="777.5" y="2321.5" width="1659" height="133" stroke="#000000" stroke-width="3.4375" stroke-linejoin="round" stroke-miterlimit="10" fill="none"/><text font-family="Courier New,Courier New_MSFontService,sans-serif" font-weight="400" font-size="83" transform="matrix(1 0 0 1 842.761 2410)">triangulo<tspan font-size="83" x="492.708" y="0">interactivo (función)</tspan></text><path d="M1485.26 655.905C1475.75 612.016 1524.7 571.597 1594.59 565.627 1622.91 563.208 1651.71 566.824 1676.37 575.897 1702.5 544.966 1763.56 533.21 1812.75 549.64 1821.35 552.513 1829.25 556.155 1836.19 560.451 1856.54 534.811 1906.11 524.394 1946.91 537.184 1958.2 540.724 1968.05 545.844 1975.7 552.15 2008.5 527.903 2066.47 524.908 2105.17 545.46 2121.43 554.098 2132.39 566.013 2136.17 579.161 2189.92 588.37 2221.62 623.254 2206.99 657.077 2205.76 659.92 2204.22 662.706 2202.37 665.415 2245.48 700.657 2234.92 751.17 2178.8 778.238 2161.33 786.664 2140.7 792.119 2118.89 794.078 2118.41 831.993 2069.03 862.483 2008.61 862.179 1988.43 862.077 1968.68 858.473 1951.55 851.764 1931.12 894.272 1859.83 918.298 1792.33 905.427 1764.05 900.034 1739.6 888.627 1723.18 873.153 1654.07 899.332 1564.37 885.25 1522.83 841.698 1522.3 841.15 1521.79 840.597 1521.28 840.042 1476.05 843.366 1435.09 823.097 1429.78 794.768 1426.95 779.669 1434.88 764.555 1451.47 753.456 1412.31 738.976 1399.15 707.194 1422.09 682.469 1435.32 668.204 1458.52 658.774 1484.57 657.079Z" stroke="#000000" stroke-width="4.58333" stroke-miterlimit="8" fill="#DEEBF7" fill-rule="evenodd"/><path d="M1500.25 758.943C1483.54 759.765 1466.82 757.338 1452.35 751.987M1542.52 835.058C1535.8 836.739 1528.75 837.859 1521.56 838.387M1723.13 871.633C1718.08 866.869 1713.84 861.778 1710.5 856.448M1956.68 833.767C1955.93 839.417 1954.24 845.002 1951.63 850.429M2056.95 730.816C2094.86 742.403 2118.78 766.629 2118.44 793.088M2201.99 664.492C2195.85 673.502 2186.47 681.494 2174.6 687.842M2136.28 577.852C2137.33 581.49 2137.81 585.183 2137.73 588.88M1961.42 564.988C1964.99 559.901 1969.72 555.164 1975.45 550.925M1830.23 571.691C1831.69 567.486 1833.97 563.412 1837.03 559.562M1676.27 575.81C1685.19 579.093 1693.45 583.044 1700.85 587.577M1489.55 668.288C1487.6 664.239 1486.17 660.099 1485.26 655.908" stroke="#000000" stroke-width="4.58333" stroke-miterlimit="8" fill="none" fill-rule="evenodd"/><text font-family="Calibri,Calibri_MSFontService,sans-serif" font-weight="400" font-size="73" transform="matrix(1 0 0 1 1567.62 696)">Módulo propio<tspan font-family="Courier New,Courier New_MSFontService,sans-serif" font-size="64" x="-7.17285" y="76">triangulo.py</tspan></text><rect x="845.5" y="1770.5" width="412" height="330" stroke="#000000" stroke-width="4.58333" stroke-miterlimit="8" fill="#ED7D31"/><text fill="#FFFFFF" font-family="Courier New,Courier New_MSFontService,sans-serif" font-weight="400" font-size="83" transform="matrix(1 0 0 1 878.292 1958)">input()</text><path d="M1257.12 1928.13 1315.02 1929.16 1314.77 1942.91 1256.88 1941.87ZM1308.39 1915.29 1349.26 1936.65 1307.65 1956.54Z" fill="#70AD47"/><path d="M608.5 1274.5 749 1036.5 889.5 1274.5Z" stroke="#000000" stroke-width="4.58333" stroke-miterlimit="8" fill="#E2F0D9" fill-rule="evenodd"/><text font-family="Calibri,Calibri_MSFontService,sans-serif" font-weight="400" font-size="83" transform="matrix(1 0 0 1 728.414 1242)">a</text><path d="M924.5 1277.5 1065 1039.5 1205.5 1277.5Z" stroke="#000000" stroke-width="4.58333" stroke-miterlimit="8" fill="#E2F0D9" fill-rule="evenodd"/><text font-family="Calibri,Calibri_MSFontService,sans-serif" font-weight="400" font-size="83" transform="matrix(1 0 0 1 1042.29 1245)">b</text><path d="M1238.5 1282.5 1379 1043.5 1519.5 1282.5Z" stroke="#000000" stroke-width="4.58333" stroke-miterlimit="8" fill="#E2F0D9" fill-rule="evenodd"/><text font-family="Calibri,Calibri_MSFontService,sans-serif" font-weight="400" font-size="83" transform="matrix(1 0 0 1 1361.04 1249)">c</text><path d="M0.147815-6.87341 11.8845-6.62101 14.1153-6.50043 13.3731 7.22953 11.2539 7.11498 11.4772 7.12341-0.147815 6.87341ZM28.0915-5.57833 35.4911-4.89836 41.9848-4.08665 40.2793 9.55717 33.8973 8.75941 34.1209 8.78366 26.8333 8.11399ZM55.846-2.01102 58.8586-1.51443 69.577 0.629255 66.8804 14.1122 56.2767 11.9915 56.5069 12.0335 53.6097 11.5559ZM83.2378 3.98618 92.8811 6.38338 96.9489 7.68793 92.75 20.7811 88.9005 19.5466 89.3414 19.6719 79.9207 17.3301ZM110.042 11.8869 114.751 13.3971 123.36 16.7933 118.314 29.584 109.915 26.2703 110.338 26.4216 105.843 24.9801ZM136.545 22.0677 148.976 27.9436 143.1 40.3749 130.669 34.499ZM161.617 34.4685 173.604 41.2056 166.867 53.192 154.88 46.4548ZM185.669 49.0484 191.083 52.7967 197.024 57.2523 188.774 68.2523 182.937 63.875 183.149 64.0276 177.842 60.3536ZM208.153 66.3751 213.67 71.3855 218.355 76.0252 208.681 85.7957 204.1 81.2603 204.315 81.4642 198.908 76.5534ZM228.067 86.7366 232.017 91.5599 236.658 98.0086 225.497 106.04 220.982 99.7657 221.244 100.106 217.429 95.4491ZM244.137 110.653 245.448 113.14 248.729 120.638 249.963 124.277 236.942 128.695 235.802 125.334 236.014 125.881 232.951 118.881 233.169 119.332 231.974 117.066ZM253.634 138.773 254.348 143.559 254.74 150.948 254.855 153.11 241.124 153.839 241.01 151.677 240.635 144.615 240.7 145.264 240.035 140.801ZM256.38 165.423 257.732 170.833 257.573 170.291 259.948 177.291 259.736 176.744 260.049 177.46 247.452 182.972 247.021 181.987 244.461 174.441 243.04 168.757ZM265.795 189.389 266.206 190.168 265.943 189.712 270.193 196.462 269.973 196.134 272.813 200.117 261.617 208.1 258.662 203.955 254.167 196.815 253.633 195.802ZM280.865 210.213 285.453 215.241 285.236 215.014 290.146 219.924 280.424 229.646 275.403 224.625 270.709 219.482ZM299.915 228.659 305.325 233.145 305.062 232.938 310.44 236.971 302.19 247.971 296.678 243.837 291.139 239.244ZM321.277 244.57 329.017 249.521 328.681 249.319 332.658 251.554 325.92 263.541 321.773 261.21 313.868 256.152ZM344.644 258.292 346.806 259.507 346.367 259.28 356.562 264.082 350.704 276.522 340.285 271.614 337.907 270.278ZM368.682 269.546 381.478 274.578 376.446 287.374 363.65 282.342ZM394.057 278.921 406.793 283.018 406.346 282.891 406.707 282.98 403.39 296.324 402.804 296.178 389.847 292.011ZM420.051 286.297 428.471 288.391 428.161 288.321 433.136 289.316 430.439 302.799 425.308 301.773 416.733 299.641ZM446.428 291.717 450.612 292.403 450.127 292.341 459.598 293.208 458.344 306.901 448.629 306.012 444.204 305.286ZM455.887 279.239 495.675 302.56 453.145 320.397Z" transform="matrix(1.83697e-16 1 1 -1.83697e-16 748 1274)"/><path d="M1071.2 1277.02 1071.16 1290.77 1057.41 1290.73 1057.45 1276.98ZM1071.13 1304.52 1071.09 1318.27 1057.34 1318.23 1057.38 1304.48ZM1071 1332.06 1070.89 1345.49 1070.88 1345.83 1057.14 1345.67 1057.14 1345.38 1057.25 1331.94ZM1070.73 1359.58 1070.64 1367.46 1070.55 1373.35 1056.8 1373.15 1056.89 1367.27 1056.89 1367.3 1056.98 1359.42ZM1070.35 1387.1 1070.32 1388.74 1070.1 1400.87 1056.35 1400.62 1056.58 1388.5 1056.58 1388.52 1056.6 1386.89ZM1069.84 1414.62 1069.57 1428.35 1069.57 1428.43 1055.83 1428.05 1055.83 1428 1055.83 1428.05 1056.09 1414.36ZM1069.19 1442.17 1069.07 1446.38 1069.07 1446.34 1068.89 1454.87 1068.85 1455.94 1055.11 1455.52 1055.14 1454.47 1055.14 1454.54 1055.33 1446.02 1055.45 1441.79ZM1068.36 1469.75 1068.32 1470.72 1068.32 1470.67 1068.07 1477.92 1067.87 1483.46 1054.13 1482.96 1054.33 1477.45 1054.58 1470.18 1054.62 1469.19ZM1067.24 1497.35 1066.94 1502.43 1066.62 1507.2 1066.63 1507.16 1066.39 1511.08 1052.67 1510.26 1052.9 1506.32 1053.22 1501.55 1053.21 1501.6 1053.51 1496.54ZM1063.76 1525.99 1063.61 1526.5 1063.77 1525.81 1063.46 1527.5 1063.52 1527.15 1063.2 1529.52 1063.23 1529.32 1062.92 1532.39 1062.93 1532.28 1062.61 1535.9 1062.63 1535.72 1062.48 1538.1 1048.76 1537.28 1048.91 1534.81 1049.23 1531.04 1049.56 1527.83 1049.91 1525.17 1050.32 1522.96 1050.57 1522.11ZM1061.68 1551.71 1061.51 1555.75 1061.19 1562.09 1061.2 1562 1061.07 1565.41 1047.33 1564.9 1047.46 1561.45 1047.77 1555.1 1047.77 1555.15 1047.94 1551.13ZM1060.6 1579.12 1060.45 1583.72 1060.2 1591.78 1060.17 1592.84 1046.42 1592.44 1046.45 1591.35 1046.7 1583.28 1046.85 1578.67ZM1059.77 1606.57 1059.45 1618.25 1059.45 1618.2 1059.41 1620.26 1045.66 1620 1045.7 1617.9 1046.03 1606.19ZM1059.14 1634.01 1059.07 1637.45 1058.88 1647.75 1045.14 1647.5 1045.33 1637.18 1045.39 1633.74ZM1058.65 1661.47 1058.44 1675.22 1044.69 1675.02 1044.9 1661.27ZM1058.3 1688.93 1058.2 1700.87 1058.19 1702.68 1044.44 1702.56 1044.45 1700.75 1044.55 1688.81ZM1058.07 1716.43 1058.01 1723.37 1058.01 1723.33 1057.99 1730.14 1044.24 1730.1 1044.26 1723.27 1044.32 1716.31ZM1071.75 1728.05 1051 1769.24 1030.5 1727.93Z"/><path d="M1385.65 1282.15 1385.39 1293.72 1385.25 1296.16 1371.52 1295.33 1371.66 1293.02 1371.65 1293.29 1371.9 1281.85ZM1384.2 1310.17 1383.47 1317.08 1382.51 1324.04 1368.89 1322.16 1369.84 1315.31 1369.81 1315.54 1370.52 1308.74ZM1380.23 1337.87 1379.83 1340.09 1377.34 1351.47 1377.25 1351.82 1363.93 1348.4 1363.99 1348.16 1363.93 1348.4 1366.37 1337.28 1366.32 1337.54 1366.69 1335.45ZM1373.69 1365.31 1371.26 1373.73 1369.46 1378.81 1356.5 1374.23 1358.23 1369.34 1358.11 1369.72 1360.48 1361.5ZM1364.89 1391.78 1363.68 1395.2 1359.46 1404.92 1346.85 1399.45 1350.97 1389.95 1350.79 1390.4 1351.92 1387.2ZM1353.65 1417.92 1347.29 1430.11 1335.1 1423.75 1341.45 1411.56ZM1340.17 1442.45 1333.27 1453.6 1332.67 1454.44 1321.42 1446.55 1321.9 1445.86 1321.68 1446.19 1328.47 1435.21ZM1324.46 1465.82 1320.9 1470.47 1315.7 1476.76 1305.11 1467.99 1310.23 1461.8 1310.06 1462.01 1313.54 1457.47ZM1306.05 1487.39 1300.79 1492.7 1295.93 1497.17 1286.63 1487.04 1291.37 1482.69 1291.14 1482.91 1296.29 1477.72ZM1284.78 1506.41 1278.95 1510.71 1273.19 1514.48 1265.66 1502.98 1271.26 1499.31 1270.95 1499.53 1276.62 1495.34ZM1260.4 1521.62 1255.72 1523.87 1247.7 1527.05 1246.82 1527.32 1242.7 1514.2 1243.34 1514 1242.86 1514.17 1250.43 1511.17 1249.99 1511.36 1254.46 1509.22ZM1232.99 1531.05 1231.43 1531.4 1223.16 1532.54 1218.2 1532.78 1217.53 1519.05 1222.19 1518.82 1221.58 1518.88 1229.27 1517.81 1228.73 1517.91 1230.02 1517.63ZM1205.04 1533.65 1200.42 1534.25 1201.05 1534.14 1193.36 1535.89 1193.9 1535.75 1192.75 1536.11 1188.63 1522.99 1190.04 1522.55 1198.31 1520.66 1203.26 1520.01ZM1180.28 1540.54 1179.25 1540.95 1179.68 1540.76 1172.24 1544.33 1172.67 1544.1 1168.85 1546.27 1162.06 1534.31 1166.09 1532.03 1173.96 1528.26 1175.21 1527.76ZM1157.93 1553.19 1151.6 1557.85 1151.92 1557.6 1147.38 1561.37 1138.6 1550.79 1143.28 1546.9 1149.77 1542.12ZM1137.65 1570.1 1131.84 1575.96 1132.06 1575.74 1128.37 1579.82 1118.17 1570.59 1121.97 1566.4 1127.88 1560.43ZM1119.66 1590.06 1119.44 1590.32 1119.61 1590.12 1113.48 1598.12 1113.67 1597.87 1111.76 1600.6 1100.48 1592.75 1102.47 1589.88 1108.77 1581.65 1109.07 1581.29ZM1104.42 1611.78 1097.2 1623.48 1085.5 1616.25 1092.72 1604.55ZM1091.09 1635.22 1087.31 1642.48 1087.52 1642.05 1085.3 1647.16 1072.69 1641.68 1075 1636.35 1078.88 1628.88ZM1079.81 1659.77 1078.77 1662.18 1078.94 1661.73 1075.24 1672.21 1062.28 1667.63 1066.06 1656.92 1067.2 1654.28ZM1070.92 1684.84 1068.5 1693.22 1068.56 1693.02 1067.31 1697.89 1053.99 1694.48 1055.26 1689.51 1057.72 1681.03ZM1064.2 1711.04 1063.36 1714.85 1063.42 1714.58 1061.69 1724.27 1048.16 1721.87 1049.9 1712.03 1050.77 1708.08ZM1074.61 1730.51 1051 1770.13 1033.48 1727.47Z"/><rect x="330.5" y="1770.5" width="421" height="330" stroke="#000000" stroke-width="4.58333" stroke-miterlimit="8" fill="#ED7D31"/><text fill="#FFFFFF" font-family="Courier New,Courier New_MSFontService,sans-serif" font-weight="400" font-size="83" transform="matrix(1 0 0 1 368.269 1958)">print()</text><path d="M751 1928.12 809.893 1928.13 809.893 1941.88 751 1941.88ZM803.018 1914.38 844.268 1935 803.018 1955.63Z" fill="#70AD47"/><path d="M320.17 952 287.271 884.523C75.6334 836.212 0.876736 727.642 120.297 642.025 239.717 556.408 508.093 526.166 719.73 574.477 931.367 622.788 1006.12 731.358 886.704 816.975 798.56 880.169 624.42 915.393 446.566 906.004Z" stroke="#000000" stroke-width="4.58333" stroke-miterlimit="8" fill="#FFFFFF" fill-rule="evenodd"/><text font-family="Calibri,Calibri_MSFontService,sans-serif" font-weight="400" font-size="83" transform="matrix(1 0 0 1 227.776 707)">Calculemos<tspan font-size="83" x="401.615" y="0">área </tspan><tspan font-size="83" x="49.6146" y="99">y</tspan><tspan font-size="83" x="105.76" y="99">perímetro…</tspan></text><path d="M0.112138-6.87409 13.8603-6.64981 13.636 7.09836-0.112138 6.87409ZM27.6085-6.42553 38.5383-6.24723 41.5807-6.09687 40.902 7.63637 37.9731 7.49162 38.2004 7.49908 27.3842 7.32264ZM55.3139-5.41812 69.0472-4.73938 68.3684 8.99386 54.6352 8.31511ZM82.9788-3.85701 96.6847-2.75687 95.5846 10.9491 81.8787 9.84891ZM110.391-1.65673 114.275-1.34497 124.268-0.249794 122.77 13.4184 112.876 12.3341 113.075 12.353 109.29 12.0492ZM137.936 1.24809 150.988 2.67836 151.828 2.79887 149.877 16.4097 149.149 16.3054 149.376 16.3341 136.438 14.9163ZM165.439 4.75015 179.05 6.70144 177.098 20.3123 163.488 18.361ZM192.783 8.80551 203.68 10.6017 206.464 11.1127 203.982 24.6368 201.259 24.1371 201.382 24.1585 190.547 22.3724ZM219.988 13.5946 220.495 13.6876 233.595 16.358 230.849 29.831 217.814 27.174 217.946 27.1996 217.506 27.1188ZM247.131 19.2653 252.716 20.4842 260.655 22.3715 257.476 35.7488 249.598 33.8761 249.721 33.9044 244.199 32.6991ZM274.139 25.7089 282.929 27.9905 287.573 29.3114 283.811 42.5368 279.244 41.2377 279.398 41.2795 270.685 39.0178ZM300.912 33.1907 310.721 36.2018 314.187 37.3572 309.839 50.4016 306.451 49.2722 306.607 49.3223 296.877 46.3353ZM327.392 41.888 335.901 45.0185 340.428 46.8291 335.321 59.5957 330.884 57.8208 331.064 57.8898 322.645 54.7925ZM353.319 52.2118 358.143 54.3243 366.027 58.1897 359.974 70.5355 352.223 66.7354 352.492 66.8602 347.804 64.8073ZM378.699 65.1067 385.488 69.3298 390.515 72.8761 382.59 84.1122 377.725 80.6805 378.056 80.9002 371.436 76.7822ZM401.889 82.5701 404.893 85.6121 409.388 91.5344 411.289 94.9221 399.297 101.649 397.629 98.6761 398.149 99.4691 394.211 94.2816 394.796 94.9561 392.106 92.2322ZM415.773 110.651 416.272 115.259 415.928 113.732 417.74 118.92 417.246 117.824 419.017 120.981 407.025 127.708 404.959 124.025 402.687 117.524 402.103 112.133ZM426.454 130.213 427.954 131.731 427.496 131.308 433.496 136.371 433.025 136.007 436.102 138.177 428.177 149.413 424.857 147.071 418.39 141.616 416.671 139.875ZM447.293 145.452 447.631 145.662 447.295 145.466 456.108 150.279 455.839 150.14 458.811 151.597 452.758 163.943 449.65 162.419 440.534 157.441 440.03 157.127ZM471.002 157.28 475.82 159.39 475.616 159.304 483.499 162.457 478.392 175.224 470.406 172.03 465.487 169.876ZM496.174 167.176 498.719 168.099 498.578 168.05 509.038 171.588 504.632 184.613 494.101 181.051 491.485 180.102ZM521.976 175.628 524.58 176.428 524.416 176.38 535.034 179.353 531.327 192.593 520.627 189.597 517.941 188.773ZM548.199 182.839 553.04 184.096 552.902 184.061 561.414 186.085 558.234 199.462 549.654 197.422 544.744 196.148ZM574.715 189.144 583.804 191.164 583.661 191.133 588.014 192.004 585.318 205.487 580.893 204.602 571.732 202.567ZM601.395 194.655 614.919 197.137 612.437 210.661 598.913 208.179ZM628.358 199.38 633.431 200.217 633.288 200.195 641.81 201.416 639.859 215.027 631.266 213.795 626.122 212.947ZM655.421 203.368 668.601 205.257 668.375 205.229 668.808 205.276 667.307 218.944 666.762 218.884 653.469 216.978ZM682.476 206.776 696.144 208.277 694.643 221.945 680.975 220.444ZM709.624 209.611 723.331 210.709 722.232 224.416 708.526 223.317ZM737.037 211.808 742.049 212.209 741.804 212.194 750.517 212.579 749.909 226.316 741.073 225.925 735.938 225.514ZM764.253 213.187 777.99 213.794 777.382 227.531 763.646 226.923ZM776.873 200.171 817.751 221.524 776.142 241.414Z" transform="matrix(-1.83697e-16 -1 -1 1.83697e-16 540.524 1769.75)"/><rect x="1761.5" y="1770.5" width="660" height="330" stroke="#000000" stroke-width="4.58333" stroke-miterlimit="8" fill="#ED7D31"/><text fill="#FFFFFF" font-family="Courier New,Courier New_MSFontService,sans-serif" font-weight="400" font-size="83" transform="matrix(1 0 0 1 1819.61 1909)">a<tspan font-size="83" x="49.2709" y="0">rea</tspan><tspan font-size="83" x="197.083" y="0">(</tspan><tspan font-size="83" x="246.354" y="0">a,b,c</tspan><tspan font-size="83" x="492.708" y="0">)</tspan><tspan font-size="83" x="-24.6354" y="99">perim</tspan>(<tspan font-size="83" x="270.99" y="99">a,b.c</tspan><tspan font-size="83" x="517.344" y="99">)</tspan></text><rect x="2514.5" y="1770.5" width="421" height="330" stroke="#000000" stroke-width="4.58333" stroke-miterlimit="8" fill="#ED7D31"/><text fill="#FFFFFF" font-family="Courier New,Courier New_MSFontService,sans-serif" font-weight="400" font-size="83" transform="matrix(1 0 0 1 2552.01 1958)">print()</text><path d="M2421 1928.12 2479.96 1928.13 2479.96 1941.88 2421 1941.88ZM2473.08 1914.38 2514.33 1935 2473.08 1955.63Z" fill="#70AD47"/><path d="M0.0638517-6.8747 13.8133-6.747 13.6856 7.00241-0.0638517 6.8747ZM27.6878-6.48118 40.6689-6.11948 41.636-6.06365 40.8437 7.6635 39.9788 7.61358 40.1835 7.62233 27.3048 7.26348ZM55.3632-5.27129 69.0903-4.47893 68.298 9.24822 54.5708 8.45586ZM83.0455-3.60176 96.7378-2.34319 95.4793 11.3491 81.787 10.0905ZM110.43-1.08463 120.627-0.147346 124.353 0.330531 122.604 13.9688 119 13.5067 119.246 13.5336 109.172 12.6076ZM137.992 2.0796 151.63 3.82867 149.881 17.467 136.243 15.7179ZM165.431 5.76847 178.303 7.77845 179.125 7.92046 176.783 21.4695 176.016 21.337 176.127 21.3552 163.31 19.3538ZM192.674 10.2628 196.865 10.9873 206.325 12.8204 203.709 26.3193 194.317 24.4995 194.454 24.5245 190.332 23.8118ZM219.933 15.5535 232.747 18.2897 233.5 18.4648 230.383 31.8569 229.692 31.6961 229.814 31.7234 217.062 29.0004ZM246.892 21.5815 250.071 22.3215 260.378 24.9662 256.96 38.2847 246.729 35.6593 246.879 35.6961 243.775 34.9736ZM273.784 28.5442 282.961 31.0794 287.148 32.3289 283.217 45.5049 279.097 44.2755 279.232 44.3143 270.123 41.7977ZM300.485 36.3631 313.551 40.6453 309.269 53.7115 296.202 49.4293ZM326.673 45.3449 327.956 45.8045 339.665 50.3039 334.733 63.1389 323.096 58.6675 323.243 58.7219 322.034 58.2887ZM352.567 55.6921 354.544 56.5295 365.281 61.5329 359.474 73.9962 348.846 69.0442 349.068 69.1428 347.203 68.3528ZM377.772 67.8238 378.005 67.9426 388.532 73.9118 390.242 74.9908 382.906 86.62 381.332 85.6271 381.609 85.7929 371.359 79.9804 371.634 80.1282 371.54 80.0803ZM402.056 82.7777 406.891 86.2418 413.271 91.5402 404.486 102.118 398.295 96.9764 398.684 97.2763 394.048 93.9553ZM423.825 102.087 427.18 106.034 431.868 113.03 432.702 114.786 420.283 120.688 419.666 119.389 420.163 120.264 415.976 114.014 416.449 114.64 413.349 110.992ZM437.75 129.999 438.217 134.767 438.842 141.073 438.596 139.81 439.334 142.32 426.142 146.2 425.222 143.07 424.533 136.108 424.065 131.341ZM444.107 152.88 446.774 156.861 446.301 156.235 451.613 162.485 451.163 162.004 451.705 162.53 442.13 172.398 441.35 171.642 435.57 164.841 432.684 160.534ZM461.465 171.378 464.428 173.814 464.066 173.536 472.125 179.31 464.117 190.487 455.873 184.581 452.733 182ZM483.134 186.2 491.364 190.817 491.143 190.698 494.98 192.671 488.693 204.899 484.745 202.87 476.407 198.192ZM507.048 198.61 513.877 201.756 513.682 201.67 519.42 204.1 514.056 216.761 508.22 214.289 501.295 211.098ZM531.96 209.216 539.679 212.217 539.482 212.144 544.636 213.969 540.048 226.93 534.794 225.071 526.976 222.031ZM557.477 218.41 568.329 221.967 568.185 221.922 570.415 222.599 566.42 235.755 564.118 235.057 553.195 231.477ZM583.572 226.594 583.622 226.609 583.456 226.561 596.658 230.208 592.997 243.462 579.711 239.791 579.577 239.75ZM609.823 233.592 615.992 235.146 615.876 235.118 623.071 236.798 619.943 250.188 612.691 248.494 606.464 246.925ZM636.343 239.827 649.792 242.689 646.93 256.138 633.481 253.276ZM663.165 245.292 668.433 246.313 668.296 246.288 676.558 247.716 674.216 261.265 665.885 259.825 660.549 258.791ZM690.009 249.988 703.593 252.116 701.465 265.7 687.881 263.572ZM717.035 253.888 730.673 255.637 728.924 269.275 715.286 267.526ZM744.069 257.336 757.761 258.595 756.502 272.287 742.81 271.029ZM771.453 259.854 782.879 260.904 782.599 260.884 784.872 260.999 784.173 274.732 781.76 274.609 770.194 273.546ZM798.604 261.698 812.336 262.396 811.638 276.129 797.906 275.43ZM826.069 263.095 828.66 263.227 827.962 276.959 825.37 276.827ZM821.863 249.33 862.679 270.801 821.013 290.572Z" transform="matrix(1.83697e-16 1 1 -1.83697e-16 1820 907)"/><path d="M2300.88 1160.25 2275.19 1109.07C2109.97 1072.43 2051.61 990.091 2144.84 925.157 2238.07 860.222 2447.59 837.286 2612.81 873.926 2778.03 910.567 2836.39 992.909 2743.16 1057.84 2674.35 1105.77 2538.4 1132.49 2399.55 1125.37Z" stroke="#000000" stroke-width="4.58333" stroke-miterlimit="8" fill="#FFFFFF" fill-rule="evenodd"/><text font-family="Calibri,Calibri_MSFontService,sans-serif" font-weight="400" font-size="83" transform="matrix(1 0 0 1 2272.77 1019)">el<tspan font-size="83" x="79.0625" y="0">área es:</tspan></text><path d="M0.150731-6.87335 13.8974-6.57188 13.596 7.17481-0.150731 6.87335ZM27.8914-5.74136 29.134-5.6654 41.8725-4.31859 40.4269 9.3552 27.8397 8.02439 28.143 8.04969 27.0524 7.98301ZM55.7599-2.35293 57.9425-2.03281 69.5536 0.134585 67.0305 13.6511 55.551 11.5083 55.8148 11.5522 53.7646 11.2515ZM83.2403 3.12383 86.3266 3.82209 96.8015 6.59624 93.2813 19.888 82.9274 17.1459 83.1704 17.2055 80.2062 16.5349ZM110.236 10.5604 113.995 11.7089 123.503 14.9675 119.045 27.9748 109.646 24.7536 109.866 24.8249 106.218 23.7102ZM136.627 19.8465 140.771 21.4401 149.563 25.1895 144.169 37.8374 135.491 34.1364 135.72 34.2293 131.691 32.68ZM162.304 31.0157 166.419 32.9595 174.807 37.2833 168.507 49.5052 160.225 45.2359 160.439 45.3414 156.431 43.4484ZM187.088 44.0163 190.737 46.0733 199.103 51.204 191.914 62.9254 183.656 57.8607 183.873 57.9887 180.335 55.9936ZM210.836 58.8733 213.432 60.6088 222.247 67.0101 214.167 78.1359 205.46 71.8129 205.679 71.9653 203.194 70.3039ZM233.315 75.6099 234.373 76.4429 244.087 84.8144 244.192 84.9126 234.829 94.982 234.818 94.9722 235.012 95.1453 225.512 86.9578 225.746 87.1512 224.808 86.4123ZM254.456 94.5775 261.987 102.331 264.153 104.792 253.832 113.877 251.777 111.543 252.006 111.79 244.593 104.157ZM273.265 115.513 277.492 120.798 281.762 126.816 270.548 134.772 266.393 128.916 266.632 129.232 262.528 124.102ZM289.501 138.61 290.427 140.072 295.824 149.956 296.516 151.435 284.06 157.259 283.46 155.974 283.654 156.357 278.466 146.857 278.692 147.241 277.885 145.967ZM302.225 164.505 304.384 170.214 306.75 177.953 293.601 181.973 291.3 174.448 291.445 174.87 289.364 169.369ZM309.98 192.471 311.168 201.46 311.4 206.739 297.663 207.343 297.444 202.365 297.497 202.963 296.349 194.271ZM312.005 220.475 312.056 221.635 312.003 221.037 313.316 230.975 313.221 230.429 313.761 232.937 300.318 235.829 299.72 233.05 298.332 222.54 298.268 221.08ZM317.016 245.683 318.2 249.552 318.055 249.13 321.488 258.206 308.627 263.07 305.116 253.786 303.867 249.703ZM326.999 269.753 331.034 277.143 330.819 276.776 333.658 281.288 322.019 288.61 319.068 283.919 314.931 276.343ZM341.141 292.332 343.094 295.067 342.868 294.768 349.359 302.881 338.622 311.47 332.014 303.211 329.952 300.324ZM357.989 312.72 365.932 320.898 365.683 320.655 367.404 322.255 358.037 332.321 356.189 330.602 348.126 322.299ZM377.371 331.339 383.988 337.042 383.753 336.849 387.693 339.951 379.186 350.754 375.127 347.557 368.395 341.755ZM398.424 348.109 404.04 352.187 403.821 352.035 409.482 355.819 401.84 367.25 396.068 363.391 390.344 359.235ZM420.842 363.072 425.844 366.139 425.627 366.011 432.493 369.883 425.74 381.86 418.763 377.927 413.654 374.793ZM444.388 376.245 449.275 378.764 449.061 378.659 456.523 382.183 450.65 394.616 443.081 391.04 438.088 388.467ZM468.845 387.661 474.009 389.864 473.781 389.771 481.374 392.691 476.438 405.525 468.729 402.56 463.452 400.309ZM494.086 397.305 499.881 399.318 499.606 399.229 506.898 401.423 502.936 414.59 495.505 412.354 489.573 410.293ZM519.909 405.089 526.573 406.854 526.33 406.794 533.018 408.308 529.984 421.719 523.173 420.178 516.389 418.381ZM546.223 411.049 553.949 412.492 553.685 412.448 559.513 413.303 557.518 426.907 551.557 426.033 543.7 424.566ZM572.633 414.823 575.605 415.026 574.669 428.744 571.697 428.541ZM569.508 400.886 609.451 423.941 567.041 442.062Z" transform="matrix(-1.83697e-16 -1 -1 1.83697e-16 2724.94 1769.45)"/><path d="M2778.59 1395.25 2752.94 1344.07C2587.96 1307.43 2529.68 1225.09 2622.78 1160.16 2715.87 1095.22 2925.08 1072.29 3090.06 1108.93 3255.04 1145.57 3313.32 1227.91 3220.22 1292.84 3151.51 1340.77 3015.76 1367.49 2877.12 1360.37Z" stroke="#000000" stroke-width="4.58333" stroke-miterlimit="8" fill="#FFFFFF" fill-rule="evenodd"/><text font-family="Calibri,Calibri_MSFontService,sans-serif" font-weight="400" font-size="83" transform="matrix(1 0 0 1 2712.9 1204)">el<tspan font-size="83" x="79.0625" y="0">perímetro </tspan><tspan font-size="83" x="160.394" y="99">e</tspan><tspan font-size="83" x="201.644" y="99">s</tspan><tspan font-size="83" x="233.727" y="99">: </tspan></text><path d="M2717.13 1769.36 2717.37 1755.61 2731.12 1755.86 2730.87 1769.61ZM2717.62 1741.86 2717.75 1734.35 2718.01 1727.97 2731.75 1728.52 2731.49 1734.82 2731.5 1734.67 2731.37 1742.11ZM2718.62 1714.1 2719.45 1700.37 2733.17 1701.19 2732.35 1714.92ZM2720.46 1686.57 2720.65 1683.98 2721.69 1672.74 2735.39 1674.01 2734.35 1685.18 2734.36 1685.05 2734.17 1687.57ZM2723.15 1658.94 2723.74 1653.59 2724.85 1645.15 2738.49 1646.96 2737.38 1655.32 2737.4 1655.18 2736.81 1660.46ZM2726.9 1631.38 2727.6 1627.02 2729.29 1617.68 2742.82 1620.14 2741.14 1629.4 2741.16 1629.25 2740.48 1633.54ZM2732.35 1603.8 2733.18 1600.55 2734.43 1596.26 2735.7 1592.4 2736.61 1589.95 2749.49 1594.75 2748.63 1597.07 2748.72 1596.81 2747.53 1600.44 2747.6 1600.22 2746.41 1604.29 2746.48 1604.05 2745.68 1607.18ZM2749.91 1575.41 2750.78 1575.24 2748.38 1576.22 2749.63 1575.41 2748.4 1576.43 2749.65 1575.12 2748.97 1575.95 2750.22 1574.14 2749.83 1574.78 2751.08 1572.46 2750.81 1573.01 2752 1570.26 2751.87 1570.58 2752.48 1568.95 2765.36 1573.75 2764.69 1575.55 2763.32 1578.74 2761.75 1581.64 2759.98 1584.21 2757.8 1586.5 2754.77 1588.47 2752.61 1588.9ZM2756.2 1556.5 2756.34 1555.98 2756.31 1556.11 2757.43 1551.29 2757.41 1551.4 2758.53 1546.21 2758.49 1546.44 2759.01 1543.53 2772.54 1545.98 2771.99 1549.01 2770.83 1554.37 2769.68 1559.3 2769.53 1559.88ZM2761.33 1530.13 2762.52 1522.65 2762.5 1522.83 2763.31 1516.7 2776.94 1518.51 2776.12 1524.72 2774.91 1532.29ZM2764.97 1503.2 2765.92 1494.6 2765.9 1494.72 2766.38 1489.64 2780.07 1490.92 2779.59 1496.05 2778.63 1504.71ZM2767.58 1476.08 2768.52 1463.23 2768.51 1463.32 2768.56 1462.46 2782.29 1463.28 2782.23 1464.19 2781.29 1477.09ZM2769.39 1448.74 2769.51 1446.63 2769.5 1446.82 2769.88 1435.18 2783.63 1435.63 2783.24 1447.36 2783.11 1449.56ZM2756.19 1435.82 2777.66 1395 2797.43 1436.67Z"/></g></svg>