<svg width="3015" height="1664" xmlns="http://www.w3.org/2000/svg" xmlns:xlink="http://www.w3.org/1999/xlink" xml:space="preserve" overflow="hidden"><defs><clipPath id="clip0"><rect x="230" y="605" width="3015" height="1664"/></clipPath></defs><g clip-path="url(#clip0)" transform="translate(-230 -605)"><path d="M351 852.125 2960.06 852.125 2960.06 865.875 351 865.875ZM2953.19 838.375 2994.44 859 2953.19 879.625Z"/><path d="M294.5 921.501C294.5 910.455 303.455 901.5 314.501 901.5L394.5 901.5C405.546 901.5 414.5 910.455 414.5 921.501L414.5 1026.5C414.5 1037.55 405.546 1046.5 394.5 1046.5L314.501 1046.5C303.455 1046.5 294.5 1037.55 294.5 1026.5Z" stroke="#000000" stroke-width="3.4375" stroke-linejoin="round" stroke-miterlimit="10" fill="none" fill-rule="evenodd"/><text font-family="Calibri,Calibri_MSFontService,sans-serif" font-weight="400" font-size="83" transform="matrix(1 0 0 1 332.714 1000)">0</text><path d="M552.5 921.501C552.5 910.455 561.454 901.5 572.5 901.5L652.499 901.5C663.545 901.5 672.5 910.455 672.5 921.501L672.5 1026.5C672.5 1037.55 663.545 1046.5 652.499 1046.5L572.5 1046.5C561.454 1046.5 552.5 1037.55 552.5 1026.5Z" stroke="#000000" stroke-width="3.4375" stroke-linejoin="round" stroke-miterlimit="10" fill="none" fill-rule="evenodd"/><text font-family="Calibri,Calibri_MSFontService,sans-serif" font-weight="400" font-size="83" transform="matrix(1 0 0 1 590.526 1000)">1</text><path d="M813.5 921.501C813.5 910.455 822.455 901.5 833.501 901.5L913.5 901.5C924.546 901.5 933.5 910.455 933.5 921.501L933.5 1026.5C933.5 1037.55 924.546 1046.5 913.5 1046.5L833.501 1046.5C822.455 1046.5 813.5 1037.55 813.5 1026.5Z" stroke="#000000" stroke-width="3.4375" stroke-linejoin="round" stroke-miterlimit="10" fill="none" fill-rule="evenodd"/><text font-family="Calibri,Calibri_MSFontService,sans-serif" font-weight="400" font-size="83" transform="matrix(1 0 0 1 851.776 1000)">2</text><path d="M1074.5 921.667C1074.5 910.529 1083.53 901.5 1094.67 901.5L1175.33 901.5C1186.47 901.5 1195.5 910.529 1195.5 921.667L1195.5 1026.33C1195.5 1037.47 1186.47 1046.5 1175.33 1046.5L1094.67 1046.5C1083.53 1046.5 1074.5 1037.47 1074.5 1026.33Z" stroke="#000000" stroke-width="3.4375" stroke-linejoin="round" stroke-miterlimit="10" fill="none" fill-rule="evenodd"/><text font-family="Calibri,Calibri_MSFontService,sans-serif" font-weight="400" font-size="83" transform="matrix(1 0 0 1 1113.03 1000)">3</text><path d="M1335.5 921.667C1335.5 910.529 1344.53 901.5 1355.67 901.5L1436.33 901.5C1447.47 901.5 1456.5 910.529 1456.5 921.667L1456.5 1026.33C1456.5 1037.47 1447.47 1046.5 1436.33 1046.5L1355.67 1046.5C1344.53 1046.5 1335.5 1037.47 1335.5 1026.33Z" stroke="#000000" stroke-width="3.4375" stroke-linejoin="round" stroke-miterlimit="10" fill="none" fill-rule="evenodd"/><text font-family="Calibri,Calibri_MSFontService,sans-serif" font-weight="400" font-size="83" transform="matrix(1 0 0 1 1374.28 1000)">4</text><path d="M1588.5 921.667C1588.5 910.529 1597.53 901.5 1608.67 901.5L1689.33 901.5C1700.47 901.5 1709.5 910.529 1709.5 921.667L1709.5 1026.33C1709.5 1037.47 1700.47 1046.5 1689.33 1046.5L1608.67 1046.5C1597.53 1046.5 1588.5 1037.47 1588.5 1026.33Z" stroke="#000000" stroke-width="3.4375" stroke-linejoin="round" stroke-miterlimit="10" fill="none" fill-rule="evenodd"/><text font-family="Calibri,Calibri_MSFontService,sans-serif" font-weight="400" font-size="83" transform="matrix(1 0 0 1 1627.01 1000)">5</text><path d="M1851.5 921.501C1851.5 910.455 1860.45 901.5 1871.5 901.5L1951.5 901.5C1962.55 901.5 1971.5 910.455 1971.5 921.501L1971.5 1026.5C1971.5 1037.55 1962.55 1046.5 1951.5 1046.5L1871.5 1046.5C1860.45 1046.5 1851.5 1037.55 1851.5 1026.5Z" stroke="#000000" stroke-width="3.4375" stroke-linejoin="round" stroke-miterlimit="10" fill="none" fill-rule="evenodd"/><text font-family="Calibri,Calibri_MSFontService,sans-serif" font-weight="400" font-size="83" transform="matrix(1 0 0 1 1889.9 1000)">6</text><path d="M2112.5 921.667C2112.5 910.529 2121.53 901.5 2132.67 901.5L2213.33 901.5C2224.47 901.5 2233.5 910.529 2233.5 921.667L2233.5 1026.33C2233.5 1037.47 2224.47 1046.5 2213.33 1046.5L2132.67 1046.5C2121.53 1046.5 2112.5 1037.47 2112.5 1026.33Z" stroke="#000000" stroke-width="3.4375" stroke-linejoin="round" stroke-miterlimit="10" fill="none" fill-rule="evenodd"/><text font-family="Calibri,Calibri_MSFontService,sans-serif" font-weight="400" font-size="83" transform="matrix(1 0 0 1 2151.08 1000)">7</text><path d="M2374.5 921.501C2374.5 910.455 2383.45 901.5 2394.5 901.5L2474.5 901.5C2485.55 901.5 2494.5 910.455 2494.5 921.501L2494.5 1026.5C2494.5 1037.55 2485.55 1046.5 2474.5 1046.5L2394.5 1046.5C2383.45 1046.5 2374.5 1037.55 2374.5 1026.5Z" stroke="#000000" stroke-width="3.4375" stroke-linejoin="round" stroke-miterlimit="10" fill="none" fill-rule="evenodd"/><text font-family="Calibri,Calibri_MSFontService,sans-serif" font-weight="400" font-size="83" transform="matrix(1 0 0 1 2412.4 1000)">8</text><path d="M2631.5 921.667C2631.5 910.529 2640.53 901.5 2651.67 901.5L2732.33 901.5C2743.47 901.5 2752.5 910.529 2752.5 921.667L2752.5 1026.33C2752.5 1037.47 2743.47 1046.5 2732.33 1046.5L2651.67 1046.5C2640.53 1046.5 2631.5 1037.47 2631.5 1026.33Z" stroke="#000000" stroke-width="3.4375" stroke-linejoin="round" stroke-miterlimit="10" fill="none" fill-rule="evenodd"/><text font-family="Calibri,Calibri_MSFontService,sans-serif" font-weight="400" font-size="83" transform="matrix(1 0 0 1 2670.14 1000)">9</text><path d="M2874.5 926.167C2874.5 912.544 2885.54 901.5 2899.17 901.5L3013.83 901.5C3027.46 901.5 3038.5 912.544 3038.5 926.167L3038.5 1024.83C3038.5 1038.46 3027.46 1049.5 3013.83 1049.5L2899.17 1049.5C2885.54 1049.5 2874.5 1038.46 2874.5 1024.83Z" stroke="#000000" stroke-width="3.4375" stroke-linejoin="round" stroke-miterlimit="10" fill="none" fill-rule="evenodd"/><text font-family="Calibri,Calibri_MSFontService,sans-serif" font-weight="400" font-size="83" transform="matrix(1 0 0 1 2913.95 1002)">10</text><rect x="237" y="612" width="3001" height="1650" stroke="#0000FF" stroke-width="13.75" stroke-miterlimit="8" fill="none"/><rect x="993" y="648" width="2209" height="1390" stroke="#900090" stroke-width="13.75" stroke-miterlimit="8" fill="none"/><rect x="1256" y="685" width="1910" height="1130" stroke="#FF7700" stroke-width="13.75" stroke-miterlimit="8" fill="none"/><rect x="1782" y="718" width="1352" height="870" stroke="#00AA00" stroke-width="13.75" stroke-miterlimit="8" fill="none"/><rect x="2295" y="752" width="805" height="598" stroke="#00B0F0" stroke-width="13.75" stroke-miterlimit="8" fill="none"/><path d="M2334 1196.5C2334 1182.97 2344.97 1172 2358.5 1172L2935.5 1172C2949.03 1172 2960 1182.97 2960 1196.5L2960 1294.5C2960 1308.03 2949.03 1319 2935.5 1319L2358.5 1319C2344.97 1319 2334 1308.03 2334 1294.5Z" stroke="#00B0F0" stroke-width="10.3125" stroke-linejoin="round" stroke-miterlimit="10" fill="none" fill-rule="evenodd"/><text font-family="Courier New,Courier New_MSFontService,sans-serif" font-weight="400" font-size="83" transform="matrix(1 0 0 1 2374.08 1269)">primeros(0)</text><path d="M1832 1424.67C1832 1411.04 1843.04 1400 1856.67 1400L2433.33 1400C2446.96 1400 2458 1411.04 2458 1424.67L2458 1523.33C2458 1536.96 2446.96 1548 2433.33 1548L1856.67 1548C1843.04 1548 1832 1536.96 1832 1523.33Z" stroke="#00AA00" stroke-width="10.3125" stroke-linejoin="round" stroke-miterlimit="10" fill="none" fill-rule="evenodd"/><text font-family="Courier New,Courier New_MSFontService,sans-serif" font-weight="400" font-size="83" transform="matrix(1 0 0 1 1872.42 1497)">primeros(1)</text><path d="M1330 1651.67C1330 1638.04 1341.04 1627 1354.67 1627L1931.33 1627C1944.96 1627 1956 1638.04 1956 1651.67L1956 1750.33C1956 1763.96 1944.96 1775 1931.33 1775L1354.67 1775C1341.04 1775 1330 1763.96 1330 1750.33Z" stroke="#FF7700" stroke-width="10.3125" stroke-linejoin="round" stroke-miterlimit="10" fill="none" fill-rule="evenodd"/><text font-family="Courier New,Courier New_MSFontService,sans-serif" font-weight="400" font-size="83" transform="matrix(1 0 0 1 1370.44 1724)">primeros(2)</text><path d="M1047 1879.67C1047 1866.04 1058.04 1855 1071.67 1855L1647.33 1855C1660.96 1855 1672 1866.04 1672 1879.67L1672 1978.33C1672 1991.96 1660.96 2003 1647.33 2003L1071.67 2003C1058.04 2003 1047 1991.96 1047 1978.33Z" stroke="#900090" stroke-width="10.3125" stroke-linejoin="round" stroke-miterlimit="10" fill="none" fill-rule="evenodd"/><text font-family="Courier New,Courier New_MSFontService,sans-serif" font-weight="400" font-size="83" transform="matrix(1 0 0 1 1086.75 1952)">primeros(3)</text><path d="M294 2085.67C294 2072.04 305.044 2061 318.667 2061L895.333 2061C908.956 2061 920 2072.04 920 2085.67L920 2184.33C920 2197.96 908.956 2209 895.333 2209L318.667 2209C305.044 2209 294 2197.96 294 2184.33Z" stroke="#0000FF" stroke-width="10.3125" stroke-linejoin="round" stroke-miterlimit="10" fill="none" fill-rule="evenodd"/><text font-family="Courier New,Courier New_MSFontService,sans-serif" font-weight="400" font-size="83" transform="matrix(1 0 0 1 334.032 2158)">primeros(4)</text></g></svg>