<svg width="2762" height="811" xmlns="http://www.w3.org/2000/svg" xmlns:xlink="http://www.w3.org/1999/xlink" xml:space="preserve" overflow="hidden"><defs><clipPath id="clip0"><rect x="279" y="945" width="2762" height="811"/></clipPath></defs><g clip-path="url(#clip0)" transform="translate(-279 -945)"><path d="M351 1220.12 2960.06 1220.13 2960.06 1233.88 351 1233.87ZM2953.19 1206.38 2994.44 1227 2953.19 1247.63Z"/><path d="M530.5 1293C530.5 1279.47 541.469 1268.5 555 1268.5L669.999 1268.5C683.531 1268.5 694.5 1279.47 694.5 1293L694.5 1391C694.5 1404.53 683.531 1415.5 669.999 1415.5L555 1415.5C541.469 1415.5 530.5 1404.53 530.5 1391Z" stroke="#000000" stroke-width="3.4375" stroke-linejoin="round" stroke-miterlimit="10" fill="none" fill-rule="evenodd"/><text font-family="Calibri,Calibri_MSFontService,sans-serif" font-weight="400" font-size="83" transform="matrix(1 0 0 1 569.796 1369)">24</text><path d="M922.5 1293C922.5 1279.47 933.469 1268.5 947.001 1268.5L1062 1268.5C1075.53 1268.5 1086.5 1279.47 1086.5 1293L1086.5 1391C1086.5 1404.53 1075.53 1415.5 1062 1415.5L947.001 1415.5C933.469 1415.5 922.5 1404.53 922.5 1391Z" stroke="#000000" stroke-width="3.4375" stroke-linejoin="round" stroke-miterlimit="10" fill="none" fill-rule="evenodd"/><text font-family="Calibri,Calibri_MSFontService,sans-serif" font-weight="400" font-size="83" transform="matrix(1 0 0 1 961.798 1369)">25</text><path d="M1314.5 1293C1314.5 1279.47 1325.47 1268.5 1339 1268.5L1454 1268.5C1467.53 1268.5 1478.5 1279.47 1478.5 1293L1478.5 1391C1478.5 1404.53 1467.53 1415.5 1454 1415.5L1339 1415.5C1325.47 1415.5 1314.5 1404.53 1314.5 1391Z" stroke="#000000" stroke-width="3.4375" stroke-linejoin="round" stroke-miterlimit="10" fill="none" fill-rule="evenodd"/><text font-family="Calibri,Calibri_MSFontService,sans-serif" font-weight="400" font-size="83" transform="matrix(1 0 0 1 1353.8 1369)">26</text><path d="M2091.5 1293C2091.5 1279.47 2102.47 1268.5 2116 1268.5L2232 1268.5C2245.53 1268.5 2256.5 1279.47 2256.5 1293L2256.5 1391C2256.5 1404.53 2245.53 1415.5 2232 1415.5L2116 1415.5C2102.47 1415.5 2091.5 1404.53 2091.5 1391Z" stroke="#000000" stroke-width="3.4375" stroke-linejoin="round" stroke-miterlimit="10" fill="none" fill-rule="evenodd"/><text font-family="Calibri,Calibri_MSFontService,sans-serif" font-weight="400" font-size="83" transform="matrix(1 0 0 1 2131.61 1369)">28</text><path d="M2489.5 1293C2489.5 1279.47 2500.47 1268.5 2514 1268.5L2629 1268.5C2642.53 1268.5 2653.5 1279.47 2653.5 1293L2653.5 1391C2653.5 1404.53 2642.53 1415.5 2629 1415.5L2514 1415.5C2500.47 1415.5 2489.5 1404.53 2489.5 1391Z" stroke="#000000" stroke-width="3.4375" stroke-linejoin="round" stroke-miterlimit="10" fill="none" fill-rule="evenodd"/><text font-family="Calibri,Calibri_MSFontService,sans-serif" font-weight="400" font-size="83" transform="matrix(1 0 0 1 2529.06 1369)">29</text><path d="M2868.5 1293C2868.5 1279.47 2879.47 1268.5 2893 1268.5L3008 1268.5C3021.53 1268.5 3032.5 1279.47 3032.5 1293L3032.5 1391C3032.5 1404.53 3021.53 1415.5 3008 1415.5L2893 1415.5C2879.47 1415.5 2868.5 1404.53 2868.5 1391Z" stroke="#000000" stroke-width="3.4375" stroke-linejoin="round" stroke-miterlimit="10" fill="none" fill-rule="evenodd"/><text font-family="Calibri,Calibri_MSFontService,sans-serif" font-weight="400" font-size="83" transform="matrix(1 0 0 1 2907.82 1369)">30</text><path d="M1448 1038.67C1448 1025.04 1459.04 1014 1472.67 1014L1651.33 1014C1664.96 1014 1676 1025.04 1676 1038.67L1676 1137.33C1676 1150.96 1664.96 1162 1651.33 1162L1472.67 1162C1459.04 1162 1448 1150.96 1448 1137.33Z" stroke="#000000" stroke-width="10.3125" stroke-linejoin="round" stroke-miterlimit="10" fill="none" fill-rule="evenodd"/><text font-family="Courier New,Courier New_MSFontService,sans-serif" font-weight="400" font-size="83" transform="matrix(1 0 0 1 1487.84 1111)">...</text><path d="M1708.5 1293C1708.5 1279.47 1719.47 1268.5 1733 1268.5L1848 1268.5C1861.53 1268.5 1872.5 1279.47 1872.5 1293L1872.5 1391C1872.5 1404.53 1861.53 1415.5 1848 1415.5L1733 1415.5C1719.47 1415.5 1708.5 1404.53 1708.5 1391Z" stroke="#000000" stroke-width="3.4375" stroke-linejoin="round" stroke-miterlimit="10" fill="none" fill-rule="evenodd"/><text font-family="Calibri,Calibri_MSFontService,sans-serif" font-weight="400" font-size="83" transform="matrix(1 0 0 1 1748.16 1369)">27</text><path d="M293.5 990.168C293.5 971.021 309.021 955.5 328.167 955.5L556 955.5 556 955.5 668.5 955.5 708.833 955.5C727.979 955.5 743.5 971.021 743.5 990.168L743.5 1076.83 743.5 1076.83 743.5 1128.83 743.5 1128.83C743.5 1147.98 727.979 1163.5 708.833 1163.5L668.5 1163.5 619.7 1204.88 556 1163.5 328.167 1163.5C309.021 1163.5 293.5 1147.98 293.5 1128.83L293.5 1128.83 293.5 1076.83 293.5 1076.83Z" stroke="#0000FF" stroke-width="4.58333" stroke-miterlimit="8" fill="none" fill-rule="evenodd"/><text font-family="Calibri,Calibri_MSFontService,sans-serif" font-weight="400" font-size="73" transform="matrix(1 0 0 1 338.181 1040)">Vecino, eres <tspan font-size="73" x="74.0896" y="88">primo?</tspan></text><path d="M943.5 1059.83C943.5 1048.6 952.604 1039.5 963.834 1039.5L987.167 1039.5 987.167 1039.5 1052.67 1039.5 1185.17 1039.5C1196.4 1039.5 1205.5 1048.6 1205.5 1059.83L1205.5 1110.67 1205.5 1110.67 1205.5 1141.17 1205.5 1141.17C1205.5 1152.4 1196.4 1161.5 1185.17 1161.5L1052.67 1161.5 999.631 1209.72 987.167 1161.5 963.834 1161.5C952.604 1161.5 943.5 1152.4 943.5 1141.17L943.5 1141.17 943.5 1110.67 943.5 1110.67Z" stroke="#0000FF" stroke-width="4.58333" stroke-miterlimit="8" fill="none" fill-rule="evenodd"/><text font-family="Calibri,Calibri_MSFontService,sans-serif" font-weight="400" font-size="83" transform="matrix(1 0 0 1 1025.61 1127)">No</text><path d="M281.5 1536.17C281.5 1517.02 297.021 1501.5 316.167 1501.5L544 1501.5 613.929 1445.74 656.5 1501.5 696.833 1501.5C715.979 1501.5 731.5 1517.02 731.5 1536.17L731.5 1536.17 731.5 1536.17 731.5 1588.17 731.5 1674.83C731.5 1693.98 715.979 1709.5 696.833 1709.5L656.5 1709.5 544 1709.5 544 1709.5 316.167 1709.5C297.021 1709.5 281.5 1693.98 281.5 1674.83L281.5 1588.17 281.5 1536.17 281.5 1536.17Z" stroke="#0000FF" stroke-width="4.58333" stroke-miterlimit="8" fill="none" fill-rule="evenodd"/><text font-family="Calibri,Calibri_MSFontService,sans-serif" font-weight="400" font-size="73" transform="matrix(1 0 0 1 340.876 1586)">Y su vecino <tspan font-size="73" x="79.2688" y="88">lo es?</tspan></text><path d="M902.5 1542.5C902.5 1519.86 920.856 1501.5 943.5 1501.5L977.5 1501.5 1015.52 1441.4 1090 1501.5 1311.5 1501.5C1334.14 1501.5 1352.5 1519.86 1352.5 1542.5L1352.5 1542.5 1352.5 1542.5 1352.5 1604 1352.5 1706.5C1352.5 1729.14 1334.14 1747.5 1311.5 1747.5L1090 1747.5 977.5 1747.5 977.5 1747.5 943.5 1747.5C920.856 1747.5 902.5 1729.14 902.5 1706.5L902.5 1604 902.5 1542.5 902.5 1542.5Z" stroke="#0000FF" stroke-width="4.58333" stroke-miterlimit="8" fill="none" fill-rule="evenodd"/><text font-family="Calibri,Calibri_MSFontService,sans-serif" font-weight="400" font-size="73" transform="matrix(1 0 0 1 1063 1605)">deja <tspan font-size="73" x="-110.16" y="88">preguntarle</tspan></text><path d="M1854.5 987.167C1854.5 968.021 1870.02 952.5 1889.17 952.5L2117 952.5 2117 952.5 2229.5 952.5 2269.83 952.5C2288.98 952.5 2304.5 968.021 2304.5 987.167L2304.5 1073.83 2304.5 1073.83 2304.5 1125.83 2304.5 1125.83C2304.5 1144.98 2288.98 1160.5 2269.83 1160.5L2229.5 1160.5 2180.7 1201.88 2117 1160.5 1889.17 1160.5C1870.02 1160.5 1854.5 1144.98 1854.5 1125.83L1854.5 1125.83 1854.5 1073.83 1854.5 1073.83Z" stroke="#00AA00" stroke-width="4.58333" stroke-miterlimit="8" fill="none" fill-rule="evenodd"/><text font-family="Calibri,Calibri_MSFontService,sans-serif" font-weight="400" font-size="73" transform="matrix(1 0 0 1 1899.21 1037)">Vecino, eres <tspan font-size="73" x="74.0896" y="88">primo?</tspan></text><path d="M2526.5 1056C2526.5 1044.68 2535.68 1035.5 2547 1035.5L2570 1035.5 2570 1035.5 2635.25 1035.5 2767 1035.5C2778.32 1035.5 2787.5 1044.68 2787.5 1056L2787.5 1107.25 2787.5 1107.25 2787.5 1138 2787.5 1138C2787.5 1149.32 2778.32 1158.5 2767 1158.5L2635.25 1158.5 2582.42 1207.11 2570 1158.5 2547 1158.5C2535.68 1158.5 2526.5 1149.32 2526.5 1138L2526.5 1138 2526.5 1107.25 2526.5 1107.25Z" stroke="#00AA00" stroke-width="4.58333" stroke-miterlimit="8" fill="none" fill-rule="evenodd"/><text font-family="Calibri,Calibri_MSFontService,sans-serif" font-weight="400" font-size="83" transform="matrix(1 0 0 1 2614.16 1124)">SI!</text><path d="M1863.5 1542.5C1863.5 1519.86 1881.86 1501.5 1904.5 1501.5L2168 1501.5 2181.34 1435.17 2298.5 1501.5 2344.5 1501.5C2367.14 1501.5 2385.5 1519.86 2385.5 1542.5L2385.5 1542.5 2385.5 1542.5 2385.5 1604 2385.5 1706.5C2385.5 1729.14 2367.14 1747.5 2344.5 1747.5L2298.5 1747.5 2168 1747.5 2168 1747.5 1904.5 1747.5C1881.86 1747.5 1863.5 1729.14 1863.5 1706.5L1863.5 1604 1863.5 1542.5 1863.5 1542.5Z" stroke="#00AA00" stroke-width="4.58333" stroke-miterlimit="8" fill="none" fill-rule="evenodd"/><text font-family="Calibri,Calibri_MSFontService,sans-serif" font-weight="400" font-size="73" transform="matrix(1 0 0 1 1918.8 1605)">Super, avisaré <tspan font-size="73" x="45.5584" y="88">hacia atrás</tspan></text></g></svg>