<svg width="2899" height="1282" xmlns="http://www.w3.org/2000/svg" xmlns:xlink="http://www.w3.org/1999/xlink" xml:space="preserve" overflow="hidden"><defs><clipPath id="clip0"><rect x="138" y="812" width="2899" height="1282"/></clipPath></defs><g clip-path="url(#clip0)" transform="translate(-138 -812)"><path d="M351 1372.13 2960.06 1372.13 2960.06 1385.88 351 1385.88ZM2953.19 1358.38 2994.44 1379 2953.19 1399.63Z"/><path d="M548.5 1441.67C548.5 1430.53 557.529 1421.5 568.667 1421.5L649.333 1421.5C660.471 1421.5 669.5 1430.53 669.5 1441.67L669.5 1545.33C669.5 1556.47 660.471 1565.5 649.333 1565.5L568.667 1565.5C557.529 1565.5 548.5 1556.47 548.5 1545.33Z" stroke="#000000" stroke-width="3.4375" stroke-linejoin="round" stroke-miterlimit="10" fill="none" fill-rule="evenodd"/><text font-family="Calibri,Calibri_MSFontService,sans-serif" font-weight="400" font-size="83" transform="matrix(1 0 0 1 587.154 1520)">2</text><path d="M940.5 1441.67C940.5 1430.53 949.529 1421.5 960.667 1421.5L1041.33 1421.5C1052.47 1421.5 1061.5 1430.53 1061.5 1441.67L1061.5 1545.33C1061.5 1556.47 1052.47 1565.5 1041.33 1565.5L960.667 1565.5C949.529 1565.5 940.5 1556.47 940.5 1545.33Z" stroke="#000000" stroke-width="3.4375" stroke-linejoin="round" stroke-miterlimit="10" fill="none" fill-rule="evenodd"/><text font-family="Calibri,Calibri_MSFontService,sans-serif" font-weight="400" font-size="83" transform="matrix(1 0 0 1 979.16 1520)">3</text><path d="M1326.5 1441.67C1326.5 1430.53 1335.53 1421.5 1346.67 1421.5L1427.33 1421.5C1438.47 1421.5 1447.5 1430.53 1447.5 1441.67L1447.5 1545.33C1447.5 1556.47 1438.47 1565.5 1427.33 1565.5L1346.67 1565.5C1335.53 1565.5 1326.5 1556.47 1326.5 1545.33Z" stroke="#000000" stroke-width="3.4375" stroke-linejoin="round" stroke-miterlimit="10" fill="none" fill-rule="evenodd"/><text font-family="Calibri,Calibri_MSFontService,sans-serif" font-weight="400" font-size="83" transform="matrix(1 0 0 1 1364.94 1520)">4</text><path d="M1728.5 1441.67C1728.5 1430.53 1737.53 1421.5 1748.67 1421.5L1829.33 1421.5C1840.47 1421.5 1849.5 1430.53 1849.5 1441.67L1849.5 1545.33C1849.5 1556.47 1840.47 1565.5 1829.33 1565.5L1748.67 1565.5C1737.53 1565.5 1728.5 1556.47 1728.5 1545.33Z" stroke="#000000" stroke-width="3.4375" stroke-linejoin="round" stroke-miterlimit="10" fill="none" fill-rule="evenodd"/><text font-family="Calibri,Calibri_MSFontService,sans-serif" font-weight="400" font-size="83" transform="matrix(1 0 0 1 1767.1 1520)">5</text><path d="M2106.5 1441.67C2106.5 1430.53 2115.53 1421.5 2126.67 1421.5L2207.33 1421.5C2218.47 1421.5 2227.5 1430.53 2227.5 1441.67L2227.5 1545.33C2227.5 1556.47 2218.47 1565.5 2207.33 1565.5L2126.67 1565.5C2115.53 1565.5 2106.5 1556.47 2106.5 1545.33Z" stroke="#000000" stroke-width="3.4375" stroke-linejoin="round" stroke-miterlimit="10" fill="none" fill-rule="evenodd"/><text font-family="Calibri,Calibri_MSFontService,sans-serif" font-weight="400" font-size="83" transform="matrix(1 0 0 1 2145.18 1520)">6</text><path d="M2489.5 1441.5C2489.5 1430.45 2498.45 1421.5 2509.5 1421.5L2589.5 1421.5C2600.55 1421.5 2609.5 1430.45 2609.5 1441.5L2609.5 1545.5C2609.5 1556.55 2600.55 1565.5 2589.5 1565.5L2509.5 1565.5C2498.45 1565.5 2489.5 1556.55 2489.5 1545.5Z" stroke="#000000" stroke-width="3.4375" stroke-linejoin="round" stroke-miterlimit="10" fill="none" fill-rule="evenodd"/><text font-family="Calibri,Calibri_MSFontService,sans-serif" font-weight="400" font-size="83" transform="matrix(1 0 0 1 2527.77 1520)">7</text><path d="M2893.5 1441.5C2893.5 1430.45 2902.45 1421.5 2913.5 1421.5L2993.5 1421.5C3004.55 1421.5 3013.5 1430.45 3013.5 1441.5L3013.5 1545.5C3013.5 1556.55 3004.55 1565.5 2993.5 1565.5L2913.5 1565.5C2902.45 1565.5 2893.5 1556.55 2893.5 1545.5Z" stroke="#000000" stroke-width="3.4375" stroke-linejoin="round" stroke-miterlimit="10" fill="none" fill-rule="evenodd"/><text font-family="Calibri,Calibri_MSFontService,sans-serif" font-weight="400" font-size="83" transform="matrix(1 0 0 1 2931.46 1520)">8</text><path d="M181 872.335C181 841.774 205.774 817 236.335 817L980.665 817C1011.23 817 1036 841.774 1036 872.335L1036 1093.67C1036 1124.23 1011.23 1149 980.665 1149L236.335 1149C205.774 1149 181 1124.23 181 1093.67Z" stroke="#900090" stroke-width="10.3125" stroke-linejoin="round" stroke-miterlimit="10" fill="none" fill-rule="evenodd"/><text font-family="Courier New,Courier New_MSFontService,sans-serif" font-weight="400" font-size="73" transform="matrix(1 0 0 1 229.806 915)">i_esimo(4)<tspan font-size="73" x="0" y="88">cuenta_primos</tspan><tspan font-size="73" x="617.604" y="88">= 1</tspan><tspan font-size="73" x="0" y="176">primo_actual</tspan><tspan font-size="73" x="573.49" y="176">= 2</tspan></text><path d="M573 1807.33C573 1776.77 597.774 1752 628.335 1752L1372.67 1752C1403.23 1752 1428 1776.77 1428 1807.33L1428 2028.67C1428 2059.23 1403.23 2084 1372.67 2084L628.335 2084C597.774 2084 573 2059.23 573 2028.67Z" stroke="#FF7700" stroke-width="10.3125" stroke-linejoin="round" stroke-miterlimit="10" fill="none" fill-rule="evenodd"/><text font-family="Courier New,Courier New_MSFontService,sans-serif" font-weight="400" font-size="73" transform="matrix(1 0 0 1 621.812 1850)">i_esimo(4)<tspan font-size="73" x="0" y="88">cuenta_primos</tspan><tspan font-size="73" x="617.604" y="88">= 2</tspan><tspan font-size="73" x="0" y="176">primo_actual</tspan><tspan font-size="73" x="573.49" y="176">= 3</tspan></text><path d="M1361 872.335C1361 841.774 1385.77 817 1416.33 817L2160.67 817C2191.23 817 2216 841.774 2216 872.335L2216 1093.67C2216 1124.23 2191.23 1149 2160.67 1149L1416.33 1149C1385.77 1149 1361 1124.23 1361 1093.67Z" stroke="#00AA00" stroke-width="10.3125" stroke-linejoin="round" stroke-miterlimit="10" fill="none" fill-rule="evenodd"/><text font-family="Courier New,Courier New_MSFontService,sans-serif" font-weight="400" font-size="73" transform="matrix(1 0 0 1 1409.75 915)">i_esimo<tspan font-size="73" x="308.802" y="0">(4)</tspan><tspan font-size="73" x="0" y="88">cuenta_primos</tspan><tspan font-size="73" x="617.604" y="88">= 3</tspan><tspan font-size="73" x="0" y="176">primo_actual</tspan><tspan font-size="73" x="573.49" y="176">= 5</tspan></text><path d="M2121 1807.34C2121 1776.77 2145.77 1752 2176.33 1752L2921.67 1752C2952.23 1752 2977 1776.77 2977 1807.34L2977 2028.67C2977 2059.23 2952.23 2084 2921.67 2084L2176.33 2084C2145.77 2084 2121 2059.23 2121 2028.67Z" stroke="#00B0F0" stroke-width="10.3125" stroke-linejoin="round" stroke-miterlimit="10" fill="none" fill-rule="evenodd"/><text font-family="Courier New,Courier New_MSFontService,sans-serif" font-weight="400" font-size="73" transform="matrix(1 0 0 1 2170.43 1850)">i_esimo<tspan font-size="73" x="308.802" y="0">(4)</tspan><tspan font-size="73" x="0" y="88">cuenta_primos</tspan><tspan font-size="73" x="617.604" y="88">= 4</tspan><tspan font-size="73" x="0" y="176">primo_actual</tspan><tspan font-size="73" x="573.49" y="176">= 7</tspan></text><path d="M0.112033 3.43567-5.63797 3.62317-5.37855 3.60487-11.1285 4.22987-10.911 4.19917-16.661 5.19917-16.4077 5.1452-22.0952 6.5827-21.818 6.5001-33.068 10.3751-32.7144 10.2309-43.6519 15.4184-43.3311 15.2448-53.9561 21.7448-53.6713 21.5503-63.7963 29.2378-63.5718 29.0518-73.1968 37.7393-72.9892 37.5353-81.9892 47.1603-81.8048 46.9462-90.1173 57.4462-89.945 57.2082-97.3825 68.4582-97.2414 68.2252-103.804 80.1002-103.677 79.8468-109.24 92.2218-109.132 91.9516-113.632 104.764-113.542 104.466-116.855 117.591-116.791 117.276-118.853 130.589-118.817 130.238-119.504 143.676-119.521 143.12-118.771 149.87-118.92 149.181-116.733 155.869-116.966 155.321-113.404 162.009-113.681 161.571-108.744 168.196-109 167.891-102.75 174.516-102.999 174.277-95.4987 180.777-95.7034 180.613-87.0159 187.051-87.1981 186.925-77.3231 193.3-77.4893 193.199-66.4893 199.449-66.6312 199.372-54.5687 205.497-54.6902 205.439-41.6277 211.439-41.7374 211.391-27.6749 217.266-27.7813 217.223-12.7813 222.911-12.8633 222.881 3.01172 228.443 2.91423 228.411 19.6642 233.723 19.5911 233.701 37.0911 238.826 37.0333 238.81 55.2833 243.81 55.2009 243.788 74.1384 248.476 74.0808 248.462 93.7058 252.962 93.6357 252.947 113.823 257.134 113.774 257.124 134.586 261.124 134.525 261.113 155.775 264.801 155.715 264.791 177.465 268.166 177.417 268.159 199.604 271.284 199.515 271.272 244.952 276.46 244.848 276.449 291.348 280.324 291.272 280.319 314.834 281.756 314.77 281.753 338.457 282.753 338.403 282.751 362.215 283.376 362.152 283.375 386.049 283.563 410.01 284.065 433.949 285.447 457.764 287.709 481.454 290.851 504.948 294.871 528.251 299.645 551.246 305.237 573.852 311.579 596.149 318.55 618.014 326.279 639.434 334.696 660.289 343.679 680.643 353.291 700.38 363.41 719.427 374.16 737.784 385.35 755.394 397.048 772.256 409.191 788.246 421.782 803.359 434.753 817.54 448.052 830.724 461.741 842.905 475.752 854.023 490.029 864.019 504.516 872.824 519.276 880.433 534.241 886.785 549.357 891.812 564.629 895.443 580.046 897.675 595.481 898.441 610.986 897.804 626.469 895.896 641.922 892.846 657.237 888.591 672.477 883.202 687.631 876.803 702.519 869.334 717.268 860.86 731.813 851.447 746.09 841.151 760.112 829.92 773.741 817.94 787.108 805.08 800.094 791.535 812.694 777.238 824.85 762.314 836.562 746.705 847.766 730.533 858.526 713.854 868.659 696.553 878.285 678.878 887.28 660.693 895.711 642.133 903.387 623.265 910.431 604.013 916.785 584.504 922.386 564.74 927.17 544.794 931.134 524.713 934.345 504.481 936.614 486.89 937.659 486.482 930.796 503.984 929.756 503.804 929.771 523.867 927.521 523.707 927.543 543.645 924.356 543.517 924.378 563.33 920.441 563.191 920.471 582.816 915.721 582.676 915.758 602.051 910.196 601.923 910.236 621.048 903.923 620.923 903.967 639.673 896.967 639.561 897.011 657.999 889.386 657.867 889.444 675.929 881.069 675.816 881.124 693.378 872.186 693.266 872.246 710.454 862.684 710.34 862.75 726.903 852.687 726.783 852.763 742.846 842.076 742.746 842.145 758.246 831.02 758.128 831.108 772.94 819.483 772.836 819.569 787.023 807.506 786.909 807.608 800.346 795.108 800.245 795.206 812.995 782.331 812.878 782.456 824.753 769.206 824.66 769.314 835.785 755.814 835.667 755.966 845.854 742.091 845.755 742.233 855.068 728.108 854.967 728.27 863.342 713.895 863.246 714.072 870.621 699.509 870.529 699.705 876.842 685.018 876.761 685.223 882.074 670.286 882.002 670.513 886.189 655.513 886.129 655.766 889.129 640.704 889.088 640.954 890.963 625.766 890.94 626.046 891.565 610.859 891.567 611.17 890.817 595.982 890.848 596.305 888.66 581.18 888.717 581.476 885.154 566.351 885.235 566.637 880.297 551.637 880.393 551.894 874.143 537.019 874.248 537.246 866.748 522.496 866.86 522.699 858.173 508.136 858.296 508.327 848.421 494.015 848.538 494.175 837.538 480.05 837.656 480.193 825.593 466.318 825.712 466.447 812.649 452.885 812.774 453.007 798.711 439.82 798.824 439.921 783.824 427.046 783.936 427.138 768.061 414.638 768.179 414.727 751.429 402.664 751.535 402.738 734.035 391.113 734.148 391.185 715.898 380.06 715.998 380.119 697.061 369.431 697.182 369.496 677.557 359.434 677.657 359.483 657.407 349.921 657.515 349.97 636.765 341.032 636.868 341.074 615.555 332.699 615.667 332.741 593.917 325.054 594.037 325.093 571.849 318.156 571.946 318.185 549.446 311.872 549.563 311.903 526.688 306.34 526.81 306.368 503.623 301.618 503.733 301.638 480.358 297.638 480.486 297.658 456.923 294.533 457.05 294.547 433.362 292.297 433.489 292.307 409.677 290.932 409.803 290.937 385.928 290.437 385.973 290.437 362.066 290.25 338.195 289.623 314.448 288.621 290.815 287.179 244.225 283.296 198.69 278.098 176.434 274.963 154.63 271.58 133.319 267.882 112.451 263.871 92.2042 259.671 72.5153 255.156 53.5077 250.452 35.1877 245.432 17.6222 240.288 0.786783 234.949-15.1779 229.355-30.2723 223.631-44.4429 217.711-57.6212 211.658-69.8156 205.466-80.9702 199.128-91.02 192.64-99.9021 186.059-107.632 179.36-114.137 172.464-119.349 165.471-123.174 158.29-125.565 150.982-126.385 143.603-125.674 129.711-123.56 116.065-120.17 102.633-115.57 89.536-109.89 76.8989-103.193 64.7805-95.5989 53.2941-87.1074 42.568-77.9114 32.7333-68.0699 23.8505-57.6912 15.9703-46.7631 9.28489-35.4878 3.93717-23.9201-0.047235-17.9667-1.55196-11.9807-2.593-5.99209-3.24393-0.112033-3.43567ZM491.746 947.809 463.783 935.026 490.787 920.326Z" fill="#FF0000" transform="matrix(-1 0 0 1 1037.28 983.5)"/><path d="M1429.16 1915.09 1438.29 1914.59 1437.96 1914.63 1447.02 1913.25 1446.69 1913.32 1455.75 1911.01 1455.46 1911.1 1464.52 1907.91 1464.24 1908.02 1473.18 1903.96 1472.95 1904.07 1481.77 1899.26 1481.55 1899.38 1490.3 1893.76 1490.12 1893.89 1498.74 1887.51 1498.57 1887.65 1507.01 1880.52 1506.89 1880.63 1515.27 1872.88 1515.12 1873.02 1523.25 1864.58 1523.13 1864.71 1531.07 1855.58 1530.97 1855.7 1538.66 1846.01 1538.58 1846.12 1546.08 1835.87 1546 1835.99 1553.25 1825.17 1553.18 1825.28 1560.18 1813.97 1560.11 1814.08 1566.8 1802.33 1566.74 1802.44 1573.11 1790.19 1573.07 1790.28 1579.19 1777.59 1579.14 1777.72 1584.82 1764.65 1584.78 1764.75 1590.16 1751.31 1590.12 1751.41 1595.12 1737.66 1595.09 1737.76 1599.71 1723.76 1599.68 1723.88 1603.86 1709.5 1603.84 1709.59 1607.65 1695.03 1607.62 1695.15 1610.93 1680.4 1610.91 1680.5 1613.79 1665.56 1613.77 1665.68 1616.14 1650.56 1616.13 1650.67 1618 1635.48 1617.99 1635.59 1619.36 1620.22 1619.36 1620.33 1620.23 1604.96 1620.23 1605.1 1620.48 1589.72 1620.48 1589.85 1620.16 1574.47 1620.17 1574.58 1619.36 1559.21 1619.36 1559.33 1617.99 1544.02 1618 1544.13 1616.13 1528.88 1616.14 1529.01 1613.71 1513.95 1613.72 1514.05 1610.85 1499.05 1610.87 1499.17 1607.5 1484.42 1607.52 1484.51 1603.77 1469.95 1603.81 1470.07 1599.56 1455.75 1599.58 1455.85 1594.96 1441.79 1595 1441.9 1589.94 1428.15 1589.97 1428.25 1584.6 1414.87 1584.65 1414.99 1578.83 1401.92 1578.87 1402.01 1572.81 1389.32 1572.87 1389.44 1566.43 1377.19 1566.49 1377.3 1559.74 1365.55 1559.81 1365.66 1552.75 1354.35 1552.81 1354.44 1545.56 1343.63 1545.65 1343.75 1538.08 1333.5 1538.17 1333.62 1530.36 1323.93 1530.45 1324.04 1522.51 1314.98 1522.62 1315.1 1514.44 1306.6 1514.58 1306.74 1506.2 1298.99 1506.34 1299.11 1497.78 1291.98 1497.94 1292.11 1489.25 1285.73 1489.43 1285.86 1480.68 1280.23 1480.91 1280.37 1471.97 1275.55 1472.19 1275.66 1463.19 1271.6 1463.46 1271.71 1454.4 1268.52 1454.69 1268.61 1445.57 1266.3 1445.9 1266.36 1436.78 1264.99 1437.1 1265.02 1427.91 1264.52 1428.03 1264.53 1418.76 1264.34 1409.49 1263.7 1400.23 1262.75 1390.93 1261.35 1372.83 1257.55 1355.08 1252.42 1337.97 1246.02 1321.56 1238.54 1306.02 1229.98 1291.48 1220.52 1278.08 1210.16 1266 1199.17 1260.49 1193.34 1255.32 1187.4 1250.59 1181.32 1246.22 1175.1 1242.37 1168.8 1238.9 1162.37 1235.92 1155.84 1233.47 1149.25 1231.46 1142.57 1230.02 1135.85 1229.17 1129.07 1228.85 1122.31 1229.04 1115.58 1229.62 1108.85 1231.8 1095.66 1235.39 1082.64 1240.26 1069.97 1246.2 1057.7 1253.23 1045.94 1261.27 1034.9 1270.14 1024.5 1279.79 1014.98 1290.14 1006.35 1301.02 998.798 1312.5 992.323 1324.41 987.081 1337.97 983.554 1339.7 990.207 1326.4 993.665 1326.92 993.485 1315.42 998.547 1315.73 998.395 1304.54 1004.71 1304.81 1004.54 1294.19 1011.91 1294.43 1011.73 1284.3 1020.17 1284.51 1019.97 1275.08 1029.29 1275.28 1029.07 1266.59 1039.26 1266.75 1039.05 1258.88 1049.86 1259.05 1049.6 1252.18 1061.1 1252.32 1060.84 1246.51 1072.84 1246.62 1072.57 1241.87 1084.95 1241.98 1084.63 1238.48 1097.32 1238.55 1096.96 1236.43 1109.84 1236.46 1109.57 1235.9 1116.07 1235.91 1115.88 1235.72 1122.38 1235.72 1122.11 1236.03 1128.61 1236.01 1128.35 1236.82 1134.85 1236.77 1134.56 1238.15 1141 1238.08 1140.72 1240.02 1147.16 1239.95 1146.95 1242.32 1153.33 1242.23 1153.1 1245.1 1159.41 1245 1159.21 1248.38 1165.46 1248.28 1165.29 1252.03 1171.42 1251.92 1171.24 1256.17 1177.3 1256.06 1177.16 1260.69 1183.1 1260.57 1182.96 1265.63 1188.77 1265.54 1188.66 1270.91 1194.35 1270.73 1194.17 1282.6 1204.98 1282.39 1204.81 1295.58 1214.99 1295.35 1214.83 1309.66 1224.14 1309.45 1224.02 1324.76 1232.45 1324.53 1232.34 1340.71 1239.71 1340.49 1239.62 1357.37 1245.93 1357.12 1245.85 1374.62 1250.91 1374.37 1250.85 1392.24 1254.6 1392.05 1254.56 1401.18 1255.94 1401.01 1255.92 1410.14 1256.86 1410.02 1256.85 1419.15 1257.47 1418.98 1257.46 1428.23 1257.65 1437.64 1258.17 1447.09 1259.59 1456.53 1261.98 1465.88 1265.27 1475.12 1269.44 1484.28 1274.38 1493.24 1280.13 1502.09 1286.63 1510.81 1293.88 1519.32 1301.76 1527.63 1310.39 1535.67 1319.56 1543.57 1329.36 1551.22 1339.73 1558.55 1350.66 1565.67 1362.07 1572.49 1373.93 1578.99 1386.3 1585.1 1399.09 1590.95 1412.25 1596.37 1425.73 1601.47 1439.58 1606.13 1453.75 1610.41 1468.17 1614.19 1482.84 1617.59 1497.69 1620.49 1512.8 1622.94 1527.98 1624.83 1543.35 1626.22 1558.78 1627.04 1574.28 1627.35 1589.77 1627.1 1605.28 1626.22 1620.78 1624.83 1636.26 1622.94 1651.57 1620.55 1666.81 1617.65 1681.85 1614.32 1696.71 1610.48 1711.38 1606.26 1725.86 1601.6 1739.97 1596.56 1753.81 1591.15 1767.35 1585.41 1780.52 1579.24 1793.32 1572.81 1805.67 1566.06 1817.53 1558.99 1828.95 1551.67 1839.87 1544.08 1850.24 1536.31 1860.04 1528.26 1869.29 1520.01 1877.86 1511.5 1885.73 1502.92 1892.97 1494.12 1899.48 1485.17 1905.23 1476.14 1910.17 1466.95 1914.34 1457.6 1917.63 1448.22 1920.02 1438.83 1921.45 1429.54 1921.96ZM1332.27 973.957 1361.5 983.5 1336.33 1001.16Z" fill="#FF0000"/><path d="M0.143648 3.4345-16.2939 4.122-15.9951 4.09642-32.3701 6.22142-32.1057 6.17654-48.1682 9.55154-47.915 9.48824-63.6025 14.0507-63.3686 13.9735-78.5561 19.5985-78.3154 19.4989-92.8779 26.1864-92.6559 26.0745-106.406 33.637-106.188 33.5065-119.063 41.8815-118.836 41.7204-130.649 50.8454-130.425 50.6571-141.113 60.4696-140.894 60.2498-150.269 70.5623-150.097 70.3582-154.222 75.6707-154.123 75.5359-157.935 80.9734-157.835 80.8219-161.273 86.3219-161.154 86.1176-164.154 91.7427-164.053 91.5371-166.616 97.2246-166.537 97.0348-168.725 102.785-168.639 102.53-170.327 108.281-170.264 108.035-171.514 113.848-171.466 113.565-172.216 119.377-172.191 119.084-172.441 124.959-172.442 124.63-172.13 130.505-172.175 130.105-171.175 135.917-171.243 135.608-169.68 141.42-169.771 141.132-167.646 146.945-167.78 146.629-165.03 152.316-165.155 152.082-161.842 157.77-161.967 157.571-158.155 163.196-158.295 163.004-153.982 168.504-154.113 168.347-149.301 173.784-149.43 173.646-144.118 179.021-144.26 178.885-138.51 184.073-138.62 183.978-132.432 189.103-132.558 189.003-125.996 193.941-126.115 193.855-119.115 198.667-119.276 198.563-104.276 207.688-104.497 207.565-88.1222 215.94-88.3198 215.846-70.8823 223.409-71.0814 223.33-52.5814 230.017-52.7859 229.95-33.5359 235.575-33.7332 235.524-13.7957 240.087-14.0024 240.046 6.43507 243.421 6.215 243.392 26.965 245.454 26.7481 245.44 47.7058 246.19 58.3794 246.699 69.129 248.179 79.7923 250.684 90.4246 254.079 100.917 258.366 111.321 263.536 121.576 269.523 131.627 276.266 141.532 283.822 151.233 292.065 160.668 300.993 169.905 310.546 178.881 320.787 187.596 331.586 195.994 342.951 204.064 354.867 211.882 367.225 219.262 380.091 226.319 393.451 232.933 407.181 239.168 421.226 244.965 435.718 250.252 450.448 255.164 465.497 259.51 480.804 263.35 496.291 266.688 511.971 269.461 527.851 271.603 543.854 273.177 559.913 274.185 576.11 274.501 592.306 274.249 608.482 273.494 624.589 272.236 640.691 270.537 656.668 268.336 672.516 265.759 688.17 262.739 703.708 259.28 718.992 255.443 734.023 251.23 748.739 246.701 763.143 241.793 777.24 236.568 790.961 231.03 804.24 225.235 817.154 219.12 829.51 212.752 841.427 206.126 852.784 199.306 863.584 192.22 873.832 184.937 883.396 177.458 892.333 169.835 900.59 162.002 908.169 154.079 914.941 145.944 920.963 137.714 926.17 129.254 930.565 118.632 933.898 116.573 927.339 126.908 924.095 126.353 924.324 134.416 920.137 134.162 920.283 142.162 915.22 141.955 915.362 149.892 909.487 149.704 909.637 157.454 903.012 157.297 903.154 164.985 895.717 164.849 895.856 172.349 887.731 172.239 887.856 179.614 879.044 179.515 879.167 186.703 869.73 186.61 869.858 193.61 859.733 193.531 859.852 200.281 849.164 200.218 849.268 206.781 838.018 206.718 838.13 213.031 826.317 212.982 826.413 219.044 814.163 218.989 814.28 224.739 801.467 224.702 801.552 230.202 788.364 230.162 788.464 235.35 774.839 235.316 774.932 240.191 760.932 240.158 761.031 244.658 746.719 244.633 746.804 248.82 732.179 248.794 732.275 252.607 717.337 252.585 717.429 256.022 702.241 256.001 702.344 259.001 686.907 258.983 687.004 261.546 671.442 261.533 671.527 263.72 655.777 263.707 655.887 265.394 640.012 265.385 640.107 266.635 624.107 266.629 624.214 267.379 608.214 267.375 608.321 267.625 592.259 267.626 592.379 267.313 576.317 267.319 576.464 266.319 560.401 266.329 560.523 264.766 544.585 264.78 544.706 262.655 528.831 262.676 528.966 259.926 513.216 259.95 513.341 256.638 497.778 256.664 497.89 252.851 482.515 252.881 482.626 248.568 467.439 248.607 467.566 243.732 452.629 243.765 452.724 238.515 438.099 238.558 438.214 232.808 423.839 232.858 423.957 226.671 410.02 226.716 410.117 220.153 396.492 220.211 396.606 213.211 383.356 213.268 383.46 205.956 370.71 206.033 370.838 198.283 358.588 198.341 358.678 190.341 346.865 190.423 346.98 182.11 335.73 182.2 335.846 173.575 325.159 173.665 325.266 164.79 315.141 164.904 315.264 155.779 305.827 155.887 305.934 146.575 297.122 146.712 297.245 137.149 289.12 137.29 289.233 127.54 281.796 127.71 281.917 117.835 275.292 118.017 275.406 107.954 269.531 108.158 269.641 97.9703 264.578 98.2 264.682 87.95 260.495 88.2045 260.587 77.8295 257.275 78.0888 257.346 67.7138 254.909 68.031 254.968 57.5935 253.53 57.899 253.559 47.399 253.059 47.4394 253.06 26.3932 252.306 5.42449 250.222-15.2266 246.812-35.3662 242.203-54.8174 236.519-73.5194 229.759-91.1555 222.11-107.741 213.628-122.931 204.387-130.07 199.479-136.756 194.449-143.061 189.226-148.938 183.924-154.386 178.412-159.329 172.827-163.779 167.152-167.724 161.331-171.162 155.428-174.045 149.467-176.28 143.351-177.923 137.239-178.984 131.072-179.316 124.831-179.053 118.644-178.266 112.543-176.959 106.466-175.198 100.466-172.926 94.4941-170.275 88.6085-167.165 82.7782-163.617 77.101-159.704 71.5205-155.446 66.0364-145.877 55.5103-134.967 45.494-122.929 36.1945-109.83 27.6742-95.8601 19.9906-81.0661 13.1968-65.6408 7.48368-49.7096 2.85031-33.388-0.579142-16.7311-2.74073-0.143648-3.4345ZM124.745 943.23 95.1135 935.026 119.455 916.243Z" fill="#FF0000" transform="matrix(-1 0 0 1 2216.61 983.5)"/><path d="M609 1149 609 1420.42" stroke="#900090" stroke-width="10.3125" stroke-miterlimit="8" stroke-dasharray="10.3125 10.3125" fill="none" fill-rule="evenodd"/><path d="M1001 1565 1001 1751.91" stroke="#FF7700" stroke-width="10.3125" stroke-miterlimit="8" stroke-dasharray="10.3125 10.3125" fill="none" fill-rule="evenodd"/><path d="M1788 1149 1788 1420.42" stroke="#00AA00" stroke-width="10.3125" stroke-miterlimit="8" stroke-dasharray="10.3125 10.3125" fill="none" fill-rule="evenodd"/><path d="M2549 1565 2549 1751.91" stroke="#00B0F0" stroke-width="10.3125" stroke-miterlimit="8" stroke-dasharray="10.3125 10.3125" fill="none" fill-rule="evenodd"/></g></svg>