<svg width="2266" height="677" xmlns="http://www.w3.org/2000/svg" xmlns:xlink="http://www.w3.org/1999/xlink" xml:space="preserve" overflow="hidden"><defs><clipPath id="clip0"><rect x="242" y="933" width="2266" height="677"/></clipPath></defs><g clip-path="url(#clip0)" transform="translate(-242 -933)"><rect x="254.5" y="939.5" width="1138" height="122" stroke="#000000" stroke-width="3.4375" stroke-linejoin="round" stroke-miterlimit="10" fill="none"/><text fill="#FF7700" font-family="Courier New,Courier New_MSFontService,sans-serif" font-weight="400" font-size="73" transform="matrix(1 0 0 1 286.713 1020)">mayorDigito(0,mayor)</text><rect x="1017.5" y="1195.5" width="819" height="130" stroke="#000000" stroke-width="4.58333" stroke-miterlimit="8" fill="#900090"/><text fill="#FFFFFF" font-family="Courier New,Courier New_MSFontService,sans-serif" font-weight="400" font-size="73" transform="matrix(1 0 0 1 1272.06 1281)">n == 0?</text><rect x="2017.5" y="1461.5" width="489" height="122" stroke="#000000" stroke-width="3.4375" stroke-linejoin="round" stroke-miterlimit="10" fill="none"/><text font-family="Courier New,Courier New_MSFontService,sans-serif" font-weight="400" font-size="73" transform="matrix(1 0 0 1 2050.15 1542)">mayor = 7</text><path d="M1836.11 1253.13 1856.13 1253.44 1876.26 1254.26 1896.27 1255.71 1916.21 1257.67 1935.95 1260.19 1955.44 1263.15 1974.75 1266.63 1993.79 1270.6 2012.52 1274.95 2030.89 1279.75 2048.88 1284.99 2066.44 1290.61 2083.49 1296.61 2100.11 1302.93 2116.12 1309.63 2131.62 1316.66 2146.45 1323.95 2160.67 1331.56 2174.15 1339.44 2186.94 1347.59 2198.94 1355.95 2210.13 1364.59 2220.53 1373.38 2230.03 1382.42 2238.58 1391.69 2246.14 1401.08 2253 1411.06 2258.97 1425.26 2246.29 1430.59 2240.6 1417.04 2241.27 1418.27 2234.96 1409.08 2235.27 1409.5 2228.02 1400.5 2228.32 1400.85 2220.07 1391.91 2220.38 1392.23 2211.2 1383.48 2211.5 1383.75 2201.37 1375.19 2201.61 1375.38 2190.68 1366.94 2190.94 1367.14 2179.19 1358.95 2179.43 1359.11 2166.87 1351.11 2167.09 1351.25 2153.84 1343.5 2154.07 1343.62 2140.07 1336.12 2140.28 1336.23 2125.66 1329.05 2125.85 1329.14 2110.54 1322.2 2110.72 1322.28 2094.91 1315.65 2095.12 1315.74 2078.68 1309.49 2078.84 1309.55 2061.97 1303.61 2062.15 1303.67 2044.78 1298.11 2044.95 1298.16 2027.14 1292.98 2027.33 1293.03 2009.14 1288.28 2009.32 1288.32 1990.76 1284.01 1990.91 1284.04 1972.03 1280.1 1972.22 1280.14 1953.1 1276.7 1953.28 1276.73 1933.97 1273.8 1934.13 1273.82 1914.57 1271.32 1914.77 1271.34 1895.02 1269.4 1895.19 1269.42 1875.38 1267.98 1875.6 1267.99 1855.66 1267.18 1855.83 1267.19 1835.89 1266.87ZM2270.71 1415.86 2261.67 1461.09 2230.92 1426.72Z"/><path d="M0.953204-6.8086 4.93897-6.25059 9.5891-4.33583 13.7496-1.5067 17.5122 2.02556 21.1273 6.36372 24.4281 11.2461 27.7214 16.7573 30.8345 22.9834 33.8897 29.7439 36.8621 37.175 39.7541 45.1442 42.4988 53.6336 45.2337 62.6651 47.8377 72.2555 50.3679 82.2495 52.8345 92.8117 55.1739 103.75 57.3844 115.118 59.4625 126.831 61.4817 138.883 65.068 163.988 68.1512 190.226 70.6046 217.277 72.4285 245.074 73.5607 273.254 73.9369 301.596 74.3119 329.846 74.307 329.662 75.432 357.725 75.4227 357.549 77.2352 385.111 77.222 384.943 79.6595 411.88 79.6403 411.696 82.7028 437.696 82.6809 437.528 86.2434 462.465 86.2246 462.342 88.1621 474.342 88.1379 474.201 90.2629 485.826 90.2486 485.75 92.4361 497 92.4105 496.875 94.723 507.687 94.7016 507.591 97.0766 517.966 97.0423 517.823 99.5423 527.76 99.4986 527.595 102.124 537.033 102.093 536.925 104.718 545.8 104.652 545.591 107.402 553.903 107.338 553.717 110.15 561.467 110.071 561.259 112.946 568.447 111.965 566.749 116.971 573.111 106.165 581.613 100.547 574.473 97.2629 566.262 94.3788 558.315 91.5634 549.805 88.8914 540.771 86.2286 531.198 83.6898 521.106 81.2874 510.611 78.9511 499.688 76.744 488.337 74.5993 476.604 72.6404 464.472 69.0571 439.388 65.9738 413.212 63.5204 386.098 61.6965 358.363 60.5643 330.121 60.1881 301.779 59.8131 273.529 59.818 273.714 58.693 245.714 58.7022 245.888 56.8898 218.263 56.9031 218.434 54.4656 191.559 54.4845 191.74 51.422 165.677 51.4441 165.847 47.8816 140.91 47.907 141.074 45.907 129.136 45.9182 129.201 43.8557 117.576 43.8764 117.687 41.6889 106.437 41.7145 106.563 39.402 95.7504 39.4301 95.876 36.9926 85.4385 37.0228 85.5623 34.5228 75.6873 34.5527 75.8015 31.9902 66.364 32.0451 66.555 29.3576 57.68 29.3959 57.8025 26.7084 49.49 26.7874 49.7203 23.9749 41.9703 24.0542 42.1783 21.1792 34.9908 21.2976 35.2688 18.3601 28.7688 18.4758 29.0121 15.5383 23.1371 15.7859 23.5891 12.7234 18.4641 12.9295 18.788 9.92946 14.3505 10.3435 14.9013 7.21848 11.1513 7.7945 11.7624 4.732 8.88738 5.57162 9.56012 2.44662 7.43512 3.69484 8.10716 0.507345 6.79466 2.1718 7.2461-0.953204 6.8086ZM122.685 558.679 134.035 603.379 91.4649 585.639Z" fill="#FF7700" transform="matrix(1.83697e-16 1 1 -1.83697e-16 823 1061)"/></g></svg>