<svg width="2456" height="2233" xmlns="http://www.w3.org/2000/svg" xmlns:xlink="http://www.w3.org/1999/xlink" xml:space="preserve" overflow="hidden"><defs><clipPath id="clip0"><rect x="126" y="178" width="2456" height="2233"/></clipPath></defs><g clip-path="url(#clip0)" transform="translate(-126 -178)"><rect x="1402.5" y="392.5" width="819" height="130" stroke="#000000" stroke-width="4.58333" stroke-miterlimit="8" fill="#900090"/><text fill="#FFFFFF" font-family="Courier New,Courier New_MSFontService,sans-serif" font-weight="400" font-size="73" transform="matrix(1 0 0 1 1480.39 478)">digito &gt; mayor?</text><rect x="137.5" y="184.5" width="910" height="122" stroke="#000000" stroke-width="3.4375" stroke-linejoin="round" stroke-miterlimit="10" fill="none"/><text font-family="Courier New,Courier New_MSFontService,sans-serif" font-weight="400" font-size="73" transform="matrix(1 0 0 1 170.055 266)">mayorDigito<tspan font-size="73" x="485.26" y="0">(47352)</tspan></text><rect x="1402.5" y="611.5" width="1178" height="122" stroke="#000000" stroke-width="3.4375" stroke-linejoin="round" stroke-miterlimit="10" fill="none"/><text fill="#00AA00" font-family="Courier New,Courier New_MSFontService,sans-serif" font-weight="400" font-size="73" transform="matrix(1 0 0 1 1434.84 692)">mayorDigito<tspan font-size="73" x="485.26" y="0">(4735, digito)</tspan></text><rect x="312.5" y="396.5" width="130" height="122" stroke="#000000" stroke-width="3.4375" stroke-linejoin="round" stroke-miterlimit="10" fill="none"/><text font-family="Courier New,Courier New_MSFontService,sans-serif" font-weight="400" font-size="73" transform="matrix(1 0 0 1 354.962 477)">2</text><path d="M0.815106-6.82651 5.79089-6.23239 11.283-4.23525 16.3818-1.17599 21.027 2.73188 25.4233 7.34097 29.4555 12.6244 33.2425 18.5755 36.7184 24.9926 39.9083 31.9705 42.7422 39.4176 45.2333 47.2188 47.3267 55.3307 49.026 63.6964 50.2683 72.2619 51.0533 81.028 51.3094 89.6074 51.5594 97.9824 51.5351 97.5743 52.2851 105.949 52.2413 105.576 53.4288 113.763 53.3624 113.381 54.9874 121.381 54.9069 121.032 56.9069 128.782 56.7992 128.409 59.1742 135.846 59.0239 135.424 61.7739 142.424 61.65 142.129 64.5875 148.691 63.0031 146.474 68.1785 151.303 58.7973 161.356 52.6055 155.578 49.0346 147.6 46.1441 140.243 43.6417 132.406 41.5483 124.294 39.849 115.929 38.6067 107.363 37.8217 98.597 37.5656 90.0176 37.3156 81.6426 37.3399 82.0507 36.5899 73.6757 36.6337 74.0493 35.4462 65.8618 35.5126 66.2435 33.8876 58.2435 33.9681 58.5929 31.9681 50.8429 32.0758 51.2163 29.7008 43.7788 29.8245 44.1326 27.137 37.0701 27.3099 37.4833 24.3099 30.9208 24.5174 31.3369 21.2674 25.3369 21.5123 25.7535 18.0123 20.2535 18.3472 20.7334 14.7222 15.9834 15.2127 16.5577 11.3377 12.4952 11.8866 13.0109 7.94914 9.69843 8.83784 10.3328 4.77534 7.89526 5.96302 8.46108 1.83802 6.96108 3.37239 7.32651-0.815106 6.82651ZM72.333 136.47 88.8553 179.527 44.4958 166.911Z" transform="matrix(1.83697e-16 1 1 -1.83697e-16 1811 522)"/><path d="M0.334228-6.86687 14.7947-6.16304 29.4338-4.0064 43.7706-0.552529 57.8317 4.13452 71.3486 9.98319 84.272 16.8021 96.4722 24.5894 107.972 33.1654 118.545 42.5641 128.082 52.689 136.541 63.3765 143.948 74.9292 148.558 87.5635 135.641 92.2768 131.292 80.3566 131.962 81.7108 125.15 71.0858 125.547 71.6415 117.484 61.454 117.871 61.9014 108.746 52.2139 109.183 52.6384 99.0575 43.6384 99.5149 44.0112 88.4525 35.7612 88.8635 36.0451 77.1135 28.5451 77.6042 28.8305 65.1667 22.268 65.6449 22.4972 52.6449 16.8722 53.2009 17.0847 39.7009 12.5847 40.2648 12.7463 26.5148 9.43378 27.123 9.55159 13.123 7.48909 13.7908 7.55437-0.334228 6.86687ZM160.352 78.1095 150.689 123.205 120.411 88.417Z" transform="matrix(1.83697e-16 1 1 -1.83697e-16 592 306)"/><rect x="1403.5" y="1031.5" width="1177" height="123" stroke="#000000" stroke-width="3.4375" stroke-linejoin="round" stroke-miterlimit="10" fill="none"/><text fill="#0000FF" font-family="Courier New,Courier New_MSFontService,sans-serif" font-weight="400" font-size="73" transform="matrix(1 0 0 1 1435.65 1113)">mayorDigito<tspan font-size="73" x="485.26" y="0">(473,digito)</tspan></text><rect x="312.5" y="801.5" width="130" height="122" stroke="#000000" stroke-width="3.4375" stroke-linejoin="round" stroke-miterlimit="10" fill="none"/><text font-family="Courier New,Courier New_MSFontService,sans-serif" font-weight="400" font-size="73" transform="matrix(1 0 0 1 354.962 882)">5</text><path d="M0.0536162-6.87479 72.2298-6.31189 143.881-4.68488 179.319-3.49526 214.371-2.05563 249.043-0.36581 283.218 1.51193 316.833 3.64023 349.819 5.95617 382.066 8.46074 413.559 11.2156 444.168 14.0949 473.92 17.1015 502.679 20.3596 530.367 23.7423 556.937 27.2516 582.329 30.888 606.483 34.6522 629.277 38.5454 650.615 42.5619 660.82 44.5777 670.606 46.6611 679.967 48.7973 688.982 50.8776 697.579 53.0268 705.811 55.1798 713.595 57.3949 720.956 59.5523 727.945 61.7967 734.469 64.0991 740.515 66.3502 746.13 68.6738 751.372 70.9673 756.152 73.3911 760.456 75.8792 764.331 78.37 767.781 81.0127 770.733 83.8136 773.289 86.782 775.263 90.1016 776.675 93.7313 777.083 97.5049 776.534 107.514 775.064 117.27 772.727 126.818 769.527 136.085 765.539 145.059 760.832 153.61 755.549 161.667 749.704 169.306 743.238 176.305 735.966 183.012 723.317 189.855 716.775 177.761 728.666 171.328 727.276 172.321 733.714 166.384 733.325 166.772 739.388 160.21 738.978 160.697 744.478 153.51 744.188 153.918 749.188 146.293 748.914 146.748 753.352 138.685 753.093 139.208 756.843 130.77 756.627 131.318 759.627 122.631 759.447 123.241 761.635 114.303 761.514 114.913 762.889 105.788 762.823 106.436 763.323 97.3113 763.352 98.4265 763.102 96.114 763.53 97.8668 762.655 95.6168 763.153 96.6386 761.778 94.3261 762.478 95.2987 760.54 93.0487 761.018 93.55 758.581 91.2375 759.132 91.7079 756.194 89.4579 756.657 89.7831 753.157 87.5331 753.434 87.7019 749.434 85.3894 749.766 85.5693 745.328 83.3193 745.682 83.4861 740.682 81.2986 740.809 81.3526 735.371 79.1026 735.601 79.1929 729.726 77.0054 729.837 77.0456 723.462 74.7956 723.648 74.8583 716.836 72.6708 717.004 72.7224 709.754 70.5975 709.806 70.6125 702.118 68.425 702.26 68.4638 694.135 66.3388 694.208 66.3572 685.708 64.2322 685.829 64.2614 676.908 62.2027 667.596 60.0777 667.693 60.0993 658.006 58.0368 658.105 58.0572 647.98 56.0572 648.041 56.0688 626.791 52.0688 626.905 52.0894 604.218 48.2144 604.316 48.2305 580.254 44.4805 580.338 44.4931 555.025 40.8681 555.1 40.8783 528.6 37.3783 528.666 37.3868 501.041 34.0118 501.101 34.0188 472.414 30.7688 472.496 30.7777 442.809 27.7777 442.856 27.7823 412.294 24.9073 412.338 24.9113 380.901 22.1613 380.968 22.1669 348.78 19.6669 348.831 19.6706 315.893 17.3581 315.941 17.3613 282.378 15.2363 282.435 15.2396 248.31 13.3646 248.353 13.3668 213.728 11.6793 213.78 11.6817 178.78 10.2442 178.832 10.2461 143.457 9.05863 143.531 9.06073 71.9689 7.43573 72.0714 7.43729-0.0536162 6.87479ZM733.448 200.926 687.667 195.351 719.596 162.072Z" fill="#0000FF" transform="matrix(-1 1.22465e-16 1.22465e-16 1 1402.67 1093)"/><rect x="1402.5" y="1451.5" width="1178" height="122" stroke="#000000" stroke-width="3.4375" stroke-linejoin="round" stroke-miterlimit="10" fill="none"/><text fill="#FF0000" font-family="Courier New,Courier New_MSFontService,sans-serif" font-weight="400" font-size="73" transform="matrix(1 0 0 1 1434.95 1532)">mayorDigito<tspan font-size="73" x="485.26" y="0">(47,mayor)</tspan></text><path d="M0.0536627-6.87479 72.1705-6.31187 143.697-4.62228 179.131-3.43276 214.19-1.99286 248.8-0.240459 282.975 1.6373 316.528 3.82823 349.452 6.14417 381.697 8.71131 413.184 11.4656 443.808 14.3464 473.498 17.4782 502.249 20.7355 529.946 24.1819 556.455 27.754 581.847 31.4532 605.94 35.2804 628.724 39.2346 650.076 43.2539 660.239 45.337 669.973 47.4722 679.351 49.5492 688.402 51.7011 697 53.914 705.21 56.1241 712.996 58.3399 720.357 60.5606 727.331 62.8 733.81 65.1095 739.908 67.4203 745.586 69.7699 750.763 72.1946 755.465 74.5786 759.769 77.0667 763.682 79.5822 767.127 82.2942 770.08 85.0957 772.626 88.1347 774.607 91.4674 775.994 95.231 776.395 98.9399 775.848 109.067 774.38 118.94 772.047 128.606 768.852 137.991 764.869 147.085 760.169 155.757 754.885 163.947 749.046 171.645 742.587 178.769 735.318 185.544 722.628 192.563 715.973 180.531 727.922 173.922 726.563 174.908 733 168.908 732.594 169.32 738.656 162.632 738.273 163.095 743.773 155.845 743.473 156.273 748.473 148.523 748.206 148.974 752.643 140.787 752.39 141.304 756.14 132.742 755.929 133.284 758.929 124.472 758.754 125.074 760.942 116.012 760.825 116.614 762.2 107.364 762.135 108.004 762.635 98.7539 762.665 99.864 762.415 97.5515 762.799 99.1892 761.924 96.8142 762.466 97.9511 761.091 95.6386 761.73 96.5403 759.793 94.2278 760.331 94.8 757.893 92.4875 758.372 92.9019 755.435 90.5894 755.97 90.9706 752.47 88.7206 752.747 88.8894 748.747 86.5769 749.078 86.7568 744.641 84.5068 744.834 84.601 739.897 82.2885 740.184 82.4151 734.746 80.1651 734.939 80.2414 729.001 77.9914 729.129 78.0384 722.817 75.7884 723.023 75.8583 716.211 73.6708 716.327 73.7069 709.077 71.5194 709.181 71.55 701.493 69.3625 701.588 69.3886 693.463 67.2011 693.536 67.2206 685.037 65.033 685.16 65.0635 676.222 62.9385 676.326 62.9623 667.027 60.9028 657.339 58.7778 657.432 58.7975 647.37 56.735 647.478 56.7563 626.228 52.7563 626.324 52.7737 603.637 48.8362 603.734 48.8524 579.734 45.0399 579.821 45.0532 554.509 41.3657 554.582 41.3759 528.144 37.8134 528.214 37.8224 500.589 34.3849 500.664 34.3938 471.976 31.1438 472.029 31.1496 442.404 28.0246 442.481 28.0323 411.919 25.1573 411.963 25.1613 380.526 22.4113 380.579 22.4158 348.392 19.8533 348.455 19.8581 315.58 17.5456 315.615 17.5479 282.115 15.3604 282.185 15.3646 248.06 13.4896 248.09 13.4912 213.527 11.7412 213.593 11.7442 178.593 10.3067 178.644 10.3086 143.269 9.12113 143.338 9.12308 71.9001 7.43558 72.0088 7.43729-0.0536627 6.87479ZM732.769 203.613 686.967 198.218 718.765 164.813Z" fill="#FF0000" transform="matrix(-1 1.22465e-16 1.22465e-16 1 1401.97 1512)"/><rect x="1402.5" y="1870.5" width="1139" height="122" stroke="#000000" stroke-width="3.4375" stroke-linejoin="round" stroke-miterlimit="10" fill="none"/><text fill="#900090" font-family="Courier New,Courier New_MSFontService,sans-serif" font-weight="400" font-size="73" transform="matrix(1 0 0 1 1434.84 1951)">mayorDigito<tspan font-size="73" x="485.26" y="0">(4,digito)</tspan></text><path d="M0.0536627-6.87479 72.1675-6.31189 143.693-4.68488 179.125-3.49547 214.178-2.11841 248.794-0.428283 282.9 1.44913 316.446 3.51443 349.376 5.7682 381.621 8.27271 413.108 10.9644 443.724 13.7818 473.413 16.7884 502.165 19.983 529.79 23.303 556.368 26.7506 581.698 30.3871 605.779 34.0871 628.571 37.9171 649.921 41.8732 660.069 43.8901 669.86 45.9613 679.272 47.9827 688.226 50.1265 696.805 52.2083 705.036 54.3608 712.82 56.5126 720.206 58.6773 727.148 60.9064 733.598 63.0778 739.722 65.3339 745.397 67.6172 750.571 69.9748 755.27 72.2912 759.61 74.7323 763.479 77.2198 766.897 79.7649 769.89 82.5279 772.45 85.5003 774.495 88.8477 775.777 92.4963 776.276 96.0901 775.721 106.086 774.249 115.725 771.907 125.157 768.702 134.305 764.708 143.159 760.001 151.578 754.713 159.576 748.851 167.104 742.389 173.965 735.122 180.597 722.512 187.324 716.04 175.192 727.889 168.871 726.491 169.859 732.928 163.984 732.558 164.349 738.62 157.912 738.201 158.401 743.701 151.338 743.39 151.771 748.39 144.208 748.124 144.645 752.562 136.708 752.296 137.235 756.046 128.923 755.824 129.477 758.824 120.914 758.64 121.531 760.827 112.719 760.704 113.337 762.079 104.337 762.011 104.994 762.511 95.9936 762.565 97.3209 762.253 95.0709 762.576 96.4041 761.764 94.0916 762.384 95.3975 761.009 93.1475 761.665 94.0485 759.728 91.7985 760.274 92.3643 757.837 90.1143 758.394 90.5765 755.456 88.389 755.845 88.6581 752.345 86.4081 752.692 86.6171 748.692 84.3671 749.023 84.5415 744.585 82.354 744.774 82.4436 739.837 80.1936 740.122 80.3157 734.684 78.1282 734.873 78.2011 728.936 76.0136 729.119 76.0782 722.807 73.9532 722.898 73.9833 716.086 71.7958 716.254 71.8475 709.004 69.7225 709.106 69.7515 701.418 67.6265 701.51 67.6513 693.385 65.5263 693.504 65.5561 685.024 63.4985 676.149 61.3735 676.306 61.4092 667.015 59.4137 657.265 57.3512 657.347 57.3681 647.285 55.3681 647.372 55.3849 626.122 51.4474 626.236 51.4674 603.548 47.6549 603.643 47.6703 579.643 43.9828 579.711 43.9927 554.461 40.3677 554.553 40.3804 528.053 36.9429 528.117 36.9509 500.555 33.6384 500.616 33.6455 471.928 30.458 471.995 30.465 442.37 27.465 442.432 27.4711 411.87 24.6586 411.914 24.6625 380.477 21.975 380.53 21.9794 348.343 19.4794 348.406 19.484 315.531 17.234 315.578 17.237 282.078 15.1745 282.122 15.1771 248.06 13.3021 248.102 13.3043 213.54 11.6168 213.605 11.6197 178.605 10.2447 178.644 10.2461 143.269 9.05863 143.344 9.06072 71.9062 7.43572 72.0088 7.43729-0.0536627 6.87479ZM732.613 198.426 686.854 192.679 718.907 159.52Z" fill="#900090" transform="matrix(-1 1.22465e-16 1.22465e-16 1 1401.85 1931)"/><rect x="715.5" y="351.5" width="533" height="211" stroke="#000000" stroke-width="3.4375" stroke-linejoin="round" stroke-miterlimit="10" fill="none"/><text font-family="Courier New,Courier New_MSFontService,sans-serif" font-weight="400" font-size="73" transform="matrix(1 0 0 1 747.984 433)">digito = 2<tspan font-size="73" x="0" y="88">mayor = 0</tspan></text><path d="M442 450.125 680.629 450.125 680.629 463.875 442 463.875ZM673.754 436.375 715.004 457 673.754 477.625Z"/><path d="M442.052 855.125 680.682 856.943 680.578 870.693 441.948 868.875ZM673.912 843.141 715.004 864.08 673.598 884.39Z"/><rect x="715.5" y="758.5" width="533" height="211" stroke="#000000" stroke-width="3.4375" stroke-linejoin="round" stroke-miterlimit="10" fill="none"/><text font-family="Courier New,Courier New_MSFontService,sans-serif" font-weight="400" font-size="73" transform="matrix(1 0 0 1 747.984 840)">digito = 5<tspan fill="#00AA00" font-size="73" x="0" y="88">mayor = 2</tspan></text><path d="M0.0536627-6.87479 72.1675-6.31189 143.687-4.68502 179.125-3.55801 214.177-2.11837 248.788-0.49112 282.9 1.38663 316.452 3.45234 349.376 5.76824 381.615 8.20965 413.108 10.9019 443.724 13.7193 473.406 16.7251 502.158 19.8571 529.79 23.178 556.36 26.6246 581.69 30.1983 605.788 33.901 628.57 37.7921 649.912 41.6838 660.048 43.6985 669.872 45.7135 679.271 47.7954 688.214 49.8735 696.805 51.9583 705.036 54.1108 712.82 56.2626 720.178 58.4192 727.15 60.5938 733.627 62.8383 739.722 65.0839 745.364 67.3536 750.574 69.662 755.267 72.0417 759.575 74.3976 763.479 76.9073 766.897 79.4524 769.89 82.2154 772.45 85.1878 774.48 88.5095 775.773 92.0915 776.276 95.7151 775.721 105.715 774.247 115.297 771.905 124.662 768.702 133.805 764.708 142.659 759.995 151.09 754.697 159.037 748.841 166.489 742.389 173.34 735.112 179.982 722.499 186.645 716.076 174.488 727.913 168.234 726.491 169.234 732.928 163.359 732.558 163.724 738.62 157.287 738.219 157.752 743.719 150.752 743.405 151.186 748.405 143.686 748.124 144.145 752.562 136.208 752.296 136.735 756.046 128.423 755.824 128.977 758.824 120.414 758.643 121.02 760.83 112.27 760.705 112.892 762.08 103.955 762.011 104.619 762.511 95.6186 762.565 96.9459 762.253 94.6959 762.596 96.0852 761.784 93.8352 762.384 95.085 761.009 92.835 761.665 93.736 759.728 91.486 760.274 92.0518 757.837 89.8018 758.394 90.264 755.456 88.0765 755.845 88.3456 752.345 86.0956 752.764 86.3444 748.764 84.1569 748.953 84.2568 744.516 82.0068 744.84 82.1607 739.903 79.9732 740.122 80.0657 734.684 77.8782 734.873 77.9511 728.936 75.7636 729.061 75.8085 722.749 73.621 722.953 73.6881 716.14 71.5631 716.254 71.5974 709.004 69.4724 709.106 69.5015 701.418 67.3765 701.51 67.4013 693.385 65.2763 693.504 65.3061 685.004 63.2436 685.069 63.259 676.194 61.1965 676.263 61.2123 666.951 59.1498 667.056 59.1723 657.306 57.1723 657.347 57.1806 647.285 55.1806 647.392 55.201 626.142 51.326 626.218 51.3394 603.53 47.4644 603.643 47.4828 579.643 43.7953 579.727 43.8076 554.477 40.2451 554.553 40.2554 528.053 36.8179 528.117 36.8259 500.555 33.5134 500.63 33.5221 471.943 30.3971 471.995 30.4025 442.37 27.4025 442.432 27.4086 411.87 24.5961 411.914 24.6 380.477 21.9125 380.543 21.9179 348.356 19.4804 348.393 19.4831 315.518 17.1706 315.578 17.1745 282.078 15.112 282.122 15.1146 248.06 13.2396 248.115 13.2424 213.552 11.6174 213.593 11.6192 178.593 10.1817 178.656 10.184 143.281 9.05903 143.344 9.06072 71.9062 7.43572 72.0088 7.43729-0.0536627 6.87479ZM732.608 197.749 686.854 191.956 718.94 158.829Z" fill="#00AA00" transform="matrix(-1 1.22465e-16 1.22465e-16 1 1401.85 672)"/><rect x="1402.5" y="800.5" width="819" height="130" stroke="#000000" stroke-width="4.58333" stroke-miterlimit="8" fill="#900090"/><text fill="#FFFFFF" font-family="Courier New,Courier New_MSFontService,sans-serif" font-weight="400" font-size="73" transform="matrix(1 0 0 1 1480.39 886)">digito &gt; mayor?</text><path d="M0.719708-6.83723 6.15918-6.26465 12.1591-4.36993 17.7658-1.41504 23.062 2.43009 28.0088 7.02354 32.6212 12.3244 36.9669 18.2318 40.9256 24.7402 44.5821 31.7209 47.8304 39.2118 50.6572 47.0347 53.0859 55.1743 55.0572 63.6507 56.5072 72.2852 57.3627 81.1029 57.6828 89.7455 57.9953 98.183 57.9679 97.7736 58.7804 106.149 58.7176 105.674 60.0926 113.861 60.0088 113.443 61.8838 121.505 61.7755 121.097 64.088 128.847 63.9658 128.476 66.6533 135.914 66.4653 135.447 69.5903 142.447 69.4263 142.106 72.8013 148.668 71.5164 146.919 79.0175 154.321 69.3597 164.108 61.0763 155.934 57.112 148.226 53.8071 140.823 50.9678 132.965 48.5391 124.826 46.5678 116.349 45.1178 107.715 44.2623 98.8971 43.9422 90.2544 43.6297 81.8169 43.6571 82.2264 42.8446 73.8514 42.9074 74.3261 41.5324 66.1386 41.6162 66.5573 39.7412 58.4948 39.8495 58.9033 37.537 51.1533 37.6592 51.5239 34.9717 44.0864 35.13 44.4851 32.0675 37.4226 32.2849 37.8775 28.8474 31.3151 29.0637 31.6977 25.3762 25.6352 25.712 26.1364 21.712 20.6989 22.0635 21.1379 17.876 16.3254 18.3844 16.8505 14.0094 12.788 14.6484 13.3134 10.0859 10.0009 10.9196 10.5195 6.29461 8.08203 7.42972 8.55588 2.67972 7.05588 4.03029 7.33723-0.719708 6.83723ZM81.1344 138.613 101.618 179.934 56.2712 171.528Z" transform="matrix(1.83697e-16 1 1 -1.83697e-16 1811 930)"/><path d="M1248 450.125 1367.36 450.125 1367.36 463.875 1248 463.875ZM1360.49 436.375 1401.74 457 1360.49 477.625Z"/><path d="M1248.05 857.125 1367.41 857.961 1367.31 871.711 1247.95 870.875ZM1360.63 844.163 1401.74 865.076 1360.34 885.412Z"/><rect x="312.5" y="1225.5" width="130" height="122" stroke="#000000" stroke-width="3.4375" stroke-linejoin="round" stroke-miterlimit="10" fill="none"/><text font-family="Courier New,Courier New_MSFontService,sans-serif" font-weight="400" font-size="73" transform="matrix(1 0 0 1 354.962 1306)">3</text><path d="M442.052 1279.13 680.682 1280.94 680.578 1294.69 441.948 1292.87ZM673.912 1267.14 715.004 1288.08 673.598 1308.39Z"/><rect x="715.5" y="1182.5" width="533" height="211" stroke="#000000" stroke-width="3.4375" stroke-linejoin="round" stroke-miterlimit="10" fill="none"/><text font-family="Courier New,Courier New_MSFontService,sans-serif" font-weight="400" font-size="73" transform="matrix(1 0 0 1 747.984 1264)">digito = 3<tspan fill="#0000FF" font-size="73" x="0" y="88">mayor = 5</tspan></text><path d="M1248.13 1281.13 1367.5 1283.42 1367.24 1297.17 1247.87 1294.87ZM1360.89 1269.54 1401.74 1290.96 1360.1 1310.78Z"/><rect x="1402.5" y="1226.5" width="819" height="130" stroke="#000000" stroke-width="4.58333" stroke-miterlimit="8" fill="#900090"/><text fill="#FFFFFF" font-family="Courier New,Courier New_MSFontService,sans-serif" font-weight="400" font-size="73" transform="matrix(1 0 0 1 1480.39 1312)">digito &gt; mayor?</text><path d="M0.769777-6.83177 5.94027-6.24918 11.6922-4.30487 17.0129-1.29749 21.9987 2.58847 26.5882 7.17798 30.9362 12.4232 35.0192 18.4116 38.7068 24.8481 42.0951 31.8241 45.1359 39.2939 47.7581 47.0947 50.0473 55.2051 51.8881 63.6203 53.1997 72.2111 54.0526 81.0025 54.3094 89.6074 54.5594 97.9824 54.5304 97.5236 55.3429 105.899 55.2963 105.525 56.5462 113.712 56.4662 113.281 58.2162 121.281 58.1303 120.932 60.2553 128.682 60.125 128.26 62.6875 135.698 62.5551 135.345 65.4301 142.408 65.2466 141.996 68.4341 148.559 67.0317 146.623 73.2005 152.594 63.6372 162.474 56.5962 155.658 52.7799 147.801 49.7489 140.355 47.0531 132.531 44.8222 124.395 42.9869 116.005 41.6753 107.414 40.8224 98.6225 40.5656 90.0176 40.3156 81.6426 40.3446 82.1014 39.5321 73.7264 39.5787 74.1001 38.3288 65.9126 38.4088 66.3442 36.6588 58.3442 36.7585 58.7426 34.571 50.9926 34.6708 51.3155 32.1708 43.878 32.3199 44.2796 29.4449 37.2171 29.6284 37.6287 26.4409 31.0662 26.6597 31.4801 23.2222 25.4801 23.5072 25.9354 19.7572 20.4354 20.1446 20.9501 16.2071 16.2001 16.6386 16.6739 12.5761 12.6114 13.2111 13.1725 8.96114 9.86 9.80461 10.4226 5.49211 7.98512 6.67343 8.51297 2.23593 7.01297 3.66772 7.33177-0.769777 6.83177ZM76.3744 137.301 94.7902 179.584 49.9147 168.947Z" transform="matrix(1.83697e-16 1 1 -1.83697e-16 1811 1356)"/><rect x="312.5" y="1647.5" width="130" height="122" stroke="#000000" stroke-width="3.4375" stroke-linejoin="round" stroke-miterlimit="10" fill="none"/><text font-family="Courier New,Courier New_MSFontService,sans-serif" font-weight="400" font-size="73" transform="matrix(1 0 0 1 354.962 1728)">7</text><path d="M442.052 1701.13 680.682 1702.94 680.578 1716.69 441.948 1714.87ZM673.912 1689.14 715.004 1710.08 673.598 1730.39Z"/><rect x="715.5" y="1604.5" width="533" height="211" stroke="#000000" stroke-width="3.4375" stroke-linejoin="round" stroke-miterlimit="10" fill="none"/><text font-family="Courier New,Courier New_MSFontService,sans-serif" font-weight="400" font-size="73" transform="matrix(1 0 0 1 747.984 1686)">digito = 7<tspan fill="#FF0000" font-size="73" x="0" y="88">mayor = 5</tspan></text><path d="M0.157115-6.8732 123.179-4.06104 122.865 9.68536-0.157115 6.8732ZM116.62-17.9646 157.388 3.59774 115.677 23.2747Z" transform="matrix(1 0 0 -1 1248 1709.6)"/><rect x="312.5" y="2069.5" width="130" height="122" stroke="#000000" stroke-width="3.4375" stroke-linejoin="round" stroke-miterlimit="10" fill="none"/><text font-family="Courier New,Courier New_MSFontService,sans-serif" font-weight="400" font-size="73" transform="matrix(1 0 0 1 354.962 2150)">4</text><path d="M0.159265-6.87316 238.798-1.3434 238.479 12.4029-0.159265 6.87316ZM232.243-15.249 273.004 6.32608 231.288 25.99Z" transform="matrix(1 0 0 -1 442 2130.33)"/><rect x="715.5" y="2018.5" width="533" height="211" stroke="#000000" stroke-width="3.4375" stroke-linejoin="round" stroke-miterlimit="10" fill="none"/><text font-family="Courier New,Courier New_MSFontService,sans-serif" font-weight="400" font-size="73" transform="matrix(1 0 0 1 747.984 2100)">digito = 4<tspan fill="#900090" font-size="73" x="0" y="88">mayor = 7</tspan></text><path d="M1.57645e-05-6.875 123.012-6.87472 123.012 6.87528-1.57645e-05 6.875ZM116.137-20.6247 157.387 0.000360892 116.137 20.6253Z" transform="matrix(1 0 0 -1 1248 2124)"/><rect x="1405.5" y="1641.5" width="819" height="130" stroke="#000000" stroke-width="4.58333" stroke-miterlimit="8" fill="#900090"/><text fill="#FFFFFF" font-family="Courier New,Courier New_MSFontService,sans-serif" font-weight="400" font-size="73" transform="matrix(1 0 0 1 1484.04 1727)">digito &gt; mayor?</text><path d="M0.647448-6.84445 5.91011-6.34663 11.6214-4.70365 17.0597-2.13558 22.1473 1.20774 26.9795 5.18716 31.5153 9.86254 35.7511 15.0548 39.692 20.7623 43.26 26.9559 46.4649 33.4992 49.2744 40.3891 51.6015 47.5697 53.5294 54.949 54.9308 62.6235 55.7961 70.3448 56.1187 77.894 56.4312 85.2065 56.3947 84.7343 57.2072 91.9843 57.1362 91.5045 58.4487 98.6295 58.343 98.1517 60.1555 105.152 60.0401 104.756 62.2276 111.506 62.0536 111.029 64.6786 117.467 64.4867 117.038 67.4867 123.163 67.2533 122.727 70.5658 128.415 68.7595 126.382 74.6526 130.818 66.3835 141.804 59.3822 136.534 55.2471 129.434 52.0351 122.876 49.2256 115.986 46.8962 108.798 44.9706 101.361 43.5698 93.7568 42.7039 86.0302 42.3813 78.481 42.0688 71.1685 42.1053 71.6407 41.2928 64.3907 41.3618 64.86 40.0493 57.6725 40.1608 58.1753 38.3483 51.2378 38.4599 51.6195 36.2724 44.8695 36.4464 45.3459 33.8214 38.9084 34.0133 39.3366 31.0133 33.2116 31.2303 33.6194 27.9178 27.8694 28.2176 28.3438 24.5926 23.0938 24.9228 23.5334 21.0478 18.7834 21.4405 19.2247 17.378 15.0372 17.942 15.557 13.692 12.057 14.2869 12.4955 9.9119 9.62048 10.7518 10.0917 6.25183 7.96671 7.28684 8.35705 2.72434 7.04455 3.97755 7.28195-0.647448 6.84445ZM76.9249 115.536 98.4774 156.309 52.9275 149.087Z" transform="matrix(1.83697e-16 1 1 -1.83697e-16 1815 1771)"/><rect x="1405.5" y="2059.5" width="819" height="130" stroke="#000000" stroke-width="4.58333" stroke-miterlimit="8" fill="#900090"/><text fill="#FFFFFF" font-family="Courier New,Courier New_MSFontService,sans-serif" font-weight="400" font-size="73" transform="matrix(1 0 0 1 1484.04 2145)">digito &gt; mayor?</text><rect x="1402.5" y="2262.5" width="1139" height="122" stroke="#000000" stroke-width="3.4375" stroke-linejoin="round" stroke-miterlimit="10" fill="none"/><text fill="#FF7700" font-family="Courier New,Courier New_MSFontService,sans-serif" font-weight="400" font-size="73" transform="matrix(1 0 0 1 1434.84 2343)">mayorDigito<tspan font-size="73" x="485.26" y="0">(0,mayor)</tspan></text><path d="M0.867998-6.81999 5.12142-6.27864 9.99008-4.4197 14.3183-1.64311 18.3112 1.82244 22.0417 5.91866 25.4313 10.6499 28.5708 15.8369 31.4685 21.4976 34.1469 27.6579 36.4985 34.2423 40.2578 47.9185 41.7197 55.2946 42.7717 62.8555 43.4299 70.4913 43.6227 78.0113 43.8102 85.3238 43.7871 84.9095 44.4121 92.1595 44.3708 91.7944 45.3708 98.9195 45.3086 98.5499 46.6836 105.55 46.5666 105.053 50.1916 118.24 49.4133 116.452 56.1232 127.326 44.4216 134.547 37.1945 122.834 33.2407 108.451 31.7803 101.016 30.7287 93.5236 30.0701 85.8837 29.8773 78.3637 29.6898 71.0512 29.7129 71.4655 29.0879 64.2155 29.1281 64.5724 28.1281 57.3849 28.1937 57.7741 26.8187 50.8366 26.9334 51.3222 23.3084 38.1347 23.463 38.6248 21.2755 32.4998 21.4451 32.9287 18.9451 27.1787 19.1302 27.5702 16.4427 22.3202 16.6809 22.7474 13.8059 17.9974 14.0987 18.4414 11.0987 14.2539 11.6045 14.8791 8.41702 11.3791 8.99362 11.9421 5.68112 9.06713 6.47531 9.66165 3.16281 7.53665 4.42268 8.17275 0.985177 6.86025 2.5695 7.25749-0.867998 6.81999ZM60.857 111.947 73.4651 156.309 30.4106 139.778Z" transform="matrix(1.83697e-16 1 1 -1.83697e-16 1815 2189)"/></g></svg>