<svg width="1803" height="1838" xmlns="http://www.w3.org/2000/svg" xmlns:xlink="http://www.w3.org/1999/xlink" xml:space="preserve" overflow="hidden"><defs><clipPath id="clip0"><rect x="908" y="559" width="1803" height="1838"/></clipPath></defs><g clip-path="url(#clip0)" transform="translate(-908 -559)"><rect x="925.5" y="2034.5" width="1784" height="333" stroke="#00AA00" stroke-width="3.4375" stroke-linejoin="round" stroke-miterlimit="10" fill="none"/><text font-family="Courier New,Courier New_MSFontService,sans-serif" font-weight="400" font-size="83" transform="matrix(1 0 0 1 957.951 2123)">factorial(4) = 4 * <tspan fill="#00AA00" font-size="83" x="936.146" y="0">factorial(3)</tspan><tspan font-size="83" x="640.521" y="99">= 4 * 6</tspan><tspan font-size="83" x="640.521" y="198">= 24</tspan></text><rect x="925.5" y="1617.5" width="1784" height="334" stroke="#00AA00" stroke-width="3.4375" stroke-linejoin="round" stroke-miterlimit="10" fill="none"/><text fill="#00AA00" font-family="Courier New,Courier New_MSFontService,sans-serif" font-weight="400" font-size="83" transform="matrix(1 0 0 1 957.951 1707)">factorial(3) <tspan fill="#000000" font-size="83" x="640.521" y="0">= 3 * </tspan><tspan fill="#0000FF" font-size="83" x="936.146" y="0">factorial(2)</tspan><tspan fill="#000000" font-size="83" x="640.521" y="99">= 3 * 2</tspan><tspan fill="#000000" font-size="83" x="640.521" y="198">= </tspan><tspan font-size="83" x="739.063" y="198">6</tspan></text><rect x="925.5" y="1201.5" width="1784" height="333" stroke="#00AA00" stroke-width="3.4375" stroke-linejoin="round" stroke-miterlimit="10" fill="none"/><text fill="#0000FF" font-family="Courier New,Courier New_MSFontService,sans-serif" font-weight="400" font-size="83" transform="matrix(1 0 0 1 957.951 1290)">factorial(2) <tspan fill="#000000" font-size="83" x="640.521" y="0">= 2 * </tspan><tspan fill="#FF0000" font-size="83" x="936.146" y="0">factorial(1)</tspan><tspan fill="#000000" font-size="83" x="640.521" y="99">= 2 * 1</tspan><tspan fill="#000000" font-size="83" x="640.521" y="198">= </tspan><tspan font-size="83" x="739.063" y="198">2</tspan></text><rect x="925.5" y="785.5" width="1784" height="333" stroke="#00AA00" stroke-width="3.4375" stroke-linejoin="round" stroke-miterlimit="10" fill="none"/><text fill="#FF0000" font-family="Courier New,Courier New_MSFontService,sans-serif" font-weight="400" font-size="83" transform="matrix(1 0 0 1 957.951 874)">factorial(1) <tspan fill="#000000" font-size="83" x="640.521" y="0">= 1 * </tspan><tspan fill="#900090" font-size="83" x="936.146" y="0">factorial(0)</tspan><tspan fill="#000000" font-size="83" x="640.521" y="99">= 1 * 1</tspan><tspan fill="#000000" font-size="83" x="640.521" y="198">= </tspan><tspan font-size="83" x="739.063" y="198">1</tspan></text><rect x="925.5" y="568.5" width="966" height="133" stroke="#00AA00" stroke-width="3.4375" stroke-linejoin="round" stroke-miterlimit="10" fill="none"/><text fill="#900090" font-family="Courier New,Courier New_MSFontService,sans-serif" font-weight="400" font-size="83" transform="matrix(1 0 0 1 957.952 658)">factorial(0) <tspan fill="#000000" font-size="83" x="640.521" y="0">= </tspan><tspan font-size="83" x="739.062" y="0">1</tspan></text><path d="M1.09472-6.78728 3.93436-6.32928 7.37805-4.77406 10.3598-2.5618 12.9518 0.113801 15.3339 3.18744 17.5276 6.69742 19.5854 10.6074 21.6034 14.8451 23.5456 19.6001 25.3723 24.6887 27.1834 30.1221 28.9201 35.9753 30.6519 42.197 32.258 48.7499 35.3614 62.7471 38.2144 77.9626 40.7428 94.2077 43.0148 111.374 44.9078 129.232 46.4207 147.701 47.5551 166.608 48.2484 185.894 48.4994 205.16 48.7494 224.348 48.7456 224.191 49.4331 243.316 49.4252 243.151 50.5502 261.901 50.5396 261.751 52.0395 280.064 52.0242 279.9 53.8992 297.588 53.8781 297.41 56.1281 314.41 56.1057 314.255 58.6057 330.318 58.5697 330.108 61.3822 345.108 61.337 344.887 64.3995 358.699 64.3649 358.551 65.9274 364.926 65.8732 364.719 67.5607 370.781 67.0523 369.483 71.4112 377.965 59.1817 384.249 54.5023 375.144 52.5981 368.303 50.992 361.75 47.8886 347.753 45.0356 332.537 42.5072 316.292 40.2352 299.126 38.3421 281.268 36.8293 262.799 35.6949 243.892 35.0016 224.606 34.7506 205.34 34.5006 186.152 34.5044 186.309 33.8169 167.184 33.8248 167.349 32.6998 148.599 32.7104 148.749 31.2104 130.436 31.2258 130.6 29.3508 112.912 29.3719 113.09 27.1219 96.0896 27.1443 96.2448 24.6443 80.1823 24.6803 80.392 21.8678 65.392 21.913 65.6132 18.8505 51.8007 18.8851 51.9491 17.3226 45.5741 17.3768 45.7811 15.6893 39.7186 15.7215 39.8306 14.034 34.1431 14.1028 34.3616 12.3528 29.1116 12.4043 29.2603 10.6543 24.3853 10.7604 24.6621 8.94794 20.2246 9.10533 20.5808 7.23033 16.6433 7.35369 16.8895 5.47869 13.327 5.73251 13.7687 3.85751 10.7687 4.2534 11.3364 2.3159 8.83643 2.8121 9.40859 0.874598 7.40859 1.71605 8.1463-0.221447 6.7088 1.04534 7.45317-0.892159 6.57817 0.842777 7.09978-1.09472 6.78728ZM79.3155 364.49 83.2124 410.444 44.1111 385.989Z" fill="#00AA00" transform="matrix(1.83697e-16 1 1 -1.83697e-16 1729 1951)"/><path d="M1.13024-6.78146 3.88854-6.32174 7.36555-4.75148 10.3177-2.48819 12.8361 0.198158 15.1127 3.23362 17.3028 6.73782 19.3137 10.6902 21.2628 14.9244 23.1222 19.6394 24.9473 24.7236 26.7046 30.1907 28.376 36.0406 30.0347 42.229 31.6365 48.7643 34.6796 62.7752 37.4688 77.9891 39.9338 94.2329 42.1426 111.398 43.9713 129.244 45.4841 147.712 46.5555 166.62 47.2484 185.894 47.4994 205.16 47.7494 224.348 47.7456 224.191 48.4331 243.316 48.4265 243.174 49.489 261.924 49.4771 261.751 50.9771 280.064 50.9642 279.924 52.7767 297.612 52.7563 297.435 54.9438 314.435 54.9222 314.281 57.3597 330.344 57.3248 330.135 60.0748 345.135 60.0371 344.945 62.9746 358.757 62.9274 358.551 64.4899 364.926 64.4531 364.783 66.0781 370.845 65.5723 369.522 69.7444 377.77 57.4749 383.976 52.9813 375.093 51.1528 368.271 49.5474 361.721 46.5677 347.71 43.7812 332.511 41.3162 316.267 39.1074 299.102 37.2787 281.256 35.7659 262.788 34.6945 243.881 34.0016 224.606 33.7506 205.34 33.5006 186.152 33.5044 186.309 32.8169 167.184 32.8235 167.326 31.761 148.576 31.7729 148.749 30.2729 130.436 30.2858 130.576 28.4733 112.888 28.4937 113.065 26.3062 96.0649 26.3278 96.219 23.8903 80.1565 23.9252 80.3648 21.1752 65.3648 21.2191 65.5842 18.2191 51.7717 18.2601 51.9491 16.6976 45.5741 16.7344 45.7174 15.1094 39.6549 15.1395 39.7637 13.5145 34.0762 13.5798 34.2913 11.8923 29.0413 11.9668 29.2603 10.2168 24.3853 10.2919 24.5847 8.54187 20.1472 8.69238 20.4997 6.87988 16.5622 6.99746 16.805 5.18496 13.2425 5.48251 13.7687 3.60751 10.7687 3.9375 11.25 2.0625 8.75 2.54693 9.3271 0.671932 7.3271 1.50453 8.08104-0.370466 6.64354 0.982841 7.45317-0.954659 6.57817 0.744757 7.09396-1.13024 6.78146ZM77.8469 364.443 81.1366 410.444 42.3616 385.475Z" fill="#0000FF" transform="matrix(1.83697e-16 1 1 -1.83697e-16 1729 1535)"/><path d="M1.09472-6.78728 3.93436-6.32928 7.37805-4.77406 10.3598-2.5618 12.9897 0.15297 15.2889 3.21851 17.531 6.76256 19.5424 10.6466 21.5559 14.9421 23.4888 19.7409 25.3139 24.8252 27.1244 30.3212 28.867 36.1944 30.5286 42.3936 32.1912 48.9799 35.3031 63.0788 38.0922 78.3558 40.618 94.6472 42.8901 111.814 44.7832 129.798 46.2958 148.328 47.4301 167.359 48.1234 186.645 48.3744 206.036 48.6244 225.349 48.6206 225.191 49.3081 244.316 49.3002 244.152 50.4252 262.965 50.4147 262.816 51.9147 281.191 51.8997 281.03 53.7747 298.843 53.7531 298.66 56.0031 315.66 55.9813 315.509 58.4813 331.634 58.4507 331.453 61.2007 346.515 61.1509 346.268 64.2134 360.143 64.181 360.003 65.7435 366.441 65.6857 366.219 67.3732 372.281 66.8802 371.013 71.2519 379.624 58.9915 385.848 54.3102 376.627 52.4085 369.796 50.8021 363.177 47.6969 349.109 44.9078 333.832 42.382 317.54 40.1099 300.374 38.2168 282.39 36.7042 263.86 35.5699 244.891 34.8766 225.605 34.6256 206.214 34.3756 186.902 34.3794 187.059 33.6919 167.934 33.6997 168.097 32.5747 149.222 32.5853 149.372 31.0853 130.997 31.1003 131.157 29.2253 113.345 29.2469 113.527 26.9969 96.5271 27.0187 96.6783 24.5187 80.5533 24.5493 80.7348 21.7993 65.6723 21.8491 65.9193 18.7866 52.0443 18.8341 52.2452 17.2091 45.8077 17.2344 45.9049 15.6094 39.8424 15.659 40.0181 13.9715 34.3306 14.0327 34.526 12.2827 29.2135 12.3418 29.3853 10.5918 24.5103 10.6853 24.7561 8.87285 20.2561 9.02497 20.6055 7.14997 16.6055 7.27004 16.849 5.45754 13.349 5.75258 13.8632 3.81508 10.8007 4.125 11.25 2.25 8.75 2.8121 9.40859 0.874598 7.40859 1.71605 8.1463-0.221447 6.7088 1.04534 7.45317-0.892159 6.57817 0.842777 7.09978-1.09472 6.78728ZM79.2018 366.171 82.9295 412.139 43.9185 387.54Z" fill="#FF0000" transform="matrix(1.83697e-16 1 1 -1.83697e-16 1729 1118)"/><path d="M1.09472-6.78728 3.89369-6.33584 7.40762-4.79849 10.4223-2.5618 13.0522 0.15297 15.3321 3.19274 17.5663 6.6522 19.6688 10.647 21.6203 14.8865 23.5309 19.5641 25.4225 24.6519 27.2459 30.1221 28.992 36.0069 30.6515 42.1983 32.3136 48.7189 35.4239 62.7471 38.2769 77.9626 40.8053 94.2077 43.0773 111.374 44.9703 129.232 46.4832 147.701 47.6176 166.608 48.3109 185.894 48.5619 205.16 48.8119 224.348 48.8081 224.191 49.4956 243.316 49.4877 243.151 50.6127 261.901 50.6021 261.751 52.1021 280.064 52.0867 279.9 53.9617 297.588 53.9406 297.41 56.1906 314.41 56.1682 314.255 58.6682 330.318 58.6322 330.108 61.4447 345.108 61.3995 344.887 64.462 358.699 64.412 358.489 66.037 364.864 66.0156 364.783 67.6406 370.845 67.1139 369.481 71.486 377.982 59.2581 384.271 54.5498 375.115 52.7235 368.302 51.0614 361.781 47.9511 347.753 45.0982 332.537 42.5697 316.292 40.2977 299.126 38.4047 281.268 36.8918 262.799 35.7574 243.892 35.0641 224.606 34.8131 205.34 34.5631 186.152 34.5669 186.309 33.8794 167.184 33.8873 167.349 32.7623 148.599 32.7729 148.749 31.2729 130.436 31.2883 130.6 29.4133 112.912 29.4344 113.09 27.1844 96.0896 27.2068 96.2448 24.7068 80.1823 24.7428 80.392 21.9303 65.392 21.9755 65.6132 18.913 51.8007 18.963 52.0107 17.338 45.6357 17.3594 45.7175 15.7344 39.655 15.784 39.8306 14.0965 34.1431 14.1653 34.3616 12.4153 29.1116 12.4935 29.3334 10.681 24.4584 10.7604 24.6621 8.94794 20.2246 9.06738 20.4997 7.25488 16.5622 7.41619 16.8895 5.54119 13.327 5.84973 13.8549 3.91223 10.8549 4.1875 11.25 2.3125 8.75 2.8746 9.40859 0.937098 7.40859 1.77855 8.1463-0.158947 6.7088 1.18187 7.48608-0.818129 6.61108 0.842777 7.09978-1.09472 6.78728ZM79.3736 364.495 83.3189 410.445 44.1918 386.031Z" fill="#900090" transform="matrix(1.83697e-16 1 1 -1.83697e-16 1729 700)"/></g></svg>