<svg width="1562" height="1721" xmlns="http://www.w3.org/2000/svg" xmlns:xlink="http://www.w3.org/1999/xlink" xml:space="preserve" overflow="hidden"><defs><clipPath id="clip0"><rect x="208" y="592" width="1562" height="1721"/></clipPath></defs><g clip-path="url(#clip0)" transform="translate(-208 -592)"><rect x="1173.5" y="610.5" width="195" height="195" stroke="#000000" stroke-width="4.58333" stroke-miterlimit="8" fill="#DEEBF7"/><text font-family="Calibri,Calibri_MSFontService,sans-serif" font-weight="400" font-size="128" transform="matrix(1 0 0 1 1237.5 751)">5</text><rect x="1368.5" y="610.5" width="194" height="195" stroke="#000000" stroke-width="4.58333" stroke-miterlimit="8" fill="#DEEBF7"/><text font-family="Calibri,Calibri_MSFontService,sans-serif" font-weight="400" font-size="128" transform="matrix(1 0 0 1 1432.38 751)">8</text><rect x="1562.5" y="611.5" width="195" height="195" stroke="#000000" stroke-width="4.58333" stroke-miterlimit="8" fill="#DEEBF7"/><text font-family="Calibri,Calibri_MSFontService,sans-serif" font-weight="400" font-size="128" transform="matrix(1 0 0 1 1627.27 751)">4</text><rect x="227.5" y="638.5" width="686" height="134" stroke="#000000" stroke-width="3.4375" stroke-linejoin="round" stroke-miterlimit="10" fill="none"/><text fill="#0000FF" font-family="Courier New,Courier New_MSFontService,sans-serif" font-weight="400" font-size="83" transform="matrix(1 0 0 1 259.875 729)">digitos<tspan fill="#000000" font-size="83" x="344.896" y="0">(584)</tspan></text><path d="M913.071 698.125 1138.54 700.447 1138.4 714.196 912.929 711.875ZM1131.81 686.627 1172.84 707.676 1131.38 727.875Z"/><path d="M1562 832C1562 857.681 1558.53 878.5 1554.25 878.5L1374.75 878.5C1370.47 878.5 1367 899.319 1367 925 1367 899.319 1363.53 878.5 1359.25 878.5L1179.75 878.5C1175.47 878.5 1172 857.681 1172 832" stroke="#900090" stroke-width="2.29167" stroke-miterlimit="8" fill="none" fill-rule="evenodd"/><rect x="1595.5" y="948.5" width="130" height="133" stroke="#000000" stroke-width="3.4375" stroke-linejoin="round" stroke-miterlimit="10" fill="none"/><text fill="#0000FF" font-family="Courier New,Courier New_MSFontService,sans-serif" font-weight="400" font-size="83" transform="matrix(1 0 0 1 1635.29 1038)">1</text><rect x="884.5" y="950.5" width="686" height="134" stroke="#000000" stroke-width="3.4375" stroke-linejoin="round" stroke-miterlimit="10" fill="none"/><text fill="#0000FF" font-family="Courier New,Courier New_MSFontService,sans-serif" font-weight="400" font-size="83" transform="matrix(1 0 0 1 917.391 1041)">digitos<tspan fill="#000000" font-size="83" x="344.896" y="0">(58)</tspan></text><path d="M1666.88 806 1666.88 913.56 1653.13 913.56 1653.12 806ZM1680.63 906.685 1660 947.935 1639.38 906.686Z"/><rect x="1179.5" y="1236.5" width="195" height="194" stroke="#000000" stroke-width="4.58333" stroke-miterlimit="8" fill="#DEEBF7"/><text font-family="Calibri,Calibri_MSFontService,sans-serif" font-weight="400" font-size="128" transform="matrix(1 0 0 1 1244.02 1376)">5</text><rect x="1374.5" y="1234.5" width="195" height="195" stroke="#000000" stroke-width="4.58333" stroke-miterlimit="8" fill="#DEEBF7"/><text font-family="Calibri,Calibri_MSFontService,sans-serif" font-weight="400" font-size="128" transform="matrix(1 0 0 1 1438.9 1375)">8</text><rect x="225.5" y="1266.5" width="686" height="134" stroke="#000000" stroke-width="3.4375" stroke-linejoin="round" stroke-miterlimit="10" fill="none"/><text fill="#0000FF" font-family="Courier New,Courier New_MSFontService,sans-serif" font-weight="400" font-size="83" transform="matrix(1 0 0 1 258.48 1357)">digitos<tspan fill="#000000" font-size="83" x="344.896" y="0">(58)</tspan></text><path d="M911 1326.13 1144.38 1326.13 1144.38 1339.88 911 1339.88ZM1137.5 1312.38 1178.75 1333 1137.5 1353.63Z"/><path d="M1374 1457C1374 1482.68 1370.53 1503.5 1366.25 1503.5L1284.25 1503.5C1279.97 1503.5 1276.5 1524.32 1276.5 1550 1276.5 1524.32 1273.03 1503.5 1268.75 1503.5L1186.75 1503.5C1182.47 1503.5 1179 1482.68 1179 1457" stroke="#900090" stroke-width="2.29167" stroke-miterlimit="8" fill="none" fill-rule="evenodd"/><rect x="782.5" y="1549.5" width="585" height="133" stroke="#000000" stroke-width="3.4375" stroke-linejoin="round" stroke-miterlimit="10" fill="none"/><text fill="#0000FF" font-family="Courier New,Courier New_MSFontService,sans-serif" font-weight="400" font-size="83" transform="matrix(1 0 0 1 814.93 1640)">digitos<tspan fill="#000000" font-size="83" x="344.896" y="0">(5)</tspan></text><path d="M1233.74 1084.79 1233.16 1089.78 1231.38 1095.29 1228.52 1100.54 1224.77 1105.54 1220.17 1110.28 1214.86 1114.78 1208.86 1119.18 1202.11 1123.48 1194.68 1127.58 1186.62 1131.64 1177.93 1135.57 1168.61 1139.34 1158.74 1143.09 1148.23 1146.66 1137.27 1150.08 1125.75 1153.44 1113.8 1156.6 1101.41 1159.63 1088.59 1162.47 1075.33 1165.19 1047.95 1170.1 1019.3 1174.26 989.642 1177.66 959.294 1180.11 928.517 1181.62 897.536 1182.19 866.71 1182.69 866.948 1182.68 836.323 1184.24 836.528 1184.23 806.403 1186.67 806.633 1186.64 777.258 1190.02 777.46 1189.99 749.023 1194.12 749.246 1194.08 721.996 1198.95 722.171 1198.92 709.109 1201.61 709.211 1201.59 696.524 1204.4 696.663 1204.37 684.351 1207.37 684.514 1207.32 672.702 1210.51 672.809 1210.48 661.496 1213.73 661.681 1213.68 650.869 1217.11 650.995 1217.07 640.683 1220.57 640.883 1220.5 631.195 1224.13 631.399 1224.05 622.274 1227.8 622.492 1227.7 614.054 1231.52 614.278 1231.41 606.466 1235.28 606.776 1235.12 599.651 1239.12 601.201 1237.93 594.566 1244.72 584.734 1235.11 592.06 1227.61 600.198 1223.04 608.279 1219.04 616.938 1215.12 626.274 1211.29 636.163 1207.59 646.639 1204.03 657.607 1200.54 669.066 1197.25 681.014 1194.03 693.478 1190.99 706.286 1188.15 719.487 1185.44 746.937 1180.52 775.587 1176.37 805.178 1172.97 835.521 1170.51 866.367 1168.94 897.285 1168.44 928.16 1167.88 927.949 1167.88 958.511 1166.38 958.294 1166.4 988.419 1163.96 988.19 1163.98 1017.63 1160.61 1017.42 1160.63 1045.86 1156.51 1045.63 1156.55 1072.82 1151.67 1072.66 1151.7 1085.78 1149.01 1085.67 1149.04 1098.36 1146.23 1098.21 1146.26 1110.46 1143.26 1110.34 1143.29 1122.15 1140.17 1121.99 1140.21 1133.36 1136.9 1133.24 1136.94 1144.05 1133.56 1143.89 1133.61 1154.2 1130.11 1153.96 1130.2 1163.65 1126.51 1163.52 1126.56 1172.65 1122.88 1172.39 1122.98 1180.83 1119.17 1180.57 1119.3 1188.38 1115.36 1188.15 1115.48 1195.27 1111.55 1194.9 1111.76 1201.28 1107.7 1200.91 1107.96 1206.53 1103.83 1206.16 1104.13 1211.03 1100 1210.54 1100.46 1214.6 1096.28 1214.04 1096.94 1217.22 1092.69 1216.68 1093.53 1219 1089.28 1218.49 1090.45 1219.87 1086.2 1219.58 1087.52 1220.08 1083.21ZM610 1247.56 568 1266.61 577.96 1221.58Z" fill="#00AA00"/><rect x="1407.5" y="1549.5" width="130" height="133" stroke="#000000" stroke-width="3.4375" stroke-linejoin="round" stroke-miterlimit="10" fill="none"/><text fill="#0000FF" font-family="Courier New,Courier New_MSFontService,sans-serif" font-weight="400" font-size="83" transform="matrix(1 0 0 1 1446.92 1640)">1</text><path d="M1478.87 1429 1478.88 1514.63 1465.13 1514.63 1465.12 1429ZM1492.63 1507.76 1472 1549.01 1451.38 1507.76Z"/><rect x="1179.5" y="1833.5" width="195" height="195" stroke="#000000" stroke-width="4.58333" stroke-miterlimit="8" fill="#DEEBF7"/><text font-family="Calibri,Calibri_MSFontService,sans-serif" font-weight="400" font-size="128" transform="matrix(1 0 0 1 1244.02 1974)">5</text><rect x="225.5" y="1864.5" width="686" height="133" stroke="#000000" stroke-width="3.4375" stroke-linejoin="round" stroke-miterlimit="10" fill="none"/><text fill="#0000FF" font-family="Courier New,Courier New_MSFontService,sans-serif" font-weight="400" font-size="83" transform="matrix(1 0 0 1 258.48 1955)">digitos<tspan fill="#000000" font-size="83" x="344.896" y="0">(5)</tspan></text><path d="M911 1924.12 1144.38 1924.13 1144.38 1937.88 911 1937.87ZM1137.5 1910.38 1178.75 1931 1137.5 1951.63Z"/><rect x="1212.5" y="2147.5" width="130" height="133" stroke="#000000" stroke-width="3.4375" stroke-linejoin="round" stroke-miterlimit="10" fill="none"/><text fill="#0000FF" font-family="Courier New,Courier New_MSFontService,sans-serif" font-weight="400" font-size="83" transform="matrix(1 0 0 1 1252.04 2237)">1</text><path d="M6.875-2.09081e-05 6.87526 84.2936-6.87474 84.2937-6.875 2.09081e-05ZM20.6252 77.4186 0.000360892 118.669-20.6248 77.4187Z" transform="matrix(-1 0 0 1 1277 2028)"/><path d="M1080.99 1682.6 1080.56 1687.39 1079.24 1692.7 1077.04 1697.84 1074.2 1702.74 1070.65 1707.48 1066.55 1712.07 1061.81 1716.48 1056.61 1720.81 1050.83 1724.99 1044.54 1729.05 1037.75 1733 1030.56 1736.88 1022.82 1740.56 1014.77 1744.14 1006.27 1747.59 997.302 1750.98 978.514 1757.14 958.403 1762.79 937.236 1767.67 915.088 1771.84 892.248 1775.2 868.842 1777.66 845.001 1779.18 821.177 1779.75 797.471 1780.25 797.782 1780.23 774.282 1781.8 774.547 1781.77 751.421 1784.21 751.697 1784.18 729.072 1787.49 729.353 1787.44 707.541 1791.57 707.803 1791.51 686.866 1796.33 687.19 1796.24 667.44 1801.81 667.717 1801.72 649.217 1807.78 649.51 1807.68 640.76 1810.99 640.912 1810.93 632.6 1814.31 632.806 1814.22 624.931 1817.72 625.088 1817.65 617.588 1821.21 617.907 1821.05 610.97 1824.8 611.154 1824.69 604.592 1828.51 604.868 1828.34 598.868 1832.21 600.208 1831.08 592.211 1839.81 582.072 1830.52 590.666 1821.14 597.545 1816.7 604.339 1812.75 611.527 1808.87 619.267 1805.19 627.323 1801.61 635.815 1798.16 644.787 1794.77 663.573 1788.61 683.623 1782.96 704.854 1778.08 726.939 1773.91 749.842 1770.55 773.237 1768.09 797.025 1766.5 820.85 1766 844.538 1765.44 844.264 1765.45 867.827 1763.95 867.543 1763.98 890.668 1761.54 890.39 1761.57 912.952 1758.26 912.677 1758.31 934.552 1754.18 934.281 1754.24 955.156 1749.43 954.842 1749.51 974.655 1743.94 974.372 1744.03 992.872 1737.97 992.579 1738.07 1001.33 1734.76 1001.18 1734.82 1009.49 1731.44 1009.28 1731.53 1017.16 1728.03 1017 1728.1 1024.5 1724.54 1024.18 1724.7 1031.12 1720.95 1030.93 1721.06 1037.5 1717.24 1037.22 1717.41 1043.22 1713.54 1042.92 1713.74 1048.36 1709.81 1047.99 1710.09 1052.86 1706.03 1052.59 1706.27 1056.96 1702.21 1056.51 1702.67 1060.2 1698.54 1059.82 1699.01 1062.94 1694.83 1062.51 1695.48 1064.95 1691.29 1064.56 1692.05 1066.38 1687.8 1066.03 1688.83 1067.09 1684.58 1066.91 1685.65 1067.29 1681.4ZM608.101 1840.94 568 1863.72 573.839 1817.97Z" fill="#0000FF"/></g></svg>