<svg width="3101" height="1631" xmlns="http://www.w3.org/2000/svg" xmlns:xlink="http://www.w3.org/1999/xlink" xml:space="preserve" overflow="hidden"><defs><clipPath id="clip0"><rect x="92" y="603" width="3101" height="1631"/></clipPath></defs><g clip-path="url(#clip0)" transform="translate(-92 -603)"><rect x="109.5" y="611.5" width="1522" height="133" stroke="#FF7700" stroke-width="3.4375" stroke-linejoin="round" stroke-miterlimit="10" fill="none"/><text font-family="Courier New,Courier New_MSFontService,sans-serif" font-weight="400" font-size="83" transform="matrix(1 0 0 1 141.717 702)">digitos(584)<tspan font-size="83" x="610.156" y="0">= 1 + </tspan><tspan fill="#00AA00" font-size="83" x="905.781" y="0">digitos</tspan><tspan fill="#00AA00" font-size="83" x="1250.68" y="0">(58)</tspan></text><rect x="109.5" y="904.5" width="1522" height="133" stroke="#FF7700" stroke-width="3.4375" stroke-linejoin="round" stroke-miterlimit="10" fill="none"/><text fill="#00AA00" font-family="Courier New,Courier New_MSFontService,sans-serif" font-weight="400" font-size="83" transform="matrix(1 0 0 1 141.716 993)">digitos(58) <tspan fill="#000000" font-size="83" x="591.25" y="0">= 1 + </tspan><tspan fill="#0000FF" font-size="83" x="886.875" y="0">digitos</tspan><tspan fill="#0000FF" font-size="83" x="1231.77" y="0">(5)</tspan></text><rect x="109.5" y="1193.5" width="966" height="134" stroke="#FF7700" stroke-width="3.4375" stroke-linejoin="round" stroke-miterlimit="10" fill="none"/><text fill="#0000FF" font-family="Courier New,Courier New_MSFontService,sans-serif" font-weight="400" font-size="83" transform="matrix(1 0 0 1 141.717 1283)">digitos(5) <tspan fill="#000000" font-size="83" x="541.979" y="0">= 1</tspan></text><path d="M1244.39 742.22 1243.52 747.027 1240.76 752.461 1236.69 757.242 1231.59 761.615 1225.38 765.756 1218.26 769.682 1210.14 773.547 1201.01 777.235 1190.91 780.879 1179.95 784.448 1168.07 787.877 1155.37 791.228 1141.79 794.512 1127.47 797.665 1112.43 800.686 1096.7 803.644 1080.29 806.41 1063.28 809.109 1045.63 811.685 1027.48 814.071 1008.84 816.33 989.769 818.401 970.263 820.345 950.363 822.103 909.616 825.112 867.912 827.307 825.517 828.686 782.878 829.125 740.315 829.562 740.468 829.559 698.218 830.934 698.355 830.928 656.73 833.116 656.877 833.106 616.314 836.106 616.412 836.098 596.599 837.848 596.676 837.841 577.239 839.779 577.297 839.773 558.234 841.835 558.322 841.825 539.759 844.075 539.828 844.066 521.766 846.441 521.866 846.428 504.366 848.99 504.422 848.982 487.485 851.607 487.6 851.588 471.288 854.4 471.39 854.382 455.765 857.319 455.843 857.304 440.843 860.304 440.973 860.277 426.786 863.402 426.93 863.368 413.555 866.618 413.685 866.585 401.122 869.898 401.277 869.855 389.589 873.23 389.799 873.166 378.987 876.666 379.179 876.601 369.367 880.101 370.549 879.547 357.71 887.118 350.726 875.274 364.13 867.37 374.656 863.616 385.669 860.05 397.539 856.623 410.244 853.273 423.756 849.99 438.081 846.834 453.185 843.813 468.9 840.859 485.321 838.028 502.345 835.389 519.923 832.815 538.07 830.429 556.711 828.17 575.846 826.099 595.351 824.155 615.251 822.397 655.935 819.388 697.702 817.193 740.097 815.814 782.736 815.375 825.299 814.938 825.146 814.941 867.396 813.566 867.258 813.572 908.821 811.385 908.676 811.394 949.301 808.394 949.202 808.402 969.015 806.652 968.938 806.659 988.375 804.721 988.315 804.728 1007.32 802.665 1007.23 802.675 1025.79 800.425 1025.72 800.434 1043.79 798.059 1043.69 798.072 1061.25 795.51 1061.17 795.523 1078.1 792.835 1078.04 792.846 1094.35 790.096 1094.22 790.118 1109.85 787.181 1109.77 787.197 1124.7 784.197 1124.58 784.224 1138.77 781.099 1138.63 781.13 1152.07 777.88 1151.93 777.915 1164.49 774.602 1164.34 774.645 1176.02 771.27 1175.8 771.338 1186.55 767.838 1186.35 767.908 1196.22 764.346 1195.98 764.439 1204.79 760.876 1204.42 761.042 1212.17 757.355 1211.8 757.542 1218.49 753.855 1217.99 754.155 1223.62 750.405 1222.96 750.905 1227.33 747.155 1226.57 747.923 1229.76 744.173 1228.87 745.51 1230.8 741.698 1230.17 743.593 1230.85 739.78ZM372.801 892.48 328 903.428 346.122 861.019Z" fill="#00AA00"/><path d="M1244.38 1034.24 1243.51 1039 1240.73 1044.38 1236.67 1049.07 1231.57 1053.45 1225.34 1057.53 1218.2 1061.4 1210.09 1065.13 1200.99 1068.81 1190.88 1072.39 1179.92 1075.9 1168.06 1079.26 1155.34 1082.61 1141.76 1085.77 1127.47 1088.92 1112.42 1091.94 1096.69 1094.83 1080.28 1097.6 1063.26 1100.24 1045.6 1102.75 1027.47 1105.07 1008.84 1107.33 989.758 1109.4 970.252 1111.28 950.357 1113.04 909.605 1115.99 867.907 1118.12 825.516 1119.5 782.877 1119.94 740.315 1120.37 740.468 1120.37 698.218 1121.75 698.345 1121.74 656.72 1123.87 656.866 1123.86 616.303 1126.79 616.412 1126.79 596.599 1128.54 596.654 1128.53 577.217 1130.41 577.296 1130.4 558.234 1132.46 558.299 1132.45 539.736 1134.64 539.828 1134.63 521.766 1137 521.842 1136.99 504.342 1139.49 504.422 1139.48 487.485 1142.11 487.575 1142.09 471.262 1144.84 471.363 1144.82 455.738 1147.7 455.843 1147.68 440.843 1150.68 440.945 1150.66 426.757 1153.72 426.901 1153.69 413.526 1156.88 413.654 1156.84 401.091 1160.09 401.277 1160.04 389.589 1163.42 389.73 1163.38 378.918 1166.75 379.179 1166.66 369.367 1170.16 370.519 1169.63 357.906 1176.98 350.981 1165.1 364.146 1157.43 374.689 1153.67 385.704 1150.23 397.554 1146.81 410.274 1143.52 423.784 1140.3 438.095 1137.21 453.198 1134.19 468.926 1131.29 485.334 1128.53 502.357 1125.89 519.935 1123.38 538.081 1120.99 556.722 1118.79 575.857 1116.72 595.362 1114.84 615.256 1113.08 655.946 1110.14 697.707 1108.01 740.097 1106.63 782.736 1106.19 825.299 1105.75 825.146 1105.75 867.396 1104.38 867.268 1104.38 908.831 1102.26 908.686 1102.27 949.311 1099.33 949.202 1099.34 969.014 1097.59 968.959 1097.59 988.397 1095.72 988.315 1095.73 1007.31 1093.67 1007.23 1093.68 1025.79 1091.43 1025.75 1091.43 1043.81 1089.12 1043.71 1089.13 1061.28 1086.63 1061.19 1086.64 1078.13 1084.02 1078.04 1084.03 1094.35 1081.28 1094.25 1081.3 1109.88 1078.43 1109.77 1078.45 1124.7 1075.45 1124.58 1075.47 1138.77 1072.35 1138.69 1072.37 1152.12 1069.24 1151.93 1069.29 1164.49 1065.98 1164.37 1066.01 1176.06 1062.7 1175.84 1062.76 1186.59 1059.33 1186.39 1059.4 1196.26 1055.9 1195.98 1056 1204.79 1052.44 1204.5 1052.57 1212.25 1049 1211.84 1049.21 1218.53 1045.58 1218.04 1045.88 1223.66 1042.19 1222.96 1042.72 1227.33 1038.97 1226.61 1039.69 1229.79 1036 1228.89 1037.34 1230.82 1033.59 1230.17 1035.51 1230.86 1031.76ZM372.91 1182.51 328 1193 346.555 1150.78Z" fill="#0000FF"/><rect x="1608.5" y="1870.5" width="1583" height="334" stroke="#00AA00" stroke-width="3.4375" stroke-linejoin="round" stroke-miterlimit="10" fill="none"/><text font-family="Courier New,Courier New_MSFontService,sans-serif" font-weight="400" font-size="83" transform="matrix(1 0 0 1 1641.41 1960)">digitos<tspan font-size="83" x="344.896" y="0">(584) = 1 + </tspan><tspan fill="#00AA00" font-size="83" x="936.146" y="0">digitos</tspan><tspan fill="#00AA00" font-size="83" x="1281.04" y="0">(58)</tspan><tspan font-size="83" x="640.521" y="99">= 1 + 2</tspan><tspan font-size="83" x="640.521" y="198">= 3</tspan></text><rect x="1608.5" y="1454.5" width="1583" height="333" stroke="#00AA00" stroke-width="3.4375" stroke-linejoin="round" stroke-miterlimit="10" fill="none"/><text fill="#00AA00" font-family="Courier New,Courier New_MSFontService,sans-serif" font-weight="400" font-size="83" transform="matrix(1 0 0 1 1641.41 1543)">digitos<tspan font-size="83" x="344.896" y="0">(58)  </tspan><tspan fill="#000000" font-size="83" x="640.521" y="0">= 1 + </tspan><tspan fill="#0000FF" font-size="83" x="936.146" y="0">digitos</tspan><tspan fill="#0000FF" font-size="83" x="1281.04" y="0">(5)</tspan><tspan fill="#000000" font-size="83" x="640.521" y="99">= 1 + 1</tspan><tspan fill="#000000" font-size="83" x="640.521" y="198">= </tspan><tspan font-size="83" x="739.063" y="198">2</tspan></text><rect x="1608.5" y="1238.5" width="966" height="133" stroke="#00AA00" stroke-width="3.4375" stroke-linejoin="round" stroke-miterlimit="10" fill="none"/><text fill="#0000FF" font-family="Courier New,Courier New_MSFontService,sans-serif" font-weight="400" font-size="83" transform="matrix(1 0 0 1 1641.41 1327)">digitos<tspan font-size="83" x="344.896" y="0">(5)   </tspan><tspan fill="#000000" font-size="83" x="640.521" y="0">= </tspan><tspan font-size="83" x="739.062" y="0">1</tspan></text><path d="M0.879803-6.81847 3.64296-6.46194 6.9371-5.18678 9.89478-3.37401 12.5637-1.04944 15.0172 1.64149 17.2593 4.7056 19.3613 8.06892 21.4173 11.7696 23.3882 15.8474 25.265 20.2712 28.8235 29.8469 32.1747 40.6739 35.3087 52.6341 38.1768 65.5727 40.7155 79.4081 42.9959 93.9146 44.8963 109.117 46.4141 124.801 47.5521 140.861 48.2477 157.176 48.4992 173.519 48.7492 189.769 48.7438 189.582 49.4313 205.707 49.4203 205.514 50.5453 221.389 50.5305 221.213 52.0305 236.713 52.0094 236.522 53.8844 251.522 53.8541 251.307 56.1041 265.62 56.0736 265.441 58.5736 279.004 58.5246 278.762 61.3371 291.45 61.2755 291.195 64.338 302.882 63.9437 301.774 70.3239 315.777 57.8116 321.478 51.1866 306.939 47.9413 294.553 45.0737 281.617 42.535 267.845 40.2541 253.335 38.3537 238.133 36.8359 222.449 35.6979 206.389 35.0023 190.074 34.7508 173.731 34.5008 157.481 34.5062 157.668 33.8187 141.543 33.8297 141.736 32.7047 125.861 32.7195 126.037 31.2195 110.537 31.2406 110.728 29.3656 95.7277 29.3959 95.9427 27.1459 81.6302 27.1754 81.8033 24.6754 68.1783 24.7254 68.4254 21.9129 55.7379 21.9745 55.9926 18.912 44.3051 18.9949 44.5953 15.7449 34.0953 15.8681 34.4574 12.4306 25.2074 12.546 25.4975 10.796 21.3725 10.9351 21.6793 9.1226 17.9293 9.30267 18.2763 7.42767 14.9013 7.60751 15.2062 5.73251 12.2062 6.01417 12.6223 4.13917 10.0598 4.60718 10.6321 2.66968 8.50706 3.23463 9.05931 1.29713 7.37181 2.21989 8.04913 0.282386 6.86163 1.39317 7.41141-0.544335 6.66141 1.0577 7.06847-0.879803 6.81847ZM77.3694 301.431 83.2117 347.178 43.1084 324.404Z" fill="#00AA00" transform="matrix(1.83697e-16 1 1 -1.83697e-16 2412 1787)"/><path d="M0.852739-6.82191 3.62144-6.47582 7.01799-5.24071 10.0614-3.43369 12.8398-1.08944 15.2577 1.56248 17.6086 4.57463 19.8365 8.02429 21.8949 11.7293 23.8936 15.7267 25.9052 20.1523 29.6106 29.7733 33.0975 40.6215 36.2967 52.5863 39.2892 65.5113 41.9607 79.378 44.2416 93.8867 46.2668 109.076 47.8506 124.787 48.9887 140.847 49.7475 157.162 49.9992 173.519 50.2492 189.769 50.2438 189.582 50.9313 205.707 50.9183 205.487 52.1058 221.362 52.0903 221.185 53.6528 236.685 53.6272 236.466 55.6272 251.466 55.6041 251.307 57.8541 265.62 57.8122 265.381 60.4372 278.944 60.3853 278.699 63.3228 291.387 63.2667 291.162 66.3917 302.849 65.9753 301.708 72.7277 316.116 60.2771 321.951 53.2659 306.99 49.9533 294.601 46.9615 281.679 44.2897 267.875 42.0084 253.363 39.9832 238.174 38.4008 222.476 37.1984 206.403 36.5023 190.074 36.2508 173.731 36.0008 157.481 36.0074 157.694 35.2574 141.569 35.2672 141.736 34.1422 125.861 34.1597 126.065 32.5972 110.565 32.6228 110.784 30.6228 95.7836 30.6459 95.9427 28.3959 81.6302 28.4366 81.8631 25.8116 68.2381 25.8647 68.4882 22.9272 55.8007 22.9833 56.0258 19.8583 44.3384 19.9548 44.6663 16.5798 34.1663 16.7094 34.5334 13.1469 25.2834 13.3037 25.6574 11.4287 21.5324 11.5383 21.7621 9.66331 18.0121 9.80267 18.2763 7.92767 14.9013 8.16223 15.2924 6.22473 12.2924 6.58033 12.7925 4.58033 10.23 4.91968 10.6321 2.98218 8.50706 3.62901 9.1295 1.62901 7.442 2.55255 8.099 0.552546 6.9115 1.71302 7.46108-0.349484 6.71108 1.14726 7.07191-0.852739 6.82191ZM79.4423 301.563 86.2381 347.178 45.6683 325.246Z" fill="#0000FF" transform="matrix(1.83697e-16 1 1 -1.83697e-16 2412 1369)"/><path d="M598.804 1326.19 599.366 1330.06 598.939 1328.48 600.501 1332.35 599.744 1330.96 602.432 1334.77 601.795 1334 602.478 1334.72 592.513 1344.19 591.483 1343.11 588.047 1338.23 585.877 1332.85 585.196 1328.16ZM611.774 1342.64 614.406 1344.41 614.005 1344.16 620.38 1347.85 620.033 1347.66 622.901 1349.11 616.71 1361.38 613.666 1359.85 606.915 1355.94 604.088 1354.04ZM635.053 1354.74 635.091 1354.76 634.873 1354.67 643.748 1358.23 643.487 1358.13 647.392 1359.52 642.794 1372.48 638.756 1371.04 629.642 1367.38 629.495 1367.32ZM660.251 1363.88 663.326 1364.89 663.125 1364.83 673.214 1367.79 669.338 1380.98 659.149 1377.99 655.974 1376.95ZM686.199 1371.34 697.909 1374.25 697.772 1374.22 699.413 1374.59 696.368 1388 694.659 1387.61 682.88 1384.68ZM712.744 1377.59 724.063 1380.01 723.927 1379.99 726.061 1380.4 723.458 1393.9 721.255 1393.47 709.867 1391.04ZM739.462 1382.95 752.259 1385.22 752.174 1385.2 752.919 1385.32 750.696 1398.89 749.908 1398.76 737.069 1396.49ZM766.488 1387.55 767.049 1387.64 766.964 1387.63 779.998 1389.59 777.945 1403.19 764.868 1401.21 764.265 1401.12ZM793.515 1391.46 797.86 1392.05 797.73 1392.03 807.032 1393.11 805.447 1406.77 796.08 1405.68 791.669 1405.09ZM820.691 1394.7 830.042 1395.78 829.863 1395.76 834.181 1396.15 832.955 1409.85 828.547 1409.45 819.106 1408.35ZM847.877 1397.38 861.572 1398.6 860.345 1412.3 846.65 1411.07ZM875.115 1399.51 888.837 1400.39 887.961 1414.11 874.239 1413.23ZM902.399 1401.13 916.138 1401.67 915.596 1415.41 901.856 1414.87ZM929.878 1402.22 932.084 1402.3 931.91 1402.3 943.451 1402.46 943.255 1416.21 931.628 1416.05 929.335 1415.96ZM957.2 1402.66 967.035 1402.8 966.791 1402.8 970.703 1402.72 970.997 1416.46 966.962 1416.55 957.004 1416.41ZM984.45 1402.42 998.197 1402.13 998.49 1415.88 984.744 1416.17ZM1011.66 1401.45 1025.38 1400.61 1026.22 1414.34 1012.49 1415.17ZM1038.83 1399.69 1052.51 1398.32 1053.88 1412 1040.2 1413.37ZM1066.19 1396.95 1070.5 1396.52 1070.25 1396.55 1079.58 1395.26 1081.46 1408.88 1072 1410.19 1067.56 1410.63ZM1093.2 1393.38 1103.68 1391.93 1103.42 1391.97 1106.54 1391.41 1108.94 1404.95 1105.7 1405.53 1095.08 1407ZM1120.08 1389.01 1133.61 1386.6 1136.02 1400.14 1122.48 1402.55ZM1146.9 1383.91 1151.29 1383 1151.15 1383.04 1160.18 1380.96 1163.25 1394.37 1154.15 1396.45 1149.69 1397.38ZM1173.41 1377.77 1181.2 1375.82 1181.04 1375.86 1186.55 1374.34 1190.22 1387.59 1184.63 1389.13 1176.75 1391.11ZM1199.63 1370.61 1209.27 1367.71 1209.12 1367.76 1212.62 1366.62 1216.88 1379.7 1213.3 1380.86 1203.58 1383.78ZM1225.51 1362.34 1235.34 1358.88 1235.18 1358.94 1238.29 1357.75 1243.18 1370.6 1239.99 1371.82 1230.08 1375.31ZM1250.86 1352.82 1258.95 1349.4 1258.79 1349.47 1263.32 1347.43 1268.98 1359.96 1264.38 1362.04 1256.21 1365.49ZM1275.45 1341.63 1279.96 1339.35 1279.74 1339.47 1287.36 1335.26 1294 1347.3 1286.28 1351.56 1281.66 1353.9ZM1298.58 1328.46 1305.83 1323.54 1305.47 1323.8 1309.41 1320.75 1317.84 1331.61 1313.73 1334.8 1306.28 1339.84ZM1319.05 1312.38 1323.93 1307.33 1323.45 1307.89 1327.57 1302.58 1338.43 1311.02 1334.08 1316.62 1328.93 1321.94ZM1333.36 1291.92 1333.5 1291.63 1333.1 1292.75 1334.66 1286.75 1334.47 1287.84 1335.03 1281.9 1335.15 1280.65 1348.84 1281.95 1348.72 1283.2 1348.1 1289.68 1346.25 1296.8 1345.86 1297.64ZM1338.93 1265.19 1340.61 1261.5 1344.66 1254.94 1346.87 1252.09 1357.73 1260.52 1355.74 1263.08 1356.16 1262.47 1352.54 1268.35 1352.95 1267.57 1351.46 1270.86ZM1356.98 1241.05 1362.41 1236.2 1367.9 1231.94 1376.32 1242.81 1371.03 1246.92 1371.39 1246.61 1366.14 1251.31ZM1379.85 1223.73 1387.6 1218.98 1391.95 1216.58 1398.6 1228.62 1394.38 1230.94 1394.65 1230.79 1387.03 1235.46ZM1404.38 1210.08 1408.09 1208.22 1417.01 1204.12 1422.76 1216.61 1413.94 1220.67 1414.14 1220.57 1410.53 1222.38ZM1429.9 1198.64 1431.19 1198.11 1442.89 1193.59 1447.83 1206.42 1436.22 1210.9 1436.4 1210.83 1435.19 1211.33ZM1456.03 1188.93 1456.79 1188.66 1469.26 1184.6 1473.52 1197.68 1461.13 1201.71 1461.29 1201.66 1460.61 1201.9ZM1482.57 1180.58 1484.48 1180 1495.99 1176.86 1499.61 1190.13 1488.18 1193.24 1488.35 1193.2 1486.53 1193.74ZM1509.44 1173.41 1514.08 1172.24 1522.97 1170.21 1526.03 1183.61 1517.22 1185.63 1517.37 1185.59 1512.8 1186.74ZM1536.54 1167.25 1545.39 1165.42 1550.22 1164.56 1552.63 1178.1 1547.89 1178.94 1548.08 1178.91 1539.33 1180.72ZM1563.76 1162.15 1577.29 1159.74 1579.7 1173.28 1566.17 1175.69ZM1591.17 1157.8 1604.79 1155.92 1606.68 1169.54 1593.06 1171.42ZM1618.7 1154.26 1632.38 1152.89 1633.75 1166.57 1620.07 1167.94ZM1646.33 1151.5 1660.06 1150.66 1660.89 1164.39 1647.17 1165.22ZM1673.78 1149.82 1681.28 1149.37 1687.79 1149.23 1688.08 1162.97 1681.71 1163.11 1681.98 1163.1 1674.62 1163.55ZM1701.53 1148.93 1715.28 1148.64 1715.57 1162.39 1701.83 1162.68ZM1729.27 1148.79 1743.02 1148.99 1742.83 1162.74 1729.08 1162.54ZM1756.94 1149.31 1770.68 1149.86 1770.14 1163.6 1756.4 1163.05ZM1784.42 1150.4 1786.85 1150.49 1798.31 1151.22 1797.44 1164.95 1786.06 1164.22 1786.23 1164.23 1783.88 1164.14ZM1812.03 1152.1 1821.34 1152.69 1825.92 1153.1 1824.69 1166.8 1820.2 1166.4 1820.38 1166.41 1811.16 1165.82ZM1839.62 1154.33 1853.31 1155.56 1852.08 1169.26 1838.39 1168.03ZM1867.15 1157.12 1880.81 1158.71 1879.23 1172.37 1865.57 1170.78ZM1894.58 1160.45 1903.22 1161.62 1908.3 1162.38 1906.25 1175.98 1901.22 1175.22 1901.33 1175.24 1892.74 1174.07ZM1921.98 1164.49 1933.59 1166.4 1935.63 1166.76 1933.23 1180.3 1931.24 1179.94 1931.33 1179.96 1919.75 1178.06ZM1949.27 1169.2 1962.17 1171.68 1962.87 1171.83 1960.06 1185.29 1959.4 1185.15 1959.51 1185.17 1946.66 1182.7ZM1976.47 1174.69 1988.79 1177.55 1989.97 1177.84 1986.65 1191.19 1985.53 1190.91 1985.63 1190.93 1973.37 1188.09ZM2003.45 1181.25 2013.07 1183.87 2016.83 1184.98 2012.94 1198.17 2009.24 1197.08 2009.38 1197.12 1999.83 1194.51ZM2030.15 1189.1 2034.78 1190.6 2043.33 1193.65 2038.7 1206.6 2030.25 1203.59 2030.44 1203.65 2025.89 1202.17ZM2056.52 1199 2062.8 1201.75 2069.59 1207.27 2060.92 1217.94 2054.85 1213.01 2056.43 1213.97 2050.99 1211.59ZM2076.41 1194.37 2091.36 1238 2047.49 1223.78Z"/></g></svg>