<svg width="2117" height="1850" xmlns="http://www.w3.org/2000/svg" xmlns:xlink="http://www.w3.org/1999/xlink" xml:space="preserve" overflow="hidden"><defs><clipPath id="clip0"><rect x="223" y="618" width="2117" height="1850"/></clipPath></defs><g clip-path="url(#clip0)" transform="translate(-223 -618)"><rect x="819.5" y="747.5" width="325" height="130" stroke="#000000" stroke-width="4.58333" stroke-miterlimit="8" fill="#900090"/><text fill="#FFFFFF" font-family="Courier New,Courier New_MSFontService,sans-serif" font-weight="400" font-size="83" transform="matrix(1 0 0 1 858.589 835)">max()</text><rect x="235.5" y="624.5" width="909" height="123" stroke="#000000" stroke-width="3.4375" stroke-linejoin="round" stroke-miterlimit="10" fill="none"/><text font-family="Courier New,Courier New_MSFontService,sans-serif" font-weight="400" font-size="73" transform="matrix(1 0 0 1 267.719 706)">mayorDigito<tspan font-size="73" x="485.26" y="0">(47352)</tspan></text><rect x="787.5" y="946.5" width="966" height="123" stroke="#000000" stroke-width="3.4375" stroke-linejoin="round" stroke-miterlimit="10" fill="none"/><text fill="#00AA00" font-family="Courier New,Courier New_MSFontService,sans-serif" font-weight="400" font-size="73" transform="matrix(1 0 0 1 819.661 1028)">mayorDigito<tspan font-size="73" x="485.26" y="0">(4735)</tspan></text><rect x="592.5" y="946.5" width="130" height="123" stroke="#000000" stroke-width="3.4375" stroke-linejoin="round" stroke-miterlimit="10" fill="none"/><text font-family="Courier New,Courier New_MSFontService,sans-serif" font-weight="400" font-size="73" transform="matrix(1 0 0 1 634.683 1028)">2</text><path d="M650.205 945.808 650.585 943.338 651.882 940.273 653.724 937.611 655.962 935.284 658.541 933.188 661.453 931.247 664.646 929.433 668.207 927.757 675.901 924.535 684.997 921.525 695.186 918.687 706.372 916.13 718.448 913.715 731.397 911.557 745.018 909.656 759.198 908.074 773.863 906.81 788.892 905.862 804.19 905.23 819.478 905.042 834.665 904.854 834.466 904.859 849.591 904.234 849.442 904.242 864.317 903.305 864.159 903.316 878.659 902.066 878.487 902.083 892.487 900.521 892.3 900.544 905.737 898.669 905.552 898.698 918.239 896.573 918.033 896.611 929.971 894.236 929.736 894.287 940.611 891.724 939.357 892.151 949.28 887.667 954.941 900.197 944.412 904.955 932.772 907.698 920.614 910.117 907.73 912.275 894.106 914.176 879.927 915.758 865.261 917.022 850.233 917.97 834.934 918.602 819.647 918.79 804.46 918.978 804.659 918.973 789.534 919.598 789.682 919.59 774.807 920.527 774.965 920.516 760.465 921.766 760.637 921.749 746.637 923.311 746.825 923.288 733.387 925.163 733.568 925.135 720.818 927.26 721.036 927.22 709.161 929.595 709.344 929.556 698.407 932.056 698.719 931.977 688.844 934.727 689.16 934.63 680.472 937.505 680.968 937.32 673.656 940.382 673.927 940.262 670.74 941.762 671.209 941.519 668.459 943.081 668.876 942.824 666.438 944.449 666.96 944.064 664.96 945.689 665.581 945.119 664.018 946.744 664.715 945.892 663.59 947.517 664.269 946.282 663.582 947.907 664.045 946.274 663.795 947.899ZM935.968 879.37 982.026 877 956.287 915.268Z"/><path d="M0.788041-6.82969 3.2792-6.54225 6.31155-5.37596 8.98471-3.73093 11.4386-1.56018 15.3936 3.15541 18.9095 9.1826 22.2195 16.2756 25.2512 24.382 28.1121 33.4199 30.6839 43.45 33.1085 54.169 35.2753 65.704 37.1828 77.7851 38.771 90.4267 40.0389 103.486 40.9886 116.846 41.6228 130.417 41.8118 144.03 41.9993 157.53 41.9925 157.304 42.6175 170.679 42.6077 170.512 43.5452 183.7 43.5303 183.523 44.7803 196.398 44.7589 196.206 46.3214 208.643 46.2909 208.428 48.1659 220.303 48.1318 220.106 50.2568 231.418 50.2056 231.171 52.5806 241.671 52.5214 241.429 55.0839 251.117 54.323 249.322 57.9083 255.26 46.1372 262.367 42.0429 255.585 39.1968 244.825 36.7665 234.081 34.5997 222.546 32.6922 210.465 31.104 197.823 29.8361 184.764 28.8864 171.404 28.2522 157.833 28.0632 144.22 27.8757 130.72 27.8825 130.946 27.2575 117.571 27.2673 117.738 26.3298 104.55 26.3447 104.727 25.0947 91.8519 25.1161 92.0445 23.5536 79.607 23.5841 79.8222 21.7091 67.9472 21.7432 68.1442 19.6182 56.8317 19.6694 57.0792 17.2944 46.5792 17.3404 46.7701 14.8404 37.0201 14.9455 37.3873 12.1955 28.6998 12.3106 29.0332 9.43559 21.3457 9.64499 21.8448 6.58249 15.2823 6.87402 15.8391 3.81152 10.5891 4.48243 11.543 1.23243 7.66796 1.9448 8.39935 0.319804 6.96185 1.27183 7.66765-0.35317 6.66765 0.782019 7.22925-0.842981 6.60425 0.836959 7.01719-0.788041 6.82969ZM66.0898 242.237 69.8536 288.202 30.8233 263.634Z" fill="#00AA00" transform="matrix(-1.83697e-16 -1 -1 1.83697e-16 1270.2 946.854)"/><path d="M0.420132-6.86215 3.90932-6.64853 7.87441-5.90507 15.0627-3.31134 22.0062 0.781629 28.5505 6.12968 34.7145 12.5676 40.4947 20.0282 45.8582 28.3714 50.8375 37.5438 55.3974 47.4452 59.4776 58.0018 63.0989 69.0599 66.1799 80.8592 68.2896 94.6845 54.6969 96.7587 52.6412 83.2871 52.7855 83.9869 49.848 72.7369 49.9664 73.1397 46.4664 62.4522 46.5873 62.791 42.6498 52.6035 42.8179 53.0008 38.4429 43.5008 38.6454 43.905 33.8954 35.155 34.1544 35.5927 29.0919 27.7177 29.4403 28.2107 24.0653 21.2732 24.5341 21.8171 18.9091 15.9421 19.5246 16.511 13.7121 11.761 14.5713 12.3601 8.63379 8.86009 9.79158 9.4044 3.72908 7.2169 4.79552 7.50725 1.79552 6.94475 2.64237 7.04965-0.420132 6.86215ZM81.3195 86.801 64.961 129.921 40.2799 90.9623Z" transform="matrix(1.83697e-16 1 1 -1.83697e-16 689 747)"/><rect x="982.5" y="1138.5" width="324" height="130" stroke="#000000" stroke-width="4.58333" stroke-miterlimit="8" fill="#900090"/><text fill="#FFFFFF" font-family="Courier New,Courier New_MSFontService,sans-serif" font-weight="400" font-size="83" transform="matrix(1 0 0 1 1020.77 1226)">max()</text><rect x="982.5" y="1337.5" width="966" height="122" stroke="#000000" stroke-width="3.4375" stroke-linejoin="round" stroke-miterlimit="10" fill="none"/><text fill="#0000FF" font-family="Courier New,Courier New_MSFontService,sans-serif" font-weight="400" font-size="73" transform="matrix(1 0 0 1 1014.54 1418)">mayorDigito<tspan font-size="73" x="485.26" y="0">(473)</tspan></text><rect x="787.5" y="1337.5" width="130" height="122" stroke="#000000" stroke-width="3.4375" stroke-linejoin="round" stroke-miterlimit="10" fill="none"/><text font-family="Courier New,Courier New_MSFontService,sans-serif" font-weight="400" font-size="73" transform="matrix(1 0 0 1 829.565 1418)">5</text><path d="M845.17 1336.35 845.458 1333.86 846.658 1330.74 848.431 1328.03 850.595 1325.68 855.346 1321.83 861.42 1318.33 868.579 1315.09 876.815 1312.05 886.01 1309.27 896.091 1306.64 907.02 1304.27 918.673 1302.11 930.942 1300.26 943.75 1298.68 956.995 1297.41 970.539 1296.46 984.295 1295.83 998.093 1295.64 1011.78 1295.45 1011.59 1295.46 1025.15 1294.89 1024.96 1294.91 1038.33 1293.97 1038.16 1293.98 1051.22 1292.73 1051.03 1292.75 1063.59 1291.19 1063.39 1291.22 1075.51 1289.34 1075.34 1289.37 1086.78 1287.31 1086.51 1287.37 1097.2 1284.99 1096.99 1285.04 1106.8 1282.54 1105.06 1283.25 1111.34 1279.62 1118.22 1291.53 1111.12 1295.63 1100.28 1298.39 1089.36 1300.82 1077.7 1302.92 1065.39 1304.82 1052.63 1306.41 1039.38 1307.68 1025.82 1308.63 1012.06 1309.2 998.282 1309.39 984.594 1309.58 984.816 1309.57 971.254 1310.19 971.418 1310.18 958.043 1311.12 958.217 1311.11 945.155 1312.36 945.344 1312.34 932.719 1313.9 932.897 1313.88 920.834 1315.69 921.068 1315.65 909.631 1317.77 909.829 1317.73 899.141 1320.05 899.425 1319.98 889.612 1322.54 889.867 1322.47 880.992 1325.16 881.374 1325.03 873.562 1327.9 874.023 1327.71 867.398 1330.71 867.996 1330.41 862.684 1333.47 863.576 1332.86 859.638 1336.04 860.372 1335.36 858.935 1336.92 859.629 1336.03 858.567 1337.65 859.229 1336.36 858.604 1337.98 859.017 1336.3 858.83 1337.93ZM1098.33 1271.36 1144.32 1268 1119.42 1306.81Z"/><path d="M1.04539-6.79506 3.51592-6.41498 6.58102-5.1182 9.29801-3.23721 11.5117-1.02355 13.5866 1.4504 15.4917 4.34622 17.2825 7.49801 18.9676 11.0085 22.1301 18.6512 25.1401 27.6159 27.9109 37.6683 30.5318 48.7271 32.8878 60.6342 35.0468 73.398 36.8852 86.8368 38.4664 100.879 39.7309 115.357 40.6783 130.2 41.3107 145.313 41.4995 160.414 41.687 175.414 41.6826 175.241 42.2451 190.179 42.2359 189.998 43.1734 204.623 43.1614 204.464 44.4114 218.777 44.3943 218.606 45.9568 232.481 45.9322 232.287 47.8072 245.537 47.7842 245.386 49.8467 257.949 49.8012 257.7 52.1762 269.45 52.1338 269.255 54.6338 280.005 54.1851 278.693 58.5023 288.093 46.0071 293.832 41.399 283.799 38.7186 272.272 36.2988 260.301 34.2035 247.539 32.3041 234.117 30.7211 220.059 29.4567 205.582 28.5083 190.787 27.9391 175.672 27.7505 160.586 27.563 145.586 27.5685 145.787 26.9435 130.85 26.9515 131 26.014 116.313 26.0261 116.473 24.7761 102.161 24.7932 102.332 23.2307 88.4568 23.2509 88.6193 21.4384 75.3693 21.4713 75.5841 19.3463 63.0216 19.3807 63.2094 17.0682 51.5219 17.1228 51.7729 14.5603 40.9604 14.6222 41.2019 11.9347 31.4519 12.0451 31.8133 9.17007 23.2508 9.33488 23.6912 6.33488 16.4412 6.48953 16.7875 4.98953 13.6625 5.20999 14.0838 3.64749 11.3338 3.88151 11.7161 2.31901 9.34111 2.79493 9.98046 1.16993 8.04296 1.57614 8.48636 0.013641 6.92386 0.961682 7.71507-0.663318 6.59007 0.571225 7.26915-1.05378 6.58165 0.579607 7.04505-1.04539 6.79506ZM66.8436 274.844 69.1387 320.906 30.9122 295.105Z" fill="#0000FF" transform="matrix(-1.83697e-16 -1 -1 1.83697e-16 1464.91 1337.14)"/><path d="M1137.17 1137.35 1137.63 1133.39 1139.1 1128.99 1141.31 1124.81 1144.19 1120.99 1147.57 1117.47 1151.4 1114.14 1155.74 1111.13 1160.44 1108.26 1170.76 1103.47 1182.23 1099.84 1194.32 1097.45 1200.75 1096.84 1206.84 1096.64 1212.72 1096.45 1212.28 1096.48 1218.16 1095.92 1217.51 1096.01 1228.89 1093.83 1226.95 1094.51 1241.84 1086.58 1248.31 1098.71 1232.5 1107.13 1219.79 1109.58 1213.38 1110.19 1207.28 1110.39 1201.41 1110.57 1201.84 1110.55 1195.97 1111.11 1196.65 1111.01 1185.27 1113.26 1186.01 1113.07 1175.32 1116.44 1176.14 1116.13 1166.58 1120.56 1167.28 1120.19 1163.09 1122.75 1163.42 1122.54 1159.54 1125.23 1160.13 1124.77 1156.82 1127.64 1157.28 1127.21 1154.4 1130.21 1154.92 1129.59 1152.61 1132.66 1153.2 1131.73 1151.51 1134.92 1151.96 1133.88 1150.9 1137.06 1151.2 1135.68 1150.83 1138.93ZM1225.9 1082.4 1270.02 1069 1254.27 1112.35Z"/><rect x="1176.5" y="1530.5" width="325" height="130" stroke="#000000" stroke-width="4.58333" stroke-miterlimit="8" fill="#900090"/><text fill="#FFFFFF" font-family="Courier New,Courier New_MSFontService,sans-serif" font-weight="400" font-size="83" transform="matrix(1 0 0 1 1215.65 1618)">max()</text><rect x="1176.5" y="1728.5" width="967" height="123" stroke="#000000" stroke-width="3.4375" stroke-linejoin="round" stroke-miterlimit="10" fill="none"/><text fill="#FF0000" font-family="Courier New,Courier New_MSFontService,sans-serif" font-weight="400" font-size="73" transform="matrix(1 0 0 1 1209.43 1810)">mayorDigito<tspan font-size="73" x="485.26" y="0">(47)</tspan></text><rect x="982.5" y="1728.5" width="129" height="123" stroke="#000000" stroke-width="3.4375" stroke-linejoin="round" stroke-miterlimit="10" fill="none"/><text font-family="Courier New,Courier New_MSFontService,sans-serif" font-weight="400" font-size="73" transform="matrix(1 0 0 1 1024.45 1810)">3</text><path d="M1040.17 1728.05 1040.46 1725.55 1041.68 1722.37 1043.44 1719.79 1045.56 1717.39 1050.35 1713.59 1056.42 1710.02 1063.6 1706.83 1071.81 1703.81 1081.03 1701.02 1091.11 1698.45 1102.04 1696.09 1113.67 1693.99 1125.92 1692.09 1138.75 1690.5 1151.99 1689.23 1165.55 1688.28 1179.31 1687.71 1193.09 1687.52 1206.78 1687.33 1206.59 1687.34 1220.15 1686.78 1219.96 1686.79 1233.33 1685.85 1233.16 1685.86 1246.22 1684.61 1246.03 1684.64 1258.59 1683.07 1258.39 1683.1 1270.51 1681.23 1270.34 1681.26 1281.78 1679.19 1281.55 1679.24 1292.23 1676.93 1291.99 1676.98 1301.8 1674.48 1300.06 1675.19 1306.32 1671.58 1313.19 1683.49 1306.12 1687.57 1295.26 1690.34 1284.34 1692.7 1272.7 1694.8 1260.39 1696.71 1247.63 1698.29 1234.38 1699.56 1220.82 1700.51 1207.06 1701.08 1193.28 1701.27 1179.59 1701.46 1179.78 1701.45 1166.22 1702.02 1166.42 1702 1153.04 1702.94 1153.22 1702.93 1140.15 1704.18 1140.34 1704.16 1127.72 1705.72 1127.93 1705.69 1115.87 1707.56 1116.03 1707.54 1104.59 1709.6 1104.83 1709.55 1094.14 1711.87 1094.38 1711.81 1084.57 1714.31 1084.87 1714.23 1075.99 1716.91 1076.37 1716.79 1068.56 1719.66 1068.97 1719.49 1062.35 1722.43 1063.05 1722.07 1057.74 1725.2 1058.52 1724.66 1054.59 1727.78 1055.46 1726.95 1054.02 1728.58 1054.56 1727.89 1053.5 1729.45 1054.23 1728.05 1053.6 1729.68 1054.02 1728 1053.83 1729.62ZM1293.32 1663.3 1339.32 1660 1314.36 1698.78Z"/><path d="M1.04539-6.79506 3.51592-6.41498 6.6402-5.09316 9.22575-3.23157 11.5161-1.02931 13.5605 1.50581 15.4292 4.34622 17.1926 7.44976 18.9577 10.98 22.0756 18.6753 25.0776 27.6159 27.8535 37.6865 30.4105 48.7455 32.766 60.6506 34.859 73.3988 36.7584 86.821 38.3414 100.879 39.6059 115.357 40.5543 130.214 41.1234 145.328 41.312 160.414 41.4995 175.414 41.4951 175.241 42.0576 190.179 42.0484 189.998 42.9859 204.623 42.9739 204.464 44.2239 218.777 44.2068 218.606 45.7693 232.481 45.7447 232.287 47.6197 245.537 47.5967 245.386 49.6592 257.949 49.6206 257.735 51.9331 269.485 51.8838 269.255 54.3838 280.005 53.9364 278.696 58.2382 288.074 45.7404 293.807 41.1487 283.797 38.4646 272.255 36.1084 260.284 34.016 247.539 32.1166 234.117 30.5336 220.059 29.2692 205.582 28.3208 190.787 27.7516 175.672 27.563 160.586 27.3755 145.586 27.3799 145.759 26.8174 130.821 26.8265 131 25.889 116.313 25.9011 116.473 24.6511 102.161 24.6682 102.332 23.1057 88.4568 23.1303 88.6508 21.2553 75.4008 21.2783 75.5513 19.2158 62.9888 19.2557 63.2094 16.9432 51.5219 16.9892 51.7362 14.4892 40.9237 14.5597 41.2019 11.8722 31.4519 11.9826 31.8133 9.10757 23.2508 9.25315 23.6442 6.31565 16.3942 6.53831 16.8871 4.97581 13.7621 5.14749 14.0838 3.58499 11.3338 3.81901 11.7161 2.25651 9.34111 2.64841 9.8783 1.08591 7.9408 1.67238 8.58073 0.0473773 7.01823 0.795405 7.6418-0.767095 6.5168 0.571225 7.26915-1.05378 6.58165 0.579607 7.04505-1.04539 6.79506ZM66.5996 274.841 68.8334 320.906 30.6413 295.054Z" fill="#FF0000" transform="matrix(-1.83697e-16 -1 -1 1.83697e-16 1659.91 1728.83)"/><path d="M1332.17 1528.9 1332.62 1524.91 1334.08 1520.37 1336.28 1516.22 1339.13 1512.29 1342.54 1508.65 1346.34 1505.35 1350.68 1502.2 1355.4 1499.31 1365.71 1494.4 1377.21 1490.7 1389.28 1488.31 1395.71 1487.62 1401.84 1487.43 1407.72 1487.24 1407.21 1487.28 1413.08 1486.65 1412.48 1486.74 1423.85 1484.49 1421.95 1485.17 1437.24 1477 1443.72 1489.13 1427.53 1497.78 1414.84 1500.29 1408.41 1500.98 1402.28 1501.17 1396.41 1501.36 1396.91 1501.32 1391.04 1501.95 1391.65 1501.86 1380.27 1504.11 1381.04 1503.91 1370.35 1507.34 1371.21 1507 1361.65 1511.57 1362.28 1511.23 1358.09 1513.79 1358.54 1513.49 1354.66 1516.3 1355.13 1515.93 1351.82 1518.8 1352.32 1518.32 1349.45 1521.38 1350 1520.71 1347.69 1523.9 1348.2 1523.08 1346.51 1526.27 1346.98 1525.15 1345.92 1528.46 1346.21 1527.14 1345.83 1530.45ZM1421.13 1473.15 1465.02 1459 1450.01 1502.61Z"/><rect x="1371.5" y="1923.5" width="325" height="130" stroke="#000000" stroke-width="4.58333" stroke-miterlimit="8" fill="#900090"/><text fill="#FFFFFF" font-family="Courier New,Courier New_MSFontService,sans-serif" font-weight="400" font-size="83" transform="matrix(1 0 0 1 1410.53 2011)">max()</text><rect x="1371.5" y="2125.5" width="967" height="122" stroke="#000000" stroke-width="3.4375" stroke-linejoin="round" stroke-miterlimit="10" fill="none"/><text fill="#900090" font-family="Courier New,Courier New_MSFontService,sans-serif" font-weight="400" font-size="73" transform="matrix(1 0 0 1 1404.31 2206)">mayorDigito<tspan font-size="73" x="485.26" y="0">(4)</tspan></text><rect x="1176.5" y="2125.5" width="130" height="122" stroke="#000000" stroke-width="3.4375" stroke-linejoin="round" stroke-miterlimit="10" fill="none"/><text font-family="Courier New,Courier New_MSFontService,sans-serif" font-weight="400" font-size="73" transform="matrix(1 0 0 1 1219.33 2206)">7</text><path d="M1234.17 2124.5 1234.45 2121.97 1235.61 2118.82 1237.32 2116.11 1239.45 2113.61 1244.24 2109.58 1250.32 2105.93 1257.48 2102.55 1265.73 2099.39 1274.93 2096.47 1285.01 2093.71 1295.96 2091.21 1307.62 2088.98 1319.89 2087.01 1332.72 2085.36 1345.96 2084.03 1359.54 2083.02 1373.29 2082.45 1387.08 2082.19 1400.78 2082.01 1400.56 2082.01 1414.12 2081.39 1413.92 2081.4 1427.3 2080.4 1427.12 2080.42 1440.19 2079.1 1439.99 2079.13 1452.56 2077.5 1452.35 2077.53 1464.48 2075.59 1464.27 2075.63 1475.71 2073.44 1475.47 2073.49 1486.16 2071.05 1485.91 2071.11 1495.72 2068.49 1494.02 2069.2 1500.7 2065.29 1507.65 2077.15 1500.17 2081.53 1489.34 2084.43 1478.41 2086.92 1466.75 2089.15 1454.42 2091.12 1441.66 2092.77 1428.41 2094.11 1414.85 2095.12 1401.08 2095.75 1387.28 2095.94 1387.31 2095.94 1373.63 2096.19 1373.78 2096.19 1360.22 2096.75 1360.45 2096.74 1347.07 2097.74 1347.25 2097.72 1334.19 2099.03 1334.38 2099.01 1321.75 2100.64 1321.97 2100.61 1309.9 2102.54 1310.1 2102.51 1298.67 2104.7 1298.9 2104.65 1288.22 2107.08 1288.5 2107.01 1278.69 2109.7 1278.95 2109.62 1270.08 2112.44 1270.46 2112.3 1262.65 2115.3 1263.12 2115.1 1256.5 2118.22 1257.1 2117.9 1251.79 2121.09 1252.68 2120.45 1248.74 2123.77 1249.55 2122.96 1248.11 2124.65 1248.69 2123.86 1247.63 2125.54 1248.26 2124.27 1247.63 2125.96 1248.02 2124.33 1247.83 2126.02ZM1487.41 2057.37 1533.32 2053 1509.28 2092.35Z"/><path d="M1.00752-6.80077 3.51435-6.42939 6.61136-5.16765 9.33165-3.35412 11.739-1.12509 13.8197 1.35574 15.8343 4.19111 17.7289 7.39741 19.4863 10.9122 22.7837 18.5621 25.9271 27.534 28.8286 37.5925 31.5785 48.656 34.066 60.5831 36.2891 73.3502 38.2544 86.7901 39.9009 100.849 41.2286 115.328 42.2412 130.2 42.8103 145.313 43.0618 160.4 43.2495 175.414 43.244 175.213 43.869 190.15 43.859 189.968 44.859 204.594 44.8463 204.435 46.1588 218.747 46.1408 218.575 47.7658 232.45 47.7402 232.255 49.6777 245.505 49.6481 245.321 51.8356 257.883 51.7942 257.666 54.2317 269.416 54.1788 269.182 56.8038 279.932 56.3411 278.626 60.9554 288.392 48.5231 294.266 43.6114 283.87 40.7927 272.327 38.3084 260.351 36.0859 247.587 34.1206 234.147 32.4741 220.089 31.1465 205.611 30.1348 190.816 29.5018 175.687 29.313 160.586 29.3135 160.615 29.0635 145.615 29.0674 145.759 28.5049 130.821 28.5159 131.03 27.5159 116.342 27.5287 116.503 26.2162 102.19 26.2342 102.362 24.6092 88.4872 24.6348 88.6822 22.6973 75.4322 22.7269 75.6169 20.5394 63.0544 20.5823 63.2786 18.1448 51.5911 18.203 51.8459 15.5155 41.0334 15.5818 41.2805 12.7693 31.5305 12.8867 31.8983 9.88671 23.3358 10.0615 23.7838 6.93652 16.5338 7.10081 16.8871 5.53831 13.7621 5.76863 14.185 4.14363 11.435 4.45814 11.9195 2.77064 9.54455 3.10743 9.98046 1.48243 8.04296 2.07907 8.66961 0.39157 7.1071 1.24894 7.78285-0.438563 6.65785 0.781084 7.30439-0.906416 6.61689 0.679978 7.05077-1.00752 6.80077ZM68.9819 274.903 72.2564 320.906 33.4897 295.924Z" fill="#900090" transform="matrix(-1.83697e-16 -1 -1 1.83697e-16 1854.91 2125.26)"/><path d="M1527.17 1922.5 1527.62 1918.46 1529.05 1913.9 1531.24 1909.59 1534.11 1905.65 1537.47 1902 1541.26 1898.56 1545.62 1895.32 1550.36 1892.36 1560.66 1887.37 1572.16 1883.54 1584.26 1881.08 1590.71 1880.39 1596.84 1880.2 1602.72 1880.01 1602.21 1880.05 1608.09 1879.42 1607.44 1879.52 1618.82 1877.21 1618 1877.43 1628.63 1873.86 1625.97 1875.5 1630.99 1870.53 1640.66 1880.3 1634.52 1886.39 1621.97 1890.6 1609.86 1893.06 1603.41 1893.74 1597.28 1893.94 1591.41 1894.13 1591.91 1894.09 1586.04 1894.72 1586.68 1894.62 1575.31 1896.93 1576.11 1896.72 1565.42 1900.28 1566.24 1899.95 1556.68 1904.57 1557.34 1904.21 1553.15 1906.83 1553.6 1906.53 1549.72 1909.4 1550.24 1908.98 1546.93 1911.98 1547.37 1911.54 1544.5 1914.66 1545 1914.04 1542.69 1917.23 1543.25 1916.31 1541.56 1919.63 1542 1918.57 1540.93 1921.95 1541.21 1920.64 1540.83 1924.02ZM1616.34 1865.78 1660.02 1851 1645.63 1894.82Z"/><rect x="1369.5" y="2319.5" width="130" height="123" stroke="#000000" stroke-width="3.4375" stroke-linejoin="round" stroke-miterlimit="10" fill="none"/><text font-family="Courier New,Courier New_MSFontService,sans-serif" font-weight="400" font-size="73" transform="matrix(1 0 0 1 1412.26 2401)">4</text><path d="M1427.24 2318 1427.74 2315.31 1429.48 2311.96 1431.91 2309.22 1434.72 2306.92 1437.81 2304.96 1441.3 2303.04 1445.36 2301.22 1449.67 2299.56 1454.47 2297.85 1459.61 2296.29 1465.22 2294.68 1471.21 2293.2 1477.52 2291.73 1484.22 2290.33 1498.51 2287.61 1514.07 2285.14 1530.67 2282.93 1548.19 2280.98 1566.45 2279.34 1585.33 2278.02 1604.72 2277.01 1624.36 2276.45 1644.11 2276.19 1663.81 2276.01 1663.65 2276.01 1683.15 2275.39 1683.02 2275.39 1702.2 2274.39 1702.08 2274.4 1720.83 2273.09 1720.7 2273.1 1738.89 2271.47 1738.74 2271.49 1756.05 2269.55 1755.91 2269.57 1772.41 2267.38 1772.23 2267.4 1787.54 2264.97 1787.37 2265 1801.56 2262.37 1801.39 2262.41 1807.89 2261.03 1807.76 2261.06 1813.94 2259.62 1812.69 2260.04 1820.88 2256.38 1826.5 2268.93 1817.7 2272.87 1810.8 2274.47 1804.15 2275.88 1789.79 2278.53 1774.3 2281 1757.65 2283.21 1740.19 2285.16 1721.86 2286.8 1702.98 2288.12 1683.66 2289.13 1664.02 2289.76 1644.25 2289.94 1644.27 2289.94 1624.59 2290.19 1624.7 2290.19 1605.2 2290.75 1605.36 2290.75 1586.11 2291.75 1586.23 2291.74 1567.48 2293.05 1567.61 2293.04 1549.49 2294.67 1549.64 2294.65 1532.26 2296.59 1532.41 2296.57 1515.97 2298.76 1516.14 2298.73 1500.76 2301.17 1500.97 2301.14 1486.85 2303.82 1486.97 2303.8 1480.41 2305.17 1480.56 2305.14 1474.37 2306.58 1474.46 2306.56 1468.65 2307.99 1468.9 2307.93 1463.46 2309.49 1463.56 2309.46 1458.62 2310.96 1458.93 2310.86 1454.37 2312.48 1454.53 2312.42 1450.47 2313.99 1450.81 2313.84 1447.19 2315.47 1447.69 2315.22 1444.63 2316.9 1444.99 2316.69 1442.43 2318.31 1443.1 2317.83 1441.04 2319.52 1441.83 2318.76 1440.33 2320.45 1441.29 2319.05 1440.42 2320.73 1441.07 2318.82 1440.76 2320.51ZM1808.18 2247.42 1854.3 2247 1826.96 2284.15Z"/><rect x="1570.5" y="649.5" width="183" height="122" stroke="#000000" stroke-width="3.4375" stroke-linejoin="round" stroke-miterlimit="10" fill="none"/><text font-family="Courier New,Courier New_MSFontService,sans-serif" font-weight="400" font-size="73" transform="matrix(1 0 0 1 1617.4 730)">??</text><path d="M0.107745-6.87416 20.1327-6.56029 40.0707-5.74005 59.7681-4.35113 78.893-2.45757 97.4594-0.120993 115.278 2.6592 132.115 5.7607 147.912 9.2501 162.477 13.0026 169.282 15.0569 175.771 17.1129 181.858 19.3147 187.457 21.5027 192.791 23.7416 197.668 26.1467 202.101 28.5645 206.189 31.1287 209.762 33.7727 212.952 36.5826 215.702 39.7491 217.744 43.1238 219.206 46.826 219.629 50.0407 219.941 52.4156 219.52 50.7883 220.457 53.1633 219.944 52.1276 221.382 54.5026 220.691 53.5547 222.753 55.9297 222.175 55.3394 224.8 57.7144 224.277 57.2861 227.402 59.5986 226.893 59.2562 230.581 61.5062 230.292 61.3395 234.417 63.5895 234.166 63.459 238.728 65.709 238.414 65.564 243.477 67.7515 243.252 67.6591 248.69 69.7841 248.465 69.7006 254.34 71.7631 254.198 71.715 260.51 73.7775 260.305 73.7139 266.93 75.6514 266.715 75.5924 281.028 79.2799 280.795 79.2243 296.358 82.6618 296.145 82.6183 312.77 85.7433 312.536 85.7036 330.161 88.3911 329.986 88.3667 348.299 90.6792 348.113 90.6582 367.113 92.5332 366.844 92.512 391.625 93.9787 390.812 107.705 365.897 106.23 346.669 104.333 328.176 101.997 310.346 99.2786 293.498 96.1116 277.713 92.6249 263.177 88.8798 256.342 86.8809 249.856 84.7617 243.797 82.6346 238.134 80.4217 232.802 78.1175 227.957 75.7283 223.561 73.3307 219.47 70.8339 215.826 68.1376 212.643 65.2579 209.923 62.1259 207.881 58.7512 206.419 55.049 205.996 51.8343 205.684 49.4593 206.105 51.0868 205.168 48.7118 205.681 49.7474 204.243 47.3724 204.934 48.3203 202.872 45.9453 203.518 46.5962 200.893 44.2837 201.348 44.6514 198.223 42.3389 198.66 42.6369 194.972 40.3244 195.333 40.5355 191.208 38.2855 191.459 38.416 186.897 36.166 187.277 36.3392 182.214 34.2142 182.373 34.2784 176.935 32.1534 177.099 32.2151 171.224 30.0901 171.486 30.1789 165.174 28.1789 165.263 28.2066 158.638 26.2066 158.91 26.2826 144.597 22.5951 144.83 22.6507 129.267 19.2132 129.505 19.2612 112.88 16.1987 113.065 16.2303 95.4401 13.4803 95.6415 13.5087 77.2665 11.1962 77.4476 11.2165 58.5101 9.34155 58.7039 9.35797 39.2039 7.98297 39.4049 7.99419 19.6549 7.18169 19.8298 7.18666-0.107745 6.87416ZM384.958 80.0219 425.578 101.861 383.735 121.254Z" transform="matrix(1 0 0 -1 1144 811.861)"/></g></svg>