<?xml version="1.0" encoding="UTF-8"?><svg xmlns="http://www.w3.org/2000/svg" xmlns:xlink="http://www.w3.org/1999/xlink" fill-opacity="1" color-rendering="auto" color-interpolation="auto" text-rendering="auto" stroke="black" stroke-linecap="square" width="970" stroke-miterlimit="10" shape-rendering="auto" stroke-opacity="1" fill="black" stroke-dasharray="none" font-weight="normal" stroke-width="1" height="438" font-family="'Dialog'" font-style="normal" stroke-linejoin="miter" font-size="12px" stroke-dashoffset="0" image-rendering="auto">
  <!--Generated by ySVG 2.5-->
  <defs id="genericDefs"/>
  <g>
    <defs id="defs1">
      <clipPath clipPathUnits="userSpaceOnUse" id="clipPath1">
        <path d="M0 0 L970 0 L970 438 L0 438 L0 0 Z"/>
      </clipPath>
      <clipPath clipPathUnits="userSpaceOnUse" id="clipPath2">
        <path d="M138 108 L1108 108 L1108 546 L138 546 L138 108 Z"/>
      </clipPath>
    </defs>
    <g text-rendering="geometricPrecision" stroke-miterlimit="1.45" shape-rendering="geometricPrecision" transform="matrix(1,0,0,1,-138,-108)" stroke-linecap="butt">
      <rect fill="none" x="267.2382" width="200" height="75" y="380.4066" clip-path="url(#clipPath2)"/>
    </g>
    <g text-rendering="geometricPrecision" stroke-miterlimit="1.45" shape-rendering="geometricPrecision" transform="matrix(1,0,0,1,-138,-108)" stroke-linecap="butt">
      <rect fill="none" x="267.2382" width="200" height="75" y="305.4066" clip-path="url(#clipPath2)"/>
      <rect fill="none" x="467.2382" width="200" height="75" y="305.4066" clip-path="url(#clipPath2)"/>
      <rect fill="none" x="667.2382" width="200" height="75" y="305.4066" clip-path="url(#clipPath2)"/>
      <rect fill="none" x="867.2382" width="200" height="75" y="305.4066" clip-path="url(#clipPath2)"/>
      <rect fill="none" x="467.2382" width="200" height="75" y="380.596" clip-path="url(#clipPath2)"/>
      <rect fill="none" x="667.2382" width="200" height="75" y="380.596" clip-path="url(#clipPath2)"/>
      <rect fill="none" x="867.2382" width="200" height="75" y="380.596" clip-path="url(#clipPath2)"/>
      <rect fill="none" x="267.2382" width="200" height="75" y="455.7854" clip-path="url(#clipPath2)"/>
      <rect fill="none" x="467.2382" width="200" height="75" y="455.7854" clip-path="url(#clipPath2)"/>
      <rect fill="none" x="667.2382" width="200" height="75" y="455.7854" clip-path="url(#clipPath2)"/>
      <rect fill="none" x="867.2382" width="200" height="75" y="455.7854" clip-path="url(#clipPath2)"/>
      <rect fill="none" x="267.2382" width="75" height="50" y="123.2255" clip-path="url(#clipPath2)"/>
      <text x="290.0605" font-size="24px" y="157.6532" clip-path="url(#clipPath2)" font-family="sans-serif" stroke="none" xml:space="preserve">P1</text>
      <rect fill="none" x="342.2382" width="75" height="50" y="123.2255" clip-path="url(#clipPath2)"/>
      <rect fill="none" x="417.2382" width="75" height="50" y="123.2255" clip-path="url(#clipPath2)"/>
      <rect fill="none" x="492.2382" width="75" height="50" y="123.2255" clip-path="url(#clipPath2)"/>
      <rect fill="none" x="567.2382" width="75" height="50" y="123.2255" clip-path="url(#clipPath2)"/>
      <rect fill="none" x="642.2382" width="75" height="50" y="123.2255" clip-path="url(#clipPath2)"/>
      <rect fill="none" x="717.2382" width="75" height="50" y="123.2255" clip-path="url(#clipPath2)"/>
      <text x="740.0605" font-size="24px" y="157.6532" clip-path="url(#clipPath2)" font-family="sans-serif" stroke="none" xml:space="preserve">P2</text>
      <rect fill="none" x="792.2382" width="75" height="50" y="123.2255" clip-path="url(#clipPath2)"/>
      <rect fill="none" x="867.2382" width="75" height="50" y="123.2255" clip-path="url(#clipPath2)"/>
      <rect fill="none" x="942.2382" width="75" height="50" y="123.2255" clip-path="url(#clipPath2)"/>
      <rect fill="none" x="1017.2382" width="75" height="50" y="123.2255" clip-path="url(#clipPath2)"/>
    </g>
    <g fill="rgb(255,255,153)" text-rendering="geometricPrecision" shape-rendering="geometricPrecision" transform="matrix(1,0,0,1,-138,-108)" stroke="rgb(255,255,153)">
      <rect x="153.1757" width="114.0625" height="50" y="123.2255" clip-path="url(#clipPath2)" stroke="none"/>
    </g>
    <g text-rendering="geometricPrecision" stroke-miterlimit="1.45" shape-rendering="geometricPrecision" transform="matrix(1,0,0,1,-138,-108)" stroke-linecap="butt">
      <rect fill="none" x="153.1757" width="114.0625" height="50" y="123.2255" clip-path="url(#clipPath2)"/>
      <text x="160.1797" font-size="24px" y="157.6532" clip-path="url(#clipPath2)" font-family="sans-serif" stroke="none" xml:space="preserve">Variables</text>
    </g>
    <g fill="rgb(255,255,153)" text-rendering="geometricPrecision" shape-rendering="geometricPrecision" transform="matrix(1,0,0,1,-138,-108)" stroke="rgb(255,255,153)">
      <rect x="153.1757" width="114.0625" height="50" y="305.4066" clip-path="url(#clipPath2)" stroke="none"/>
    </g>
    <g text-rendering="geometricPrecision" stroke-miterlimit="1.45" shape-rendering="geometricPrecision" transform="matrix(1,0,0,1,-138,-108)" stroke-linecap="butt">
      <rect fill="none" x="153.1757" width="114.0625" height="50" y="305.4066" clip-path="url(#clipPath2)"/>
      <text x="163.5312" font-size="24px" y="339.8343" clip-path="url(#clipPath2)" font-family="sans-serif" stroke="none" xml:space="preserve">Memoria</text>
    </g>
    <g fill="rgb(204,255,204)" text-rendering="geometricPrecision" shape-rendering="geometricPrecision" transform="matrix(1,0,0,1,-138,-108)" stroke="rgb(204,255,204)">
      <rect x="482.2382" width="180" height="60" y="387.9066" clip-path="url(#clipPath2)" stroke="none"/>
    </g>
    <g text-rendering="geometricPrecision" stroke-miterlimit="1.45" shape-rendering="geometricPrecision" transform="matrix(1,0,0,1,-138,-108)" stroke-linecap="butt">
      <rect fill="none" x="482.2382" width="180" height="60" y="387.9066" clip-path="url(#clipPath2)"/>
      <text x="484.8515" font-size="24px" y="412.6331" clip-path="url(#clipPath2)" font-family="sans-serif" stroke="none" xml:space="preserve">PersonaMutable</text>
      <text x="522.2929" font-size="24px" y="442.0355" clip-path="url(#clipPath2)" font-family="sans-serif" stroke="none" xml:space="preserve">'vale' : 20</text>
    </g>
    <g fill="rgb(153,204,255)" text-rendering="geometricPrecision" shape-rendering="geometricPrecision" transform="matrix(1,0,0,1,-138,-108)" stroke="rgb(153,204,255)">
      <rect x="882.2382" width="180" height="60" y="312.9066" clip-path="url(#clipPath2)" stroke="none"/>
    </g>
    <g text-rendering="geometricPrecision" stroke-miterlimit="1.45" shape-rendering="geometricPrecision" transform="matrix(1,0,0,1,-138,-108)" stroke-linecap="butt">
      <rect fill="none" x="882.2382" width="180" height="60" y="312.9066" clip-path="url(#clipPath2)"/>
      <text x="884.8515" font-size="24px" y="337.6331" clip-path="url(#clipPath2)" font-family="sans-serif" stroke="none" xml:space="preserve">PersonaMutable</text>
      <text x="921.6191" font-size="24px" y="367.0355" clip-path="url(#clipPath2)" font-family="sans-serif" stroke="none" xml:space="preserve">'dani' : 20</text>
      <path fill="none" stroke-dasharray="12,4" d="M302.1624 173.2605 L301.9375 177.5938 L301.7728 186.8469 L302.0563 195.576 L302.9 203.65 L304.4159 210.9379 L306.7161 217.3086 L309.9125 222.6313 L314.1173 226.7747 L319.4424 229.6079 L326 231 L333.8467 230.8982 L342.8179 229.5633 L352.6938 227.3344 L363.2543 224.5506 L374.2797 221.5511 L385.55 218.675 L396.8453 216.2614 L407.9457 214.6494 L418.6313 214.1781 L428.6821 215.1867 L437.8783 218.0143 L446 223 L452.8819 230.3917 L458.5771 240.0725 L463.1938 251.8344 L466.8395 265.4691 L469.6223 280.7687 L471.65 297.525 L473.0305 315.5299 L473.8716 334.5753 L474.2812 354.4531 L474.3673 374.9552 L474.2376 395.8736 L474.213 398.0651" stroke-width="2" clip-path="url(#clipPath2)"/>
      <path stroke-dasharray="12,4" d="M474.0738 410.4393 L480.9752 397.016 L467.476 396.8642 Z" stroke-width="2" clip-path="url(#clipPath2)" stroke="none"/>
      <path fill="none" stroke-dasharray="12,4" d="M752.6057 173.2566 L752.816 178.352 L753.45 183.875 L754.559 189.0993 L756.2222 193.9753 L758.5187 198.4531 L761.5278 202.483 L765.3285 206.0152 L770 209 L775.5823 211.4176 L781.9583 213.3688 L788.9719 214.9844 L796.4667 216.3951 L804.2864 217.7317 L812.275 219.125 L820.2761 220.7058 L828.1333 222.6049 L835.6906 224.9531 L842.7917 227.8812 L849.2802 231.5199 L855 236 L859.8337 241.4171 L863.8195 247.7253 L867.0344 254.8438 L869.5555 262.6913 L871.4601 271.1871 L872.825 280.25 L873.7274 289.799 L874.2444 299.7531 L874.4531 310.0312 L874.4305 320.5525 L874.3896 323.0257 L874.3873 323.1256" stroke-width="2" clip-path="url(#clipPath2)"/>
      <path stroke-dasharray="12,4" d="M874.1538 335.4984 L881.1573 322.1282 L867.6597 321.8735 Z" stroke-width="2" clip-path="url(#clipPath2)" stroke="none"/>
    </g>
  </g>
</svg>
