<?xml version="1.0" encoding="UTF-8"?><svg xmlns="http://www.w3.org/2000/svg" xmlns:xlink="http://www.w3.org/1999/xlink" fill-opacity="1" color-rendering="auto" color-interpolation="auto" text-rendering="auto" stroke="black" stroke-linecap="square" width="970" stroke-miterlimit="10" shape-rendering="auto" stroke-opacity="1" fill="black" stroke-dasharray="none" font-weight="normal" stroke-width="1" height="438" font-family="'Dialog'" font-style="normal" stroke-linejoin="miter" font-size="12px" stroke-dashoffset="0" image-rendering="auto">
  <!--Generated by ySVG 2.5-->
  <defs id="genericDefs"/>
  <g>
    <defs id="defs1">
      <clipPath clipPathUnits="userSpaceOnUse" id="clipPath1">
        <path d="M0 0 L970 0 L970 438 L0 438 L0 0 Z"/>
      </clipPath>
      <clipPath clipPathUnits="userSpaceOnUse" id="clipPath2">
        <path d="M88 58 L1058 58 L1058 496 L88 496 L88 58 Z"/>
      </clipPath>
    </defs>
    <g text-rendering="geometricPrecision" stroke-miterlimit="1.45" shape-rendering="geometricPrecision" transform="matrix(1,0,0,1,-88,-58)" stroke-linecap="butt">
      <rect fill="none" x="217.1064" width="200" height="75" y="330.2375" clip-path="url(#clipPath2)"/>
    </g>
    <g text-rendering="geometricPrecision" stroke-miterlimit="1.45" shape-rendering="geometricPrecision" transform="matrix(1,0,0,1,-88,-58)" stroke-linecap="butt">
      <rect fill="none" x="217.1064" width="200" height="75" y="255.2375" clip-path="url(#clipPath2)"/>
      <rect fill="none" x="417.1064" width="200" height="75" y="255.2375" clip-path="url(#clipPath2)"/>
      <rect fill="none" x="617.1064" width="200" height="75" y="255.2375" clip-path="url(#clipPath2)"/>
      <rect fill="none" x="817.1064" width="200" height="75" y="255.2375" clip-path="url(#clipPath2)"/>
      <rect fill="none" x="417.1064" width="200" height="75" y="330.4269" clip-path="url(#clipPath2)"/>
      <rect fill="none" x="617.1064" width="200" height="75" y="330.4269" clip-path="url(#clipPath2)"/>
      <rect fill="none" x="817.1064" width="200" height="75" y="330.4269" clip-path="url(#clipPath2)"/>
      <rect fill="none" x="217.1064" width="200" height="75" y="405.6163" clip-path="url(#clipPath2)"/>
      <rect fill="none" x="417.1064" width="200" height="75" y="405.6163" clip-path="url(#clipPath2)"/>
      <rect fill="none" x="617.1064" width="200" height="75" y="405.6163" clip-path="url(#clipPath2)"/>
      <rect fill="none" x="817.1064" width="200" height="75" y="405.6163" clip-path="url(#clipPath2)"/>
      <rect fill="none" x="217.1064" width="75" height="50" y="73.0564" clip-path="url(#clipPath2)"/>
      <text x="239.9287" font-size="24px" y="107.4841" clip-path="url(#clipPath2)" font-family="sans-serif" stroke="none" xml:space="preserve">P1</text>
      <rect fill="none" x="292.1064" width="75" height="50" y="73.0564" clip-path="url(#clipPath2)"/>
      <rect fill="none" x="367.1064" width="75" height="50" y="73.0564" clip-path="url(#clipPath2)"/>
      <rect fill="none" x="442.1064" width="75" height="50" y="73.0564" clip-path="url(#clipPath2)"/>
      <rect fill="none" x="517.1064" width="75" height="50" y="73.0564" clip-path="url(#clipPath2)"/>
      <rect fill="none" x="592.1064" width="75" height="50" y="73.0564" clip-path="url(#clipPath2)"/>
      <rect fill="none" x="667.1064" width="75" height="50" y="73.0564" clip-path="url(#clipPath2)"/>
      <text x="689.9287" font-size="24px" y="107.4841" clip-path="url(#clipPath2)" font-family="sans-serif" stroke="none" xml:space="preserve">P2</text>
      <rect fill="none" x="742.1064" width="75" height="50" y="73.0564" clip-path="url(#clipPath2)"/>
      <rect fill="none" x="817.1064" width="75" height="50" y="73.0564" clip-path="url(#clipPath2)"/>
      <rect fill="none" x="892.1064" width="75" height="50" y="73.0564" clip-path="url(#clipPath2)"/>
      <rect fill="none" x="967.1064" width="75" height="50" y="73.0564" clip-path="url(#clipPath2)"/>
    </g>
    <g fill="rgb(255,255,153)" text-rendering="geometricPrecision" shape-rendering="geometricPrecision" transform="matrix(1,0,0,1,-88,-58)" stroke="rgb(255,255,153)">
      <rect x="103.0439" width="114.0625" height="50" y="73.0564" clip-path="url(#clipPath2)" stroke="none"/>
    </g>
    <g text-rendering="geometricPrecision" stroke-miterlimit="1.45" shape-rendering="geometricPrecision" transform="matrix(1,0,0,1,-88,-58)" stroke-linecap="butt">
      <rect fill="none" x="103.0439" width="114.0625" height="50" y="73.0564" clip-path="url(#clipPath2)"/>
      <text x="110.0478" font-size="24px" y="107.4841" clip-path="url(#clipPath2)" font-family="sans-serif" stroke="none" xml:space="preserve">Variables</text>
    </g>
    <g fill="rgb(255,255,153)" text-rendering="geometricPrecision" shape-rendering="geometricPrecision" transform="matrix(1,0,0,1,-88,-58)" stroke="rgb(255,255,153)">
      <rect x="103.0439" width="114.0625" height="50" y="255.2375" clip-path="url(#clipPath2)" stroke="none"/>
    </g>
    <g text-rendering="geometricPrecision" stroke-miterlimit="1.45" shape-rendering="geometricPrecision" transform="matrix(1,0,0,1,-88,-58)" stroke-linecap="butt">
      <rect fill="none" x="103.0439" width="114.0625" height="50" y="255.2375" clip-path="url(#clipPath2)"/>
      <text x="113.3994" font-size="24px" y="289.6652" clip-path="url(#clipPath2)" font-family="sans-serif" stroke="none" xml:space="preserve">Memoria</text>
    </g>
    <g fill="rgb(204,255,204)" text-rendering="geometricPrecision" shape-rendering="geometricPrecision" transform="matrix(1,0,0,1,-88,-58)" stroke="rgb(204,255,204)">
      <rect x="432.1064" width="180" height="60" y="262.7375" clip-path="url(#clipPath2)" stroke="none"/>
    </g>
    <g text-rendering="geometricPrecision" stroke-miterlimit="1.45" shape-rendering="geometricPrecision" transform="matrix(1,0,0,1,-88,-58)" stroke-linecap="butt">
      <rect fill="none" x="432.1064" width="180" height="60" y="262.7375" clip-path="url(#clipPath2)"/>
      <text x="434.7197" font-size="24px" y="287.464" clip-path="url(#clipPath2)" font-family="sans-serif" stroke="none" xml:space="preserve">PersonaMutable</text>
      <text x="472.1611" font-size="24px" y="316.8664" clip-path="url(#clipPath2)" font-family="sans-serif" stroke="none" xml:space="preserve">'vale' : 20</text>
      <path fill="none" stroke-dasharray="12,4" d="M252.1038 123.0747 L251.9375 126.125 L251.7728 134.9728 L252.0563 143.3688 L252.9 151.2 L254.4159 158.3534 L256.7161 164.716 L259.9125 170.175 L264.1173 174.6173 L269.4424 177.9299 L276 180 L283.8467 180.7754 L292.8179 180.4475 L302.6938 179.2688 L313.2543 177.4914 L324.2797 175.3677 L335.55 173.15 L346.8453 171.0907 L357.9457 169.442 L368.6313 168.4563 L378.6821 168.3858 L387.8783 169.4829 L396 172 L402.8819 176.124 L408.5771 181.7809 L413.1938 188.8313 L416.8395 197.1358 L419.6223 206.5552 L421.65 216.95 L423.0305 228.1809 L423.8716 240.1086 L424.2812 252.5938 L424.3673 265.4969 L424.2946 272.8875 L424.2928 272.9875" stroke-width="2" clip-path="url(#clipPath2)"/>
      <path stroke-dasharray="12,4" d="M424.1188 285.3613 L431.058 271.9576 L417.5593 271.7677 Z" stroke-width="2" clip-path="url(#clipPath2)" stroke="none"/>
      <path fill="none" stroke-dasharray="12,4" d="M706.246 123.0663 L706.2247 126.6691 L705.5013 133.3382 L703.925 139.675 L701.325 145.6132 L697.5309 151.0864 L692.3719 156.0281 L685.6775 160.3719 L677.277 164.0513 L667 167 L654.759 169.1889 L640.7994 170.7392 L625.45 171.8094 L609.0395 172.558 L591.8966 173.1437 L574.35 173.725 L556.7284 174.4604 L539.3605 175.5086 L522.575 177.0281 L506.7006 179.1775 L492.066 182.1152 L479 186 L467.75 190.9485 L458.2392 196.9105 L450.3094 203.7937 L443.8025 211.5062 L438.5604 219.9556 L434.425 229.05 L431.2382 238.6971 L428.842 248.8049 L427.0781 259.2812 L425.7886 270.0339 L425.5331 272.9043 L425.5258 273.004" stroke-width="2" clip-path="url(#clipPath2)"/>
      <path stroke-dasharray="12,4" d="M424.4916 285.3358 L432.3462 272.4471 L418.8934 271.3189 Z" stroke-width="2" clip-path="url(#clipPath2)" stroke="none"/>
    </g>
  </g>
</svg>
