<?xml version="1.0" encoding="UTF-8"?><svg xmlns="http://www.w3.org/2000/svg" xmlns:xlink="http://www.w3.org/1999/xlink" fill-opacity="1" color-rendering="auto" color-interpolation="auto" text-rendering="auto" stroke="black" stroke-linecap="square" width="970" stroke-miterlimit="10" shape-rendering="auto" stroke-opacity="1" fill="black" stroke-dasharray="none" font-weight="normal" stroke-width="1" height="438" font-family="'Dialog'" font-style="normal" stroke-linejoin="miter" font-size="12px" stroke-dashoffset="0" image-rendering="auto">
  <!--Generated by ySVG 2.5-->
  <defs id="genericDefs"/>
  <g>
    <defs id="defs1">
      <clipPath clipPathUnits="userSpaceOnUse" id="clipPath1">
        <path d="M0 0 L970 0 L970 438 L0 438 L0 0 Z"/>
      </clipPath>
      <clipPath clipPathUnits="userSpaceOnUse" id="clipPath2">
        <path d="M113 83 L1083 83 L1083 521 L113 521 L113 83 Z"/>
      </clipPath>
    </defs>
    <g text-rendering="geometricPrecision" stroke-miterlimit="1.45" shape-rendering="geometricPrecision" transform="matrix(1,0,0,1,-113,-83)" stroke-linecap="butt">
      <rect fill="none" x="242.1504" width="200" height="75" y="355.2938" clip-path="url(#clipPath2)"/>
    </g>
    <g font-size="24px" stroke-linecap="butt" transform="matrix(1,0,0,1,-113,-83)" text-rendering="geometricPrecision" font-family="sans-serif" shape-rendering="geometricPrecision" stroke-miterlimit="1.45">
      <text x="335.4765" xml:space="preserve" y="402.2216" clip-path="url(#clipPath2)" stroke="none">8</text>
      <rect fill="none" x="242.1504" width="200" height="75" y="280.2938" clip-path="url(#clipPath2)"/>
      <rect fill="none" x="442.1504" width="200" height="75" y="280.2938" clip-path="url(#clipPath2)"/>
      <rect fill="none" x="642.1504" width="200" height="75" y="280.2938" clip-path="url(#clipPath2)"/>
      <rect fill="none" x="842.1504" width="200" height="75" y="280.2938" clip-path="url(#clipPath2)"/>
      <rect fill="none" x="442.1504" width="200" height="75" y="355.4833" clip-path="url(#clipPath2)"/>
      <rect fill="none" x="642.1504" width="200" height="75" y="355.4833" clip-path="url(#clipPath2)"/>
      <rect fill="none" x="842.1504" width="200" height="75" y="355.4833" clip-path="url(#clipPath2)"/>
      <rect fill="none" x="242.1504" width="200" height="75" y="430.6727" clip-path="url(#clipPath2)"/>
      <rect fill="none" x="442.1504" width="200" height="75" y="430.6727" clip-path="url(#clipPath2)"/>
      <rect fill="none" x="642.1504" width="200" height="75" y="430.6727" clip-path="url(#clipPath2)"/>
      <rect fill="none" x="842.1504" width="200" height="75" y="430.6727" clip-path="url(#clipPath2)"/>
      <rect fill="none" x="242.1504" width="75" height="50" y="98.1127" clip-path="url(#clipPath2)"/>
      <text x="270.9843" xml:space="preserve" y="132.5405" clip-path="url(#clipPath2)" stroke="none">N</text>
      <rect fill="none" x="317.1504" width="75" height="50" y="98.1127" clip-path="url(#clipPath2)"/>
      <rect fill="none" x="392.1504" width="75" height="50" y="98.1127" clip-path="url(#clipPath2)"/>
      <text x="416.3027" xml:space="preserve" y="132.5405" clip-path="url(#clipPath2)" stroke="none">L1</text>
      <rect fill="none" x="467.1504" width="75" height="50" y="98.1127" clip-path="url(#clipPath2)"/>
      <rect fill="none" x="542.1504" width="75" height="50" y="98.1127" clip-path="url(#clipPath2)"/>
      <text x="564.9727" xml:space="preserve" y="132.5405" clip-path="url(#clipPath2)" stroke="none">P1</text>
      <rect fill="none" x="617.1504" width="75" height="50" y="98.1127" clip-path="url(#clipPath2)"/>
      <rect fill="none" x="692.1504" width="75" height="50" y="98.1127" clip-path="url(#clipPath2)"/>
      <rect fill="none" x="767.1504" width="75" height="50" y="98.1127" clip-path="url(#clipPath2)"/>
      <rect fill="none" x="842.1504" width="75" height="50" y="98.1127" clip-path="url(#clipPath2)"/>
      <rect fill="none" x="917.1504" width="75" height="50" y="98.1127" clip-path="url(#clipPath2)"/>
      <rect fill="none" x="992.1504" width="75" height="50" y="98.1127" clip-path="url(#clipPath2)"/>
    </g>
    <g fill="rgb(255,255,153)" text-rendering="geometricPrecision" shape-rendering="geometricPrecision" transform="matrix(1,0,0,1,-113,-83)" stroke="rgb(255,255,153)">
      <rect x="128.0879" width="114.0625" height="50" y="98.1127" clip-path="url(#clipPath2)" stroke="none"/>
    </g>
    <g text-rendering="geometricPrecision" stroke-miterlimit="1.45" shape-rendering="geometricPrecision" transform="matrix(1,0,0,1,-113,-83)" stroke-linecap="butt">
      <rect fill="none" x="128.0879" width="114.0625" height="50" y="98.1127" clip-path="url(#clipPath2)"/>
      <text x="135.0918" font-size="24px" y="132.5405" clip-path="url(#clipPath2)" font-family="sans-serif" stroke="none" xml:space="preserve">Variables</text>
    </g>
    <g fill="rgb(255,255,153)" text-rendering="geometricPrecision" shape-rendering="geometricPrecision" transform="matrix(1,0,0,1,-113,-83)" stroke="rgb(255,255,153)">
      <rect x="128.0879" width="114.0625" height="50" y="280.2938" clip-path="url(#clipPath2)" stroke="none"/>
    </g>
    <g text-rendering="geometricPrecision" stroke-miterlimit="1.45" shape-rendering="geometricPrecision" transform="matrix(1,0,0,1,-113,-83)" stroke-linecap="butt">
      <rect fill="none" x="128.0879" width="114.0625" height="50" y="280.2938" clip-path="url(#clipPath2)"/>
      <text x="138.4433" font-size="24px" y="314.7216" clip-path="url(#clipPath2)" font-family="sans-serif" stroke="none" xml:space="preserve">Memoria</text>
    </g>
    <g transform="matrix(1,0,0,1,-113,-83)" fill-opacity="0.498" fill="rgb(255,102,0)" text-rendering="geometricPrecision" shape-rendering="geometricPrecision" stroke="rgb(255,102,0)" stroke-opacity="0.498">
      <rect x="727.1504" width="30" height="30" y="302.7938" clip-path="url(#clipPath2)" stroke="none"/>
    </g>
    <g text-rendering="geometricPrecision" stroke-miterlimit="1.45" shape-rendering="geometricPrecision" transform="matrix(1,0,0,1,-113,-83)" stroke-linecap="butt">
      <rect fill="none" x="727.1504" width="30" height="30" y="302.7938" clip-path="url(#clipPath2)"/>
      <text x="735.4766" font-size="24px" y="327.2216" clip-path="url(#clipPath2)" font-family="sans-serif" stroke="none" xml:space="preserve">1</text>
    </g>
    <g transform="matrix(1,0,0,1,-113,-83)" fill-opacity="0.498" fill="rgb(0,0,255)" text-rendering="geometricPrecision" shape-rendering="geometricPrecision" stroke="rgb(0,0,255)" stroke-opacity="0.498">
      <rect x="927.1504" width="30" height="30" y="377.9833" clip-path="url(#clipPath2)" stroke="none"/>
    </g>
    <g text-rendering="geometricPrecision" stroke-miterlimit="1.45" shape-rendering="geometricPrecision" transform="matrix(1,0,0,1,-113,-83)" stroke-linecap="butt">
      <rect fill="none" x="927.1504" width="30" height="30" y="377.9833" clip-path="url(#clipPath2)"/>
      <text x="935.4766" font-size="24px" y="402.411" clip-path="url(#clipPath2)" font-family="sans-serif" stroke="none" xml:space="preserve">2</text>
    </g>
    <g transform="matrix(1,0,0,1,-113,-83)" fill-opacity="0.498" fill="rgb(0,128,0)" text-rendering="geometricPrecision" shape-rendering="geometricPrecision" stroke="rgb(0,128,0)" stroke-opacity="0.498">
      <rect x="927.1504" width="30" height="30" y="453.1727" clip-path="url(#clipPath2)" stroke="none"/>
    </g>
    <g text-rendering="geometricPrecision" stroke-miterlimit="1.45" shape-rendering="geometricPrecision" transform="matrix(1,0,0,1,-113,-83)" stroke-linecap="butt">
      <rect fill="none" x="927.1504" width="30" height="30" y="453.1727" clip-path="url(#clipPath2)"/>
      <text x="935.4766" font-size="24px" y="477.6004" clip-path="url(#clipPath2)" font-family="sans-serif" stroke="none" xml:space="preserve">3</text>
    </g>
    <g fill="rgb(255,102,102)" text-rendering="geometricPrecision" shape-rendering="geometricPrecision" transform="matrix(1,0,0,1,-113,-83)" stroke="rgb(255,102,102)">
      <rect x="457.1504" width="180" height="60" y="362.7938" clip-path="url(#clipPath2)" stroke="none"/>
    </g>
    <g text-rendering="geometricPrecision" stroke-miterlimit="1.45" shape-rendering="geometricPrecision" transform="matrix(1,0,0,1,-113,-83)" stroke-linecap="butt">
      <rect fill="none" x="457.1504" width="180" height="60" y="362.7938" clip-path="url(#clipPath2)"/>
      <text x="502.455" font-size="24px" y="387.5204" clip-path="url(#clipPath2)" font-family="sans-serif" stroke="none" xml:space="preserve">Persona</text>
      <text x="497.205" font-size="24px" y="416.9228" clip-path="url(#clipPath2)" font-family="sans-serif" stroke="none" xml:space="preserve">'vale' : 20</text>
      <path fill="none" stroke-dasharray="12,4" d="M285.3954 148.1105 L286.5185 153.1481 L288.0596 161.0823 L289.375 169.2812 L290.4196 177.7979 L291.1481 186.6852 L291.5156 195.9961 L291.4769 205.7836 L290.9867 216.1006 L290 227 L288.4867 238.5172 L286.4768 250.6169 L284.0156 263.2461 L281.1481 276.3519 L277.9196 289.8812 L274.375 303.7812 L270.5596 317.999 L266.5185 332.4815 L262.2969 347.1758 L257.9398 362.0289 L254.5508 373.4282 L254.5221 373.524" stroke-width="2" clip-path="url(#clipPath2)"/>
      <path stroke-dasharray="12,4" d="M250.9807 385.3815 L261.3118 374.3777 L248.3764 370.5144 Z" stroke-width="2" clip-path="url(#clipPath2)" stroke="none"/>
      <path fill="none" stroke-dasharray="12,4" d="M575.3621 148.1376 L574.575 149.9819 L572.5309 153.4938 L569.9219 156.8687 L566.6775 160.0895 L562.7271 163.139 L558 166 L552.4604 168.679 L546.2114 171.2762 L539.3906 173.9156 L532.1358 176.721 L524.5847 179.8162 L516.875 183.325 L509.1445 187.3713 L501.5309 192.079 L494.1719 197.5719 L487.2053 203.9738 L480.7687 211.4085 L475 220 L470.0027 229.8336 L465.7438 240.841 L462.1562 252.9156 L459.1729 265.9506 L456.7265 279.8393 L454.75 294.475 L453.1763 309.751 L451.9383 325.5605 L450.9688 341.7969 L450.2006 358.3534 L449.6492 372.941 L449.6459 373.0409" stroke-width="2" clip-path="url(#clipPath2)"/>
      <path stroke-dasharray="12,4" d="M449.2213 385.4086 L456.4305 372.1482 L442.9385 371.685 Z" stroke-width="2" clip-path="url(#clipPath2)" stroke="none"/>
      <path fill="none" stroke-dasharray="12,4" d="M426.9436 148.1159 L426.9457 149.7506 L427.5501 155.9035 L428.9 161.7 L431.1443 167.0687 L434.4321 171.9383 L438.9125 176.2375 L444.7346 179.8951 L452.0474 182.8397 L461 185 L471.6665 186.3471 L483.821 187.0216 L497.1625 187.2063 L511.3901 187.084 L526.2029 186.8376 L541.3 186.65 L556.3804 186.7041 L571.1432 187.1827 L585.2875 188.2688 L598.5123 190.1451 L610.5168 192.9945 L621 197 L629.7365 202.2953 L636.8025 208.8179 L642.35 216.4563 L646.5309 225.0988 L649.4969 234.6339 L651.4 244.95 L652.392 255.9356 L652.6247 267.479 L652.25 279.4688 L651.4197 291.7932 L650.8583 298.0056 L650.8482 298.1051" stroke-width="2" clip-path="url(#clipPath2)"/>
      <path stroke-dasharray="12,4" d="M649.6686 310.4238 L657.6747 297.6287 L644.2362 296.3418 Z" stroke-width="2" clip-path="url(#clipPath2)" stroke="none"/>
      <path fill="none" d="M757.1177 316.0631 L759.162 315.9433 L767.7344 315.543 L776.2963 315.2963 L784.8443 315.2545 L793.375 315.4688 L801.8848 315.9903 L810.3704 316.8704 L818.8281 318.1602 L827.2546 319.9109 L835.6464 322.1738 L844 325 L852.3131 328.4238 L860.588 332.4109 L868.8281 336.9102 L877.037 341.8704 L885.2181 347.2403 L893.375 352.9688 L901.511 359.0045 L909.6296 365.2963 L916.4962 370.8004 L916.5734 370.864" stroke-width="3" clip-path="url(#clipPath2)"/>
      <path d="M927.2012 379.5882 L920.3658 364.2739 L910.8485 375.8679 Z" stroke-width="3" clip-path="url(#clipPath2)" stroke="none"/>
      <path fill="none" d="M942.1504 407.9833 L942.1504 439.4227" stroke-width="3" clip-path="url(#clipPath2)"/>
      <path d="M942.1504 453.1727 L949.6504 438.1727 L934.6504 438.1727 Z" stroke-width="3" clip-path="url(#clipPath2)" stroke="none"/>
    </g>
  </g>
</svg>
