<?xml version="1.0" encoding="UTF-8"?><svg xmlns="http://www.w3.org/2000/svg" xmlns:xlink="http://www.w3.org/1999/xlink" fill-opacity="1" color-rendering="auto" color-interpolation="auto" text-rendering="auto" stroke="black" stroke-linecap="square" width="970" stroke-miterlimit="10" shape-rendering="auto" stroke-opacity="1" fill="black" stroke-dasharray="none" font-weight="normal" stroke-width="1" height="439" font-family="'Dialog'" font-style="normal" stroke-linejoin="miter" font-size="12px" stroke-dashoffset="0" image-rendering="auto">
  <!--Generated by ySVG 2.5-->
  <defs id="genericDefs"/>
  <g>
    <defs id="defs1">
      <clipPath clipPathUnits="userSpaceOnUse" id="clipPath1">
        <path d="M0 0 L970 0 L970 439 L0 439 L0 0 Z"/>
      </clipPath>
      <clipPath clipPathUnits="userSpaceOnUse" id="clipPath2">
        <path d="M62 32 L1032 32 L1032 471 L62 471 L62 32 Z"/>
      </clipPath>
    </defs>
    <g text-rendering="geometricPrecision" stroke-miterlimit="1.45" shape-rendering="geometricPrecision" transform="matrix(1,0,0,1,-62,-32)" stroke-linecap="butt">
      <rect fill="none" x="191.5845" width="200" height="75" y="304.7093" clip-path="url(#clipPath2)"/>
    </g>
    <g text-rendering="geometricPrecision" stroke-miterlimit="1.45" shape-rendering="geometricPrecision" transform="matrix(1,0,0,1,-62,-32)" stroke-linecap="butt">
      <rect fill="none" x="191.5845" width="200" height="75" y="229.7093" clip-path="url(#clipPath2)"/>
      <rect fill="none" x="391.5845" width="200" height="75" y="229.7093" clip-path="url(#clipPath2)"/>
      <rect fill="none" x="591.5845" width="200" height="75" y="229.7093" clip-path="url(#clipPath2)"/>
      <rect fill="none" x="791.5845" width="200" height="75" y="229.7093" clip-path="url(#clipPath2)"/>
      <rect fill="none" x="391.5845" width="200" height="75" y="304.8987" clip-path="url(#clipPath2)"/>
      <rect fill="none" x="591.5845" width="200" height="75" y="304.8987" clip-path="url(#clipPath2)"/>
      <rect fill="none" x="791.5845" width="200" height="75" y="304.8987" clip-path="url(#clipPath2)"/>
      <rect fill="none" x="191.5845" width="200" height="75" y="380.0881" clip-path="url(#clipPath2)"/>
      <rect fill="none" x="391.5845" width="200" height="75" y="380.0881" clip-path="url(#clipPath2)"/>
      <rect fill="none" x="591.5845" width="200" height="75" y="380.0881" clip-path="url(#clipPath2)"/>
      <rect fill="none" x="791.5845" width="200" height="75" y="380.0881" clip-path="url(#clipPath2)"/>
      <rect fill="none" x="191.5845" width="75" height="50" y="47.5282" clip-path="url(#clipPath2)"/>
      <text x="214.4067" font-size="24px" y="81.9559" clip-path="url(#clipPath2)" font-family="sans-serif" stroke="none" xml:space="preserve">P1</text>
      <rect fill="none" x="266.5845" width="75" height="50" y="47.5282" clip-path="url(#clipPath2)"/>
      <rect fill="none" x="341.5845" width="75" height="50" y="47.5282" clip-path="url(#clipPath2)"/>
      <rect fill="none" x="416.5845" width="75" height="50" y="47.5282" clip-path="url(#clipPath2)"/>
      <rect fill="none" x="491.5845" width="75" height="50" y="47.5282" clip-path="url(#clipPath2)"/>
      <rect fill="none" x="566.5845" width="75" height="50" y="47.5282" clip-path="url(#clipPath2)"/>
      <rect fill="none" x="641.5845" width="75" height="50" y="47.5282" clip-path="url(#clipPath2)"/>
      <rect fill="none" x="716.5845" width="75" height="50" y="47.5282" clip-path="url(#clipPath2)"/>
      <rect fill="none" x="791.5845" width="75" height="50" y="47.5282" clip-path="url(#clipPath2)"/>
      <rect fill="none" x="866.5845" width="75" height="50" y="47.5282" clip-path="url(#clipPath2)"/>
      <rect fill="none" x="941.5845" width="75" height="50" y="47.5282" clip-path="url(#clipPath2)"/>
    </g>
    <g fill="rgb(255,255,153)" text-rendering="geometricPrecision" shape-rendering="geometricPrecision" transform="matrix(1,0,0,1,-62,-32)" stroke="rgb(255,255,153)">
      <rect x="77.522" width="114.0625" height="50" y="47.5282" clip-path="url(#clipPath2)" stroke="none"/>
    </g>
    <g text-rendering="geometricPrecision" stroke-miterlimit="1.45" shape-rendering="geometricPrecision" transform="matrix(1,0,0,1,-62,-32)" stroke-linecap="butt">
      <rect fill="none" x="77.522" width="114.0625" height="50" y="47.5282" clip-path="url(#clipPath2)"/>
      <text x="84.5259" font-size="24px" y="81.9559" clip-path="url(#clipPath2)" font-family="sans-serif" stroke="none" xml:space="preserve">Variables</text>
    </g>
    <g fill="rgb(255,255,153)" text-rendering="geometricPrecision" shape-rendering="geometricPrecision" transform="matrix(1,0,0,1,-62,-32)" stroke="rgb(255,255,153)">
      <rect x="77.522" width="114.0625" height="50" y="229.7093" clip-path="url(#clipPath2)" stroke="none"/>
    </g>
    <g text-rendering="geometricPrecision" stroke-miterlimit="1.45" shape-rendering="geometricPrecision" transform="matrix(1,0,0,1,-62,-32)" stroke-linecap="butt">
      <rect fill="none" x="77.522" width="114.0625" height="50" y="229.7093" clip-path="url(#clipPath2)"/>
      <text x="87.8774" font-size="24px" y="264.137" clip-path="url(#clipPath2)" font-family="sans-serif" stroke="none" xml:space="preserve">Memoria</text>
    </g>
    <g fill="rgb(204,255,204)" text-rendering="geometricPrecision" shape-rendering="geometricPrecision" transform="matrix(1,0,0,1,-62,-32)" stroke="rgb(204,255,204)">
      <rect x="406.5845" width="180" height="60" y="237.2093" clip-path="url(#clipPath2)" stroke="none"/>
    </g>
    <g text-rendering="geometricPrecision" stroke-miterlimit="1.45" shape-rendering="geometricPrecision" transform="matrix(1,0,0,1,-62,-32)" stroke-linecap="butt">
      <rect fill="none" x="406.5845" width="180" height="60" y="237.2093" clip-path="url(#clipPath2)"/>
      <text x="409.1978" font-size="24px" y="261.9359" clip-path="url(#clipPath2)" font-family="sans-serif" stroke="none" xml:space="preserve">PersonaMutable</text>
      <text x="446.6392" font-size="24px" y="291.3382" clip-path="url(#clipPath2)" font-family="sans-serif" stroke="none" xml:space="preserve">'vale' : 20</text>
      <path fill="none" stroke-dasharray="12,4" d="M226.83 97.4983 L226.6406 100.4375 L226.3802 109.3852 L226.5708 117.8773 L227.325 125.8 L228.7556 133.0394 L230.9753 139.4815 L234.0969 145.0125 L238.233 149.5185 L243.4965 152.8857 L250 155 L257.8008 155.8089 L266.7346 155.5046 L276.5812 154.3406 L287.121 152.5704 L298.1339 150.4473 L309.4 148.225 L320.6995 146.1568 L331.8123 144.4963 L342.5187 143.4969 L352.5988 143.412 L361.8325 144.4953 L370 147 L376.9359 151.1142 L382.6929 156.7639 L387.3781 163.8094 L391.0988 172.1111 L393.962 181.5295 L396.075 191.925 L397.545 203.158 L398.479 215.0889 L398.9844 227.5781 L399.1682 240.4861 L399.1524 247.3112 L399.1514 247.4111" stroke-width="2" clip-path="url(#clipPath2)"/>
      <path stroke-dasharray="12,4" d="M399.075 259.7859 L405.9082 246.3279 L392.4084 246.2445 Z" stroke-width="2" clip-path="url(#clipPath2)" stroke="none"/>
    </g>
  </g>
</svg>
