<?xml version="1.0" encoding="UTF-8"?><svg xmlns="http://www.w3.org/2000/svg" xmlns:xlink="http://www.w3.org/1999/xlink" fill-opacity="1" color-rendering="auto" color-interpolation="auto" text-rendering="auto" stroke="black" stroke-linecap="square" width="970" stroke-miterlimit="10" shape-rendering="auto" stroke-opacity="1" fill="black" stroke-dasharray="none" font-weight="normal" stroke-width="1" height="439" font-family="'Dialog'" font-style="normal" stroke-linejoin="miter" font-size="12px" stroke-dashoffset="0" image-rendering="auto">
  <!--Generated by ySVG 2.5-->
  <defs id="genericDefs"/>
  <g>
    <defs id="defs1">
      <clipPath clipPathUnits="userSpaceOnUse" id="clipPath1">
        <path d="M0 0 L970 0 L970 439 L0 439 L0 0 Z"/>
      </clipPath>
      <clipPath clipPathUnits="userSpaceOnUse" id="clipPath2">
        <path d="M188 158 L1158 158 L1158 597 L188 597 L188 158 Z"/>
      </clipPath>
    </defs>
    <g text-rendering="geometricPrecision" stroke-miterlimit="1.45" shape-rendering="geometricPrecision" transform="matrix(1,0,0,1,-188,-158)" stroke-linecap="butt">
      <rect fill="none" x="317.7655" width="200" height="75" y="431.0831" clip-path="url(#clipPath2)"/>
    </g>
    <g font-size="24px" stroke-linecap="butt" transform="matrix(1,0,0,1,-188,-158)" text-rendering="geometricPrecision" font-family="sans-serif" shape-rendering="geometricPrecision" stroke-miterlimit="1.45">
      <text x="411.0917" xml:space="preserve" y="478.0108" clip-path="url(#clipPath2)" stroke="none">8</text>
      <rect fill="none" x="317.7655" width="200" height="75" y="356.0831" clip-path="url(#clipPath2)"/>
      <rect fill="none" x="517.7655" width="200" height="75" y="356.0831" clip-path="url(#clipPath2)"/>
      <rect fill="none" x="717.7655" width="200" height="75" y="356.0831" clip-path="url(#clipPath2)"/>
      <rect fill="none" x="917.7655" width="200" height="75" y="356.0831" clip-path="url(#clipPath2)"/>
      <rect fill="none" x="517.7655" width="200" height="75" y="431.2725" clip-path="url(#clipPath2)"/>
      <rect fill="none" x="717.7655" width="200" height="75" y="431.2725" clip-path="url(#clipPath2)"/>
      <rect fill="none" x="917.7655" width="200" height="75" y="431.2725" clip-path="url(#clipPath2)"/>
      <rect fill="none" x="317.7655" width="200" height="75" y="506.4619" clip-path="url(#clipPath2)"/>
      <rect fill="none" x="517.7655" width="200" height="75" y="506.4619" clip-path="url(#clipPath2)"/>
      <rect fill="none" x="717.7655" width="200" height="75" y="506.4619" clip-path="url(#clipPath2)"/>
      <rect fill="none" x="917.7655" width="200" height="75" y="506.4619" clip-path="url(#clipPath2)"/>
      <rect fill="none" x="317.7655" width="75" height="50" y="173.902" clip-path="url(#clipPath2)"/>
      <text x="346.5995" xml:space="preserve" y="208.3297" clip-path="url(#clipPath2)" stroke="none">N</text>
      <rect fill="none" x="392.7655" width="75" height="50" y="173.902" clip-path="url(#clipPath2)"/>
      <rect fill="none" x="467.7655" width="75" height="50" y="173.902" clip-path="url(#clipPath2)"/>
      <text x="491.9178" xml:space="preserve" y="208.3297" clip-path="url(#clipPath2)" stroke="none">L1</text>
      <rect fill="none" x="542.7655" width="75" height="50" y="173.902" clip-path="url(#clipPath2)"/>
      <rect fill="none" x="617.7655" width="75" height="50" y="173.902" clip-path="url(#clipPath2)"/>
      <text x="640.5878" xml:space="preserve" y="208.3297" clip-path="url(#clipPath2)" stroke="none">P1</text>
      <rect fill="none" x="692.7655" width="75" height="50" y="173.902" clip-path="url(#clipPath2)"/>
      <rect fill="none" x="767.7655" width="75" height="50" y="173.902" clip-path="url(#clipPath2)"/>
      <rect fill="none" x="842.7655" width="75" height="50" y="173.902" clip-path="url(#clipPath2)"/>
      <rect fill="none" x="917.7655" width="75" height="50" y="173.902" clip-path="url(#clipPath2)"/>
      <text x="940.5878" xml:space="preserve" y="208.3297" clip-path="url(#clipPath2)" stroke="none">P2</text>
      <rect fill="none" x="992.7655" width="75" height="50" y="173.902" clip-path="url(#clipPath2)"/>
      <rect fill="none" x="1067.7655" width="75" height="50" y="173.902" clip-path="url(#clipPath2)"/>
    </g>
    <g fill="rgb(255,255,153)" text-rendering="geometricPrecision" shape-rendering="geometricPrecision" transform="matrix(1,0,0,1,-188,-158)" stroke="rgb(255,255,153)">
      <rect x="203.703" width="114.0625" height="50" y="173.902" clip-path="url(#clipPath2)" stroke="none"/>
    </g>
    <g text-rendering="geometricPrecision" stroke-miterlimit="1.45" shape-rendering="geometricPrecision" transform="matrix(1,0,0,1,-188,-158)" stroke-linecap="butt">
      <rect fill="none" x="203.703" width="114.0625" height="50" y="173.902" clip-path="url(#clipPath2)"/>
      <text x="210.7069" font-size="24px" y="208.3297" clip-path="url(#clipPath2)" font-family="sans-serif" stroke="none" xml:space="preserve">Variables</text>
    </g>
    <g fill="rgb(255,255,153)" text-rendering="geometricPrecision" shape-rendering="geometricPrecision" transform="matrix(1,0,0,1,-188,-158)" stroke="rgb(255,255,153)">
      <rect x="203.703" width="114.0625" height="50" y="356.0831" clip-path="url(#clipPath2)" stroke="none"/>
    </g>
    <g text-rendering="geometricPrecision" stroke-miterlimit="1.45" shape-rendering="geometricPrecision" transform="matrix(1,0,0,1,-188,-158)" stroke-linecap="butt">
      <rect fill="none" x="203.703" width="114.0625" height="50" y="356.0831" clip-path="url(#clipPath2)"/>
      <text x="214.0585" font-size="24px" y="390.5108" clip-path="url(#clipPath2)" font-family="sans-serif" stroke="none" xml:space="preserve">Memoria</text>
    </g>
    <g transform="matrix(1,0,0,1,-188,-158)" fill-opacity="0.498" fill="rgb(255,102,0)" text-rendering="geometricPrecision" shape-rendering="geometricPrecision" stroke="rgb(255,102,0)" stroke-opacity="0.498">
      <rect x="802.7655" width="30" height="30" y="378.5831" clip-path="url(#clipPath2)" stroke="none"/>
    </g>
    <g text-rendering="geometricPrecision" stroke-miterlimit="1.45" shape-rendering="geometricPrecision" transform="matrix(1,0,0,1,-188,-158)" stroke-linecap="butt">
      <rect fill="none" x="802.7655" width="30" height="30" y="378.5831" clip-path="url(#clipPath2)"/>
      <text x="811.0917" font-size="24px" y="403.0108" clip-path="url(#clipPath2)" font-family="sans-serif" stroke="none" xml:space="preserve">1</text>
    </g>
    <g transform="matrix(1,0,0,1,-188,-158)" fill-opacity="0.498" fill="rgb(0,0,255)" text-rendering="geometricPrecision" shape-rendering="geometricPrecision" stroke="rgb(0,0,255)" stroke-opacity="0.498">
      <rect x="1002.7655" width="30" height="30" y="453.7725" clip-path="url(#clipPath2)" stroke="none"/>
    </g>
    <g text-rendering="geometricPrecision" stroke-miterlimit="1.45" shape-rendering="geometricPrecision" transform="matrix(1,0,0,1,-188,-158)" stroke-linecap="butt">
      <rect fill="none" x="1002.7655" width="30" height="30" y="453.7725" clip-path="url(#clipPath2)"/>
      <text x="1011.0917" font-size="24px" y="478.2003" clip-path="url(#clipPath2)" font-family="sans-serif" stroke="none" xml:space="preserve">2</text>
    </g>
    <g transform="matrix(1,0,0,1,-188,-158)" fill-opacity="0.498" fill="rgb(0,128,0)" text-rendering="geometricPrecision" shape-rendering="geometricPrecision" stroke="rgb(0,128,0)" stroke-opacity="0.498">
      <rect x="1002.7655" width="30" height="30" y="528.9619" clip-path="url(#clipPath2)" stroke="none"/>
    </g>
    <g text-rendering="geometricPrecision" stroke-miterlimit="1.45" shape-rendering="geometricPrecision" transform="matrix(1,0,0,1,-188,-158)" stroke-linecap="butt">
      <rect fill="none" x="1002.7655" width="30" height="30" y="528.9619" clip-path="url(#clipPath2)"/>
      <text x="1011.0917" font-size="24px" y="553.3896" clip-path="url(#clipPath2)" font-family="sans-serif" stroke="none" xml:space="preserve">3</text>
    </g>
    <g fill="rgb(204,255,204)" text-rendering="geometricPrecision" shape-rendering="geometricPrecision" transform="matrix(1,0,0,1,-188,-158)" stroke="rgb(204,255,204)">
      <rect x="532.7655" width="180" height="60" y="513.9619" clip-path="url(#clipPath2)" stroke="none"/>
    </g>
    <g text-rendering="geometricPrecision" stroke-miterlimit="1.45" shape-rendering="geometricPrecision" transform="matrix(1,0,0,1,-188,-158)" stroke-linecap="butt">
      <rect fill="none" x="532.7655" width="180" height="60" y="513.9619" clip-path="url(#clipPath2)"/>
      <text x="535.3788" font-size="24px" y="538.6885" clip-path="url(#clipPath2)" font-family="sans-serif" stroke="none" xml:space="preserve">PersonaMutable</text>
      <text x="569.4979" font-size="24px" y="568.0908" clip-path="url(#clipPath2)" font-family="sans-serif" stroke="none" xml:space="preserve">'cami' : 21</text>
    </g>
    <g fill="rgb(255,102,102)" text-rendering="geometricPrecision" shape-rendering="geometricPrecision" transform="matrix(1,0,0,1,-188,-158)" stroke="rgb(255,102,102)">
      <rect x="732.7655" width="180" height="60" y="513.9619" clip-path="url(#clipPath2)" stroke="none"/>
    </g>
    <g text-rendering="geometricPrecision" stroke-miterlimit="1.45" shape-rendering="geometricPrecision" transform="matrix(1,0,0,1,-188,-158)" stroke-linecap="butt">
      <rect fill="none" x="732.7655" width="180" height="60" y="513.9619" clip-path="url(#clipPath2)"/>
      <text x="778.0702" font-size="24px" y="538.6885" clip-path="url(#clipPath2)" font-family="sans-serif" stroke="none" xml:space="preserve">Persona</text>
      <text x="772.8202" font-size="24px" y="568.0908" clip-path="url(#clipPath2)" font-family="sans-serif" stroke="none" xml:space="preserve">'vale' : 21</text>
      <path fill="none" stroke-dasharray="12,4" d="M361.0764 223.8812 L362.037 228.5556 L363.4708 236.5851 L364.6875 244.875 L365.6438 253.4774 L366.2963 262.4445 L366.6016 271.8281 L366.5162 281.6805 L365.9968 292.0538 L365 303 L363.4968 314.5538 L361.5162 326.6805 L359.1016 339.3281 L356.2963 352.4445 L353.1438 365.9774 L349.6875 379.875 L345.9708 394.0851 L342.037 408.5556 L337.9297 423.2344 L333.6921 438.0695 L330.4767 449.1777 L330.4487 449.2737" stroke-width="2" clip-path="url(#clipPath2)"/>
      <path stroke-dasharray="12,4" d="M326.9939 461.1567 L337.2444 450.0779 L324.2812 446.309 Z" stroke-width="2" clip-path="url(#clipPath2)" stroke="none"/>
      <path fill="none" stroke-dasharray="12,4" d="M959.6589 223.8627 L958.9834 228.4473 L956.75 234.025 L952.8638 239.3235 L947.0494 244.2963 L939.0312 248.8969 L928.5339 253.0787 L915.282 256.7953 L899 260 L879.5479 262.6889 L857.3271 265.0278 L832.875 267.225 L806.7284 269.4889 L779.4244 272.0278 L751.5 275.05 L723.4923 278.7639 L695.9382 283.3778 L669.375 289.1 L644.3395 296.1389 L621.3688 304.7028 L601 315 L583.637 327.1772 L569.1512 341.1342 L557.2812 356.7094 L547.7654 373.7408 L540.3422 392.0665 L534.75 411.525 L530.7272 431.9543 L528.0123 453.1926 L526.3438 475.0781 L525.4599 497.449 L525.0991 520.1436 L525.0829 523.8843" stroke-width="2" clip-path="url(#clipPath2)"/>
      <path stroke-dasharray="12,4" d="M525.0292 536.2592 L531.8377 522.7886 L518.3378 522.73 Z" stroke-width="2" clip-path="url(#clipPath2)" stroke="none"/>
      <path fill="none" stroke-dasharray="12,4" d="M502.4473 223.9249 L502.4346 224.6519 L502.9269 230.7888 L504.175 236.575 L506.33 241.9404 L509.5432 246.8148 L513.9656 251.1281 L519.7485 254.8102 L527.0428 257.7909 L536 260 L546.6951 261.4093 L558.8997 262.1574 L572.3094 262.425 L586.6198 262.3926 L601.5264 262.2408 L616.725 262.15 L631.9111 262.3009 L646.7803 262.8741 L661.0281 264.05 L674.3503 266.0092 L686.4424 268.9324 L697 273 L705.795 278.3441 L712.9043 284.9028 L718.4813 292.5656 L722.679 301.2222 L725.6509 310.7621 L727.55 321.075 L728.5297 332.0504 L728.7432 343.5778 L728.3438 355.5469 L727.4846 367.8472 L726.9372 373.7271 L726.9268 373.8266" stroke-width="2" clip-path="url(#clipPath2)"/>
      <path stroke-dasharray="12,4" d="M725.7167 386.1422 L733.7545 373.367 L720.3192 372.0469 Z" stroke-width="2" clip-path="url(#clipPath2)" stroke="none"/>
      <path fill="none" stroke-dasharray="12,4" d="M644.4431 223.9049 L644.252 226.5049 L644.6561 230.0648 L645.8359 233.4199 L647.8885 236.5446 L650.9109 239.4131 L655 242 L660.2039 244.3029 L666.3747 246.4126 L673.3159 248.4434 L680.8307 250.5093 L688.7225 252.7245 L696.7946 255.2031 L704.8504 258.0594 L712.6931 261.4074 L720.1261 265.3613 L726.9527 270.0353 L732.9763 275.5435 L738 282 L741.879 289.482 L744.6749 297.9184 L746.5011 307.2012 L747.4709 317.2222 L747.6976 327.8735 L747.2946 339.0469 L746.3753 350.6343 L745.0529 362.5278 L743.4409 374.6191 L741.6525 386.8004 L739.801 398.9633 L738 411 L736.3415 422.8236 L734.833 434.4323 L733.4609 445.8457 L732.2117 457.0833 L731.0715 468.1647 L730.0268 479.1094 L729.064 489.9368 L728.1693 500.6667 L727.3292 511.3184 L726.5301 521.9114 L726.381 523.9501 L726.3738 524.0499" stroke-width="2" clip-path="url(#clipPath2)"/>
      <path stroke-dasharray="12,4" d="M725.4755 536.3922 L733.1876 523.4178 L719.7233 522.4379 Z" stroke-width="2" clip-path="url(#clipPath2)" stroke="none"/>
      <path fill="none" d="M832.788 391.7958 L834.162 391.6956 L842.7344 391.1758 L851.2963 390.8148 L859.8443 390.6656 L868.375 390.7812 L876.8848 391.2145 L885.3704 392.0185 L893.8281 393.2461 L902.2546 394.9502 L910.6464 397.1839 L919 400 L927.3131 403.4339 L935.588 407.4502 L943.8281 411.9961 L952.037 417.0185 L960.2181 422.4645 L968.375 428.2812 L976.511 434.4156 L984.6296 440.8148 L992.2163 447.0032 L992.2929 447.0674" stroke-width="3" clip-path="url(#clipPath2)"/>
      <path d="M1002.8324 455.8982 L996.1516 440.5158 L986.518 452.0134 Z" stroke-width="3" clip-path="url(#clipPath2)" stroke="none"/>
      <path fill="none" d="M1017.7655 483.7725 L1017.7655 515.2119" stroke-width="3" clip-path="url(#clipPath2)"/>
      <path d="M1017.7655 528.9619 L1025.2655 513.9619 L1010.2655 513.9619 Z" stroke-width="3" clip-path="url(#clipPath2)" stroke="none"/>
    </g>
  </g>
</svg>
