<?xml version="1.0" encoding="UTF-8"?><svg xmlns="http://www.w3.org/2000/svg" xmlns:xlink="http://www.w3.org/1999/xlink" fill-opacity="1" color-rendering="auto" color-interpolation="auto" text-rendering="auto" stroke="black" stroke-linecap="square" width="970" stroke-miterlimit="10" shape-rendering="auto" stroke-opacity="1" fill="black" stroke-dasharray="none" font-weight="normal" stroke-width="1" height="438" font-family="'Dialog'" font-style="normal" stroke-linejoin="miter" font-size="12px" stroke-dashoffset="0" image-rendering="auto">
  <!--Generated by ySVG 2.5-->
  <defs id="genericDefs"/>
  <g>
    <defs id="defs1">
      <clipPath clipPathUnits="userSpaceOnUse" id="clipPath1">
        <path d="M0 0 L970 0 L970 438 L0 438 L0 0 Z"/>
      </clipPath>
      <clipPath clipPathUnits="userSpaceOnUse" id="clipPath2">
        <path d="M113 83 L1083 83 L1083 521 L113 521 L113 83 Z"/>
      </clipPath>
    </defs>
    <g text-rendering="geometricPrecision" stroke-miterlimit="1.45" shape-rendering="geometricPrecision" transform="matrix(1,0,0,1,-113,-83)" stroke-linecap="butt">
      <rect fill="none" x="242.1504" width="200" height="75" y="355.2938" clip-path="url(#clipPath2)"/>
    </g>
    <g text-rendering="geometricPrecision" stroke-miterlimit="1.45" shape-rendering="geometricPrecision" transform="matrix(1,0,0,1,-113,-83)" stroke-linecap="butt">
      <rect fill="none" x="242.1504" width="200" height="75" y="280.2938" clip-path="url(#clipPath2)"/>
      <rect fill="none" x="442.1504" width="200" height="75" y="280.2938" clip-path="url(#clipPath2)"/>
      <rect fill="none" x="642.1504" width="200" height="75" y="280.2938" clip-path="url(#clipPath2)"/>
      <rect fill="none" x="842.1504" width="200" height="75" y="280.2938" clip-path="url(#clipPath2)"/>
      <rect fill="none" x="442.1504" width="200" height="75" y="355.4833" clip-path="url(#clipPath2)"/>
      <rect fill="none" x="642.1504" width="200" height="75" y="355.4833" clip-path="url(#clipPath2)"/>
      <rect fill="none" x="842.1504" width="200" height="75" y="355.4833" clip-path="url(#clipPath2)"/>
      <rect fill="none" x="242.1504" width="200" height="75" y="430.6727" clip-path="url(#clipPath2)"/>
      <rect fill="none" x="442.1504" width="200" height="75" y="430.6727" clip-path="url(#clipPath2)"/>
      <rect fill="none" x="642.1504" width="200" height="75" y="430.6727" clip-path="url(#clipPath2)"/>
      <rect fill="none" x="842.1504" width="200" height="75" y="430.6727" clip-path="url(#clipPath2)"/>
      <rect fill="none" x="242.1504" width="75" height="50" y="98.1127" clip-path="url(#clipPath2)"/>
      <text x="264.9726" font-size="24px" y="132.5405" clip-path="url(#clipPath2)" font-family="sans-serif" stroke="none" xml:space="preserve">P1</text>
      <rect fill="none" x="317.1504" width="75" height="50" y="98.1127" clip-path="url(#clipPath2)"/>
      <rect fill="none" x="392.1504" width="75" height="50" y="98.1127" clip-path="url(#clipPath2)"/>
      <rect fill="none" x="467.1504" width="75" height="50" y="98.1127" clip-path="url(#clipPath2)"/>
      <rect fill="none" x="542.1504" width="75" height="50" y="98.1127" clip-path="url(#clipPath2)"/>
      <rect fill="none" x="617.1504" width="75" height="50" y="98.1127" clip-path="url(#clipPath2)"/>
      <rect fill="none" x="692.1504" width="75" height="50" y="98.1127" clip-path="url(#clipPath2)"/>
      <text x="714.9727" font-size="24px" y="132.5405" clip-path="url(#clipPath2)" font-family="sans-serif" stroke="none" xml:space="preserve">P2</text>
      <rect fill="none" x="767.1504" width="75" height="50" y="98.1127" clip-path="url(#clipPath2)"/>
      <rect fill="none" x="842.1504" width="75" height="50" y="98.1127" clip-path="url(#clipPath2)"/>
      <rect fill="none" x="917.1504" width="75" height="50" y="98.1127" clip-path="url(#clipPath2)"/>
      <rect fill="none" x="992.1504" width="75" height="50" y="98.1127" clip-path="url(#clipPath2)"/>
    </g>
    <g fill="rgb(255,255,153)" text-rendering="geometricPrecision" shape-rendering="geometricPrecision" transform="matrix(1,0,0,1,-113,-83)" stroke="rgb(255,255,153)">
      <rect x="128.0879" width="114.0625" height="50" y="98.1127" clip-path="url(#clipPath2)" stroke="none"/>
    </g>
    <g text-rendering="geometricPrecision" stroke-miterlimit="1.45" shape-rendering="geometricPrecision" transform="matrix(1,0,0,1,-113,-83)" stroke-linecap="butt">
      <rect fill="none" x="128.0879" width="114.0625" height="50" y="98.1127" clip-path="url(#clipPath2)"/>
      <text x="135.0918" font-size="24px" y="132.5405" clip-path="url(#clipPath2)" font-family="sans-serif" stroke="none" xml:space="preserve">Variables</text>
    </g>
    <g fill="rgb(255,255,153)" text-rendering="geometricPrecision" shape-rendering="geometricPrecision" transform="matrix(1,0,0,1,-113,-83)" stroke="rgb(255,255,153)">
      <rect x="128.0879" width="114.0625" height="50" y="280.2938" clip-path="url(#clipPath2)" stroke="none"/>
    </g>
    <g text-rendering="geometricPrecision" stroke-miterlimit="1.45" shape-rendering="geometricPrecision" transform="matrix(1,0,0,1,-113,-83)" stroke-linecap="butt">
      <rect fill="none" x="128.0879" width="114.0625" height="50" y="280.2938" clip-path="url(#clipPath2)"/>
      <text x="138.4433" font-size="24px" y="314.7216" clip-path="url(#clipPath2)" font-family="sans-serif" stroke="none" xml:space="preserve">Memoria</text>
    </g>
    <g fill="rgb(204,255,204)" text-rendering="geometricPrecision" shape-rendering="geometricPrecision" transform="matrix(1,0,0,1,-113,-83)" stroke="rgb(204,255,204)">
      <rect x="457.1504" width="180" height="60" y="362.7938" clip-path="url(#clipPath2)" stroke="none"/>
    </g>
    <g text-rendering="geometricPrecision" stroke-miterlimit="1.45" shape-rendering="geometricPrecision" transform="matrix(1,0,0,1,-113,-83)" stroke-linecap="butt">
      <rect fill="none" x="457.1504" width="180" height="60" y="362.7938" clip-path="url(#clipPath2)"/>
      <text x="459.7636" font-size="24px" y="387.5204" clip-path="url(#clipPath2)" font-family="sans-serif" stroke="none" xml:space="preserve">PersonaMutable</text>
      <text x="497.205" font-size="24px" y="416.9228" clip-path="url(#clipPath2)" font-family="sans-serif" stroke="none" xml:space="preserve">'vale' : 20</text>
    </g>
    <g fill="rgb(153,204,255)" text-rendering="geometricPrecision" shape-rendering="geometricPrecision" transform="matrix(1,0,0,1,-113,-83)" stroke="rgb(153,204,255)">
      <rect x="857.1504" width="180" height="60" y="287.7938" clip-path="url(#clipPath2)" stroke="none"/>
    </g>
    <g text-rendering="geometricPrecision" stroke-miterlimit="1.45" shape-rendering="geometricPrecision" transform="matrix(1,0,0,1,-113,-83)" stroke-linecap="butt">
      <rect fill="none" x="857.1504" width="180" height="60" y="287.7938" clip-path="url(#clipPath2)"/>
      <text x="859.7637" font-size="24px" y="312.5204" clip-path="url(#clipPath2)" font-family="sans-serif" stroke="none" xml:space="preserve">PersonaMutable</text>
      <text x="897.2051" font-size="24px" y="341.9228" clip-path="url(#clipPath2)" font-family="sans-serif" stroke="none" xml:space="preserve">'vale' : 20</text>
      <path fill="none" stroke-dasharray="12,4" d="M277.1703 148.1098 L276.9375 152.5938 L276.7728 161.8469 L277.0563 170.576 L277.9 178.65 L279.4159 185.9379 L281.7161 192.3086 L284.9125 197.6313 L289.1173 201.7747 L294.4424 204.6079 L301 206 L308.8467 205.8982 L317.8179 204.5633 L327.6938 202.3344 L338.2543 199.5506 L349.2797 196.5511 L360.55 193.675 L371.8453 191.2614 L382.9457 189.6494 L393.6313 189.1781 L403.6821 190.1867 L412.8783 193.0143 L421 198 L427.8819 205.3917 L433.5771 215.0725 L438.1938 226.8344 L441.8395 240.4691 L444.6223 255.7687 L446.65 272.525 L448.0305 290.5299 L448.8716 309.5753 L449.2812 329.4531 L449.3673 349.9552 L449.2376 370.8736 L449.2148 372.9" stroke-width="2" clip-path="url(#clipPath2)"/>
      <path stroke-dasharray="12,4" d="M449.0756 385.2742 L455.977 371.851 L442.4779 371.6992 Z" stroke-width="2" clip-path="url(#clipPath2)" stroke="none"/>
      <path fill="none" stroke-dasharray="12,4" d="M727.5982 148.0763 L727.816 153.352 L728.45 158.875 L729.559 164.0993 L731.2222 168.9753 L733.5187 173.4531 L736.5278 177.483 L740.3285 181.0152 L745 184 L750.5823 186.4176 L756.9583 188.3688 L763.9719 189.9844 L771.4667 191.3951 L779.2864 192.7317 L787.275 194.125 L795.2761 195.7058 L803.1333 197.6049 L810.6906 199.9531 L817.7917 202.8812 L824.2802 206.5199 L830 211 L834.8337 216.4171 L838.8195 222.7253 L842.0344 229.8438 L844.5555 237.6914 L846.4601 246.1871 L847.825 255.25 L848.7274 264.799 L849.2444 274.7531 L849.4531 285.0312 L849.4305 295.5525 L849.3911 297.9416 L849.3887 298.0415" stroke-width="2" clip-path="url(#clipPath2)"/>
      <path stroke-dasharray="12,4" d="M849.1558 310.4143 L856.1586 297.0438 L842.661 296.7897 Z" stroke-width="2" clip-path="url(#clipPath2)" stroke="none"/>
    </g>
  </g>
</svg>
