<?xml version="1.0" encoding="UTF-8"?><svg xmlns="http://www.w3.org/2000/svg" xmlns:xlink="http://www.w3.org/1999/xlink" fill-opacity="1" color-rendering="auto" color-interpolation="auto" text-rendering="auto" stroke="black" stroke-linecap="square" width="970" stroke-miterlimit="10" shape-rendering="auto" stroke-opacity="1" fill="black" stroke-dasharray="none" font-weight="normal" stroke-width="1" height="438" font-family="'Dialog'" font-style="normal" stroke-linejoin="miter" font-size="12px" stroke-dashoffset="0" image-rendering="auto">
  <!--Generated by ySVG 2.6-->
  <defs id="genericDefs"/>
  <g>
    <defs id="defs1">
      <clipPath clipPathUnits="userSpaceOnUse" id="clipPath1">
        <path d="M0 0 L970 0 L970 438 L0 438 L0 0 Z"/>
      </clipPath>
      <clipPath clipPathUnits="userSpaceOnUse" id="clipPath2">
        <path d="M113 83 L1083 83 L1083 521 L113 521 L113 83 Z"/>
      </clipPath>
    </defs>
    <g text-rendering="geometricPrecision" stroke-miterlimit="1.45" shape-rendering="geometricPrecision" transform="matrix(1,0,0,1,-113,-83)" stroke-linecap="butt">
      <rect fill="none" x="242.1504" width="200" height="75" y="355.2938" clip-path="url(#clipPath2)"/>
    </g>
    <g text-rendering="geometricPrecision" stroke-miterlimit="1.45" shape-rendering="geometricPrecision" transform="matrix(1,0,0,1,-113,-83)" stroke-linecap="butt">
      <rect fill="none" x="242.1504" width="200" height="75" y="280.2938" clip-path="url(#clipPath2)"/>
      <rect fill="none" x="442.1504" width="200" height="75" y="280.2938" clip-path="url(#clipPath2)"/>
      <rect fill="none" x="642.1504" width="200" height="75" y="280.2938" clip-path="url(#clipPath2)"/>
      <rect fill="none" x="842.1504" width="200" height="75" y="280.2938" clip-path="url(#clipPath2)"/>
      <rect fill="none" x="442.1504" width="200" height="75" y="355.4833" clip-path="url(#clipPath2)"/>
      <text x="528.8027" font-size="24px" y="402.411" clip-path="url(#clipPath2)" font-family="sans-serif" stroke="none" xml:space="preserve">12</text>
      <rect fill="none" x="642.1504" width="200" height="75" y="355.4833" clip-path="url(#clipPath2)"/>
      <rect fill="none" x="842.1504" width="200" height="75" y="355.4833" clip-path="url(#clipPath2)"/>
      <rect fill="none" x="242.1504" width="200" height="75" y="430.6727" clip-path="url(#clipPath2)"/>
      <rect fill="none" x="442.1504" width="200" height="75" y="430.6727" clip-path="url(#clipPath2)"/>
      <rect fill="none" x="642.1504" width="200" height="75" y="430.6727" clip-path="url(#clipPath2)"/>
      <text x="735.4766" font-size="24px" y="477.6004" clip-path="url(#clipPath2)" font-family="sans-serif" stroke="none" xml:space="preserve">8</text>
      <rect fill="none" x="842.1504" width="200" height="75" y="430.6727" clip-path="url(#clipPath2)"/>
      <rect fill="none" x="242.1504" width="75" height="50" y="98.1127" clip-path="url(#clipPath2)"/>
      <text x="271.6465" font-size="24px" y="132.5405" clip-path="url(#clipPath2)" font-family="sans-serif" stroke="none" xml:space="preserve">A</text>
      <rect fill="none" x="317.1504" width="75" height="50" y="98.1127" clip-path="url(#clipPath2)"/>
      <rect fill="none" x="392.1504" width="75" height="50" y="98.1127" clip-path="url(#clipPath2)"/>
      <rect fill="none" x="467.1504" width="75" height="50" y="98.1127" clip-path="url(#clipPath2)"/>
      <rect fill="none" x="542.1504" width="75" height="50" y="98.1127" clip-path="url(#clipPath2)"/>
      <text x="571.6465" font-size="24px" y="132.5405" clip-path="url(#clipPath2)" font-family="sans-serif" stroke="none" xml:space="preserve">B</text>
      <rect fill="none" x="617.1504" width="75" height="50" y="98.1127" clip-path="url(#clipPath2)"/>
      <rect fill="none" x="692.1504" width="75" height="50" y="98.1127" clip-path="url(#clipPath2)"/>
      <rect fill="none" x="767.1504" width="75" height="50" y="98.1127" clip-path="url(#clipPath2)"/>
      <rect fill="none" x="842.1504" width="75" height="50" y="98.1127" clip-path="url(#clipPath2)"/>
      <rect fill="none" x="917.1504" width="75" height="50" y="98.1127" clip-path="url(#clipPath2)"/>
      <rect fill="none" x="992.1504" width="75" height="50" y="98.1127" clip-path="url(#clipPath2)"/>
    </g>
    <g fill="rgb(255,255,153)" text-rendering="geometricPrecision" shape-rendering="geometricPrecision" transform="matrix(1,0,0,1,-113,-83)" stroke="rgb(255,255,153)">
      <rect x="128.0879" width="114.0625" height="50" y="98.1127" clip-path="url(#clipPath2)" stroke="none"/>
    </g>
    <g text-rendering="geometricPrecision" stroke-miterlimit="1.45" shape-rendering="geometricPrecision" transform="matrix(1,0,0,1,-113,-83)" stroke-linecap="butt">
      <rect fill="none" x="128.0879" width="114.0625" height="50" y="98.1127" clip-path="url(#clipPath2)"/>
      <text x="135.0918" font-size="24px" y="132.5405" clip-path="url(#clipPath2)" font-family="sans-serif" stroke="none" xml:space="preserve">Variables</text>
    </g>
    <g fill="rgb(255,255,153)" text-rendering="geometricPrecision" shape-rendering="geometricPrecision" transform="matrix(1,0,0,1,-113,-83)" stroke="rgb(255,255,153)">
      <rect x="128.0879" width="114.0625" height="50" y="280.2938" clip-path="url(#clipPath2)" stroke="none"/>
    </g>
    <g text-rendering="geometricPrecision" stroke-miterlimit="1.45" shape-rendering="geometricPrecision" transform="matrix(1,0,0,1,-113,-83)" stroke-linecap="butt">
      <rect fill="none" x="128.0879" width="114.0625" height="50" y="280.2938" clip-path="url(#clipPath2)"/>
      <text x="138.4433" font-size="24px" y="314.7216" clip-path="url(#clipPath2)" font-family="sans-serif" stroke="none" xml:space="preserve">Memoria</text>
      <path fill="none" stroke-dasharray="12,4" d="M271.857 148.1173 L270.8148 153.2963 L269.8102 161.2545 L269.5 169.4688 L270.0231 177.9903 L271.5185 186.8704 L274.125 196.1602 L277.9815 205.9109 L283.2269 216.1738 L290 227 L298.3935 238.4238 L308.3148 250.4109 L319.625 262.9102 L332.1852 275.8704 L345.8565 289.2403 L360.5 302.9688 L375.9768 317.0045 L392.1482 331.2963 L408.875 345.793 L426.0185 360.4433 L443.4398 375.196 L451.5386 382.0237" stroke-width="2" clip-path="url(#clipPath2)"/>
      <path stroke-dasharray="12,4" d="M461 390 L455.0292 376.1378 L446.3277 386.4593 Z" stroke-width="2" clip-path="url(#clipPath2)" stroke="none"/>
      <path fill="none" stroke-dasharray="12,4" d="M604.6948 148.1195 L619.5035 162.906 L648.8295 195.5636 L659.801 210.4796 L668.4484 225.1271 L674.8741 240.0115 L679.1808 255.6379 L681.4708 272.5115 L681.8469 291.1375 L680.4114 312.021 L677.267 335.6673 L666.2614 393.2687 L653.9988 448.4245" stroke-width="2" clip-path="url(#clipPath2)"/>
      <path stroke-dasharray="12,4" d="M651.3131 460.5045 L660.8321 448.7912 L647.6539 445.8613 Z" stroke-width="2" clip-path="url(#clipPath2)" stroke="none"/>
    </g>
  </g>
</svg>
