<?xml version="1.0" encoding="UTF-8"?><svg xmlns="http://www.w3.org/2000/svg" xmlns:xlink="http://www.w3.org/1999/xlink" fill-opacity="1" color-rendering="auto" color-interpolation="auto" text-rendering="auto" stroke="black" stroke-linecap="square" width="970" stroke-miterlimit="10" shape-rendering="auto" stroke-opacity="1" fill="black" stroke-dasharray="none" font-weight="normal" stroke-width="1" height="438" font-family="'Dialog'" font-style="normal" stroke-linejoin="miter" font-size="12px" stroke-dashoffset="0" image-rendering="auto">
  <!--Generated by ySVG 2.6-->
  <defs id="genericDefs"/>
  <g>
    <defs id="defs1">
      <clipPath clipPathUnits="userSpaceOnUse" id="clipPath1">
        <path d="M0 0 L970 0 L970 438 L0 438 L0 0 Z"/>
      </clipPath>
      <clipPath clipPathUnits="userSpaceOnUse" id="clipPath2">
        <path d="M88 58 L1058 58 L1058 496 L88 496 L88 58 Z"/>
      </clipPath>
    </defs>
    <g text-rendering="geometricPrecision" stroke-miterlimit="1.45" shape-rendering="geometricPrecision" transform="matrix(1,0,0,1,-88,-58)" stroke-linecap="butt">
      <rect fill="none" x="217.1064" width="200" height="75" y="330.2375" clip-path="url(#clipPath2)"/>
    </g>
    <g font-size="24px" stroke-linecap="butt" transform="matrix(1,0,0,1,-88,-58)" text-rendering="geometricPrecision" font-family="sans-serif" shape-rendering="geometricPrecision" stroke-miterlimit="1.45">
      <text x="310.4326" xml:space="preserve" y="377.1652" clip-path="url(#clipPath2)" stroke="none">8</text>
      <rect fill="none" x="217.1064" width="200" height="75" y="255.2375" clip-path="url(#clipPath2)"/>
      <rect fill="none" x="417.1064" width="200" height="75" y="255.2375" clip-path="url(#clipPath2)"/>
      <rect fill="none" x="617.1064" width="200" height="75" y="255.2375" clip-path="url(#clipPath2)"/>
      <rect fill="none" x="817.1064" width="200" height="75" y="255.2375" clip-path="url(#clipPath2)"/>
      <rect fill="none" x="417.1064" width="200" height="75" y="330.4269" clip-path="url(#clipPath2)"/>
      <text x="503.7588" xml:space="preserve" y="377.3546" clip-path="url(#clipPath2)" stroke="none">12</text>
      <rect fill="none" x="617.1064" width="200" height="75" y="330.4269" clip-path="url(#clipPath2)"/>
      <rect fill="none" x="817.1064" width="200" height="75" y="330.4269" clip-path="url(#clipPath2)"/>
      <rect fill="none" x="217.1064" width="200" height="75" y="405.6163" clip-path="url(#clipPath2)"/>
      <rect fill="none" x="417.1064" width="200" height="75" y="405.6163" clip-path="url(#clipPath2)"/>
      <rect fill="none" x="617.1064" width="200" height="75" y="405.6163" clip-path="url(#clipPath2)"/>
      <text x="710.4326" xml:space="preserve" y="452.544" clip-path="url(#clipPath2)" stroke="none">8</text>
      <rect fill="none" x="817.1064" width="200" height="75" y="405.6163" clip-path="url(#clipPath2)"/>
      <rect fill="none" x="217.1064" width="75" height="50" y="73.0564" clip-path="url(#clipPath2)"/>
      <text x="246.6025" xml:space="preserve" y="107.4841" clip-path="url(#clipPath2)" stroke="none">A</text>
      <rect fill="none" x="292.1064" width="75" height="50" y="73.0564" clip-path="url(#clipPath2)"/>
      <rect fill="none" x="367.1064" width="75" height="50" y="73.0564" clip-path="url(#clipPath2)"/>
      <rect fill="none" x="442.1064" width="75" height="50" y="73.0564" clip-path="url(#clipPath2)"/>
      <rect fill="none" x="517.1064" width="75" height="50" y="73.0564" clip-path="url(#clipPath2)"/>
      <text x="546.6025" xml:space="preserve" y="107.4841" clip-path="url(#clipPath2)" stroke="none">B</text>
      <rect fill="none" x="592.1064" width="75" height="50" y="73.0564" clip-path="url(#clipPath2)"/>
      <rect fill="none" x="667.1064" width="75" height="50" y="73.0564" clip-path="url(#clipPath2)"/>
      <rect fill="none" x="742.1064" width="75" height="50" y="73.0564" clip-path="url(#clipPath2)"/>
      <rect fill="none" x="817.1064" width="75" height="50" y="73.0564" clip-path="url(#clipPath2)"/>
      <rect fill="none" x="892.1064" width="75" height="50" y="73.0564" clip-path="url(#clipPath2)"/>
      <rect fill="none" x="967.1064" width="75" height="50" y="73.0564" clip-path="url(#clipPath2)"/>
    </g>
    <g fill="rgb(255,255,153)" text-rendering="geometricPrecision" shape-rendering="geometricPrecision" transform="matrix(1,0,0,1,-88,-58)" stroke="rgb(255,255,153)">
      <rect x="103.0439" width="114.0625" height="50" y="73.0564" clip-path="url(#clipPath2)" stroke="none"/>
    </g>
    <g text-rendering="geometricPrecision" stroke-miterlimit="1.45" shape-rendering="geometricPrecision" transform="matrix(1,0,0,1,-88,-58)" stroke-linecap="butt">
      <rect fill="none" x="103.0439" width="114.0625" height="50" y="73.0564" clip-path="url(#clipPath2)"/>
      <text x="110.0478" font-size="24px" y="107.4841" clip-path="url(#clipPath2)" font-family="sans-serif" stroke="none" xml:space="preserve">Variables</text>
    </g>
    <g fill="rgb(255,255,153)" text-rendering="geometricPrecision" shape-rendering="geometricPrecision" transform="matrix(1,0,0,1,-88,-58)" stroke="rgb(255,255,153)">
      <rect x="103.0439" width="114.0625" height="50" y="255.2375" clip-path="url(#clipPath2)" stroke="none"/>
    </g>
    <g text-rendering="geometricPrecision" stroke-miterlimit="1.45" shape-rendering="geometricPrecision" transform="matrix(1,0,0,1,-88,-58)" stroke-linecap="butt">
      <rect fill="none" x="103.0439" width="114.0625" height="50" y="255.2375" clip-path="url(#clipPath2)"/>
      <text x="113.3994" font-size="24px" y="289.6652" clip-path="url(#clipPath2)" font-family="sans-serif" stroke="none" xml:space="preserve">Memoria</text>
      <path fill="none" stroke-dasharray="12,4" d="M246.8692 123.0567 L245.8148 128.2963 L244.8102 136.2545 L244.5 144.4688 L245.0231 152.9903 L246.5185 161.8704 L249.125 171.1602 L252.9815 180.9109 L258.2269 191.1738 L265 202 L273.3935 213.4238 L283.3148 225.4109 L294.625 237.9102 L307.1852 250.8704 L320.8565 264.2403 L335.5 277.9688 L350.9768 292.0045 L367.1482 306.2963 L383.875 320.793 L401.0185 335.4433 L418.4398 350.196 L426.5386 357.0237" stroke-width="2" clip-path="url(#clipPath2)"/>
      <path stroke-dasharray="12,4" d="M436 365 L430.0292 351.1378 L421.3277 361.4593 Z" stroke-width="2" clip-path="url(#clipPath2)" stroke="none"/>
      <path fill="none" stroke-dasharray="12,4" d="M579.6509 123.0632 L594.4596 137.8496 L623.7855 170.5072 L634.7571 185.4232 L643.4045 200.0707 L649.8302 214.9551 L654.1368 230.5815 L656.4269 247.4551 L656.8029 266.0811 L655.3674 286.9646 L652.223 310.6109 L641.2174 368.2123 L628.9549 423.3681" stroke-width="2" clip-path="url(#clipPath2)"/>
      <path stroke-dasharray="12,4" d="M626.2692 435.4481 L635.7881 423.7348 L622.6099 420.8049 Z" stroke-width="2" clip-path="url(#clipPath2)" stroke="none"/>
    </g>
  </g>
</svg>
