<?xml version="1.0" encoding="UTF-8"?><svg xmlns="http://www.w3.org/2000/svg" xmlns:xlink="http://www.w3.org/1999/xlink" fill-opacity="1" color-rendering="auto" color-interpolation="auto" text-rendering="auto" stroke="black" stroke-linecap="square" width="970" stroke-miterlimit="10" shape-rendering="auto" stroke-opacity="1" fill="black" stroke-dasharray="none" font-weight="normal" stroke-width="1" height="439" font-family="'Dialog'" font-style="normal" stroke-linejoin="miter" font-size="12px" stroke-dashoffset="0" image-rendering="auto">
  <!--Generated by ySVG 2.5-->
  <defs id="genericDefs"/>
  <g>
    <defs id="defs1">
      <clipPath clipPathUnits="userSpaceOnUse" id="clipPath1">
        <path d="M0 0 L970 0 L970 439 L0 439 L0 0 Z"/>
      </clipPath>
      <clipPath clipPathUnits="userSpaceOnUse" id="clipPath2">
        <path d="M163 133 L1133 133 L1133 572 L163 572 L163 133 Z"/>
      </clipPath>
    </defs>
    <g text-rendering="geometricPrecision" stroke-miterlimit="1.45" shape-rendering="geometricPrecision" transform="matrix(1,0,0,1,-163,-133)" stroke-linecap="butt">
      <rect fill="none" x="292.414" width="200" height="75" y="405.6321" clip-path="url(#clipPath2)"/>
    </g>
    <g font-size="24px" stroke-linecap="butt" transform="matrix(1,0,0,1,-163,-133)" text-rendering="geometricPrecision" font-family="sans-serif" shape-rendering="geometricPrecision" stroke-miterlimit="1.45">
      <text x="385.7402" xml:space="preserve" y="452.5598" clip-path="url(#clipPath2)" stroke="none">8</text>
      <rect fill="none" x="292.414" width="200" height="75" y="330.6321" clip-path="url(#clipPath2)"/>
      <rect fill="none" x="492.414" width="200" height="75" y="330.6321" clip-path="url(#clipPath2)"/>
      <rect fill="none" x="692.414" width="200" height="75" y="330.6321" clip-path="url(#clipPath2)"/>
      <rect fill="none" x="892.414" width="200" height="75" y="330.6321" clip-path="url(#clipPath2)"/>
      <rect fill="none" x="492.414" width="200" height="75" y="405.8215" clip-path="url(#clipPath2)"/>
      <rect fill="none" x="692.414" width="200" height="75" y="405.8215" clip-path="url(#clipPath2)"/>
      <rect fill="none" x="892.414" width="200" height="75" y="405.8215" clip-path="url(#clipPath2)"/>
      <rect fill="none" x="292.414" width="200" height="75" y="481.0109" clip-path="url(#clipPath2)"/>
      <rect fill="none" x="492.414" width="200" height="75" y="481.0109" clip-path="url(#clipPath2)"/>
      <rect fill="none" x="692.414" width="200" height="75" y="481.0109" clip-path="url(#clipPath2)"/>
      <rect fill="none" x="892.414" width="200" height="75" y="481.0109" clip-path="url(#clipPath2)"/>
      <rect fill="none" x="292.414" width="75" height="50" y="148.451" clip-path="url(#clipPath2)"/>
      <text x="321.248" xml:space="preserve" y="182.8787" clip-path="url(#clipPath2)" stroke="none">N</text>
      <rect fill="none" x="367.414" width="75" height="50" y="148.451" clip-path="url(#clipPath2)"/>
      <rect fill="none" x="442.414" width="75" height="50" y="148.451" clip-path="url(#clipPath2)"/>
      <text x="466.5663" xml:space="preserve" y="182.8787" clip-path="url(#clipPath2)" stroke="none">L1</text>
      <rect fill="none" x="517.414" width="75" height="50" y="148.451" clip-path="url(#clipPath2)"/>
      <rect fill="none" x="592.414" width="75" height="50" y="148.451" clip-path="url(#clipPath2)"/>
      <text x="615.2363" xml:space="preserve" y="182.8787" clip-path="url(#clipPath2)" stroke="none">P1</text>
      <rect fill="none" x="667.414" width="75" height="50" y="148.451" clip-path="url(#clipPath2)"/>
      <rect fill="none" x="742.414" width="75" height="50" y="148.451" clip-path="url(#clipPath2)"/>
      <rect fill="none" x="817.414" width="75" height="50" y="148.451" clip-path="url(#clipPath2)"/>
      <rect fill="none" x="892.414" width="75" height="50" y="148.451" clip-path="url(#clipPath2)"/>
      <text x="915.2363" xml:space="preserve" y="182.8787" clip-path="url(#clipPath2)" stroke="none">P2</text>
      <rect fill="none" x="967.414" width="75" height="50" y="148.451" clip-path="url(#clipPath2)"/>
      <rect fill="none" x="1042.414" width="75" height="50" y="148.451" clip-path="url(#clipPath2)"/>
    </g>
    <g fill="rgb(255,255,153)" text-rendering="geometricPrecision" shape-rendering="geometricPrecision" transform="matrix(1,0,0,1,-163,-133)" stroke="rgb(255,255,153)">
      <rect x="178.3515" width="114.0625" height="50" y="148.451" clip-path="url(#clipPath2)" stroke="none"/>
    </g>
    <g text-rendering="geometricPrecision" stroke-miterlimit="1.45" shape-rendering="geometricPrecision" transform="matrix(1,0,0,1,-163,-133)" stroke-linecap="butt">
      <rect fill="none" x="178.3515" width="114.0625" height="50" y="148.451" clip-path="url(#clipPath2)"/>
      <text x="185.3554" font-size="24px" y="182.8787" clip-path="url(#clipPath2)" font-family="sans-serif" stroke="none" xml:space="preserve">Variables</text>
    </g>
    <g fill="rgb(255,255,153)" text-rendering="geometricPrecision" shape-rendering="geometricPrecision" transform="matrix(1,0,0,1,-163,-133)" stroke="rgb(255,255,153)">
      <rect x="178.3515" width="114.0625" height="50" y="330.6321" clip-path="url(#clipPath2)" stroke="none"/>
    </g>
    <g text-rendering="geometricPrecision" stroke-miterlimit="1.45" shape-rendering="geometricPrecision" transform="matrix(1,0,0,1,-163,-133)" stroke-linecap="butt">
      <rect fill="none" x="178.3515" width="114.0625" height="50" y="330.6321" clip-path="url(#clipPath2)"/>
      <text x="188.707" font-size="24px" y="365.0598" clip-path="url(#clipPath2)" font-family="sans-serif" stroke="none" xml:space="preserve">Memoria</text>
    </g>
    <g transform="matrix(1,0,0,1,-163,-133)" fill-opacity="0.498" fill="rgb(255,102,0)" text-rendering="geometricPrecision" shape-rendering="geometricPrecision" stroke="rgb(255,102,0)" stroke-opacity="0.498">
      <rect x="777.414" width="30" height="30" y="353.1321" clip-path="url(#clipPath2)" stroke="none"/>
    </g>
    <g text-rendering="geometricPrecision" stroke-miterlimit="1.45" shape-rendering="geometricPrecision" transform="matrix(1,0,0,1,-163,-133)" stroke-linecap="butt">
      <rect fill="none" x="777.414" width="30" height="30" y="353.1321" clip-path="url(#clipPath2)"/>
      <text x="785.7402" font-size="24px" y="377.5598" clip-path="url(#clipPath2)" font-family="sans-serif" stroke="none" xml:space="preserve">1</text>
    </g>
    <g transform="matrix(1,0,0,1,-163,-133)" fill-opacity="0.498" fill="rgb(0,0,255)" text-rendering="geometricPrecision" shape-rendering="geometricPrecision" stroke="rgb(0,0,255)" stroke-opacity="0.498">
      <rect x="977.414" width="30" height="30" y="428.3215" clip-path="url(#clipPath2)" stroke="none"/>
    </g>
    <g text-rendering="geometricPrecision" stroke-miterlimit="1.45" shape-rendering="geometricPrecision" transform="matrix(1,0,0,1,-163,-133)" stroke-linecap="butt">
      <rect fill="none" x="977.414" width="30" height="30" y="428.3215" clip-path="url(#clipPath2)"/>
      <text x="985.7402" font-size="24px" y="452.7492" clip-path="url(#clipPath2)" font-family="sans-serif" stroke="none" xml:space="preserve">2</text>
    </g>
    <g transform="matrix(1,0,0,1,-163,-133)" fill-opacity="0.498" fill="rgb(0,128,0)" text-rendering="geometricPrecision" shape-rendering="geometricPrecision" stroke="rgb(0,128,0)" stroke-opacity="0.498">
      <rect x="977.414" width="30" height="30" y="503.5109" clip-path="url(#clipPath2)" stroke="none"/>
    </g>
    <g text-rendering="geometricPrecision" stroke-miterlimit="1.45" shape-rendering="geometricPrecision" transform="matrix(1,0,0,1,-163,-133)" stroke-linecap="butt">
      <rect fill="none" x="977.414" width="30" height="30" y="503.5109" clip-path="url(#clipPath2)"/>
      <text x="985.7402" font-size="24px" y="527.9387" clip-path="url(#clipPath2)" font-family="sans-serif" stroke="none" xml:space="preserve">3</text>
    </g>
    <g fill="rgb(204,255,204)" text-rendering="geometricPrecision" shape-rendering="geometricPrecision" transform="matrix(1,0,0,1,-163,-133)" stroke="rgb(204,255,204)">
      <rect x="507.414" width="180" height="60" y="488.5109" clip-path="url(#clipPath2)" stroke="none"/>
    </g>
    <g text-rendering="geometricPrecision" stroke-miterlimit="1.45" shape-rendering="geometricPrecision" transform="matrix(1,0,0,1,-163,-133)" stroke-linecap="butt">
      <rect fill="none" x="507.414" width="180" height="60" y="488.5109" clip-path="url(#clipPath2)"/>
      <text x="510.0273" font-size="24px" y="513.2375" clip-path="url(#clipPath2)" font-family="sans-serif" stroke="none" xml:space="preserve">PersonaMutable</text>
      <text x="544.1464" font-size="24px" y="542.6398" clip-path="url(#clipPath2)" font-family="sans-serif" stroke="none" xml:space="preserve">'cami' : 20</text>
    </g>
    <g fill="rgb(255,102,102)" text-rendering="geometricPrecision" shape-rendering="geometricPrecision" transform="matrix(1,0,0,1,-163,-133)" stroke="rgb(255,102,102)">
      <rect x="707.414" width="180" height="60" y="488.5109" clip-path="url(#clipPath2)" stroke="none"/>
    </g>
    <g text-rendering="geometricPrecision" stroke-miterlimit="1.45" shape-rendering="geometricPrecision" transform="matrix(1,0,0,1,-163,-133)" stroke-linecap="butt">
      <rect fill="none" x="707.414" width="180" height="60" y="488.5109" clip-path="url(#clipPath2)"/>
      <text x="752.7187" font-size="24px" y="513.2375" clip-path="url(#clipPath2)" font-family="sans-serif" stroke="none" xml:space="preserve">Persona</text>
      <text x="747.4687" font-size="24px" y="542.6398" clip-path="url(#clipPath2)" font-family="sans-serif" stroke="none" xml:space="preserve">'vale' : 21</text>
      <path fill="none" stroke-dasharray="12,4" d="M335.3954 198.4535 L336.5185 203.5556 L338.0596 211.5851 L339.375 219.875 L340.4196 228.4774 L341.1481 237.4444 L341.5156 246.8281 L341.4769 256.6805 L340.9867 267.0538 L340 278 L338.4867 289.5538 L336.4768 301.6805 L334.0156 314.3281 L331.1481 327.4445 L327.9196 340.9774 L324.375 354.875 L320.5596 369.0851 L316.5185 383.5556 L312.2969 398.2344 L307.9398 413.0695 L304.7471 423.7943 L304.7184 423.8901" stroke-width="2" clip-path="url(#clipPath2)"/>
      <path stroke-dasharray="12,4" d="M301.1737 435.7466 L311.5078 424.7457 L298.5735 420.8788 Z" stroke-width="2" clip-path="url(#clipPath2)" stroke="none"/>
      <path fill="none" stroke-dasharray="12,4" d="M933.6589 198.4505 L932.9834 202.9618 L930.75 208.45 L926.8638 213.6632 L921.0494 218.5556 L913.0312 223.0813 L902.5339 227.1944 L889.282 230.8493 L873 234 L853.5479 236.6431 L831.3271 238.9444 L806.875 241.1125 L780.7284 243.3556 L753.4244 245.8819 L725.5 248.9 L697.4923 252.6181 L669.9382 257.2444 L643.375 262.9875 L618.3395 270.0555 L595.3688 278.657 L575 289 L557.637 301.2313 L543.1512 315.25 L531.2812 330.8937 L521.7654 348 L514.3422 366.4062 L508.75 385.95 L504.7272 406.4688 L502.0123 427.8 L500.3438 449.7812 L499.4599 472.25 L499.0992 495.0438 L499.0846 498.4065" stroke-width="2" clip-path="url(#clipPath2)"/>
      <path stroke-dasharray="12,4" d="M499.0312 510.7813 L505.8394 497.3106 L492.3395 497.2523 Z" stroke-width="2" clip-path="url(#clipPath2)" stroke="none"/>
      <path fill="none" stroke-dasharray="12,4" d="M476.8306 198.4366 L476.8271 199.7704 L477.4124 205.9265 L478.75 211.725 L480.9904 217.0943 L484.2839 221.963 L488.7812 226.2594 L494.6327 229.912 L501.9888 232.8494 L511 235 L521.7409 236.3348 L533.983 236.9954 L547.4219 237.1656 L561.7531 237.0296 L576.6722 236.7714 L591.875 236.575 L607.0569 236.6244 L621.9136 237.1037 L636.1406 238.1969 L649.4337 240.088 L661.4883 242.961 L672 247 L680.7409 252.3396 L687.7886 258.9167 L693.2969 266.6187 L697.4197 275.3333 L700.3112 284.9479 L702.125 295.35 L703.0153 306.4271 L703.1358 318.0667 L702.6406 330.1562 L701.6837 342.5833 L701.1083 348.3379 L701.0973 348.4373" stroke-width="2" clip-path="url(#clipPath2)"/>
      <path stroke-dasharray="12,4" d="M699.807 360.7449 L707.9278 348.0222 L694.5013 346.6147 Z" stroke-width="2" clip-path="url(#clipPath2)" stroke="none"/>
      <path fill="none" stroke-dasharray="12,4" d="M618.2999 198.4352 L618.1284 200.6879 L618.537 204.1733 L619.7305 207.4707 L621.8067 210.5566 L624.8638 213.4076 L629 216 L634.2637 218.3328 L640.5058 220.4941 L647.5273 222.5946 L655.1296 224.7447 L663.1138 227.0551 L671.2812 229.6362 L679.433 232.5986 L687.3704 236.0529 L694.8945 240.1096 L701.8067 244.8794 L707.9081 250.4727 L713 257 L716.9356 264.5359 L719.7766 273.0102 L721.6367 282.3167 L722.6296 292.3492 L722.8691 303.0015 L722.4688 314.1674 L721.5424 325.7407 L720.2037 337.6151 L718.5664 349.6844 L716.7442 361.8425 L714.8508 373.9831 L713 386 L711.2843 397.8079 L709.7118 409.405 L708.2695 420.8105 L706.9445 432.0436 L705.7235 443.1235 L704.5938 454.0692 L703.5421 464.9 L702.5555 475.6349 L701.6211 486.2932 L700.7257 496.8941 L700.5969 498.459 L700.5888 498.5587" stroke-width="2" clip-path="url(#clipPath2)"/>
      <path stroke-dasharray="12,4" d="M699.5772 510.8923 L707.4082 497.9893 L693.9534 496.8857 Z" stroke-width="2" clip-path="url(#clipPath2)" stroke="none"/>
      <path fill="none" d="M807.3859 366.8251 L809.162 366.6956 L817.7344 366.1758 L826.2963 365.8148 L834.8443 365.6656 L843.375 365.7812 L851.8848 366.2145 L860.3704 367.0185 L868.8281 368.2461 L877.2546 369.9502 L885.6464 372.1839 L894 375 L902.3131 378.4339 L910.588 382.4502 L918.8281 386.9961 L927.037 392.0185 L935.2181 397.4645 L943.375 403.2812 L951.511 409.4156 L959.6296 415.8148 L966.895 421.7411 L966.9716 421.8054" stroke-width="3" clip-path="url(#clipPath2)"/>
      <path d="M977.5165 430.6296 L970.8261 415.2514 L961.1997 426.7549 Z" stroke-width="3" clip-path="url(#clipPath2)" stroke="none"/>
      <path fill="none" d="M992.414 458.3215 L992.414 489.7609" stroke-width="3" clip-path="url(#clipPath2)"/>
      <path d="M992.414 503.5109 L999.914 488.5109 L984.914 488.5109 Z" stroke-width="3" clip-path="url(#clipPath2)" stroke="none"/>
    </g>
  </g>
</svg>
