<?xml version="1.0" encoding="UTF-8"?><svg xmlns="http://www.w3.org/2000/svg" xmlns:xlink="http://www.w3.org/1999/xlink" fill-opacity="1" color-rendering="auto" color-interpolation="auto" text-rendering="auto" stroke="black" stroke-linecap="square" width="970" stroke-miterlimit="10" shape-rendering="auto" stroke-opacity="1" fill="black" stroke-dasharray="none" font-weight="normal" stroke-width="1" height="439" font-family="'Dialog'" font-style="normal" stroke-linejoin="miter" font-size="12px" stroke-dashoffset="0" image-rendering="auto">
  <!--Generated by ySVG 2.5-->
  <defs id="genericDefs"/>
  <g>
    <defs id="defs1">
      <clipPath clipPathUnits="userSpaceOnUse" id="clipPath1">
        <path d="M0 0 L970 0 L970 439 L0 439 L0 0 Z"/>
      </clipPath>
      <clipPath clipPathUnits="userSpaceOnUse" id="clipPath2">
        <path d="M11 -20 L981 -20 L981 419 L11 419 L11 -20 Z"/>
      </clipPath>
    </defs>
    <g text-rendering="geometricPrecision" stroke-miterlimit="1.45" shape-rendering="geometricPrecision" transform="matrix(1,0,0,1,-11,20)" stroke-linecap="butt">
      <rect fill="none" x="140.443" width="200" height="75" y="178.0631" clip-path="url(#clipPath2)"/>
    </g>
    <g text-rendering="geometricPrecision" stroke-miterlimit="1.45" shape-rendering="geometricPrecision" transform="matrix(1,0,0,1,-11,20)" stroke-linecap="butt">
      <rect fill="none" x="340.443" width="200" height="75" y="178.0631" clip-path="url(#clipPath2)"/>
      <rect fill="none" x="540.443" width="200" height="75" y="178.0631" clip-path="url(#clipPath2)"/>
      <rect fill="none" x="740.443" width="200" height="75" y="178.0631" clip-path="url(#clipPath2)"/>
      <rect fill="none" x="140.443" width="200" height="75" y="253.0631" clip-path="url(#clipPath2)"/>
      <rect fill="none" x="340.443" width="200" height="75" y="253.2526" clip-path="url(#clipPath2)"/>
      <rect fill="none" x="540.443" width="200" height="75" y="253.2526" clip-path="url(#clipPath2)"/>
      <rect fill="none" x="740.443" width="200" height="75" y="253.2526" clip-path="url(#clipPath2)"/>
      <rect fill="none" x="140.443" width="200" height="75" y="328.442" clip-path="url(#clipPath2)"/>
      <rect fill="none" x="340.443" width="200" height="75" y="328.442" clip-path="url(#clipPath2)"/>
      <rect fill="none" x="540.443" width="200" height="75" y="328.442" clip-path="url(#clipPath2)"/>
      <rect fill="none" x="740.443" width="200" height="75" y="328.442" clip-path="url(#clipPath2)"/>
      <rect fill="none" x="140.443" width="75" height="50" y="-4.118" clip-path="url(#clipPath2)"/>
      <rect fill="none" x="215.443" width="75" height="50" y="-4.118" clip-path="url(#clipPath2)"/>
      <rect fill="none" x="290.443" width="75" height="50" y="-4.118" clip-path="url(#clipPath2)"/>
      <rect fill="none" x="365.443" width="75" height="50" y="-4.118" clip-path="url(#clipPath2)"/>
      <rect fill="none" x="440.443" width="75" height="50" y="-4.118" clip-path="url(#clipPath2)"/>
      <rect fill="none" x="515.443" width="75" height="50" y="-4.118" clip-path="url(#clipPath2)"/>
      <rect fill="none" x="590.443" width="75" height="50" y="-4.118" clip-path="url(#clipPath2)"/>
      <rect fill="none" x="665.443" width="75" height="50" y="-4.118" clip-path="url(#clipPath2)"/>
      <rect fill="none" x="740.443" width="75" height="50" y="-4.118" clip-path="url(#clipPath2)"/>
      <rect fill="none" x="815.443" width="75" height="50" y="-4.118" clip-path="url(#clipPath2)"/>
      <rect fill="none" x="890.443" width="75" height="50" y="-4.118" clip-path="url(#clipPath2)"/>
    </g>
    <g fill="rgb(255,255,153)" text-rendering="geometricPrecision" shape-rendering="geometricPrecision" transform="matrix(1,0,0,1,-11,20)" stroke="rgb(255,255,153)">
      <rect x="26.3805" width="114.0625" height="50" y="-4.118" clip-path="url(#clipPath2)" stroke="none"/>
    </g>
    <g text-rendering="geometricPrecision" stroke-miterlimit="1.45" shape-rendering="geometricPrecision" transform="matrix(1,0,0,1,-11,20)" stroke-linecap="butt">
      <rect fill="none" x="26.3805" width="114.0625" height="50" y="-4.118" clip-path="url(#clipPath2)"/>
      <text x="33.3844" font-size="24px" y="30.3098" clip-path="url(#clipPath2)" font-family="sans-serif" stroke="none" xml:space="preserve">Variables</text>
    </g>
    <g fill="rgb(255,255,153)" text-rendering="geometricPrecision" shape-rendering="geometricPrecision" transform="matrix(1,0,0,1,-11,20)" stroke="rgb(255,255,153)">
      <rect x="26.3805" width="114.0625" height="50" y="178.0631" clip-path="url(#clipPath2)" stroke="none"/>
    </g>
    <g text-rendering="geometricPrecision" stroke-miterlimit="1.45" shape-rendering="geometricPrecision" transform="matrix(1,0,0,1,-11,20)" stroke-linecap="butt">
      <rect fill="none" x="26.3805" width="114.0625" height="50" y="178.0631" clip-path="url(#clipPath2)"/>
      <text x="36.736" font-size="24px" y="212.4909" clip-path="url(#clipPath2)" font-family="sans-serif" stroke="none" xml:space="preserve">Memoria</text>
    </g>
  </g>
</svg>
