<?xml version="1.0" encoding="UTF-8"?><svg xmlns="http://www.w3.org/2000/svg" xmlns:xlink="http://www.w3.org/1999/xlink" fill-opacity="1" color-rendering="auto" color-interpolation="auto" text-rendering="auto" stroke="black" stroke-linecap="square" width="970" stroke-miterlimit="10" shape-rendering="auto" stroke-opacity="1" fill="black" stroke-dasharray="none" font-weight="normal" stroke-width="1" height="439" font-family="'Dialog'" font-style="normal" stroke-linejoin="miter" font-size="12px" stroke-dashoffset="0" image-rendering="auto">
  <!--Generated by ySVG 2.6-->
  <defs id="genericDefs"/>
  <g>
    <defs id="defs1">
      <clipPath clipPathUnits="userSpaceOnUse" id="clipPath1">
        <path d="M0 0 L970 0 L970 439 L0 439 L0 0 Z"/>
      </clipPath>
      <clipPath clipPathUnits="userSpaceOnUse" id="clipPath2">
        <path d="M62 32 L1032 32 L1032 471 L62 471 L62 32 Z"/>
      </clipPath>
    </defs>
    <g text-rendering="geometricPrecision" stroke-miterlimit="1.45" shape-rendering="geometricPrecision" transform="matrix(1,0,0,1,-62,-32)" stroke-linecap="butt">
      <rect fill="none" x="191.5845" width="200" height="75" y="304.7093" clip-path="url(#clipPath2)"/>
    </g>
    <g font-size="24px" stroke-linecap="butt" transform="matrix(1,0,0,1,-62,-32)" text-rendering="geometricPrecision" font-family="sans-serif" shape-rendering="geometricPrecision" stroke-miterlimit="1.45">
      <text x="284.9106" xml:space="preserve" y="351.637" clip-path="url(#clipPath2)" stroke="none">8</text>
      <rect fill="none" x="191.5845" width="200" height="75" y="229.7093" clip-path="url(#clipPath2)"/>
      <rect fill="none" x="391.5845" width="200" height="75" y="229.7093" clip-path="url(#clipPath2)"/>
      <rect fill="none" x="591.5845" width="200" height="75" y="229.7093" clip-path="url(#clipPath2)"/>
      <rect fill="none" x="791.5845" width="200" height="75" y="229.7093" clip-path="url(#clipPath2)"/>
      <rect fill="none" x="391.5845" width="200" height="75" y="304.8987" clip-path="url(#clipPath2)"/>
      <rect fill="none" x="591.5845" width="200" height="75" y="304.8987" clip-path="url(#clipPath2)"/>
      <rect fill="none" x="791.5845" width="200" height="75" y="304.8987" clip-path="url(#clipPath2)"/>
      <rect fill="none" x="191.5845" width="200" height="75" y="380.0881" clip-path="url(#clipPath2)"/>
      <rect fill="none" x="391.5845" width="200" height="75" y="380.0881" clip-path="url(#clipPath2)"/>
      <rect fill="none" x="591.5845" width="200" height="75" y="380.0881" clip-path="url(#clipPath2)"/>
      <text x="684.9106" xml:space="preserve" y="427.0159" clip-path="url(#clipPath2)" stroke="none">8</text>
      <rect fill="none" x="791.5845" width="200" height="75" y="380.0881" clip-path="url(#clipPath2)"/>
      <rect fill="none" x="191.5845" width="75" height="50" y="47.5282" clip-path="url(#clipPath2)"/>
      <text x="221.0806" xml:space="preserve" y="81.9559" clip-path="url(#clipPath2)" stroke="none">A</text>
      <rect fill="none" x="266.5845" width="75" height="50" y="47.5282" clip-path="url(#clipPath2)"/>
      <rect fill="none" x="341.5845" width="75" height="50" y="47.5282" clip-path="url(#clipPath2)"/>
      <rect fill="none" x="416.5845" width="75" height="50" y="47.5282" clip-path="url(#clipPath2)"/>
      <rect fill="none" x="491.5845" width="75" height="50" y="47.5282" clip-path="url(#clipPath2)"/>
      <text x="521.0806" xml:space="preserve" y="81.9559" clip-path="url(#clipPath2)" stroke="none">B</text>
      <rect fill="none" x="566.5845" width="75" height="50" y="47.5282" clip-path="url(#clipPath2)"/>
      <rect fill="none" x="641.5845" width="75" height="50" y="47.5282" clip-path="url(#clipPath2)"/>
      <rect fill="none" x="716.5845" width="75" height="50" y="47.5282" clip-path="url(#clipPath2)"/>
      <rect fill="none" x="791.5845" width="75" height="50" y="47.5282" clip-path="url(#clipPath2)"/>
      <rect fill="none" x="866.5845" width="75" height="50" y="47.5282" clip-path="url(#clipPath2)"/>
      <rect fill="none" x="941.5845" width="75" height="50" y="47.5282" clip-path="url(#clipPath2)"/>
    </g>
    <g fill="rgb(255,255,153)" text-rendering="geometricPrecision" shape-rendering="geometricPrecision" transform="matrix(1,0,0,1,-62,-32)" stroke="rgb(255,255,153)">
      <rect x="77.522" width="114.0625" height="50" y="47.5282" clip-path="url(#clipPath2)" stroke="none"/>
    </g>
    <g text-rendering="geometricPrecision" stroke-miterlimit="1.45" shape-rendering="geometricPrecision" transform="matrix(1,0,0,1,-62,-32)" stroke-linecap="butt">
      <rect fill="none" x="77.522" width="114.0625" height="50" y="47.5282" clip-path="url(#clipPath2)"/>
      <text x="84.5259" font-size="24px" y="81.9559" clip-path="url(#clipPath2)" font-family="sans-serif" stroke="none" xml:space="preserve">Variables</text>
    </g>
    <g fill="rgb(255,255,153)" text-rendering="geometricPrecision" shape-rendering="geometricPrecision" transform="matrix(1,0,0,1,-62,-32)" stroke="rgb(255,255,153)">
      <rect x="77.522" width="114.0625" height="50" y="229.7093" clip-path="url(#clipPath2)" stroke="none"/>
    </g>
    <g text-rendering="geometricPrecision" stroke-miterlimit="1.45" shape-rendering="geometricPrecision" transform="matrix(1,0,0,1,-62,-32)" stroke-linecap="butt">
      <rect fill="none" x="77.522" width="114.0625" height="50" y="229.7093" clip-path="url(#clipPath2)"/>
      <text x="87.8774" font-size="24px" y="264.137" clip-path="url(#clipPath2)" font-family="sans-serif" stroke="none" xml:space="preserve">Memoria</text>
      <path fill="none" stroke-dasharray="12,4" d="M235.0011 97.5146 L236.037 102.5556 L237.4708 110.5851 L238.6875 118.875 L239.6438 127.4774 L240.2963 136.4444 L240.6016 145.8281 L240.5162 155.6805 L239.9968 166.0538 L239 177 L237.4968 188.5538 L235.5162 200.6806 L233.1016 213.3281 L230.2963 226.4445 L227.1438 239.9774 L223.6875 253.875 L219.9708 268.0851 L216.037 282.5556 L211.9297 297.2344 L207.6921 312.0695 L204.5784 322.8262 L204.5505 322.9222" stroke-width="2" clip-path="url(#clipPath2)"/>
      <path stroke-dasharray="12,4" d="M201.0963 334.8053 L211.3462 323.726 L198.3828 319.9578 Z" stroke-width="2" clip-path="url(#clipPath2)" stroke="none"/>
      <path fill="none" stroke-dasharray="12,4" d="M554.1289 97.535 L568.9376 112.3214 L598.2635 144.9791 L609.2351 159.895 L617.8825 174.5426 L624.3082 189.427 L628.6149 205.0534 L630.9049 221.927 L631.2809 240.5529 L629.8455 261.4365 L626.701 285.0827 L615.6954 342.6841 L603.4329 397.8399" stroke-width="2" clip-path="url(#clipPath2)"/>
      <path stroke-dasharray="12,4" d="M600.7472 409.92 L610.2662 398.2067 L597.088 395.2768 Z" stroke-width="2" clip-path="url(#clipPath2)" stroke="none"/>
    </g>
  </g>
</svg>
