<?xml version="1.0" encoding="UTF-8"?><svg xmlns="http://www.w3.org/2000/svg" xmlns:xlink="http://www.w3.org/1999/xlink" fill-opacity="1" color-rendering="auto" color-interpolation="auto" text-rendering="auto" stroke="black" stroke-linecap="square" width="970" stroke-miterlimit="10" shape-rendering="auto" stroke-opacity="1" fill="black" stroke-dasharray="none" font-weight="normal" stroke-width="1" height="439" font-family="'Dialog'" font-style="normal" stroke-linejoin="miter" font-size="12px" stroke-dashoffset="0" image-rendering="auto">
  <!--Generated by ySVG 2.5-->
  <defs id="genericDefs"/>
  <g>
    <defs id="defs1">
      <clipPath clipPathUnits="userSpaceOnUse" id="clipPath1">
        <path d="M0 0 L970 0 L970 439 L0 439 L0 0 Z"/>
      </clipPath>
      <clipPath clipPathUnits="userSpaceOnUse" id="clipPath2">
        <path d="M62 32 L1032 32 L1032 471 L62 471 L62 32 Z"/>
      </clipPath>
    </defs>
    <g text-rendering="geometricPrecision" stroke-miterlimit="1.45" shape-rendering="geometricPrecision" transform="matrix(1,0,0,1,-62,-32)" stroke-linecap="butt">
      <rect fill="none" x="191.5845" width="200" height="75" y="304.7093" clip-path="url(#clipPath2)"/>
    </g>
    <g font-size="24px" stroke-linecap="butt" transform="matrix(1,0,0,1,-62,-32)" text-rendering="geometricPrecision" font-family="sans-serif" shape-rendering="geometricPrecision" stroke-miterlimit="1.45">
      <text x="284.9106" xml:space="preserve" y="351.637" clip-path="url(#clipPath2)" stroke="none">8</text>
      <rect fill="none" x="191.5845" width="200" height="75" y="229.7093" clip-path="url(#clipPath2)"/>
      <rect fill="none" x="391.5845" width="200" height="75" y="229.7093" clip-path="url(#clipPath2)"/>
      <rect fill="none" x="591.5845" width="200" height="75" y="229.7093" clip-path="url(#clipPath2)"/>
      <rect fill="none" x="791.5845" width="200" height="75" y="229.7093" clip-path="url(#clipPath2)"/>
      <rect fill="none" x="391.5845" width="200" height="75" y="304.8987" clip-path="url(#clipPath2)"/>
      <rect fill="none" x="591.5845" width="200" height="75" y="304.8987" clip-path="url(#clipPath2)"/>
      <rect fill="none" x="791.5845" width="200" height="75" y="304.8987" clip-path="url(#clipPath2)"/>
      <rect fill="none" x="191.5845" width="200" height="75" y="380.0881" clip-path="url(#clipPath2)"/>
      <rect fill="none" x="391.5845" width="200" height="75" y="380.0881" clip-path="url(#clipPath2)"/>
      <rect fill="none" x="591.5845" width="200" height="75" y="380.0881" clip-path="url(#clipPath2)"/>
      <rect fill="none" x="791.5845" width="200" height="75" y="380.0881" clip-path="url(#clipPath2)"/>
      <rect fill="none" x="191.5845" width="75" height="50" y="47.5282" clip-path="url(#clipPath2)"/>
      <text x="220.4185" xml:space="preserve" y="81.9559" clip-path="url(#clipPath2)" stroke="none">N</text>
      <rect fill="none" x="266.5845" width="75" height="50" y="47.5282" clip-path="url(#clipPath2)"/>
      <rect fill="none" x="341.5845" width="75" height="50" y="47.5282" clip-path="url(#clipPath2)"/>
      <text x="365.7368" xml:space="preserve" y="81.9559" clip-path="url(#clipPath2)" stroke="none">L1</text>
      <rect fill="none" x="416.5845" width="75" height="50" y="47.5282" clip-path="url(#clipPath2)"/>
      <rect fill="none" x="491.5845" width="75" height="50" y="47.5282" clip-path="url(#clipPath2)"/>
      <rect fill="none" x="566.5845" width="75" height="50" y="47.5282" clip-path="url(#clipPath2)"/>
      <rect fill="none" x="641.5845" width="75" height="50" y="47.5282" clip-path="url(#clipPath2)"/>
      <rect fill="none" x="716.5845" width="75" height="50" y="47.5282" clip-path="url(#clipPath2)"/>
      <rect fill="none" x="791.5845" width="75" height="50" y="47.5282" clip-path="url(#clipPath2)"/>
      <rect fill="none" x="866.5845" width="75" height="50" y="47.5282" clip-path="url(#clipPath2)"/>
      <rect fill="none" x="941.5845" width="75" height="50" y="47.5282" clip-path="url(#clipPath2)"/>
    </g>
    <g fill="rgb(255,255,153)" text-rendering="geometricPrecision" shape-rendering="geometricPrecision" transform="matrix(1,0,0,1,-62,-32)" stroke="rgb(255,255,153)">
      <rect x="77.522" width="114.0625" height="50" y="47.5282" clip-path="url(#clipPath2)" stroke="none"/>
    </g>
    <g text-rendering="geometricPrecision" stroke-miterlimit="1.45" shape-rendering="geometricPrecision" transform="matrix(1,0,0,1,-62,-32)" stroke-linecap="butt">
      <rect fill="none" x="77.522" width="114.0625" height="50" y="47.5282" clip-path="url(#clipPath2)"/>
      <text x="84.5259" font-size="24px" y="81.9559" clip-path="url(#clipPath2)" font-family="sans-serif" stroke="none" xml:space="preserve">Variables</text>
    </g>
    <g fill="rgb(255,255,153)" text-rendering="geometricPrecision" shape-rendering="geometricPrecision" transform="matrix(1,0,0,1,-62,-32)" stroke="rgb(255,255,153)">
      <rect x="77.522" width="114.0625" height="50" y="229.7093" clip-path="url(#clipPath2)" stroke="none"/>
    </g>
    <g text-rendering="geometricPrecision" stroke-miterlimit="1.45" shape-rendering="geometricPrecision" transform="matrix(1,0,0,1,-62,-32)" stroke-linecap="butt">
      <rect fill="none" x="77.522" width="114.0625" height="50" y="229.7093" clip-path="url(#clipPath2)"/>
      <text x="87.8774" font-size="24px" y="264.137" clip-path="url(#clipPath2)" font-family="sans-serif" stroke="none" xml:space="preserve">Memoria</text>
    </g>
    <g transform="matrix(1,0,0,1,-62,-32)" fill-opacity="0.498" fill="rgb(255,102,0)" text-rendering="geometricPrecision" shape-rendering="geometricPrecision" stroke="rgb(255,102,0)" stroke-opacity="0.498">
      <rect x="476.5845" width="30" height="30" y="402.5881" clip-path="url(#clipPath2)" stroke="none"/>
    </g>
    <g text-rendering="geometricPrecision" stroke-miterlimit="1.45" shape-rendering="geometricPrecision" transform="matrix(1,0,0,1,-62,-32)" stroke-linecap="butt">
      <rect fill="none" x="476.5845" width="30" height="30" y="402.5881" clip-path="url(#clipPath2)"/>
      <text x="484.9106" font-size="24px" y="427.0159" clip-path="url(#clipPath2)" font-family="sans-serif" stroke="none" xml:space="preserve">1</text>
    </g>
    <g transform="matrix(1,0,0,1,-62,-32)" fill-opacity="0.498" fill="rgb(0,0,255)" text-rendering="geometricPrecision" shape-rendering="geometricPrecision" stroke="rgb(0,0,255)" stroke-opacity="0.498">
      <rect x="676.5845" width="30" height="30" y="402.5881" clip-path="url(#clipPath2)" stroke="none"/>
    </g>
    <g text-rendering="geometricPrecision" stroke-miterlimit="1.45" shape-rendering="geometricPrecision" transform="matrix(1,0,0,1,-62,-32)" stroke-linecap="butt">
      <rect fill="none" x="676.5845" width="30" height="30" y="402.5881" clip-path="url(#clipPath2)"/>
      <text x="684.9106" font-size="24px" y="427.0159" clip-path="url(#clipPath2)" font-family="sans-serif" stroke="none" xml:space="preserve">2</text>
      <path fill="none" stroke-dasharray="12,4" d="M235.0011 97.5146 L236.037 102.5556 L237.4708 110.5851 L238.6875 118.875 L239.6438 127.4774 L240.2963 136.4444 L240.6016 145.8281 L240.5162 155.6805 L239.9968 166.0538 L239 177 L237.4968 188.5538 L235.5162 200.6806 L233.1016 213.3281 L230.2963 226.4445 L227.1438 239.9774 L223.6875 253.875 L219.9708 268.0851 L216.037 282.5556 L211.9297 297.2344 L207.6921 312.0695 L204.5784 322.8262 L204.5505 322.9222" stroke-width="2" clip-path="url(#clipPath2)"/>
      <path stroke-dasharray="12,4" d="M201.0963 334.8053 L211.3462 323.726 L198.3828 319.9578 Z" stroke-width="2" clip-path="url(#clipPath2)" stroke="none"/>
      <path fill="none" stroke-dasharray="12,4" d="M396.86 97.512 L398.4375 100.8438 L401.1241 107.8497 L403.5555 115.8704 L405.6953 125.0508 L407.507 135.5359 L408.954 147.4706 L410 161 L410.6207 176.2206 L410.8403 193.0359 L410.6953 211.3008 L410.2222 230.8704 L409.4575 251.5997 L408.4375 273.3438 L407.1988 295.9576 L405.7778 319.2963 L404.2109 343.2148 L402.5347 367.5683 L400.7856 392.2117 L400.4018 397.54" stroke-width="2" clip-path="url(#clipPath2)"/>
      <path stroke-dasharray="12,4" d="M399.5127 409.883 L407.2151 396.9029 L393.75 395.933 Z" stroke-width="2" clip-path="url(#clipPath2)" stroke="none"/>
      <path fill="none" d="M506.5845 417.5881 L662.8345 417.5881" stroke-width="3" clip-path="url(#clipPath2)"/>
      <path d="M676.5845 417.5881 L661.5845 410.0881 L661.5845 425.0881 Z" stroke-width="3" clip-path="url(#clipPath2)" stroke="none"/>
    </g>
  </g>
</svg>
