<?xml version="1.0" encoding="UTF-8"?><svg xmlns="http://www.w3.org/2000/svg" xmlns:xlink="http://www.w3.org/1999/xlink" fill-opacity="1" color-rendering="auto" color-interpolation="auto" text-rendering="auto" stroke="black" stroke-linecap="square" width="970" stroke-miterlimit="10" shape-rendering="auto" stroke-opacity="1" fill="black" stroke-dasharray="none" font-weight="normal" stroke-width="1" height="438" font-family="'Dialog'" font-style="normal" stroke-linejoin="miter" font-size="12px" stroke-dashoffset="0" image-rendering="auto">
  <!--Generated by ySVG 2.5-->
  <defs id="genericDefs"/>
  <g>
    <defs id="defs1">
      <clipPath clipPathUnits="userSpaceOnUse" id="clipPath1">
        <path d="M0 0 L970 0 L970 438 L0 438 L0 0 Z"/>
      </clipPath>
      <clipPath clipPathUnits="userSpaceOnUse" id="clipPath2">
        <path d="M138 108 L1108 108 L1108 546 L138 546 L138 108 Z"/>
      </clipPath>
    </defs>
    <g text-rendering="geometricPrecision" stroke-miterlimit="1.45" shape-rendering="geometricPrecision" transform="matrix(1,0,0,1,-138,-108)" stroke-linecap="butt">
      <rect fill="none" x="267.2382" width="200" height="75" y="380.4066" clip-path="url(#clipPath2)"/>
    </g>
    <g font-size="24px" stroke-linecap="butt" transform="matrix(1,0,0,1,-138,-108)" text-rendering="geometricPrecision" font-family="sans-serif" shape-rendering="geometricPrecision" stroke-miterlimit="1.45">
      <text x="360.5644" xml:space="preserve" y="427.3343" clip-path="url(#clipPath2)" stroke="none">8</text>
      <rect fill="none" x="267.2382" width="200" height="75" y="305.4066" clip-path="url(#clipPath2)"/>
      <rect fill="none" x="467.2382" width="200" height="75" y="305.4066" clip-path="url(#clipPath2)"/>
      <rect fill="none" x="667.2382" width="200" height="75" y="305.4066" clip-path="url(#clipPath2)"/>
      <rect fill="none" x="867.2382" width="200" height="75" y="305.4066" clip-path="url(#clipPath2)"/>
      <rect fill="none" x="467.2382" width="200" height="75" y="380.596" clip-path="url(#clipPath2)"/>
      <rect fill="none" x="667.2382" width="200" height="75" y="380.596" clip-path="url(#clipPath2)"/>
      <rect fill="none" x="867.2382" width="200" height="75" y="380.596" clip-path="url(#clipPath2)"/>
      <rect fill="none" x="267.2382" width="200" height="75" y="455.7854" clip-path="url(#clipPath2)"/>
      <rect fill="none" x="467.2382" width="200" height="75" y="455.7854" clip-path="url(#clipPath2)"/>
      <rect fill="none" x="667.2382" width="200" height="75" y="455.7854" clip-path="url(#clipPath2)"/>
      <rect fill="none" x="867.2382" width="200" height="75" y="455.7854" clip-path="url(#clipPath2)"/>
      <rect fill="none" x="267.2382" width="75" height="50" y="123.2255" clip-path="url(#clipPath2)"/>
      <text x="296.0722" xml:space="preserve" y="157.6532" clip-path="url(#clipPath2)" stroke="none">N</text>
      <rect fill="none" x="342.2382" width="75" height="50" y="123.2255" clip-path="url(#clipPath2)"/>
      <rect fill="none" x="417.2382" width="75" height="50" y="123.2255" clip-path="url(#clipPath2)"/>
      <text x="441.3906" xml:space="preserve" y="157.6532" clip-path="url(#clipPath2)" stroke="none">L1</text>
      <rect fill="none" x="492.2382" width="75" height="50" y="123.2255" clip-path="url(#clipPath2)"/>
      <rect fill="none" x="567.2382" width="75" height="50" y="123.2255" clip-path="url(#clipPath2)"/>
      <text x="590.0605" xml:space="preserve" y="157.6532" clip-path="url(#clipPath2)" stroke="none">P1</text>
      <rect fill="none" x="642.2382" width="75" height="50" y="123.2255" clip-path="url(#clipPath2)"/>
      <rect fill="none" x="717.2382" width="75" height="50" y="123.2255" clip-path="url(#clipPath2)"/>
      <rect fill="none" x="792.2382" width="75" height="50" y="123.2255" clip-path="url(#clipPath2)"/>
      <rect fill="none" x="867.2382" width="75" height="50" y="123.2255" clip-path="url(#clipPath2)"/>
      <rect fill="none" x="942.2382" width="75" height="50" y="123.2255" clip-path="url(#clipPath2)"/>
      <rect fill="none" x="1017.2382" width="75" height="50" y="123.2255" clip-path="url(#clipPath2)"/>
    </g>
    <g fill="rgb(255,255,153)" text-rendering="geometricPrecision" shape-rendering="geometricPrecision" transform="matrix(1,0,0,1,-138,-108)" stroke="rgb(255,255,153)">
      <rect x="153.1757" width="114.0625" height="50" y="123.2255" clip-path="url(#clipPath2)" stroke="none"/>
    </g>
    <g text-rendering="geometricPrecision" stroke-miterlimit="1.45" shape-rendering="geometricPrecision" transform="matrix(1,0,0,1,-138,-108)" stroke-linecap="butt">
      <rect fill="none" x="153.1757" width="114.0625" height="50" y="123.2255" clip-path="url(#clipPath2)"/>
      <text x="160.1797" font-size="24px" y="157.6532" clip-path="url(#clipPath2)" font-family="sans-serif" stroke="none" xml:space="preserve">Variables</text>
    </g>
    <g fill="rgb(255,255,153)" text-rendering="geometricPrecision" shape-rendering="geometricPrecision" transform="matrix(1,0,0,1,-138,-108)" stroke="rgb(255,255,153)">
      <rect x="153.1757" width="114.0625" height="50" y="305.4066" clip-path="url(#clipPath2)" stroke="none"/>
    </g>
    <g text-rendering="geometricPrecision" stroke-miterlimit="1.45" shape-rendering="geometricPrecision" transform="matrix(1,0,0,1,-138,-108)" stroke-linecap="butt">
      <rect fill="none" x="153.1757" width="114.0625" height="50" y="305.4066" clip-path="url(#clipPath2)"/>
      <text x="163.5312" font-size="24px" y="339.8343" clip-path="url(#clipPath2)" font-family="sans-serif" stroke="none" xml:space="preserve">Memoria</text>
    </g>
    <g transform="matrix(1,0,0,1,-138,-108)" fill-opacity="0.498" fill="rgb(255,102,0)" text-rendering="geometricPrecision" shape-rendering="geometricPrecision" stroke="rgb(255,102,0)" stroke-opacity="0.498">
      <rect x="752.2382" width="30" height="30" y="327.9066" clip-path="url(#clipPath2)" stroke="none"/>
    </g>
    <g text-rendering="geometricPrecision" stroke-miterlimit="1.45" shape-rendering="geometricPrecision" transform="matrix(1,0,0,1,-138,-108)" stroke-linecap="butt">
      <rect fill="none" x="752.2382" width="30" height="30" y="327.9066" clip-path="url(#clipPath2)"/>
      <text x="760.5644" font-size="24px" y="352.3343" clip-path="url(#clipPath2)" font-family="sans-serif" stroke="none" xml:space="preserve">1</text>
    </g>
    <g transform="matrix(1,0,0,1,-138,-108)" fill-opacity="0.498" fill="rgb(0,0,255)" text-rendering="geometricPrecision" shape-rendering="geometricPrecision" stroke="rgb(0,0,255)" stroke-opacity="0.498">
      <rect x="952.2382" width="30" height="30" y="403.096" clip-path="url(#clipPath2)" stroke="none"/>
    </g>
    <g text-rendering="geometricPrecision" stroke-miterlimit="1.45" shape-rendering="geometricPrecision" transform="matrix(1,0,0,1,-138,-108)" stroke-linecap="butt">
      <rect fill="none" x="952.2382" width="30" height="30" y="403.096" clip-path="url(#clipPath2)"/>
      <text x="960.5644" font-size="24px" y="427.5237" clip-path="url(#clipPath2)" font-family="sans-serif" stroke="none" xml:space="preserve">2</text>
    </g>
    <g transform="matrix(1,0,0,1,-138,-108)" fill-opacity="0.498" fill="rgb(0,128,0)" text-rendering="geometricPrecision" shape-rendering="geometricPrecision" stroke="rgb(0,128,0)" stroke-opacity="0.498">
      <rect x="952.2382" width="30" height="30" y="478.2854" clip-path="url(#clipPath2)" stroke="none"/>
    </g>
    <g text-rendering="geometricPrecision" stroke-miterlimit="1.45" shape-rendering="geometricPrecision" transform="matrix(1,0,0,1,-138,-108)" stroke-linecap="butt">
      <rect fill="none" x="952.2382" width="30" height="30" y="478.2854" clip-path="url(#clipPath2)"/>
      <text x="960.5644" font-size="24px" y="502.7132" clip-path="url(#clipPath2)" font-family="sans-serif" stroke="none" xml:space="preserve">3</text>
    </g>
    <g fill="rgb(255,102,102)" text-rendering="geometricPrecision" shape-rendering="geometricPrecision" transform="matrix(1,0,0,1,-138,-108)" stroke="rgb(255,102,102)">
      <rect x="482.2382" width="180" height="60" y="387.9066" clip-path="url(#clipPath2)" stroke="none"/>
    </g>
    <g text-rendering="geometricPrecision" stroke-miterlimit="1.45" shape-rendering="geometricPrecision" transform="matrix(1,0,0,1,-138,-108)" stroke-linecap="butt">
      <rect fill="none" x="482.2382" width="180" height="60" y="387.9066" clip-path="url(#clipPath2)"/>
      <text x="527.5429" font-size="24px" y="412.6331" clip-path="url(#clipPath2)" font-family="sans-serif" stroke="none" xml:space="preserve">Persona</text>
      <text x="522.2929" font-size="24px" y="442.0355" clip-path="url(#clipPath2)" font-family="sans-serif" stroke="none" xml:space="preserve">'vale' : 20</text>
    </g>
    <g fill="rgb(255,102,102)" text-rendering="geometricPrecision" shape-rendering="geometricPrecision" transform="matrix(1,0,0,1,-138,-108)" stroke="rgb(255,102,102)">
      <rect x="682.2382" width="180" height="60" y="463.2854" clip-path="url(#clipPath2)" stroke="none"/>
    </g>
    <g text-rendering="geometricPrecision" stroke-miterlimit="1.45" shape-rendering="geometricPrecision" transform="matrix(1,0,0,1,-138,-108)" stroke-linecap="butt">
      <rect fill="none" x="682.2382" width="180" height="60" y="463.2854" clip-path="url(#clipPath2)"/>
      <text x="727.5429" font-size="24px" y="488.012" clip-path="url(#clipPath2)" font-family="sans-serif" stroke="none" xml:space="preserve">Persona</text>
      <text x="722.2929" font-size="24px" y="517.4144" clip-path="url(#clipPath2)" font-family="sans-serif" stroke="none" xml:space="preserve">'vale' : 21</text>
      <path fill="none" stroke-dasharray="12,4" d="M310.4223 173.2312 L311.5185 178.1481 L313.0596 186.0823 L314.375 194.2812 L315.4196 202.7979 L316.1481 211.6852 L316.5156 220.9961 L316.4769 230.7836 L315.9867 241.1006 L315 252 L313.4867 263.5172 L311.4768 275.6169 L309.0156 288.2461 L306.1481 301.3519 L302.9196 314.8812 L299.375 328.7812 L295.5596 342.999 L291.5185 357.4815 L287.2969 372.1758 L282.9398 387.0289 L279.5159 398.5456 L279.4873 398.6414" stroke-width="2" clip-path="url(#clipPath2)"/>
      <path stroke-dasharray="12,4" d="M275.9456 410.4987 L286.2769 399.4952 L273.3416 395.6316 Z" stroke-width="2" clip-path="url(#clipPath2)" stroke="none"/>
      <path fill="none" stroke-dasharray="12,4" d="M451.9437 173.2165 L451.9457 174.7506 L452.5501 180.9035 L453.9 186.7 L456.1443 192.0687 L459.4321 196.9383 L463.9125 201.2375 L469.7346 204.8951 L477.0474 207.8397 L486 210 L496.6665 211.3471 L508.821 212.0216 L522.1625 212.2063 L536.3901 212.084 L551.2029 211.8376 L566.3 211.65 L581.3804 211.7041 L596.1432 212.1827 L610.2875 213.2688 L623.5123 215.1451 L635.5168 217.9945 L646 222 L654.7365 227.2953 L661.8025 233.8179 L667.35 241.4563 L671.5309 250.0988 L674.4969 259.6339 L676.4 269.95 L677.392 280.9356 L677.6247 292.479 L677.25 304.4688 L676.4197 316.7932 L675.8494 323.1047 L675.8392 323.2042" stroke-width="2" clip-path="url(#clipPath2)"/>
      <path stroke-dasharray="12,4" d="M674.6585 335.5227 L682.6658 322.7283 L669.2274 321.4402 Z" stroke-width="2" clip-path="url(#clipPath2)" stroke="none"/>
      <path fill="none" stroke-dasharray="12,4" d="M593.3303 173.1978 L593.1284 175.8528 L593.537 179.332 L594.7305 182.6113 L596.8067 185.6658 L599.8638 188.4703 L604 191 L609.2637 193.2531 L615.5058 195.3208 L622.5273 197.3178 L630.1296 199.3585 L638.1138 201.5574 L646.2812 204.029 L654.433 206.888 L662.3704 210.2487 L669.8945 214.2257 L676.8067 218.9336 L682.9081 224.4869 L688 231 L691.9356 238.5501 L694.7766 247.0644 L696.6367 256.4327 L697.6296 266.545 L697.8691 277.2909 L697.4688 288.5603 L696.5424 300.243 L695.2037 312.2288 L693.5664 324.4077 L691.7442 336.6692 L689.8508 348.9034 L688 361 L686.2843 372.8706 L684.7118 384.5141 L683.2695 395.9512 L681.9445 407.2024 L680.7235 418.2884 L679.5938 429.2299 L678.5421 440.0475 L677.5555 450.7619 L676.6211 461.3937 L675.7257 471.9635 L675.6205 473.2373 L675.6124 473.3369" stroke-width="2" clip-path="url(#clipPath2)"/>
      <path stroke-dasharray="12,4" d="M674.5973 485.6702 L682.432 472.7694 L668.9775 471.662 Z" stroke-width="2" clip-path="url(#clipPath2)" stroke="none"/>
      <path fill="none" d="M782.2518 341.0191 L784.162 340.9028 L792.7344 340.4844 L801.2963 340.2222 L809.8443 340.1684 L818.375 340.375 L826.8848 340.8941 L835.3704 341.7778 L843.8281 343.0781 L852.2546 344.8472 L860.6464 347.1371 L869 350 L877.3131 353.4705 L885.588 357.5139 L893.8281 362.0781 L902.037 367.1111 L910.2181 372.5608 L918.375 378.375 L926.511 384.5017 L934.6296 390.8889 L941.6905 396.6349 L941.7672 396.699" stroke-width="3" clip-path="url(#clipPath2)"/>
      <path d="M952.3271 405.5053 L945.6107 390.1385 L936.0038 401.6584 Z" stroke-width="3" clip-path="url(#clipPath2)" stroke="none"/>
      <path fill="none" d="M967.2382 433.096 L967.2382 464.5354" stroke-width="3" clip-path="url(#clipPath2)"/>
      <path d="M967.2382 478.2854 L974.7382 463.2854 L959.7382 463.2854 Z" stroke-width="3" clip-path="url(#clipPath2)" stroke="none"/>
    </g>
  </g>
</svg>
