<?xml version="1.0" encoding="UTF-8"?><svg xmlns="http://www.w3.org/2000/svg" xmlns:xlink="http://www.w3.org/1999/xlink" fill-opacity="1" color-rendering="auto" color-interpolation="auto" text-rendering="auto" stroke="black" stroke-linecap="square" width="970" stroke-miterlimit="10" shape-rendering="auto" stroke-opacity="1" fill="black" stroke-dasharray="none" font-weight="normal" stroke-width="1" height="438" font-family="'Dialog'" font-style="normal" stroke-linejoin="miter" font-size="12px" stroke-dashoffset="0" image-rendering="auto">
  <!--Generated by ySVG 2.5-->
  <defs id="genericDefs"/>
  <g>
    <defs id="defs1">
      <clipPath clipPathUnits="userSpaceOnUse" id="clipPath1">
        <path d="M0 0 L970 0 L970 438 L0 438 L0 0 Z"/>
      </clipPath>
      <clipPath clipPathUnits="userSpaceOnUse" id="clipPath2">
        <path d="M113 83 L1083 83 L1083 521 L113 521 L113 83 Z"/>
      </clipPath>
    </defs>
    <g text-rendering="geometricPrecision" stroke-miterlimit="1.45" shape-rendering="geometricPrecision" transform="matrix(1,0,0,1,-113,-83)" stroke-linecap="butt">
      <rect fill="none" x="242.1504" width="200" height="75" y="355.2938" clip-path="url(#clipPath2)"/>
    </g>
    <g text-rendering="geometricPrecision" stroke-miterlimit="1.45" shape-rendering="geometricPrecision" transform="matrix(1,0,0,1,-113,-83)" stroke-linecap="butt">
      <rect fill="none" x="242.1504" width="200" height="75" y="280.2938" clip-path="url(#clipPath2)"/>
      <rect fill="none" x="442.1504" width="200" height="75" y="280.2938" clip-path="url(#clipPath2)"/>
      <rect fill="none" x="642.1504" width="200" height="75" y="280.2938" clip-path="url(#clipPath2)"/>
      <rect fill="none" x="842.1504" width="200" height="75" y="280.2938" clip-path="url(#clipPath2)"/>
      <rect fill="none" x="442.1504" width="200" height="75" y="355.4833" clip-path="url(#clipPath2)"/>
      <rect fill="none" x="642.1504" width="200" height="75" y="355.4833" clip-path="url(#clipPath2)"/>
      <rect fill="none" x="842.1504" width="200" height="75" y="355.4833" clip-path="url(#clipPath2)"/>
      <rect fill="none" x="242.1504" width="200" height="75" y="430.6727" clip-path="url(#clipPath2)"/>
      <rect fill="none" x="442.1504" width="200" height="75" y="430.6727" clip-path="url(#clipPath2)"/>
      <rect fill="none" x="642.1504" width="200" height="75" y="430.6727" clip-path="url(#clipPath2)"/>
      <rect fill="none" x="842.1504" width="200" height="75" y="430.6727" clip-path="url(#clipPath2)"/>
      <rect fill="none" x="242.1504" width="75" height="50" y="98.1127" clip-path="url(#clipPath2)"/>
      <text x="264.9726" font-size="24px" y="132.5405" clip-path="url(#clipPath2)" font-family="sans-serif" stroke="none" xml:space="preserve">P1</text>
      <rect fill="none" x="317.1504" width="75" height="50" y="98.1127" clip-path="url(#clipPath2)"/>
      <rect fill="none" x="392.1504" width="75" height="50" y="98.1127" clip-path="url(#clipPath2)"/>
      <rect fill="none" x="467.1504" width="75" height="50" y="98.1127" clip-path="url(#clipPath2)"/>
      <rect fill="none" x="542.1504" width="75" height="50" y="98.1127" clip-path="url(#clipPath2)"/>
      <rect fill="none" x="617.1504" width="75" height="50" y="98.1127" clip-path="url(#clipPath2)"/>
      <rect fill="none" x="692.1504" width="75" height="50" y="98.1127" clip-path="url(#clipPath2)"/>
      <text x="714.9727" font-size="24px" y="132.5405" clip-path="url(#clipPath2)" font-family="sans-serif" stroke="none" xml:space="preserve">P2</text>
      <rect fill="none" x="767.1504" width="75" height="50" y="98.1127" clip-path="url(#clipPath2)"/>
      <rect fill="none" x="842.1504" width="75" height="50" y="98.1127" clip-path="url(#clipPath2)"/>
      <rect fill="none" x="917.1504" width="75" height="50" y="98.1127" clip-path="url(#clipPath2)"/>
      <rect fill="none" x="992.1504" width="75" height="50" y="98.1127" clip-path="url(#clipPath2)"/>
    </g>
    <g fill="rgb(255,255,153)" text-rendering="geometricPrecision" shape-rendering="geometricPrecision" transform="matrix(1,0,0,1,-113,-83)" stroke="rgb(255,255,153)">
      <rect x="128.0879" width="114.0625" height="50" y="98.1127" clip-path="url(#clipPath2)" stroke="none"/>
    </g>
    <g text-rendering="geometricPrecision" stroke-miterlimit="1.45" shape-rendering="geometricPrecision" transform="matrix(1,0,0,1,-113,-83)" stroke-linecap="butt">
      <rect fill="none" x="128.0879" width="114.0625" height="50" y="98.1127" clip-path="url(#clipPath2)"/>
      <text x="135.0918" font-size="24px" y="132.5405" clip-path="url(#clipPath2)" font-family="sans-serif" stroke="none" xml:space="preserve">Variables</text>
    </g>
    <g fill="rgb(255,255,153)" text-rendering="geometricPrecision" shape-rendering="geometricPrecision" transform="matrix(1,0,0,1,-113,-83)" stroke="rgb(255,255,153)">
      <rect x="128.0879" width="114.0625" height="50" y="280.2938" clip-path="url(#clipPath2)" stroke="none"/>
    </g>
    <g text-rendering="geometricPrecision" stroke-miterlimit="1.45" shape-rendering="geometricPrecision" transform="matrix(1,0,0,1,-113,-83)" stroke-linecap="butt">
      <rect fill="none" x="128.0879" width="114.0625" height="50" y="280.2938" clip-path="url(#clipPath2)"/>
      <text x="138.4433" font-size="24px" y="314.7216" clip-path="url(#clipPath2)" font-family="sans-serif" stroke="none" xml:space="preserve">Memoria</text>
    </g>
    <g fill="rgb(204,255,204)" text-rendering="geometricPrecision" shape-rendering="geometricPrecision" transform="matrix(1,0,0,1,-113,-83)" stroke="rgb(204,255,204)">
      <rect x="457.1504" width="180" height="60" y="287.7938" clip-path="url(#clipPath2)" stroke="none"/>
    </g>
    <g text-rendering="geometricPrecision" stroke-miterlimit="1.45" shape-rendering="geometricPrecision" transform="matrix(1,0,0,1,-113,-83)" stroke-linecap="butt">
      <rect fill="none" x="457.1504" width="180" height="60" y="287.7938" clip-path="url(#clipPath2)"/>
      <text x="459.7636" font-size="24px" y="312.5204" clip-path="url(#clipPath2)" font-family="sans-serif" stroke="none" xml:space="preserve">PersonaMutable</text>
      <text x="496.5312" font-size="24px" y="341.9228" clip-path="url(#clipPath2)" font-family="sans-serif" stroke="none" xml:space="preserve">'dani' : 20</text>
      <path fill="none" stroke-dasharray="12,4" d="M277.1155 148.1215 L276.9375 151.4219 L276.7728 160.3654 L277.0563 168.8544 L277.9 176.775 L279.4159 184.0137 L281.7161 190.4568 L284.9125 195.9906 L289.1173 200.5015 L294.4424 203.8759 L301 206 L308.8467 206.8212 L317.8179 206.5309 L327.6938 205.3813 L338.2543 203.6247 L349.2797 201.5135 L360.55 199.3 L371.8453 197.2365 L382.9457 195.5753 L393.6313 194.5688 L403.6821 194.4691 L412.8783 195.5288 L421 198 L427.8819 202.0699 L433.5771 207.6651 L438.1938 214.6469 L441.8395 222.8765 L444.6223 232.2155 L446.65 242.525 L448.0305 253.6665 L448.8716 265.5013 L449.2812 277.8906 L449.3673 290.696 L449.2955 297.9381 L449.2937 298.0381" stroke-width="2" clip-path="url(#clipPath2)"/>
      <path stroke-dasharray="12,4" d="M449.1188 310.4119 L456.0589 297.0086 L442.5602 296.8178 Z" stroke-width="2" clip-path="url(#clipPath2)" stroke="none"/>
      <path fill="none" stroke-dasharray="12,4" d="M731.6951 148.1205 L731.7358 151.6691 L731.1246 158.3382 L729.65 164.675 L727.1393 170.6132 L723.4197 176.0864 L718.3187 181.0281 L711.6636 185.3719 L703.2816 189.0513 L693 192 L680.7303 194.1889 L666.7207 195.7392 L651.3031 196.8094 L634.8099 197.558 L617.5731 198.1437 L599.925 198.725 L582.1978 199.4604 L564.7234 200.5086 L547.8344 202.0281 L531.8627 204.1775 L517.1405 207.1152 L504 211 L492.6915 215.9485 L483.1373 221.9105 L475.1781 228.7937 L468.6543 236.5062 L463.4064 244.9556 L459.275 254.05 L456.1005 263.6971 L453.7234 273.8049 L451.9844 284.2812 L450.7238 295.0339 L450.4695 297.9874 L450.4624 298.0871" stroke-width="2" clip-path="url(#clipPath2)"/>
      <path stroke-dasharray="12,4" d="M449.4655 310.4219 L457.2811 297.5095 L443.825 296.422 Z" stroke-width="2" clip-path="url(#clipPath2)" stroke="none"/>
    </g>
  </g>
</svg>
