<?xml version="1.0" encoding="UTF-8"?><svg xmlns="http://www.w3.org/2000/svg" xmlns:xlink="http://www.w3.org/1999/xlink" fill-opacity="1" color-rendering="auto" color-interpolation="auto" text-rendering="auto" stroke="black" stroke-linecap="square" width="970" stroke-miterlimit="10" shape-rendering="auto" stroke-opacity="1" fill="black" stroke-dasharray="none" font-weight="normal" stroke-width="1" height="439" font-family="'Dialog'" font-style="normal" stroke-linejoin="miter" font-size="12px" stroke-dashoffset="0" image-rendering="auto">
  <!--Generated by ySVG 2.6-->
  <defs id="genericDefs"/>
  <g>
    <defs id="defs1">
      <clipPath clipPathUnits="userSpaceOnUse" id="clipPath1">
        <path d="M0 0 L970 0 L970 439 L0 439 L0 0 Z"/>
      </clipPath>
      <clipPath clipPathUnits="userSpaceOnUse" id="clipPath2">
        <path d="M36 6 L1006 6 L1006 445 L36 445 L36 6 Z"/>
      </clipPath>
    </defs>
    <g text-rendering="geometricPrecision" stroke-miterlimit="1.45" shape-rendering="geometricPrecision" transform="matrix(1,0,0,1,-36,-6)" stroke-linecap="butt">
      <rect fill="none" x="165.8235" width="200" height="75" y="278.9452" clip-path="url(#clipPath2)"/>
    </g>
    <g font-size="24px" stroke-linecap="butt" transform="matrix(1,0,0,1,-36,-6)" text-rendering="geometricPrecision" font-family="sans-serif" shape-rendering="geometricPrecision" stroke-miterlimit="1.45">
      <text x="259.1497" xml:space="preserve" y="325.8729" clip-path="url(#clipPath2)" stroke="none">8</text>
      <rect fill="none" x="165.8235" width="200" height="75" y="203.9452" clip-path="url(#clipPath2)"/>
      <rect fill="none" x="365.8235" width="200" height="75" y="203.9452" clip-path="url(#clipPath2)"/>
      <rect fill="none" x="565.8235" width="200" height="75" y="203.9452" clip-path="url(#clipPath2)"/>
      <rect fill="none" x="765.8235" width="200" height="75" y="203.9452" clip-path="url(#clipPath2)"/>
      <rect fill="none" x="365.8235" width="200" height="75" y="279.1346" clip-path="url(#clipPath2)"/>
      <rect fill="none" x="565.8235" width="200" height="75" y="279.1346" clip-path="url(#clipPath2)"/>
      <rect fill="none" x="765.8235" width="200" height="75" y="279.1346" clip-path="url(#clipPath2)"/>
      <rect fill="none" x="165.8235" width="200" height="75" y="354.324" clip-path="url(#clipPath2)"/>
      <rect fill="none" x="365.8235" width="200" height="75" y="354.324" clip-path="url(#clipPath2)"/>
      <rect fill="none" x="565.8235" width="200" height="75" y="354.324" clip-path="url(#clipPath2)"/>
      <rect fill="none" x="765.8235" width="200" height="75" y="354.324" clip-path="url(#clipPath2)"/>
      <rect fill="none" x="165.8235" width="75" height="50" y="21.7641" clip-path="url(#clipPath2)"/>
      <text x="195.3196" xml:space="preserve" y="56.1918" clip-path="url(#clipPath2)" stroke="none">A</text>
      <rect fill="none" x="240.8235" width="75" height="50" y="21.7641" clip-path="url(#clipPath2)"/>
      <rect fill="none" x="315.8235" width="75" height="50" y="21.7641" clip-path="url(#clipPath2)"/>
      <rect fill="none" x="390.8235" width="75" height="50" y="21.7641" clip-path="url(#clipPath2)"/>
      <rect fill="none" x="465.8235" width="75" height="50" y="21.7641" clip-path="url(#clipPath2)"/>
      <rect fill="none" x="540.8235" width="75" height="50" y="21.7641" clip-path="url(#clipPath2)"/>
      <rect fill="none" x="615.8235" width="75" height="50" y="21.7641" clip-path="url(#clipPath2)"/>
      <rect fill="none" x="690.8235" width="75" height="50" y="21.7641" clip-path="url(#clipPath2)"/>
      <rect fill="none" x="765.8235" width="75" height="50" y="21.7641" clip-path="url(#clipPath2)"/>
      <rect fill="none" x="840.8235" width="75" height="50" y="21.7641" clip-path="url(#clipPath2)"/>
      <rect fill="none" x="915.8235" width="75" height="50" y="21.7641" clip-path="url(#clipPath2)"/>
    </g>
    <g fill="rgb(255,255,153)" text-rendering="geometricPrecision" shape-rendering="geometricPrecision" transform="matrix(1,0,0,1,-36,-6)" stroke="rgb(255,255,153)">
      <rect x="51.761" width="114.0625" height="50" y="21.7641" clip-path="url(#clipPath2)" stroke="none"/>
    </g>
    <g text-rendering="geometricPrecision" stroke-miterlimit="1.45" shape-rendering="geometricPrecision" transform="matrix(1,0,0,1,-36,-6)" stroke-linecap="butt">
      <rect fill="none" x="51.761" width="114.0625" height="50" y="21.7641" clip-path="url(#clipPath2)"/>
      <text x="58.7649" font-size="24px" y="56.1918" clip-path="url(#clipPath2)" font-family="sans-serif" stroke="none" xml:space="preserve">Variables</text>
    </g>
    <g fill="rgb(255,255,153)" text-rendering="geometricPrecision" shape-rendering="geometricPrecision" transform="matrix(1,0,0,1,-36,-6)" stroke="rgb(255,255,153)">
      <rect x="51.761" width="114.0625" height="50" y="203.9452" clip-path="url(#clipPath2)" stroke="none"/>
    </g>
    <g text-rendering="geometricPrecision" stroke-miterlimit="1.45" shape-rendering="geometricPrecision" transform="matrix(1,0,0,1,-36,-6)" stroke-linecap="butt">
      <rect fill="none" x="51.761" width="114.0625" height="50" y="203.9452" clip-path="url(#clipPath2)"/>
      <text x="62.1165" font-size="24px" y="238.3729" clip-path="url(#clipPath2)" font-family="sans-serif" stroke="none" xml:space="preserve">Memoria</text>
      <path fill="none" stroke-dasharray="12,4" d="M209.0513 71.759 L210.037 76.5556 L211.4708 84.5851 L212.6875 92.875 L213.6438 101.4774 L214.2963 110.4444 L214.6016 119.8281 L214.5162 129.6805 L213.9968 140.0538 L213 151 L211.4968 162.5538 L209.5162 174.6806 L207.1016 187.3281 L204.2963 200.4445 L201.1438 213.9774 L197.6875 227.875 L193.9708 242.0851 L190.037 256.5556 L185.9297 271.2344 L181.6921 286.0695 L178.5106 297.0605 L178.4826 297.1566" stroke-width="2" clip-path="url(#clipPath2)"/>
      <path stroke-dasharray="12,4" d="M175.028 309.0396 L185.2783 297.9606 L172.315 294.192 Z" stroke-width="2" clip-path="url(#clipPath2)" stroke="none"/>
    </g>
  </g>
</svg>
