<?xml version="1.0" encoding="UTF-8"?><svg xmlns="http://www.w3.org/2000/svg" xmlns:xlink="http://www.w3.org/1999/xlink" fill-opacity="1" color-rendering="auto" color-interpolation="auto" text-rendering="auto" stroke="black" stroke-linecap="square" width="970" stroke-miterlimit="10" shape-rendering="auto" stroke-opacity="1" fill="black" stroke-dasharray="none" font-weight="normal" stroke-width="1" height="438" font-family="'Dialog'" font-style="normal" stroke-linejoin="miter" font-size="12px" stroke-dashoffset="0" image-rendering="auto">
  <!--Generated by ySVG 2.5-->
  <defs id="genericDefs"/>
  <g>
    <defs id="defs1">
      <clipPath clipPathUnits="userSpaceOnUse" id="clipPath1">
        <path d="M0 0 L970 0 L970 438 L0 438 L0 0 Z"/>
      </clipPath>
      <clipPath clipPathUnits="userSpaceOnUse" id="clipPath2">
        <path d="M88 58 L1058 58 L1058 496 L88 496 L88 58 Z"/>
      </clipPath>
    </defs>
    <g text-rendering="geometricPrecision" stroke-miterlimit="1.45" shape-rendering="geometricPrecision" transform="matrix(1,0,0,1,-88,-58)" stroke-linecap="butt">
      <rect fill="none" x="217.1064" width="200" height="75" y="330.2375" clip-path="url(#clipPath2)"/>
    </g>
    <g font-size="24px" stroke-linecap="butt" transform="matrix(1,0,0,1,-88,-58)" text-rendering="geometricPrecision" font-family="sans-serif" shape-rendering="geometricPrecision" stroke-miterlimit="1.45">
      <text x="310.4326" xml:space="preserve" y="377.1652" clip-path="url(#clipPath2)" stroke="none">8</text>
      <rect fill="none" x="217.1064" width="200" height="75" y="255.2375" clip-path="url(#clipPath2)"/>
      <rect fill="none" x="417.1064" width="200" height="75" y="255.2375" clip-path="url(#clipPath2)"/>
      <rect fill="none" x="617.1064" width="200" height="75" y="255.2375" clip-path="url(#clipPath2)"/>
      <rect fill="none" x="817.1064" width="200" height="75" y="255.2375" clip-path="url(#clipPath2)"/>
      <rect fill="none" x="417.1064" width="200" height="75" y="330.4269" clip-path="url(#clipPath2)"/>
      <rect fill="none" x="617.1064" width="200" height="75" y="330.4269" clip-path="url(#clipPath2)"/>
      <rect fill="none" x="817.1064" width="200" height="75" y="330.4269" clip-path="url(#clipPath2)"/>
      <rect fill="none" x="217.1064" width="200" height="75" y="405.6163" clip-path="url(#clipPath2)"/>
      <rect fill="none" x="417.1064" width="200" height="75" y="405.6163" clip-path="url(#clipPath2)"/>
      <rect fill="none" x="617.1064" width="200" height="75" y="405.6163" clip-path="url(#clipPath2)"/>
      <rect fill="none" x="817.1064" width="200" height="75" y="405.6163" clip-path="url(#clipPath2)"/>
      <rect fill="none" x="217.1064" width="75" height="50" y="73.0564" clip-path="url(#clipPath2)"/>
      <text x="245.9404" xml:space="preserve" y="107.4841" clip-path="url(#clipPath2)" stroke="none">N</text>
      <rect fill="none" x="292.1064" width="75" height="50" y="73.0564" clip-path="url(#clipPath2)"/>
      <rect fill="none" x="367.1064" width="75" height="50" y="73.0564" clip-path="url(#clipPath2)"/>
      <text x="391.2588" xml:space="preserve" y="107.4841" clip-path="url(#clipPath2)" stroke="none">L1</text>
      <rect fill="none" x="442.1064" width="75" height="50" y="73.0564" clip-path="url(#clipPath2)"/>
      <rect fill="none" x="517.1064" width="75" height="50" y="73.0564" clip-path="url(#clipPath2)"/>
      <rect fill="none" x="592.1064" width="75" height="50" y="73.0564" clip-path="url(#clipPath2)"/>
      <rect fill="none" x="667.1064" width="75" height="50" y="73.0564" clip-path="url(#clipPath2)"/>
      <rect fill="none" x="742.1064" width="75" height="50" y="73.0564" clip-path="url(#clipPath2)"/>
      <rect fill="none" x="817.1064" width="75" height="50" y="73.0564" clip-path="url(#clipPath2)"/>
      <rect fill="none" x="892.1064" width="75" height="50" y="73.0564" clip-path="url(#clipPath2)"/>
      <rect fill="none" x="967.1064" width="75" height="50" y="73.0564" clip-path="url(#clipPath2)"/>
    </g>
    <g fill="rgb(255,255,153)" text-rendering="geometricPrecision" shape-rendering="geometricPrecision" transform="matrix(1,0,0,1,-88,-58)" stroke="rgb(255,255,153)">
      <rect x="103.0439" width="114.0625" height="50" y="73.0564" clip-path="url(#clipPath2)" stroke="none"/>
    </g>
    <g text-rendering="geometricPrecision" stroke-miterlimit="1.45" shape-rendering="geometricPrecision" transform="matrix(1,0,0,1,-88,-58)" stroke-linecap="butt">
      <rect fill="none" x="103.0439" width="114.0625" height="50" y="73.0564" clip-path="url(#clipPath2)"/>
      <text x="110.0478" font-size="24px" y="107.4841" clip-path="url(#clipPath2)" font-family="sans-serif" stroke="none" xml:space="preserve">Variables</text>
    </g>
    <g fill="rgb(255,255,153)" text-rendering="geometricPrecision" shape-rendering="geometricPrecision" transform="matrix(1,0,0,1,-88,-58)" stroke="rgb(255,255,153)">
      <rect x="103.0439" width="114.0625" height="50" y="255.2375" clip-path="url(#clipPath2)" stroke="none"/>
    </g>
    <g text-rendering="geometricPrecision" stroke-miterlimit="1.45" shape-rendering="geometricPrecision" transform="matrix(1,0,0,1,-88,-58)" stroke-linecap="butt">
      <rect fill="none" x="103.0439" width="114.0625" height="50" y="255.2375" clip-path="url(#clipPath2)"/>
      <text x="113.3994" font-size="24px" y="289.6652" clip-path="url(#clipPath2)" font-family="sans-serif" stroke="none" xml:space="preserve">Memoria</text>
    </g>
    <g transform="matrix(1,0,0,1,-88,-58)" fill-opacity="0.498" fill="rgb(255,102,0)" text-rendering="geometricPrecision" shape-rendering="geometricPrecision" stroke="rgb(255,102,0)" stroke-opacity="0.498">
      <rect x="502.1064" width="30" height="30" y="428.1163" clip-path="url(#clipPath2)" stroke="none"/>
    </g>
    <g text-rendering="geometricPrecision" stroke-miterlimit="1.45" shape-rendering="geometricPrecision" transform="matrix(1,0,0,1,-88,-58)" stroke-linecap="butt">
      <rect fill="none" x="502.1064" width="30" height="30" y="428.1163" clip-path="url(#clipPath2)"/>
      <text x="510.4326" font-size="24px" y="452.544" clip-path="url(#clipPath2)" font-family="sans-serif" stroke="none" xml:space="preserve">1</text>
    </g>
    <g transform="matrix(1,0,0,1,-88,-58)" fill-opacity="0.498" fill="rgb(0,0,255)" text-rendering="geometricPrecision" shape-rendering="geometricPrecision" stroke="rgb(0,0,255)" stroke-opacity="0.498">
      <rect x="702.1064" width="30" height="30" y="428.1163" clip-path="url(#clipPath2)" stroke="none"/>
    </g>
    <g text-rendering="geometricPrecision" stroke-miterlimit="1.45" shape-rendering="geometricPrecision" transform="matrix(1,0,0,1,-88,-58)" stroke-linecap="butt">
      <rect fill="none" x="702.1064" width="30" height="30" y="428.1163" clip-path="url(#clipPath2)"/>
      <text x="710.4326" font-size="24px" y="452.544" clip-path="url(#clipPath2)" font-family="sans-serif" stroke="none" xml:space="preserve">2</text>
    </g>
    <g transform="matrix(1,0,0,1,-88,-58)" fill-opacity="0.498" fill="rgb(255,102,0)" text-rendering="geometricPrecision" shape-rendering="geometricPrecision" stroke="rgb(255,102,0)" stroke-opacity="0.498">
      <rect x="702.1064" width="30" height="30" y="277.7375" clip-path="url(#clipPath2)" stroke="none"/>
    </g>
    <g text-rendering="geometricPrecision" stroke-miterlimit="1.45" shape-rendering="geometricPrecision" transform="matrix(1,0,0,1,-88,-58)" stroke-linecap="butt">
      <rect fill="none" x="702.1064" width="30" height="30" y="277.7375" clip-path="url(#clipPath2)"/>
      <text x="710.4326" font-size="24px" y="302.1652" clip-path="url(#clipPath2)" font-family="sans-serif" stroke="none" xml:space="preserve">1</text>
    </g>
    <g transform="matrix(1,0,0,1,-88,-58)" fill-opacity="0.498" fill="rgb(0,0,255)" text-rendering="geometricPrecision" shape-rendering="geometricPrecision" stroke="rgb(0,0,255)" stroke-opacity="0.498">
      <rect x="902.1064" width="30" height="30" y="352.9269" clip-path="url(#clipPath2)" stroke="none"/>
    </g>
    <g text-rendering="geometricPrecision" stroke-miterlimit="1.45" shape-rendering="geometricPrecision" transform="matrix(1,0,0,1,-88,-58)" stroke-linecap="butt">
      <rect fill="none" x="902.1064" width="30" height="30" y="352.9269" clip-path="url(#clipPath2)"/>
      <text x="910.4326" font-size="24px" y="377.3546" clip-path="url(#clipPath2)" font-family="sans-serif" stroke="none" xml:space="preserve">2</text>
    </g>
    <g transform="matrix(1,0,0,1,-88,-58)" fill-opacity="0.498" fill="rgb(0,128,0)" text-rendering="geometricPrecision" shape-rendering="geometricPrecision" stroke="rgb(0,128,0)" stroke-opacity="0.498">
      <rect x="902.1064" width="30" height="30" y="428.1163" clip-path="url(#clipPath2)" stroke="none"/>
    </g>
    <g text-rendering="geometricPrecision" stroke-miterlimit="1.45" shape-rendering="geometricPrecision" transform="matrix(1,0,0,1,-88,-58)" stroke-linecap="butt">
      <rect fill="none" x="902.1064" width="30" height="30" y="428.1163" clip-path="url(#clipPath2)"/>
      <text x="910.4326" font-size="24px" y="452.544" clip-path="url(#clipPath2)" font-family="sans-serif" stroke="none" xml:space="preserve">3</text>
      <path fill="none" stroke-dasharray="12,4" d="M260.382 123.0502 L261.5185 128.1481 L263.0596 136.0823 L264.375 144.2812 L265.4196 152.7979 L266.1481 161.6852 L266.5156 170.9961 L266.4769 180.7836 L265.9867 191.1006 L265 202 L263.4867 213.5172 L261.4768 225.6169 L259.0156 238.2461 L256.1481 251.3519 L252.9196 264.8812 L249.375 278.7812 L245.5596 292.999 L241.5185 307.4815 L237.2969 322.1758 L232.9398 337.0289 L229.5683 348.3695 L229.5396 348.4653" stroke-width="2" clip-path="url(#clipPath2)"/>
      <path stroke-dasharray="12,4" d="M225.9983 360.3228 L236.3292 349.319 L223.3938 345.4557 Z" stroke-width="2" clip-path="url(#clipPath2)" stroke="none"/>
      <path fill="none" stroke-dasharray="12,4" d="M401.9435 123.0656 L401.9457 124.7506 L402.5501 130.9035 L403.9 136.7 L406.1443 142.0687 L409.4321 146.9383 L413.9125 151.2375 L419.7346 154.8951 L427.0474 157.8397 L436 160 L446.6665 161.3471 L458.821 162.0216 L472.1625 162.2063 L486.3901 162.084 L501.2029 161.8376 L516.3 161.65 L531.3804 161.7041 L546.1432 162.1827 L560.2875 163.2688 L573.5123 165.1451 L585.5168 167.9945 L596 172 L604.7365 177.2953 L611.8025 183.8179 L617.35 191.4563 L621.5309 200.0988 L624.4969 209.6339 L626.4 219.95 L627.392 230.9356 L627.6247 242.479 L627.25 254.4688 L626.4197 266.7932 L625.8672 272.9067 L625.8571 273.0062" stroke-width="2" clip-path="url(#clipPath2)"/>
      <path stroke-dasharray="12,4" d="M624.6786 285.3249 L632.6836 272.5291 L619.2449 271.2434 Z" stroke-width="2" clip-path="url(#clipPath2)" stroke="none"/>
      <path fill="none" d="M532.1064 443.1163 L688.3564 443.1163" stroke-width="3" clip-path="url(#clipPath2)"/>
      <path d="M702.1064 443.1163 L687.1064 435.6163 L687.1064 450.6163 Z" stroke-width="3" clip-path="url(#clipPath2)" stroke="none"/>
      <path fill="none" d="M732.0976 291.0513 L733.9144 290.9433 L742.3672 290.543 L750.8148 290.2963 L759.2555 290.2545 L767.6875 290.4688 L776.1091 290.9903 L784.5185 291.8704 L792.9141 293.1602 L801.294 294.9109 L809.6566 297.1738 L818 300 L826.3232 303.4238 L834.6273 307.4109 L842.9141 311.9102 L851.1852 316.8704 L859.4424 322.2403 L867.6875 327.9688 L875.9222 334.0045 L884.1481 340.2963 L891.4023 346.0303 L891.48 346.0933" stroke-width="3" clip-path="url(#clipPath2)"/>
      <path d="M902.1661 354.746 L895.2282 339.4779 L885.7889 351.1355 Z" stroke-width="3" clip-path="url(#clipPath2)" stroke="none"/>
      <path fill="none" d="M917.1064 382.9269 L917.1064 414.3663" stroke-width="3" clip-path="url(#clipPath2)"/>
      <path d="M917.1064 428.1163 L924.6064 413.1163 L909.6064 413.1163 Z" stroke-width="3" clip-path="url(#clipPath2)" stroke="none"/>
    </g>
  </g>
</svg>
