<svg width="2858" height="1404" xmlns="http://www.w3.org/2000/svg" xmlns:xlink="http://www.w3.org/1999/xlink" xml:space="preserve" overflow="hidden"><defs><clipPath id="clip0"><rect x="351" y="641" width="2858" height="1404"/></clipPath></defs><g clip-path="url(#clip0)" transform="translate(-351 -641)"><path d="M351 852.125 2960.06 852.125 2960.06 865.875 351 865.875ZM2953.19 838.375 2994.44 859 2953.19 879.625Z"/><path d="M813.5 921.501C813.5 910.455 822.455 901.5 833.501 901.5L913.5 901.5C924.546 901.5 933.5 910.455 933.5 921.501L933.5 1026.5C933.5 1037.55 924.546 1046.5 913.5 1046.5L833.501 1046.5C822.455 1046.5 813.5 1037.55 813.5 1026.5Z" stroke="#000000" stroke-width="3.4375" stroke-linejoin="round" stroke-miterlimit="10" fill="none" fill-rule="evenodd"/><text font-family="Calibri,Calibri_MSFontService,sans-serif" font-weight="400" font-size="83" transform="matrix(1 0 0 1 851.776 1000)">2</text><path d="M1074.5 921.667C1074.5 910.529 1083.53 901.5 1094.67 901.5L1175.33 901.5C1186.47 901.5 1195.5 910.529 1195.5 921.667L1195.5 1026.33C1195.5 1037.47 1186.47 1046.5 1175.33 1046.5L1094.67 1046.5C1083.53 1046.5 1074.5 1037.47 1074.5 1026.33Z" stroke="#000000" stroke-width="3.4375" stroke-linejoin="round" stroke-miterlimit="10" fill="none" fill-rule="evenodd"/><text font-family="Calibri,Calibri_MSFontService,sans-serif" font-weight="400" font-size="83" transform="matrix(1 0 0 1 1113.03 1000)">3</text><path d="M1335.5 921.667C1335.5 910.529 1344.53 901.5 1355.67 901.5L1436.33 901.5C1447.47 901.5 1456.5 910.529 1456.5 921.667L1456.5 1026.33C1456.5 1037.47 1447.47 1046.5 1436.33 1046.5L1355.67 1046.5C1344.53 1046.5 1335.5 1037.47 1335.5 1026.33Z" stroke="#000000" stroke-width="3.4375" stroke-linejoin="round" stroke-miterlimit="10" fill="none" fill-rule="evenodd"/><text font-family="Calibri,Calibri_MSFontService,sans-serif" font-weight="400" font-size="83" transform="matrix(1 0 0 1 1374.28 1000)">4</text><path d="M1588.5 921.667C1588.5 910.529 1597.53 901.5 1608.67 901.5L1689.33 901.5C1700.47 901.5 1709.5 910.529 1709.5 921.667L1709.5 1026.33C1709.5 1037.47 1700.47 1046.5 1689.33 1046.5L1608.67 1046.5C1597.53 1046.5 1588.5 1037.47 1588.5 1026.33Z" stroke="#000000" stroke-width="3.4375" stroke-linejoin="round" stroke-miterlimit="10" fill="none" fill-rule="evenodd"/><text font-family="Calibri,Calibri_MSFontService,sans-serif" font-weight="400" font-size="83" transform="matrix(1 0 0 1 1627.01 1000)">5</text><path d="M1851.5 921.501C1851.5 910.455 1860.45 901.5 1871.5 901.5L1951.5 901.5C1962.55 901.5 1971.5 910.455 1971.5 921.501L1971.5 1026.5C1971.5 1037.55 1962.55 1046.5 1951.5 1046.5L1871.5 1046.5C1860.45 1046.5 1851.5 1037.55 1851.5 1026.5Z" stroke="#000000" stroke-width="3.4375" stroke-linejoin="round" stroke-miterlimit="10" fill="none" fill-rule="evenodd"/><text font-family="Calibri,Calibri_MSFontService,sans-serif" font-weight="400" font-size="83" transform="matrix(1 0 0 1 1889.9 1000)">6</text><path d="M2112.5 921.667C2112.5 910.529 2121.53 901.5 2132.67 901.5L2213.33 901.5C2224.47 901.5 2233.5 910.529 2233.5 921.667L2233.5 1026.33C2233.5 1037.47 2224.47 1046.5 2213.33 1046.5L2132.67 1046.5C2121.53 1046.5 2112.5 1037.47 2112.5 1026.33Z" stroke="#000000" stroke-width="3.4375" stroke-linejoin="round" stroke-miterlimit="10" fill="none" fill-rule="evenodd"/><text font-family="Calibri,Calibri_MSFontService,sans-serif" font-weight="400" font-size="83" transform="matrix(1 0 0 1 2151.08 1000)">7</text><path d="M2374.5 921.501C2374.5 910.455 2383.45 901.5 2394.5 901.5L2474.5 901.5C2485.55 901.5 2494.5 910.455 2494.5 921.501L2494.5 1026.5C2494.5 1037.55 2485.55 1046.5 2474.5 1046.5L2394.5 1046.5C2383.45 1046.5 2374.5 1037.55 2374.5 1026.5Z" stroke="#000000" stroke-width="3.4375" stroke-linejoin="round" stroke-miterlimit="10" fill="none" fill-rule="evenodd"/><text font-family="Calibri,Calibri_MSFontService,sans-serif" font-weight="400" font-size="83" transform="matrix(1 0 0 1 2412.4 1000)">8</text><path d="M2631.5 921.667C2631.5 910.529 2640.53 901.5 2651.67 901.5L2732.33 901.5C2743.47 901.5 2752.5 910.529 2752.5 921.667L2752.5 1026.33C2752.5 1037.47 2743.47 1046.5 2732.33 1046.5L2651.67 1046.5C2640.53 1046.5 2631.5 1037.47 2631.5 1026.33Z" stroke="#000000" stroke-width="3.4375" stroke-linejoin="round" stroke-miterlimit="10" fill="none" fill-rule="evenodd"/><text font-family="Calibri,Calibri_MSFontService,sans-serif" font-weight="400" font-size="83" transform="matrix(1 0 0 1 2670.14 1000)">9</text><path d="M2874.5 926.167C2874.5 912.544 2885.54 901.5 2899.17 901.5L3013.83 901.5C3027.46 901.5 3038.5 912.544 3038.5 926.167L3038.5 1024.83C3038.5 1038.46 3027.46 1049.5 3013.83 1049.5L2899.17 1049.5C2885.54 1049.5 2874.5 1038.46 2874.5 1024.83Z" stroke="#000000" stroke-width="3.4375" stroke-linejoin="round" stroke-miterlimit="10" fill="none" fill-rule="evenodd"/><text font-family="Calibri,Calibri_MSFontService,sans-serif" font-weight="400" font-size="83" transform="matrix(1 0 0 1 2913.95 1002)">10</text><rect x="781" y="648" width="2421" height="1390" stroke="#900090" stroke-width="13.75" stroke-miterlimit="8" fill="none"/><rect x="1037" y="685" width="2129" height="1130" stroke="#FF7700" stroke-width="13.75" stroke-miterlimit="8" fill="none"/><rect x="1559" y="718" width="1572" height="870" stroke="#00AA00" stroke-width="13.75" stroke-miterlimit="8" fill="none"/><path d="M1588 1418.5C1588 1404.97 1598.97 1394 1612.5 1394L2138.5 1394C2152.03 1394 2163 1404.97 2163 1418.5L2163 1516.5C2163 1530.03 2152.03 1541 2138.5 1541L1612.5 1541C1598.97 1541 1588 1530.03 1588 1516.5Z" stroke="#00AA00" stroke-width="10.3125" stroke-linejoin="round" stroke-miterlimit="10" fill="none" fill-rule="evenodd"/><text font-family="Courier New,Courier New_MSFontService,sans-serif" font-weight="400" font-size="83" transform="matrix(1 0 0 1 1628.32 1490)">i_esimo<tspan font-size="83" x="344.896" y="0">(2)</tspan></text><path d="M1072 1651.67C1072 1638.04 1083.04 1627 1096.67 1627L1622.33 1627C1635.96 1627 1647 1638.04 1647 1651.67L1647 1750.33C1647 1763.96 1635.96 1775 1622.33 1775L1096.67 1775C1083.04 1775 1072 1763.96 1072 1750.33Z" stroke="#FF7700" stroke-width="10.3125" stroke-linejoin="round" stroke-miterlimit="10" fill="none" fill-rule="evenodd"/><text font-family="Courier New,Courier New_MSFontService,sans-serif" font-weight="400" font-size="83" transform="matrix(1 0 0 1 1112.04 1724)">i_esimo<tspan font-size="83" x="344.896" y="0">(3)</tspan></text><path d="M816 1879.67C816 1866.04 827.044 1855 840.667 1855L1366.33 1855C1379.96 1855 1391 1866.04 1391 1879.67L1391 1978.33C1391 1991.96 1379.96 2003 1366.33 2003L840.667 2003C827.044 2003 816 1991.96 816 1978.33Z" stroke="#900090" stroke-width="10.3125" stroke-linejoin="round" stroke-miterlimit="10" fill="none" fill-rule="evenodd"/><text font-family="Courier New,Courier New_MSFontService,sans-serif" font-weight="400" font-size="83" transform="matrix(1 0 0 1 856.376 1952)">i_esimo(4)</text><rect x="2073" y="752" width="1027" height="598" stroke="#00B0F0" stroke-width="13.75" stroke-miterlimit="8" fill="none"/><path d="M2112 1200.67C2112 1187.04 2123.04 1176 2136.67 1176L2662.33 1176C2675.96 1176 2687 1187.04 2687 1200.67L2687 1299.33C2687 1312.96 2675.96 1324 2662.33 1324L2136.67 1324C2123.04 1324 2112 1312.96 2112 1299.33Z" stroke="#00B0F0" stroke-width="10.3125" stroke-linejoin="round" stroke-miterlimit="10" fill="none" fill-rule="evenodd"/><text font-family="Courier New,Courier New_MSFontService,sans-serif" font-weight="400" font-size="83" transform="matrix(1 0 0 1 2152.4 1273)">i_esimo<tspan font-size="83" x="344.896" y="0">(1)</tspan></text></g></svg>