<?xml version="1.0" encoding="UTF-8"?><svg xmlns="http://www.w3.org/2000/svg" xmlns:xlink="http://www.w3.org/1999/xlink" fill-opacity="1" color-rendering="auto" color-interpolation="auto" text-rendering="auto" stroke="black" stroke-linecap="square" width="357" stroke-miterlimit="10" shape-rendering="auto" stroke-opacity="1" fill="black" stroke-dasharray="none" font-weight="normal" stroke-width="1" height="285" font-family="'Dialog'" font-style="normal" stroke-linejoin="miter" font-size="12px" stroke-dashoffset="0" image-rendering="auto">
  <!--Generated by ySVG 2.5-->
  <defs id="genericDefs"/>
  <g>
    <defs id="defs1">
      <clipPath clipPathUnits="userSpaceOnUse" id="clipPath1">
        <path d="M0 0 L357 0 L357 285 L0 285 L0 0 Z"/>
      </clipPath>
      <clipPath clipPathUnits="userSpaceOnUse" id="clipPath2">
        <path d="M608 400 L965 400 L965 685 L608 685 L608 400 Z"/>
      </clipPath>
    </defs>
    <g fill="rgb(255,204,0)" text-rendering="geometricPrecision" shape-rendering="geometricPrecision" transform="matrix(1,0,0,1,-608,-400)" stroke="rgb(255,204,0)">
      <circle r="15" clip-path="url(#clipPath2)" cx="808.48" cy="470.6" stroke="none"/>
    </g>
    <g text-rendering="geometricPrecision" stroke-miterlimit="1.45" shape-rendering="geometricPrecision" transform="matrix(1,0,0,1,-608,-400)" stroke-linecap="butt">
      <circle fill="none" r="15" clip-path="url(#clipPath2)" cx="808.48" cy="470.6"/>
      <text x="801.8062" xml:space="preserve" y="475.3139" clip-path="url(#clipPath2)" font-family="sans-serif" stroke="none">25</text>
    </g>
    <g fill="rgb(255,204,0)" text-rendering="geometricPrecision" shape-rendering="geometricPrecision" transform="matrix(1,0,0,1,-608,-400)" stroke="rgb(255,204,0)">
      <circle r="15" clip-path="url(#clipPath2)" cx="890.98" cy="530.6" stroke="none"/>
    </g>
    <g text-rendering="geometricPrecision" stroke-miterlimit="1.45" shape-rendering="geometricPrecision" transform="matrix(1,0,0,1,-608,-400)" stroke-linecap="butt">
      <circle fill="none" r="15" clip-path="url(#clipPath2)" cx="890.98" cy="530.6"/>
      <text x="887.6431" xml:space="preserve" y="535.3138" clip-path="url(#clipPath2)" font-family="sans-serif" stroke="none">9</text>
    </g>
    <g fill="rgb(255,204,0)" text-rendering="geometricPrecision" shape-rendering="geometricPrecision" transform="matrix(1,0,0,1,-608,-400)" stroke="rgb(255,204,0)">
      <circle r="15" clip-path="url(#clipPath2)" cx="860.98" cy="590.6" stroke="none"/>
    </g>
    <g text-rendering="geometricPrecision" stroke-miterlimit="1.45" shape-rendering="geometricPrecision" transform="matrix(1,0,0,1,-608,-400)" stroke-linecap="butt">
      <circle fill="none" r="15" clip-path="url(#clipPath2)" cx="860.98" cy="590.6"/>
      <text x="854.3062" xml:space="preserve" y="595.3138" clip-path="url(#clipPath2)" font-family="sans-serif" stroke="none">39</text>
    </g>
    <g fill="rgb(255,204,0)" text-rendering="geometricPrecision" shape-rendering="geometricPrecision" transform="matrix(1,0,0,1,-608,-400)" stroke="rgb(255,204,0)">
      <circle r="15" clip-path="url(#clipPath2)" cx="725.98" cy="530.6" stroke="none"/>
    </g>
    <g text-rendering="geometricPrecision" stroke-miterlimit="1.45" shape-rendering="geometricPrecision" transform="matrix(1,0,0,1,-608,-400)" stroke-linecap="butt">
      <circle fill="none" r="15" clip-path="url(#clipPath2)" cx="725.98" cy="530.6"/>
      <text x="719.3062" xml:space="preserve" y="535.3138" clip-path="url(#clipPath2)" font-family="sans-serif" stroke="none">16</text>
    </g>
    <g fill="rgb(255,204,0)" text-rendering="geometricPrecision" shape-rendering="geometricPrecision" transform="matrix(1,0,0,1,-608,-400)" stroke="rgb(255,204,0)">
      <circle r="15" clip-path="url(#clipPath2)" cx="680.98" cy="590.6" stroke="none"/>
    </g>
    <g text-rendering="geometricPrecision" stroke-miterlimit="1.45" shape-rendering="geometricPrecision" transform="matrix(1,0,0,1,-608,-400)" stroke-linecap="butt">
      <circle fill="none" r="15" clip-path="url(#clipPath2)" cx="680.98" cy="590.6"/>
      <text x="674.3062" xml:space="preserve" y="595.3138" clip-path="url(#clipPath2)" font-family="sans-serif" stroke="none">26</text>
    </g>
    <g fill="rgb(255,204,0)" text-rendering="geometricPrecision" shape-rendering="geometricPrecision" transform="matrix(1,0,0,1,-608,-400)" stroke="rgb(255,204,0)">
      <circle r="15" clip-path="url(#clipPath2)" cx="770.98" cy="590.6" stroke="none"/>
    </g>
    <g text-rendering="geometricPrecision" stroke-miterlimit="1.45" shape-rendering="geometricPrecision" transform="matrix(1,0,0,1,-608,-400)" stroke-linecap="butt">
      <circle fill="none" r="15" clip-path="url(#clipPath2)" cx="770.98" cy="590.6"/>
      <text x="764.3062" xml:space="preserve" y="595.3138" clip-path="url(#clipPath2)" font-family="sans-serif" stroke="none">31</text>
    </g>
    <g fill="rgb(255,204,0)" text-rendering="geometricPrecision" shape-rendering="geometricPrecision" transform="matrix(1,0,0,1,-608,-400)" stroke="rgb(255,204,0)">
      <circle r="15" clip-path="url(#clipPath2)" cx="740.98" cy="650.6" stroke="none"/>
    </g>
    <g text-rendering="geometricPrecision" stroke-miterlimit="1.45" shape-rendering="geometricPrecision" transform="matrix(1,0,0,1,-608,-400)" stroke-linecap="butt">
      <circle fill="none" r="15" clip-path="url(#clipPath2)" cx="740.98" cy="650.6"/>
      <text x="734.3062" xml:space="preserve" y="655.3138" clip-path="url(#clipPath2)" font-family="sans-serif" stroke="none">40</text>
    </g>
    <g fill="rgb(255,204,0)" text-rendering="geometricPrecision" shape-rendering="geometricPrecision" transform="matrix(1,0,0,1,-608,-400)" stroke="rgb(255,204,0)">
      <circle r="15" clip-path="url(#clipPath2)" cx="800.98" cy="650.6" stroke="none"/>
    </g>
    <g text-rendering="geometricPrecision" stroke-miterlimit="1.45" shape-rendering="geometricPrecision" transform="matrix(1,0,0,1,-608,-400)" stroke-linecap="butt">
      <circle fill="none" r="15" clip-path="url(#clipPath2)" cx="800.98" cy="650.6"/>
      <text x="797.6431" xml:space="preserve" y="655.3138" clip-path="url(#clipPath2)" font-family="sans-serif" stroke="none">5</text>
    </g>
    <g transform="matrix(1,0,0,1,-608,-400)" fill-opacity="0.498" fill="rgb(255,0,0)" text-rendering="geometricPrecision" shape-rendering="geometricPrecision" stroke="rgb(255,0,0)" stroke-opacity="0.498">
      <rect x="755.98" width="30" height="20" y="415.8" clip-path="url(#clipPath2)" stroke="none"/>
    </g>
    <g text-rendering="geometricPrecision" stroke-miterlimit="1.45" shape-rendering="geometricPrecision" transform="matrix(1,0,0,1,-608,-400)" stroke-linecap="butt">
      <rect fill="none" x="755.98" width="30" height="20" y="415.8" clip-path="url(#clipPath2)"/>
      <text x="761.312" xml:space="preserve" y="430.5139" clip-path="url(#clipPath2)" font-family="sans-serif" stroke="none">raiz</text>
      <rect fill="none" x="919.86" width="30" height="20" y="508.2" clip-path="url(#clipPath2)"/>
      <text x="922.0192" xml:space="preserve" y="522.9139" clip-path="url(#clipPath2)" font-family="sans-serif" stroke="none">H= 2</text>
      <rect fill="none" x="623.96" width="30" height="20" y="508.2" clip-path="url(#clipPath2)"/>
      <text x="626.1192" xml:space="preserve" y="522.9139" clip-path="url(#clipPath2)" font-family="sans-serif" stroke="none">H= 3</text>
      <rect x="662.22" y="508.2" clip-path="url(#clipPath2)" fill="none" width="158" stroke-dasharray="6,2" height="161.2"/>
      <rect x="828.48" y="508.2" clip-path="url(#clipPath2)" fill="none" width="83.12" stroke-dasharray="6,2" height="100.4"/>
      <path fill="none" d="M820.611 479.4226 L869.9529 515.3076" clip-path="url(#clipPath2)"/>
      <path d="M878.849 521.7775 L872.6732 509.867 L865.6151 519.5718 Z" clip-path="url(#clipPath2)" stroke="none"/>
      <path fill="none" d="M884.2718 544.0164 L872.6075 567.3449" clip-path="url(#clipPath2)"/>
      <path d="M867.6882 577.1836 L878.4213 569.1337 L867.6882 563.7672 Z" clip-path="url(#clipPath2)" stroke="none"/>
      <path fill="none" d="M796.3489 479.4226 L747.0071 515.3076" clip-path="url(#clipPath2)"/>
      <path d="M738.111 521.7774 L751.3449 519.5718 L744.2869 509.8669 Z" clip-path="url(#clipPath2)" stroke="none"/>
      <path fill="none" d="M716.98 542.6 L696.58 569.8" clip-path="url(#clipPath2)"/>
      <path d="M689.98 578.6 L701.98 572.6 L692.38 565.4 Z" clip-path="url(#clipPath2)" stroke="none"/>
      <path fill="none" d="M734.98 542.6 L755.38 569.8" clip-path="url(#clipPath2)"/>
      <path d="M761.98 578.6 L759.58 565.4 L749.98 572.6 Z" clip-path="url(#clipPath2)" stroke="none"/>
      <path fill="none" d="M764.2718 604.0164 L752.6075 627.3449" clip-path="url(#clipPath2)"/>
      <path d="M747.6882 637.1836 L758.4213 629.1337 L747.6882 623.7672 Z" clip-path="url(#clipPath2)" stroke="none"/>
      <path fill="none" d="M777.6882 604.0164 L789.3524 627.3449" clip-path="url(#clipPath2)"/>
      <path d="M794.2718 637.1836 L794.2717 623.7672 L783.5386 629.1338 Z" clip-path="url(#clipPath2)" stroke="none"/>
      <path fill="none" d="M785.98 425.6006 L808.48 425.3015 L808.48 444.6" clip-path="url(#clipPath2)"/>
      <path d="M808.48 455.6 L814.48 443.6 L802.48 443.6 Z" clip-path="url(#clipPath2)" stroke="none"/>
    </g>
  </g>
</svg>
