<?xml version="1.0" encoding="UTF-8"?><svg xmlns="http://www.w3.org/2000/svg" xmlns:xlink="http://www.w3.org/1999/xlink" fill-opacity="1" color-rendering="auto" color-interpolation="auto" text-rendering="auto" stroke="black" stroke-linecap="square" width="319" stroke-miterlimit="10" shape-rendering="auto" stroke-opacity="1" fill="black" stroke-dasharray="none" font-weight="normal" stroke-width="1" height="285" font-family="'Dialog'" font-style="normal" stroke-linejoin="miter" font-size="12px" stroke-dashoffset="0" image-rendering="auto">
  <!--Generated by ySVG 2.5-->
  <defs id="genericDefs"/>
  <g>
    <defs id="defs1">
      <clipPath clipPathUnits="userSpaceOnUse" id="clipPath1">
        <path d="M0 0 L319 0 L319 285 L0 285 L0 0 Z"/>
      </clipPath>
      <clipPath clipPathUnits="userSpaceOnUse" id="clipPath2">
        <path d="M633 426 L952 426 L952 711 L633 711 L633 426 Z"/>
      </clipPath>
    </defs>
    <g fill="rgb(255,204,0)" text-rendering="geometricPrecision" shape-rendering="geometricPrecision" transform="matrix(1,0,0,1,-633,-426)" stroke="rgb(255,204,0)">
      <circle r="15" clip-path="url(#clipPath2)" cx="833.94" cy="496.4" stroke="none"/>
    </g>
    <g text-rendering="geometricPrecision" stroke-miterlimit="1.45" shape-rendering="geometricPrecision" transform="matrix(1,0,0,1,-633,-426)" stroke-linecap="butt">
      <circle fill="none" r="15" clip-path="url(#clipPath2)" cx="833.94" cy="496.4"/>
      <text x="827.2662" xml:space="preserve" y="501.1139" clip-path="url(#clipPath2)" font-family="sans-serif" stroke="none">25</text>
    </g>
    <g fill="rgb(255,204,0)" text-rendering="geometricPrecision" shape-rendering="geometricPrecision" transform="matrix(1,0,0,1,-633,-426)" stroke="rgb(255,204,0)">
      <circle r="15" clip-path="url(#clipPath2)" cx="916.44" cy="556.4" stroke="none"/>
    </g>
    <g text-rendering="geometricPrecision" stroke-miterlimit="1.45" shape-rendering="geometricPrecision" transform="matrix(1,0,0,1,-633,-426)" stroke-linecap="butt">
      <circle fill="none" r="15" clip-path="url(#clipPath2)" cx="916.44" cy="556.4"/>
      <text x="913.1031" xml:space="preserve" y="561.1139" clip-path="url(#clipPath2)" font-family="sans-serif" stroke="none">9</text>
    </g>
    <g fill="rgb(255,204,0)" text-rendering="geometricPrecision" shape-rendering="geometricPrecision" transform="matrix(1,0,0,1,-633,-426)" stroke="rgb(255,204,0)">
      <circle r="15" clip-path="url(#clipPath2)" cx="886.44" cy="616.4" stroke="none"/>
    </g>
    <g text-rendering="geometricPrecision" stroke-miterlimit="1.45" shape-rendering="geometricPrecision" transform="matrix(1,0,0,1,-633,-426)" stroke-linecap="butt">
      <circle fill="none" r="15" clip-path="url(#clipPath2)" cx="886.44" cy="616.4"/>
      <text x="879.7662" xml:space="preserve" y="621.1139" clip-path="url(#clipPath2)" font-family="sans-serif" stroke="none">39</text>
    </g>
    <g fill="rgb(255,204,0)" text-rendering="geometricPrecision" shape-rendering="geometricPrecision" transform="matrix(1,0,0,1,-633,-426)" stroke="rgb(255,204,0)">
      <circle r="15" clip-path="url(#clipPath2)" cx="751.44" cy="556.4" stroke="none"/>
    </g>
    <g text-rendering="geometricPrecision" stroke-miterlimit="1.45" shape-rendering="geometricPrecision" transform="matrix(1,0,0,1,-633,-426)" stroke-linecap="butt">
      <circle fill="none" r="15" clip-path="url(#clipPath2)" cx="751.44" cy="556.4"/>
      <text x="744.7662" xml:space="preserve" y="561.1139" clip-path="url(#clipPath2)" font-family="sans-serif" stroke="none">16</text>
    </g>
    <g fill="rgb(255,204,0)" text-rendering="geometricPrecision" shape-rendering="geometricPrecision" transform="matrix(1,0,0,1,-633,-426)" stroke="rgb(255,204,0)">
      <circle r="15" clip-path="url(#clipPath2)" cx="706.44" cy="616.4" stroke="none"/>
    </g>
    <g text-rendering="geometricPrecision" stroke-miterlimit="1.45" shape-rendering="geometricPrecision" transform="matrix(1,0,0,1,-633,-426)" stroke-linecap="butt">
      <circle fill="none" r="15" clip-path="url(#clipPath2)" cx="706.44" cy="616.4"/>
      <text x="699.7662" xml:space="preserve" y="621.1139" clip-path="url(#clipPath2)" font-family="sans-serif" stroke="none">26</text>
    </g>
    <g fill="rgb(255,204,0)" text-rendering="geometricPrecision" shape-rendering="geometricPrecision" transform="matrix(1,0,0,1,-633,-426)" stroke="rgb(255,204,0)">
      <circle r="15" clip-path="url(#clipPath2)" cx="796.44" cy="616.4" stroke="none"/>
    </g>
    <g text-rendering="geometricPrecision" stroke-miterlimit="1.45" shape-rendering="geometricPrecision" transform="matrix(1,0,0,1,-633,-426)" stroke-linecap="butt">
      <circle fill="none" r="15" clip-path="url(#clipPath2)" cx="796.44" cy="616.4"/>
      <text x="789.7662" xml:space="preserve" y="621.1139" clip-path="url(#clipPath2)" font-family="sans-serif" stroke="none">31</text>
    </g>
    <g fill="rgb(255,204,0)" text-rendering="geometricPrecision" shape-rendering="geometricPrecision" transform="matrix(1,0,0,1,-633,-426)" stroke="rgb(255,204,0)">
      <circle r="15" clip-path="url(#clipPath2)" cx="766.44" cy="676.4" stroke="none"/>
    </g>
    <g text-rendering="geometricPrecision" stroke-miterlimit="1.45" shape-rendering="geometricPrecision" transform="matrix(1,0,0,1,-633,-426)" stroke-linecap="butt">
      <circle fill="none" r="15" clip-path="url(#clipPath2)" cx="766.44" cy="676.4"/>
      <text x="759.7662" xml:space="preserve" y="681.1139" clip-path="url(#clipPath2)" font-family="sans-serif" stroke="none">40</text>
    </g>
    <g fill="rgb(255,204,0)" text-rendering="geometricPrecision" shape-rendering="geometricPrecision" transform="matrix(1,0,0,1,-633,-426)" stroke="rgb(255,204,0)">
      <circle r="15" clip-path="url(#clipPath2)" cx="826.44" cy="676.4" stroke="none"/>
    </g>
    <g text-rendering="geometricPrecision" stroke-miterlimit="1.45" shape-rendering="geometricPrecision" transform="matrix(1,0,0,1,-633,-426)" stroke-linecap="butt">
      <circle fill="none" r="15" clip-path="url(#clipPath2)" cx="826.44" cy="676.4"/>
      <text x="823.1031" xml:space="preserve" y="681.1139" clip-path="url(#clipPath2)" font-family="sans-serif" stroke="none">5</text>
    </g>
    <g transform="matrix(1,0,0,1,-633,-426)" fill-opacity="0.498" fill="rgb(255,0,0)" text-rendering="geometricPrecision" shape-rendering="geometricPrecision" stroke="rgb(255,0,0)" stroke-opacity="0.498">
      <rect x="781.44" width="30" height="20" y="441.6" clip-path="url(#clipPath2)" stroke="none"/>
    </g>
    <g text-rendering="geometricPrecision" stroke-miterlimit="1.45" shape-rendering="geometricPrecision" transform="matrix(1,0,0,1,-633,-426)" stroke-linecap="butt">
      <rect fill="none" x="781.44" width="30" height="20" y="441.6" clip-path="url(#clipPath2)"/>
      <text x="786.772" xml:space="preserve" y="456.3139" clip-path="url(#clipPath2)" font-family="sans-serif" stroke="none">raiz</text>
      <rect fill="none" x="648.92" width="30" height="20" y="477.68" clip-path="url(#clipPath2)"/>
      <text x="651.0792" xml:space="preserve" y="492.3939" clip-path="url(#clipPath2)" font-family="sans-serif" stroke="none">H= 4</text>
      <rect x="687.68" y="477.68" clip-path="url(#clipPath2)" fill="none" width="248.88" stroke-dasharray="6,2" height="217.52"/>
      <path fill="none" d="M846.071 505.2226 L895.4128 541.1075" clip-path="url(#clipPath2)"/>
      <path d="M904.309 547.5775 L898.1332 535.667 L891.0751 545.3718 Z" clip-path="url(#clipPath2)" stroke="none"/>
      <path fill="none" d="M909.7318 569.8164 L898.0676 593.1449" clip-path="url(#clipPath2)"/>
      <path d="M893.1482 602.9836 L903.8813 594.9338 L893.1483 589.5672 Z" clip-path="url(#clipPath2)" stroke="none"/>
      <path fill="none" d="M821.809 505.2226 L772.4672 541.1075" clip-path="url(#clipPath2)"/>
      <path d="M763.571 547.5775 L776.8049 545.3718 L769.7468 535.667 Z" clip-path="url(#clipPath2)" stroke="none"/>
      <path fill="none" d="M742.44 568.4 L722.04 595.6" clip-path="url(#clipPath2)"/>
      <path d="M715.44 604.4 L727.44 598.4 L717.84 591.2 Z" clip-path="url(#clipPath2)" stroke="none"/>
      <path fill="none" d="M760.44 568.4 L780.84 595.6" clip-path="url(#clipPath2)"/>
      <path d="M787.44 604.4 L785.04 591.2 L775.44 598.4 Z" clip-path="url(#clipPath2)" stroke="none"/>
      <path fill="none" d="M789.7318 629.8164 L778.0676 653.1449" clip-path="url(#clipPath2)"/>
      <path d="M773.1482 662.9836 L783.8813 654.9338 L773.1483 649.5672 Z" clip-path="url(#clipPath2)" stroke="none"/>
      <path fill="none" d="M803.1482 629.8164 L814.8124 653.1449" clip-path="url(#clipPath2)"/>
      <path d="M819.7318 662.9836 L819.7318 649.5672 L808.9987 654.9338 Z" clip-path="url(#clipPath2)" stroke="none"/>
      <path fill="none" d="M811.44 451.4006 L833.94 451.1015 L833.94 470.4" clip-path="url(#clipPath2)"/>
      <path d="M833.94 481.4 L839.94 469.4 L827.94 469.4 Z" clip-path="url(#clipPath2)" stroke="none"/>
    </g>
  </g>
</svg>
