<?xml version="1.0" encoding="UTF-8"?><svg xmlns="http://www.w3.org/2000/svg" xmlns:xlink="http://www.w3.org/1999/xlink" fill-opacity="1" color-rendering="auto" color-interpolation="auto" text-rendering="auto" stroke="black" stroke-linecap="square" width="609" stroke-miterlimit="10" shape-rendering="auto" stroke-opacity="1" fill="black" stroke-dasharray="none" font-weight="normal" stroke-width="1" height="385" font-family="'Dialog'" font-style="normal" stroke-linejoin="miter" font-size="12px" stroke-dashoffset="0" image-rendering="auto">
  <!--Generated by ySVG 2.5-->
  <defs id="genericDefs"/>
  <g>
    <defs id="defs1">
      <clipPath clipPathUnits="userSpaceOnUse" id="clipPath1">
        <path d="M0 0 L609 0 L609 385 L0 385 L0 0 Z"/>
      </clipPath>
      <clipPath clipPathUnits="userSpaceOnUse" id="clipPath2">
        <path d="M381 365 L990 365 L990 750 L381 750 L381 365 Z"/>
      </clipPath>
    </defs>
    <g text-rendering="geometricPrecision" stroke-miterlimit="1.45" shape-rendering="geometricPrecision" transform="matrix(1,0,0,1,-381,-365)" stroke-linecap="butt">
      <rect fill="none" x="675" width="30" height="30" y="435" clip-path="url(#clipPath2)"/>
    </g>
    <g text-rendering="geometricPrecision" stroke-miterlimit="1.45" shape-rendering="geometricPrecision" transform="matrix(1,0,0,1,-381,-365)" stroke-linecap="butt">
      <rect fill="none" x="765" width="30" height="30" y="435" clip-path="url(#clipPath2)"/>
      <rect fill="none" x="705" width="60" height="30" y="435" clip-path="url(#clipPath2)"/>
      <text x="728.3262" xml:space="preserve" y="454.7139" clip-path="url(#clipPath2)" font-family="sans-serif" stroke="none">25</text>
      <rect fill="none" x="486.5" width="30" height="30" y="525" clip-path="url(#clipPath2)"/>
      <rect fill="none" x="576.5" width="30" height="30" y="525" clip-path="url(#clipPath2)"/>
      <rect fill="none" x="516.5" width="60" height="30" y="525" clip-path="url(#clipPath2)"/>
      <text x="539.8262" xml:space="preserve" y="544.7139" clip-path="url(#clipPath2)" font-family="sans-serif" stroke="none">16</text>
      <rect fill="none" x="855" width="30" height="30" y="525" clip-path="url(#clipPath2)"/>
      <rect fill="none" x="885" width="60" height="30" y="525" clip-path="url(#clipPath2)"/>
      <text x="911.6631" xml:space="preserve" y="544.7139" clip-path="url(#clipPath2)" font-family="sans-serif" stroke="none">9</text>
      <rect fill="none" x="765" width="30" height="30" y="615" clip-path="url(#clipPath2)"/>
      <rect fill="none" x="855" width="30" height="30" y="615" clip-path="url(#clipPath2)"/>
      <rect fill="none" x="795" width="60" height="30" y="615" clip-path="url(#clipPath2)"/>
      <text x="818.3262" xml:space="preserve" y="634.7139" clip-path="url(#clipPath2)" font-family="sans-serif" stroke="none">39</text>
      <rect fill="none" x="585" width="30" height="30" y="615" clip-path="url(#clipPath2)"/>
      <rect fill="none" x="675" width="30" height="30" y="615" clip-path="url(#clipPath2)"/>
      <rect fill="none" x="615" width="60" height="30" y="615" clip-path="url(#clipPath2)"/>
      <text x="638.3262" xml:space="preserve" y="634.7139" clip-path="url(#clipPath2)" font-family="sans-serif" stroke="none">31</text>
      <rect fill="none" x="396.5" width="30" height="30" y="615" clip-path="url(#clipPath2)"/>
      <rect fill="none" x="486.5" width="30" height="30" y="615" clip-path="url(#clipPath2)"/>
      <rect fill="none" x="426.5" width="60" height="30" y="615" clip-path="url(#clipPath2)"/>
      <text x="449.8262" xml:space="preserve" y="634.7139" clip-path="url(#clipPath2)" font-family="sans-serif" stroke="none">26</text>
      <rect fill="none" x="507.5" width="30" height="30" y="705" clip-path="url(#clipPath2)"/>
      <rect fill="none" x="597.5" width="30" height="30" y="705" clip-path="url(#clipPath2)"/>
      <rect fill="none" x="537.5" width="60" height="30" y="705" clip-path="url(#clipPath2)"/>
      <text x="560.8262" xml:space="preserve" y="724.7139" clip-path="url(#clipPath2)" font-family="sans-serif" stroke="none">40</text>
      <rect fill="none" x="662.5" width="30" height="30" y="705" clip-path="url(#clipPath2)"/>
      <rect fill="none" x="752.5" width="30" height="30" y="705" clip-path="url(#clipPath2)"/>
      <rect fill="none" x="692.5" width="60" height="30" y="705" clip-path="url(#clipPath2)"/>
      <text x="719.1631" xml:space="preserve" y="724.7139" clip-path="url(#clipPath2)" font-family="sans-serif" stroke="none">5</text>
      <rect fill="none" x="945" width="30" height="30" y="525" clip-path="url(#clipPath2)"/>
    </g>
    <g transform="matrix(1,0,0,1,-381,-365)" fill-opacity="0.498" fill="rgb(255,0,0)" text-rendering="geometricPrecision" shape-rendering="geometricPrecision" stroke="rgb(255,0,0)" stroke-opacity="0.498">
      <rect x="645" width="30" height="20" y="380" clip-path="url(#clipPath2)" stroke="none"/>
    </g>
    <g text-rendering="geometricPrecision" stroke-miterlimit="1.45" shape-rendering="geometricPrecision" transform="matrix(1,0,0,1,-381,-365)" stroke-linecap="butt">
      <rect fill="none" x="645" width="30" height="20" y="380" clip-path="url(#clipPath2)"/>
      <text x="650.332" xml:space="preserve" y="394.7139" clip-path="url(#clipPath2)" font-family="sans-serif" stroke="none">raiz</text>
      <path fill="none" d="M691.0833 632.5 L718.111 694.8715" clip-path="url(#clipPath2)"/>
      <path d="M722.4847 704.9645 L723.2187 691.5682 L712.2081 696.3395 Z" clip-path="url(#clipPath2)" stroke="none"/>
      <path fill="none" d="M598.9167 632.5 L571.889 694.8715" clip-path="url(#clipPath2)"/>
      <path d="M567.5153 704.9645 L577.7919 696.3395 L566.7813 691.5682 Z" clip-path="url(#clipPath2)" stroke="none"/>
      <path fill="none" d="M593.2833 542.5 L638.5868 606.0095" clip-path="url(#clipPath2)"/>
      <path d="M644.9747 614.9646 L642.8906 601.7111 L633.1215 608.6797 Z" clip-path="url(#clipPath2)" stroke="none"/>
      <path fill="none" d="M500 542.5 L462.1807 605.5322" clip-path="url(#clipPath2)"/>
      <path d="M456.5212 614.9646 L467.8401 607.7617 L457.5502 601.5877 Z" clip-path="url(#clipPath2)" stroke="none"/>
      <path fill="none" d="M868.5 542.5 L830.6807 605.5322" clip-path="url(#clipPath2)"/>
      <path d="M825.0212 614.9646 L836.3401 607.7616 L826.0502 601.5877 Z" clip-path="url(#clipPath2)" stroke="none"/>
      <path fill="none" d="M687.5 451.3066 L556.2832 519.8868" clip-path="url(#clipPath2)"/>
      <path d="M546.5344 524.982 L559.9487 524.7411 L554.3903 514.1061 Z" clip-path="url(#clipPath2)" stroke="none"/>
      <path fill="none" d="M782.5 451.3889 L905.3519 519.64" clip-path="url(#clipPath2)"/>
      <path d="M914.9677 524.9821 L907.3917 513.9094 L901.5639 524.3992 Z" clip-path="url(#clipPath2)" stroke="none"/>
      <path fill="none" d="M675 390 L735 390 L735 424" clip-path="url(#clipPath2)"/>
      <path d="M735 435 L741 423 L729 423 Z" clip-path="url(#clipPath2)" stroke="none"/>
    </g>
  </g>
</svg>
