<?xml version="1.0" encoding="UTF-8"?><svg xmlns="http://www.w3.org/2000/svg" xmlns:xlink="http://www.w3.org/1999/xlink" fill-opacity="1" color-rendering="auto" color-interpolation="auto" text-rendering="auto" stroke="black" stroke-linecap="square" width="631" stroke-miterlimit="10" shape-rendering="auto" stroke-opacity="1" fill="black" stroke-dasharray="none" font-weight="normal" stroke-width="1" height="416" font-family="'Dialog'" font-style="normal" stroke-linejoin="miter" font-size="12px" stroke-dashoffset="0" image-rendering="auto">
  <!--Generated by ySVG 2.5-->
  <defs id="genericDefs"/>
  <g>
    <defs id="defs1">
      <clipPath clipPathUnits="userSpaceOnUse" id="clipPath1">
        <path d="M0 0 L631 0 L631 416 L0 416 L0 0 Z"/>
      </clipPath>
      <clipPath clipPathUnits="userSpaceOnUse" id="clipPath2">
        <path d="M344 335 L975 335 L975 751 L344 751 L344 335 Z"/>
      </clipPath>
    </defs>
    <g text-rendering="geometricPrecision" stroke-miterlimit="1.45" shape-rendering="geometricPrecision" transform="matrix(1,0,0,1,-344,-335)" stroke-linecap="butt">
      <rect fill="none" x="645" width="30" height="30" y="405" clip-path="url(#clipPath2)"/>
    </g>
    <g text-rendering="geometricPrecision" stroke-miterlimit="1.45" shape-rendering="geometricPrecision" transform="matrix(1,0,0,1,-344,-335)" stroke-linecap="butt">
      <rect fill="none" x="735" width="30" height="30" y="405" clip-path="url(#clipPath2)"/>
      <rect fill="none" x="675" width="60" height="30" y="405" clip-path="url(#clipPath2)"/>
      <text x="698.3262" xml:space="preserve" y="424.7139" clip-path="url(#clipPath2)" font-family="sans-serif" stroke="none">25</text>
      <rect fill="none" x="456.5" width="30" height="30" y="495" clip-path="url(#clipPath2)"/>
      <rect fill="none" x="546.5" width="30" height="30" y="495" clip-path="url(#clipPath2)"/>
      <rect fill="none" x="486.5" width="60" height="30" y="495" clip-path="url(#clipPath2)"/>
      <text x="509.8262" xml:space="preserve" y="514.7139" clip-path="url(#clipPath2)" font-family="sans-serif" stroke="none">16</text>
      <rect fill="none" x="825" width="30" height="30" y="495" clip-path="url(#clipPath2)"/>
      <rect fill="none" x="915" width="30" height="30" y="495" clip-path="url(#clipPath2)"/>
      <rect fill="none" x="855" width="60" height="30" y="495" clip-path="url(#clipPath2)"/>
      <text x="881.6631" xml:space="preserve" y="514.7139" clip-path="url(#clipPath2)" font-family="sans-serif" stroke="none">9</text>
      <rect fill="none" x="735" width="30" height="30" y="585" clip-path="url(#clipPath2)"/>
      <rect fill="none" x="825" width="30" height="30" y="585" clip-path="url(#clipPath2)"/>
      <rect fill="none" x="765" width="60" height="30" y="585" clip-path="url(#clipPath2)"/>
      <text x="788.3262" xml:space="preserve" y="604.7139" clip-path="url(#clipPath2)" font-family="sans-serif" stroke="none">39</text>
      <rect fill="none" x="555" width="30" height="30" y="585" clip-path="url(#clipPath2)"/>
      <rect fill="none" x="645" width="30" height="30" y="585" clip-path="url(#clipPath2)"/>
      <rect fill="none" x="585" width="60" height="30" y="585" clip-path="url(#clipPath2)"/>
      <text x="608.3262" xml:space="preserve" y="604.7139" clip-path="url(#clipPath2)" font-family="sans-serif" stroke="none">31</text>
      <rect fill="none" x="366.5" width="30" height="30" y="585" clip-path="url(#clipPath2)"/>
      <rect fill="none" x="456.5" width="30" height="30" y="585" clip-path="url(#clipPath2)"/>
      <rect fill="none" x="396.5" width="60" height="30" y="585" clip-path="url(#clipPath2)"/>
      <text x="419.8262" xml:space="preserve" y="604.7139" clip-path="url(#clipPath2)" font-family="sans-serif" stroke="none">26</text>
      <rect fill="none" x="477.5" width="30" height="30" y="675" clip-path="url(#clipPath2)"/>
      <rect fill="none" x="567.5" width="30" height="30" y="675" clip-path="url(#clipPath2)"/>
      <rect fill="none" x="507.5" width="60" height="30" y="675" clip-path="url(#clipPath2)"/>
      <text x="530.8262" xml:space="preserve" y="694.7139" clip-path="url(#clipPath2)" font-family="sans-serif" stroke="none">40</text>
      <rect fill="none" x="632.5" width="30" height="30" y="675" clip-path="url(#clipPath2)"/>
      <rect fill="none" x="722.5" width="30" height="30" y="675" clip-path="url(#clipPath2)"/>
      <rect fill="none" x="662.5" width="60" height="30" y="675" clip-path="url(#clipPath2)"/>
      <text x="689.1631" xml:space="preserve" y="694.7139" clip-path="url(#clipPath2)" font-family="sans-serif" stroke="none">5</text>
    </g>
    <g fill="white" text-rendering="geometricPrecision" shape-rendering="geometricPrecision" transform="matrix(1,0,0,1,-344,-335)" stroke="white">
      <circle r="7.5" clip-path="url(#clipPath2)" cx="735" cy="636.5" stroke="none"/>
    </g>
    <g text-rendering="geometricPrecision" stroke-miterlimit="1.45" stroke-dasharray="6,2" shape-rendering="geometricPrecision" transform="matrix(1,0,0,1,-344,-335)" stroke-linecap="butt">
      <circle fill="none" r="7.5" clip-path="url(#clipPath2)" cx="735" cy="636.5"/>
      <text x="729.999" y="641.2139" clip-path="url(#clipPath2)" font-family="sans-serif" stroke-dasharray="none" stroke="none" xml:space="preserve">///</text>
    </g>
    <g fill="white" text-rendering="geometricPrecision" shape-rendering="geometricPrecision" transform="matrix(1,0,0,1,-344,-335)" stroke="white">
      <circle r="7.5" clip-path="url(#clipPath2)" cx="862.2" cy="636.5" stroke="none"/>
    </g>
    <g text-rendering="geometricPrecision" stroke-miterlimit="1.45" stroke-dasharray="6,2" shape-rendering="geometricPrecision" transform="matrix(1,0,0,1,-344,-335)" stroke-linecap="butt">
      <circle fill="none" r="7.5" clip-path="url(#clipPath2)" cx="862.2" cy="636.5"/>
      <text x="857.199" y="641.2139" clip-path="url(#clipPath2)" font-family="sans-serif" stroke-dasharray="none" stroke="none" xml:space="preserve">///</text>
    </g>
    <g fill="white" text-rendering="geometricPrecision" shape-rendering="geometricPrecision" transform="matrix(1,0,0,1,-344,-335)" stroke="white">
      <circle r="7.5" clip-path="url(#clipPath2)" cx="366.5" cy="636.5" stroke="none"/>
    </g>
    <g text-rendering="geometricPrecision" stroke-miterlimit="1.45" stroke-dasharray="6,2" shape-rendering="geometricPrecision" transform="matrix(1,0,0,1,-344,-335)" stroke-linecap="butt">
      <circle fill="none" r="7.5" clip-path="url(#clipPath2)" cx="366.5" cy="636.5"/>
      <text x="361.499" y="641.2139" clip-path="url(#clipPath2)" font-family="sans-serif" stroke-dasharray="none" stroke="none" xml:space="preserve">///</text>
    </g>
    <g fill="white" text-rendering="geometricPrecision" shape-rendering="geometricPrecision" transform="matrix(1,0,0,1,-344,-335)" stroke="white">
      <circle r="7.5" clip-path="url(#clipPath2)" cx="493.7" cy="636.5" stroke="none"/>
    </g>
    <g text-rendering="geometricPrecision" stroke-miterlimit="1.45" stroke-dasharray="6,2" shape-rendering="geometricPrecision" transform="matrix(1,0,0,1,-344,-335)" stroke-linecap="butt">
      <circle fill="none" r="7.5" clip-path="url(#clipPath2)" cx="493.7" cy="636.5"/>
      <text x="488.699" y="641.2139" clip-path="url(#clipPath2)" font-family="sans-serif" stroke-dasharray="none" stroke="none" xml:space="preserve">///</text>
    </g>
    <g fill="white" text-rendering="geometricPrecision" shape-rendering="geometricPrecision" transform="matrix(1,0,0,1,-344,-335)" stroke="white">
      <circle r="7.5" clip-path="url(#clipPath2)" cx="952.2" cy="546.5" stroke="none"/>
    </g>
    <g text-rendering="geometricPrecision" stroke-miterlimit="1.45" stroke-dasharray="6,2" shape-rendering="geometricPrecision" transform="matrix(1,0,0,1,-344,-335)" stroke-linecap="butt">
      <circle fill="none" r="7.5" clip-path="url(#clipPath2)" cx="952.2" cy="546.5"/>
      <text x="947.199" y="551.2139" clip-path="url(#clipPath2)" font-family="sans-serif" stroke-dasharray="none" stroke="none" xml:space="preserve">///</text>
    </g>
    <g fill="white" text-rendering="geometricPrecision" shape-rendering="geometricPrecision" transform="matrix(1,0,0,1,-344,-335)" stroke="white">
      <circle r="7.5" clip-path="url(#clipPath2)" cx="477.5" cy="726.5" stroke="none"/>
    </g>
    <g text-rendering="geometricPrecision" stroke-miterlimit="1.45" stroke-dasharray="6,2" shape-rendering="geometricPrecision" transform="matrix(1,0,0,1,-344,-335)" stroke-linecap="butt">
      <circle fill="none" r="7.5" clip-path="url(#clipPath2)" cx="477.5" cy="726.5"/>
      <text x="472.499" y="731.2139" clip-path="url(#clipPath2)" font-family="sans-serif" stroke-dasharray="none" stroke="none" xml:space="preserve">///</text>
    </g>
    <g fill="white" text-rendering="geometricPrecision" shape-rendering="geometricPrecision" transform="matrix(1,0,0,1,-344,-335)" stroke="white">
      <circle r="7.5" clip-path="url(#clipPath2)" cx="604.7" cy="726.5" stroke="none"/>
    </g>
    <g text-rendering="geometricPrecision" stroke-miterlimit="1.45" stroke-dasharray="6,2" shape-rendering="geometricPrecision" transform="matrix(1,0,0,1,-344,-335)" stroke-linecap="butt">
      <circle fill="none" r="7.5" clip-path="url(#clipPath2)" cx="604.7" cy="726.5"/>
      <text x="599.699" y="731.2139" clip-path="url(#clipPath2)" font-family="sans-serif" stroke-dasharray="none" stroke="none" xml:space="preserve">///</text>
    </g>
    <g fill="white" text-rendering="geometricPrecision" shape-rendering="geometricPrecision" transform="matrix(1,0,0,1,-344,-335)" stroke="white">
      <circle r="7.5" clip-path="url(#clipPath2)" cx="632.5" cy="726.5" stroke="none"/>
    </g>
    <g text-rendering="geometricPrecision" stroke-miterlimit="1.45" stroke-dasharray="6,2" shape-rendering="geometricPrecision" transform="matrix(1,0,0,1,-344,-335)" stroke-linecap="butt">
      <circle fill="none" r="7.5" clip-path="url(#clipPath2)" cx="632.5" cy="726.5"/>
      <text x="627.499" y="731.2139" clip-path="url(#clipPath2)" font-family="sans-serif" stroke-dasharray="none" stroke="none" xml:space="preserve">///</text>
    </g>
    <g fill="white" text-rendering="geometricPrecision" shape-rendering="geometricPrecision" transform="matrix(1,0,0,1,-344,-335)" stroke="white">
      <circle r="7.5" clip-path="url(#clipPath2)" cx="759.7" cy="726.5" stroke="none"/>
    </g>
    <g text-rendering="geometricPrecision" stroke-miterlimit="1.45" stroke-dasharray="6,2" shape-rendering="geometricPrecision" transform="matrix(1,0,0,1,-344,-335)" stroke-linecap="butt">
      <circle fill="none" r="7.5" clip-path="url(#clipPath2)" cx="759.7" cy="726.5"/>
      <text x="754.699" y="731.2139" clip-path="url(#clipPath2)" font-family="sans-serif" stroke-dasharray="none" stroke="none" xml:space="preserve">///</text>
    </g>
    <g transform="matrix(1,0,0,1,-344,-335)" fill-opacity="0.498" fill="rgb(255,0,0)" text-rendering="geometricPrecision" shape-rendering="geometricPrecision" stroke="rgb(255,0,0)" stroke-opacity="0.498">
      <rect x="615" width="30" height="20" y="350" clip-path="url(#clipPath2)" stroke="none"/>
    </g>
    <g text-rendering="geometricPrecision" stroke-miterlimit="1.45" shape-rendering="geometricPrecision" transform="matrix(1,0,0,1,-344,-335)" stroke-linecap="butt">
      <rect fill="none" x="615" width="30" height="20" y="350" clip-path="url(#clipPath2)"/>
      <text x="620.332" xml:space="preserve" y="364.7139" clip-path="url(#clipPath2)" font-family="sans-serif" stroke="none">raiz</text>
      <path fill="none" d="M661.0833 602.5 L688.111 664.8715" clip-path="url(#clipPath2)"/>
      <path d="M692.4847 674.9645 L693.2187 661.5682 L682.2081 666.3395 Z" clip-path="url(#clipPath2)" stroke="none"/>
      <path fill="none" d="M568.9167 602.5 L541.889 664.8715" clip-path="url(#clipPath2)"/>
      <path d="M537.5153 674.9645 L547.7919 666.3395 L536.7813 661.5682 Z" clip-path="url(#clipPath2)" stroke="none"/>
      <path fill="none" d="M563.2833 512.5 L608.5868 576.0095" clip-path="url(#clipPath2)"/>
      <path d="M614.9747 584.9646 L612.8906 571.7111 L603.1215 578.6797 Z" clip-path="url(#clipPath2)" stroke="none"/>
      <path fill="none" d="M470 512.5 L432.1807 575.5322" clip-path="url(#clipPath2)"/>
      <path d="M426.5212 584.9646 L437.8401 577.7617 L427.5502 571.5877 Z" clip-path="url(#clipPath2)" stroke="none"/>
      <path fill="none" d="M838.5 512.5 L800.6807 575.5322" clip-path="url(#clipPath2)"/>
      <path d="M795.0212 584.9646 L806.3401 577.7616 L796.0502 571.5877 Z" clip-path="url(#clipPath2)" stroke="none"/>
      <path fill="none" d="M657.5 421.3066 L526.2832 489.8868" clip-path="url(#clipPath2)"/>
      <path d="M516.5344 494.982 L529.9487 494.7411 L524.3903 484.1061 Z" clip-path="url(#clipPath2)" stroke="none"/>
      <path fill="none" d="M752.5 421.3889 L875.3519 489.64" clip-path="url(#clipPath2)"/>
      <path d="M884.9677 494.982 L877.3916 483.9094 L871.5639 494.3993 Z" clip-path="url(#clipPath2)" stroke="none"/>
      <path fill="none" stroke-dasharray="6,2" d="M748.9726 602.5 L742.0321 619.3886" clip-path="url(#clipPath2)"/>
      <path stroke-dasharray="6,2" d="M737.8508 629.5629 L747.9619 620.7444 L736.8626 616.183 Z" clip-path="url(#clipPath2)" stroke="none"/>
      <path fill="none" stroke-dasharray="6,2" d="M841.5206 602.5 L852.5865 620.694" clip-path="url(#clipPath2)"/>
      <path stroke-dasharray="6,2" d="M858.3026 630.0922 L857.1931 616.7217 L846.9406 622.9575 Z" clip-path="url(#clipPath2)" stroke="none"/>
      <path fill="none" stroke-dasharray="6,2" d="M380.4726 602.5 L373.5321 619.3886" clip-path="url(#clipPath2)"/>
      <path stroke-dasharray="6,2" d="M369.3508 629.5629 L379.4618 620.7443 L368.3625 616.183 Z" clip-path="url(#clipPath2)" stroke="none"/>
      <path fill="none" stroke-dasharray="6,2" d="M473.0205 602.5 L484.0865 620.694" clip-path="url(#clipPath2)"/>
      <path stroke-dasharray="6,2" d="M489.8026 630.0922 L488.6931 616.7217 L478.4406 622.9575 Z" clip-path="url(#clipPath2)" stroke="none"/>
      <path fill="none" stroke-dasharray="6,2" d="M931.5206 512.5 L942.5865 530.694" clip-path="url(#clipPath2)"/>
      <path stroke-dasharray="6,2" d="M948.3026 540.0922 L947.1931 526.7217 L936.9406 532.9575 Z" clip-path="url(#clipPath2)" stroke="none"/>
      <path fill="none" stroke-dasharray="6,2" d="M491.4726 692.5 L484.5321 709.3886" clip-path="url(#clipPath2)"/>
      <path stroke-dasharray="6,2" d="M480.3508 719.5629 L490.4618 710.7443 L479.3625 706.183 Z" clip-path="url(#clipPath2)" stroke="none"/>
      <path fill="none" stroke-dasharray="6,2" d="M584.0206 692.5 L595.0865 710.694" clip-path="url(#clipPath2)"/>
      <path stroke-dasharray="6,2" d="M600.8026 720.0922 L599.6931 706.7217 L589.4406 712.9575 Z" clip-path="url(#clipPath2)" stroke="none"/>
      <path fill="none" stroke-dasharray="6,2" d="M646.4726 692.5 L639.5321 709.3886" clip-path="url(#clipPath2)"/>
      <path stroke-dasharray="6,2" d="M635.3508 719.5629 L645.4619 710.7444 L634.3626 706.183 Z" clip-path="url(#clipPath2)" stroke="none"/>
      <path fill="none" stroke-dasharray="6,2" d="M739.0206 692.5 L750.0865 710.694" clip-path="url(#clipPath2)"/>
      <path stroke-dasharray="6,2" d="M755.8026 720.0922 L754.6931 706.7217 L744.4406 712.9575 Z" clip-path="url(#clipPath2)" stroke="none"/>
      <path fill="none" d="M645 360 L705 360 L705 394" clip-path="url(#clipPath2)"/>
      <path d="M705 405 L711 393 L699 393 Z" clip-path="url(#clipPath2)" stroke="none"/>
    </g>
  </g>
</svg>
