<?xml version="1.0" encoding="UTF-8"?><svg xmlns="http://www.w3.org/2000/svg" xmlns:xlink="http://www.w3.org/1999/xlink" fill-opacity="1" color-rendering="auto" color-interpolation="auto" text-rendering="auto" stroke="black" stroke-linecap="square" width="270" stroke-miterlimit="10" shape-rendering="auto" stroke-opacity="1" fill="black" stroke-dasharray="none" font-weight="normal" stroke-width="1" height="281" font-family="'Dialog'" font-style="normal" stroke-linejoin="miter" font-size="12px" stroke-dashoffset="0" image-rendering="auto">
  <!--Generated by ySVG 2.5-->
  <defs id="genericDefs"/>
  <g>
    <defs id="defs1">
      <clipPath clipPathUnits="userSpaceOnUse" id="clipPath1">
        <path d="M0 0 L270 0 L270 281 L0 281 L0 0 Z"/>
      </clipPath>
      <clipPath clipPathUnits="userSpaceOnUse" id="clipPath2">
        <path d="M625 375 L895 375 L895 656 L625 656 L625 375 Z"/>
      </clipPath>
    </defs>
    <g fill="rgb(255,204,0)" text-rendering="geometricPrecision" shape-rendering="geometricPrecision" transform="matrix(1,0,0,1,-625,-375)" stroke="rgb(255,204,0)">
      <circle r="15" clip-path="url(#clipPath2)" cx="782.5" cy="445.2" stroke="none"/>
    </g>
    <g text-rendering="geometricPrecision" stroke-miterlimit="1.45" shape-rendering="geometricPrecision" transform="matrix(1,0,0,1,-625,-375)" stroke-linecap="butt">
      <circle fill="none" r="15" clip-path="url(#clipPath2)" cx="782.5" cy="445.2"/>
      <text x="780.165" xml:space="preserve" y="449.9139" clip-path="url(#clipPath2)" font-family="sans-serif" stroke="none">*</text>
    </g>
    <g fill="rgb(255,204,0)" text-rendering="geometricPrecision" shape-rendering="geometricPrecision" transform="matrix(1,0,0,1,-625,-375)" stroke="rgb(255,204,0)">
      <circle r="15" clip-path="url(#clipPath2)" cx="865" cy="505.2" stroke="none"/>
    </g>
    <g text-rendering="geometricPrecision" stroke-miterlimit="1.45" shape-rendering="geometricPrecision" transform="matrix(1,0,0,1,-625,-375)" stroke-linecap="butt">
      <circle fill="none" r="15" clip-path="url(#clipPath2)" cx="865" cy="505.2"/>
      <text x="861.6631" xml:space="preserve" y="509.9139" clip-path="url(#clipPath2)" font-family="sans-serif" stroke="none">2</text>
    </g>
    <g fill="rgb(255,204,0)" text-rendering="geometricPrecision" shape-rendering="geometricPrecision" transform="matrix(1,0,0,1,-625,-375)" stroke="rgb(255,204,0)">
      <circle r="15" clip-path="url(#clipPath2)" cx="700" cy="505.2" stroke="none"/>
    </g>
    <g text-rendering="geometricPrecision" stroke-miterlimit="1.45" shape-rendering="geometricPrecision" transform="matrix(1,0,0,1,-625,-375)" stroke-linecap="butt">
      <circle fill="none" r="15" clip-path="url(#clipPath2)" cx="700" cy="505.2"/>
      <text x="698.002" xml:space="preserve" y="509.9139" clip-path="url(#clipPath2)" font-family="sans-serif" stroke="none">-</text>
    </g>
    <g fill="rgb(255,204,0)" text-rendering="geometricPrecision" shape-rendering="geometricPrecision" transform="matrix(1,0,0,1,-625,-375)" stroke="rgb(255,204,0)">
      <circle r="15" clip-path="url(#clipPath2)" cx="655" cy="565.2" stroke="none"/>
    </g>
    <g text-rendering="geometricPrecision" stroke-miterlimit="1.45" shape-rendering="geometricPrecision" transform="matrix(1,0,0,1,-625,-375)" stroke-linecap="butt">
      <circle fill="none" r="15" clip-path="url(#clipPath2)" cx="655" cy="565.2"/>
      <text x="648.3262" xml:space="preserve" y="569.9139" clip-path="url(#clipPath2)" font-family="sans-serif" stroke="none">26</text>
    </g>
    <g fill="rgb(255,204,0)" text-rendering="geometricPrecision" shape-rendering="geometricPrecision" transform="matrix(1,0,0,1,-625,-375)" stroke="rgb(255,204,0)">
      <circle r="15" clip-path="url(#clipPath2)" cx="745" cy="565.2" stroke="none"/>
    </g>
    <g text-rendering="geometricPrecision" stroke-miterlimit="1.45" shape-rendering="geometricPrecision" transform="matrix(1,0,0,1,-625,-375)" stroke-linecap="butt">
      <circle fill="none" r="15" clip-path="url(#clipPath2)" cx="745" cy="565.2"/>
      <text x="741.4961" xml:space="preserve" y="569.9139" clip-path="url(#clipPath2)" font-family="sans-serif" stroke="none">+</text>
    </g>
    <g fill="rgb(255,204,0)" text-rendering="geometricPrecision" shape-rendering="geometricPrecision" transform="matrix(1,0,0,1,-625,-375)" stroke="rgb(255,204,0)">
      <circle r="15" clip-path="url(#clipPath2)" cx="715" cy="625.2" stroke="none"/>
    </g>
    <g text-rendering="geometricPrecision" stroke-miterlimit="1.45" shape-rendering="geometricPrecision" transform="matrix(1,0,0,1,-625,-375)" stroke-linecap="butt">
      <circle fill="none" r="15" clip-path="url(#clipPath2)" cx="715" cy="625.2"/>
      <text x="708.3262" xml:space="preserve" y="629.9139" clip-path="url(#clipPath2)" font-family="sans-serif" stroke="none">40</text>
    </g>
    <g fill="rgb(255,204,0)" text-rendering="geometricPrecision" shape-rendering="geometricPrecision" transform="matrix(1,0,0,1,-625,-375)" stroke="rgb(255,204,0)">
      <circle r="15" clip-path="url(#clipPath2)" cx="775" cy="625.2" stroke="none"/>
    </g>
    <g text-rendering="geometricPrecision" stroke-miterlimit="1.45" shape-rendering="geometricPrecision" transform="matrix(1,0,0,1,-625,-375)" stroke-linecap="butt">
      <circle fill="none" r="15" clip-path="url(#clipPath2)" cx="775" cy="625.2"/>
      <text x="771.6631" xml:space="preserve" y="629.9139" clip-path="url(#clipPath2)" font-family="sans-serif" stroke="none">5</text>
    </g>
    <g transform="matrix(1,0,0,1,-625,-375)" fill-opacity="0.498" fill="rgb(255,0,0)" text-rendering="geometricPrecision" shape-rendering="geometricPrecision" stroke="rgb(255,0,0)" stroke-opacity="0.498">
      <rect x="718.736" width="41.264" height="20" y="390.4" clip-path="url(#clipPath2)" stroke="none"/>
    </g>
    <g text-rendering="geometricPrecision" stroke-miterlimit="1.45" shape-rendering="geometricPrecision" transform="matrix(1,0,0,1,-625,-375)" stroke-linecap="butt">
      <rect fill="none" x="718.736" width="41.264" height="20" y="390.4" clip-path="url(#clipPath2)"/>
      <text x="721.6902" xml:space="preserve" y="405.1139" clip-path="url(#clipPath2)" font-family="sans-serif" stroke="none">ABexp</text>
      <path fill="none" d="M794.631 454.0226 L843.9728 489.9075" clip-path="url(#clipPath2)"/>
      <path d="M852.869 496.3774 L846.6931 484.4669 L839.6351 494.1718 Z" clip-path="url(#clipPath2)" stroke="none"/>
      <path fill="none" d="M770.369 454.0226 L721.0272 489.9075" clip-path="url(#clipPath2)"/>
      <path d="M712.131 496.3774 L725.3649 494.1718 L718.3069 484.4669 Z" clip-path="url(#clipPath2)" stroke="none"/>
      <path fill="none" d="M691 517.2 L670.6 544.4" clip-path="url(#clipPath2)"/>
      <path d="M664 553.2 L676 547.2 L666.4 540 Z" clip-path="url(#clipPath2)" stroke="none"/>
      <path fill="none" d="M709 517.2 L729.4 544.4" clip-path="url(#clipPath2)"/>
      <path d="M736 553.2 L733.6 540 L724 547.2 Z" clip-path="url(#clipPath2)" stroke="none"/>
      <path fill="none" d="M738.2918 578.6164 L726.6276 601.9449" clip-path="url(#clipPath2)"/>
      <path d="M721.7082 611.7836 L732.4413 603.7338 L721.7083 598.3672 Z" clip-path="url(#clipPath2)" stroke="none"/>
      <path fill="none" d="M751.7082 578.6164 L763.3724 601.9449" clip-path="url(#clipPath2)"/>
      <path d="M768.2918 611.7836 L768.2917 598.3672 L757.5587 603.7338 Z" clip-path="url(#clipPath2)" stroke="none"/>
      <path fill="none" d="M760 400.1616 L782.5 399.9015 L782.5 419.2" clip-path="url(#clipPath2)"/>
      <path d="M782.5 430.2 L788.5 418.2 L776.5 418.2 Z" clip-path="url(#clipPath2)" stroke="none"/>
    </g>
  </g>
</svg>
