<?xml version="1.0" encoding="UTF-8"?><svg xmlns="http://www.w3.org/2000/svg" xmlns:xlink="http://www.w3.org/1999/xlink" fill-opacity="1" color-rendering="auto" color-interpolation="auto" text-rendering="auto" stroke="black" stroke-linecap="square" width="270" stroke-miterlimit="10" shape-rendering="auto" stroke-opacity="1" fill="black" stroke-dasharray="none" font-weight="normal" stroke-width="1" height="280" font-family="'Dialog'" font-style="normal" stroke-linejoin="miter" font-size="12px" stroke-dashoffset="0" image-rendering="auto">
  <!--Generated by ySVG 2.5-->
  <defs id="genericDefs"/>
  <g>
    <defs id="defs1">
      <clipPath clipPathUnits="userSpaceOnUse" id="clipPath1">
        <path d="M0 0 L270 0 L270 280 L0 280 L0 0 Z"/>
      </clipPath>
      <clipPath clipPathUnits="userSpaceOnUse" id="clipPath2">
        <path d="M600 350 L870 350 L870 630 L600 630 L600 350 Z"/>
      </clipPath>
    </defs>
    <g fill="rgb(255,204,0)" text-rendering="geometricPrecision" shape-rendering="geometricPrecision" transform="matrix(1,0,0,1,-600,-350)" stroke="rgb(255,204,0)">
      <circle r="15" clip-path="url(#clipPath2)" cx="757.5" cy="420" stroke="none"/>
    </g>
    <g text-rendering="geometricPrecision" stroke-miterlimit="1.45" shape-rendering="geometricPrecision" transform="matrix(1,0,0,1,-600,-350)" stroke-linecap="butt">
      <circle fill="none" r="15" clip-path="url(#clipPath2)" cx="757.5" cy="420"/>
      <text x="750.8262" xml:space="preserve" y="424.7139" clip-path="url(#clipPath2)" font-family="sans-serif" stroke="none">25</text>
    </g>
    <g fill="rgb(255,204,0)" text-rendering="geometricPrecision" shape-rendering="geometricPrecision" transform="matrix(1,0,0,1,-600,-350)" stroke="rgb(255,204,0)">
      <circle r="15" clip-path="url(#clipPath2)" cx="840" cy="480" stroke="none"/>
    </g>
    <g text-rendering="geometricPrecision" stroke-miterlimit="1.45" shape-rendering="geometricPrecision" transform="matrix(1,0,0,1,-600,-350)" stroke-linecap="butt">
      <circle fill="none" r="15" clip-path="url(#clipPath2)" cx="840" cy="480"/>
      <text x="836.6631" xml:space="preserve" y="484.7139" clip-path="url(#clipPath2)" font-family="sans-serif" stroke="none">9</text>
    </g>
    <g fill="rgb(204,255,204)" text-rendering="geometricPrecision" shape-rendering="geometricPrecision" transform="matrix(1,0,0,1,-600,-350)" stroke="rgb(204,255,204)">
      <circle r="15" clip-path="url(#clipPath2)" cx="810" cy="540" stroke="none"/>
    </g>
    <g text-rendering="geometricPrecision" stroke-miterlimit="1.45" shape-rendering="geometricPrecision" transform="matrix(1,0,0,1,-600,-350)" stroke-linecap="butt">
      <circle fill="none" r="15" clip-path="url(#clipPath2)" cx="810" cy="540"/>
      <text x="803.3262" xml:space="preserve" y="544.7139" clip-path="url(#clipPath2)" font-family="sans-serif" stroke="none">39</text>
    </g>
    <g fill="rgb(255,204,0)" text-rendering="geometricPrecision" shape-rendering="geometricPrecision" transform="matrix(1,0,0,1,-600,-350)" stroke="rgb(255,204,0)">
      <circle r="15" clip-path="url(#clipPath2)" cx="675" cy="480" stroke="none"/>
    </g>
    <g text-rendering="geometricPrecision" stroke-miterlimit="1.45" shape-rendering="geometricPrecision" transform="matrix(1,0,0,1,-600,-350)" stroke-linecap="butt">
      <circle fill="none" r="15" clip-path="url(#clipPath2)" cx="675" cy="480"/>
      <text x="668.3262" xml:space="preserve" y="484.7139" clip-path="url(#clipPath2)" font-family="sans-serif" stroke="none">16</text>
    </g>
    <g fill="rgb(204,255,204)" text-rendering="geometricPrecision" shape-rendering="geometricPrecision" transform="matrix(1,0,0,1,-600,-350)" stroke="rgb(204,255,204)">
      <circle r="15" clip-path="url(#clipPath2)" cx="630" cy="540" stroke="none"/>
    </g>
    <g text-rendering="geometricPrecision" stroke-miterlimit="1.45" shape-rendering="geometricPrecision" transform="matrix(1,0,0,1,-600,-350)" stroke-linecap="butt">
      <circle fill="none" r="15" clip-path="url(#clipPath2)" cx="630" cy="540"/>
      <text x="623.3262" xml:space="preserve" y="544.7139" clip-path="url(#clipPath2)" font-family="sans-serif" stroke="none">26</text>
    </g>
    <g fill="rgb(255,204,0)" text-rendering="geometricPrecision" shape-rendering="geometricPrecision" transform="matrix(1,0,0,1,-600,-350)" stroke="rgb(255,204,0)">
      <circle r="15" clip-path="url(#clipPath2)" cx="720" cy="540" stroke="none"/>
    </g>
    <g text-rendering="geometricPrecision" stroke-miterlimit="1.45" shape-rendering="geometricPrecision" transform="matrix(1,0,0,1,-600,-350)" stroke-linecap="butt">
      <circle fill="none" r="15" clip-path="url(#clipPath2)" cx="720" cy="540"/>
      <text x="713.3262" xml:space="preserve" y="544.7139" clip-path="url(#clipPath2)" font-family="sans-serif" stroke="none">31</text>
    </g>
    <g fill="rgb(204,255,204)" text-rendering="geometricPrecision" shape-rendering="geometricPrecision" transform="matrix(1,0,0,1,-600,-350)" stroke="rgb(204,255,204)">
      <circle r="15" clip-path="url(#clipPath2)" cx="690" cy="600" stroke="none"/>
    </g>
    <g text-rendering="geometricPrecision" stroke-miterlimit="1.45" shape-rendering="geometricPrecision" transform="matrix(1,0,0,1,-600,-350)" stroke-linecap="butt">
      <circle fill="none" r="15" clip-path="url(#clipPath2)" cx="690" cy="600"/>
      <text x="683.3262" xml:space="preserve" y="604.7139" clip-path="url(#clipPath2)" font-family="sans-serif" stroke="none">40</text>
    </g>
    <g fill="rgb(204,255,204)" text-rendering="geometricPrecision" shape-rendering="geometricPrecision" transform="matrix(1,0,0,1,-600,-350)" stroke="rgb(204,255,204)">
      <circle r="15" clip-path="url(#clipPath2)" cx="750" cy="600" stroke="none"/>
    </g>
    <g text-rendering="geometricPrecision" stroke-miterlimit="1.45" shape-rendering="geometricPrecision" transform="matrix(1,0,0,1,-600,-350)" stroke-linecap="butt">
      <circle fill="none" r="15" clip-path="url(#clipPath2)" cx="750" cy="600"/>
      <text x="746.6631" xml:space="preserve" y="604.7139" clip-path="url(#clipPath2)" font-family="sans-serif" stroke="none">5</text>
    </g>
    <g transform="matrix(1,0,0,1,-600,-350)" fill-opacity="0.498" fill="rgb(255,0,0)" text-rendering="geometricPrecision" shape-rendering="geometricPrecision" stroke="rgb(255,0,0)" stroke-opacity="0.498">
      <rect x="705" width="30" height="20" y="365.2" clip-path="url(#clipPath2)" stroke="none"/>
    </g>
    <g text-rendering="geometricPrecision" stroke-miterlimit="1.45" shape-rendering="geometricPrecision" transform="matrix(1,0,0,1,-600,-350)" stroke-linecap="butt">
      <rect fill="none" x="705" width="30" height="20" y="365.2" clip-path="url(#clipPath2)"/>
      <text x="710.332" xml:space="preserve" y="379.9139" clip-path="url(#clipPath2)" font-family="sans-serif" stroke="none">raiz</text>
      <path fill="none" d="M769.631 428.8226 L818.9728 464.7076" clip-path="url(#clipPath2)"/>
      <path d="M827.869 471.1774 L821.6931 459.267 L814.6351 468.9718 Z" clip-path="url(#clipPath2)" stroke="none"/>
      <path fill="none" d="M833.2918 493.4164 L821.6276 516.7449" clip-path="url(#clipPath2)"/>
      <path d="M816.7082 526.5836 L827.4413 518.5337 L816.7082 513.1672 Z" clip-path="url(#clipPath2)" stroke="none"/>
      <path fill="none" d="M745.369 428.8226 L696.0272 464.7076" clip-path="url(#clipPath2)"/>
      <path d="M687.131 471.1774 L700.3649 468.9718 L693.3069 459.267 Z" clip-path="url(#clipPath2)" stroke="none"/>
      <path fill="none" d="M666 492 L645.6 519.2" clip-path="url(#clipPath2)"/>
      <path d="M639 528 L651 522 L641.4 514.8 Z" clip-path="url(#clipPath2)" stroke="none"/>
      <path fill="none" d="M684 492 L704.4 519.2" clip-path="url(#clipPath2)"/>
      <path d="M711 528 L708.6 514.8 L699 522 Z" clip-path="url(#clipPath2)" stroke="none"/>
      <path fill="none" d="M713.2918 553.4164 L701.6276 576.7449" clip-path="url(#clipPath2)"/>
      <path d="M696.7082 586.5836 L707.4413 578.5337 L696.7082 573.1672 Z" clip-path="url(#clipPath2)" stroke="none"/>
      <path fill="none" d="M726.7082 553.4164 L738.3724 576.7449" clip-path="url(#clipPath2)"/>
      <path d="M743.2918 586.5836 L743.2918 573.1672 L732.5587 578.5337 Z" clip-path="url(#clipPath2)" stroke="none"/>
      <path fill="none" d="M735 375.0006 L757.5 374.7015 L757.5 394" clip-path="url(#clipPath2)"/>
      <path d="M757.5 405 L763.5 393 L751.5 393 Z" clip-path="url(#clipPath2)" stroke="none"/>
    </g>
  </g>
</svg>
