<?xml version="1.0" encoding="UTF-8"?><svg xmlns="http://www.w3.org/2000/svg" xmlns:xlink="http://www.w3.org/1999/xlink" fill-opacity="1" color-rendering="auto" color-interpolation="auto" text-rendering="auto" stroke="black" stroke-linecap="square" width="201" stroke-miterlimit="10" shape-rendering="auto" stroke-opacity="1" fill="black" stroke-dasharray="none" font-weight="normal" stroke-width="1" height="181" font-family="'Dialog'" font-style="normal" stroke-linejoin="miter" font-size="12px" stroke-dashoffset="0" image-rendering="auto">
  <!--Generated by ySVG 2.5-->
  <defs id="genericDefs"/>
  <g>
    <defs id="defs1">
      <clipPath clipPathUnits="userSpaceOnUse" id="clipPath1">
        <path d="M0 0 L201 0 L201 181 L0 181 L0 0 Z"/>
      </clipPath>
      <clipPath clipPathUnits="userSpaceOnUse" id="clipPath2">
        <path d="M617 452 L818 452 L818 633 L617 633 L617 452 Z"/>
      </clipPath>
    </defs>
    <g text-rendering="geometricPrecision" stroke-miterlimit="1.45" stroke-dasharray="6,2" shape-rendering="geometricPrecision" transform="matrix(1,0,0,1,-617,-452)" stroke-linecap="butt">
      <rect fill="none" x="640" width="30" height="30" y="556.4156" clip-path="url(#clipPath2)"/>
    </g>
    <g text-rendering="geometricPrecision" stroke-miterlimit="1.45" stroke-dasharray="6,2" shape-rendering="geometricPrecision" transform="matrix(1,0,0,1,-617,-452)" stroke-linecap="butt">
      <rect fill="none" x="730" width="30" height="30" y="556.4156" clip-path="url(#clipPath2)"/>
    </g>
    <g fill="rgb(204,255,204)" text-rendering="geometricPrecision" shape-rendering="geometricPrecision" transform="matrix(1,0,0,1,-617,-452)" stroke="rgb(204,255,204)">
      <rect x="670" width="60" height="30" y="556.4156" clip-path="url(#clipPath2)" stroke="none"/>
    </g>
    <g text-rendering="geometricPrecision" stroke-miterlimit="1.45" stroke-dasharray="6,2" shape-rendering="geometricPrecision" transform="matrix(1,0,0,1,-617,-452)" stroke-linecap="butt">
      <rect fill="none" x="670" width="60" height="30" y="556.4156" clip-path="url(#clipPath2)"/>
      <text x="686.9951" y="574.9971" clip-path="url(#clipPath2)" font-family="sans-serif" stroke-dasharray="none" stroke="none" xml:space="preserve">valor</text>
    </g>
    <g fill="white" text-rendering="geometricPrecision" shape-rendering="geometricPrecision" transform="matrix(1,0,0,1,-617,-452)" stroke="white">
      <circle r="7.5" clip-path="url(#clipPath2)" cx="640" cy="607.9156" stroke="none"/>
    </g>
    <g text-rendering="geometricPrecision" stroke-miterlimit="1.45" stroke-dasharray="6,2" shape-rendering="geometricPrecision" transform="matrix(1,0,0,1,-617,-452)" stroke-linecap="butt">
      <circle fill="none" r="7.5" clip-path="url(#clipPath2)" cx="640" cy="607.9156"/>
      <text x="634.999" y="612.6295" clip-path="url(#clipPath2)" font-family="sans-serif" stroke-dasharray="none" stroke="none" xml:space="preserve">///</text>
    </g>
    <g fill="white" text-rendering="geometricPrecision" shape-rendering="geometricPrecision" transform="matrix(1,0,0,1,-617,-452)" stroke="white">
      <circle r="7.5" clip-path="url(#clipPath2)" cx="767.5" cy="607.9156" stroke="none"/>
    </g>
    <g text-rendering="geometricPrecision" stroke-miterlimit="1.45" stroke-dasharray="6,2" shape-rendering="geometricPrecision" transform="matrix(1,0,0,1,-617,-452)" stroke-linecap="butt">
      <circle fill="none" r="7.5" clip-path="url(#clipPath2)" cx="767.5" cy="607.9156"/>
      <text x="762.499" y="612.6295" clip-path="url(#clipPath2)" font-family="sans-serif" stroke-dasharray="none" stroke="none" xml:space="preserve">///</text>
      <path fill="none" stroke-dasharray="none" d="M743.2717 507.6888 L715.8419 547.3672" clip-path="url(#clipPath2)"/>
      <path stroke-dasharray="none" d="M709.5867 556.4156 L721.346 549.9566 L711.4751 543.1328 Z" clip-path="url(#clipPath2)" stroke="none"/>
      <path fill="none" d="M653.9726 573.9156 L647.0321 590.8042" clip-path="url(#clipPath2)"/>
      <path d="M642.8508 600.9785 L652.9619 592.1599 L641.8625 587.5986 Z" clip-path="url(#clipPath2)" stroke="none"/>
      <path fill="none" d="M746.8206 573.9156 L757.8865 592.1096" clip-path="url(#clipPath2)"/>
      <path d="M763.6026 601.5078 L762.4931 588.1373 L752.2405 594.373 Z" clip-path="url(#clipPath2)" stroke="none"/>
    </g>
  </g>
</svg>
