<?xml version="1.0" encoding="UTF-8"?><svg xmlns="http://www.w3.org/2000/svg" xmlns:xlink="http://www.w3.org/1999/xlink" fill-opacity="1" color-rendering="auto" color-interpolation="auto" text-rendering="auto" stroke="black" stroke-linecap="square" width="252" stroke-miterlimit="10" shape-rendering="auto" stroke-opacity="1" fill="black" stroke-dasharray="none" font-weight="normal" stroke-width="1" height="103" font-family="'Dialog'" font-style="normal" stroke-linejoin="miter" font-size="12px" stroke-dashoffset="0" image-rendering="auto">
  <!--Generated by ySVG 2.5-->
  <defs id="genericDefs"/>
  <g>
    <defs id="defs1">
      <clipPath clipPathUnits="userSpaceOnUse" id="clipPath1">
        <path d="M0 0 L252 0 L252 103 L0 103 L0 0 Z"/>
      </clipPath>
      <clipPath clipPathUnits="userSpaceOnUse" id="clipPath2">
        <path d="M639 450 L891 450 L891 553 L639 553 L639 450 Z"/>
      </clipPath>
    </defs>
    <g text-rendering="geometricPrecision" stroke-miterlimit="1.45" shape-rendering="geometricPrecision" transform="matrix(1,0,0,1,-639,-450)" stroke-linecap="butt">
      <rect fill="none" x="705" width="30" height="30" y="465" clip-path="url(#clipPath2)"/>
    </g>
    <g text-rendering="geometricPrecision" stroke-miterlimit="1.45" shape-rendering="geometricPrecision" transform="matrix(1,0,0,1,-639,-450)" stroke-linecap="butt">
      <rect fill="none" x="795" width="30" height="30" y="465" clip-path="url(#clipPath2)"/>
      <rect fill="none" x="735" width="60" height="30" y="465" clip-path="url(#clipPath2)"/>
      <text x="751.9951" xml:space="preserve" y="483.5815" clip-path="url(#clipPath2)" font-family="sans-serif" stroke="none">valor</text>
      <text x="664.8301" xml:space="preserve" y="504.5731" clip-path="url(#clipPath2)" font-family="sans-serif" stroke="none">izq</text>
      <text x="848.8281" xml:space="preserve" y="504.5731" clip-path="url(#clipPath2)" font-family="sans-serif" stroke="none">der</text>
      <path fill="none" d="M812.1766 482.5 L848.1002 523.7599" clip-path="url(#clipPath2)"/>
      <path d="M855.3234 532.056 L851.9687 519.0658 L842.9184 526.9456 Z" clip-path="url(#clipPath2)" stroke="none"/>
      <path fill="none" d="M717.8234 482.5 L681.8998 523.7599" clip-path="url(#clipPath2)"/>
      <path d="M674.6766 532.056 L687.0816 526.9456 L678.0313 519.0658 Z" clip-path="url(#clipPath2)" stroke="none"/>
    </g>
  </g>
</svg>
