<?xml version="1.0" encoding="UTF-8"?><svg xmlns="http://www.w3.org/2000/svg" xmlns:xlink="http://www.w3.org/1999/xlink" fill-opacity="1" color-rendering="auto" color-interpolation="auto" text-rendering="auto" stroke="black" stroke-linecap="square" width="340" stroke-miterlimit="10" shape-rendering="auto" stroke-opacity="1" fill="black" stroke-dasharray="none" font-weight="normal" stroke-width="1" height="210" font-family="'Dialog'" font-style="normal" stroke-linejoin="miter" font-size="12px" stroke-dashoffset="0" image-rendering="auto">
  <!--Generated by ySVG 2.5-->
  <defs id="genericDefs"/>
  <g>
    <defs id="defs1">
      <clipPath clipPathUnits="userSpaceOnUse" id="clipPath1">
        <path d="M0 0 L340 0 L340 210 L0 210 L0 0 Z"/>
      </clipPath>
      <clipPath clipPathUnits="userSpaceOnUse" id="clipPath2">
        <path d="M595 402 L935 402 L935 612 L595 612 L595 402 Z"/>
      </clipPath>
    </defs>
    <g text-rendering="geometricPrecision" stroke-miterlimit="1.45" shape-rendering="geometricPrecision" transform="matrix(1,0,0,1,-595,-402)" stroke-linecap="butt">
      <rect fill="none" x="705" width="30" height="30" y="465" clip-path="url(#clipPath2)"/>
    </g>
    <g text-rendering="geometricPrecision" stroke-miterlimit="1.45" shape-rendering="geometricPrecision" transform="matrix(1,0,0,1,-595,-402)" stroke-linecap="butt">
      <rect fill="none" x="795" width="30" height="30" y="465" clip-path="url(#clipPath2)"/>
      <rect fill="none" x="735" width="60" height="30" y="465" clip-path="url(#clipPath2)"/>
      <text x="751.9951" xml:space="preserve" y="483.5815" clip-path="url(#clipPath2)" font-family="sans-serif" stroke="none">valor</text>
      <text x="664.8301" xml:space="preserve" y="504.5731" clip-path="url(#clipPath2)" font-family="sans-serif" stroke="none">izq</text>
      <text x="848.8281" xml:space="preserve" y="504.5731" clip-path="url(#clipPath2)" font-family="sans-serif" stroke="none">der</text>
    </g>
    <g transform="matrix(1,0,0,1,-595,-402)" fill-opacity="0.498" fill="rgb(255,0,0)" text-rendering="geometricPrecision" shape-rendering="geometricPrecision" stroke="rgb(255,0,0)" stroke-opacity="0.498">
      <rect x="692.5" width="30" height="20" y="417.1888" clip-path="url(#clipPath2)" stroke="none"/>
    </g>
    <g text-rendering="geometricPrecision" stroke-miterlimit="1.45" shape-rendering="geometricPrecision" transform="matrix(1,0,0,1,-595,-402)" stroke-linecap="butt">
      <rect fill="none" x="692.5" width="30" height="20" y="417.1888" clip-path="url(#clipPath2)"/>
      <text x="697.832" xml:space="preserve" y="431.9027" clip-path="url(#clipPath2)" font-family="sans-serif" stroke="none">raiz</text>
      <rect x="615" y="531.2268" clip-path="url(#clipPath2)" fill="none" width="30" stroke-dasharray="6,2" height="30"/>
      <rect x="705" y="531.2268" clip-path="url(#clipPath2)" fill="none" width="30" stroke-dasharray="6,2" height="30"/>
      <rect x="645" y="531.2268" clip-path="url(#clipPath2)" fill="none" width="60" stroke-dasharray="6,2" height="30"/>
      <text x="658.6582" xml:space="preserve" y="549.8083" clip-path="url(#clipPath2)" font-family="sans-serif" stroke="none">valor2</text>
      <rect x="795" y="530.3976" clip-path="url(#clipPath2)" fill="none" width="30" stroke-dasharray="6,2" height="30"/>
      <rect x="885" y="530.3976" clip-path="url(#clipPath2)" fill="none" width="30" stroke-dasharray="6,2" height="30"/>
      <rect x="825" y="530.3976" clip-path="url(#clipPath2)" fill="none" width="60" stroke-dasharray="6,2" height="30"/>
      <text x="838.6582" xml:space="preserve" y="548.9791" clip-path="url(#clipPath2)" font-family="sans-serif" stroke="none">valor3</text>
      <path fill="none" d="M722.5 427.1888 L765 427.1888 L765 454" clip-path="url(#clipPath2)"/>
      <path d="M765 465 L771 453 L759 453 Z" clip-path="url(#clipPath2)" stroke="none"/>
      <path fill="none" d="M718.2717 482.5 L690.8419 522.1785" clip-path="url(#clipPath2)"/>
      <path d="M684.5867 531.2268 L696.346 524.7678 L686.4751 517.944 Z" clip-path="url(#clipPath2)" stroke="none"/>
      <path fill="none" d="M811.7505 482.5 L838.9802 521.387" clip-path="url(#clipPath2)"/>
      <path d="M845.2896 530.3976 L843.3215 517.1264 L833.4917 524.0094 Z" clip-path="url(#clipPath2)" stroke="none"/>
      <path fill="none" stroke-dasharray="6,2" d="M720.9435 549.8592 L732.6723 580.9354" clip-path="url(#clipPath2)"/>
      <path stroke-dasharray="6,2" d="M736.5565 591.2268 L737.9327 577.8812 L726.7057 582.1184 Z" clip-path="url(#clipPath2)" stroke="none"/>
      <path fill="none" stroke-dasharray="6,2" d="M900.9211 547.8976 L912.7762 580.0758" clip-path="url(#clipPath2)"/>
      <path stroke-dasharray="6,2" d="M916.5789 590.3976 L918.0605 577.0632 L906.8004 581.2117 Z" clip-path="url(#clipPath2)" stroke="none"/>
      <path fill="none" stroke-dasharray="6,2" d="M809.0789 547.8976 L797.2238 580.0758" clip-path="url(#clipPath2)"/>
      <path stroke-dasharray="6,2" d="M793.4211 590.3976 L803.1996 581.2117 L791.9395 577.0632 Z" clip-path="url(#clipPath2)" stroke="none"/>
      <path fill="none" stroke-dasharray="6,2" d="M629.0789 548.7268 L617.2238 580.905" clip-path="url(#clipPath2)"/>
      <path stroke-dasharray="6,2" d="M613.4211 591.2268 L623.1996 582.0409 L611.9395 577.8925 Z" clip-path="url(#clipPath2)" stroke="none"/>
    </g>
  </g>
</svg>
