<svg width="2887" height="421" xmlns="http://www.w3.org/2000/svg" xmlns:xlink="http://www.w3.org/1999/xlink" xml:space="preserve" overflow="hidden"><defs><clipPath id="clip0"><rect x="358" y="1586" width="2887" height="421"/></clipPath></defs><g clip-path="url(#clip0)" transform="translate(-358 -1586)"><path d="M1320.5 1631.5 1650.5 1631.5 1650.5 1961.5 1320.5 1961.5Z" stroke="#000000" stroke-width="4.58333" stroke-miterlimit="8" fill="#ED7D31" fill-rule="evenodd"/><text fill="#FFFFFF" font-family="Courier New,Courier New_MSFontService,sans-serif" font-weight="400" font-size="128" transform="matrix(1 0 0 1 1446.61 1832)">f</text><path d="M775 1789.13 1285.29 1789.13 1285.29 1802.88 775 1802.88ZM1278.41 1775.38 1319.66 1796 1278.41 1816.63Z" fill="#70AD47"/><path d="M1650 1789.13 2160 1789.13 2160 1802.88 1650 1802.88ZM2153.12 1775.38 2194.37 1796 2153.12 1816.63Z" fill="#70AD47"/><path d="M360.5 1796.5C360.5 1681.62 453.401 1588.5 568 1588.5 682.599 1588.5 775.5 1681.62 775.5 1796.5 775.5 1911.38 682.599 2004.5 568 2004.5 453.401 2004.5 360.5 1911.38 360.5 1796.5Z" stroke="#000000" stroke-width="4.58333" stroke-miterlimit="8" fill="#FFF2CC" fill-rule="evenodd"/><text font-family="Courier New,Courier New_MSFontService,sans-serif" font-weight="400" font-size="73" transform="matrix(1 0 0 1 479.237 1729)">x  y  <tspan font-size="73" x="66.1833" y="88">z  </tspan><tspan font-size="73" x="66.1833" y="176">…</tspan></text><path d="M2194.5 1796.5C2194.5 1681.62 2429.1 1588.5 2718.5 1588.5 3007.9 1588.5 3242.5 1681.62 3242.5 1796.5 3242.5 1911.38 3007.9 2004.5 2718.5 2004.5 2429.1 2004.5 2194.5 1911.38 2194.5 1796.5Z" stroke="#000000" stroke-width="4.58333" stroke-miterlimit="8" fill="#E2F0D9" fill-rule="evenodd"/><text font-family="Courier New,Courier New_MSFontService,sans-serif" font-weight="400" font-size="64" transform="matrix(1 0 0 1 2392.07 1814)">w = f(x, y, z, …)</text></g></svg>