<svg width="655" height="704" xmlns="http://www.w3.org/2000/svg" xmlns:xlink="http://www.w3.org/1999/xlink" xml:space="preserve" overflow="hidden"><defs><clipPath id="clip0"><rect x="1240" y="1011" width="655" height="704"/></clipPath></defs><g clip-path="url(#clip0)" transform="translate(-1240 -1011)"><path d="M1242.5 1387.5C1242.5 1208.01 1388.01 1062.5 1567.5 1062.5 1746.99 1062.5 1892.5 1208.01 1892.5 1387.5 1892.5 1566.99 1746.99 1712.5 1567.5 1712.5 1388.01 1712.5 1242.5 1566.99 1242.5 1387.5Z" stroke="#000000" stroke-width="4.58333" stroke-miterlimit="8" fill="#FFC000" fill-rule="evenodd"/><path d="M1372.5 1387.5C1372.5 1279.8 1459.8 1192.5 1567.5 1192.5 1675.2 1192.5 1762.5 1279.8 1762.5 1387.5 1762.5 1495.2 1675.2 1582.5 1567.5 1582.5 1459.8 1582.5 1372.5 1495.2 1372.5 1387.5Z" stroke="#000000" stroke-width="4.58333" stroke-miterlimit="8" fill="#FFFFFF" fill-rule="evenodd"/><path d="M1.36428e-05-6.875 147.488-6.87471 147.488 6.87529-1.36428e-05 6.875ZM140.613-20.6247 181.863 0.000360892 140.613 20.6253Z" transform="matrix(-1 0 0 1 1553.86 1387)"/><path d="M4.72558-4.99344 222.447 201.049 212.996 211.036-4.72558 4.99344ZM226.905 186.337 242.689 229.67 198.552 216.297Z" transform="matrix(1 0 0 -1 1554 1387.67)"/><text font-family="Courier New,Courier New_MSFontService,sans-serif" font-weight="400" font-size="83" transform="matrix(1 0 0 1 1379.61 1356)">R<tspan font-size="64" x="49.2709" y="0">int</tspan></text><text font-family="Courier New,Courier New_MSFontService,sans-serif" font-weight="400" font-size="83" transform="matrix(0.670029 -0.742335 0.742335 0.670029 1681.83 1220)">R<tspan font-size="64" x="49.586" y="-0.284412">ext</tspan></text></g></svg>