<svg width="2255" height="421" xmlns="http://www.w3.org/2000/svg" xmlns:xlink="http://www.w3.org/1999/xlink" xml:space="preserve" overflow="hidden"><defs><clipPath id="clip0"><rect x="489" y="1576" width="2255" height="421"/></clipPath></defs><g clip-path="url(#clip0)" transform="translate(-489 -1576)"><path d="M1451.5 1621.5 1781.5 1621.5 1781.5 1951.5 1451.5 1951.5Z" stroke="#000000" stroke-width="4.58333" stroke-miterlimit="8" fill="#ED7D31" fill-rule="evenodd"/><text fill="#FFFFFF" font-family="Courier New,Courier New_MSFontService,sans-serif" font-weight="400" font-size="128" transform="matrix(1 0 0 1 1577.97 1822)">f</text><path d="M907 1779.13 1417.29 1779.13 1417.29 1792.88 907 1792.88ZM1410.41 1765.38 1451.66 1786 1410.41 1806.63Z" fill="#70AD47"/><path d="M1781 1779.13 2291 1779.13 2291 1792.88 1781 1792.88ZM2284.12 1765.38 2325.37 1786 2284.12 1806.63Z" fill="#70AD47"/><path d="M491.5 1786.5C491.5 1671.62 584.625 1578.5 699.5 1578.5 814.375 1578.5 907.5 1671.62 907.5 1786.5 907.5 1901.38 814.375 1994.5 699.5 1994.5 584.625 1994.5 491.5 1901.38 491.5 1786.5Z" stroke="#000000" stroke-width="4.58333" stroke-miterlimit="8" fill="#FFF2CC" fill-rule="evenodd"/><text font-family="Courier New,Courier New_MSFontService,sans-serif" font-weight="400" font-size="73" transform="matrix(1 0 0 1 654.71 1807)">27</text><path d="M2326.5 1786.5C2326.5 1671.62 2419.4 1578.5 2534 1578.5 2648.6 1578.5 2741.5 1671.62 2741.5 1786.5 2741.5 1901.38 2648.6 1994.5 2534 1994.5 2419.4 1994.5 2326.5 1901.38 2326.5 1786.5Z" stroke="#000000" stroke-width="4.58333" stroke-miterlimit="8" fill="#E2F0D9" fill-rule="evenodd"/><text font-family="Courier New,Courier New_MSFontService,sans-serif" font-weight="400" font-size="64" transform="matrix(1 0 0 1 2495.22 1805)">72</text></g></svg>