<svg width="2956" height="1758" xmlns="http://www.w3.org/2000/svg" xmlns:xlink="http://www.w3.org/1999/xlink" xml:space="preserve" overflow="hidden"><defs><clipPath id="clip0"><rect x="225" y="565" width="2956" height="1758"/></clipPath></defs><g clip-path="url(#clip0)" transform="translate(-225 -565)"><path d="M1012.5 807.5 1342.5 807.5 1342.5 1137.5 1012.5 1137.5Z" stroke="#000000" stroke-width="4.58333" stroke-miterlimit="8" fill="#ED7D31" fill-rule="evenodd"/><text fill="#FFFFFF" font-family="Courier New,Courier New_MSFontService,sans-serif" font-weight="400" font-size="92" transform="matrix(1 0 0 1 1067.04 998)">//10</text><path d="M3.19548-6.08724 403.06 203.82 396.669 215.995-3.19548 6.08724ZM403.363 188.45 430.3 225.885 384.19 224.974Z" fill="#70AD47" transform="matrix(1 0 0 -1 582 1197.88)"/><path d="M1342 965.125 1507.8 965.125 1507.8 978.875 1342 978.875ZM1500.93 951.375 1542.18 972 1500.93 992.625Z" fill="#70AD47"/><path d="M227.5 1345.5C227.5 1230.62 320.625 1137.5 435.5 1137.5 550.375 1137.5 643.5 1230.62 643.5 1345.5 643.5 1460.38 550.375 1553.5 435.5 1553.5 320.625 1553.5 227.5 1460.38 227.5 1345.5Z" stroke="#000000" stroke-width="4.58333" stroke-miterlimit="8" fill="#FFF2CC" fill-rule="evenodd"/><text font-family="Courier New,Courier New_MSFontService,sans-serif" font-weight="400" font-size="73" transform="matrix(1 0 0 1 390.634 1366)">27</text><path d="M1542.5 972.5C1542.5 857.625 1635.62 764.5 1750.5 764.5 1865.38 764.5 1958.5 857.625 1958.5 972.5 1958.5 1087.38 1865.38 1180.5 1750.5 1180.5 1635.62 1180.5 1542.5 1087.38 1542.5 972.5Z" stroke="#000000" stroke-width="4.58333" stroke-miterlimit="8" fill="#D6DCE5" fill-rule="evenodd"/><text font-family="Courier New,Courier New_MSFontService,sans-serif" font-weight="400" font-size="64" transform="matrix(1 0 0 1 1730.9 991)">2</text><path d="M585.195 1485.91 985.06 1695.82 978.669 1707.99 578.804 1498.09ZM985.363 1680.45 1012.3 1717.88 966.19 1716.97Z" fill="#70AD47"/><path d="M1012.5 1553.5 1342.5 1553.5 1342.5 1883.5 1012.5 1883.5Z" stroke="#000000" stroke-width="4.58333" stroke-miterlimit="8" fill="#ED7D31" fill-rule="evenodd"/><text fill="#FFFFFF" font-family="Courier New,Courier New_MSFontService,sans-serif" font-weight="400" font-size="92" transform="matrix(1 0 0 1 1094.54 1744)">%10</text><path d="M1542.5 1718.5C1542.5 1603.62 1635.62 1510.5 1750.5 1510.5 1865.38 1510.5 1958.5 1603.62 1958.5 1718.5 1958.5 1833.38 1865.38 1926.5 1750.5 1926.5 1635.62 1926.5 1542.5 1833.38 1542.5 1718.5Z" stroke="#000000" stroke-width="4.58333" stroke-miterlimit="8" fill="#F8CBAD" fill-rule="evenodd"/><text font-family="Courier New,Courier New_MSFontService,sans-serif" font-weight="400" font-size="64" transform="matrix(1 0 0 1 1730.9 1736)">7</text><path d="M1342 1711.13 1507.8 1711.13 1507.8 1724.88 1342 1724.88ZM1500.93 1697.38 1542.18 1718 1500.93 1738.63Z" fill="#70AD47"/><text font-family="Courier New,Courier New_MSFontService,sans-serif" font-weight="400" font-size="83" transform="matrix(1 0 0 1 963.201 663)">División <tspan font-size="83" x="73.9062" y="99">entera</tspan><tspan font-size="83" x="66.0244" y="1316">Módulo</tspan></text><path d="M1750 1338.13 1923.5 1338.13 1923.5 1351.88 1750 1351.88ZM1916.62 1324.38 1957.87 1345 1916.62 1365.63Z" fill="#70AD47"/><path d="M1750 1180 1750 1510" stroke="#70AD47" stroke-width="13.75" stroke-miterlimit="8" fill="none" fill-rule="evenodd"/><rect x="1958.5" y="1228.5" width="683" height="233" stroke="#000000" stroke-width="4.58333" stroke-miterlimit="8" fill="#ED7D31"/><text fill="#FFFFFF" font-family="Courier New,Courier New_MSFontService,sans-serif" font-weight="400" font-size="92" transform="matrix(1 0 0 1 2161.76 1371)">*10 +</text><path d="M1997.5 1345.5C1997.5 1309.6 2026.6 1280.5 2062.5 1280.5 2098.4 1280.5 2127.5 1309.6 2127.5 1345.5 2127.5 1381.4 2098.4 1410.5 2062.5 1410.5 2026.6 1410.5 1997.5 1381.4 1997.5 1345.5Z" stroke="#000000" stroke-width="4.58333" stroke-miterlimit="8" fill="#F8CBAD" fill-rule="evenodd"/><path d="M2456.5 1348.5C2456.5 1312.6 2485.6 1283.5 2521.5 1283.5 2557.4 1283.5 2586.5 1312.6 2586.5 1348.5 2586.5 1384.4 2557.4 1413.5 2521.5 1413.5 2485.6 1413.5 2456.5 1384.4 2456.5 1348.5Z" stroke="#000000" stroke-width="4.58333" stroke-miterlimit="8" fill="#D6DCE5" fill-rule="evenodd"/><path d="M2641.16 1338.13 2728.04 1340.1 2727.73 1353.85 2640.84 1351.87ZM2721.48 1326.2 2762.25 1347.76 2720.54 1367.44Z" fill="#70AD47"/><path d="M2762.5 1348.5C2762.5 1233.62 2855.62 1140.5 2970.5 1140.5 3085.38 1140.5 3178.5 1233.62 3178.5 1348.5 3178.5 1463.38 3085.38 1556.5 2970.5 1556.5 2855.62 1556.5 2762.5 1463.38 2762.5 1348.5Z" stroke="#000000" stroke-width="4.58333" stroke-miterlimit="8" fill="#E2F0D9" fill-rule="evenodd"/><text font-family="Courier New,Courier New_MSFontService,sans-serif" font-weight="400" font-size="64" transform="matrix(1 0 0 1 2931.29 1366)">72</text><rect x="713" y="574" width="1987" height="1523" stroke="#000000" stroke-width="13.75" stroke-miterlimit="8" stroke-dasharray="55 41.25" fill="none"/><rect x="1275.5" y="2157.5" width="863" height="134" stroke="#000000" stroke-width="3.4375" stroke-linejoin="round" stroke-miterlimit="10" fill="none"/><text font-family="Courier New,Courier New_MSFontService,sans-serif" font-weight="400" font-size="83" transform="matrix(1 0 0 1 1312.17 2247)">función invertir</text></g></svg>