<?xml version="1.0" encoding="UTF-8"?><svg xmlns="http://www.w3.org/2000/svg" xmlns:xlink="http://www.w3.org/1999/xlink" fill-opacity="1" color-rendering="auto" color-interpolation="auto" text-rendering="auto" stroke="black" stroke-linecap="square" width="750" stroke-miterlimit="10" shape-rendering="auto" stroke-opacity="1" fill="black" stroke-dasharray="none" font-weight="normal" stroke-width="1" height="316" font-family="'Dialog'" font-style="normal" stroke-linejoin="miter" font-size="12px" stroke-dashoffset="0" image-rendering="auto">
  <!--Generated by ySVG 2.6-->
  <defs id="genericDefs"/>
  <g>
    <defs id="defs1">
      <clipPath clipPathUnits="userSpaceOnUse" id="clipPath1">
        <path d="M0 0 L750 0 L750 316 L0 316 L0 0 Z"/>
      </clipPath>
      <clipPath clipPathUnits="userSpaceOnUse" id="clipPath2">
        <path d="M735 871 L1485 871 L1485 1187 L735 1187 L735 871 Z"/>
      </clipPath>
    </defs>
    <g fill="rgb(255,255,153)" text-rendering="geometricPrecision" shape-rendering="geometricPrecision" transform="matrix(1,0,0,1,-735,-871)" stroke="rgb(255,255,153)">
      <rect x="960" width="300" height="50" y="1027" clip-path="url(#clipPath2)" stroke="none"/>
    </g>
    <g text-rendering="geometricPrecision" stroke-miterlimit="1.45" shape-rendering="geometricPrecision" transform="matrix(1,0,0,1,-735,-871)" stroke-linecap="butt">
      <rect fill="none" x="960" width="300" height="50" y="1027" clip-path="url(#clipPath2)"/>
      <text x="965.9766" font-size="24px" y="1058.3867" clip-path="url(#clipPath2)" font-family="'Courier New'" stroke="none" xml:space="preserve">Reductor: x,y -&gt; any</text>
      <rect fill="none" x="1350" width="120" height="30" y="887" clip-path="url(#clipPath2)"/>
      <text x="1402.7988" font-size="24px" y="908.3867" clip-path="url(#clipPath2)" font-family="'Courier New'" stroke="none" xml:space="preserve">1</text>
    </g>
    <g fill="rgb(255,204,0)" text-rendering="geometricPrecision" shape-rendering="geometricPrecision" transform="matrix(1,0,0,1,-735,-871)" stroke="rgb(255,204,0)">
      <ellipse rx="55.625" ry="119.6875" clip-path="url(#clipPath2)" cx="810" cy="1052" stroke="none"/>
    </g>
    <g text-rendering="geometricPrecision" stroke-miterlimit="1.45" shape-rendering="geometricPrecision" transform="matrix(1,0,0,1,-735,-871)" stroke-linecap="butt">
      <ellipse rx="55.625" fill="none" ry="119.6875" clip-path="url(#clipPath2)" cx="810" cy="1052"/>
      <rect fill="none" x="750" width="120" height="30" y="887" clip-path="url(#clipPath2)"/>
      <text x="802.7988" font-size="24px" y="908.3867" clip-path="url(#clipPath2)" font-family="'Courier New'" stroke="none" xml:space="preserve">N</text>
    </g>
    <g fill="aqua" text-rendering="geometricPrecision" shape-rendering="geometricPrecision" transform="matrix(1,0,0,1,-735,-871)" stroke="aqua">
      <rect x="1395" width="30" height="30" y="1035" clip-path="url(#clipPath2)" stroke="none"/>
    </g>
    <g text-rendering="geometricPrecision" stroke-miterlimit="1.45" shape-rendering="geometricPrecision" transform="matrix(1,0,0,1,-735,-871)" stroke-linecap="butt">
      <rect fill="none" x="1395" width="30" height="30" y="1035" clip-path="url(#clipPath2)"/>
      <path fill="none" d="M865.6328 1052 L951.9766 1052" clip-path="url(#clipPath2)"/>
      <path d="M959.9766 1052 L947.9766 1047 L950.9766 1052 L947.9766 1057 Z" clip-path="url(#clipPath2)" stroke="none"/>
      <path fill="none" d="M858.123 991.9677 L861.1483 991.1724 L864.3113 990.3796 L867.5039 989.6562 L870.7407 989.037 L874.0366 988.5567 L877.4062 988.25 L880.8644 988.1516 L884.4259 988.2963 L888.1055 988.7188 L891.9178 989.4537 L895.8777 990.5359 L900 992 L904.2944 993.8692 L908.7512 996.1204 L913.3555 998.7188 L918.0926 1001.6296 L922.9478 1004.8183 L927.9062 1008.25 L932.9532 1011.8901 L938.0741 1015.7037 L943.2539 1019.6562 L948.478 1023.713 L952.7197 1027.0443 L952.7982 1027.1063" clip-path="url(#clipPath2)"/>
      <path d="M959.0785 1032.0619 L952.7553 1020.7033 L952.0132 1026.4868 L946.5608 1028.5536 Z" clip-path="url(#clipPath2)" stroke="none"/>
      <path fill="none" d="M859.0576 1108.4525 L861.1483 1109.347 L864.3113 1110.6516 L867.5039 1111.8711 L870.7407 1112.963 L874.0366 1113.8846 L877.4062 1114.5938 L880.8644 1115.0476 L884.4259 1115.2037 L888.1055 1115.0195 L891.9178 1114.4525 L895.8777 1113.4602 L900 1112 L904.2944 1110.0436 L908.7512 1107.6193 L913.3555 1104.7695 L918.0926 1101.537 L922.9478 1097.9642 L927.9062 1094.0938 L932.9532 1089.968 L938.0741 1085.6296 L943.2539 1081.1211 L948.478 1076.485 L953.0643 1072.3635 L953.1384 1072.2965" clip-path="url(#clipPath2)"/>
      <path d="M959.0742 1066.933 L946.8184 1071.2684 L952.3965 1072.9669 L953.5228 1078.6881 Z" clip-path="url(#clipPath2)" stroke="none"/>
      <path fill="none" d="M864.5512 1075.3707 L871.6667 1077.5555 L878.9766 1079.4219 L886.1458 1080.8195 L893.1589 1081.6962 L900 1082 L906.6589 1081.6962 L913.1458 1080.8195 L919.4766 1079.4219 L925.6667 1077.5555 L931.7318 1075.2726 L937.6875 1072.625 L943.5495 1069.6649 L949.3333 1066.4445 L953.2075 1064.1227 L953.292 1064.0692" clip-path="url(#clipPath2)"/>
      <path d="M960.0826 1059.8398 L947.2533 1061.9398 L952.4432 1064.5979 L952.54 1070.4281 Z" clip-path="url(#clipPath2)" stroke="none"/>
      <path fill="none" d="M864.5368 1028.4867 L871.2037 1026.4445 L878.5664 1024.5781 L885.8275 1023.1805 L892.9758 1022.3038 L900 1022 L906.8925 1022.3038 L913.6609 1023.1805 L920.3164 1024.5781 L926.8704 1026.4445 L933.334 1028.7274 L939.7188 1031.375 L946.0357 1034.3351 L952.2963 1037.5555 L952.9976 1037.9424 L953.084 1037.9926" clip-path="url(#clipPath2)"/>
      <path d="M960.072 1041.8873 L952.0243 1031.6777 L952.2106 1037.5057 L947.1559 1040.4127 Z" clip-path="url(#clipPath2)" stroke="none"/>
      <path fill="none" d="M1260 1051 L1387.0001 1050.1533" clip-path="url(#clipPath2)"/>
      <path d="M1395 1050.1 L1382.9669 1045.1801 L1386.0002 1050.16 L1383.0336 1055.1799 Z" clip-path="url(#clipPath2)" stroke="none"/>
    </g>
  </g>
</svg>
