<?xml version="1.0" encoding="UTF-8"?><svg xmlns="http://www.w3.org/2000/svg" xmlns:xlink="http://www.w3.org/1999/xlink" fill-opacity="1" color-rendering="auto" color-interpolation="auto" text-rendering="auto" stroke="black" stroke-linecap="square" width="750" stroke-miterlimit="10" shape-rendering="auto" stroke-opacity="1" fill="black" stroke-dasharray="none" font-weight="normal" stroke-width="1" height="316" font-family="'Dialog'" font-style="normal" stroke-linejoin="miter" font-size="12px" stroke-dashoffset="0" image-rendering="auto">
  <!--Generated by ySVG 2.6-->
  <defs id="genericDefs"/>
  <g>
    <defs id="defs1">
      <clipPath clipPathUnits="userSpaceOnUse" id="clipPath1">
        <path d="M0 0 L750 0 L750 316 L0 316 L0 0 Z"/>
      </clipPath>
      <clipPath clipPathUnits="userSpaceOnUse" id="clipPath2">
        <path d="M675 809 L1425 809 L1425 1125 L675 1125 L675 809 Z"/>
      </clipPath>
    </defs>
    <g fill="rgb(255,204,0)" text-rendering="geometricPrecision" shape-rendering="geometricPrecision" transform="matrix(1,0,0,1,-675,-809)" stroke="rgb(255,204,0)">
      <ellipse rx="55.625" ry="119.6875" clip-path="url(#clipPath2)" cx="1350" cy="990" stroke="none"/>
    </g>
    <g text-rendering="geometricPrecision" stroke-miterlimit="1.45" shape-rendering="geometricPrecision" transform="matrix(1,0,0,1,-675,-809)" stroke-linecap="butt">
      <ellipse rx="55.625" fill="none" ry="119.6875" clip-path="url(#clipPath2)" cx="1350" cy="990"/>
    </g>
    <g fill="rgb(255,255,153)" text-rendering="geometricPrecision" shape-rendering="geometricPrecision" transform="matrix(1,0,0,1,-675,-809)" stroke="rgb(255,255,153)">
      <rect x="900" width="300" height="50" y="965" clip-path="url(#clipPath2)" stroke="none"/>
    </g>
    <g text-rendering="geometricPrecision" stroke-miterlimit="1.45" shape-rendering="geometricPrecision" transform="matrix(1,0,0,1,-675,-809)" stroke-linecap="butt">
      <rect fill="none" x="900" width="300" height="50" y="965" clip-path="url(#clipPath2)"/>
      <text x="927.5801" font-size="24px" y="996.3867" clip-path="url(#clipPath2)" font-family="'Courier New'" stroke="none" xml:space="preserve">Filtro: x -&gt; bool</text>
      <rect fill="none" x="1290" width="120" height="30" y="825" clip-path="url(#clipPath2)"/>
      <text x="1292.3906" font-size="24px" y="846.3867" clip-path="url(#clipPath2)" font-family="'Courier New'" stroke="none" xml:space="preserve">[0 -&gt; N]</text>
    </g>
    <g fill="rgb(255,204,0)" text-rendering="geometricPrecision" shape-rendering="geometricPrecision" transform="matrix(1,0,0,1,-675,-809)" stroke="rgb(255,204,0)">
      <ellipse rx="55.625" ry="119.6875" clip-path="url(#clipPath2)" cx="750" cy="990" stroke="none"/>
    </g>
    <g text-rendering="geometricPrecision" stroke-miterlimit="1.45" shape-rendering="geometricPrecision" transform="matrix(1,0,0,1,-675,-809)" stroke-linecap="butt">
      <ellipse rx="55.625" fill="none" ry="119.6875" clip-path="url(#clipPath2)" cx="750" cy="990"/>
      <ellipse clip-path="url(#clipPath2)" fill="none" rx="35.5078" stroke-dasharray="12,4" cx="1350" ry="46.25" cy="943.75" stroke-width="2"/>
      <rect fill="none" x="690" width="120" height="30" y="825" clip-path="url(#clipPath2)"/>
      <text x="742.7988" font-size="24px" y="846.3867" clip-path="url(#clipPath2)" font-family="'Courier New'" stroke="none" xml:space="preserve">N</text>
      <path fill="none" d="M805.6328 990 L891.9766 990" clip-path="url(#clipPath2)"/>
      <path d="M899.9766 990 L887.9766 985 L890.9766 990 L887.9766 995 Z" clip-path="url(#clipPath2)" stroke="none"/>
      <path fill="none" d="M798.123 929.9677 L801.1483 929.1724 L804.3113 928.3796 L807.5039 927.6562 L810.7407 927.037 L814.0366 926.5567 L817.4062 926.25 L820.8644 926.1516 L824.4259 926.2963 L828.1055 926.7188 L831.9178 927.4537 L835.8777 928.5359 L840 930 L844.2944 931.8692 L848.7512 934.1204 L853.3555 936.7188 L858.0926 939.6296 L862.9478 942.8183 L867.9062 946.25 L872.9532 949.8901 L878.0741 953.7037 L883.2539 957.6562 L888.478 961.713 L892.7197 965.0444 L892.7982 965.1063" clip-path="url(#clipPath2)"/>
      <path d="M899.0785 970.062 L892.7553 958.7034 L892.0132 964.4869 L886.5608 966.5537 Z" clip-path="url(#clipPath2)" stroke="none"/>
      <path fill="none" d="M799.0576 1046.4525 L801.1483 1047.347 L804.3113 1048.6516 L807.5039 1049.8711 L810.7407 1050.963 L814.0366 1051.8846 L817.4062 1052.5938 L820.8644 1053.0476 L824.4259 1053.2037 L828.1055 1053.0195 L831.9178 1052.4525 L835.8777 1051.4602 L840 1050 L844.2944 1048.0436 L848.7512 1045.6193 L853.3555 1042.7695 L858.0926 1039.537 L862.9478 1035.9642 L867.9062 1032.0938 L872.9532 1027.968 L878.0741 1023.6296 L883.2539 1019.1211 L888.478 1014.485 L893.0643 1010.3635 L893.1384 1010.2964" clip-path="url(#clipPath2)"/>
      <path d="M899.0742 1004.9329 L886.8184 1009.2682 L892.3965 1010.9668 L893.5227 1016.6879 Z" clip-path="url(#clipPath2)" stroke="none"/>
      <path fill="none" d="M804.5512 1013.3707 L811.6667 1015.5555 L818.9766 1017.4219 L826.1458 1018.8195 L833.1589 1019.6962 L840 1020 L846.6589 1019.6962 L853.1458 1018.8195 L859.4766 1017.4219 L865.6667 1015.5555 L871.7318 1013.2726 L877.6875 1010.625 L883.5495 1007.6649 L889.3333 1004.4445 L893.2075 1002.1227 L893.292 1002.0693" clip-path="url(#clipPath2)"/>
      <path d="M900.0826 997.8398 L887.2534 999.9399 L892.4432 1002.598 L892.5401 1008.4281 Z" clip-path="url(#clipPath2)" stroke="none"/>
      <path fill="none" d="M804.5368 966.4866 L811.2037 964.4445 L818.5664 962.5781 L825.8275 961.1805 L832.9758 960.3038 L840 960 L846.8925 960.3038 L853.6609 961.1805 L860.3164 962.5781 L866.8704 964.4445 L873.334 966.7274 L879.7188 969.375 L886.0357 972.3351 L892.2963 975.5555 L892.9976 975.9424 L893.084 975.9926" clip-path="url(#clipPath2)"/>
      <path d="M900.072 979.8873 L892.0243 969.6777 L892.2106 975.5057 L887.1559 978.4127 Z" clip-path="url(#clipPath2)" stroke="none"/>
      <path fill="none" d="M1200.0035 985.4967 L1232.9871 954.9869 L1239.951 949.2273 L1247.3364 944.4419 L1255.1434 940.6306 L1263.3718 937.7936 L1272.0216 935.9308 L1281.0929 935.0422 L1290.5857 935.1277 L1300.5 936.1875 L1306.8521 937.158" clip-path="url(#clipPath2)"/>
      <path d="M1314.7603 938.3661 L1303.6531 931.6112 L1305.8635 937.007 L1302.1428 941.4965 Z" clip-path="url(#clipPath2)" stroke="none"/>
      <path fill="none" d="M1200.0166 985.2189 L1249.5074 997.4735 L1259.4198 999.3752 L1268.9104 1000.0671 L1277.9795 999.5492 L1286.6268 997.8215 L1294.8527 994.884 L1302.6567 990.7366 L1310.0392 985.3795 L1317 978.8125 L1317.0278 978.783" clip-path="url(#clipPath2)"/>
      <path d="M1322.5107 972.9573 L1310.6454 978.2689 L1316.3425 979.5112 L1317.9274 985.1226 Z" clip-path="url(#clipPath2)" stroke="none"/>
      <path fill="none" d="M1200.0111 985.2531 L1203.3398 984.7266 L1214.2594 982.4062 L1224.0961 979.6641 L1232.85 976.5 L1240.15 973.5 L1256.6875 967.1367 L1273.45 961.5469 L1290.4375 956.7305 L1307.1451 952.8061 L1307.243 952.7855" clip-path="url(#clipPath2)"/>
      <path d="M1315.0681 951.1218 L1302.2906 948.7266 L1306.2649 952.9934 L1304.3702 958.5079 Z" clip-path="url(#clipPath2)" stroke="none"/>
    </g>
  </g>
</svg>
