<?xml version="1.0" encoding="UTF-8"?><svg xmlns="http://www.w3.org/2000/svg" xmlns:xlink="http://www.w3.org/1999/xlink" fill-opacity="1" color-rendering="auto" color-interpolation="auto" text-rendering="auto" stroke="black" stroke-linecap="square" width="750" stroke-miterlimit="10" shape-rendering="auto" stroke-opacity="1" fill="black" stroke-dasharray="none" font-weight="normal" stroke-width="1" height="316" font-family="'Dialog'" font-style="normal" stroke-linejoin="miter" font-size="12px" stroke-dashoffset="0" image-rendering="auto">
  <!--Generated by ySVG 2.6-->
  <defs id="genericDefs"/>
  <g>
    <defs id="defs1">
      <clipPath clipPathUnits="userSpaceOnUse" id="clipPath1">
        <path d="M0 0 L750 0 L750 316 L0 316 L0 0 Z"/>
      </clipPath>
      <clipPath clipPathUnits="userSpaceOnUse" id="clipPath2">
        <path d="M705 840 L1455 840 L1455 1156 L705 1156 L705 840 Z"/>
      </clipPath>
    </defs>
    <g fill="lime" text-rendering="geometricPrecision" shape-rendering="geometricPrecision" transform="matrix(1,0,0,1,-705,-840)" stroke="lime">
      <ellipse rx="55.625" ry="119.6875" clip-path="url(#clipPath2)" cx="1380" cy="1021" stroke="none"/>
    </g>
    <g text-rendering="geometricPrecision" stroke-miterlimit="1.45" shape-rendering="geometricPrecision" transform="matrix(1,0,0,1,-705,-840)" stroke-linecap="butt">
      <ellipse rx="55.625" fill="none" ry="119.6875" clip-path="url(#clipPath2)" cx="1380" cy="1021"/>
    </g>
    <g fill="rgb(255,255,153)" text-rendering="geometricPrecision" shape-rendering="geometricPrecision" transform="matrix(1,0,0,1,-705,-840)" stroke="rgb(255,255,153)">
      <rect x="930" width="300" height="50" y="996" clip-path="url(#clipPath2)" stroke="none"/>
    </g>
    <g text-rendering="geometricPrecision" stroke-miterlimit="1.45" shape-rendering="geometricPrecision" transform="matrix(1,0,0,1,-705,-840)" stroke-linecap="butt">
      <rect fill="none" x="930" width="300" height="50" y="996" clip-path="url(#clipPath2)"/>
      <text x="979.1836" font-size="24px" y="1027.3867" clip-path="url(#clipPath2)" font-family="'Courier New'" stroke="none" xml:space="preserve">Mapa: x -&gt; any</text>
      <rect fill="none" x="1320" width="120" height="30" y="856" clip-path="url(#clipPath2)"/>
      <text x="1372.7988" font-size="24px" y="877.3867" clip-path="url(#clipPath2)" font-family="'Courier New'" stroke="none" xml:space="preserve">N</text>
    </g>
    <g fill="rgb(255,204,0)" text-rendering="geometricPrecision" shape-rendering="geometricPrecision" transform="matrix(1,0,0,1,-705,-840)" stroke="rgb(255,204,0)">
      <ellipse rx="55.625" ry="119.6875" clip-path="url(#clipPath2)" cx="780" cy="1021" stroke="none"/>
    </g>
    <g text-rendering="geometricPrecision" stroke-miterlimit="1.45" shape-rendering="geometricPrecision" transform="matrix(1,0,0,1,-705,-840)" stroke-linecap="butt">
      <ellipse rx="55.625" fill="none" ry="119.6875" clip-path="url(#clipPath2)" cx="780" cy="1021"/>
      <rect fill="none" x="720" width="120" height="30" y="856" clip-path="url(#clipPath2)"/>
      <text x="772.7988" font-size="24px" y="877.3867" clip-path="url(#clipPath2)" font-family="'Courier New'" stroke="none" xml:space="preserve">N</text>
      <path fill="none" d="M1230.0093 996.2934 L1234.4971 993.1512 L1239.9768 989.3345 L1245.4219 985.582 L1250.8148 981.9259 L1256.1383 978.3983 L1261.375 975.0312 L1266.5076 971.8569 L1271.5186 968.9074 L1276.3906 966.2148 L1281.1064 963.8113 L1285.6487 961.729 L1290 960 L1294.1487 958.6457 L1298.1064 957.6447 L1301.8906 956.9648 L1305.5186 956.5741 L1309.0076 956.4402 L1312.375 956.5312 L1315.6383 956.8149 L1318.8148 957.2593 L1321.9219 957.832 L1323.2246 958.1174 L1323.3217 958.1415" clip-path="url(#clipPath2)"/>
      <path d="M1331.0972 960.0235 L1320.6102 952.3409 L1322.3497 957.9063 L1318.2577 962.0602 Z" clip-path="url(#clipPath2)" stroke="none"/>
      <path fill="none" d="M1229 1046 L1234.4971 1049.5575 L1239.9768 1053.0845 L1245.4219 1056.5508 L1250.8148 1059.9259 L1256.1383 1063.1796 L1261.375 1066.2812 L1266.5076 1069.2007 L1271.5186 1071.9073 L1276.3906 1074.3711 L1281.1064 1076.5614 L1285.6487 1078.4478 L1290 1080 L1294.1487 1081.1978 L1298.1064 1082.0614 L1301.8906 1082.6211 L1305.5186 1082.9073 L1309.0076 1082.9507 L1312.375 1082.7812 L1315.6383 1082.4296 L1318.8148 1081.9259 L1321.9219 1081.3008 L1323.2512 1080.9891 L1323.3479 1080.9637" clip-path="url(#clipPath2)"/>
      <path d="M1331.0968 1078.9751 L1318.2306 1077.1149 L1322.3793 1081.2123 L1320.7163 1086.801 Z" clip-path="url(#clipPath2)" stroke="none"/>
      <path fill="none" d="M1230.0063 1032.3402 L1234.6006 1033.8931 L1240.1794 1035.7697 L1245.7148 1037.6133 L1251.1852 1039.4073 L1256.5687 1041.1356 L1261.8438 1042.7812 L1266.9885 1044.328 L1271.9814 1045.7593 L1276.8008 1047.0586 L1281.4248 1048.2095 L1285.8318 1049.1954 L1290 1050 L1293.915 1050.6122 L1297.5914 1051.0428 L1301.0508 1051.3086 L1304.3148 1051.4259 L1307.4053 1051.4113 L1310.3438 1051.2812 L1313.1521 1051.0522 L1315.8518 1050.7407 L1318.0083 1050.4292 L1318.1067 1050.4114" clip-path="url(#clipPath2)"/>
      <path d="M1325.9821 1049.0048 L1313.2899 1046.1926 L1317.1223 1050.5872 L1315.0481 1056.0367 Z" clip-path="url(#clipPath2)" stroke="none"/>
      <path fill="none" d="M1230.0063 1004.7196 L1234.6006 1003.4397 L1240.1794 1001.8923 L1245.7148 1000.3711 L1251.1852 998.8889 L1256.5687 997.4587 L1261.8438 996.0938 L1266.9885 994.8069 L1271.9814 993.6111 L1276.8008 992.5195 L1281.4248 991.5452 L1285.8318 990.7009 L1290 990 L1293.915 989.4509 L1297.5914 989.0452 L1301.0508 988.7695 L1304.3148 988.6111 L1307.4053 988.5569 L1310.3438 988.5938 L1313.1521 988.7087 L1315.8518 988.8889 L1318.0526 989.0845 L1318.152 989.0961" clip-path="url(#clipPath2)"/>
      <path d="M1326.0995 990.0115 L1314.7504 983.6713 L1317.1586 988.9817 L1313.6062 993.6055 Z" clip-path="url(#clipPath2)" stroke="none"/>
      <path fill="none" d="M1230 1021 L1316.375 1021" clip-path="url(#clipPath2)"/>
      <path d="M1324.375 1021 L1312.375 1016 L1315.375 1021 L1312.375 1026 Z" clip-path="url(#clipPath2)" stroke="none"/>
      <path fill="none" d="M835.6328 1021 L921.9766 1021" clip-path="url(#clipPath2)"/>
      <path d="M929.9766 1021 L917.9766 1016 L920.9766 1021 L917.9766 1026 Z" clip-path="url(#clipPath2)" stroke="none"/>
      <path fill="none" d="M828.123 960.9677 L831.1483 960.1724 L834.3113 959.3796 L837.5039 958.6562 L840.7407 958.037 L844.0366 957.5567 L847.4062 957.25 L850.8644 957.1516 L854.4259 957.2963 L858.1055 957.7188 L861.9178 958.4537 L865.8777 959.5359 L870 961 L874.2944 962.8692 L878.7512 965.1204 L883.3555 967.7188 L888.0926 970.6296 L892.9478 973.8183 L897.9062 977.25 L902.9532 980.8901 L908.0741 984.7037 L913.2539 988.6562 L918.478 992.713 L922.7197 996.0444 L922.7982 996.1063" clip-path="url(#clipPath2)"/>
      <path d="M929.0785 1001.062 L922.7553 989.7034 L922.0132 995.4869 L916.5608 997.5537 Z" clip-path="url(#clipPath2)" stroke="none"/>
      <path fill="none" d="M829.0576 1077.4525 L831.1483 1078.347 L834.3113 1079.6516 L837.5039 1080.8711 L840.7407 1081.963 L844.0366 1082.8846 L847.4062 1083.5938 L850.8644 1084.0476 L854.4259 1084.2037 L858.1055 1084.0195 L861.9178 1083.4525 L865.8777 1082.4602 L870 1081 L874.2944 1079.0436 L878.7512 1076.6193 L883.3555 1073.7695 L888.0926 1070.537 L892.9478 1066.9642 L897.9062 1063.0938 L902.9532 1058.968 L908.0741 1054.6296 L913.2539 1050.1211 L918.478 1045.485 L923.0643 1041.3635 L923.1384 1041.2965" clip-path="url(#clipPath2)"/>
      <path d="M929.0742 1035.933 L916.8184 1040.2684 L922.3965 1041.9669 L923.5228 1047.6881 Z" clip-path="url(#clipPath2)" stroke="none"/>
      <path fill="none" d="M834.5512 1044.3707 L841.6667 1046.5555 L848.9766 1048.4219 L856.1458 1049.8195 L863.1589 1050.6962 L870 1051 L876.6589 1050.6962 L883.1458 1049.8195 L889.4766 1048.4219 L895.6667 1046.5555 L901.7318 1044.2726 L907.6875 1041.625 L913.5495 1038.6649 L919.3333 1035.4445 L923.2075 1033.1227 L923.292 1033.0692" clip-path="url(#clipPath2)"/>
      <path d="M930.0826 1028.8398 L917.2533 1030.9398 L922.4432 1033.5979 L922.54 1039.4281 Z" clip-path="url(#clipPath2)" stroke="none"/>
      <path fill="none" d="M834.5368 997.4866 L841.2037 995.4445 L848.5664 993.5781 L855.8275 992.1805 L862.9758 991.3038 L870 991 L876.8925 991.3038 L883.6609 992.1805 L890.3164 993.5781 L896.8704 995.4445 L903.334 997.7274 L909.7188 1000.375 L916.0357 1003.3351 L922.2963 1006.5555 L922.9976 1006.9424 L923.084 1006.9926" clip-path="url(#clipPath2)"/>
      <path d="M930.072 1010.8873 L922.0243 1000.6777 L922.2106 1006.5057 L917.1559 1009.4127 Z" clip-path="url(#clipPath2)" stroke="none"/>
    </g>
  </g>
</svg>
