<?xml version="1.0" encoding="UTF-8"?><svg xmlns="http://www.w3.org/2000/svg" xmlns:xlink="http://www.w3.org/1999/xlink" fill-opacity="1" color-rendering="auto" color-interpolation="auto" text-rendering="auto" stroke="black" stroke-linecap="square" width="664" stroke-miterlimit="10" shape-rendering="auto" stroke-opacity="1" fill="black" stroke-dasharray="none" font-weight="normal" stroke-width="1" height="353" font-family="'Dialog'" font-style="normal" stroke-linejoin="miter" font-size="12px" stroke-dashoffset="0" image-rendering="auto">
  <!--Generated by ySVG 2.5-->
  <defs id="genericDefs"/>
  <g>
    <defs id="defs1">
      <clipPath clipPathUnits="userSpaceOnUse" id="clipPath1">
        <path d="M0 0 L664 0 L664 353 L0 353 L0 0 Z"/>
      </clipPath>
      <clipPath clipPathUnits="userSpaceOnUse" id="clipPath2">
        <path d="M94 302 L758 302 L758 655 L94 655 L94 302 Z"/>
      </clipPath>
    </defs>
    <g transform="matrix(1,0,0,1,-94,-302)" fill-opacity="0.498" fill="rgb(255,102,0)" text-rendering="geometricPrecision" shape-rendering="geometricPrecision" stroke="rgb(255,102,0)" stroke-opacity="0.498">
      <rect x="352.44" width="50" height="50" y="328" clip-path="url(#clipPath2)" stroke="none"/>
    </g>
    <g text-rendering="geometricPrecision" stroke-miterlimit="1.45" shape-rendering="geometricPrecision" transform="matrix(1,0,0,1,-94,-302)" stroke-linecap="butt">
      <rect fill="none" x="352.44" width="50" height="50" y="328" clip-path="url(#clipPath2)"/>
      <text x="366.317" font-size="20px" y="360.8564" clip-path="url(#clipPath2)" font-family="sans-serif" stroke="none" xml:space="preserve">33</text>
    </g>
    <g transform="matrix(1,0,0,1,-94,-302)" fill-opacity="0.498" fill="rgb(255,102,0)" text-rendering="geometricPrecision" shape-rendering="geometricPrecision" stroke="rgb(255,102,0)" stroke-opacity="0.498">
      <rect x="402.44" width="25" height="50" y="328" clip-path="url(#clipPath2)" stroke="none"/>
    </g>
    <g text-rendering="geometricPrecision" stroke-miterlimit="1.45" shape-rendering="geometricPrecision" transform="matrix(1,0,0,1,-94,-302)" stroke-linecap="butt">
      <rect fill="none" x="402.44" width="25" height="50" y="328" clip-path="url(#clipPath2)"/>
    </g>
    <g transform="matrix(1,0,0,1,-94,-302)" fill-opacity="0.498" fill="rgb(0,128,0)" text-rendering="geometricPrecision" shape-rendering="geometricPrecision" stroke="rgb(0,128,0)" stroke-opacity="0.498">
      <rect x="449.94" width="50" height="50" y="328" clip-path="url(#clipPath2)" stroke="none"/>
    </g>
    <g text-rendering="geometricPrecision" stroke-miterlimit="1.45" shape-rendering="geometricPrecision" transform="matrix(1,0,0,1,-94,-302)" stroke-linecap="butt">
      <rect fill="none" x="449.94" width="50" height="50" y="328" clip-path="url(#clipPath2)"/>
      <text x="463.817" font-size="20px" y="360.8564" clip-path="url(#clipPath2)" font-family="sans-serif" stroke="none" xml:space="preserve">76</text>
    </g>
    <g transform="matrix(1,0,0,1,-94,-302)" fill-opacity="0.498" fill="rgb(0,128,0)" text-rendering="geometricPrecision" shape-rendering="geometricPrecision" stroke="rgb(0,128,0)" stroke-opacity="0.498">
      <rect x="499.94" width="25" height="50" y="328" clip-path="url(#clipPath2)" stroke="none"/>
    </g>
    <g text-rendering="geometricPrecision" stroke-miterlimit="1.45" shape-rendering="geometricPrecision" transform="matrix(1,0,0,1,-94,-302)" stroke-linecap="butt">
      <rect fill="none" x="499.94" width="25" height="50" y="328" clip-path="url(#clipPath2)"/>
    </g>
    <g transform="matrix(1,0,0,1,-94,-302)" fill-opacity="0.498" fill="rgb(0,0,255)" text-rendering="geometricPrecision" shape-rendering="geometricPrecision" stroke="rgb(0,0,255)" stroke-opacity="0.498">
      <rect x="547.44" width="50" height="50" y="328" clip-path="url(#clipPath2)" stroke="none"/>
    </g>
    <g text-rendering="geometricPrecision" stroke-miterlimit="1.45" shape-rendering="geometricPrecision" transform="matrix(1,0,0,1,-94,-302)" stroke-linecap="butt">
      <rect fill="none" x="547.44" width="50" height="50" y="328" clip-path="url(#clipPath2)"/>
      <text x="561.317" font-size="20px" y="360.8564" clip-path="url(#clipPath2)" font-family="sans-serif" stroke="none" xml:space="preserve">23</text>
    </g>
    <g transform="matrix(1,0,0,1,-94,-302)" fill-opacity="0.498" fill="rgb(0,0,255)" text-rendering="geometricPrecision" shape-rendering="geometricPrecision" stroke="rgb(0,0,255)" stroke-opacity="0.498">
      <rect x="597.44" width="25" height="50" y="328" clip-path="url(#clipPath2)" stroke="none"/>
    </g>
    <g text-rendering="geometricPrecision" stroke-miterlimit="1.45" shape-rendering="geometricPrecision" transform="matrix(1,0,0,1,-94,-302)" stroke-linecap="butt">
      <rect fill="none" x="597.44" width="25" height="50" y="328" clip-path="url(#clipPath2)"/>
    </g>
    <g transform="matrix(1,0,0,1,-94,-302)" fill-opacity="0.498" fill="rgb(181,35,196)" text-rendering="geometricPrecision" shape-rendering="geometricPrecision" stroke="rgb(181,35,196)" stroke-opacity="0.498">
      <rect x="644.94" width="50" height="50" y="328" clip-path="url(#clipPath2)" stroke="none"/>
    </g>
    <g text-rendering="geometricPrecision" stroke-miterlimit="1.45" shape-rendering="geometricPrecision" transform="matrix(1,0,0,1,-94,-302)" stroke-linecap="butt">
      <rect fill="none" x="644.94" width="50" height="50" y="328" clip-path="url(#clipPath2)"/>
      <text x="658.817" font-size="20px" y="360.8564" clip-path="url(#clipPath2)" font-family="sans-serif" stroke="none" xml:space="preserve">55</text>
    </g>
    <g transform="matrix(1,0,0,1,-94,-302)" fill-opacity="0.498" fill="rgb(181,35,196)" text-rendering="geometricPrecision" shape-rendering="geometricPrecision" stroke="rgb(181,35,196)" stroke-opacity="0.498">
      <rect x="694.94" width="25" height="50" y="328" clip-path="url(#clipPath2)" stroke="none"/>
    </g>
    <g text-rendering="geometricPrecision" stroke-miterlimit="1.45" shape-rendering="geometricPrecision" transform="matrix(1,0,0,1,-94,-302)" stroke-linecap="butt">
      <rect fill="none" x="694.94" width="25" height="50" y="328" clip-path="url(#clipPath2)"/>
      <circle fill="none" r="10" clip-path="url(#clipPath2)" cx="732.44" cy="388"/>
      <text x="728.2725" font-size="10px" y="391.9282" clip-path="url(#clipPath2)" font-family="sans-serif" stroke="none" xml:space="preserve">///</text>
    </g>
    <g transform="matrix(1,0,0,1,-94,-302)" fill-opacity="0.498" fill="rgb(255,0,0)" text-rendering="geometricPrecision" shape-rendering="geometricPrecision" stroke="rgb(255,0,0)" stroke-opacity="0.498">
      <rect x="172.88" width="58.16" height="30" y="338" clip-path="url(#clipPath2)" stroke="none"/>
    </g>
    <g text-rendering="geometricPrecision" stroke-miterlimit="1.45" shape-rendering="geometricPrecision" transform="matrix(1,0,0,1,-94,-302)" stroke-linecap="butt">
      <rect fill="none" x="172.88" width="58.16" height="30" y="338" clip-path="url(#clipPath2)"/>
      <text x="176.9454" font-size="20px" y="360.8564" clip-path="url(#clipPath2)" font-family="sans-serif" stroke="none" xml:space="preserve">Lnum</text>
    </g>
    <g transform="matrix(1,0,0,1,-94,-302)" fill-opacity="0.498" fill="rgb(255,0,0)" text-rendering="geometricPrecision" shape-rendering="geometricPrecision" stroke="rgb(255,0,0)" stroke-opacity="0.498">
      <rect x="254.94" width="50" height="50" y="328" clip-path="url(#clipPath2)" stroke="none"/>
    </g>
    <g text-rendering="geometricPrecision" stroke-miterlimit="1.45" shape-rendering="geometricPrecision" transform="matrix(1,0,0,1,-94,-302)" stroke-linecap="butt">
      <rect fill="none" x="254.94" width="50" height="50" y="328" clip-path="url(#clipPath2)"/>
      <text x="268.817" font-size="20px" y="360.8564" clip-path="url(#clipPath2)" font-family="sans-serif" stroke="none" xml:space="preserve">16</text>
    </g>
    <g transform="matrix(1,0,0,1,-94,-302)" fill-opacity="0.498" fill="rgb(255,0,0)" text-rendering="geometricPrecision" shape-rendering="geometricPrecision" stroke="rgb(255,0,0)" stroke-opacity="0.498">
      <rect x="304.94" width="25" height="50" y="328" clip-path="url(#clipPath2)" stroke="none"/>
    </g>
    <g text-rendering="geometricPrecision" stroke-miterlimit="1.45" shape-rendering="geometricPrecision" transform="matrix(1,0,0,1,-94,-302)" stroke-linecap="butt">
      <rect fill="none" x="304.94" width="25" height="50" y="328" clip-path="url(#clipPath2)"/>
    </g>
    <g fill="rgb(255,204,0)" text-rendering="geometricPrecision" shape-rendering="geometricPrecision" transform="matrix(1,0,0,1,-94,-302)" stroke="rgb(255,204,0)">
      <rect x="109.49" width="184.94" height="71.25" y="424" clip-path="url(#clipPath2)" stroke="none"/>
    </g>
    <g text-rendering="geometricPrecision" stroke-miterlimit="1.45" shape-rendering="geometricPrecision" transform="matrix(1,0,0,1,-94,-302)" stroke-linecap="butt">
      <rect fill="none" x="109.49" width="184.94" height="71.25" y="424" clip-path="url(#clipPath2)"/>
      <text x="141.1006" font-size="20px" y="467.4814" clip-path="url(#clipPath2)" font-family="sans-serif" stroke="none" xml:space="preserve">Filtro: x &gt; 50?</text>
      <rect x="155.085" y="317.375" clip-path="url(#clipPath2)" fill="none" width="93.75" stroke-dasharray="18,6" height="71.25" stroke-width="3"/>
      <rect fill="none" x="109.49" width="184.94" height="98" y="541.25" clip-path="url(#clipPath2)"/>
      <path fill="none" d="M419.94 353 L434.815 353" stroke-width="4" clip-path="url(#clipPath2)"/>
      <path d="M449.94 353 L433.44 344.75 L433.44 361.25 Z" stroke-width="4" clip-path="url(#clipPath2)" stroke="none"/>
      <path fill="none" d="M517.44 353 L532.315 353" stroke-width="4" clip-path="url(#clipPath2)"/>
      <path d="M547.44 353 L530.94 344.75 L530.94 361.25 Z" stroke-width="4" clip-path="url(#clipPath2)" stroke="none"/>
      <path fill="none" d="M614.94 353 L629.815 353" stroke-width="4" clip-path="url(#clipPath2)"/>
      <path d="M644.94 353 L628.44 344.75 L628.44 361.25 Z" stroke-width="4" clip-path="url(#clipPath2)" stroke="none"/>
      <path fill="none" d="M712.44 353 L732.44 353 L732.44 362.875" stroke-width="4" clip-path="url(#clipPath2)"/>
      <path d="M732.44 378 L740.69 361.5 L724.19 361.5 Z" stroke-width="4" clip-path="url(#clipPath2)" stroke="none"/>
      <path fill="none" d="M231.04 353 L239.815 353" stroke-width="4" clip-path="url(#clipPath2)"/>
      <path d="M254.94 353 L238.44 344.75 L238.44 361.25 Z" stroke-width="4" clip-path="url(#clipPath2)" stroke="none"/>
      <path fill="none" d="M322.44 353 L337.2857 353" stroke-width="4" clip-path="url(#clipPath2)"/>
      <path d="M352.4107 353 L335.9107 344.75 L335.9107 361.25 Z" stroke-width="4" clip-path="url(#clipPath2)" stroke="none"/>
      <path fill="none" stroke-dasharray="18,6" d="M155.3627 388.627 L111.4461 423.6706" stroke-width="3" clip-path="url(#clipPath2)"/>
      <path fill="none" stroke-dasharray="18,6" d="M246.4461 389.0456 L290.8834 423.9703" stroke-width="3" clip-path="url(#clipPath2)"/>
      <path fill="none" d="M201.96 495.25 L201.96 526.0801" stroke-width="4" clip-path="url(#clipPath2)"/>
      <path d="M201.96 541.2051 L210.21 524.7051 L193.71 524.7051 Z" stroke-width="4" clip-path="url(#clipPath2)" stroke="none"/>
    </g>
  </g>
</svg>
