<?xml version="1.0" encoding="UTF-8"?><svg xmlns="http://www.w3.org/2000/svg" xmlns:xlink="http://www.w3.org/1999/xlink" fill-opacity="1" color-rendering="auto" color-interpolation="auto" text-rendering="auto" stroke="black" stroke-linecap="square" width="694" stroke-miterlimit="10" shape-rendering="auto" stroke-opacity="1" fill="black" stroke-dasharray="none" font-weight="normal" stroke-width="1" height="336" font-family="'Dialog'" font-style="normal" stroke-linejoin="miter" font-size="12px" stroke-dashoffset="0" image-rendering="auto">
  <!--Generated by ySVG 2.5-->
  <defs id="genericDefs"/>
  <g>
    <defs id="defs1">
      <clipPath clipPathUnits="userSpaceOnUse" id="clipPath1">
        <path d="M0 0 L694 0 L694 336 L0 336 L0 0 Z"/>
      </clipPath>
      <clipPath clipPathUnits="userSpaceOnUse" id="clipPath2">
        <path d="M341 493 L1035 493 L1035 829 L341 829 L341 493 Z"/>
      </clipPath>
    </defs>
    <g transform="matrix(1,0,0,1,-341,-493)" fill-opacity="0.498" fill="rgb(255,102,0)" text-rendering="geometricPrecision" shape-rendering="geometricPrecision" stroke="rgb(255,102,0)" stroke-opacity="0.498">
      <rect x="536.4" width="50" height="50" y="509.625" clip-path="url(#clipPath2)" stroke="none"/>
    </g>
    <g text-rendering="geometricPrecision" stroke-miterlimit="1.45" shape-rendering="geometricPrecision" transform="matrix(1,0,0,1,-341,-493)" stroke-linecap="butt">
      <rect fill="none" x="536.4" width="50" height="50" y="509.625" clip-path="url(#clipPath2)"/>
      <text x="550.277" font-size="20px" y="542.4814" clip-path="url(#clipPath2)" font-family="sans-serif" stroke="none" xml:space="preserve">33</text>
    </g>
    <g transform="matrix(1,0,0,1,-341,-493)" fill-opacity="0.498" fill="rgb(255,102,0)" text-rendering="geometricPrecision" shape-rendering="geometricPrecision" stroke="rgb(255,102,0)" stroke-opacity="0.498">
      <rect x="586.4" width="25" height="50" y="509.625" clip-path="url(#clipPath2)" stroke="none"/>
    </g>
    <g text-rendering="geometricPrecision" stroke-miterlimit="1.45" shape-rendering="geometricPrecision" transform="matrix(1,0,0,1,-341,-493)" stroke-linecap="butt">
      <rect fill="none" x="586.4" width="25" height="50" y="509.625" clip-path="url(#clipPath2)"/>
    </g>
    <g transform="matrix(1,0,0,1,-341,-493)" fill-opacity="0.498" fill="rgb(0,128,0)" text-rendering="geometricPrecision" shape-rendering="geometricPrecision" stroke="rgb(0,128,0)" stroke-opacity="0.498">
      <rect x="633.9" width="50" height="50" y="509.625" clip-path="url(#clipPath2)" stroke="none"/>
    </g>
    <g text-rendering="geometricPrecision" stroke-miterlimit="1.45" shape-rendering="geometricPrecision" transform="matrix(1,0,0,1,-341,-493)" stroke-linecap="butt">
      <rect fill="none" x="633.9" width="50" height="50" y="509.625" clip-path="url(#clipPath2)"/>
      <text x="647.777" font-size="20px" y="542.4814" clip-path="url(#clipPath2)" font-family="sans-serif" stroke="none" xml:space="preserve">76</text>
    </g>
    <g transform="matrix(1,0,0,1,-341,-493)" fill-opacity="0.498" fill="rgb(0,128,0)" text-rendering="geometricPrecision" shape-rendering="geometricPrecision" stroke="rgb(0,128,0)" stroke-opacity="0.498">
      <rect x="683.9" width="25" height="50" y="509.625" clip-path="url(#clipPath2)" stroke="none"/>
    </g>
    <g text-rendering="geometricPrecision" stroke-miterlimit="1.45" shape-rendering="geometricPrecision" transform="matrix(1,0,0,1,-341,-493)" stroke-linecap="butt">
      <rect fill="none" x="683.9" width="25" height="50" y="509.625" clip-path="url(#clipPath2)"/>
    </g>
    <g transform="matrix(1,0,0,1,-341,-493)" fill-opacity="0.498" fill="rgb(0,0,255)" text-rendering="geometricPrecision" shape-rendering="geometricPrecision" stroke="rgb(0,0,255)" stroke-opacity="0.498">
      <rect x="731.4" width="50" height="50" y="509.625" clip-path="url(#clipPath2)" stroke="none"/>
    </g>
    <g text-rendering="geometricPrecision" stroke-miterlimit="1.45" shape-rendering="geometricPrecision" transform="matrix(1,0,0,1,-341,-493)" stroke-linecap="butt">
      <rect fill="none" x="731.4" width="50" height="50" y="509.625" clip-path="url(#clipPath2)"/>
      <text x="745.277" font-size="20px" y="542.4814" clip-path="url(#clipPath2)" font-family="sans-serif" stroke="none" xml:space="preserve">23</text>
    </g>
    <g transform="matrix(1,0,0,1,-341,-493)" fill-opacity="0.498" fill="rgb(0,0,255)" text-rendering="geometricPrecision" shape-rendering="geometricPrecision" stroke="rgb(0,0,255)" stroke-opacity="0.498">
      <rect x="781.4" width="25" height="50" y="509.625" clip-path="url(#clipPath2)" stroke="none"/>
    </g>
    <g text-rendering="geometricPrecision" stroke-miterlimit="1.45" shape-rendering="geometricPrecision" transform="matrix(1,0,0,1,-341,-493)" stroke-linecap="butt">
      <rect fill="none" x="781.4" width="25" height="50" y="509.625" clip-path="url(#clipPath2)"/>
    </g>
    <g transform="matrix(1,0,0,1,-341,-493)" fill-opacity="0.498" fill="rgb(181,35,196)" text-rendering="geometricPrecision" shape-rendering="geometricPrecision" stroke="rgb(181,35,196)" stroke-opacity="0.498">
      <rect x="828.9" width="50" height="50" y="509.625" clip-path="url(#clipPath2)" stroke="none"/>
    </g>
    <g text-rendering="geometricPrecision" stroke-miterlimit="1.45" shape-rendering="geometricPrecision" transform="matrix(1,0,0,1,-341,-493)" stroke-linecap="butt">
      <rect fill="none" x="828.9" width="50" height="50" y="509.625" clip-path="url(#clipPath2)"/>
      <text x="842.777" font-size="20px" y="542.4814" clip-path="url(#clipPath2)" font-family="sans-serif" stroke="none" xml:space="preserve">55</text>
    </g>
    <g transform="matrix(1,0,0,1,-341,-493)" fill-opacity="0.498" fill="rgb(181,35,196)" text-rendering="geometricPrecision" shape-rendering="geometricPrecision" stroke="rgb(181,35,196)" stroke-opacity="0.498">
      <rect x="878.9" width="25" height="50" y="509.625" clip-path="url(#clipPath2)" stroke="none"/>
    </g>
    <g text-rendering="geometricPrecision" stroke-miterlimit="1.45" shape-rendering="geometricPrecision" transform="matrix(1,0,0,1,-341,-493)" stroke-linecap="butt">
      <rect fill="none" x="878.9" width="25" height="50" y="509.625" clip-path="url(#clipPath2)"/>
      <circle fill="none" r="10" clip-path="url(#clipPath2)" cx="916.4" cy="569.625"/>
      <text x="912.2325" font-size="10px" y="573.5532" clip-path="url(#clipPath2)" font-family="sans-serif" stroke="none" xml:space="preserve">///</text>
    </g>
    <g transform="matrix(1,0,0,1,-341,-493)" fill-opacity="0.498" fill="rgb(255,0,0)" text-rendering="geometricPrecision" shape-rendering="geometricPrecision" stroke="rgb(255,0,0)" stroke-opacity="0.498">
      <rect x="356.84" width="58.16" height="30" y="519.625" clip-path="url(#clipPath2)" stroke="none"/>
    </g>
    <g text-rendering="geometricPrecision" stroke-miterlimit="1.45" shape-rendering="geometricPrecision" transform="matrix(1,0,0,1,-341,-493)" stroke-linecap="butt">
      <rect fill="none" x="356.84" width="58.16" height="30" y="519.625" clip-path="url(#clipPath2)"/>
      <text x="360.9054" font-size="20px" y="542.4814" clip-path="url(#clipPath2)" font-family="sans-serif" stroke="none" xml:space="preserve">Lnum</text>
    </g>
    <g transform="matrix(1,0,0,1,-341,-493)" fill-opacity="0.498" fill="rgb(255,0,0)" text-rendering="geometricPrecision" shape-rendering="geometricPrecision" stroke="rgb(255,0,0)" stroke-opacity="0.498">
      <rect x="438.9" width="50" height="50" y="509.625" clip-path="url(#clipPath2)" stroke="none"/>
    </g>
    <g text-rendering="geometricPrecision" stroke-miterlimit="1.45" shape-rendering="geometricPrecision" transform="matrix(1,0,0,1,-341,-493)" stroke-linecap="butt">
      <rect fill="none" x="438.9" width="50" height="50" y="509.625" clip-path="url(#clipPath2)"/>
      <text x="452.7769" font-size="20px" y="542.4814" clip-path="url(#clipPath2)" font-family="sans-serif" stroke="none" xml:space="preserve">16</text>
    </g>
    <g transform="matrix(1,0,0,1,-341,-493)" fill-opacity="0.498" fill="rgb(255,0,0)" text-rendering="geometricPrecision" shape-rendering="geometricPrecision" stroke="rgb(255,0,0)" stroke-opacity="0.498">
      <rect x="488.9" width="25" height="50" y="509.625" clip-path="url(#clipPath2)" stroke="none"/>
    </g>
    <g text-rendering="geometricPrecision" stroke-miterlimit="1.45" shape-rendering="geometricPrecision" transform="matrix(1,0,0,1,-341,-493)" stroke-linecap="butt">
      <rect fill="none" x="488.9" width="25" height="50" y="509.625" clip-path="url(#clipPath2)"/>
    </g>
    <g fill="rgb(204,255,204)" text-rendering="geometricPrecision" shape-rendering="geometricPrecision" transform="matrix(1,0,0,1,-341,-493)" stroke="rgb(204,255,204)">
      <rect x="823.93" width="184.94" height="71.25" y="609.625" clip-path="url(#clipPath2)" stroke="none"/>
    </g>
    <g text-rendering="geometricPrecision" stroke-miterlimit="1.45" shape-rendering="geometricPrecision" transform="matrix(1,0,0,1,-341,-493)" stroke-linecap="butt">
      <rect fill="none" x="823.93" width="184.94" height="71.25" y="609.625" clip-path="url(#clipPath2)"/>
      <text x="855.5406" font-size="20px" y="653.1064" clip-path="url(#clipPath2)" font-family="sans-serif" stroke="none" xml:space="preserve">Filtro: x &gt; 50?</text>
      <rect x="869.525" y="508.375" clip-path="url(#clipPath2)" fill="none" width="93.75" stroke-dasharray="18,6" height="71.25" stroke-width="3"/>
    </g>
    <g fill="rgb(204,255,204)" text-rendering="geometricPrecision" shape-rendering="geometricPrecision" transform="matrix(1,0,0,1,-341,-493)" stroke="rgb(204,255,204)">
      <rect x="813.37" width="206.06" height="98" y="716" clip-path="url(#clipPath2)" stroke="none"/>
    </g>
    <g text-rendering="geometricPrecision" stroke-miterlimit="1.45" shape-rendering="geometricPrecision" transform="matrix(1,0,0,1,-341,-493)" stroke-linecap="butt">
      <rect fill="none" x="813.37" width="206.06" height="98" y="716" clip-path="url(#clipPath2)"/>
    </g>
    <g transform="matrix(1,0,0,1,-341,-493)" fill-opacity="0.498" fill="rgb(0,128,0)" text-rendering="geometricPrecision" shape-rendering="geometricPrecision" stroke="rgb(0,128,0)" stroke-opacity="0.498">
      <rect x="818.34" width="50" height="50" y="740" clip-path="url(#clipPath2)" stroke="none"/>
    </g>
    <g text-rendering="geometricPrecision" stroke-miterlimit="1.45" shape-rendering="geometricPrecision" transform="matrix(1,0,0,1,-341,-493)" stroke-linecap="butt">
      <rect fill="none" x="818.34" width="50" height="50" y="740" clip-path="url(#clipPath2)"/>
      <text x="832.217" font-size="20px" y="772.8564" clip-path="url(#clipPath2)" font-family="sans-serif" stroke="none" xml:space="preserve">76</text>
    </g>
    <g transform="matrix(1,0,0,1,-341,-493)" fill-opacity="0.498" fill="rgb(0,128,0)" text-rendering="geometricPrecision" shape-rendering="geometricPrecision" stroke="rgb(0,128,0)" stroke-opacity="0.498">
      <rect x="868.34" width="25" height="50" y="740" clip-path="url(#clipPath2)" stroke="none"/>
    </g>
    <g text-rendering="geometricPrecision" stroke-miterlimit="1.45" shape-rendering="geometricPrecision" transform="matrix(1,0,0,1,-341,-493)" stroke-linecap="butt">
      <rect fill="none" x="868.34" width="25" height="50" y="740" clip-path="url(#clipPath2)"/>
    </g>
    <g transform="matrix(1,0,0,1,-341,-493)" fill-opacity="0.498" fill="rgb(181,35,196)" text-rendering="geometricPrecision" shape-rendering="geometricPrecision" stroke="rgb(181,35,196)" stroke-opacity="0.498">
      <rect x="915.84" width="50" height="50" y="740" clip-path="url(#clipPath2)" stroke="none"/>
    </g>
    <g text-rendering="geometricPrecision" stroke-miterlimit="1.45" shape-rendering="geometricPrecision" transform="matrix(1,0,0,1,-341,-493)" stroke-linecap="butt">
      <rect fill="none" x="915.84" width="50" height="50" y="740" clip-path="url(#clipPath2)"/>
      <text x="929.717" font-size="20px" y="772.8564" clip-path="url(#clipPath2)" font-family="sans-serif" stroke="none" xml:space="preserve">55</text>
    </g>
    <g transform="matrix(1,0,0,1,-341,-493)" fill-opacity="0.498" fill="rgb(181,35,196)" text-rendering="geometricPrecision" shape-rendering="geometricPrecision" stroke="rgb(181,35,196)" stroke-opacity="0.498">
      <rect x="965.84" width="25" height="50" y="740" clip-path="url(#clipPath2)" stroke="none"/>
    </g>
    <g text-rendering="geometricPrecision" stroke-miterlimit="1.45" shape-rendering="geometricPrecision" transform="matrix(1,0,0,1,-341,-493)" stroke-linecap="butt">
      <rect fill="none" x="965.84" width="25" height="50" y="740" clip-path="url(#clipPath2)"/>
      <circle fill="none" r="10" clip-path="url(#clipPath2)" cx="1003.34" cy="800"/>
      <text x="999.1725" font-size="10px" y="803.9282" clip-path="url(#clipPath2)" font-family="sans-serif" stroke="none" xml:space="preserve">///</text>
      <path fill="none" d="M603.9 534.625 L618.775 534.625" stroke-width="4" clip-path="url(#clipPath2)"/>
      <path d="M633.9 534.625 L617.4 526.375 L617.4 542.875 Z" stroke-width="4" clip-path="url(#clipPath2)" stroke="none"/>
      <path fill="none" d="M701.4 534.625 L716.275 534.625" stroke-width="4" clip-path="url(#clipPath2)"/>
      <path d="M731.4 534.625 L714.9 526.375 L714.9 542.875 Z" stroke-width="4" clip-path="url(#clipPath2)" stroke="none"/>
      <path fill="none" d="M798.9 534.625 L813.775 534.625" stroke-width="4" clip-path="url(#clipPath2)"/>
      <path d="M828.9 534.625 L812.4 526.375 L812.4 542.875 Z" stroke-width="4" clip-path="url(#clipPath2)" stroke="none"/>
      <path fill="none" d="M896.4 534.625 L916.4 534.625 L916.4 544.5" stroke-width="4" clip-path="url(#clipPath2)"/>
      <path d="M916.4 559.625 L924.65 543.125 L908.15 543.125 Z" stroke-width="4" clip-path="url(#clipPath2)" stroke="none"/>
      <path fill="none" d="M415 534.625 L423.7283 534.625" stroke-width="4" clip-path="url(#clipPath2)"/>
      <path d="M438.8533 534.625 L422.3533 526.375 L422.3533 542.875 Z" stroke-width="4" clip-path="url(#clipPath2)" stroke="none"/>
      <path fill="none" d="M506.4 534.625 L521.2457 534.625" stroke-width="4" clip-path="url(#clipPath2)"/>
      <path d="M536.3707 534.625 L519.8707 526.375 L519.8707 542.875 Z" stroke-width="4" clip-path="url(#clipPath2)" stroke="none"/>
      <path fill="none" stroke-dasharray="18,6" d="M869.8027 579.627 L825.8861 609.2957" stroke-width="3" clip-path="url(#clipPath2)"/>
      <path fill="none" stroke-dasharray="18,6" d="M960.8861 580.0457 L1005.3234 609.5953" stroke-width="3" clip-path="url(#clipPath2)"/>
    </g>
    <g stroke-linecap="butt" transform="matrix(1,0,0,1,-341,-493)" fill-opacity="0.498" fill="rgb(0,128,0)" text-rendering="geometricPrecision" shape-rendering="geometricPrecision" stroke="rgb(0,128,0)" stroke-width="4" stroke-opacity="0.498" stroke-miterlimit="1.45">
      <path fill="none" d="M916.4 680.875 L916.4 700.8407" clip-path="url(#clipPath2)"/>
      <path d="M916.4 715.9657 L924.65 699.4657 L908.15 699.4657 Z" clip-path="url(#clipPath2)" stroke="none"/>
    </g>
    <g text-rendering="geometricPrecision" stroke-miterlimit="1.45" stroke-width="4" shape-rendering="geometricPrecision" transform="matrix(1,0,0,1,-341,-493)" stroke-linecap="butt">
      <path fill="none" d="M885.84 765 L900.715 765" clip-path="url(#clipPath2)"/>
      <path d="M915.84 765 L899.34 756.75 L899.34 773.25 Z" clip-path="url(#clipPath2)" stroke="none"/>
      <path fill="none" d="M983.34 765 L1003.34 765 L1003.34 774.875" clip-path="url(#clipPath2)"/>
      <path d="M1003.34 790 L1011.59 773.5 L995.09 773.5 Z" clip-path="url(#clipPath2)" stroke="none"/>
    </g>
  </g>
</svg>
