<?xml version="1.0" encoding="UTF-8"?><svg xmlns="http://www.w3.org/2000/svg" xmlns:xlink="http://www.w3.org/1999/xlink" fill-opacity="1" color-rendering="auto" color-interpolation="auto" text-rendering="auto" stroke="black" stroke-linecap="square" width="682" stroke-miterlimit="10" shape-rendering="auto" stroke-opacity="1" fill="black" stroke-dasharray="none" font-weight="normal" stroke-width="1" height="342" font-family="'Dialog'" font-style="normal" stroke-linejoin="miter" font-size="12px" stroke-dashoffset="0" image-rendering="auto">
  <!--Generated by ySVG 2.5-->
  <defs id="genericDefs"/>
  <g>
    <defs id="defs1">
      <clipPath clipPathUnits="userSpaceOnUse" id="clipPath1">
        <path d="M0 0 L682 0 L682 342 L0 342 L0 0 Z"/>
      </clipPath>
      <clipPath clipPathUnits="userSpaceOnUse" id="clipPath2">
        <path d="M337 489 L1019 489 L1019 831 L337 831 L337 489 Z"/>
      </clipPath>
    </defs>
    <g transform="matrix(1,0,0,1,-337,-489)" fill-opacity="0.498" fill="rgb(255,102,0)" text-rendering="geometricPrecision" shape-rendering="geometricPrecision" stroke="rgb(255,102,0)" stroke-opacity="0.498">
      <rect x="531.76" width="50" height="50" y="504.625" clip-path="url(#clipPath2)" stroke="none"/>
    </g>
    <g text-rendering="geometricPrecision" stroke-miterlimit="1.45" shape-rendering="geometricPrecision" transform="matrix(1,0,0,1,-337,-489)" stroke-linecap="butt">
      <rect fill="none" x="531.76" width="50" height="50" y="504.625" clip-path="url(#clipPath2)"/>
      <text x="545.637" font-size="20px" y="537.4814" clip-path="url(#clipPath2)" font-family="sans-serif" stroke="none" xml:space="preserve">33</text>
    </g>
    <g transform="matrix(1,0,0,1,-337,-489)" fill-opacity="0.498" fill="rgb(255,102,0)" text-rendering="geometricPrecision" shape-rendering="geometricPrecision" stroke="rgb(255,102,0)" stroke-opacity="0.498">
      <rect x="581.76" width="25" height="50" y="504.625" clip-path="url(#clipPath2)" stroke="none"/>
    </g>
    <g text-rendering="geometricPrecision" stroke-miterlimit="1.45" shape-rendering="geometricPrecision" transform="matrix(1,0,0,1,-337,-489)" stroke-linecap="butt">
      <rect fill="none" x="581.76" width="25" height="50" y="504.625" clip-path="url(#clipPath2)"/>
    </g>
    <g transform="matrix(1,0,0,1,-337,-489)" fill-opacity="0.498" fill="rgb(0,128,0)" text-rendering="geometricPrecision" shape-rendering="geometricPrecision" stroke="rgb(0,128,0)" stroke-opacity="0.498">
      <rect x="629.26" width="50" height="50" y="504.625" clip-path="url(#clipPath2)" stroke="none"/>
    </g>
    <g text-rendering="geometricPrecision" stroke-miterlimit="1.45" shape-rendering="geometricPrecision" transform="matrix(1,0,0,1,-337,-489)" stroke-linecap="butt">
      <rect fill="none" x="629.26" width="50" height="50" y="504.625" clip-path="url(#clipPath2)"/>
      <text x="643.137" font-size="20px" y="537.4814" clip-path="url(#clipPath2)" font-family="sans-serif" stroke="none" xml:space="preserve">76</text>
    </g>
    <g transform="matrix(1,0,0,1,-337,-489)" fill-opacity="0.498" fill="rgb(0,128,0)" text-rendering="geometricPrecision" shape-rendering="geometricPrecision" stroke="rgb(0,128,0)" stroke-opacity="0.498">
      <rect x="679.26" width="25" height="50" y="504.625" clip-path="url(#clipPath2)" stroke="none"/>
    </g>
    <g text-rendering="geometricPrecision" stroke-miterlimit="1.45" shape-rendering="geometricPrecision" transform="matrix(1,0,0,1,-337,-489)" stroke-linecap="butt">
      <rect fill="none" x="679.26" width="25" height="50" y="504.625" clip-path="url(#clipPath2)"/>
    </g>
    <g transform="matrix(1,0,0,1,-337,-489)" fill-opacity="0.498" fill="rgb(0,0,255)" text-rendering="geometricPrecision" shape-rendering="geometricPrecision" stroke="rgb(0,0,255)" stroke-opacity="0.498">
      <rect x="726.76" width="50" height="50" y="504.625" clip-path="url(#clipPath2)" stroke="none"/>
    </g>
    <g text-rendering="geometricPrecision" stroke-miterlimit="1.45" shape-rendering="geometricPrecision" transform="matrix(1,0,0,1,-337,-489)" stroke-linecap="butt">
      <rect fill="none" x="726.76" width="50" height="50" y="504.625" clip-path="url(#clipPath2)"/>
      <text x="740.637" font-size="20px" y="537.4814" clip-path="url(#clipPath2)" font-family="sans-serif" stroke="none" xml:space="preserve">23</text>
    </g>
    <g transform="matrix(1,0,0,1,-337,-489)" fill-opacity="0.498" fill="rgb(0,0,255)" text-rendering="geometricPrecision" shape-rendering="geometricPrecision" stroke="rgb(0,0,255)" stroke-opacity="0.498">
      <rect x="776.76" width="25" height="50" y="504.625" clip-path="url(#clipPath2)" stroke="none"/>
    </g>
    <g text-rendering="geometricPrecision" stroke-miterlimit="1.45" shape-rendering="geometricPrecision" transform="matrix(1,0,0,1,-337,-489)" stroke-linecap="butt">
      <rect fill="none" x="776.76" width="25" height="50" y="504.625" clip-path="url(#clipPath2)"/>
    </g>
    <g transform="matrix(1,0,0,1,-337,-489)" fill-opacity="0.498" fill="rgb(181,35,196)" text-rendering="geometricPrecision" shape-rendering="geometricPrecision" stroke="rgb(181,35,196)" stroke-opacity="0.498">
      <rect x="824.26" width="50" height="50" y="504.625" clip-path="url(#clipPath2)" stroke="none"/>
    </g>
    <g text-rendering="geometricPrecision" stroke-miterlimit="1.45" shape-rendering="geometricPrecision" transform="matrix(1,0,0,1,-337,-489)" stroke-linecap="butt">
      <rect fill="none" x="824.26" width="50" height="50" y="504.625" clip-path="url(#clipPath2)"/>
      <text x="838.137" font-size="20px" y="537.4814" clip-path="url(#clipPath2)" font-family="sans-serif" stroke="none" xml:space="preserve">55</text>
    </g>
    <g transform="matrix(1,0,0,1,-337,-489)" fill-opacity="0.498" fill="rgb(181,35,196)" text-rendering="geometricPrecision" shape-rendering="geometricPrecision" stroke="rgb(181,35,196)" stroke-opacity="0.498">
      <rect x="874.26" width="25" height="50" y="504.625" clip-path="url(#clipPath2)" stroke="none"/>
    </g>
    <g text-rendering="geometricPrecision" stroke-miterlimit="1.45" shape-rendering="geometricPrecision" transform="matrix(1,0,0,1,-337,-489)" stroke-linecap="butt">
      <rect fill="none" x="874.26" width="25" height="50" y="504.625" clip-path="url(#clipPath2)"/>
      <circle fill="none" r="10" clip-path="url(#clipPath2)" cx="911.76" cy="564.625"/>
      <text x="907.5925" font-size="10px" y="568.5532" clip-path="url(#clipPath2)" font-family="sans-serif" stroke="none" xml:space="preserve">///</text>
    </g>
    <g transform="matrix(1,0,0,1,-337,-489)" fill-opacity="0.498" fill="rgb(255,0,0)" text-rendering="geometricPrecision" shape-rendering="geometricPrecision" stroke="rgb(255,0,0)" stroke-opacity="0.498">
      <rect x="352.2" width="58.16" height="30" y="514.625" clip-path="url(#clipPath2)" stroke="none"/>
    </g>
    <g text-rendering="geometricPrecision" stroke-miterlimit="1.45" shape-rendering="geometricPrecision" transform="matrix(1,0,0,1,-337,-489)" stroke-linecap="butt">
      <rect fill="none" x="352.2" width="58.16" height="30" y="514.625" clip-path="url(#clipPath2)"/>
      <text x="356.2654" font-size="20px" y="537.4814" clip-path="url(#clipPath2)" font-family="sans-serif" stroke="none" xml:space="preserve">Lnum</text>
    </g>
    <g transform="matrix(1,0,0,1,-337,-489)" fill-opacity="0.498" fill="rgb(255,0,0)" text-rendering="geometricPrecision" shape-rendering="geometricPrecision" stroke="rgb(255,0,0)" stroke-opacity="0.498">
      <rect x="434.26" width="50" height="50" y="504.625" clip-path="url(#clipPath2)" stroke="none"/>
    </g>
    <g text-rendering="geometricPrecision" stroke-miterlimit="1.45" shape-rendering="geometricPrecision" transform="matrix(1,0,0,1,-337,-489)" stroke-linecap="butt">
      <rect fill="none" x="434.26" width="50" height="50" y="504.625" clip-path="url(#clipPath2)"/>
      <text x="448.137" font-size="20px" y="537.4814" clip-path="url(#clipPath2)" font-family="sans-serif" stroke="none" xml:space="preserve">16</text>
    </g>
    <g transform="matrix(1,0,0,1,-337,-489)" fill-opacity="0.498" fill="rgb(255,0,0)" text-rendering="geometricPrecision" shape-rendering="geometricPrecision" stroke="rgb(255,0,0)" stroke-opacity="0.498">
      <rect x="484.26" width="25" height="50" y="504.625" clip-path="url(#clipPath2)" stroke="none"/>
    </g>
    <g text-rendering="geometricPrecision" stroke-miterlimit="1.45" shape-rendering="geometricPrecision" transform="matrix(1,0,0,1,-337,-489)" stroke-linecap="butt">
      <rect fill="none" x="484.26" width="25" height="50" y="504.625" clip-path="url(#clipPath2)"/>
    </g>
    <g fill="rgb(204,255,204)" text-rendering="geometricPrecision" shape-rendering="geometricPrecision" transform="matrix(1,0,0,1,-337,-489)" stroke="rgb(204,255,204)">
      <rect x="818.38" width="184.94" height="71.25" y="600.625" clip-path="url(#clipPath2)" stroke="none"/>
    </g>
    <g text-rendering="geometricPrecision" stroke-miterlimit="1.45" shape-rendering="geometricPrecision" transform="matrix(1,0,0,1,-337,-489)" stroke-linecap="butt">
      <rect fill="none" x="818.38" width="184.94" height="71.25" y="600.625" clip-path="url(#clipPath2)"/>
      <text x="858.3207" font-size="20px" y="644.1064" clip-path="url(#clipPath2)" font-family="sans-serif" stroke="none" xml:space="preserve">Mapa: x + 3</text>
      <rect x="864.885" y="515.12" clip-path="url(#clipPath2)" fill="none" width="93.75" stroke-dasharray="18,6" height="71.25" stroke-width="3"/>
    </g>
    <g fill="rgb(204,255,204)" text-rendering="geometricPrecision" shape-rendering="geometricPrecision" transform="matrix(1,0,0,1,-337,-489)" stroke="rgb(204,255,204)">
      <rect x="417.81" width="512.94" height="98" y="717.875" clip-path="url(#clipPath2)" stroke="none"/>
    </g>
    <g text-rendering="geometricPrecision" stroke-miterlimit="1.45" shape-rendering="geometricPrecision" transform="matrix(1,0,0,1,-337,-489)" stroke-linecap="butt">
      <rect fill="none" x="417.81" width="512.94" height="98" y="717.875" clip-path="url(#clipPath2)"/>
    </g>
    <g transform="matrix(1,0,0,1,-337,-489)" fill-opacity="0.498" fill="rgb(255,0,0)" text-rendering="geometricPrecision" shape-rendering="geometricPrecision" stroke="rgb(255,0,0)" stroke-opacity="0.498">
      <rect x="430.85" width="50" height="50" y="741.875" clip-path="url(#clipPath2)" stroke="none"/>
    </g>
    <g text-rendering="geometricPrecision" stroke-miterlimit="1.45" shape-rendering="geometricPrecision" transform="matrix(1,0,0,1,-337,-489)" stroke-linecap="butt">
      <rect fill="none" x="430.85" width="50" height="50" y="741.875" clip-path="url(#clipPath2)"/>
      <text x="444.727" font-size="20px" y="774.7314" clip-path="url(#clipPath2)" font-family="sans-serif" stroke="none" xml:space="preserve">19</text>
      <circle fill="none" r="10" clip-path="url(#clipPath2)" cx="910.85" cy="801.875"/>
      <text x="906.6825" font-size="10px" y="805.8032" clip-path="url(#clipPath2)" font-family="sans-serif" stroke="none" xml:space="preserve">///</text>
    </g>
    <g transform="matrix(1,0,0,1,-337,-489)" fill-opacity="0.498" fill="rgb(255,102,0)" text-rendering="geometricPrecision" shape-rendering="geometricPrecision" stroke="rgb(255,102,0)" stroke-opacity="0.498">
      <rect x="528.35" width="50" height="50" y="741.875" clip-path="url(#clipPath2)" stroke="none"/>
    </g>
    <g text-rendering="geometricPrecision" stroke-miterlimit="1.45" shape-rendering="geometricPrecision" transform="matrix(1,0,0,1,-337,-489)" stroke-linecap="butt">
      <rect fill="none" x="528.35" width="50" height="50" y="741.875" clip-path="url(#clipPath2)"/>
      <text x="542.2269" font-size="20px" y="774.7314" clip-path="url(#clipPath2)" font-family="sans-serif" stroke="none" xml:space="preserve">36</text>
    </g>
    <g transform="matrix(1,0,0,1,-337,-489)" fill-opacity="0.498" fill="rgb(255,102,0)" text-rendering="geometricPrecision" shape-rendering="geometricPrecision" stroke="rgb(255,102,0)" stroke-opacity="0.498">
      <rect x="578.35" width="25" height="50" y="741.875" clip-path="url(#clipPath2)" stroke="none"/>
    </g>
    <g text-rendering="geometricPrecision" stroke-miterlimit="1.45" shape-rendering="geometricPrecision" transform="matrix(1,0,0,1,-337,-489)" stroke-linecap="butt">
      <rect fill="none" x="578.35" width="25" height="50" y="741.875" clip-path="url(#clipPath2)"/>
    </g>
    <g transform="matrix(1,0,0,1,-337,-489)" fill-opacity="0.498" fill="rgb(255,0,0)" text-rendering="geometricPrecision" shape-rendering="geometricPrecision" stroke="rgb(255,0,0)" stroke-opacity="0.498">
      <rect x="480.85" width="25" height="50" y="741.875" clip-path="url(#clipPath2)" stroke="none"/>
    </g>
    <g text-rendering="geometricPrecision" stroke-miterlimit="1.45" shape-rendering="geometricPrecision" transform="matrix(1,0,0,1,-337,-489)" stroke-linecap="butt">
      <rect fill="none" x="480.85" width="25" height="50" y="741.875" clip-path="url(#clipPath2)"/>
    </g>
    <g transform="matrix(1,0,0,1,-337,-489)" fill-opacity="0.498" fill="rgb(0,128,0)" text-rendering="geometricPrecision" shape-rendering="geometricPrecision" stroke="rgb(0,128,0)" stroke-opacity="0.498">
      <rect x="625.85" width="50" height="50" y="741.875" clip-path="url(#clipPath2)" stroke="none"/>
    </g>
    <g text-rendering="geometricPrecision" stroke-miterlimit="1.45" shape-rendering="geometricPrecision" transform="matrix(1,0,0,1,-337,-489)" stroke-linecap="butt">
      <rect fill="none" x="625.85" width="50" height="50" y="741.875" clip-path="url(#clipPath2)"/>
      <text x="639.7269" font-size="20px" y="774.7314" clip-path="url(#clipPath2)" font-family="sans-serif" stroke="none" xml:space="preserve">79</text>
    </g>
    <g transform="matrix(1,0,0,1,-337,-489)" fill-opacity="0.498" fill="rgb(0,128,0)" text-rendering="geometricPrecision" shape-rendering="geometricPrecision" stroke="rgb(0,128,0)" stroke-opacity="0.498">
      <rect x="675.85" width="25" height="50" y="741.875" clip-path="url(#clipPath2)" stroke="none"/>
    </g>
    <g text-rendering="geometricPrecision" stroke-miterlimit="1.45" shape-rendering="geometricPrecision" transform="matrix(1,0,0,1,-337,-489)" stroke-linecap="butt">
      <rect fill="none" x="675.85" width="25" height="50" y="741.875" clip-path="url(#clipPath2)"/>
    </g>
    <g transform="matrix(1,0,0,1,-337,-489)" fill-opacity="0.498" fill="rgb(0,0,255)" text-rendering="geometricPrecision" shape-rendering="geometricPrecision" stroke="rgb(0,0,255)" stroke-opacity="0.498">
      <rect x="723.35" width="50" height="50" y="741.875" clip-path="url(#clipPath2)" stroke="none"/>
    </g>
    <g text-rendering="geometricPrecision" stroke-miterlimit="1.45" shape-rendering="geometricPrecision" transform="matrix(1,0,0,1,-337,-489)" stroke-linecap="butt">
      <rect fill="none" x="723.35" width="50" height="50" y="741.875" clip-path="url(#clipPath2)"/>
      <text x="737.2269" font-size="20px" y="774.7314" clip-path="url(#clipPath2)" font-family="sans-serif" stroke="none" xml:space="preserve">26</text>
    </g>
    <g transform="matrix(1,0,0,1,-337,-489)" fill-opacity="0.498" fill="rgb(0,0,255)" text-rendering="geometricPrecision" shape-rendering="geometricPrecision" stroke="rgb(0,0,255)" stroke-opacity="0.498">
      <rect x="773.35" width="25" height="50" y="741.875" clip-path="url(#clipPath2)" stroke="none"/>
    </g>
    <g text-rendering="geometricPrecision" stroke-miterlimit="1.45" shape-rendering="geometricPrecision" transform="matrix(1,0,0,1,-337,-489)" stroke-linecap="butt">
      <rect fill="none" x="773.35" width="25" height="50" y="741.875" clip-path="url(#clipPath2)"/>
    </g>
    <g transform="matrix(1,0,0,1,-337,-489)" fill-opacity="0.498" fill="rgb(181,35,196)" text-rendering="geometricPrecision" shape-rendering="geometricPrecision" stroke="rgb(181,35,196)" stroke-opacity="0.498">
      <rect x="820.85" width="50" height="50" y="741.875" clip-path="url(#clipPath2)" stroke="none"/>
    </g>
    <g text-rendering="geometricPrecision" stroke-miterlimit="1.45" shape-rendering="geometricPrecision" transform="matrix(1,0,0,1,-337,-489)" stroke-linecap="butt">
      <rect fill="none" x="820.85" width="50" height="50" y="741.875" clip-path="url(#clipPath2)"/>
      <text x="834.7269" font-size="20px" y="774.7314" clip-path="url(#clipPath2)" font-family="sans-serif" stroke="none" xml:space="preserve">58</text>
    </g>
    <g transform="matrix(1,0,0,1,-337,-489)" fill-opacity="0.498" fill="rgb(181,35,196)" text-rendering="geometricPrecision" shape-rendering="geometricPrecision" stroke="rgb(181,35,196)" stroke-opacity="0.498">
      <rect x="870.85" width="25" height="50" y="741.875" clip-path="url(#clipPath2)" stroke="none"/>
    </g>
    <g text-rendering="geometricPrecision" stroke-miterlimit="1.45" shape-rendering="geometricPrecision" transform="matrix(1,0,0,1,-337,-489)" stroke-linecap="butt">
      <rect fill="none" x="870.85" width="25" height="50" y="741.875" clip-path="url(#clipPath2)"/>
      <path fill="none" d="M599.26 529.625 L614.135 529.625" stroke-width="4" clip-path="url(#clipPath2)"/>
      <path d="M629.26 529.625 L612.76 521.375 L612.76 537.875 Z" stroke-width="4" clip-path="url(#clipPath2)" stroke="none"/>
      <path fill="none" d="M696.76 529.625 L711.635 529.625" stroke-width="4" clip-path="url(#clipPath2)"/>
      <path d="M726.76 529.625 L710.26 521.375 L710.26 537.875 Z" stroke-width="4" clip-path="url(#clipPath2)" stroke="none"/>
      <path fill="none" d="M794.26 529.625 L809.135 529.625" stroke-width="4" clip-path="url(#clipPath2)"/>
      <path d="M824.26 529.625 L807.76 521.375 L807.76 537.875 Z" stroke-width="4" clip-path="url(#clipPath2)" stroke="none"/>
      <path fill="none" d="M891.76 529.625 L911.76 529.625 L911.76 539.5" stroke-width="4" clip-path="url(#clipPath2)"/>
      <path d="M911.76 554.625 L920.01 538.125 L903.51 538.125 Z" stroke-width="4" clip-path="url(#clipPath2)" stroke="none"/>
      <path fill="none" d="M410.36 529.625 L419.0883 529.625" stroke-width="4" clip-path="url(#clipPath2)"/>
      <path d="M434.2133 529.625 L417.7133 521.375 L417.7133 537.875 Z" stroke-width="4" clip-path="url(#clipPath2)" stroke="none"/>
      <path fill="none" d="M501.76 529.625 L516.6057 529.625" stroke-width="4" clip-path="url(#clipPath2)"/>
      <path d="M531.7307 529.625 L515.2307 521.375 L515.2307 537.875 Z" stroke-width="4" clip-path="url(#clipPath2)" stroke="none"/>
      <path fill="none" stroke-dasharray="18,6" d="M865.1627 586.372 L820.3361 600.2957" stroke-width="3" clip-path="url(#clipPath2)"/>
      <path fill="none" stroke-dasharray="18,6" d="M956.2462 586.7906 L999.7734 600.5953" stroke-width="3" clip-path="url(#clipPath2)"/>
    </g>
    <g stroke-linecap="butt" transform="matrix(1,0,0,1,-337,-489)" fill-opacity="0.498" fill="rgb(0,128,0)" text-rendering="geometricPrecision" shape-rendering="geometricPrecision" stroke="rgb(0,128,0)" stroke-width="4" stroke-opacity="0.498" stroke-miterlimit="1.45">
      <path fill="none" d="M910.85 671.875 L910.85 702.745" clip-path="url(#clipPath2)"/>
      <path d="M910.85 717.87 L919.1 701.37 L902.6 701.37 Z" clip-path="url(#clipPath2)" stroke="none"/>
    </g>
    <g text-rendering="geometricPrecision" stroke-miterlimit="1.45" stroke-width="4" shape-rendering="geometricPrecision" transform="matrix(1,0,0,1,-337,-489)" stroke-linecap="butt">
      <path fill="none" d="M498.35 766.875 L513.225 766.875" clip-path="url(#clipPath2)"/>
      <path d="M528.35 766.875 L511.85 758.625 L511.85 775.125 Z" clip-path="url(#clipPath2)" stroke="none"/>
      <path fill="none" d="M595.85 766.875 L610.725 766.875" clip-path="url(#clipPath2)"/>
      <path d="M625.85 766.875 L609.35 758.625 L609.35 775.125 Z" clip-path="url(#clipPath2)" stroke="none"/>
      <path fill="none" d="M693.35 766.875 L708.1957 766.875" clip-path="url(#clipPath2)"/>
      <path d="M723.3207 766.875 L706.8207 758.625 L706.8207 775.125 Z" clip-path="url(#clipPath2)" stroke="none"/>
      <path fill="none" d="M790.85 766.875 L805.725 766.875" clip-path="url(#clipPath2)"/>
      <path d="M820.85 766.875 L804.35 758.625 L804.35 775.125 Z" clip-path="url(#clipPath2)" stroke="none"/>
      <path fill="none" d="M888.35 766.875 L910.85 766.875 L910.85 776.75" clip-path="url(#clipPath2)"/>
      <path d="M910.85 791.875 L919.1 775.375 L902.6 775.375 Z" clip-path="url(#clipPath2)" stroke="none"/>
    </g>
  </g>
</svg>
