<?xml version="1.0" encoding="UTF-8"?><svg xmlns="http://www.w3.org/2000/svg" xmlns:xlink="http://www.w3.org/1999/xlink" fill-opacity="1" color-rendering="auto" color-interpolation="auto" text-rendering="auto" stroke="black" stroke-linecap="square" width="601" stroke-miterlimit="10" shape-rendering="auto" stroke-opacity="1" fill="black" stroke-dasharray="none" font-weight="normal" stroke-width="1" height="353" font-family="'Dialog'" font-style="normal" stroke-linejoin="miter" font-size="12px" stroke-dashoffset="0" image-rendering="auto">
  <!--Generated by ySVG 2.5-->
  <defs id="genericDefs"/>
  <g>
    <defs id="defs1">
      <clipPath clipPathUnits="userSpaceOnUse" id="clipPath1">
        <path d="M0 0 L601 0 L601 353 L0 353 L0 0 Z"/>
      </clipPath>
      <clipPath clipPathUnits="userSpaceOnUse" id="clipPath2">
        <path d="M218 363 L819 363 L819 716 L218 716 L218 363 Z"/>
      </clipPath>
    </defs>
    <g transform="matrix(1,0,0,1,-218,-363)" fill-opacity="0.498" fill="rgb(255,102,0)" text-rendering="geometricPrecision" shape-rendering="geometricPrecision" stroke="rgb(255,102,0)" stroke-opacity="0.498">
      <rect x="413.3" width="50" height="50" y="389.125" clip-path="url(#clipPath2)" stroke="none"/>
    </g>
    <g text-rendering="geometricPrecision" stroke-miterlimit="1.45" shape-rendering="geometricPrecision" transform="matrix(1,0,0,1,-218,-363)" stroke-linecap="butt">
      <rect fill="none" x="413.3" width="50" height="50" y="389.125" clip-path="url(#clipPath2)"/>
      <text x="427.1769" font-size="20px" y="421.9814" clip-path="url(#clipPath2)" font-family="sans-serif" stroke="none" xml:space="preserve">33</text>
    </g>
    <g transform="matrix(1,0,0,1,-218,-363)" fill-opacity="0.498" fill="rgb(255,102,0)" text-rendering="geometricPrecision" shape-rendering="geometricPrecision" stroke="rgb(255,102,0)" stroke-opacity="0.498">
      <rect x="463.3" width="25" height="50" y="389.125" clip-path="url(#clipPath2)" stroke="none"/>
    </g>
    <g text-rendering="geometricPrecision" stroke-miterlimit="1.45" shape-rendering="geometricPrecision" transform="matrix(1,0,0,1,-218,-363)" stroke-linecap="butt">
      <rect fill="none" x="463.3" width="25" height="50" y="389.125" clip-path="url(#clipPath2)"/>
    </g>
    <g transform="matrix(1,0,0,1,-218,-363)" fill-opacity="0.498" fill="rgb(0,128,0)" text-rendering="geometricPrecision" shape-rendering="geometricPrecision" stroke="rgb(0,128,0)" stroke-opacity="0.498">
      <rect x="510.8" width="50" height="50" y="389.125" clip-path="url(#clipPath2)" stroke="none"/>
    </g>
    <g text-rendering="geometricPrecision" stroke-miterlimit="1.45" shape-rendering="geometricPrecision" transform="matrix(1,0,0,1,-218,-363)" stroke-linecap="butt">
      <rect fill="none" x="510.8" width="50" height="50" y="389.125" clip-path="url(#clipPath2)"/>
      <text x="524.6769" font-size="20px" y="421.9814" clip-path="url(#clipPath2)" font-family="sans-serif" stroke="none" xml:space="preserve">76</text>
    </g>
    <g transform="matrix(1,0,0,1,-218,-363)" fill-opacity="0.498" fill="rgb(0,128,0)" text-rendering="geometricPrecision" shape-rendering="geometricPrecision" stroke="rgb(0,128,0)" stroke-opacity="0.498">
      <rect x="560.8" width="25" height="50" y="389.125" clip-path="url(#clipPath2)" stroke="none"/>
    </g>
    <g text-rendering="geometricPrecision" stroke-miterlimit="1.45" shape-rendering="geometricPrecision" transform="matrix(1,0,0,1,-218,-363)" stroke-linecap="butt">
      <rect fill="none" x="560.8" width="25" height="50" y="389.125" clip-path="url(#clipPath2)"/>
    </g>
    <g transform="matrix(1,0,0,1,-218,-363)" fill-opacity="0.498" fill="rgb(0,0,255)" text-rendering="geometricPrecision" shape-rendering="geometricPrecision" stroke="rgb(0,0,255)" stroke-opacity="0.498">
      <rect x="608.3" width="50" height="50" y="389.125" clip-path="url(#clipPath2)" stroke="none"/>
    </g>
    <g text-rendering="geometricPrecision" stroke-miterlimit="1.45" shape-rendering="geometricPrecision" transform="matrix(1,0,0,1,-218,-363)" stroke-linecap="butt">
      <rect fill="none" x="608.3" width="50" height="50" y="389.125" clip-path="url(#clipPath2)"/>
      <text x="622.1769" font-size="20px" y="421.9814" clip-path="url(#clipPath2)" font-family="sans-serif" stroke="none" xml:space="preserve">23</text>
    </g>
    <g transform="matrix(1,0,0,1,-218,-363)" fill-opacity="0.498" fill="rgb(0,0,255)" text-rendering="geometricPrecision" shape-rendering="geometricPrecision" stroke="rgb(0,0,255)" stroke-opacity="0.498">
      <rect x="658.3" width="25" height="50" y="389.125" clip-path="url(#clipPath2)" stroke="none"/>
    </g>
    <g text-rendering="geometricPrecision" stroke-miterlimit="1.45" shape-rendering="geometricPrecision" transform="matrix(1,0,0,1,-218,-363)" stroke-linecap="butt">
      <rect fill="none" x="658.3" width="25" height="50" y="389.125" clip-path="url(#clipPath2)"/>
    </g>
    <g transform="matrix(1,0,0,1,-218,-363)" fill-opacity="0.498" fill="rgb(181,35,196)" text-rendering="geometricPrecision" shape-rendering="geometricPrecision" stroke="rgb(181,35,196)" stroke-opacity="0.498">
      <rect x="705.8" width="50" height="50" y="389.125" clip-path="url(#clipPath2)" stroke="none"/>
    </g>
    <g text-rendering="geometricPrecision" stroke-miterlimit="1.45" shape-rendering="geometricPrecision" transform="matrix(1,0,0,1,-218,-363)" stroke-linecap="butt">
      <rect fill="none" x="705.8" width="50" height="50" y="389.125" clip-path="url(#clipPath2)"/>
      <text x="719.6769" font-size="20px" y="421.9814" clip-path="url(#clipPath2)" font-family="sans-serif" stroke="none" xml:space="preserve">55</text>
    </g>
    <g transform="matrix(1,0,0,1,-218,-363)" fill-opacity="0.498" fill="rgb(181,35,196)" text-rendering="geometricPrecision" shape-rendering="geometricPrecision" stroke="rgb(181,35,196)" stroke-opacity="0.498">
      <rect x="755.8" width="25" height="50" y="389.125" clip-path="url(#clipPath2)" stroke="none"/>
    </g>
    <g text-rendering="geometricPrecision" stroke-miterlimit="1.45" shape-rendering="geometricPrecision" transform="matrix(1,0,0,1,-218,-363)" stroke-linecap="butt">
      <rect fill="none" x="755.8" width="25" height="50" y="389.125" clip-path="url(#clipPath2)"/>
      <circle fill="none" r="10" clip-path="url(#clipPath2)" cx="793.3" cy="449.125"/>
      <text x="789.1325" font-size="10px" y="453.0532" clip-path="url(#clipPath2)" font-family="sans-serif" stroke="none" xml:space="preserve">///</text>
    </g>
    <g transform="matrix(1,0,0,1,-218,-363)" fill-opacity="0.498" fill="rgb(255,0,0)" text-rendering="geometricPrecision" shape-rendering="geometricPrecision" stroke="rgb(255,0,0)" stroke-opacity="0.498">
      <rect x="233.74" width="58.16" height="30" y="399.125" clip-path="url(#clipPath2)" stroke="none"/>
    </g>
    <g text-rendering="geometricPrecision" stroke-miterlimit="1.45" shape-rendering="geometricPrecision" transform="matrix(1,0,0,1,-218,-363)" stroke-linecap="butt">
      <rect fill="none" x="233.74" width="58.16" height="30" y="399.125" clip-path="url(#clipPath2)"/>
      <text x="237.8054" font-size="20px" y="421.9814" clip-path="url(#clipPath2)" font-family="sans-serif" stroke="none" xml:space="preserve">Lnum</text>
    </g>
    <g transform="matrix(1,0,0,1,-218,-363)" fill-opacity="0.498" fill="rgb(255,0,0)" text-rendering="geometricPrecision" shape-rendering="geometricPrecision" stroke="rgb(255,0,0)" stroke-opacity="0.498">
      <rect x="315.8" width="50" height="50" y="389.125" clip-path="url(#clipPath2)" stroke="none"/>
    </g>
    <g text-rendering="geometricPrecision" stroke-miterlimit="1.45" shape-rendering="geometricPrecision" transform="matrix(1,0,0,1,-218,-363)" stroke-linecap="butt">
      <rect fill="none" x="315.8" width="50" height="50" y="389.125" clip-path="url(#clipPath2)"/>
      <text x="329.6769" font-size="20px" y="421.9814" clip-path="url(#clipPath2)" font-family="sans-serif" stroke="none" xml:space="preserve">16</text>
    </g>
    <g transform="matrix(1,0,0,1,-218,-363)" fill-opacity="0.498" fill="rgb(255,0,0)" text-rendering="geometricPrecision" shape-rendering="geometricPrecision" stroke="rgb(255,0,0)" stroke-opacity="0.498">
      <rect x="365.8" width="25" height="50" y="389.125" clip-path="url(#clipPath2)" stroke="none"/>
    </g>
    <g text-rendering="geometricPrecision" stroke-miterlimit="1.45" shape-rendering="geometricPrecision" transform="matrix(1,0,0,1,-218,-363)" stroke-linecap="butt">
      <rect fill="none" x="365.8" width="25" height="50" y="389.125" clip-path="url(#clipPath2)"/>
    </g>
    <g fill="rgb(255,204,0)" text-rendering="geometricPrecision" shape-rendering="geometricPrecision" transform="matrix(1,0,0,1,-218,-363)" stroke="rgb(255,204,0)">
      <rect x="357.78" width="184.94" height="71.25" y="485.125" clip-path="url(#clipPath2)" stroke="none"/>
    </g>
    <g text-rendering="geometricPrecision" stroke-miterlimit="1.45" shape-rendering="geometricPrecision" transform="matrix(1,0,0,1,-218,-363)" stroke-linecap="butt">
      <rect fill="none" x="357.78" width="184.94" height="71.25" y="485.125" clip-path="url(#clipPath2)"/>
      <text x="389.3906" font-size="20px" y="528.6064" clip-path="url(#clipPath2)" font-family="sans-serif" stroke="none" xml:space="preserve">Filtro: x &gt; 50?</text>
      <rect x="403.125" y="378.5" clip-path="url(#clipPath2)" fill="none" width="93.75" stroke-dasharray="18,6" height="71.25" stroke-width="3"/>
      <rect fill="none" x="357.78" width="184.94" height="98" y="602.375" clip-path="url(#clipPath2)"/>
      <path fill="none" d="M480.8 414.125 L495.675 414.125" stroke-width="4" clip-path="url(#clipPath2)"/>
      <path d="M510.8 414.125 L494.3 405.875 L494.3 422.375 Z" stroke-width="4" clip-path="url(#clipPath2)" stroke="none"/>
      <path fill="none" d="M578.3 414.125 L593.175 414.125" stroke-width="4" clip-path="url(#clipPath2)"/>
      <path d="M608.3 414.125 L591.8 405.875 L591.8 422.375 Z" stroke-width="4" clip-path="url(#clipPath2)" stroke="none"/>
      <path fill="none" d="M675.8 414.125 L690.675 414.125" stroke-width="4" clip-path="url(#clipPath2)"/>
      <path d="M705.8 414.125 L689.3 405.875 L689.3 422.375 Z" stroke-width="4" clip-path="url(#clipPath2)" stroke="none"/>
      <path fill="none" d="M773.3 414.125 L793.3 414.125 L793.3 424" stroke-width="4" clip-path="url(#clipPath2)"/>
      <path d="M793.3 439.125 L801.55 422.625 L785.05 422.625 Z" stroke-width="4" clip-path="url(#clipPath2)" stroke="none"/>
      <path fill="none" d="M291.9 414.125 L300.6283 414.125" stroke-width="4" clip-path="url(#clipPath2)"/>
      <path d="M315.7533 414.125 L299.2533 405.875 L299.2533 422.375 Z" stroke-width="4" clip-path="url(#clipPath2)" stroke="none"/>
      <path fill="none" d="M383.3 414.125 L398.1457 414.125" stroke-width="4" clip-path="url(#clipPath2)"/>
      <path d="M413.2707 414.125 L396.7707 405.875 L396.7707 422.375 Z" stroke-width="4" clip-path="url(#clipPath2)" stroke="none"/>
      <path fill="none" stroke-dasharray="18,6" d="M403.4027 449.752 L359.7361 484.7956" stroke-width="3" clip-path="url(#clipPath2)"/>
      <path fill="none" stroke-dasharray="18,6" d="M494.4861 450.1706 L539.1733 485.0953" stroke-width="3" clip-path="url(#clipPath2)"/>
    </g>
    <g stroke-linecap="butt" transform="matrix(1,0,0,1,-218,-363)" fill-opacity="0.498" fill="rgb(255,0,0)" text-rendering="geometricPrecision" shape-rendering="geometricPrecision" stroke="rgb(255,0,0)" stroke-width="4" stroke-opacity="0.498" stroke-miterlimit="1.45">
      <path fill="none" d="M450.25 556.375 L450.25 587.2051" clip-path="url(#clipPath2)"/>
      <path d="M450.25 602.3301 L458.5 585.8301 L442 585.8301 Z" clip-path="url(#clipPath2)" stroke="none"/>
    </g>
  </g>
</svg>
