<?xml version="1.0" encoding="UTF-8"?><svg xmlns="http://www.w3.org/2000/svg" xmlns:xlink="http://www.w3.org/1999/xlink" fill-opacity="1" color-rendering="auto" color-interpolation="auto" text-rendering="auto" stroke="black" stroke-linecap="square" width="634" stroke-miterlimit="10" shape-rendering="auto" stroke-opacity="1" fill="black" stroke-dasharray="none" font-weight="normal" stroke-width="1" height="352" font-family="'Dialog'" font-style="normal" stroke-linejoin="miter" font-size="12px" stroke-dashoffset="0" image-rendering="auto">
  <!--Generated by ySVG 2.5-->
  <defs id="genericDefs"/>
  <g>
    <defs id="defs1">
      <clipPath clipPathUnits="userSpaceOnUse" id="clipPath1">
        <path d="M0 0 L634 0 L634 352 L0 352 L0 0 Z"/>
      </clipPath>
      <clipPath clipPathUnits="userSpaceOnUse" id="clipPath2">
        <path d="M311 454 L945 454 L945 806 L311 806 L311 454 Z"/>
      </clipPath>
    </defs>
    <g transform="matrix(1,0,0,1,-311,-454)" fill-opacity="0.498" fill="rgb(255,102,0)" text-rendering="geometricPrecision" shape-rendering="geometricPrecision" stroke="rgb(255,102,0)" stroke-opacity="0.498">
      <rect x="506.16" width="50" height="50" y="479.625" clip-path="url(#clipPath2)" stroke="none"/>
    </g>
    <g text-rendering="geometricPrecision" stroke-miterlimit="1.45" shape-rendering="geometricPrecision" transform="matrix(1,0,0,1,-311,-454)" stroke-linecap="butt">
      <rect fill="none" x="506.16" width="50" height="50" y="479.625" clip-path="url(#clipPath2)"/>
      <text x="520.0369" font-size="20px" y="512.4814" clip-path="url(#clipPath2)" font-family="sans-serif" stroke="none" xml:space="preserve">33</text>
    </g>
    <g transform="matrix(1,0,0,1,-311,-454)" fill-opacity="0.498" fill="rgb(255,102,0)" text-rendering="geometricPrecision" shape-rendering="geometricPrecision" stroke="rgb(255,102,0)" stroke-opacity="0.498">
      <rect x="556.16" width="25" height="50" y="479.625" clip-path="url(#clipPath2)" stroke="none"/>
    </g>
    <g text-rendering="geometricPrecision" stroke-miterlimit="1.45" shape-rendering="geometricPrecision" transform="matrix(1,0,0,1,-311,-454)" stroke-linecap="butt">
      <rect fill="none" x="556.16" width="25" height="50" y="479.625" clip-path="url(#clipPath2)"/>
    </g>
    <g transform="matrix(1,0,0,1,-311,-454)" fill-opacity="0.498" fill="rgb(0,128,0)" text-rendering="geometricPrecision" shape-rendering="geometricPrecision" stroke="rgb(0,128,0)" stroke-opacity="0.498">
      <rect x="603.66" width="50" height="50" y="479.625" clip-path="url(#clipPath2)" stroke="none"/>
    </g>
    <g text-rendering="geometricPrecision" stroke-miterlimit="1.45" shape-rendering="geometricPrecision" transform="matrix(1,0,0,1,-311,-454)" stroke-linecap="butt">
      <rect fill="none" x="603.66" width="50" height="50" y="479.625" clip-path="url(#clipPath2)"/>
      <text x="617.5369" font-size="20px" y="512.4814" clip-path="url(#clipPath2)" font-family="sans-serif" stroke="none" xml:space="preserve">76</text>
    </g>
    <g transform="matrix(1,0,0,1,-311,-454)" fill-opacity="0.498" fill="rgb(0,128,0)" text-rendering="geometricPrecision" shape-rendering="geometricPrecision" stroke="rgb(0,128,0)" stroke-opacity="0.498">
      <rect x="653.66" width="25" height="50" y="479.625" clip-path="url(#clipPath2)" stroke="none"/>
    </g>
    <g text-rendering="geometricPrecision" stroke-miterlimit="1.45" shape-rendering="geometricPrecision" transform="matrix(1,0,0,1,-311,-454)" stroke-linecap="butt">
      <rect fill="none" x="653.66" width="25" height="50" y="479.625" clip-path="url(#clipPath2)"/>
    </g>
    <g transform="matrix(1,0,0,1,-311,-454)" fill-opacity="0.498" fill="rgb(0,0,255)" text-rendering="geometricPrecision" shape-rendering="geometricPrecision" stroke="rgb(0,0,255)" stroke-opacity="0.498">
      <rect x="701.16" width="50" height="50" y="479.625" clip-path="url(#clipPath2)" stroke="none"/>
    </g>
    <g text-rendering="geometricPrecision" stroke-miterlimit="1.45" shape-rendering="geometricPrecision" transform="matrix(1,0,0,1,-311,-454)" stroke-linecap="butt">
      <rect fill="none" x="701.16" width="50" height="50" y="479.625" clip-path="url(#clipPath2)"/>
      <text x="715.0369" font-size="20px" y="512.4814" clip-path="url(#clipPath2)" font-family="sans-serif" stroke="none" xml:space="preserve">23</text>
    </g>
    <g transform="matrix(1,0,0,1,-311,-454)" fill-opacity="0.498" fill="rgb(0,0,255)" text-rendering="geometricPrecision" shape-rendering="geometricPrecision" stroke="rgb(0,0,255)" stroke-opacity="0.498">
      <rect x="751.16" width="25" height="50" y="479.625" clip-path="url(#clipPath2)" stroke="none"/>
    </g>
    <g text-rendering="geometricPrecision" stroke-miterlimit="1.45" shape-rendering="geometricPrecision" transform="matrix(1,0,0,1,-311,-454)" stroke-linecap="butt">
      <rect fill="none" x="751.16" width="25" height="50" y="479.625" clip-path="url(#clipPath2)"/>
    </g>
    <g transform="matrix(1,0,0,1,-311,-454)" fill-opacity="0.498" fill="rgb(181,35,196)" text-rendering="geometricPrecision" shape-rendering="geometricPrecision" stroke="rgb(181,35,196)" stroke-opacity="0.498">
      <rect x="798.66" width="50" height="50" y="479.625" clip-path="url(#clipPath2)" stroke="none"/>
    </g>
    <g text-rendering="geometricPrecision" stroke-miterlimit="1.45" shape-rendering="geometricPrecision" transform="matrix(1,0,0,1,-311,-454)" stroke-linecap="butt">
      <rect fill="none" x="798.66" width="50" height="50" y="479.625" clip-path="url(#clipPath2)"/>
      <text x="812.5369" font-size="20px" y="512.4814" clip-path="url(#clipPath2)" font-family="sans-serif" stroke="none" xml:space="preserve">55</text>
    </g>
    <g transform="matrix(1,0,0,1,-311,-454)" fill-opacity="0.498" fill="rgb(181,35,196)" text-rendering="geometricPrecision" shape-rendering="geometricPrecision" stroke="rgb(181,35,196)" stroke-opacity="0.498">
      <rect x="848.66" width="25" height="50" y="479.625" clip-path="url(#clipPath2)" stroke="none"/>
    </g>
    <g text-rendering="geometricPrecision" stroke-miterlimit="1.45" shape-rendering="geometricPrecision" transform="matrix(1,0,0,1,-311,-454)" stroke-linecap="butt">
      <rect fill="none" x="848.66" width="25" height="50" y="479.625" clip-path="url(#clipPath2)"/>
      <circle fill="none" r="10" clip-path="url(#clipPath2)" cx="886.16" cy="539.625"/>
      <text x="881.9925" font-size="10px" y="543.5532" clip-path="url(#clipPath2)" font-family="sans-serif" stroke="none" xml:space="preserve">///</text>
    </g>
    <g transform="matrix(1,0,0,1,-311,-454)" fill-opacity="0.498" fill="rgb(255,0,0)" text-rendering="geometricPrecision" shape-rendering="geometricPrecision" stroke="rgb(255,0,0)" stroke-opacity="0.498">
      <rect x="326.6" width="58.16" height="30" y="489.625" clip-path="url(#clipPath2)" stroke="none"/>
    </g>
    <g text-rendering="geometricPrecision" stroke-miterlimit="1.45" shape-rendering="geometricPrecision" transform="matrix(1,0,0,1,-311,-454)" stroke-linecap="butt">
      <rect fill="none" x="326.6" width="58.16" height="30" y="489.625" clip-path="url(#clipPath2)"/>
      <text x="330.6653" font-size="20px" y="512.4814" clip-path="url(#clipPath2)" font-family="sans-serif" stroke="none" xml:space="preserve">Lnum</text>
    </g>
    <g transform="matrix(1,0,0,1,-311,-454)" fill-opacity="0.498" fill="rgb(255,0,0)" text-rendering="geometricPrecision" shape-rendering="geometricPrecision" stroke="rgb(255,0,0)" stroke-opacity="0.498">
      <rect x="408.66" width="50" height="50" y="479.625" clip-path="url(#clipPath2)" stroke="none"/>
    </g>
    <g text-rendering="geometricPrecision" stroke-miterlimit="1.45" shape-rendering="geometricPrecision" transform="matrix(1,0,0,1,-311,-454)" stroke-linecap="butt">
      <rect fill="none" x="408.66" width="50" height="50" y="479.625" clip-path="url(#clipPath2)"/>
      <text x="422.537" font-size="20px" y="512.4814" clip-path="url(#clipPath2)" font-family="sans-serif" stroke="none" xml:space="preserve">16</text>
    </g>
    <g transform="matrix(1,0,0,1,-311,-454)" fill-opacity="0.498" fill="rgb(255,0,0)" text-rendering="geometricPrecision" shape-rendering="geometricPrecision" stroke="rgb(255,0,0)" stroke-opacity="0.498">
      <rect x="458.66" width="25" height="50" y="479.625" clip-path="url(#clipPath2)" stroke="none"/>
    </g>
    <g text-rendering="geometricPrecision" stroke-miterlimit="1.45" shape-rendering="geometricPrecision" transform="matrix(1,0,0,1,-311,-454)" stroke-linecap="butt">
      <rect fill="none" x="458.66" width="25" height="50" y="479.625" clip-path="url(#clipPath2)"/>
    </g>
    <g fill="rgb(255,204,0)" text-rendering="geometricPrecision" shape-rendering="geometricPrecision" transform="matrix(1,0,0,1,-311,-454)" stroke="rgb(255,204,0)">
      <rect x="744.495" width="184.94" height="71.25" y="575.625" clip-path="url(#clipPath2)" stroke="none"/>
    </g>
    <g text-rendering="geometricPrecision" stroke-miterlimit="1.45" shape-rendering="geometricPrecision" transform="matrix(1,0,0,1,-311,-454)" stroke-linecap="butt">
      <rect fill="none" x="744.495" width="184.94" height="71.25" y="575.625" clip-path="url(#clipPath2)"/>
      <text x="784.4357" font-size="20px" y="619.1064" clip-path="url(#clipPath2)" font-family="sans-serif" stroke="none" xml:space="preserve">Mapa: x + 3</text>
      <rect x="790.09" y="469" clip-path="url(#clipPath2)" fill="none" width="93.75" stroke-dasharray="18,6" height="71.25" stroke-width="3"/>
      <rect fill="none" x="392.21" width="512.94" height="98" y="692.875" clip-path="url(#clipPath2)"/>
    </g>
    <g transform="matrix(1,0,0,1,-311,-454)" fill-opacity="0.498" fill="rgb(255,0,0)" text-rendering="geometricPrecision" shape-rendering="geometricPrecision" stroke="rgb(255,0,0)" stroke-opacity="0.498">
      <rect x="405.25" width="50" height="50" y="716.875" clip-path="url(#clipPath2)" stroke="none"/>
    </g>
    <g text-rendering="geometricPrecision" stroke-miterlimit="1.45" shape-rendering="geometricPrecision" transform="matrix(1,0,0,1,-311,-454)" stroke-linecap="butt">
      <rect fill="none" x="405.25" width="50" height="50" y="716.875" clip-path="url(#clipPath2)"/>
      <text x="419.127" font-size="20px" y="749.7314" clip-path="url(#clipPath2)" font-family="sans-serif" stroke="none" xml:space="preserve">19</text>
      <circle fill="none" r="10" clip-path="url(#clipPath2)" cx="885.25" cy="776.875"/>
      <text x="881.0825" font-size="10px" y="780.8032" clip-path="url(#clipPath2)" font-family="sans-serif" stroke="none" xml:space="preserve">///</text>
    </g>
    <g transform="matrix(1,0,0,1,-311,-454)" fill-opacity="0.498" fill="rgb(255,102,0)" text-rendering="geometricPrecision" shape-rendering="geometricPrecision" stroke="rgb(255,102,0)" stroke-opacity="0.498">
      <rect x="502.75" width="50" height="50" y="716.875" clip-path="url(#clipPath2)" stroke="none"/>
    </g>
    <g text-rendering="geometricPrecision" stroke-miterlimit="1.45" shape-rendering="geometricPrecision" transform="matrix(1,0,0,1,-311,-454)" stroke-linecap="butt">
      <rect fill="none" x="502.75" width="50" height="50" y="716.875" clip-path="url(#clipPath2)"/>
      <text x="516.627" font-size="20px" y="749.7314" clip-path="url(#clipPath2)" font-family="sans-serif" stroke="none" xml:space="preserve">36</text>
    </g>
    <g transform="matrix(1,0,0,1,-311,-454)" fill-opacity="0.498" fill="rgb(255,102,0)" text-rendering="geometricPrecision" shape-rendering="geometricPrecision" stroke="rgb(255,102,0)" stroke-opacity="0.498">
      <rect x="552.75" width="25" height="50" y="716.875" clip-path="url(#clipPath2)" stroke="none"/>
    </g>
    <g text-rendering="geometricPrecision" stroke-miterlimit="1.45" shape-rendering="geometricPrecision" transform="matrix(1,0,0,1,-311,-454)" stroke-linecap="butt">
      <rect fill="none" x="552.75" width="25" height="50" y="716.875" clip-path="url(#clipPath2)"/>
    </g>
    <g transform="matrix(1,0,0,1,-311,-454)" fill-opacity="0.498" fill="rgb(255,0,0)" text-rendering="geometricPrecision" shape-rendering="geometricPrecision" stroke="rgb(255,0,0)" stroke-opacity="0.498">
      <rect x="455.25" width="25" height="50" y="716.875" clip-path="url(#clipPath2)" stroke="none"/>
    </g>
    <g text-rendering="geometricPrecision" stroke-miterlimit="1.45" shape-rendering="geometricPrecision" transform="matrix(1,0,0,1,-311,-454)" stroke-linecap="butt">
      <rect fill="none" x="455.25" width="25" height="50" y="716.875" clip-path="url(#clipPath2)"/>
    </g>
    <g transform="matrix(1,0,0,1,-311,-454)" fill-opacity="0.498" fill="rgb(0,128,0)" text-rendering="geometricPrecision" shape-rendering="geometricPrecision" stroke="rgb(0,128,0)" stroke-opacity="0.498">
      <rect x="600.25" width="50" height="50" y="716.875" clip-path="url(#clipPath2)" stroke="none"/>
    </g>
    <g text-rendering="geometricPrecision" stroke-miterlimit="1.45" shape-rendering="geometricPrecision" transform="matrix(1,0,0,1,-311,-454)" stroke-linecap="butt">
      <rect fill="none" x="600.25" width="50" height="50" y="716.875" clip-path="url(#clipPath2)"/>
      <text x="614.127" font-size="20px" y="749.7314" clip-path="url(#clipPath2)" font-family="sans-serif" stroke="none" xml:space="preserve">79</text>
    </g>
    <g transform="matrix(1,0,0,1,-311,-454)" fill-opacity="0.498" fill="rgb(0,128,0)" text-rendering="geometricPrecision" shape-rendering="geometricPrecision" stroke="rgb(0,128,0)" stroke-opacity="0.498">
      <rect x="650.25" width="25" height="50" y="716.875" clip-path="url(#clipPath2)" stroke="none"/>
    </g>
    <g text-rendering="geometricPrecision" stroke-miterlimit="1.45" shape-rendering="geometricPrecision" transform="matrix(1,0,0,1,-311,-454)" stroke-linecap="butt">
      <rect fill="none" x="650.25" width="25" height="50" y="716.875" clip-path="url(#clipPath2)"/>
    </g>
    <g transform="matrix(1,0,0,1,-311,-454)" fill-opacity="0.498" fill="rgb(0,0,255)" text-rendering="geometricPrecision" shape-rendering="geometricPrecision" stroke="rgb(0,0,255)" stroke-opacity="0.498">
      <rect x="697.75" width="50" height="50" y="716.875" clip-path="url(#clipPath2)" stroke="none"/>
    </g>
    <g text-rendering="geometricPrecision" stroke-miterlimit="1.45" shape-rendering="geometricPrecision" transform="matrix(1,0,0,1,-311,-454)" stroke-linecap="butt">
      <rect fill="none" x="697.75" width="50" height="50" y="716.875" clip-path="url(#clipPath2)"/>
      <text x="711.627" font-size="20px" y="749.7314" clip-path="url(#clipPath2)" font-family="sans-serif" stroke="none" xml:space="preserve">26</text>
    </g>
    <g transform="matrix(1,0,0,1,-311,-454)" fill-opacity="0.498" fill="rgb(0,0,255)" text-rendering="geometricPrecision" shape-rendering="geometricPrecision" stroke="rgb(0,0,255)" stroke-opacity="0.498">
      <rect x="747.75" width="25" height="50" y="716.875" clip-path="url(#clipPath2)" stroke="none"/>
    </g>
    <g text-rendering="geometricPrecision" stroke-miterlimit="1.45" shape-rendering="geometricPrecision" transform="matrix(1,0,0,1,-311,-454)" stroke-linecap="butt">
      <rect fill="none" x="747.75" width="25" height="50" y="716.875" clip-path="url(#clipPath2)"/>
    </g>
    <g transform="matrix(1,0,0,1,-311,-454)" fill-opacity="0.498" fill="rgb(181,35,196)" text-rendering="geometricPrecision" shape-rendering="geometricPrecision" stroke="rgb(181,35,196)" stroke-opacity="0.498">
      <rect x="795.25" width="50" height="50" y="716.875" clip-path="url(#clipPath2)" stroke="none"/>
    </g>
    <g text-rendering="geometricPrecision" stroke-miterlimit="1.45" shape-rendering="geometricPrecision" transform="matrix(1,0,0,1,-311,-454)" stroke-linecap="butt">
      <rect fill="none" x="795.25" width="50" height="50" y="716.875" clip-path="url(#clipPath2)"/>
      <text x="809.127" font-size="20px" y="749.7314" clip-path="url(#clipPath2)" font-family="sans-serif" stroke="none" xml:space="preserve">58</text>
    </g>
    <g transform="matrix(1,0,0,1,-311,-454)" fill-opacity="0.498" fill="rgb(181,35,196)" text-rendering="geometricPrecision" shape-rendering="geometricPrecision" stroke="rgb(181,35,196)" stroke-opacity="0.498">
      <rect x="845.25" width="25" height="50" y="716.875" clip-path="url(#clipPath2)" stroke="none"/>
    </g>
    <g text-rendering="geometricPrecision" stroke-miterlimit="1.45" shape-rendering="geometricPrecision" transform="matrix(1,0,0,1,-311,-454)" stroke-linecap="butt">
      <rect fill="none" x="845.25" width="25" height="50" y="716.875" clip-path="url(#clipPath2)"/>
      <path fill="none" d="M573.66 504.625 L588.535 504.625" stroke-width="4" clip-path="url(#clipPath2)"/>
      <path d="M603.66 504.625 L587.16 496.375 L587.16 512.875 Z" stroke-width="4" clip-path="url(#clipPath2)" stroke="none"/>
      <path fill="none" d="M671.16 504.625 L686.035 504.625" stroke-width="4" clip-path="url(#clipPath2)"/>
      <path d="M701.16 504.625 L684.66 496.375 L684.66 512.875 Z" stroke-width="4" clip-path="url(#clipPath2)" stroke="none"/>
      <path fill="none" d="M768.66 504.625 L783.535 504.625" stroke-width="4" clip-path="url(#clipPath2)"/>
      <path d="M798.66 504.625 L782.16 496.375 L782.16 512.875 Z" stroke-width="4" clip-path="url(#clipPath2)" stroke="none"/>
      <path fill="none" d="M866.16 504.625 L886.16 504.625 L886.16 514.5" stroke-width="4" clip-path="url(#clipPath2)"/>
      <path d="M886.16 529.625 L894.41 513.125 L877.91 513.125 Z" stroke-width="4" clip-path="url(#clipPath2)" stroke="none"/>
      <path fill="none" d="M384.76 504.625 L393.4883 504.625" stroke-width="4" clip-path="url(#clipPath2)"/>
      <path d="M408.6133 504.625 L392.1133 496.375 L392.1133 512.875 Z" stroke-width="4" clip-path="url(#clipPath2)" stroke="none"/>
      <path fill="none" d="M476.16 504.625 L491.035 504.625" stroke-width="4" clip-path="url(#clipPath2)"/>
      <path d="M506.16 504.625 L489.66 496.375 L489.66 512.875 Z" stroke-width="4" clip-path="url(#clipPath2)" stroke="none"/>
      <path fill="none" stroke-dasharray="18,6" d="M790.3677 540.252 L746.4511 575.2957" stroke-width="3" clip-path="url(#clipPath2)"/>
      <path fill="none" stroke-dasharray="18,6" d="M881.4511 540.6707 L925.8884 575.5953" stroke-width="3" clip-path="url(#clipPath2)"/>
    </g>
    <g stroke-linecap="butt" transform="matrix(1,0,0,1,-311,-454)" fill-opacity="0.498" fill="rgb(0,128,0)" text-rendering="geometricPrecision" shape-rendering="geometricPrecision" stroke="rgb(0,128,0)" stroke-width="4" stroke-opacity="0.498" stroke-miterlimit="1.45">
      <path fill="none" d="M836.965 646.875 L836.965 677.7269" clip-path="url(#clipPath2)"/>
      <path d="M836.965 692.8519 L845.215 676.3519 L828.715 676.3519 Z" clip-path="url(#clipPath2)" stroke="none"/>
    </g>
    <g text-rendering="geometricPrecision" stroke-miterlimit="1.45" stroke-width="4" shape-rendering="geometricPrecision" transform="matrix(1,0,0,1,-311,-454)" stroke-linecap="butt">
      <path fill="none" d="M472.75 741.875 L487.625 741.875" clip-path="url(#clipPath2)"/>
      <path d="M502.75 741.875 L486.25 733.625 L486.25 750.125 Z" clip-path="url(#clipPath2)" stroke="none"/>
      <path fill="none" d="M570.25 741.875 L585.125 741.875" clip-path="url(#clipPath2)"/>
      <path d="M600.25 741.875 L583.75 733.625 L583.75 750.125 Z" clip-path="url(#clipPath2)" stroke="none"/>
      <path fill="none" d="M667.75 741.875 L682.5957 741.875" clip-path="url(#clipPath2)"/>
      <path d="M697.7207 741.875 L681.2207 733.625 L681.2207 750.125 Z" clip-path="url(#clipPath2)" stroke="none"/>
      <path fill="none" d="M765.25 741.875 L780.125 741.875" clip-path="url(#clipPath2)"/>
      <path d="M795.25 741.875 L778.75 733.625 L778.75 750.125 Z" clip-path="url(#clipPath2)" stroke="none"/>
      <path fill="none" d="M862.75 741.875 L885.25 741.875 L885.25 751.75" clip-path="url(#clipPath2)"/>
      <path d="M885.25 766.875 L893.5 750.375 L877 750.375 Z" clip-path="url(#clipPath2)" stroke="none"/>
    </g>
  </g>
</svg>
