<?xml version="1.0" encoding="UTF-8"?><svg xmlns="http://www.w3.org/2000/svg" xmlns:xlink="http://www.w3.org/1999/xlink" fill-opacity="1" color-rendering="auto" color-interpolation="auto" text-rendering="auto" stroke="black" stroke-linecap="square" width="601" stroke-miterlimit="10" shape-rendering="auto" stroke-opacity="1" fill="black" stroke-dasharray="none" font-weight="normal" stroke-width="1" height="352" font-family="'Dialog'" font-style="normal" stroke-linejoin="miter" font-size="12px" stroke-dashoffset="0" image-rendering="auto">
  <!--Generated by ySVG 2.5-->
  <defs id="genericDefs"/>
  <g>
    <defs id="defs1">
      <clipPath clipPathUnits="userSpaceOnUse" id="clipPath1">
        <path d="M0 0 L601 0 L601 352 L0 352 L0 0 Z"/>
      </clipPath>
      <clipPath clipPathUnits="userSpaceOnUse" id="clipPath2">
        <path d="M249 394 L850 394 L850 746 L249 746 L249 394 Z"/>
      </clipPath>
    </defs>
    <g transform="matrix(1,0,0,1,-249,-394)" fill-opacity="0.498" fill="rgb(255,102,0)" text-rendering="geometricPrecision" shape-rendering="geometricPrecision" stroke="rgb(255,102,0)" stroke-opacity="0.498">
      <rect x="444.04" width="50" height="50" y="419.625" clip-path="url(#clipPath2)" stroke="none"/>
    </g>
    <g text-rendering="geometricPrecision" stroke-miterlimit="1.45" shape-rendering="geometricPrecision" transform="matrix(1,0,0,1,-249,-394)" stroke-linecap="butt">
      <rect fill="none" x="444.04" width="50" height="50" y="419.625" clip-path="url(#clipPath2)"/>
      <text x="457.917" font-size="20px" y="452.4814" clip-path="url(#clipPath2)" font-family="sans-serif" stroke="none" xml:space="preserve">33</text>
    </g>
    <g transform="matrix(1,0,0,1,-249,-394)" fill-opacity="0.498" fill="rgb(255,102,0)" text-rendering="geometricPrecision" shape-rendering="geometricPrecision" stroke="rgb(255,102,0)" stroke-opacity="0.498">
      <rect x="494.04" width="25" height="50" y="419.625" clip-path="url(#clipPath2)" stroke="none"/>
    </g>
    <g text-rendering="geometricPrecision" stroke-miterlimit="1.45" shape-rendering="geometricPrecision" transform="matrix(1,0,0,1,-249,-394)" stroke-linecap="butt">
      <rect fill="none" x="494.04" width="25" height="50" y="419.625" clip-path="url(#clipPath2)"/>
    </g>
    <g transform="matrix(1,0,0,1,-249,-394)" fill-opacity="0.498" fill="rgb(0,128,0)" text-rendering="geometricPrecision" shape-rendering="geometricPrecision" stroke="rgb(0,128,0)" stroke-opacity="0.498">
      <rect x="541.54" width="50" height="50" y="419.625" clip-path="url(#clipPath2)" stroke="none"/>
    </g>
    <g text-rendering="geometricPrecision" stroke-miterlimit="1.45" shape-rendering="geometricPrecision" transform="matrix(1,0,0,1,-249,-394)" stroke-linecap="butt">
      <rect fill="none" x="541.54" width="50" height="50" y="419.625" clip-path="url(#clipPath2)"/>
      <text x="555.4169" font-size="20px" y="452.4814" clip-path="url(#clipPath2)" font-family="sans-serif" stroke="none" xml:space="preserve">76</text>
    </g>
    <g transform="matrix(1,0,0,1,-249,-394)" fill-opacity="0.498" fill="rgb(0,128,0)" text-rendering="geometricPrecision" shape-rendering="geometricPrecision" stroke="rgb(0,128,0)" stroke-opacity="0.498">
      <rect x="591.54" width="25" height="50" y="419.625" clip-path="url(#clipPath2)" stroke="none"/>
    </g>
    <g text-rendering="geometricPrecision" stroke-miterlimit="1.45" shape-rendering="geometricPrecision" transform="matrix(1,0,0,1,-249,-394)" stroke-linecap="butt">
      <rect fill="none" x="591.54" width="25" height="50" y="419.625" clip-path="url(#clipPath2)"/>
    </g>
    <g transform="matrix(1,0,0,1,-249,-394)" fill-opacity="0.498" fill="rgb(0,0,255)" text-rendering="geometricPrecision" shape-rendering="geometricPrecision" stroke="rgb(0,0,255)" stroke-opacity="0.498">
      <rect x="639.04" width="50" height="50" y="419.625" clip-path="url(#clipPath2)" stroke="none"/>
    </g>
    <g text-rendering="geometricPrecision" stroke-miterlimit="1.45" shape-rendering="geometricPrecision" transform="matrix(1,0,0,1,-249,-394)" stroke-linecap="butt">
      <rect fill="none" x="639.04" width="50" height="50" y="419.625" clip-path="url(#clipPath2)"/>
      <text x="652.9169" font-size="20px" y="452.4814" clip-path="url(#clipPath2)" font-family="sans-serif" stroke="none" xml:space="preserve">23</text>
    </g>
    <g transform="matrix(1,0,0,1,-249,-394)" fill-opacity="0.498" fill="rgb(0,0,255)" text-rendering="geometricPrecision" shape-rendering="geometricPrecision" stroke="rgb(0,0,255)" stroke-opacity="0.498">
      <rect x="689.04" width="25" height="50" y="419.625" clip-path="url(#clipPath2)" stroke="none"/>
    </g>
    <g text-rendering="geometricPrecision" stroke-miterlimit="1.45" shape-rendering="geometricPrecision" transform="matrix(1,0,0,1,-249,-394)" stroke-linecap="butt">
      <rect fill="none" x="689.04" width="25" height="50" y="419.625" clip-path="url(#clipPath2)"/>
    </g>
    <g transform="matrix(1,0,0,1,-249,-394)" fill-opacity="0.498" fill="rgb(181,35,196)" text-rendering="geometricPrecision" shape-rendering="geometricPrecision" stroke="rgb(181,35,196)" stroke-opacity="0.498">
      <rect x="736.54" width="50" height="50" y="419.625" clip-path="url(#clipPath2)" stroke="none"/>
    </g>
    <g text-rendering="geometricPrecision" stroke-miterlimit="1.45" shape-rendering="geometricPrecision" transform="matrix(1,0,0,1,-249,-394)" stroke-linecap="butt">
      <rect fill="none" x="736.54" width="50" height="50" y="419.625" clip-path="url(#clipPath2)"/>
      <text x="750.4169" font-size="20px" y="452.4814" clip-path="url(#clipPath2)" font-family="sans-serif" stroke="none" xml:space="preserve">55</text>
    </g>
    <g transform="matrix(1,0,0,1,-249,-394)" fill-opacity="0.498" fill="rgb(181,35,196)" text-rendering="geometricPrecision" shape-rendering="geometricPrecision" stroke="rgb(181,35,196)" stroke-opacity="0.498">
      <rect x="786.54" width="25" height="50" y="419.625" clip-path="url(#clipPath2)" stroke="none"/>
    </g>
    <g text-rendering="geometricPrecision" stroke-miterlimit="1.45" shape-rendering="geometricPrecision" transform="matrix(1,0,0,1,-249,-394)" stroke-linecap="butt">
      <rect fill="none" x="786.54" width="25" height="50" y="419.625" clip-path="url(#clipPath2)"/>
      <circle fill="none" r="10" clip-path="url(#clipPath2)" cx="824.04" cy="479.625"/>
      <text x="819.8725" font-size="10px" y="483.5532" clip-path="url(#clipPath2)" font-family="sans-serif" stroke="none" xml:space="preserve">///</text>
    </g>
    <g transform="matrix(1,0,0,1,-249,-394)" fill-opacity="0.498" fill="rgb(255,0,0)" text-rendering="geometricPrecision" shape-rendering="geometricPrecision" stroke="rgb(255,0,0)" stroke-opacity="0.498">
      <rect x="264.48" width="58.16" height="30" y="429.625" clip-path="url(#clipPath2)" stroke="none"/>
    </g>
    <g text-rendering="geometricPrecision" stroke-miterlimit="1.45" shape-rendering="geometricPrecision" transform="matrix(1,0,0,1,-249,-394)" stroke-linecap="butt">
      <rect fill="none" x="264.48" width="58.16" height="30" y="429.625" clip-path="url(#clipPath2)"/>
      <text x="268.5453" font-size="20px" y="452.4814" clip-path="url(#clipPath2)" font-family="sans-serif" stroke="none" xml:space="preserve">Lnum</text>
    </g>
    <g transform="matrix(1,0,0,1,-249,-394)" fill-opacity="0.498" fill="rgb(255,0,0)" text-rendering="geometricPrecision" shape-rendering="geometricPrecision" stroke="rgb(255,0,0)" stroke-opacity="0.498">
      <rect x="346.54" width="50" height="50" y="419.625" clip-path="url(#clipPath2)" stroke="none"/>
    </g>
    <g text-rendering="geometricPrecision" stroke-miterlimit="1.45" shape-rendering="geometricPrecision" transform="matrix(1,0,0,1,-249,-394)" stroke-linecap="butt">
      <rect fill="none" x="346.54" width="50" height="50" y="419.625" clip-path="url(#clipPath2)"/>
      <text x="360.417" font-size="20px" y="452.4814" clip-path="url(#clipPath2)" font-family="sans-serif" stroke="none" xml:space="preserve">16</text>
    </g>
    <g transform="matrix(1,0,0,1,-249,-394)" fill-opacity="0.498" fill="rgb(255,0,0)" text-rendering="geometricPrecision" shape-rendering="geometricPrecision" stroke="rgb(255,0,0)" stroke-opacity="0.498">
      <rect x="396.54" width="25" height="50" y="419.625" clip-path="url(#clipPath2)" stroke="none"/>
    </g>
    <g text-rendering="geometricPrecision" stroke-miterlimit="1.45" shape-rendering="geometricPrecision" transform="matrix(1,0,0,1,-249,-394)" stroke-linecap="butt">
      <rect fill="none" x="396.54" width="25" height="50" y="419.625" clip-path="url(#clipPath2)"/>
    </g>
    <g fill="rgb(255,204,0)" text-rendering="geometricPrecision" shape-rendering="geometricPrecision" transform="matrix(1,0,0,1,-249,-394)" stroke="rgb(255,204,0)">
      <rect x="485.645" width="184.94" height="71.25" y="515.625" clip-path="url(#clipPath2)" stroke="none"/>
    </g>
    <g text-rendering="geometricPrecision" stroke-miterlimit="1.45" shape-rendering="geometricPrecision" transform="matrix(1,0,0,1,-249,-394)" stroke-linecap="butt">
      <rect fill="none" x="485.645" width="184.94" height="71.25" y="515.625" clip-path="url(#clipPath2)"/>
      <text x="517.2556" font-size="20px" y="559.1064" clip-path="url(#clipPath2)" font-family="sans-serif" stroke="none" xml:space="preserve">Filtro: x &gt; 50?</text>
      <rect x="531.24" y="409" clip-path="url(#clipPath2)" fill="none" width="93.75" stroke-dasharray="18,6" height="71.25" stroke-width="3"/>
      <rect fill="none" x="484.655" width="184.94" height="98" y="632.875" clip-path="url(#clipPath2)"/>
    </g>
    <g transform="matrix(1,0,0,1,-249,-394)" fill-opacity="0.498" fill="rgb(0,128,0)" text-rendering="geometricPrecision" shape-rendering="geometricPrecision" stroke="rgb(0,128,0)" stroke-opacity="0.498">
      <rect x="489.625" width="50" height="50" y="650" clip-path="url(#clipPath2)" stroke="none"/>
    </g>
    <g text-rendering="geometricPrecision" stroke-miterlimit="1.45" shape-rendering="geometricPrecision" transform="matrix(1,0,0,1,-249,-394)" stroke-linecap="butt">
      <rect fill="none" x="489.625" width="50" height="50" y="650" clip-path="url(#clipPath2)"/>
      <text x="503.502" font-size="20px" y="682.8564" clip-path="url(#clipPath2)" font-family="sans-serif" stroke="none" xml:space="preserve">76</text>
    </g>
    <g transform="matrix(1,0,0,1,-249,-394)" fill-opacity="0.498" fill="rgb(0,128,0)" text-rendering="geometricPrecision" shape-rendering="geometricPrecision" stroke="rgb(0,128,0)" stroke-opacity="0.498">
      <rect x="539.625" width="25" height="50" y="650" clip-path="url(#clipPath2)" stroke="none"/>
    </g>
    <g text-rendering="geometricPrecision" stroke-miterlimit="1.45" shape-rendering="geometricPrecision" transform="matrix(1,0,0,1,-249,-394)" stroke-linecap="butt">
      <rect fill="none" x="539.625" width="25" height="50" y="650" clip-path="url(#clipPath2)"/>
      <circle fill="none" r="10" clip-path="url(#clipPath2)" cx="577.125" cy="710"/>
      <text x="572.9575" font-size="10px" y="713.9282" clip-path="url(#clipPath2)" font-family="sans-serif" stroke="none" xml:space="preserve">///</text>
      <path fill="none" d="M511.54 444.625 L526.415 444.625" stroke-width="4" clip-path="url(#clipPath2)"/>
      <path d="M541.54 444.625 L525.04 436.375 L525.04 452.875 Z" stroke-width="4" clip-path="url(#clipPath2)" stroke="none"/>
      <path fill="none" d="M609.04 444.625 L623.915 444.625" stroke-width="4" clip-path="url(#clipPath2)"/>
      <path d="M639.04 444.625 L622.54 436.375 L622.54 452.875 Z" stroke-width="4" clip-path="url(#clipPath2)" stroke="none"/>
      <path fill="none" d="M706.54 444.625 L721.415 444.625" stroke-width="4" clip-path="url(#clipPath2)"/>
      <path d="M736.54 444.625 L720.04 436.375 L720.04 452.875 Z" stroke-width="4" clip-path="url(#clipPath2)" stroke="none"/>
      <path fill="none" d="M804.04 444.625 L824.04 444.625 L824.04 454.5" stroke-width="4" clip-path="url(#clipPath2)"/>
      <path d="M824.04 469.625 L832.29 453.125 L815.79 453.125 Z" stroke-width="4" clip-path="url(#clipPath2)" stroke="none"/>
      <path fill="none" d="M322.64 444.625 L331.3683 444.625" stroke-width="4" clip-path="url(#clipPath2)"/>
      <path d="M346.4933 444.625 L329.9933 436.375 L329.9933 452.875 Z" stroke-width="4" clip-path="url(#clipPath2)" stroke="none"/>
      <path fill="none" d="M414.04 444.625 L428.8857 444.625" stroke-width="4" clip-path="url(#clipPath2)"/>
      <path d="M444.0107 444.625 L427.5107 436.375 L427.5107 452.875 Z" stroke-width="4" clip-path="url(#clipPath2)" stroke="none"/>
      <path fill="none" stroke-dasharray="18,6" d="M531.5178 480.252 L487.6011 515.2957" stroke-width="3" clip-path="url(#clipPath2)"/>
      <path fill="none" stroke-dasharray="18,6" d="M622.6011 480.6706 L667.0383 515.5953" stroke-width="3" clip-path="url(#clipPath2)"/>
    </g>
    <g stroke-linecap="butt" transform="matrix(1,0,0,1,-249,-394)" fill-opacity="0.498" fill="rgb(0,128,0)" text-rendering="geometricPrecision" shape-rendering="geometricPrecision" stroke="rgb(0,128,0)" stroke-width="4" stroke-opacity="0.498" stroke-miterlimit="1.45">
      <path fill="none" d="M578.115 586.875 L577.4514 617.7086" clip-path="url(#clipPath2)"/>
      <path d="M577.126 632.8301 L585.7291 616.5114 L569.2329 616.1564 Z" clip-path="url(#clipPath2)" stroke="none"/>
    </g>
    <g text-rendering="geometricPrecision" stroke-miterlimit="1.45" stroke-width="4" shape-rendering="geometricPrecision" transform="matrix(1,0,0,1,-249,-394)" stroke-linecap="butt">
      <path fill="none" d="M557.125 675 L577.125 675 L577.125 684.875" clip-path="url(#clipPath2)"/>
      <path d="M577.125 700 L585.375 683.5 L568.875 683.5 Z" clip-path="url(#clipPath2)" stroke="none"/>
    </g>
  </g>
</svg>
