<?xml version="1.0" encoding="UTF-8"?><svg xmlns="http://www.w3.org/2000/svg" xmlns:xlink="http://www.w3.org/1999/xlink" fill-opacity="1" color-rendering="auto" color-interpolation="auto" text-rendering="auto" stroke="black" stroke-linecap="square" width="683" stroke-miterlimit="10" shape-rendering="auto" stroke-opacity="1" fill="black" stroke-dasharray="none" font-weight="normal" stroke-width="1" height="198" font-family="'Dialog'" font-style="normal" stroke-linejoin="miter" font-size="12px" stroke-dashoffset="0" image-rendering="auto">
  <!--Generated by ySVG 2.5-->
  <defs id="genericDefs"/>
  <g>
    <defs id="defs1">
      <clipPath clipPathUnits="userSpaceOnUse" id="clipPath1">
        <path d="M0 0 L683 0 L683 198 L0 198 L0 0 Z"/>
      </clipPath>
      <clipPath clipPathUnits="userSpaceOnUse" id="clipPath2">
        <path d="M362 543 L1045 543 L1045 741 L362 741 L362 543 Z"/>
      </clipPath>
    </defs>
    <g fill="white" text-rendering="geometricPrecision" shape-rendering="geometricPrecision" transform="translate(-362,-543)" stroke="white">
      <rect x="362" width="683" height="198" y="543" clip-path="url(#clipPath2)" stroke="none"/>
    </g>
    <g transform="matrix(1,0,0,1,-362,-543)" fill-opacity="0.498" fill="rgb(255,102,0)" text-rendering="geometricPrecision" shape-rendering="geometricPrecision" stroke="rgb(255,102,0)" stroke-opacity="0.498">
      <rect x="557.167" width="50" height="50" y="558.4" clip-path="url(#clipPath2)" stroke="none"/>
    </g>
    <g text-rendering="geometricPrecision" stroke-miterlimit="1.45" shape-rendering="geometricPrecision" transform="matrix(1,0,0,1,-362,-543)" stroke-linecap="butt">
      <rect fill="none" x="557.167" width="50" height="50" y="558.4" clip-path="url(#clipPath2)"/>
      <text x="571.0439" font-size="20px" y="591.2565" clip-path="url(#clipPath2)" font-family="sans-serif" stroke="none" xml:space="preserve">33</text>
    </g>
    <g transform="matrix(1,0,0,1,-362,-543)" fill-opacity="0.498" fill="rgb(255,102,0)" text-rendering="geometricPrecision" shape-rendering="geometricPrecision" stroke="rgb(255,102,0)" stroke-opacity="0.498">
      <rect x="607.167" width="25" height="50" y="558.4" clip-path="url(#clipPath2)" stroke="none"/>
    </g>
    <g text-rendering="geometricPrecision" stroke-miterlimit="1.45" shape-rendering="geometricPrecision" transform="matrix(1,0,0,1,-362,-543)" stroke-linecap="butt">
      <rect fill="none" x="607.167" width="25" height="50" y="558.4" clip-path="url(#clipPath2)"/>
    </g>
    <g transform="matrix(1,0,0,1,-362,-543)" fill-opacity="0.498" fill="rgb(0,128,0)" text-rendering="geometricPrecision" shape-rendering="geometricPrecision" stroke="rgb(0,128,0)" stroke-opacity="0.498">
      <rect x="654.667" width="50" height="50" y="558.4" clip-path="url(#clipPath2)" stroke="none"/>
    </g>
    <g text-rendering="geometricPrecision" stroke-miterlimit="1.45" shape-rendering="geometricPrecision" transform="matrix(1,0,0,1,-362,-543)" stroke-linecap="butt">
      <rect fill="none" x="654.667" width="50" height="50" y="558.4" clip-path="url(#clipPath2)"/>
      <text x="668.5439" font-size="20px" y="591.2565" clip-path="url(#clipPath2)" font-family="sans-serif" stroke="none" xml:space="preserve">76</text>
    </g>
    <g transform="matrix(1,0,0,1,-362,-543)" fill-opacity="0.498" fill="rgb(0,128,0)" text-rendering="geometricPrecision" shape-rendering="geometricPrecision" stroke="rgb(0,128,0)" stroke-opacity="0.498">
      <rect x="704.667" width="25" height="50" y="558.4" clip-path="url(#clipPath2)" stroke="none"/>
    </g>
    <g text-rendering="geometricPrecision" stroke-miterlimit="1.45" shape-rendering="geometricPrecision" transform="matrix(1,0,0,1,-362,-543)" stroke-linecap="butt">
      <rect fill="none" x="704.667" width="25" height="50" y="558.4" clip-path="url(#clipPath2)"/>
    </g>
    <g transform="matrix(1,0,0,1,-362,-543)" fill-opacity="0.498" fill="rgb(0,0,255)" text-rendering="geometricPrecision" shape-rendering="geometricPrecision" stroke="rgb(0,0,255)" stroke-opacity="0.498">
      <rect x="752.167" width="50" height="50" y="558.4" clip-path="url(#clipPath2)" stroke="none"/>
    </g>
    <g text-rendering="geometricPrecision" stroke-miterlimit="1.45" shape-rendering="geometricPrecision" transform="matrix(1,0,0,1,-362,-543)" stroke-linecap="butt">
      <rect fill="none" x="752.167" width="50" height="50" y="558.4" clip-path="url(#clipPath2)"/>
      <text x="766.0439" font-size="20px" y="591.2565" clip-path="url(#clipPath2)" font-family="sans-serif" stroke="none" xml:space="preserve">23</text>
    </g>
    <g transform="matrix(1,0,0,1,-362,-543)" fill-opacity="0.498" fill="rgb(0,0,255)" text-rendering="geometricPrecision" shape-rendering="geometricPrecision" stroke="rgb(0,0,255)" stroke-opacity="0.498">
      <rect x="802.167" width="25" height="50" y="558.4" clip-path="url(#clipPath2)" stroke="none"/>
    </g>
    <g text-rendering="geometricPrecision" stroke-miterlimit="1.45" shape-rendering="geometricPrecision" transform="matrix(1,0,0,1,-362,-543)" stroke-linecap="butt">
      <rect fill="none" x="802.167" width="25" height="50" y="558.4" clip-path="url(#clipPath2)"/>
    </g>
    <g transform="matrix(1,0,0,1,-362,-543)" fill-opacity="0.498" fill="rgb(181,35,196)" text-rendering="geometricPrecision" shape-rendering="geometricPrecision" stroke="rgb(181,35,196)" stroke-opacity="0.498">
      <rect x="849.667" width="50" height="50" y="558.4" clip-path="url(#clipPath2)" stroke="none"/>
    </g>
    <g text-rendering="geometricPrecision" stroke-miterlimit="1.45" shape-rendering="geometricPrecision" transform="matrix(1,0,0,1,-362,-543)" stroke-linecap="butt">
      <rect fill="none" x="849.667" width="50" height="50" y="558.4" clip-path="url(#clipPath2)"/>
      <text x="863.5439" font-size="20px" y="591.2565" clip-path="url(#clipPath2)" font-family="sans-serif" stroke="none" xml:space="preserve">55</text>
    </g>
    <g transform="matrix(1,0,0,1,-362,-543)" fill-opacity="0.498" fill="rgb(181,35,196)" text-rendering="geometricPrecision" shape-rendering="geometricPrecision" stroke="rgb(181,35,196)" stroke-opacity="0.498">
      <rect x="899.667" width="25" height="50" y="558.4" clip-path="url(#clipPath2)" stroke="none"/>
    </g>
    <g text-rendering="geometricPrecision" stroke-miterlimit="1.45" shape-rendering="geometricPrecision" transform="matrix(1,0,0,1,-362,-543)" stroke-linecap="butt">
      <rect fill="none" x="899.667" width="25" height="50" y="558.4" clip-path="url(#clipPath2)"/>
      <circle fill="none" r="10" clip-path="url(#clipPath2)" cx="937.167" cy="618.4"/>
      <text x="932.9995" font-size="10px" y="622.3282" clip-path="url(#clipPath2)" font-family="sans-serif" stroke="none" xml:space="preserve">///</text>
    </g>
    <g transform="matrix(1,0,0,1,-362,-543)" fill-opacity="0.498" fill="rgb(255,0,0)" text-rendering="geometricPrecision" shape-rendering="geometricPrecision" stroke="rgb(255,0,0)" stroke-opacity="0.498">
      <rect x="377.607" width="58.16" height="30" y="568.4" clip-path="url(#clipPath2)" stroke="none"/>
    </g>
    <g text-rendering="geometricPrecision" stroke-miterlimit="1.45" shape-rendering="geometricPrecision" transform="matrix(1,0,0,1,-362,-543)" stroke-linecap="butt">
      <rect fill="none" x="377.607" width="58.16" height="30" y="568.4" clip-path="url(#clipPath2)"/>
      <text x="381.6724" font-size="20px" y="591.2565" clip-path="url(#clipPath2)" font-family="sans-serif" stroke="none" xml:space="preserve">Lnum</text>
    </g>
    <g transform="matrix(1,0,0,1,-362,-543)" fill-opacity="0.498" fill="rgb(255,0,0)" text-rendering="geometricPrecision" shape-rendering="geometricPrecision" stroke="rgb(255,0,0)" stroke-opacity="0.498">
      <rect x="459.667" width="50" height="50" y="558.4" clip-path="url(#clipPath2)" stroke="none"/>
    </g>
    <g text-rendering="geometricPrecision" stroke-miterlimit="1.45" shape-rendering="geometricPrecision" transform="matrix(1,0,0,1,-362,-543)" stroke-linecap="butt">
      <rect fill="none" x="459.667" width="50" height="50" y="558.4" clip-path="url(#clipPath2)"/>
      <text x="473.5439" font-size="20px" y="591.2565" clip-path="url(#clipPath2)" font-family="sans-serif" stroke="none" xml:space="preserve">16</text>
    </g>
    <g transform="matrix(1,0,0,1,-362,-543)" fill-opacity="0.498" fill="rgb(255,0,0)" text-rendering="geometricPrecision" shape-rendering="geometricPrecision" stroke="rgb(255,0,0)" stroke-opacity="0.498">
      <rect x="509.667" width="25" height="50" y="558.4" clip-path="url(#clipPath2)" stroke="none"/>
    </g>
    <g text-rendering="geometricPrecision" stroke-miterlimit="1.45" shape-rendering="geometricPrecision" transform="matrix(1,0,0,1,-362,-543)" stroke-linecap="butt">
      <rect fill="none" x="509.667" width="25" height="50" y="558.4" clip-path="url(#clipPath2)"/>
    </g>
    <g fill="rgb(204,255,204)" text-rendering="geometricPrecision" shape-rendering="geometricPrecision" transform="matrix(1,0,0,1,-362,-543)" stroke="rgb(204,255,204)">
      <rect x="844.697" width="184.94" height="71.25" y="654.4" clip-path="url(#clipPath2)" stroke="none"/>
    </g>
    <g text-rendering="geometricPrecision" stroke-miterlimit="1.45" shape-rendering="geometricPrecision" transform="matrix(1,0,0,1,-362,-543)" stroke-linecap="butt">
      <rect fill="none" x="844.697" width="184.94" height="71.25" y="654.4" clip-path="url(#clipPath2)"/>
      <text x="875.1943" font-size="20px" y="697.8815" clip-path="url(#clipPath2)" font-family="sans-serif" stroke="none" xml:space="preserve">Reductor: x+y</text>
      <rect x="890.292" y="573.2" clip-path="url(#clipPath2)" fill="none" width="93.75" stroke-dasharray="18,6" height="71.25" stroke-width="3"/>
    </g>
    <g fill="rgb(204,255,204)" text-rendering="geometricPrecision" shape-rendering="geometricPrecision" transform="matrix(1,0,0,1,-362,-543)" stroke="rgb(204,255,204)">
      <rect x="716.3371" width="93.75" height="38" y="671.025" clip-path="url(#clipPath2)" stroke="none"/>
    </g>
    <g text-rendering="geometricPrecision" stroke-miterlimit="1.45" shape-rendering="geometricPrecision" transform="matrix(1,0,0,1,-362,-543)" stroke-linecap="butt">
      <rect fill="none" x="716.3371" width="93.75" height="38" y="671.025" clip-path="url(#clipPath2)"/>
      <text x="746.5275" font-size="20px" y="697.8815" clip-path="url(#clipPath2)" font-family="sans-serif" stroke="none" xml:space="preserve">203</text>
      <path fill="none" d="M624.667 583.4 L639.542 583.4" stroke-width="4" clip-path="url(#clipPath2)"/>
      <path d="M654.667 583.4 L638.167 575.15 L638.167 591.65 Z" stroke-width="4" clip-path="url(#clipPath2)" stroke="none"/>
      <path fill="none" d="M722.167 583.4 L737.042 583.4" stroke-width="4" clip-path="url(#clipPath2)"/>
      <path d="M752.167 583.4 L735.667 575.15 L735.667 591.65 Z" stroke-width="4" clip-path="url(#clipPath2)" stroke="none"/>
      <path fill="none" d="M819.667 583.4 L834.542 583.4" stroke-width="4" clip-path="url(#clipPath2)"/>
      <path d="M849.667 583.4 L833.167 575.15 L833.167 591.65 Z" stroke-width="4" clip-path="url(#clipPath2)" stroke="none"/>
      <path fill="none" d="M917.167 583.4 L937.167 583.4 L937.167 593.275" stroke-width="4" clip-path="url(#clipPath2)"/>
      <path d="M937.167 608.4 L945.417 591.9 L928.917 591.9 Z" stroke-width="4" clip-path="url(#clipPath2)" stroke="none"/>
      <path fill="none" d="M435.767 583.4 L444.4953 583.4" stroke-width="4" clip-path="url(#clipPath2)"/>
      <path d="M459.6203 583.4 L443.1203 575.15 L443.1203 591.65 Z" stroke-width="4" clip-path="url(#clipPath2)" stroke="none"/>
      <path fill="none" d="M527.167 583.4 L542.0127 583.4" stroke-width="4" clip-path="url(#clipPath2)"/>
      <path d="M557.1377 583.4 L540.6377 575.15 L540.6377 591.65 Z" stroke-width="4" clip-path="url(#clipPath2)" stroke="none"/>
      <path fill="none" stroke-dasharray="18,6" d="M890.5698 644.452 L846.6531 654.0706" stroke-width="3" clip-path="url(#clipPath2)"/>
      <path fill="none" stroke-dasharray="18,6" d="M981.6531 644.8706 L1026.0903 654.3703" stroke-width="3" clip-path="url(#clipPath2)"/>
      <path fill="none" d="M825.2121 690.025 L844.697 690.025" stroke-width="4" clip-path="url(#clipPath2)"/>
      <path d="M810.0871 690.025 L826.5871 698.275 L826.5871 681.775 Z" stroke-width="4" clip-path="url(#clipPath2)" stroke="none"/>
    </g>
  </g>
</svg>
