<?xml version="1.0" encoding="UTF-8"?><svg xmlns="http://www.w3.org/2000/svg" xmlns:xlink="http://www.w3.org/1999/xlink" fill-opacity="1" color-rendering="auto" color-interpolation="auto" text-rendering="auto" stroke="black" stroke-linecap="square" width="633" stroke-miterlimit="10" shape-rendering="auto" stroke-opacity="1" fill="black" stroke-dasharray="none" font-weight="normal" stroke-width="1" height="322" font-family="'Dialog'" font-style="normal" stroke-linejoin="miter" font-size="12px" stroke-dashoffset="0" image-rendering="auto">
  <!--Generated by ySVG 2.5-->
  <defs id="genericDefs"/>
  <g>
    <defs id="defs1">
      <clipPath clipPathUnits="userSpaceOnUse" id="clipPath1">
        <path d="M0 0 L633 0 L633 322 L0 322 L0 0 Z"/>
      </clipPath>
      <clipPath clipPathUnits="userSpaceOnUse" id="clipPath2">
        <path d="M337 474 L970 474 L970 796 L337 796 L337 474 Z"/>
      </clipPath>
    </defs>
    <g transform="matrix(1,0,0,1,-337,-474)" fill-opacity="0.498" fill="rgb(255,102,0)" text-rendering="geometricPrecision" shape-rendering="geometricPrecision" stroke="rgb(255,102,0)" stroke-opacity="0.498">
      <rect x="531.8635" width="50" height="50" y="528.8" clip-path="url(#clipPath2)" stroke="none"/>
    </g>
    <g text-rendering="geometricPrecision" stroke-miterlimit="1.45" shape-rendering="geometricPrecision" transform="matrix(1,0,0,1,-337,-474)" stroke-linecap="butt">
      <rect fill="none" x="531.8635" width="50" height="50" y="528.8" clip-path="url(#clipPath2)"/>
      <text x="545.7405" font-size="20px" y="561.6564" clip-path="url(#clipPath2)" font-family="sans-serif" stroke="none" xml:space="preserve">33</text>
    </g>
    <g transform="matrix(1,0,0,1,-337,-474)" fill-opacity="0.498" fill="rgb(255,102,0)" text-rendering="geometricPrecision" shape-rendering="geometricPrecision" stroke="rgb(255,102,0)" stroke-opacity="0.498">
      <rect x="581.8635" width="25" height="50" y="528.8" clip-path="url(#clipPath2)" stroke="none"/>
    </g>
    <g text-rendering="geometricPrecision" stroke-miterlimit="1.45" shape-rendering="geometricPrecision" transform="matrix(1,0,0,1,-337,-474)" stroke-linecap="butt">
      <rect fill="none" x="581.8635" width="25" height="50" y="528.8" clip-path="url(#clipPath2)"/>
    </g>
    <g transform="matrix(1,0,0,1,-337,-474)" fill-opacity="0.498" fill="rgb(0,128,0)" text-rendering="geometricPrecision" shape-rendering="geometricPrecision" stroke="rgb(0,128,0)" stroke-opacity="0.498">
      <rect x="629.3635" width="50" height="50" y="528.8" clip-path="url(#clipPath2)" stroke="none"/>
    </g>
    <g text-rendering="geometricPrecision" stroke-miterlimit="1.45" shape-rendering="geometricPrecision" transform="matrix(1,0,0,1,-337,-474)" stroke-linecap="butt">
      <rect fill="none" x="629.3635" width="50" height="50" y="528.8" clip-path="url(#clipPath2)"/>
      <text x="643.2405" font-size="20px" y="561.6564" clip-path="url(#clipPath2)" font-family="sans-serif" stroke="none" xml:space="preserve">76</text>
    </g>
    <g transform="matrix(1,0,0,1,-337,-474)" fill-opacity="0.498" fill="rgb(0,128,0)" text-rendering="geometricPrecision" shape-rendering="geometricPrecision" stroke="rgb(0,128,0)" stroke-opacity="0.498">
      <rect x="679.3635" width="25" height="50" y="528.8" clip-path="url(#clipPath2)" stroke="none"/>
    </g>
    <g text-rendering="geometricPrecision" stroke-miterlimit="1.45" shape-rendering="geometricPrecision" transform="matrix(1,0,0,1,-337,-474)" stroke-linecap="butt">
      <rect fill="none" x="679.3635" width="25" height="50" y="528.8" clip-path="url(#clipPath2)"/>
    </g>
    <g transform="matrix(1,0,0,1,-337,-474)" fill-opacity="0.498" fill="rgb(0,0,255)" text-rendering="geometricPrecision" shape-rendering="geometricPrecision" stroke="rgb(0,0,255)" stroke-opacity="0.498">
      <rect x="726.8635" width="50" height="50" y="528.8" clip-path="url(#clipPath2)" stroke="none"/>
    </g>
    <g text-rendering="geometricPrecision" stroke-miterlimit="1.45" shape-rendering="geometricPrecision" transform="matrix(1,0,0,1,-337,-474)" stroke-linecap="butt">
      <rect fill="none" x="726.8635" width="50" height="50" y="528.8" clip-path="url(#clipPath2)"/>
      <text x="740.7405" font-size="20px" y="561.6564" clip-path="url(#clipPath2)" font-family="sans-serif" stroke="none" xml:space="preserve">23</text>
    </g>
    <g transform="matrix(1,0,0,1,-337,-474)" fill-opacity="0.498" fill="rgb(0,0,255)" text-rendering="geometricPrecision" shape-rendering="geometricPrecision" stroke="rgb(0,0,255)" stroke-opacity="0.498">
      <rect x="776.8635" width="25" height="50" y="528.8" clip-path="url(#clipPath2)" stroke="none"/>
    </g>
    <g text-rendering="geometricPrecision" stroke-miterlimit="1.45" shape-rendering="geometricPrecision" transform="matrix(1,0,0,1,-337,-474)" stroke-linecap="butt">
      <rect fill="none" x="776.8635" width="25" height="50" y="528.8" clip-path="url(#clipPath2)"/>
    </g>
    <g transform="matrix(1,0,0,1,-337,-474)" fill-opacity="0.498" fill="rgb(181,35,196)" text-rendering="geometricPrecision" shape-rendering="geometricPrecision" stroke="rgb(181,35,196)" stroke-opacity="0.498">
      <rect x="824.3635" width="50" height="50" y="528.8" clip-path="url(#clipPath2)" stroke="none"/>
    </g>
    <g text-rendering="geometricPrecision" stroke-miterlimit="1.45" shape-rendering="geometricPrecision" transform="matrix(1,0,0,1,-337,-474)" stroke-linecap="butt">
      <rect fill="none" x="824.3635" width="50" height="50" y="528.8" clip-path="url(#clipPath2)"/>
      <text x="838.2405" font-size="20px" y="561.6564" clip-path="url(#clipPath2)" font-family="sans-serif" stroke="none" xml:space="preserve">55</text>
    </g>
    <g transform="matrix(1,0,0,1,-337,-474)" fill-opacity="0.498" fill="rgb(181,35,196)" text-rendering="geometricPrecision" shape-rendering="geometricPrecision" stroke="rgb(181,35,196)" stroke-opacity="0.498">
      <rect x="874.3635" width="25" height="50" y="528.8" clip-path="url(#clipPath2)" stroke="none"/>
    </g>
    <g text-rendering="geometricPrecision" stroke-miterlimit="1.45" shape-rendering="geometricPrecision" transform="matrix(1,0,0,1,-337,-474)" stroke-linecap="butt">
      <rect fill="none" x="874.3635" width="25" height="50" y="528.8" clip-path="url(#clipPath2)"/>
      <circle fill="none" r="10" clip-path="url(#clipPath2)" cx="911.8635" cy="588.8"/>
      <text x="907.696" font-size="10px" y="592.7282" clip-path="url(#clipPath2)" font-family="sans-serif" stroke="none" xml:space="preserve">///</text>
    </g>
    <g transform="matrix(1,0,0,1,-337,-474)" fill-opacity="0.498" fill="rgb(255,0,0)" text-rendering="geometricPrecision" shape-rendering="geometricPrecision" stroke="rgb(255,0,0)" stroke-opacity="0.498">
      <rect x="352.3035" width="58.16" height="30" y="538.8" clip-path="url(#clipPath2)" stroke="none"/>
    </g>
    <g text-rendering="geometricPrecision" stroke-miterlimit="1.45" shape-rendering="geometricPrecision" transform="matrix(1,0,0,1,-337,-474)" stroke-linecap="butt">
      <rect fill="none" x="352.3035" width="58.16" height="30" y="538.8" clip-path="url(#clipPath2)"/>
      <text x="356.3689" font-size="20px" y="561.6564" clip-path="url(#clipPath2)" font-family="sans-serif" stroke="none" xml:space="preserve">Lnum</text>
    </g>
    <g transform="matrix(1,0,0,1,-337,-474)" fill-opacity="0.498" fill="rgb(255,0,0)" text-rendering="geometricPrecision" shape-rendering="geometricPrecision" stroke="rgb(255,0,0)" stroke-opacity="0.498">
      <rect x="434.3635" width="50" height="50" y="528.8" clip-path="url(#clipPath2)" stroke="none"/>
    </g>
    <g text-rendering="geometricPrecision" stroke-miterlimit="1.45" shape-rendering="geometricPrecision" transform="matrix(1,0,0,1,-337,-474)" stroke-linecap="butt">
      <rect fill="none" x="434.3635" width="50" height="50" y="528.8" clip-path="url(#clipPath2)"/>
      <text x="448.2404" font-size="20px" y="561.6564" clip-path="url(#clipPath2)" font-family="sans-serif" stroke="none" xml:space="preserve">16</text>
    </g>
    <g transform="matrix(1,0,0,1,-337,-474)" fill-opacity="0.498" fill="rgb(255,0,0)" text-rendering="geometricPrecision" shape-rendering="geometricPrecision" stroke="rgb(255,0,0)" stroke-opacity="0.498">
      <rect x="484.3635" width="25" height="50" y="528.8" clip-path="url(#clipPath2)" stroke="none"/>
    </g>
    <g text-rendering="geometricPrecision" stroke-miterlimit="1.45" shape-rendering="geometricPrecision" transform="matrix(1,0,0,1,-337,-474)" stroke-linecap="butt">
      <rect fill="none" x="484.3635" width="25" height="50" y="528.8" clip-path="url(#clipPath2)"/>
    </g>
    <g fill="rgb(255,204,0)" text-rendering="geometricPrecision" shape-rendering="geometricPrecision" transform="matrix(1,0,0,1,-337,-474)" stroke="rgb(255,204,0)">
      <rect x="769.7085" width="184.94" height="71.25" y="624.8" clip-path="url(#clipPath2)" stroke="none"/>
    </g>
    <g text-rendering="geometricPrecision" stroke-miterlimit="1.45" shape-rendering="geometricPrecision" transform="matrix(1,0,0,1,-337,-474)" stroke-linecap="butt">
      <rect fill="none" x="769.7085" width="184.94" height="71.25" y="624.8" clip-path="url(#clipPath2)"/>
      <text x="800.2059" font-size="20px" y="668.2814" clip-path="url(#clipPath2)" font-family="sans-serif" stroke="none" xml:space="preserve">Reductor: x+y</text>
      <rect x="815.3035" y="518.175" clip-path="url(#clipPath2)" fill="none" width="93.75" stroke-dasharray="18,6" height="71.25" stroke-width="3"/>
    </g>
    <g fill="rgb(255,255,153)" text-rendering="geometricPrecision" shape-rendering="geometricPrecision" transform="matrix(1,0,0,1,-337,-474)" stroke="rgb(255,255,153)">
      <rect x="641.3486" width="93.75" height="38" y="641.425" clip-path="url(#clipPath2)" stroke="none"/>
    </g>
    <g text-rendering="geometricPrecision" stroke-miterlimit="1.45" shape-rendering="geometricPrecision" transform="matrix(1,0,0,1,-337,-474)" stroke-linecap="butt">
      <rect fill="none" x="641.3486" width="93.75" height="38" y="641.425" clip-path="url(#clipPath2)"/>
      <text x="647.3594" font-size="20px" y="668.2814" clip-path="url(#clipPath2)" font-family="sans-serif" stroke="none" xml:space="preserve">init = 148</text>
    </g>
    <g fill="rgb(204,255,204)" text-rendering="geometricPrecision" shape-rendering="geometricPrecision" transform="matrix(1,0,0,1,-337,-474)" stroke="rgb(204,255,204)">
      <rect x="829.8985" width="64.56" height="30" y="750.5568" clip-path="url(#clipPath2)" stroke="none"/>
    </g>
    <g text-rendering="geometricPrecision" stroke-miterlimit="1.45" shape-rendering="geometricPrecision" transform="matrix(1,0,0,1,-337,-474)" stroke-linecap="butt">
      <rect fill="none" x="829.8985" width="64.56" height="30" y="750.5568" clip-path="url(#clipPath2)"/>
      <text x="845.494" font-size="20px" y="773.4132" clip-path="url(#clipPath2)" font-family="sans-serif" stroke="none" xml:space="preserve">203</text>
      <text x="749.6136" font-size="20px" y="647.9732" clip-path="url(#clipPath2)" font-family="sans-serif" stroke="none" xml:space="preserve">x</text>
      <text x="857.1785" font-size="20px" y="511.4565" clip-path="url(#clipPath2)" font-family="sans-serif" stroke="none" xml:space="preserve">y</text>
      <path fill="none" d="M599.3635 553.8 L614.2385 553.8" stroke-width="4" clip-path="url(#clipPath2)"/>
      <path d="M629.3635 553.8 L612.8635 545.55 L612.8635 562.05 Z" stroke-width="4" clip-path="url(#clipPath2)" stroke="none"/>
      <path fill="none" d="M696.8635 553.8 L711.7385 553.8" stroke-width="4" clip-path="url(#clipPath2)"/>
      <path d="M726.8635 553.8 L710.3635 545.55 L710.3635 562.05 Z" stroke-width="4" clip-path="url(#clipPath2)" stroke="none"/>
      <path fill="none" d="M794.3635 553.8 L809.2385 553.8" stroke-width="4" clip-path="url(#clipPath2)"/>
      <path d="M824.3635 553.8 L807.8635 545.55 L807.8635 562.05 Z" stroke-width="4" clip-path="url(#clipPath2)" stroke="none"/>
      <path fill="none" d="M891.8635 553.8 L911.8635 553.8 L911.8635 563.675" stroke-width="4" clip-path="url(#clipPath2)"/>
      <path d="M911.8635 578.8 L920.1135 562.3 L903.6135 562.3 Z" stroke-width="4" clip-path="url(#clipPath2)" stroke="none"/>
      <path fill="none" d="M410.4635 553.8 L419.1918 553.8" stroke-width="4" clip-path="url(#clipPath2)"/>
      <path d="M434.3168 553.8 L417.8168 545.55 L417.8168 562.05 Z" stroke-width="4" clip-path="url(#clipPath2)" stroke="none"/>
      <path fill="none" d="M501.8635 553.8 L516.7092 553.8" stroke-width="4" clip-path="url(#clipPath2)"/>
      <path d="M531.8342 553.8 L515.3342 545.55 L515.3342 562.05 Z" stroke-width="4" clip-path="url(#clipPath2)" stroke="none"/>
      <path fill="none" stroke-dasharray="18,6" d="M815.5812 589.4271 L771.6646 624.4706" stroke-width="3" clip-path="url(#clipPath2)"/>
      <path fill="none" stroke-dasharray="18,6" d="M906.6646 589.8456 L951.1019 624.7703" stroke-width="3" clip-path="url(#clipPath2)"/>
      <path fill="none" d="M735.0986 660.425 L754.5835 660.425" stroke-width="4" clip-path="url(#clipPath2)"/>
      <path d="M769.7085 660.425 L753.2085 652.175 L753.2085 668.675 Z" stroke-width="4" clip-path="url(#clipPath2)" stroke="none"/>
      <path fill="none" d="M862.1785 696.05 L862.1785 736.8068" stroke-width="3" clip-path="url(#clipPath2)"/>
      <path d="M862.1785 750.5568 L869.6785 735.5568 L854.6785 735.5568 Z" stroke-width="3" clip-path="url(#clipPath2)" stroke="none"/>
      <path fill="none" stroke-dasharray="12,4" d="M829.9169 771.3046 L828.9354 771.4416 L813.5458 772.3455 L798.9776 771.8903 L785.2307 770.0762 L772.3052 766.903 L760.201 762.3708 L748.9181 756.4796 L738.4566 749.2293 L728.8164 740.6201 L719.9976 730.6517 L712.0001 719.3245 L704.824 706.6381 L698.4692 692.5928 L696.7889 687.915" stroke-width="2" clip-path="url(#clipPath2)"/>
      <path stroke-dasharray="12,4" d="M693.7463 679.4449 L693.0164 694.0516 L697.1692 688.9738 L703.604 690.2484 Z" stroke-width="2" clip-path="url(#clipPath2)" stroke="none"/>
    </g>
  </g>
</svg>
