<?xml version="1.0" encoding="UTF-8"?><svg xmlns="http://www.w3.org/2000/svg" xmlns:xlink="http://www.w3.org/1999/xlink" fill-opacity="1" color-rendering="auto" color-interpolation="auto" text-rendering="auto" stroke="black" stroke-linecap="square" width="601" stroke-miterlimit="10" shape-rendering="auto" stroke-opacity="1" fill="black" stroke-dasharray="none" font-weight="normal" stroke-width="1" height="322" font-family="'Dialog'" font-style="normal" stroke-linejoin="miter" font-size="12px" stroke-dashoffset="0" image-rendering="auto">
  <!--Generated by ySVG 2.5-->
  <defs id="genericDefs"/>
  <g>
    <defs id="defs1">
      <clipPath clipPathUnits="userSpaceOnUse" id="clipPath1">
        <path d="M0 0 L601 0 L601 322 L0 322 L0 0 Z"/>
      </clipPath>
      <clipPath clipPathUnits="userSpaceOnUse" id="clipPath2">
        <path d="M311 444 L912 444 L912 766 L311 766 L311 444 Z"/>
      </clipPath>
    </defs>
    <g transform="matrix(1,0,0,1,-311,-444)" fill-opacity="0.498" fill="rgb(255,102,0)" text-rendering="geometricPrecision" shape-rendering="geometricPrecision" stroke="rgb(255,102,0)" stroke-opacity="0.498">
      <rect x="506.2117" width="50" height="50" y="499" clip-path="url(#clipPath2)" stroke="none"/>
    </g>
    <g text-rendering="geometricPrecision" stroke-miterlimit="1.45" shape-rendering="geometricPrecision" transform="matrix(1,0,0,1,-311,-444)" stroke-linecap="butt">
      <rect fill="none" x="506.2117" width="50" height="50" y="499" clip-path="url(#clipPath2)"/>
      <text x="520.0887" font-size="20px" y="531.8564" clip-path="url(#clipPath2)" font-family="sans-serif" stroke="none" xml:space="preserve">33</text>
    </g>
    <g transform="matrix(1,0,0,1,-311,-444)" fill-opacity="0.498" fill="rgb(255,102,0)" text-rendering="geometricPrecision" shape-rendering="geometricPrecision" stroke="rgb(255,102,0)" stroke-opacity="0.498">
      <rect x="556.2117" width="25" height="50" y="499" clip-path="url(#clipPath2)" stroke="none"/>
    </g>
    <g text-rendering="geometricPrecision" stroke-miterlimit="1.45" shape-rendering="geometricPrecision" transform="matrix(1,0,0,1,-311,-444)" stroke-linecap="butt">
      <rect fill="none" x="556.2117" width="25" height="50" y="499" clip-path="url(#clipPath2)"/>
    </g>
    <g transform="matrix(1,0,0,1,-311,-444)" fill-opacity="0.498" fill="rgb(0,128,0)" text-rendering="geometricPrecision" shape-rendering="geometricPrecision" stroke="rgb(0,128,0)" stroke-opacity="0.498">
      <rect x="603.7117" width="50" height="50" y="499" clip-path="url(#clipPath2)" stroke="none"/>
    </g>
    <g text-rendering="geometricPrecision" stroke-miterlimit="1.45" shape-rendering="geometricPrecision" transform="matrix(1,0,0,1,-311,-444)" stroke-linecap="butt">
      <rect fill="none" x="603.7117" width="50" height="50" y="499" clip-path="url(#clipPath2)"/>
      <text x="617.5887" font-size="20px" y="531.8564" clip-path="url(#clipPath2)" font-family="sans-serif" stroke="none" xml:space="preserve">76</text>
    </g>
    <g transform="matrix(1,0,0,1,-311,-444)" fill-opacity="0.498" fill="rgb(0,128,0)" text-rendering="geometricPrecision" shape-rendering="geometricPrecision" stroke="rgb(0,128,0)" stroke-opacity="0.498">
      <rect x="653.7117" width="25" height="50" y="499" clip-path="url(#clipPath2)" stroke="none"/>
    </g>
    <g text-rendering="geometricPrecision" stroke-miterlimit="1.45" shape-rendering="geometricPrecision" transform="matrix(1,0,0,1,-311,-444)" stroke-linecap="butt">
      <rect fill="none" x="653.7117" width="25" height="50" y="499" clip-path="url(#clipPath2)"/>
    </g>
    <g transform="matrix(1,0,0,1,-311,-444)" fill-opacity="0.498" fill="rgb(0,0,255)" text-rendering="geometricPrecision" shape-rendering="geometricPrecision" stroke="rgb(0,0,255)" stroke-opacity="0.498">
      <rect x="701.2117" width="50" height="50" y="499" clip-path="url(#clipPath2)" stroke="none"/>
    </g>
    <g text-rendering="geometricPrecision" stroke-miterlimit="1.45" shape-rendering="geometricPrecision" transform="matrix(1,0,0,1,-311,-444)" stroke-linecap="butt">
      <rect fill="none" x="701.2117" width="50" height="50" y="499" clip-path="url(#clipPath2)"/>
      <text x="715.0887" font-size="20px" y="531.8564" clip-path="url(#clipPath2)" font-family="sans-serif" stroke="none" xml:space="preserve">23</text>
    </g>
    <g transform="matrix(1,0,0,1,-311,-444)" fill-opacity="0.498" fill="rgb(0,0,255)" text-rendering="geometricPrecision" shape-rendering="geometricPrecision" stroke="rgb(0,0,255)" stroke-opacity="0.498">
      <rect x="751.2117" width="25" height="50" y="499" clip-path="url(#clipPath2)" stroke="none"/>
    </g>
    <g text-rendering="geometricPrecision" stroke-miterlimit="1.45" shape-rendering="geometricPrecision" transform="matrix(1,0,0,1,-311,-444)" stroke-linecap="butt">
      <rect fill="none" x="751.2117" width="25" height="50" y="499" clip-path="url(#clipPath2)"/>
    </g>
    <g transform="matrix(1,0,0,1,-311,-444)" fill-opacity="0.498" fill="rgb(181,35,196)" text-rendering="geometricPrecision" shape-rendering="geometricPrecision" stroke="rgb(181,35,196)" stroke-opacity="0.498">
      <rect x="798.7117" width="50" height="50" y="499" clip-path="url(#clipPath2)" stroke="none"/>
    </g>
    <g text-rendering="geometricPrecision" stroke-miterlimit="1.45" shape-rendering="geometricPrecision" transform="matrix(1,0,0,1,-311,-444)" stroke-linecap="butt">
      <rect fill="none" x="798.7117" width="50" height="50" y="499" clip-path="url(#clipPath2)"/>
      <text x="812.5887" font-size="20px" y="531.8564" clip-path="url(#clipPath2)" font-family="sans-serif" stroke="none" xml:space="preserve">55</text>
    </g>
    <g transform="matrix(1,0,0,1,-311,-444)" fill-opacity="0.498" fill="rgb(181,35,196)" text-rendering="geometricPrecision" shape-rendering="geometricPrecision" stroke="rgb(181,35,196)" stroke-opacity="0.498">
      <rect x="848.7117" width="25" height="50" y="499" clip-path="url(#clipPath2)" stroke="none"/>
    </g>
    <g text-rendering="geometricPrecision" stroke-miterlimit="1.45" shape-rendering="geometricPrecision" transform="matrix(1,0,0,1,-311,-444)" stroke-linecap="butt">
      <rect fill="none" x="848.7117" width="25" height="50" y="499" clip-path="url(#clipPath2)"/>
      <circle fill="none" r="10" clip-path="url(#clipPath2)" cx="886.2117" cy="559"/>
      <text x="882.0443" font-size="10px" y="562.9282" clip-path="url(#clipPath2)" font-family="sans-serif" stroke="none" xml:space="preserve">///</text>
    </g>
    <g transform="matrix(1,0,0,1,-311,-444)" fill-opacity="0.498" fill="rgb(255,0,0)" text-rendering="geometricPrecision" shape-rendering="geometricPrecision" stroke="rgb(255,0,0)" stroke-opacity="0.498">
      <rect x="326.6517" width="58.16" height="30" y="509" clip-path="url(#clipPath2)" stroke="none"/>
    </g>
    <g text-rendering="geometricPrecision" stroke-miterlimit="1.45" shape-rendering="geometricPrecision" transform="matrix(1,0,0,1,-311,-444)" stroke-linecap="butt">
      <rect fill="none" x="326.6517" width="58.16" height="30" y="509" clip-path="url(#clipPath2)"/>
      <text x="330.7171" font-size="20px" y="531.8564" clip-path="url(#clipPath2)" font-family="sans-serif" stroke="none" xml:space="preserve">Lnum</text>
    </g>
    <g transform="matrix(1,0,0,1,-311,-444)" fill-opacity="0.498" fill="rgb(255,0,0)" text-rendering="geometricPrecision" shape-rendering="geometricPrecision" stroke="rgb(255,0,0)" stroke-opacity="0.498">
      <rect x="408.7117" width="50" height="50" y="499" clip-path="url(#clipPath2)" stroke="none"/>
    </g>
    <g text-rendering="geometricPrecision" stroke-miterlimit="1.45" shape-rendering="geometricPrecision" transform="matrix(1,0,0,1,-311,-444)" stroke-linecap="butt">
      <rect fill="none" x="408.7117" width="50" height="50" y="499" clip-path="url(#clipPath2)"/>
      <text x="422.5887" font-size="20px" y="531.8564" clip-path="url(#clipPath2)" font-family="sans-serif" stroke="none" xml:space="preserve">16</text>
    </g>
    <g transform="matrix(1,0,0,1,-311,-444)" fill-opacity="0.498" fill="rgb(255,0,0)" text-rendering="geometricPrecision" shape-rendering="geometricPrecision" stroke="rgb(255,0,0)" stroke-opacity="0.498">
      <rect x="458.7117" width="25" height="50" y="499" clip-path="url(#clipPath2)" stroke="none"/>
    </g>
    <g text-rendering="geometricPrecision" stroke-miterlimit="1.45" shape-rendering="geometricPrecision" transform="matrix(1,0,0,1,-311,-444)" stroke-linecap="butt">
      <rect fill="none" x="458.7117" width="25" height="50" y="499" clip-path="url(#clipPath2)"/>
    </g>
    <g fill="rgb(255,204,0)" text-rendering="geometricPrecision" shape-rendering="geometricPrecision" transform="matrix(1,0,0,1,-311,-444)" stroke="rgb(255,204,0)">
      <rect x="646.4567" width="184.94" height="71.25" y="595" clip-path="url(#clipPath2)" stroke="none"/>
    </g>
    <g text-rendering="geometricPrecision" stroke-miterlimit="1.45" shape-rendering="geometricPrecision" transform="matrix(1,0,0,1,-311,-444)" stroke-linecap="butt">
      <rect fill="none" x="646.4567" width="184.94" height="71.25" y="595" clip-path="url(#clipPath2)"/>
      <text x="676.9541" font-size="20px" y="638.4814" clip-path="url(#clipPath2)" font-family="sans-serif" stroke="none" xml:space="preserve">Reductor: x+y</text>
      <rect x="692.0517" y="488.375" clip-path="url(#clipPath2)" fill="none" width="93.75" stroke-dasharray="18,6" height="71.25" stroke-width="3"/>
    </g>
    <g fill="rgb(255,255,153)" text-rendering="geometricPrecision" shape-rendering="geometricPrecision" transform="matrix(1,0,0,1,-311,-444)" stroke="rgb(255,255,153)">
      <rect x="518.0969" width="93.75" height="38" y="611.625" clip-path="url(#clipPath2)" stroke="none"/>
    </g>
    <g text-rendering="geometricPrecision" stroke-miterlimit="1.45" shape-rendering="geometricPrecision" transform="matrix(1,0,0,1,-311,-444)" stroke-linecap="butt">
      <rect fill="none" x="518.0969" width="93.75" height="38" y="611.625" clip-path="url(#clipPath2)"/>
      <text x="524.1076" font-size="20px" y="638.4814" clip-path="url(#clipPath2)" font-family="sans-serif" stroke="none" xml:space="preserve">init = 125</text>
    </g>
    <g fill="rgb(204,255,204)" text-rendering="geometricPrecision" shape-rendering="geometricPrecision" transform="matrix(1,0,0,1,-311,-444)" stroke="rgb(204,255,204)">
      <rect x="706.6467" width="64.56" height="30" y="720.7568" clip-path="url(#clipPath2)" stroke="none"/>
    </g>
    <g text-rendering="geometricPrecision" stroke-miterlimit="1.45" shape-rendering="geometricPrecision" transform="matrix(1,0,0,1,-311,-444)" stroke-linecap="butt">
      <rect fill="none" x="706.6467" width="64.56" height="30" y="720.7568" clip-path="url(#clipPath2)"/>
      <text x="722.2422" font-size="20px" y="743.6132" clip-path="url(#clipPath2)" font-family="sans-serif" stroke="none" xml:space="preserve">148</text>
      <text x="626.3618" font-size="20px" y="618.1732" clip-path="url(#clipPath2)" font-family="sans-serif" stroke="none" xml:space="preserve">x</text>
      <text x="733.9268" font-size="20px" y="481.6564" clip-path="url(#clipPath2)" font-family="sans-serif" stroke="none" xml:space="preserve">y</text>
      <path fill="none" d="M573.7117 524 L588.5867 524" stroke-width="4" clip-path="url(#clipPath2)"/>
      <path d="M603.7117 524 L587.2117 515.75 L587.2117 532.25 Z" stroke-width="4" clip-path="url(#clipPath2)" stroke="none"/>
      <path fill="none" d="M671.2117 524 L686.0867 524" stroke-width="4" clip-path="url(#clipPath2)"/>
      <path d="M701.2117 524 L684.7117 515.75 L684.7117 532.25 Z" stroke-width="4" clip-path="url(#clipPath2)" stroke="none"/>
      <path fill="none" d="M768.7117 524 L783.5867 524" stroke-width="4" clip-path="url(#clipPath2)"/>
      <path d="M798.7117 524 L782.2117 515.75 L782.2117 532.25 Z" stroke-width="4" clip-path="url(#clipPath2)" stroke="none"/>
      <path fill="none" d="M866.2117 524 L886.2117 524 L886.2117 533.875" stroke-width="4" clip-path="url(#clipPath2)"/>
      <path d="M886.2117 549 L894.4617 532.5 L877.9617 532.5 Z" stroke-width="4" clip-path="url(#clipPath2)" stroke="none"/>
      <path fill="none" d="M384.8117 524 L393.5401 524" stroke-width="4" clip-path="url(#clipPath2)"/>
      <path d="M408.6651 524 L392.1651 515.75 L392.1651 532.25 Z" stroke-width="4" clip-path="url(#clipPath2)" stroke="none"/>
      <path fill="none" d="M476.2118 524 L491.0868 524" stroke-width="4" clip-path="url(#clipPath2)"/>
      <path d="M506.2118 524 L489.7118 515.75 L489.7118 532.25 Z" stroke-width="4" clip-path="url(#clipPath2)" stroke="none"/>
      <path fill="none" stroke-dasharray="18,6" d="M692.3295 559.627 L648.4129 594.6707" stroke-width="3" clip-path="url(#clipPath2)"/>
      <path fill="none" stroke-dasharray="18,6" d="M783.4129 560.0457 L827.8501 594.9703" stroke-width="3" clip-path="url(#clipPath2)"/>
      <path fill="none" d="M611.8469 630.625 L631.3317 630.625" stroke-width="4" clip-path="url(#clipPath2)"/>
      <path d="M646.4567 630.625 L629.9567 622.375 L629.9567 638.875 Z" stroke-width="4" clip-path="url(#clipPath2)" stroke="none"/>
      <path fill="none" d="M738.9268 666.25 L738.9268 707.0068" stroke-width="3" clip-path="url(#clipPath2)"/>
      <path d="M738.9268 720.7568 L746.4268 705.7568 L731.4268 705.7568 Z" stroke-width="3" clip-path="url(#clipPath2)" stroke="none"/>
      <path fill="none" stroke-dasharray="12,4" d="M706.6651 741.5046 L705.6836 741.6416 L690.2941 742.5455 L675.7258 742.0904 L661.9789 740.2762 L649.0534 737.103 L636.9492 732.5709 L625.6664 726.6796 L615.2048 719.4294 L605.5647 710.8201 L596.7458 700.8518 L588.7484 689.5245 L581.5723 676.8381 L575.2174 662.7928 L573.5371 658.115" stroke-width="2" clip-path="url(#clipPath2)"/>
      <path stroke-dasharray="12,4" d="M570.4945 649.6449 L569.7646 664.2516 L573.9174 659.1738 L580.3522 660.4484 Z" stroke-width="2" clip-path="url(#clipPath2)" stroke="none"/>
    </g>
  </g>
</svg>
