<?xml version="1.0" encoding="UTF-8"?><svg xmlns="http://www.w3.org/2000/svg" xmlns:xlink="http://www.w3.org/1999/xlink" fill-opacity="1" color-rendering="auto" color-interpolation="auto" text-rendering="auto" stroke="black" stroke-linecap="square" width="652" stroke-miterlimit="10" shape-rendering="auto" stroke-opacity="1" fill="black" stroke-dasharray="none" font-weight="normal" stroke-width="1" height="345" font-family="'Dialog'" font-style="normal" stroke-linejoin="miter" font-size="12px" stroke-dashoffset="0" image-rendering="auto">
  <!--Generated by ySVG 2.5-->
  <defs id="genericDefs"/>
  <g>
    <defs id="defs1">
      <clipPath clipPathUnits="userSpaceOnUse" id="clipPath1">
        <path d="M0 0 L652 0 L652 345 L0 345 L0 0 Z"/>
      </clipPath>
      <clipPath clipPathUnits="userSpaceOnUse" id="clipPath2">
        <path d="M310 454 L962 454 L962 799 L310 799 L310 454 Z"/>
      </clipPath>
    </defs>
    <g transform="matrix(1,0,0,1,-310,-454)" fill-opacity="0.498" fill="rgb(255,102,0)" text-rendering="geometricPrecision" shape-rendering="geometricPrecision" stroke="rgb(255,102,0)" stroke-opacity="0.498">
      <rect x="505.48" width="50" height="50" y="479.625" clip-path="url(#clipPath2)" stroke="none"/>
    </g>
    <g text-rendering="geometricPrecision" stroke-miterlimit="1.45" shape-rendering="geometricPrecision" transform="matrix(1,0,0,1,-310,-454)" stroke-linecap="butt">
      <rect fill="none" x="505.48" width="50" height="50" y="479.625" clip-path="url(#clipPath2)"/>
      <text x="519.3569" font-size="20px" y="512.4814" clip-path="url(#clipPath2)" font-family="sans-serif" stroke="none" xml:space="preserve">33</text>
    </g>
    <g transform="matrix(1,0,0,1,-310,-454)" fill-opacity="0.498" fill="rgb(255,102,0)" text-rendering="geometricPrecision" shape-rendering="geometricPrecision" stroke="rgb(255,102,0)" stroke-opacity="0.498">
      <rect x="555.48" width="25" height="50" y="479.625" clip-path="url(#clipPath2)" stroke="none"/>
    </g>
    <g text-rendering="geometricPrecision" stroke-miterlimit="1.45" shape-rendering="geometricPrecision" transform="matrix(1,0,0,1,-310,-454)" stroke-linecap="butt">
      <rect fill="none" x="555.48" width="25" height="50" y="479.625" clip-path="url(#clipPath2)"/>
    </g>
    <g transform="matrix(1,0,0,1,-310,-454)" fill-opacity="0.498" fill="rgb(0,128,0)" text-rendering="geometricPrecision" shape-rendering="geometricPrecision" stroke="rgb(0,128,0)" stroke-opacity="0.498">
      <rect x="602.98" width="50" height="50" y="479.625" clip-path="url(#clipPath2)" stroke="none"/>
    </g>
    <g text-rendering="geometricPrecision" stroke-miterlimit="1.45" shape-rendering="geometricPrecision" transform="matrix(1,0,0,1,-310,-454)" stroke-linecap="butt">
      <rect fill="none" x="602.98" width="50" height="50" y="479.625" clip-path="url(#clipPath2)"/>
      <text x="616.8569" font-size="20px" y="512.4814" clip-path="url(#clipPath2)" font-family="sans-serif" stroke="none" xml:space="preserve">76</text>
    </g>
    <g transform="matrix(1,0,0,1,-310,-454)" fill-opacity="0.498" fill="rgb(0,128,0)" text-rendering="geometricPrecision" shape-rendering="geometricPrecision" stroke="rgb(0,128,0)" stroke-opacity="0.498">
      <rect x="652.98" width="25" height="50" y="479.625" clip-path="url(#clipPath2)" stroke="none"/>
    </g>
    <g text-rendering="geometricPrecision" stroke-miterlimit="1.45" shape-rendering="geometricPrecision" transform="matrix(1,0,0,1,-310,-454)" stroke-linecap="butt">
      <rect fill="none" x="652.98" width="25" height="50" y="479.625" clip-path="url(#clipPath2)"/>
    </g>
    <g transform="matrix(1,0,0,1,-310,-454)" fill-opacity="0.498" fill="rgb(0,0,255)" text-rendering="geometricPrecision" shape-rendering="geometricPrecision" stroke="rgb(0,0,255)" stroke-opacity="0.498">
      <rect x="700.48" width="50" height="50" y="479.625" clip-path="url(#clipPath2)" stroke="none"/>
    </g>
    <g text-rendering="geometricPrecision" stroke-miterlimit="1.45" shape-rendering="geometricPrecision" transform="matrix(1,0,0,1,-310,-454)" stroke-linecap="butt">
      <rect fill="none" x="700.48" width="50" height="50" y="479.625" clip-path="url(#clipPath2)"/>
      <text x="714.3569" font-size="20px" y="512.4814" clip-path="url(#clipPath2)" font-family="sans-serif" stroke="none" xml:space="preserve">23</text>
    </g>
    <g transform="matrix(1,0,0,1,-310,-454)" fill-opacity="0.498" fill="rgb(0,0,255)" text-rendering="geometricPrecision" shape-rendering="geometricPrecision" stroke="rgb(0,0,255)" stroke-opacity="0.498">
      <rect x="750.48" width="25" height="50" y="479.625" clip-path="url(#clipPath2)" stroke="none"/>
    </g>
    <g text-rendering="geometricPrecision" stroke-miterlimit="1.45" shape-rendering="geometricPrecision" transform="matrix(1,0,0,1,-310,-454)" stroke-linecap="butt">
      <rect fill="none" x="750.48" width="25" height="50" y="479.625" clip-path="url(#clipPath2)"/>
    </g>
    <g transform="matrix(1,0,0,1,-310,-454)" fill-opacity="0.498" fill="rgb(181,35,196)" text-rendering="geometricPrecision" shape-rendering="geometricPrecision" stroke="rgb(181,35,196)" stroke-opacity="0.498">
      <rect x="797.98" width="50" height="50" y="479.625" clip-path="url(#clipPath2)" stroke="none"/>
    </g>
    <g text-rendering="geometricPrecision" stroke-miterlimit="1.45" shape-rendering="geometricPrecision" transform="matrix(1,0,0,1,-310,-454)" stroke-linecap="butt">
      <rect fill="none" x="797.98" width="50" height="50" y="479.625" clip-path="url(#clipPath2)"/>
      <text x="811.8569" font-size="20px" y="512.4814" clip-path="url(#clipPath2)" font-family="sans-serif" stroke="none" xml:space="preserve">55</text>
    </g>
    <g transform="matrix(1,0,0,1,-310,-454)" fill-opacity="0.498" fill="rgb(181,35,196)" text-rendering="geometricPrecision" shape-rendering="geometricPrecision" stroke="rgb(181,35,196)" stroke-opacity="0.498">
      <rect x="847.98" width="25" height="50" y="479.625" clip-path="url(#clipPath2)" stroke="none"/>
    </g>
    <g text-rendering="geometricPrecision" stroke-miterlimit="1.45" shape-rendering="geometricPrecision" transform="matrix(1,0,0,1,-310,-454)" stroke-linecap="butt">
      <rect fill="none" x="847.98" width="25" height="50" y="479.625" clip-path="url(#clipPath2)"/>
      <circle fill="none" r="10" clip-path="url(#clipPath2)" cx="885.48" cy="539.625"/>
      <text x="881.3125" font-size="10px" y="543.5532" clip-path="url(#clipPath2)" font-family="sans-serif" stroke="none" xml:space="preserve">///</text>
    </g>
    <g transform="matrix(1,0,0,1,-310,-454)" fill-opacity="0.498" fill="rgb(255,0,0)" text-rendering="geometricPrecision" shape-rendering="geometricPrecision" stroke="rgb(255,0,0)" stroke-opacity="0.498">
      <rect x="325.92" width="58.16" height="30" y="489.625" clip-path="url(#clipPath2)" stroke="none"/>
    </g>
    <g text-rendering="geometricPrecision" stroke-miterlimit="1.45" shape-rendering="geometricPrecision" transform="matrix(1,0,0,1,-310,-454)" stroke-linecap="butt">
      <rect fill="none" x="325.92" width="58.16" height="30" y="489.625" clip-path="url(#clipPath2)"/>
      <text x="329.9854" font-size="20px" y="512.4814" clip-path="url(#clipPath2)" font-family="sans-serif" stroke="none" xml:space="preserve">Lnum</text>
    </g>
    <g transform="matrix(1,0,0,1,-310,-454)" fill-opacity="0.498" fill="rgb(255,0,0)" text-rendering="geometricPrecision" shape-rendering="geometricPrecision" stroke="rgb(255,0,0)" stroke-opacity="0.498">
      <rect x="407.98" width="50" height="50" y="479.625" clip-path="url(#clipPath2)" stroke="none"/>
    </g>
    <g text-rendering="geometricPrecision" stroke-miterlimit="1.45" shape-rendering="geometricPrecision" transform="matrix(1,0,0,1,-310,-454)" stroke-linecap="butt">
      <rect fill="none" x="407.98" width="50" height="50" y="479.625" clip-path="url(#clipPath2)"/>
      <text x="421.857" font-size="20px" y="512.4814" clip-path="url(#clipPath2)" font-family="sans-serif" stroke="none" xml:space="preserve">16</text>
    </g>
    <g transform="matrix(1,0,0,1,-310,-454)" fill-opacity="0.498" fill="rgb(255,0,0)" text-rendering="geometricPrecision" shape-rendering="geometricPrecision" stroke="rgb(255,0,0)" stroke-opacity="0.498">
      <rect x="457.98" width="25" height="50" y="479.625" clip-path="url(#clipPath2)" stroke="none"/>
    </g>
    <g text-rendering="geometricPrecision" stroke-miterlimit="1.45" shape-rendering="geometricPrecision" transform="matrix(1,0,0,1,-310,-454)" stroke-linecap="butt">
      <rect fill="none" x="457.98" width="25" height="50" y="479.625" clip-path="url(#clipPath2)"/>
    </g>
    <g fill="rgb(255,204,0)" text-rendering="geometricPrecision" shape-rendering="geometricPrecision" transform="matrix(1,0,0,1,-310,-454)" stroke="rgb(255,204,0)">
      <rect x="741.085" width="184.94" height="71.25" y="579.625" clip-path="url(#clipPath2)" stroke="none"/>
    </g>
    <g text-rendering="geometricPrecision" stroke-miterlimit="1.45" shape-rendering="geometricPrecision" transform="matrix(1,0,0,1,-310,-454)" stroke-linecap="butt">
      <rect fill="none" x="741.085" width="184.94" height="71.25" y="579.625" clip-path="url(#clipPath2)"/>
      <text x="772.6956" font-size="20px" y="623.1064" clip-path="url(#clipPath2)" font-family="sans-serif" stroke="none" xml:space="preserve">Filtro: x &gt; 50?</text>
      <rect x="786.68" y="469" clip-path="url(#clipPath2)" fill="none" width="93.75" stroke-dasharray="18,6" height="71.25" stroke-width="3"/>
      <rect fill="none" x="741.085" width="205.26" height="98" y="686" clip-path="url(#clipPath2)"/>
    </g>
    <g transform="matrix(1,0,0,1,-310,-454)" fill-opacity="0.498" fill="rgb(0,128,0)" text-rendering="geometricPrecision" shape-rendering="geometricPrecision" stroke="rgb(0,128,0)" stroke-opacity="0.498">
      <rect x="746.055" width="50" height="50" y="710" clip-path="url(#clipPath2)" stroke="none"/>
    </g>
    <g text-rendering="geometricPrecision" stroke-miterlimit="1.45" shape-rendering="geometricPrecision" transform="matrix(1,0,0,1,-310,-454)" stroke-linecap="butt">
      <rect fill="none" x="746.055" width="50" height="50" y="710" clip-path="url(#clipPath2)"/>
      <text x="759.9319" font-size="20px" y="742.8564" clip-path="url(#clipPath2)" font-family="sans-serif" stroke="none" xml:space="preserve">76</text>
    </g>
    <g transform="matrix(1,0,0,1,-310,-454)" fill-opacity="0.498" fill="rgb(0,128,0)" text-rendering="geometricPrecision" shape-rendering="geometricPrecision" stroke="rgb(0,128,0)" stroke-opacity="0.498">
      <rect x="796.055" width="25" height="50" y="710" clip-path="url(#clipPath2)" stroke="none"/>
    </g>
    <g text-rendering="geometricPrecision" stroke-miterlimit="1.45" shape-rendering="geometricPrecision" transform="matrix(1,0,0,1,-310,-454)" stroke-linecap="butt">
      <rect fill="none" x="796.055" width="25" height="50" y="710" clip-path="url(#clipPath2)"/>
    </g>
    <g transform="matrix(1,0,0,1,-310,-454)" fill-opacity="0.498" fill="rgb(181,35,196)" text-rendering="geometricPrecision" shape-rendering="geometricPrecision" stroke="rgb(181,35,196)" stroke-opacity="0.498">
      <rect x="843.555" width="50" height="50" y="710" clip-path="url(#clipPath2)" stroke="none"/>
    </g>
    <g text-rendering="geometricPrecision" stroke-miterlimit="1.45" shape-rendering="geometricPrecision" transform="matrix(1,0,0,1,-310,-454)" stroke-linecap="butt">
      <rect fill="none" x="843.555" width="50" height="50" y="710" clip-path="url(#clipPath2)"/>
      <text x="857.4319" font-size="20px" y="742.8564" clip-path="url(#clipPath2)" font-family="sans-serif" stroke="none" xml:space="preserve">55</text>
    </g>
    <g transform="matrix(1,0,0,1,-310,-454)" fill-opacity="0.498" fill="rgb(181,35,196)" text-rendering="geometricPrecision" shape-rendering="geometricPrecision" stroke="rgb(181,35,196)" stroke-opacity="0.498">
      <rect x="893.555" width="25" height="50" y="710" clip-path="url(#clipPath2)" stroke="none"/>
    </g>
    <g text-rendering="geometricPrecision" stroke-miterlimit="1.45" shape-rendering="geometricPrecision" transform="matrix(1,0,0,1,-310,-454)" stroke-linecap="butt">
      <rect fill="none" x="893.555" width="25" height="50" y="710" clip-path="url(#clipPath2)"/>
      <circle fill="none" r="10" clip-path="url(#clipPath2)" cx="931.055" cy="770"/>
      <text x="926.8875" font-size="10px" y="773.9282" clip-path="url(#clipPath2)" font-family="sans-serif" stroke="none" xml:space="preserve">///</text>
      <path fill="none" d="M572.98 504.625 L587.855 504.625" stroke-width="4" clip-path="url(#clipPath2)"/>
      <path d="M602.98 504.625 L586.48 496.375 L586.48 512.875 Z" stroke-width="4" clip-path="url(#clipPath2)" stroke="none"/>
      <path fill="none" d="M670.48 504.625 L685.355 504.625" stroke-width="4" clip-path="url(#clipPath2)"/>
      <path d="M700.48 504.625 L683.98 496.375 L683.98 512.875 Z" stroke-width="4" clip-path="url(#clipPath2)" stroke="none"/>
      <path fill="none" d="M767.98 504.625 L782.855 504.625" stroke-width="4" clip-path="url(#clipPath2)"/>
      <path d="M797.98 504.625 L781.48 496.375 L781.48 512.875 Z" stroke-width="4" clip-path="url(#clipPath2)" stroke="none"/>
      <path fill="none" d="M865.48 504.625 L885.48 504.625 L885.48 514.5" stroke-width="4" clip-path="url(#clipPath2)"/>
      <path d="M885.48 529.625 L893.73 513.125 L877.23 513.125 Z" stroke-width="4" clip-path="url(#clipPath2)" stroke="none"/>
      <path fill="none" d="M384.08 504.625 L392.8083 504.625" stroke-width="4" clip-path="url(#clipPath2)"/>
      <path d="M407.9333 504.625 L391.4333 496.375 L391.4333 512.875 Z" stroke-width="4" clip-path="url(#clipPath2)" stroke="none"/>
      <path fill="none" d="M475.48 504.625 L490.355 504.625" stroke-width="4" clip-path="url(#clipPath2)"/>
      <path d="M505.48 504.625 L488.98 496.375 L488.98 512.875 Z" stroke-width="4" clip-path="url(#clipPath2)" stroke="none"/>
      <path fill="none" stroke-dasharray="18,6" d="M786.9578 540.252 L743.0411 579.2957" stroke-width="3" clip-path="url(#clipPath2)"/>
      <path fill="none" stroke-dasharray="18,6" d="M878.0411 540.6707 L922.4783 579.5953" stroke-width="3" clip-path="url(#clipPath2)"/>
    </g>
    <g stroke-linecap="butt" transform="matrix(1,0,0,1,-310,-454)" fill-opacity="0.498" fill="rgb(0,128,0)" text-rendering="geometricPrecision" shape-rendering="geometricPrecision" stroke="rgb(0,128,0)" stroke-width="4" stroke-opacity="0.498" stroke-miterlimit="1.45">
      <path fill="none" d="M833.555 650.875 L833.555 670.8628" clip-path="url(#clipPath2)"/>
      <path d="M833.555 685.9878 L841.805 669.4878 L825.305 669.4878 Z" clip-path="url(#clipPath2)" stroke="none"/>
    </g>
    <g text-rendering="geometricPrecision" stroke-miterlimit="1.45" stroke-width="4" shape-rendering="geometricPrecision" transform="matrix(1,0,0,1,-310,-454)" stroke-linecap="butt">
      <path fill="none" d="M813.555 735 L828.43 735" clip-path="url(#clipPath2)"/>
      <path d="M843.555 735 L827.055 726.75 L827.055 743.25 Z" clip-path="url(#clipPath2)" stroke="none"/>
      <path fill="none" d="M911.055 735 L931.055 735 L931.055 744.875" clip-path="url(#clipPath2)"/>
      <path d="M931.055 760 L939.305 743.5 L922.805 743.5 Z" clip-path="url(#clipPath2)" stroke="none"/>
    </g>
  </g>
</svg>
