<?xml version="1.0" encoding="UTF-8"?><svg xmlns="http://www.w3.org/2000/svg" xmlns:xlink="http://www.w3.org/1999/xlink" fill-opacity="1" color-rendering="auto" color-interpolation="auto" text-rendering="auto" stroke="black" stroke-linecap="square" width="705" stroke-miterlimit="10" shape-rendering="auto" stroke-opacity="1" fill="black" stroke-dasharray="none" font-weight="normal" stroke-width="1" height="328" font-family="'Dialog'" font-style="normal" stroke-linejoin="miter" font-size="12px" stroke-dashoffset="0" image-rendering="auto">
  <!--Generated by ySVG 2.5-->
  <defs id="genericDefs"/>
  <g>
    <defs id="defs1">
      <clipPath clipPathUnits="userSpaceOnUse" id="clipPath1">
        <path d="M0 0 L705 0 L705 328 L0 328 L0 0 Z"/>
      </clipPath>
      <clipPath clipPathUnits="userSpaceOnUse" id="clipPath2">
        <path d="M130 349 L835 349 L835 677 L130 677 L130 349 Z"/>
      </clipPath>
    </defs>
    <g transform="matrix(1,0,0,1,-130,-349)" fill-opacity="0.498" fill="rgb(255,102,0)" text-rendering="geometricPrecision" shape-rendering="geometricPrecision" stroke="rgb(255,102,0)" stroke-opacity="0.498">
      <rect x="429.0901" width="50" height="50" y="409.25" clip-path="url(#clipPath2)" stroke="none"/>
    </g>
    <g text-rendering="geometricPrecision" stroke-miterlimit="1.45" shape-rendering="geometricPrecision" transform="matrix(1,0,0,1,-130,-349)" stroke-linecap="butt">
      <rect fill="none" x="429.0901" width="50" height="50" y="409.25" clip-path="url(#clipPath2)"/>
      <text x="442.9671" font-size="20px" y="442.1064" clip-path="url(#clipPath2)" font-family="sans-serif" stroke="none" xml:space="preserve">33</text>
    </g>
    <g transform="matrix(1,0,0,1,-130,-349)" fill-opacity="0.498" fill="rgb(255,102,0)" text-rendering="geometricPrecision" shape-rendering="geometricPrecision" stroke="rgb(255,102,0)" stroke-opacity="0.498">
      <rect x="479.0901" width="25" height="50" y="409.25" clip-path="url(#clipPath2)" stroke="none"/>
    </g>
    <g text-rendering="geometricPrecision" stroke-miterlimit="1.45" shape-rendering="geometricPrecision" transform="matrix(1,0,0,1,-130,-349)" stroke-linecap="butt">
      <rect fill="none" x="479.0901" width="25" height="50" y="409.25" clip-path="url(#clipPath2)"/>
    </g>
    <g transform="matrix(1,0,0,1,-130,-349)" fill-opacity="0.498" fill="rgb(0,128,0)" text-rendering="geometricPrecision" shape-rendering="geometricPrecision" stroke="rgb(0,128,0)" stroke-opacity="0.498">
      <rect x="526.5901" width="50" height="50" y="409.25" clip-path="url(#clipPath2)" stroke="none"/>
    </g>
    <g text-rendering="geometricPrecision" stroke-miterlimit="1.45" shape-rendering="geometricPrecision" transform="matrix(1,0,0,1,-130,-349)" stroke-linecap="butt">
      <rect fill="none" x="526.5901" width="50" height="50" y="409.25" clip-path="url(#clipPath2)"/>
      <text x="540.4671" font-size="20px" y="442.1064" clip-path="url(#clipPath2)" font-family="sans-serif" stroke="none" xml:space="preserve">76</text>
    </g>
    <g transform="matrix(1,0,0,1,-130,-349)" fill-opacity="0.498" fill="rgb(0,128,0)" text-rendering="geometricPrecision" shape-rendering="geometricPrecision" stroke="rgb(0,128,0)" stroke-opacity="0.498">
      <rect x="576.5901" width="25" height="50" y="409.25" clip-path="url(#clipPath2)" stroke="none"/>
    </g>
    <g text-rendering="geometricPrecision" stroke-miterlimit="1.45" shape-rendering="geometricPrecision" transform="matrix(1,0,0,1,-130,-349)" stroke-linecap="butt">
      <rect fill="none" x="576.5901" width="25" height="50" y="409.25" clip-path="url(#clipPath2)"/>
    </g>
    <g transform="matrix(1,0,0,1,-130,-349)" fill-opacity="0.498" fill="rgb(0,0,255)" text-rendering="geometricPrecision" shape-rendering="geometricPrecision" stroke="rgb(0,0,255)" stroke-opacity="0.498">
      <rect x="624.0901" width="50" height="50" y="409.25" clip-path="url(#clipPath2)" stroke="none"/>
    </g>
    <g text-rendering="geometricPrecision" stroke-miterlimit="1.45" shape-rendering="geometricPrecision" transform="matrix(1,0,0,1,-130,-349)" stroke-linecap="butt">
      <rect fill="none" x="624.0901" width="50" height="50" y="409.25" clip-path="url(#clipPath2)"/>
      <text x="637.9671" font-size="20px" y="442.1064" clip-path="url(#clipPath2)" font-family="sans-serif" stroke="none" xml:space="preserve">23</text>
    </g>
    <g transform="matrix(1,0,0,1,-130,-349)" fill-opacity="0.498" fill="rgb(0,0,255)" text-rendering="geometricPrecision" shape-rendering="geometricPrecision" stroke="rgb(0,0,255)" stroke-opacity="0.498">
      <rect x="674.0901" width="25" height="50" y="409.25" clip-path="url(#clipPath2)" stroke="none"/>
    </g>
    <g text-rendering="geometricPrecision" stroke-miterlimit="1.45" shape-rendering="geometricPrecision" transform="matrix(1,0,0,1,-130,-349)" stroke-linecap="butt">
      <rect fill="none" x="674.0901" width="25" height="50" y="409.25" clip-path="url(#clipPath2)"/>
    </g>
    <g transform="matrix(1,0,0,1,-130,-349)" fill-opacity="0.498" fill="rgb(181,35,196)" text-rendering="geometricPrecision" shape-rendering="geometricPrecision" stroke="rgb(181,35,196)" stroke-opacity="0.498">
      <rect x="721.5901" width="50" height="50" y="409.25" clip-path="url(#clipPath2)" stroke="none"/>
    </g>
    <g text-rendering="geometricPrecision" stroke-miterlimit="1.45" shape-rendering="geometricPrecision" transform="matrix(1,0,0,1,-130,-349)" stroke-linecap="butt">
      <rect fill="none" x="721.5901" width="50" height="50" y="409.25" clip-path="url(#clipPath2)"/>
      <text x="735.4671" font-size="20px" y="442.1064" clip-path="url(#clipPath2)" font-family="sans-serif" stroke="none" xml:space="preserve">55</text>
    </g>
    <g transform="matrix(1,0,0,1,-130,-349)" fill-opacity="0.498" fill="rgb(181,35,196)" text-rendering="geometricPrecision" shape-rendering="geometricPrecision" stroke="rgb(181,35,196)" stroke-opacity="0.498">
      <rect x="771.5901" width="25" height="50" y="409.25" clip-path="url(#clipPath2)" stroke="none"/>
    </g>
    <g text-rendering="geometricPrecision" stroke-miterlimit="1.45" shape-rendering="geometricPrecision" transform="matrix(1,0,0,1,-130,-349)" stroke-linecap="butt">
      <rect fill="none" x="771.5901" width="25" height="50" y="409.25" clip-path="url(#clipPath2)"/>
      <circle fill="none" r="10" clip-path="url(#clipPath2)" cx="809.0901" cy="469.25"/>
      <text x="804.9227" font-size="10px" y="473.1782" clip-path="url(#clipPath2)" font-family="sans-serif" stroke="none" xml:space="preserve">///</text>
    </g>
    <g transform="matrix(1,0,0,1,-130,-349)" fill-opacity="0.498" fill="rgb(255,0,0)" text-rendering="geometricPrecision" shape-rendering="geometricPrecision" stroke="rgb(255,0,0)" stroke-opacity="0.498">
      <rect x="249.5301" width="58.16" height="30" y="419.25" clip-path="url(#clipPath2)" stroke="none"/>
    </g>
    <g text-rendering="geometricPrecision" stroke-miterlimit="1.45" shape-rendering="geometricPrecision" transform="matrix(1,0,0,1,-130,-349)" stroke-linecap="butt">
      <rect fill="none" x="249.5301" width="58.16" height="30" y="419.25" clip-path="url(#clipPath2)"/>
      <text x="253.5955" font-size="20px" y="442.1064" clip-path="url(#clipPath2)" font-family="sans-serif" stroke="none" xml:space="preserve">Lnum</text>
    </g>
    <g transform="matrix(1,0,0,1,-130,-349)" fill-opacity="0.498" fill="rgb(255,0,0)" text-rendering="geometricPrecision" shape-rendering="geometricPrecision" stroke="rgb(255,0,0)" stroke-opacity="0.498">
      <rect x="331.5901" width="50" height="50" y="409.25" clip-path="url(#clipPath2)" stroke="none"/>
    </g>
    <g text-rendering="geometricPrecision" stroke-miterlimit="1.45" shape-rendering="geometricPrecision" transform="matrix(1,0,0,1,-130,-349)" stroke-linecap="butt">
      <rect fill="none" x="331.5901" width="50" height="50" y="409.25" clip-path="url(#clipPath2)"/>
      <text x="345.4671" font-size="20px" y="442.1064" clip-path="url(#clipPath2)" font-family="sans-serif" stroke="none" xml:space="preserve">16</text>
    </g>
    <g transform="matrix(1,0,0,1,-130,-349)" fill-opacity="0.498" fill="rgb(255,0,0)" text-rendering="geometricPrecision" shape-rendering="geometricPrecision" stroke="rgb(255,0,0)" stroke-opacity="0.498">
      <rect x="381.5901" width="25" height="50" y="409.25" clip-path="url(#clipPath2)" stroke="none"/>
    </g>
    <g text-rendering="geometricPrecision" stroke-miterlimit="1.45" shape-rendering="geometricPrecision" transform="matrix(1,0,0,1,-130,-349)" stroke-linecap="butt">
      <rect fill="none" x="381.5901" width="25" height="50" y="409.25" clip-path="url(#clipPath2)"/>
    </g>
    <g fill="rgb(255,204,0)" text-rendering="geometricPrecision" shape-rendering="geometricPrecision" transform="matrix(1,0,0,1,-130,-349)" stroke="rgb(255,204,0)">
      <rect x="273.0151" width="184.94" height="71.25" y="505.25" clip-path="url(#clipPath2)" stroke="none"/>
    </g>
    <g text-rendering="geometricPrecision" stroke-miterlimit="1.45" shape-rendering="geometricPrecision" transform="matrix(1,0,0,1,-130,-349)" stroke-linecap="butt">
      <rect fill="none" x="273.0151" width="184.94" height="71.25" y="505.25" clip-path="url(#clipPath2)"/>
      <text x="303.5125" font-size="20px" y="548.7314" clip-path="url(#clipPath2)" font-family="sans-serif" stroke="none" xml:space="preserve">Reductor: x+y</text>
      <rect x="318.6101" y="398.625" clip-path="url(#clipPath2)" fill="none" width="93.75" stroke-dasharray="18,6" height="71.25" stroke-width="3"/>
    </g>
    <g fill="rgb(255,255,153)" text-rendering="geometricPrecision" shape-rendering="geometricPrecision" transform="matrix(1,0,0,1,-130,-349)" stroke="rgb(255,255,153)">
      <rect x="145.2752" width="93.75" height="38" y="521.875" clip-path="url(#clipPath2)" stroke="none"/>
    </g>
    <g text-rendering="geometricPrecision" stroke-miterlimit="1.45" shape-rendering="geometricPrecision" transform="matrix(1,0,0,1,-130,-349)" stroke-linecap="butt">
      <rect fill="none" x="145.2752" width="93.75" height="38" y="521.875" clip-path="url(#clipPath2)"/>
      <text x="162.409" font-size="20px" y="548.7314" clip-path="url(#clipPath2)" font-family="sans-serif" stroke="none" xml:space="preserve">init = 0</text>
    </g>
    <g fill="rgb(204,255,204)" text-rendering="geometricPrecision" shape-rendering="geometricPrecision" transform="matrix(1,0,0,1,-130,-349)" stroke="rgb(204,255,204)">
      <rect x="333.2051" width="64.56" height="30" y="631.0068" clip-path="url(#clipPath2)" stroke="none"/>
    </g>
    <g text-rendering="geometricPrecision" stroke-miterlimit="1.45" shape-rendering="geometricPrecision" transform="matrix(1,0,0,1,-130,-349)" stroke-linecap="butt">
      <rect fill="none" x="333.2051" width="64.56" height="30" y="631.0068" clip-path="url(#clipPath2)"/>
      <text x="354.3621" font-size="20px" y="653.8632" clip-path="url(#clipPath2)" font-family="sans-serif" stroke="none" xml:space="preserve">16</text>
      <text x="251.0202" font-size="20px" y="528.4232" clip-path="url(#clipPath2)" font-family="sans-serif" stroke="none" xml:space="preserve">x</text>
      <text x="360.4851" font-size="20px" y="387.1064" clip-path="url(#clipPath2)" font-family="sans-serif" stroke="none" xml:space="preserve">y</text>
      <path fill="none" d="M496.5901 434.25 L511.4651 434.25" stroke-width="4" clip-path="url(#clipPath2)"/>
      <path d="M526.5901 434.25 L510.0901 426 L510.0901 442.5 Z" stroke-width="4" clip-path="url(#clipPath2)" stroke="none"/>
      <path fill="none" d="M594.0901 434.25 L608.9651 434.25" stroke-width="4" clip-path="url(#clipPath2)"/>
      <path d="M624.0901 434.25 L607.5901 426 L607.5901 442.5 Z" stroke-width="4" clip-path="url(#clipPath2)" stroke="none"/>
      <path fill="none" d="M691.5901 434.25 L706.4651 434.25" stroke-width="4" clip-path="url(#clipPath2)"/>
      <path d="M721.5901 434.25 L705.0901 426 L705.0901 442.5 Z" stroke-width="4" clip-path="url(#clipPath2)" stroke="none"/>
      <path fill="none" d="M789.0901 434.25 L809.0901 434.25 L809.0901 444.125" stroke-width="4" clip-path="url(#clipPath2)"/>
      <path d="M809.0901 459.25 L817.3401 442.75 L800.8401 442.75 Z" stroke-width="4" clip-path="url(#clipPath2)" stroke="none"/>
      <path fill="none" d="M307.6901 434.25 L316.4185 434.25" stroke-width="4" clip-path="url(#clipPath2)"/>
      <path d="M331.5435 434.25 L315.0435 426 L315.0435 442.5 Z" stroke-width="4" clip-path="url(#clipPath2)" stroke="none"/>
      <path fill="none" d="M399.0901 434.25 L413.9358 434.25" stroke-width="4" clip-path="url(#clipPath2)"/>
      <path d="M429.0608 434.25 L412.5608 426 L412.5608 442.5 Z" stroke-width="4" clip-path="url(#clipPath2)" stroke="none"/>
      <path fill="none" stroke-dasharray="18,6" d="M318.8879 469.877 L274.9713 504.9206" stroke-width="3" clip-path="url(#clipPath2)"/>
      <path fill="none" stroke-dasharray="18,6" d="M409.9713 470.2956 L454.4085 505.2203" stroke-width="3" clip-path="url(#clipPath2)"/>
      <path fill="none" d="M239.0252 540.875 L257.8901 540.875" stroke-width="4" clip-path="url(#clipPath2)"/>
      <path d="M273.0151 540.875 L256.5151 532.625 L256.5151 549.125 Z" stroke-width="4" clip-path="url(#clipPath2)" stroke="none"/>
      <path fill="none" d="M365.4851 576.5 L365.4851 617.2568" stroke-width="3" clip-path="url(#clipPath2)"/>
      <path d="M365.4851 631.0068 L372.9851 616.0068 L357.9851 616.0068 Z" stroke-width="3" clip-path="url(#clipPath2)" stroke="none"/>
      <path fill="none" stroke-dasharray="12,4" d="M333.2355 651.6974 L332.3195 651.8238 L316.9687 652.701 L302.4392 652.2241 L288.731 650.3931 L275.8443 647.2078 L263.7788 642.6683 L252.5347 636.7747 L242.112 629.5268 L232.5105 620.9248 L223.7305 610.9686 L215.7717 599.6583 L208.6343 586.9937 L202.3183 572.975 L200.6576 568.3289" stroke-width="2" clip-path="url(#clipPath2)"/>
      <path stroke-dasharray="12,4" d="M197.6284 559.854 L196.8754 574.4596 L201.0363 569.3883 L207.469 570.6732 Z" stroke-width="2" clip-path="url(#clipPath2)" stroke="none"/>
    </g>
  </g>
</svg>
