<?xml version="1.0" encoding="UTF-8"?><svg xmlns="http://www.w3.org/2000/svg" xmlns:xlink="http://www.w3.org/1999/xlink" fill-opacity="1" color-rendering="auto" color-interpolation="auto" text-rendering="auto" stroke="black" stroke-linecap="square" width="610" stroke-miterlimit="10" shape-rendering="auto" stroke-opacity="1" fill="black" stroke-dasharray="none" font-weight="normal" stroke-width="1" height="352" font-family="'Dialog'" font-style="normal" stroke-linejoin="miter" font-size="12px" stroke-dashoffset="0" image-rendering="auto">
  <!--Generated by ySVG 2.5-->
  <defs id="genericDefs"/>
  <g>
    <defs id="defs1">
      <clipPath clipPathUnits="userSpaceOnUse" id="clipPath1">
        <path d="M0 0 L610 0 L610 352 L0 352 L0 0 Z"/>
      </clipPath>
      <clipPath clipPathUnits="userSpaceOnUse" id="clipPath2">
        <path d="M285 429 L895 429 L895 781 L285 781 L285 429 Z"/>
      </clipPath>
    </defs>
    <g transform="matrix(1,0,0,1,-285,-429)" fill-opacity="0.498" fill="rgb(255,102,0)" text-rendering="geometricPrecision" shape-rendering="geometricPrecision" stroke="rgb(255,102,0)" stroke-opacity="0.498">
      <rect x="480.36" width="50" height="50" y="454.625" clip-path="url(#clipPath2)" stroke="none"/>
    </g>
    <g text-rendering="geometricPrecision" stroke-miterlimit="1.45" shape-rendering="geometricPrecision" transform="matrix(1,0,0,1,-285,-429)" stroke-linecap="butt">
      <rect fill="none" x="480.36" width="50" height="50" y="454.625" clip-path="url(#clipPath2)"/>
      <text x="494.2369" font-size="20px" y="487.4814" clip-path="url(#clipPath2)" font-family="sans-serif" stroke="none" xml:space="preserve">33</text>
    </g>
    <g transform="matrix(1,0,0,1,-285,-429)" fill-opacity="0.498" fill="rgb(255,102,0)" text-rendering="geometricPrecision" shape-rendering="geometricPrecision" stroke="rgb(255,102,0)" stroke-opacity="0.498">
      <rect x="530.36" width="25" height="50" y="454.625" clip-path="url(#clipPath2)" stroke="none"/>
    </g>
    <g text-rendering="geometricPrecision" stroke-miterlimit="1.45" shape-rendering="geometricPrecision" transform="matrix(1,0,0,1,-285,-429)" stroke-linecap="butt">
      <rect fill="none" x="530.36" width="25" height="50" y="454.625" clip-path="url(#clipPath2)"/>
    </g>
    <g transform="matrix(1,0,0,1,-285,-429)" fill-opacity="0.498" fill="rgb(0,128,0)" text-rendering="geometricPrecision" shape-rendering="geometricPrecision" stroke="rgb(0,128,0)" stroke-opacity="0.498">
      <rect x="577.86" width="50" height="50" y="454.625" clip-path="url(#clipPath2)" stroke="none"/>
    </g>
    <g text-rendering="geometricPrecision" stroke-miterlimit="1.45" shape-rendering="geometricPrecision" transform="matrix(1,0,0,1,-285,-429)" stroke-linecap="butt">
      <rect fill="none" x="577.86" width="50" height="50" y="454.625" clip-path="url(#clipPath2)"/>
      <text x="591.7369" font-size="20px" y="487.4814" clip-path="url(#clipPath2)" font-family="sans-serif" stroke="none" xml:space="preserve">76</text>
    </g>
    <g transform="matrix(1,0,0,1,-285,-429)" fill-opacity="0.498" fill="rgb(0,128,0)" text-rendering="geometricPrecision" shape-rendering="geometricPrecision" stroke="rgb(0,128,0)" stroke-opacity="0.498">
      <rect x="627.86" width="25" height="50" y="454.625" clip-path="url(#clipPath2)" stroke="none"/>
    </g>
    <g text-rendering="geometricPrecision" stroke-miterlimit="1.45" shape-rendering="geometricPrecision" transform="matrix(1,0,0,1,-285,-429)" stroke-linecap="butt">
      <rect fill="none" x="627.86" width="25" height="50" y="454.625" clip-path="url(#clipPath2)"/>
    </g>
    <g transform="matrix(1,0,0,1,-285,-429)" fill-opacity="0.498" fill="rgb(0,0,255)" text-rendering="geometricPrecision" shape-rendering="geometricPrecision" stroke="rgb(0,0,255)" stroke-opacity="0.498">
      <rect x="675.36" width="50" height="50" y="454.625" clip-path="url(#clipPath2)" stroke="none"/>
    </g>
    <g text-rendering="geometricPrecision" stroke-miterlimit="1.45" shape-rendering="geometricPrecision" transform="matrix(1,0,0,1,-285,-429)" stroke-linecap="butt">
      <rect fill="none" x="675.36" width="50" height="50" y="454.625" clip-path="url(#clipPath2)"/>
      <text x="689.2369" font-size="20px" y="487.4814" clip-path="url(#clipPath2)" font-family="sans-serif" stroke="none" xml:space="preserve">23</text>
    </g>
    <g transform="matrix(1,0,0,1,-285,-429)" fill-opacity="0.498" fill="rgb(0,0,255)" text-rendering="geometricPrecision" shape-rendering="geometricPrecision" stroke="rgb(0,0,255)" stroke-opacity="0.498">
      <rect x="725.36" width="25" height="50" y="454.625" clip-path="url(#clipPath2)" stroke="none"/>
    </g>
    <g text-rendering="geometricPrecision" stroke-miterlimit="1.45" shape-rendering="geometricPrecision" transform="matrix(1,0,0,1,-285,-429)" stroke-linecap="butt">
      <rect fill="none" x="725.36" width="25" height="50" y="454.625" clip-path="url(#clipPath2)"/>
    </g>
    <g transform="matrix(1,0,0,1,-285,-429)" fill-opacity="0.498" fill="rgb(181,35,196)" text-rendering="geometricPrecision" shape-rendering="geometricPrecision" stroke="rgb(181,35,196)" stroke-opacity="0.498">
      <rect x="772.86" width="50" height="50" y="454.625" clip-path="url(#clipPath2)" stroke="none"/>
    </g>
    <g text-rendering="geometricPrecision" stroke-miterlimit="1.45" shape-rendering="geometricPrecision" transform="matrix(1,0,0,1,-285,-429)" stroke-linecap="butt">
      <rect fill="none" x="772.86" width="50" height="50" y="454.625" clip-path="url(#clipPath2)"/>
      <text x="786.7369" font-size="20px" y="487.4814" clip-path="url(#clipPath2)" font-family="sans-serif" stroke="none" xml:space="preserve">55</text>
    </g>
    <g transform="matrix(1,0,0,1,-285,-429)" fill-opacity="0.498" fill="rgb(181,35,196)" text-rendering="geometricPrecision" shape-rendering="geometricPrecision" stroke="rgb(181,35,196)" stroke-opacity="0.498">
      <rect x="822.86" width="25" height="50" y="454.625" clip-path="url(#clipPath2)" stroke="none"/>
    </g>
    <g text-rendering="geometricPrecision" stroke-miterlimit="1.45" shape-rendering="geometricPrecision" transform="matrix(1,0,0,1,-285,-429)" stroke-linecap="butt">
      <rect fill="none" x="822.86" width="25" height="50" y="454.625" clip-path="url(#clipPath2)"/>
      <circle fill="none" r="10" clip-path="url(#clipPath2)" cx="860.36" cy="514.625"/>
      <text x="856.1925" font-size="10px" y="518.5532" clip-path="url(#clipPath2)" font-family="sans-serif" stroke="none" xml:space="preserve">///</text>
    </g>
    <g transform="matrix(1,0,0,1,-285,-429)" fill-opacity="0.498" fill="rgb(255,0,0)" text-rendering="geometricPrecision" shape-rendering="geometricPrecision" stroke="rgb(255,0,0)" stroke-opacity="0.498">
      <rect x="300.8" width="58.16" height="30" y="464.625" clip-path="url(#clipPath2)" stroke="none"/>
    </g>
    <g text-rendering="geometricPrecision" stroke-miterlimit="1.45" shape-rendering="geometricPrecision" transform="matrix(1,0,0,1,-285,-429)" stroke-linecap="butt">
      <rect fill="none" x="300.8" width="58.16" height="30" y="464.625" clip-path="url(#clipPath2)"/>
      <text x="304.8654" font-size="20px" y="487.4814" clip-path="url(#clipPath2)" font-family="sans-serif" stroke="none" xml:space="preserve">Lnum</text>
    </g>
    <g transform="matrix(1,0,0,1,-285,-429)" fill-opacity="0.498" fill="rgb(255,0,0)" text-rendering="geometricPrecision" shape-rendering="geometricPrecision" stroke="rgb(255,0,0)" stroke-opacity="0.498">
      <rect x="382.86" width="50" height="50" y="454.625" clip-path="url(#clipPath2)" stroke="none"/>
    </g>
    <g text-rendering="geometricPrecision" stroke-miterlimit="1.45" shape-rendering="geometricPrecision" transform="matrix(1,0,0,1,-285,-429)" stroke-linecap="butt">
      <rect fill="none" x="382.86" width="50" height="50" y="454.625" clip-path="url(#clipPath2)"/>
      <text x="396.7369" font-size="20px" y="487.4814" clip-path="url(#clipPath2)" font-family="sans-serif" stroke="none" xml:space="preserve">16</text>
    </g>
    <g transform="matrix(1,0,0,1,-285,-429)" fill-opacity="0.498" fill="rgb(255,0,0)" text-rendering="geometricPrecision" shape-rendering="geometricPrecision" stroke="rgb(255,0,0)" stroke-opacity="0.498">
      <rect x="432.86" width="25" height="50" y="454.625" clip-path="url(#clipPath2)" stroke="none"/>
    </g>
    <g text-rendering="geometricPrecision" stroke-miterlimit="1.45" shape-rendering="geometricPrecision" transform="matrix(1,0,0,1,-285,-429)" stroke-linecap="butt">
      <rect fill="none" x="432.86" width="25" height="50" y="454.625" clip-path="url(#clipPath2)"/>
    </g>
    <g fill="rgb(255,204,0)" text-rendering="geometricPrecision" shape-rendering="geometricPrecision" transform="matrix(1,0,0,1,-285,-429)" stroke="rgb(255,204,0)">
      <rect x="620.69" width="184.94" height="71.25" y="550.625" clip-path="url(#clipPath2)" stroke="none"/>
    </g>
    <g text-rendering="geometricPrecision" stroke-miterlimit="1.45" shape-rendering="geometricPrecision" transform="matrix(1,0,0,1,-285,-429)" stroke-linecap="butt">
      <rect fill="none" x="620.69" width="184.94" height="71.25" y="550.625" clip-path="url(#clipPath2)"/>
      <text x="660.6307" font-size="20px" y="594.1064" clip-path="url(#clipPath2)" font-family="sans-serif" stroke="none" xml:space="preserve">Mapa: x + 3</text>
      <rect x="666.285" y="444" clip-path="url(#clipPath2)" fill="none" width="93.75" stroke-dasharray="18,6" height="71.25" stroke-width="3"/>
      <rect fill="none" x="366.41" width="512.94" height="98" y="667.875" clip-path="url(#clipPath2)"/>
    </g>
    <g transform="matrix(1,0,0,1,-285,-429)" fill-opacity="0.498" fill="rgb(255,0,0)" text-rendering="geometricPrecision" shape-rendering="geometricPrecision" stroke="rgb(255,0,0)" stroke-opacity="0.498">
      <rect x="379.45" width="50" height="50" y="691.875" clip-path="url(#clipPath2)" stroke="none"/>
    </g>
    <g text-rendering="geometricPrecision" stroke-miterlimit="1.45" shape-rendering="geometricPrecision" transform="matrix(1,0,0,1,-285,-429)" stroke-linecap="butt">
      <rect fill="none" x="379.45" width="50" height="50" y="691.875" clip-path="url(#clipPath2)"/>
      <text x="393.327" font-size="20px" y="724.7314" clip-path="url(#clipPath2)" font-family="sans-serif" stroke="none" xml:space="preserve">19</text>
      <circle fill="none" r="10" clip-path="url(#clipPath2)" cx="761.95" cy="751.875"/>
      <text x="757.7825" font-size="10px" y="755.8032" clip-path="url(#clipPath2)" font-family="sans-serif" stroke="none" xml:space="preserve">///</text>
    </g>
    <g transform="matrix(1,0,0,1,-285,-429)" fill-opacity="0.498" fill="rgb(255,102,0)" text-rendering="geometricPrecision" shape-rendering="geometricPrecision" stroke="rgb(255,102,0)" stroke-opacity="0.498">
      <rect x="476.95" width="50" height="50" y="691.875" clip-path="url(#clipPath2)" stroke="none"/>
    </g>
    <g text-rendering="geometricPrecision" stroke-miterlimit="1.45" shape-rendering="geometricPrecision" transform="matrix(1,0,0,1,-285,-429)" stroke-linecap="butt">
      <rect fill="none" x="476.95" width="50" height="50" y="691.875" clip-path="url(#clipPath2)"/>
      <text x="490.827" font-size="20px" y="724.7314" clip-path="url(#clipPath2)" font-family="sans-serif" stroke="none" xml:space="preserve">36</text>
    </g>
    <g transform="matrix(1,0,0,1,-285,-429)" fill-opacity="0.498" fill="rgb(255,102,0)" text-rendering="geometricPrecision" shape-rendering="geometricPrecision" stroke="rgb(255,102,0)" stroke-opacity="0.498">
      <rect x="526.95" width="25" height="50" y="691.875" clip-path="url(#clipPath2)" stroke="none"/>
    </g>
    <g text-rendering="geometricPrecision" stroke-miterlimit="1.45" shape-rendering="geometricPrecision" transform="matrix(1,0,0,1,-285,-429)" stroke-linecap="butt">
      <rect fill="none" x="526.95" width="25" height="50" y="691.875" clip-path="url(#clipPath2)"/>
    </g>
    <g transform="matrix(1,0,0,1,-285,-429)" fill-opacity="0.498" fill="rgb(255,0,0)" text-rendering="geometricPrecision" shape-rendering="geometricPrecision" stroke="rgb(255,0,0)" stroke-opacity="0.498">
      <rect x="429.45" width="25" height="50" y="691.875" clip-path="url(#clipPath2)" stroke="none"/>
    </g>
    <g text-rendering="geometricPrecision" stroke-miterlimit="1.45" shape-rendering="geometricPrecision" transform="matrix(1,0,0,1,-285,-429)" stroke-linecap="butt">
      <rect fill="none" x="429.45" width="25" height="50" y="691.875" clip-path="url(#clipPath2)"/>
    </g>
    <g transform="matrix(1,0,0,1,-285,-429)" fill-opacity="0.498" fill="rgb(0,128,0)" text-rendering="geometricPrecision" shape-rendering="geometricPrecision" stroke="rgb(0,128,0)" stroke-opacity="0.498">
      <rect x="574.45" width="50" height="50" y="691.875" clip-path="url(#clipPath2)" stroke="none"/>
    </g>
    <g text-rendering="geometricPrecision" stroke-miterlimit="1.45" shape-rendering="geometricPrecision" transform="matrix(1,0,0,1,-285,-429)" stroke-linecap="butt">
      <rect fill="none" x="574.45" width="50" height="50" y="691.875" clip-path="url(#clipPath2)"/>
      <text x="588.327" font-size="20px" y="724.7314" clip-path="url(#clipPath2)" font-family="sans-serif" stroke="none" xml:space="preserve">79</text>
    </g>
    <g transform="matrix(1,0,0,1,-285,-429)" fill-opacity="0.498" fill="rgb(0,128,0)" text-rendering="geometricPrecision" shape-rendering="geometricPrecision" stroke="rgb(0,128,0)" stroke-opacity="0.498">
      <rect x="624.45" width="25" height="50" y="691.875" clip-path="url(#clipPath2)" stroke="none"/>
    </g>
    <g text-rendering="geometricPrecision" stroke-miterlimit="1.45" shape-rendering="geometricPrecision" transform="matrix(1,0,0,1,-285,-429)" stroke-linecap="butt">
      <rect fill="none" x="624.45" width="25" height="50" y="691.875" clip-path="url(#clipPath2)"/>
    </g>
    <g transform="matrix(1,0,0,1,-285,-429)" fill-opacity="0.498" fill="rgb(0,0,255)" text-rendering="geometricPrecision" shape-rendering="geometricPrecision" stroke="rgb(0,0,255)" stroke-opacity="0.498">
      <rect x="671.95" width="50" height="50" y="691.875" clip-path="url(#clipPath2)" stroke="none"/>
    </g>
    <g text-rendering="geometricPrecision" stroke-miterlimit="1.45" shape-rendering="geometricPrecision" transform="matrix(1,0,0,1,-285,-429)" stroke-linecap="butt">
      <rect fill="none" x="671.95" width="50" height="50" y="691.875" clip-path="url(#clipPath2)"/>
      <text x="685.827" font-size="20px" y="724.7314" clip-path="url(#clipPath2)" font-family="sans-serif" stroke="none" xml:space="preserve">26</text>
    </g>
    <g transform="matrix(1,0,0,1,-285,-429)" fill-opacity="0.498" fill="rgb(0,0,255)" text-rendering="geometricPrecision" shape-rendering="geometricPrecision" stroke="rgb(0,0,255)" stroke-opacity="0.498">
      <rect x="721.95" width="25" height="50" y="691.875" clip-path="url(#clipPath2)" stroke="none"/>
    </g>
    <g text-rendering="geometricPrecision" stroke-miterlimit="1.45" shape-rendering="geometricPrecision" transform="matrix(1,0,0,1,-285,-429)" stroke-linecap="butt">
      <rect fill="none" x="721.95" width="25" height="50" y="691.875" clip-path="url(#clipPath2)"/>
      <path fill="none" d="M547.86 479.625 L562.735 479.625" stroke-width="4" clip-path="url(#clipPath2)"/>
      <path d="M577.86 479.625 L561.36 471.375 L561.36 487.875 Z" stroke-width="4" clip-path="url(#clipPath2)" stroke="none"/>
      <path fill="none" d="M645.36 479.625 L660.235 479.625" stroke-width="4" clip-path="url(#clipPath2)"/>
      <path d="M675.36 479.625 L658.86 471.375 L658.86 487.875 Z" stroke-width="4" clip-path="url(#clipPath2)" stroke="none"/>
      <path fill="none" d="M742.86 479.625 L757.735 479.625" stroke-width="4" clip-path="url(#clipPath2)"/>
      <path d="M772.86 479.625 L756.36 471.375 L756.36 487.875 Z" stroke-width="4" clip-path="url(#clipPath2)" stroke="none"/>
      <path fill="none" d="M840.36 479.625 L860.36 479.625 L860.36 489.5" stroke-width="4" clip-path="url(#clipPath2)"/>
      <path d="M860.36 504.625 L868.61 488.125 L852.11 488.125 Z" stroke-width="4" clip-path="url(#clipPath2)" stroke="none"/>
      <path fill="none" d="M358.96 479.625 L367.6883 479.625" stroke-width="4" clip-path="url(#clipPath2)"/>
      <path d="M382.8133 479.625 L366.3133 471.375 L366.3133 487.875 Z" stroke-width="4" clip-path="url(#clipPath2)" stroke="none"/>
      <path fill="none" d="M450.36 479.625 L465.2057 479.625" stroke-width="4" clip-path="url(#clipPath2)"/>
      <path d="M480.3307 479.625 L463.8307 471.375 L463.8307 487.875 Z" stroke-width="4" clip-path="url(#clipPath2)" stroke="none"/>
      <path fill="none" stroke-dasharray="18,6" d="M666.5627 515.252 L622.6461 550.2957" stroke-width="3" clip-path="url(#clipPath2)"/>
      <path fill="none" stroke-dasharray="18,6" d="M757.6461 515.6707 L802.0834 550.5953" stroke-width="3" clip-path="url(#clipPath2)"/>
    </g>
    <g stroke-linecap="butt" transform="matrix(1,0,0,1,-285,-429)" fill-opacity="0.498" fill="rgb(0,128,0)" text-rendering="geometricPrecision" shape-rendering="geometricPrecision" stroke="rgb(0,128,0)" stroke-width="4" stroke-opacity="0.498" stroke-miterlimit="1.45">
      <path fill="none" d="M713.16 621.875 L713.16 652.7379" clip-path="url(#clipPath2)"/>
      <path d="M713.16 667.8629 L721.41 651.3629 L704.91 651.3629 Z" clip-path="url(#clipPath2)" stroke="none"/>
    </g>
    <g text-rendering="geometricPrecision" stroke-miterlimit="1.45" stroke-width="4" shape-rendering="geometricPrecision" transform="matrix(1,0,0,1,-285,-429)" stroke-linecap="butt">
      <path fill="none" d="M446.95 716.875 L461.825 716.875" clip-path="url(#clipPath2)"/>
      <path d="M476.95 716.875 L460.45 708.625 L460.45 725.125 Z" clip-path="url(#clipPath2)" stroke="none"/>
      <path fill="none" d="M544.45 716.875 L559.325 716.875" clip-path="url(#clipPath2)"/>
      <path d="M574.45 716.875 L557.95 708.625 L557.95 725.125 Z" clip-path="url(#clipPath2)" stroke="none"/>
      <path fill="none" d="M641.95 716.875 L656.7957 716.875" clip-path="url(#clipPath2)"/>
      <path d="M671.9207 716.875 L655.4207 708.625 L655.4207 725.125 Z" clip-path="url(#clipPath2)" stroke="none"/>
      <path fill="none" d="M739.45 716.875 L761.95 716.875 L761.95 726.75" clip-path="url(#clipPath2)"/>
      <path d="M761.95 741.875 L770.2 725.375 L753.7 725.375 Z" clip-path="url(#clipPath2)" stroke="none"/>
    </g>
  </g>
</svg>
