<?xml version="1.0" encoding="UTF-8"?><svg xmlns="http://www.w3.org/2000/svg" xmlns:xlink="http://www.w3.org/1999/xlink" fill-opacity="1" color-rendering="auto" color-interpolation="auto" text-rendering="auto" stroke="black" stroke-linecap="square" width="673" stroke-miterlimit="10" shape-rendering="auto" stroke-opacity="1" fill="black" stroke-dasharray="none" font-weight="normal" stroke-width="1" height="353" font-family="'Dialog'" font-style="normal" stroke-linejoin="miter" font-size="12px" stroke-dashoffset="0" image-rendering="auto">
  <!--Generated by ySVG 2.5-->
  <defs id="genericDefs"/>
  <g>
    <defs id="defs1">
      <clipPath clipPathUnits="userSpaceOnUse" id="clipPath1">
        <path d="M0 0 L673 0 L673 353 L0 353 L0 0 Z"/>
      </clipPath>
      <clipPath clipPathUnits="userSpaceOnUse" id="clipPath2">
        <path d="M119 327 L792 327 L792 680 L119 680 L119 327 Z"/>
      </clipPath>
    </defs>
    <g transform="matrix(1,0,0,1,-119,-327)" fill-opacity="0.498" fill="rgb(255,102,0)" text-rendering="geometricPrecision" shape-rendering="geometricPrecision" stroke="rgb(255,102,0)" stroke-opacity="0.498">
      <rect x="377.93" width="50" height="50" y="353.375" clip-path="url(#clipPath2)" stroke="none"/>
    </g>
    <g text-rendering="geometricPrecision" stroke-miterlimit="1.45" shape-rendering="geometricPrecision" transform="matrix(1,0,0,1,-119,-327)" stroke-linecap="butt">
      <rect fill="none" x="377.93" width="50" height="50" y="353.375" clip-path="url(#clipPath2)"/>
      <text x="391.8069" font-size="20px" y="386.2314" clip-path="url(#clipPath2)" font-family="sans-serif" stroke="none" xml:space="preserve">33</text>
    </g>
    <g transform="matrix(1,0,0,1,-119,-327)" fill-opacity="0.498" fill="rgb(255,102,0)" text-rendering="geometricPrecision" shape-rendering="geometricPrecision" stroke="rgb(255,102,0)" stroke-opacity="0.498">
      <rect x="427.93" width="25" height="50" y="353.375" clip-path="url(#clipPath2)" stroke="none"/>
    </g>
    <g text-rendering="geometricPrecision" stroke-miterlimit="1.45" shape-rendering="geometricPrecision" transform="matrix(1,0,0,1,-119,-327)" stroke-linecap="butt">
      <rect fill="none" x="427.93" width="25" height="50" y="353.375" clip-path="url(#clipPath2)"/>
    </g>
    <g transform="matrix(1,0,0,1,-119,-327)" fill-opacity="0.498" fill="rgb(0,128,0)" text-rendering="geometricPrecision" shape-rendering="geometricPrecision" stroke="rgb(0,128,0)" stroke-opacity="0.498">
      <rect x="475.43" width="50" height="50" y="353.375" clip-path="url(#clipPath2)" stroke="none"/>
    </g>
    <g text-rendering="geometricPrecision" stroke-miterlimit="1.45" shape-rendering="geometricPrecision" transform="matrix(1,0,0,1,-119,-327)" stroke-linecap="butt">
      <rect fill="none" x="475.43" width="50" height="50" y="353.375" clip-path="url(#clipPath2)"/>
      <text x="489.3069" font-size="20px" y="386.2314" clip-path="url(#clipPath2)" font-family="sans-serif" stroke="none" xml:space="preserve">76</text>
    </g>
    <g transform="matrix(1,0,0,1,-119,-327)" fill-opacity="0.498" fill="rgb(0,128,0)" text-rendering="geometricPrecision" shape-rendering="geometricPrecision" stroke="rgb(0,128,0)" stroke-opacity="0.498">
      <rect x="525.43" width="25" height="50" y="353.375" clip-path="url(#clipPath2)" stroke="none"/>
    </g>
    <g text-rendering="geometricPrecision" stroke-miterlimit="1.45" shape-rendering="geometricPrecision" transform="matrix(1,0,0,1,-119,-327)" stroke-linecap="butt">
      <rect fill="none" x="525.43" width="25" height="50" y="353.375" clip-path="url(#clipPath2)"/>
    </g>
    <g transform="matrix(1,0,0,1,-119,-327)" fill-opacity="0.498" fill="rgb(0,0,255)" text-rendering="geometricPrecision" shape-rendering="geometricPrecision" stroke="rgb(0,0,255)" stroke-opacity="0.498">
      <rect x="572.93" width="50" height="50" y="353.375" clip-path="url(#clipPath2)" stroke="none"/>
    </g>
    <g text-rendering="geometricPrecision" stroke-miterlimit="1.45" shape-rendering="geometricPrecision" transform="matrix(1,0,0,1,-119,-327)" stroke-linecap="butt">
      <rect fill="none" x="572.93" width="50" height="50" y="353.375" clip-path="url(#clipPath2)"/>
      <text x="586.8069" font-size="20px" y="386.2314" clip-path="url(#clipPath2)" font-family="sans-serif" stroke="none" xml:space="preserve">23</text>
    </g>
    <g transform="matrix(1,0,0,1,-119,-327)" fill-opacity="0.498" fill="rgb(0,0,255)" text-rendering="geometricPrecision" shape-rendering="geometricPrecision" stroke="rgb(0,0,255)" stroke-opacity="0.498">
      <rect x="622.93" width="25" height="50" y="353.375" clip-path="url(#clipPath2)" stroke="none"/>
    </g>
    <g text-rendering="geometricPrecision" stroke-miterlimit="1.45" shape-rendering="geometricPrecision" transform="matrix(1,0,0,1,-119,-327)" stroke-linecap="butt">
      <rect fill="none" x="622.93" width="25" height="50" y="353.375" clip-path="url(#clipPath2)"/>
    </g>
    <g transform="matrix(1,0,0,1,-119,-327)" fill-opacity="0.498" fill="rgb(181,35,196)" text-rendering="geometricPrecision" shape-rendering="geometricPrecision" stroke="rgb(181,35,196)" stroke-opacity="0.498">
      <rect x="670.43" width="50" height="50" y="353.375" clip-path="url(#clipPath2)" stroke="none"/>
    </g>
    <g text-rendering="geometricPrecision" stroke-miterlimit="1.45" shape-rendering="geometricPrecision" transform="matrix(1,0,0,1,-119,-327)" stroke-linecap="butt">
      <rect fill="none" x="670.43" width="50" height="50" y="353.375" clip-path="url(#clipPath2)"/>
      <text x="684.3069" font-size="20px" y="386.2314" clip-path="url(#clipPath2)" font-family="sans-serif" stroke="none" xml:space="preserve">55</text>
    </g>
    <g transform="matrix(1,0,0,1,-119,-327)" fill-opacity="0.498" fill="rgb(181,35,196)" text-rendering="geometricPrecision" shape-rendering="geometricPrecision" stroke="rgb(181,35,196)" stroke-opacity="0.498">
      <rect x="720.43" width="25" height="50" y="353.375" clip-path="url(#clipPath2)" stroke="none"/>
    </g>
    <g text-rendering="geometricPrecision" stroke-miterlimit="1.45" shape-rendering="geometricPrecision" transform="matrix(1,0,0,1,-119,-327)" stroke-linecap="butt">
      <rect fill="none" x="720.43" width="25" height="50" y="353.375" clip-path="url(#clipPath2)"/>
      <circle fill="none" r="10" clip-path="url(#clipPath2)" cx="757.93" cy="413.375"/>
      <text x="753.7625" font-size="10px" y="417.3032" clip-path="url(#clipPath2)" font-family="sans-serif" stroke="none" xml:space="preserve">///</text>
    </g>
    <g transform="matrix(1,0,0,1,-119,-327)" fill-opacity="0.498" fill="rgb(255,0,0)" text-rendering="geometricPrecision" shape-rendering="geometricPrecision" stroke="rgb(255,0,0)" stroke-opacity="0.498">
      <rect x="198.37" width="58.16" height="30" y="363.375" clip-path="url(#clipPath2)" stroke="none"/>
    </g>
    <g text-rendering="geometricPrecision" stroke-miterlimit="1.45" shape-rendering="geometricPrecision" transform="matrix(1,0,0,1,-119,-327)" stroke-linecap="butt">
      <rect fill="none" x="198.37" width="58.16" height="30" y="363.375" clip-path="url(#clipPath2)"/>
      <text x="202.4353" font-size="20px" y="386.2314" clip-path="url(#clipPath2)" font-family="sans-serif" stroke="none" xml:space="preserve">Lnum</text>
    </g>
    <g transform="matrix(1,0,0,1,-119,-327)" fill-opacity="0.498" fill="rgb(255,0,0)" text-rendering="geometricPrecision" shape-rendering="geometricPrecision" stroke="rgb(255,0,0)" stroke-opacity="0.498">
      <rect x="280.43" width="50" height="50" y="353.375" clip-path="url(#clipPath2)" stroke="none"/>
    </g>
    <g text-rendering="geometricPrecision" stroke-miterlimit="1.45" shape-rendering="geometricPrecision" transform="matrix(1,0,0,1,-119,-327)" stroke-linecap="butt">
      <rect fill="none" x="280.43" width="50" height="50" y="353.375" clip-path="url(#clipPath2)"/>
      <text x="294.3069" font-size="20px" y="386.2314" clip-path="url(#clipPath2)" font-family="sans-serif" stroke="none" xml:space="preserve">16</text>
    </g>
    <g transform="matrix(1,0,0,1,-119,-327)" fill-opacity="0.498" fill="rgb(255,0,0)" text-rendering="geometricPrecision" shape-rendering="geometricPrecision" stroke="rgb(255,0,0)" stroke-opacity="0.498">
      <rect x="330.43" width="25" height="50" y="353.375" clip-path="url(#clipPath2)" stroke="none"/>
    </g>
    <g text-rendering="geometricPrecision" stroke-miterlimit="1.45" shape-rendering="geometricPrecision" transform="matrix(1,0,0,1,-119,-327)" stroke-linecap="butt">
      <rect fill="none" x="330.43" width="25" height="50" y="353.375" clip-path="url(#clipPath2)"/>
    </g>
    <g fill="rgb(255,204,0)" text-rendering="geometricPrecision" shape-rendering="geometricPrecision" transform="matrix(1,0,0,1,-119,-327)" stroke="rgb(255,204,0)">
      <rect x="134.98" width="184.94" height="71.25" y="449.375" clip-path="url(#clipPath2)" stroke="none"/>
    </g>
    <g text-rendering="geometricPrecision" stroke-miterlimit="1.45" shape-rendering="geometricPrecision" transform="matrix(1,0,0,1,-119,-327)" stroke-linecap="butt">
      <rect fill="none" x="134.98" width="184.94" height="71.25" y="449.375" clip-path="url(#clipPath2)"/>
      <text x="174.9207" font-size="20px" y="492.8564" clip-path="url(#clipPath2)" font-family="sans-serif" stroke="none" xml:space="preserve">Mapa: x + 3</text>
      <rect x="180.575" y="342.75" clip-path="url(#clipPath2)" fill="none" width="93.75" stroke-dasharray="18,6" height="71.25" stroke-width="3"/>
      <rect fill="none" x="263.98" width="512.94" height="98" y="566.625" clip-path="url(#clipPath2)"/>
      <path fill="none" d="M445.43 378.375 L460.305 378.375" stroke-width="4" clip-path="url(#clipPath2)"/>
      <path d="M475.43 378.375 L458.93 370.125 L458.93 386.625 Z" stroke-width="4" clip-path="url(#clipPath2)" stroke="none"/>
      <path fill="none" d="M542.93 378.375 L557.805 378.375" stroke-width="4" clip-path="url(#clipPath2)"/>
      <path d="M572.93 378.375 L556.43 370.125 L556.43 386.625 Z" stroke-width="4" clip-path="url(#clipPath2)" stroke="none"/>
      <path fill="none" d="M640.43 378.375 L655.305 378.375" stroke-width="4" clip-path="url(#clipPath2)"/>
      <path d="M670.43 378.375 L653.93 370.125 L653.93 386.625 Z" stroke-width="4" clip-path="url(#clipPath2)" stroke="none"/>
      <path fill="none" d="M737.93 378.375 L757.93 378.375 L757.93 388.25" stroke-width="4" clip-path="url(#clipPath2)"/>
      <path d="M757.93 403.375 L766.18 386.875 L749.68 386.875 Z" stroke-width="4" clip-path="url(#clipPath2)" stroke="none"/>
      <path fill="none" d="M256.53 378.375 L265.2583 378.375" stroke-width="4" clip-path="url(#clipPath2)"/>
      <path d="M280.3833 378.375 L263.8833 370.125 L263.8833 386.625 Z" stroke-width="4" clip-path="url(#clipPath2)" stroke="none"/>
      <path fill="none" d="M347.93 378.375 L362.7757 378.375" stroke-width="4" clip-path="url(#clipPath2)"/>
      <path d="M377.9007 378.375 L361.4007 370.125 L361.4007 386.625 Z" stroke-width="4" clip-path="url(#clipPath2)" stroke="none"/>
      <path fill="none" stroke-dasharray="18,6" d="M180.8527 414.002 L136.9361 449.0456" stroke-width="3" clip-path="url(#clipPath2)"/>
      <path fill="none" stroke-dasharray="18,6" d="M271.9361 414.4206 L316.3734 449.3453" stroke-width="3" clip-path="url(#clipPath2)"/>
      <path fill="none" d="M227.45 520.625 L227.45 538.2969 L227.45 612.0469 L248.8654 612.0469" stroke-width="4" clip-path="url(#clipPath2)"/>
      <path d="M263.9904 612.0469 L247.4904 603.7969 L247.4904 620.2969 Z" stroke-width="4" clip-path="url(#clipPath2)" stroke="none"/>
    </g>
  </g>
</svg>
