<?xml version="1.0" encoding="UTF-8"?><svg xmlns="http://www.w3.org/2000/svg" xmlns:xlink="http://www.w3.org/1999/xlink" fill-opacity="1" color-rendering="auto" color-interpolation="auto" text-rendering="auto" stroke="black" stroke-linecap="square" width="600" stroke-miterlimit="10" shape-rendering="auto" stroke-opacity="1" fill="black" stroke-dasharray="none" font-weight="normal" stroke-width="1" height="342" font-family="'Dialog'" font-style="normal" stroke-linejoin="miter" font-size="12px" stroke-dashoffset="0" image-rendering="auto">
  <!--Generated by ySVG 2.5-->
  <defs id="genericDefs"/>
  <g>
    <defs id="defs1">
      <clipPath clipPathUnits="userSpaceOnUse" id="clipPath1">
        <path d="M0 0 L600 0 L600 342 L0 342 L0 0 Z"/>
      </clipPath>
      <clipPath clipPathUnits="userSpaceOnUse" id="clipPath2">
        <path d="M188 332 L788 332 L788 674 L188 674 L188 332 Z"/>
      </clipPath>
    </defs>
    <g transform="matrix(1,0,0,1,-188,-332)" fill-opacity="0.498" fill="rgb(255,102,0)" text-rendering="geometricPrecision" shape-rendering="geometricPrecision" stroke="rgb(255,102,0)" stroke-opacity="0.498">
      <rect x="382.93" width="50" height="50" y="358.375" clip-path="url(#clipPath2)" stroke="none"/>
    </g>
    <g text-rendering="geometricPrecision" stroke-miterlimit="1.45" shape-rendering="geometricPrecision" transform="matrix(1,0,0,1,-188,-332)" stroke-linecap="butt">
      <rect fill="none" x="382.93" width="50" height="50" y="358.375" clip-path="url(#clipPath2)"/>
      <text x="396.8069" font-size="20px" y="391.2314" clip-path="url(#clipPath2)" font-family="sans-serif" stroke="none" xml:space="preserve">33</text>
    </g>
    <g transform="matrix(1,0,0,1,-188,-332)" fill-opacity="0.498" fill="rgb(255,102,0)" text-rendering="geometricPrecision" shape-rendering="geometricPrecision" stroke="rgb(255,102,0)" stroke-opacity="0.498">
      <rect x="432.93" width="25" height="50" y="358.375" clip-path="url(#clipPath2)" stroke="none"/>
    </g>
    <g text-rendering="geometricPrecision" stroke-miterlimit="1.45" shape-rendering="geometricPrecision" transform="matrix(1,0,0,1,-188,-332)" stroke-linecap="butt">
      <rect fill="none" x="432.93" width="25" height="50" y="358.375" clip-path="url(#clipPath2)"/>
    </g>
    <g transform="matrix(1,0,0,1,-188,-332)" fill-opacity="0.498" fill="rgb(0,128,0)" text-rendering="geometricPrecision" shape-rendering="geometricPrecision" stroke="rgb(0,128,0)" stroke-opacity="0.498">
      <rect x="480.43" width="50" height="50" y="358.375" clip-path="url(#clipPath2)" stroke="none"/>
    </g>
    <g text-rendering="geometricPrecision" stroke-miterlimit="1.45" shape-rendering="geometricPrecision" transform="matrix(1,0,0,1,-188,-332)" stroke-linecap="butt">
      <rect fill="none" x="480.43" width="50" height="50" y="358.375" clip-path="url(#clipPath2)"/>
      <text x="494.3069" font-size="20px" y="391.2314" clip-path="url(#clipPath2)" font-family="sans-serif" stroke="none" xml:space="preserve">76</text>
    </g>
    <g transform="matrix(1,0,0,1,-188,-332)" fill-opacity="0.498" fill="rgb(0,128,0)" text-rendering="geometricPrecision" shape-rendering="geometricPrecision" stroke="rgb(0,128,0)" stroke-opacity="0.498">
      <rect x="530.43" width="25" height="50" y="358.375" clip-path="url(#clipPath2)" stroke="none"/>
    </g>
    <g text-rendering="geometricPrecision" stroke-miterlimit="1.45" shape-rendering="geometricPrecision" transform="matrix(1,0,0,1,-188,-332)" stroke-linecap="butt">
      <rect fill="none" x="530.43" width="25" height="50" y="358.375" clip-path="url(#clipPath2)"/>
    </g>
    <g transform="matrix(1,0,0,1,-188,-332)" fill-opacity="0.498" fill="rgb(0,0,255)" text-rendering="geometricPrecision" shape-rendering="geometricPrecision" stroke="rgb(0,0,255)" stroke-opacity="0.498">
      <rect x="577.93" width="50" height="50" y="358.375" clip-path="url(#clipPath2)" stroke="none"/>
    </g>
    <g text-rendering="geometricPrecision" stroke-miterlimit="1.45" shape-rendering="geometricPrecision" transform="matrix(1,0,0,1,-188,-332)" stroke-linecap="butt">
      <rect fill="none" x="577.93" width="50" height="50" y="358.375" clip-path="url(#clipPath2)"/>
      <text x="591.8069" font-size="20px" y="391.2314" clip-path="url(#clipPath2)" font-family="sans-serif" stroke="none" xml:space="preserve">23</text>
    </g>
    <g transform="matrix(1,0,0,1,-188,-332)" fill-opacity="0.498" fill="rgb(0,0,255)" text-rendering="geometricPrecision" shape-rendering="geometricPrecision" stroke="rgb(0,0,255)" stroke-opacity="0.498">
      <rect x="627.93" width="25" height="50" y="358.375" clip-path="url(#clipPath2)" stroke="none"/>
    </g>
    <g text-rendering="geometricPrecision" stroke-miterlimit="1.45" shape-rendering="geometricPrecision" transform="matrix(1,0,0,1,-188,-332)" stroke-linecap="butt">
      <rect fill="none" x="627.93" width="25" height="50" y="358.375" clip-path="url(#clipPath2)"/>
    </g>
    <g transform="matrix(1,0,0,1,-188,-332)" fill-opacity="0.498" fill="rgb(181,35,196)" text-rendering="geometricPrecision" shape-rendering="geometricPrecision" stroke="rgb(181,35,196)" stroke-opacity="0.498">
      <rect x="675.43" width="50" height="50" y="358.375" clip-path="url(#clipPath2)" stroke="none"/>
    </g>
    <g text-rendering="geometricPrecision" stroke-miterlimit="1.45" shape-rendering="geometricPrecision" transform="matrix(1,0,0,1,-188,-332)" stroke-linecap="butt">
      <rect fill="none" x="675.43" width="50" height="50" y="358.375" clip-path="url(#clipPath2)"/>
      <text x="689.3069" font-size="20px" y="391.2314" clip-path="url(#clipPath2)" font-family="sans-serif" stroke="none" xml:space="preserve">55</text>
    </g>
    <g transform="matrix(1,0,0,1,-188,-332)" fill-opacity="0.498" fill="rgb(181,35,196)" text-rendering="geometricPrecision" shape-rendering="geometricPrecision" stroke="rgb(181,35,196)" stroke-opacity="0.498">
      <rect x="725.43" width="25" height="50" y="358.375" clip-path="url(#clipPath2)" stroke="none"/>
    </g>
    <g text-rendering="geometricPrecision" stroke-miterlimit="1.45" shape-rendering="geometricPrecision" transform="matrix(1,0,0,1,-188,-332)" stroke-linecap="butt">
      <rect fill="none" x="725.43" width="25" height="50" y="358.375" clip-path="url(#clipPath2)"/>
      <circle fill="none" r="10" clip-path="url(#clipPath2)" cx="762.93" cy="418.375"/>
      <text x="758.7625" font-size="10px" y="422.3032" clip-path="url(#clipPath2)" font-family="sans-serif" stroke="none" xml:space="preserve">///</text>
    </g>
    <g transform="matrix(1,0,0,1,-188,-332)" fill-opacity="0.498" fill="rgb(255,0,0)" text-rendering="geometricPrecision" shape-rendering="geometricPrecision" stroke="rgb(255,0,0)" stroke-opacity="0.498">
      <rect x="203.37" width="58.16" height="30" y="368.375" clip-path="url(#clipPath2)" stroke="none"/>
    </g>
    <g text-rendering="geometricPrecision" stroke-miterlimit="1.45" shape-rendering="geometricPrecision" transform="matrix(1,0,0,1,-188,-332)" stroke-linecap="butt">
      <rect fill="none" x="203.37" width="58.16" height="30" y="368.375" clip-path="url(#clipPath2)"/>
      <text x="207.4353" font-size="20px" y="391.2314" clip-path="url(#clipPath2)" font-family="sans-serif" stroke="none" xml:space="preserve">Lnum</text>
    </g>
    <g transform="matrix(1,0,0,1,-188,-332)" fill-opacity="0.498" fill="rgb(255,0,0)" text-rendering="geometricPrecision" shape-rendering="geometricPrecision" stroke="rgb(255,0,0)" stroke-opacity="0.498">
      <rect x="285.43" width="50" height="50" y="358.375" clip-path="url(#clipPath2)" stroke="none"/>
    </g>
    <g text-rendering="geometricPrecision" stroke-miterlimit="1.45" shape-rendering="geometricPrecision" transform="matrix(1,0,0,1,-188,-332)" stroke-linecap="butt">
      <rect fill="none" x="285.43" width="50" height="50" y="358.375" clip-path="url(#clipPath2)"/>
      <text x="299.3069" font-size="20px" y="391.2314" clip-path="url(#clipPath2)" font-family="sans-serif" stroke="none" xml:space="preserve">16</text>
    </g>
    <g transform="matrix(1,0,0,1,-188,-332)" fill-opacity="0.498" fill="rgb(255,0,0)" text-rendering="geometricPrecision" shape-rendering="geometricPrecision" stroke="rgb(255,0,0)" stroke-opacity="0.498">
      <rect x="335.43" width="25" height="50" y="358.375" clip-path="url(#clipPath2)" stroke="none"/>
    </g>
    <g text-rendering="geometricPrecision" stroke-miterlimit="1.45" shape-rendering="geometricPrecision" transform="matrix(1,0,0,1,-188,-332)" stroke-linecap="butt">
      <rect fill="none" x="335.43" width="25" height="50" y="358.375" clip-path="url(#clipPath2)"/>
    </g>
    <g fill="rgb(255,204,0)" text-rendering="geometricPrecision" shape-rendering="geometricPrecision" transform="matrix(1,0,0,1,-188,-332)" stroke="rgb(255,204,0)">
      <rect x="226.98" width="184.94" height="71.25" y="454.375" clip-path="url(#clipPath2)" stroke="none"/>
    </g>
    <g text-rendering="geometricPrecision" stroke-miterlimit="1.45" shape-rendering="geometricPrecision" transform="matrix(1,0,0,1,-188,-332)" stroke-linecap="butt">
      <rect fill="none" x="226.98" width="184.94" height="71.25" y="454.375" clip-path="url(#clipPath2)"/>
      <text x="258.5906" font-size="20px" y="497.8564" clip-path="url(#clipPath2)" font-family="sans-serif" stroke="none" xml:space="preserve">Filtro: x &gt; 50?</text>
      <rect x="272.575" y="347.75" clip-path="url(#clipPath2)" fill="none" width="93.75" stroke-dasharray="18,6" height="71.25" stroke-width="3"/>
      <rect fill="none" x="226.98" width="184.94" height="98" y="561" clip-path="url(#clipPath2)"/>
      <path fill="none" d="M450.43 383.375 L465.305 383.375" stroke-width="4" clip-path="url(#clipPath2)"/>
      <path d="M480.43 383.375 L463.93 375.125 L463.93 391.625 Z" stroke-width="4" clip-path="url(#clipPath2)" stroke="none"/>
      <path fill="none" d="M547.93 383.375 L562.805 383.375" stroke-width="4" clip-path="url(#clipPath2)"/>
      <path d="M577.93 383.375 L561.43 375.125 L561.43 391.625 Z" stroke-width="4" clip-path="url(#clipPath2)" stroke="none"/>
      <path fill="none" d="M645.43 383.375 L660.305 383.375" stroke-width="4" clip-path="url(#clipPath2)"/>
      <path d="M675.43 383.375 L658.93 375.125 L658.93 391.625 Z" stroke-width="4" clip-path="url(#clipPath2)" stroke="none"/>
      <path fill="none" d="M742.93 383.375 L762.93 383.375 L762.93 393.25" stroke-width="4" clip-path="url(#clipPath2)"/>
      <path d="M762.93 408.375 L771.18 391.875 L754.68 391.875 Z" stroke-width="4" clip-path="url(#clipPath2)" stroke="none"/>
      <path fill="none" d="M261.53 383.375 L270.2583 383.375" stroke-width="4" clip-path="url(#clipPath2)"/>
      <path d="M285.3833 383.375 L268.8833 375.125 L268.8833 391.625 Z" stroke-width="4" clip-path="url(#clipPath2)" stroke="none"/>
      <path fill="none" d="M352.93 383.375 L367.7757 383.375" stroke-width="4" clip-path="url(#clipPath2)"/>
      <path d="M382.9007 383.375 L366.4007 375.125 L366.4007 391.625 Z" stroke-width="4" clip-path="url(#clipPath2)" stroke="none"/>
      <path fill="none" stroke-dasharray="18,6" d="M272.8528 419.002 L228.9361 454.0456" stroke-width="3" clip-path="url(#clipPath2)"/>
      <path fill="none" stroke-dasharray="18,6" d="M363.9361 419.4206 L408.3734 454.3453" stroke-width="3" clip-path="url(#clipPath2)"/>
    </g>
    <g stroke-linecap="butt" transform="matrix(1,0,0,1,-188,-332)" fill-opacity="0.498" fill="rgb(255,0,0)" text-rendering="geometricPrecision" shape-rendering="geometricPrecision" stroke="rgb(255,0,0)" stroke-width="4" stroke-opacity="0.498" stroke-miterlimit="1.45">
      <path fill="none" d="M319.45 525.625 L319.45 545.8405" clip-path="url(#clipPath2)"/>
      <path d="M319.45 560.9655 L327.7 544.4655 L311.2 544.4655 Z" clip-path="url(#clipPath2)" stroke="none"/>
    </g>
  </g>
</svg>
