<?xml version="1.0" encoding="UTF-8"?><svg xmlns="http://www.w3.org/2000/svg" xmlns:xlink="http://www.w3.org/1999/xlink" fill-opacity="1" color-rendering="auto" color-interpolation="auto" text-rendering="auto" stroke="black" stroke-linecap="square" width="610" stroke-miterlimit="10" shape-rendering="auto" stroke-opacity="1" fill="black" stroke-dasharray="none" font-weight="normal" stroke-width="1" height="352" font-family="'Dialog'" font-style="normal" stroke-linejoin="miter" font-size="12px" stroke-dashoffset="0" image-rendering="auto">
  <!--Generated by ySVG 2.5-->
  <defs id="genericDefs"/>
  <g>
    <defs id="defs1">
      <clipPath clipPathUnits="userSpaceOnUse" id="clipPath1">
        <path d="M0 0 L610 0 L610 352 L0 352 L0 0 Z"/>
      </clipPath>
      <clipPath clipPathUnits="userSpaceOnUse" id="clipPath2">
        <path d="M234 379 L844 379 L844 731 L234 731 L234 379 Z"/>
      </clipPath>
    </defs>
    <g transform="matrix(1,0,0,1,-234,-379)" fill-opacity="0.498" fill="rgb(255,102,0)" text-rendering="geometricPrecision" shape-rendering="geometricPrecision" stroke="rgb(255,102,0)" stroke-opacity="0.498">
      <rect x="429.26" width="50" height="50" y="404.625" clip-path="url(#clipPath2)" stroke="none"/>
    </g>
    <g text-rendering="geometricPrecision" stroke-miterlimit="1.45" shape-rendering="geometricPrecision" transform="matrix(1,0,0,1,-234,-379)" stroke-linecap="butt">
      <rect fill="none" x="429.26" width="50" height="50" y="404.625" clip-path="url(#clipPath2)"/>
      <text x="443.137" font-size="20px" y="437.4814" clip-path="url(#clipPath2)" font-family="sans-serif" stroke="none" xml:space="preserve">33</text>
    </g>
    <g transform="matrix(1,0,0,1,-234,-379)" fill-opacity="0.498" fill="rgb(255,102,0)" text-rendering="geometricPrecision" shape-rendering="geometricPrecision" stroke="rgb(255,102,0)" stroke-opacity="0.498">
      <rect x="479.26" width="25" height="50" y="404.625" clip-path="url(#clipPath2)" stroke="none"/>
    </g>
    <g text-rendering="geometricPrecision" stroke-miterlimit="1.45" shape-rendering="geometricPrecision" transform="matrix(1,0,0,1,-234,-379)" stroke-linecap="butt">
      <rect fill="none" x="479.26" width="25" height="50" y="404.625" clip-path="url(#clipPath2)"/>
    </g>
    <g transform="matrix(1,0,0,1,-234,-379)" fill-opacity="0.498" fill="rgb(0,128,0)" text-rendering="geometricPrecision" shape-rendering="geometricPrecision" stroke="rgb(0,128,0)" stroke-opacity="0.498">
      <rect x="526.76" width="50" height="50" y="404.625" clip-path="url(#clipPath2)" stroke="none"/>
    </g>
    <g text-rendering="geometricPrecision" stroke-miterlimit="1.45" shape-rendering="geometricPrecision" transform="matrix(1,0,0,1,-234,-379)" stroke-linecap="butt">
      <rect fill="none" x="526.76" width="50" height="50" y="404.625" clip-path="url(#clipPath2)"/>
      <text x="540.637" font-size="20px" y="437.4814" clip-path="url(#clipPath2)" font-family="sans-serif" stroke="none" xml:space="preserve">76</text>
    </g>
    <g transform="matrix(1,0,0,1,-234,-379)" fill-opacity="0.498" fill="rgb(0,128,0)" text-rendering="geometricPrecision" shape-rendering="geometricPrecision" stroke="rgb(0,128,0)" stroke-opacity="0.498">
      <rect x="576.76" width="25" height="50" y="404.625" clip-path="url(#clipPath2)" stroke="none"/>
    </g>
    <g text-rendering="geometricPrecision" stroke-miterlimit="1.45" shape-rendering="geometricPrecision" transform="matrix(1,0,0,1,-234,-379)" stroke-linecap="butt">
      <rect fill="none" x="576.76" width="25" height="50" y="404.625" clip-path="url(#clipPath2)"/>
    </g>
    <g transform="matrix(1,0,0,1,-234,-379)" fill-opacity="0.498" fill="rgb(0,0,255)" text-rendering="geometricPrecision" shape-rendering="geometricPrecision" stroke="rgb(0,0,255)" stroke-opacity="0.498">
      <rect x="624.26" width="50" height="50" y="404.625" clip-path="url(#clipPath2)" stroke="none"/>
    </g>
    <g text-rendering="geometricPrecision" stroke-miterlimit="1.45" shape-rendering="geometricPrecision" transform="matrix(1,0,0,1,-234,-379)" stroke-linecap="butt">
      <rect fill="none" x="624.26" width="50" height="50" y="404.625" clip-path="url(#clipPath2)"/>
      <text x="638.137" font-size="20px" y="437.4814" clip-path="url(#clipPath2)" font-family="sans-serif" stroke="none" xml:space="preserve">23</text>
    </g>
    <g transform="matrix(1,0,0,1,-234,-379)" fill-opacity="0.498" fill="rgb(0,0,255)" text-rendering="geometricPrecision" shape-rendering="geometricPrecision" stroke="rgb(0,0,255)" stroke-opacity="0.498">
      <rect x="674.26" width="25" height="50" y="404.625" clip-path="url(#clipPath2)" stroke="none"/>
    </g>
    <g text-rendering="geometricPrecision" stroke-miterlimit="1.45" shape-rendering="geometricPrecision" transform="matrix(1,0,0,1,-234,-379)" stroke-linecap="butt">
      <rect fill="none" x="674.26" width="25" height="50" y="404.625" clip-path="url(#clipPath2)"/>
    </g>
    <g transform="matrix(1,0,0,1,-234,-379)" fill-opacity="0.498" fill="rgb(181,35,196)" text-rendering="geometricPrecision" shape-rendering="geometricPrecision" stroke="rgb(181,35,196)" stroke-opacity="0.498">
      <rect x="721.76" width="50" height="50" y="404.625" clip-path="url(#clipPath2)" stroke="none"/>
    </g>
    <g text-rendering="geometricPrecision" stroke-miterlimit="1.45" shape-rendering="geometricPrecision" transform="matrix(1,0,0,1,-234,-379)" stroke-linecap="butt">
      <rect fill="none" x="721.76" width="50" height="50" y="404.625" clip-path="url(#clipPath2)"/>
      <text x="735.637" font-size="20px" y="437.4814" clip-path="url(#clipPath2)" font-family="sans-serif" stroke="none" xml:space="preserve">55</text>
    </g>
    <g transform="matrix(1,0,0,1,-234,-379)" fill-opacity="0.498" fill="rgb(181,35,196)" text-rendering="geometricPrecision" shape-rendering="geometricPrecision" stroke="rgb(181,35,196)" stroke-opacity="0.498">
      <rect x="771.76" width="25" height="50" y="404.625" clip-path="url(#clipPath2)" stroke="none"/>
    </g>
    <g text-rendering="geometricPrecision" stroke-miterlimit="1.45" shape-rendering="geometricPrecision" transform="matrix(1,0,0,1,-234,-379)" stroke-linecap="butt">
      <rect fill="none" x="771.76" width="25" height="50" y="404.625" clip-path="url(#clipPath2)"/>
      <circle fill="none" r="10" clip-path="url(#clipPath2)" cx="809.26" cy="464.625"/>
      <text x="805.0925" font-size="10px" y="468.5532" clip-path="url(#clipPath2)" font-family="sans-serif" stroke="none" xml:space="preserve">///</text>
    </g>
    <g transform="matrix(1,0,0,1,-234,-379)" fill-opacity="0.498" fill="rgb(255,0,0)" text-rendering="geometricPrecision" shape-rendering="geometricPrecision" stroke="rgb(255,0,0)" stroke-opacity="0.498">
      <rect x="249.7" width="58.16" height="30" y="414.625" clip-path="url(#clipPath2)" stroke="none"/>
    </g>
    <g text-rendering="geometricPrecision" stroke-miterlimit="1.45" shape-rendering="geometricPrecision" transform="matrix(1,0,0,1,-234,-379)" stroke-linecap="butt">
      <rect fill="none" x="249.7" width="58.16" height="30" y="414.625" clip-path="url(#clipPath2)"/>
      <text x="253.7654" font-size="20px" y="437.4814" clip-path="url(#clipPath2)" font-family="sans-serif" stroke="none" xml:space="preserve">Lnum</text>
    </g>
    <g transform="matrix(1,0,0,1,-234,-379)" fill-opacity="0.498" fill="rgb(255,0,0)" text-rendering="geometricPrecision" shape-rendering="geometricPrecision" stroke="rgb(255,0,0)" stroke-opacity="0.498">
      <rect x="331.76" width="50" height="50" y="404.625" clip-path="url(#clipPath2)" stroke="none"/>
    </g>
    <g text-rendering="geometricPrecision" stroke-miterlimit="1.45" shape-rendering="geometricPrecision" transform="matrix(1,0,0,1,-234,-379)" stroke-linecap="butt">
      <rect fill="none" x="331.76" width="50" height="50" y="404.625" clip-path="url(#clipPath2)"/>
      <text x="345.637" font-size="20px" y="437.4814" clip-path="url(#clipPath2)" font-family="sans-serif" stroke="none" xml:space="preserve">16</text>
    </g>
    <g transform="matrix(1,0,0,1,-234,-379)" fill-opacity="0.498" fill="rgb(255,0,0)" text-rendering="geometricPrecision" shape-rendering="geometricPrecision" stroke="rgb(255,0,0)" stroke-opacity="0.498">
      <rect x="381.76" width="25" height="50" y="404.625" clip-path="url(#clipPath2)" stroke="none"/>
    </g>
    <g text-rendering="geometricPrecision" stroke-miterlimit="1.45" shape-rendering="geometricPrecision" transform="matrix(1,0,0,1,-234,-379)" stroke-linecap="butt">
      <rect fill="none" x="381.76" width="25" height="50" y="404.625" clip-path="url(#clipPath2)"/>
    </g>
    <g fill="rgb(255,204,0)" text-rendering="geometricPrecision" shape-rendering="geometricPrecision" transform="matrix(1,0,0,1,-234,-379)" stroke="rgb(255,204,0)">
      <rect x="374.31" width="184.94" height="71.25" y="500.625" clip-path="url(#clipPath2)" stroke="none"/>
    </g>
    <g text-rendering="geometricPrecision" stroke-miterlimit="1.45" shape-rendering="geometricPrecision" transform="matrix(1,0,0,1,-234,-379)" stroke-linecap="butt">
      <rect fill="none" x="374.31" width="184.94" height="71.25" y="500.625" clip-path="url(#clipPath2)"/>
      <text x="414.2507" font-size="20px" y="544.1064" clip-path="url(#clipPath2)" font-family="sans-serif" stroke="none" xml:space="preserve">Mapa: x + 3</text>
      <rect x="419.905" y="394" clip-path="url(#clipPath2)" fill="none" width="93.75" stroke-dasharray="18,6" height="71.25" stroke-width="3"/>
      <rect fill="none" x="315.31" width="512.94" height="98" y="617.875" clip-path="url(#clipPath2)"/>
    </g>
    <g transform="matrix(1,0,0,1,-234,-379)" fill-opacity="0.498" fill="rgb(255,0,0)" text-rendering="geometricPrecision" shape-rendering="geometricPrecision" stroke="rgb(255,0,0)" stroke-opacity="0.498">
      <rect x="328.35" width="50" height="50" y="641.875" clip-path="url(#clipPath2)" stroke="none"/>
    </g>
    <g text-rendering="geometricPrecision" stroke-miterlimit="1.45" shape-rendering="geometricPrecision" transform="matrix(1,0,0,1,-234,-379)" stroke-linecap="butt">
      <rect fill="none" x="328.35" width="50" height="50" y="641.875" clip-path="url(#clipPath2)"/>
      <text x="342.227" font-size="20px" y="674.7314" clip-path="url(#clipPath2)" font-family="sans-serif" stroke="none" xml:space="preserve">19</text>
      <circle fill="none" r="10" clip-path="url(#clipPath2)" cx="515.85" cy="701.875"/>
      <text x="511.6825" font-size="10px" y="705.8032" clip-path="url(#clipPath2)" font-family="sans-serif" stroke="none" xml:space="preserve">///</text>
    </g>
    <g transform="matrix(1,0,0,1,-234,-379)" fill-opacity="0.498" fill="rgb(255,102,0)" text-rendering="geometricPrecision" shape-rendering="geometricPrecision" stroke="rgb(255,102,0)" stroke-opacity="0.498">
      <rect x="425.85" width="50" height="50" y="641.875" clip-path="url(#clipPath2)" stroke="none"/>
    </g>
    <g text-rendering="geometricPrecision" stroke-miterlimit="1.45" shape-rendering="geometricPrecision" transform="matrix(1,0,0,1,-234,-379)" stroke-linecap="butt">
      <rect fill="none" x="425.85" width="50" height="50" y="641.875" clip-path="url(#clipPath2)"/>
      <text x="439.727" font-size="20px" y="674.7314" clip-path="url(#clipPath2)" font-family="sans-serif" stroke="none" xml:space="preserve">36</text>
    </g>
    <g transform="matrix(1,0,0,1,-234,-379)" fill-opacity="0.498" fill="rgb(255,102,0)" text-rendering="geometricPrecision" shape-rendering="geometricPrecision" stroke="rgb(255,102,0)" stroke-opacity="0.498">
      <rect x="475.85" width="25" height="50" y="641.875" clip-path="url(#clipPath2)" stroke="none"/>
    </g>
    <g text-rendering="geometricPrecision" stroke-miterlimit="1.45" shape-rendering="geometricPrecision" transform="matrix(1,0,0,1,-234,-379)" stroke-linecap="butt">
      <rect fill="none" x="475.85" width="25" height="50" y="641.875" clip-path="url(#clipPath2)"/>
    </g>
    <g transform="matrix(1,0,0,1,-234,-379)" fill-opacity="0.498" fill="rgb(255,0,0)" text-rendering="geometricPrecision" shape-rendering="geometricPrecision" stroke="rgb(255,0,0)" stroke-opacity="0.498">
      <rect x="378.35" width="25" height="50" y="641.875" clip-path="url(#clipPath2)" stroke="none"/>
    </g>
    <g text-rendering="geometricPrecision" stroke-miterlimit="1.45" shape-rendering="geometricPrecision" transform="matrix(1,0,0,1,-234,-379)" stroke-linecap="butt">
      <rect fill="none" x="378.35" width="25" height="50" y="641.875" clip-path="url(#clipPath2)"/>
      <path fill="none" d="M496.76 429.625 L511.635 429.625" stroke-width="4" clip-path="url(#clipPath2)"/>
      <path d="M526.76 429.625 L510.26 421.375 L510.26 437.875 Z" stroke-width="4" clip-path="url(#clipPath2)" stroke="none"/>
      <path fill="none" d="M594.26 429.625 L609.135 429.625" stroke-width="4" clip-path="url(#clipPath2)"/>
      <path d="M624.26 429.625 L607.76 421.375 L607.76 437.875 Z" stroke-width="4" clip-path="url(#clipPath2)" stroke="none"/>
      <path fill="none" d="M691.76 429.625 L706.635 429.625" stroke-width="4" clip-path="url(#clipPath2)"/>
      <path d="M721.76 429.625 L705.26 421.375 L705.26 437.875 Z" stroke-width="4" clip-path="url(#clipPath2)" stroke="none"/>
      <path fill="none" d="M789.26 429.625 L809.26 429.625 L809.26 439.5" stroke-width="4" clip-path="url(#clipPath2)"/>
      <path d="M809.26 454.625 L817.51 438.125 L801.01 438.125 Z" stroke-width="4" clip-path="url(#clipPath2)" stroke="none"/>
      <path fill="none" d="M307.86 429.625 L316.5883 429.625" stroke-width="4" clip-path="url(#clipPath2)"/>
      <path d="M331.7133 429.625 L315.2133 421.375 L315.2133 437.875 Z" stroke-width="4" clip-path="url(#clipPath2)" stroke="none"/>
      <path fill="none" d="M399.26 429.625 L414.1057 429.625" stroke-width="4" clip-path="url(#clipPath2)"/>
      <path d="M429.2307 429.625 L412.7307 421.375 L412.7307 437.875 Z" stroke-width="4" clip-path="url(#clipPath2)" stroke="none"/>
      <path fill="none" stroke-dasharray="18,6" d="M420.1827 465.252 L376.2661 500.2956" stroke-width="3" clip-path="url(#clipPath2)"/>
      <path fill="none" stroke-dasharray="18,6" d="M511.2661 465.6706 L555.7034 500.5953" stroke-width="3" clip-path="url(#clipPath2)"/>
    </g>
    <g stroke-linecap="butt" transform="matrix(1,0,0,1,-234,-379)" fill-opacity="0.498" fill="rgb(0,128,0)" text-rendering="geometricPrecision" shape-rendering="geometricPrecision" stroke="rgb(0,128,0)" stroke-width="4" stroke-opacity="0.498" stroke-miterlimit="1.45">
      <path fill="none" d="M466.78 571.875 L466.78 602.7252" clip-path="url(#clipPath2)"/>
      <path d="M466.78 617.8502 L475.03 601.3502 L458.53 601.3502 Z" clip-path="url(#clipPath2)" stroke="none"/>
    </g>
    <g text-rendering="geometricPrecision" stroke-miterlimit="1.45" stroke-width="4" shape-rendering="geometricPrecision" transform="matrix(1,0,0,1,-234,-379)" stroke-linecap="butt">
      <path fill="none" d="M493.35 666.875 L515.85 666.875 L515.85 676.75" clip-path="url(#clipPath2)"/>
      <path d="M515.85 691.875 L524.1 675.375 L507.6 675.375 Z" clip-path="url(#clipPath2)" stroke="none"/>
      <path fill="none" d="M395.85 666.875 L410.725 666.875" clip-path="url(#clipPath2)"/>
      <path d="M425.85 666.875 L409.35 658.625 L409.35 675.125 Z" clip-path="url(#clipPath2)" stroke="none"/>
    </g>
  </g>
</svg>
