<?xml version="1.0" encoding="UTF-8"?><svg xmlns="http://www.w3.org/2000/svg" xmlns:xlink="http://www.w3.org/1999/xlink" fill-opacity="1" color-rendering="auto" color-interpolation="auto" text-rendering="auto" stroke="black" stroke-linecap="square" width="601" stroke-miterlimit="10" shape-rendering="auto" stroke-opacity="1" fill="black" stroke-dasharray="none" font-weight="normal" stroke-width="1" height="327" font-family="'Dialog'" font-style="normal" stroke-linejoin="miter" font-size="12px" stroke-dashoffset="0" image-rendering="auto">
  <!--Generated by ySVG 2.5-->
  <defs id="genericDefs"/>
  <g>
    <defs id="defs1">
      <clipPath clipPathUnits="userSpaceOnUse" id="clipPath1">
        <path d="M0 0 L601 0 L601 327 L0 327 L0 0 Z"/>
      </clipPath>
      <clipPath clipPathUnits="userSpaceOnUse" id="clipPath2">
        <path d="M285 409 L886 409 L886 736 L285 736 L285 409 Z"/>
      </clipPath>
    </defs>
    <g transform="matrix(1,0,0,1,-285,-409)" fill-opacity="0.498" fill="rgb(255,102,0)" text-rendering="geometricPrecision" shape-rendering="geometricPrecision" stroke="rgb(255,102,0)" stroke-opacity="0.498">
      <rect x="480.3859" width="50" height="50" y="469" clip-path="url(#clipPath2)" stroke="none"/>
    </g>
    <g text-rendering="geometricPrecision" stroke-miterlimit="1.45" shape-rendering="geometricPrecision" transform="matrix(1,0,0,1,-285,-409)" stroke-linecap="butt">
      <rect fill="none" x="480.3859" width="50" height="50" y="469" clip-path="url(#clipPath2)"/>
      <text x="494.2628" font-size="20px" y="501.8564" clip-path="url(#clipPath2)" font-family="sans-serif" stroke="none" xml:space="preserve">33</text>
    </g>
    <g transform="matrix(1,0,0,1,-285,-409)" fill-opacity="0.498" fill="rgb(255,102,0)" text-rendering="geometricPrecision" shape-rendering="geometricPrecision" stroke="rgb(255,102,0)" stroke-opacity="0.498">
      <rect x="530.3859" width="25" height="50" y="469" clip-path="url(#clipPath2)" stroke="none"/>
    </g>
    <g text-rendering="geometricPrecision" stroke-miterlimit="1.45" shape-rendering="geometricPrecision" transform="matrix(1,0,0,1,-285,-409)" stroke-linecap="butt">
      <rect fill="none" x="530.3859" width="25" height="50" y="469" clip-path="url(#clipPath2)"/>
    </g>
    <g transform="matrix(1,0,0,1,-285,-409)" fill-opacity="0.498" fill="rgb(0,128,0)" text-rendering="geometricPrecision" shape-rendering="geometricPrecision" stroke="rgb(0,128,0)" stroke-opacity="0.498">
      <rect x="577.8859" width="50" height="50" y="469" clip-path="url(#clipPath2)" stroke="none"/>
    </g>
    <g text-rendering="geometricPrecision" stroke-miterlimit="1.45" shape-rendering="geometricPrecision" transform="matrix(1,0,0,1,-285,-409)" stroke-linecap="butt">
      <rect fill="none" x="577.8859" width="50" height="50" y="469" clip-path="url(#clipPath2)"/>
      <text x="591.7628" font-size="20px" y="501.8564" clip-path="url(#clipPath2)" font-family="sans-serif" stroke="none" xml:space="preserve">76</text>
    </g>
    <g transform="matrix(1,0,0,1,-285,-409)" fill-opacity="0.498" fill="rgb(0,128,0)" text-rendering="geometricPrecision" shape-rendering="geometricPrecision" stroke="rgb(0,128,0)" stroke-opacity="0.498">
      <rect x="627.8859" width="25" height="50" y="469" clip-path="url(#clipPath2)" stroke="none"/>
    </g>
    <g text-rendering="geometricPrecision" stroke-miterlimit="1.45" shape-rendering="geometricPrecision" transform="matrix(1,0,0,1,-285,-409)" stroke-linecap="butt">
      <rect fill="none" x="627.8859" width="25" height="50" y="469" clip-path="url(#clipPath2)"/>
    </g>
    <g transform="matrix(1,0,0,1,-285,-409)" fill-opacity="0.498" fill="rgb(0,0,255)" text-rendering="geometricPrecision" shape-rendering="geometricPrecision" stroke="rgb(0,0,255)" stroke-opacity="0.498">
      <rect x="675.3859" width="50" height="50" y="469" clip-path="url(#clipPath2)" stroke="none"/>
    </g>
    <g text-rendering="geometricPrecision" stroke-miterlimit="1.45" shape-rendering="geometricPrecision" transform="matrix(1,0,0,1,-285,-409)" stroke-linecap="butt">
      <rect fill="none" x="675.3859" width="50" height="50" y="469" clip-path="url(#clipPath2)"/>
      <text x="689.2628" font-size="20px" y="501.8564" clip-path="url(#clipPath2)" font-family="sans-serif" stroke="none" xml:space="preserve">23</text>
    </g>
    <g transform="matrix(1,0,0,1,-285,-409)" fill-opacity="0.498" fill="rgb(0,0,255)" text-rendering="geometricPrecision" shape-rendering="geometricPrecision" stroke="rgb(0,0,255)" stroke-opacity="0.498">
      <rect x="725.3859" width="25" height="50" y="469" clip-path="url(#clipPath2)" stroke="none"/>
    </g>
    <g text-rendering="geometricPrecision" stroke-miterlimit="1.45" shape-rendering="geometricPrecision" transform="matrix(1,0,0,1,-285,-409)" stroke-linecap="butt">
      <rect fill="none" x="725.3859" width="25" height="50" y="469" clip-path="url(#clipPath2)"/>
    </g>
    <g transform="matrix(1,0,0,1,-285,-409)" fill-opacity="0.498" fill="rgb(181,35,196)" text-rendering="geometricPrecision" shape-rendering="geometricPrecision" stroke="rgb(181,35,196)" stroke-opacity="0.498">
      <rect x="772.8859" width="50" height="50" y="469" clip-path="url(#clipPath2)" stroke="none"/>
    </g>
    <g text-rendering="geometricPrecision" stroke-miterlimit="1.45" shape-rendering="geometricPrecision" transform="matrix(1,0,0,1,-285,-409)" stroke-linecap="butt">
      <rect fill="none" x="772.8859" width="50" height="50" y="469" clip-path="url(#clipPath2)"/>
      <text x="786.7628" font-size="20px" y="501.8564" clip-path="url(#clipPath2)" font-family="sans-serif" stroke="none" xml:space="preserve">55</text>
    </g>
    <g transform="matrix(1,0,0,1,-285,-409)" fill-opacity="0.498" fill="rgb(181,35,196)" text-rendering="geometricPrecision" shape-rendering="geometricPrecision" stroke="rgb(181,35,196)" stroke-opacity="0.498">
      <rect x="822.8859" width="25" height="50" y="469" clip-path="url(#clipPath2)" stroke="none"/>
    </g>
    <g text-rendering="geometricPrecision" stroke-miterlimit="1.45" shape-rendering="geometricPrecision" transform="matrix(1,0,0,1,-285,-409)" stroke-linecap="butt">
      <rect fill="none" x="822.8859" width="25" height="50" y="469" clip-path="url(#clipPath2)"/>
      <circle fill="none" r="10" clip-path="url(#clipPath2)" cx="860.3859" cy="529"/>
      <text x="856.2184" font-size="10px" y="532.9282" clip-path="url(#clipPath2)" font-family="sans-serif" stroke="none" xml:space="preserve">///</text>
    </g>
    <g transform="matrix(1,0,0,1,-285,-409)" fill-opacity="0.498" fill="rgb(255,0,0)" text-rendering="geometricPrecision" shape-rendering="geometricPrecision" stroke="rgb(255,0,0)" stroke-opacity="0.498">
      <rect x="300.8259" width="58.16" height="30" y="479" clip-path="url(#clipPath2)" stroke="none"/>
    </g>
    <g text-rendering="geometricPrecision" stroke-miterlimit="1.45" shape-rendering="geometricPrecision" transform="matrix(1,0,0,1,-285,-409)" stroke-linecap="butt">
      <rect fill="none" x="300.8259" width="58.16" height="30" y="479" clip-path="url(#clipPath2)"/>
      <text x="304.8912" font-size="20px" y="501.8564" clip-path="url(#clipPath2)" font-family="sans-serif" stroke="none" xml:space="preserve">Lnum</text>
    </g>
    <g transform="matrix(1,0,0,1,-285,-409)" fill-opacity="0.498" fill="rgb(255,0,0)" text-rendering="geometricPrecision" shape-rendering="geometricPrecision" stroke="rgb(255,0,0)" stroke-opacity="0.498">
      <rect x="382.8859" width="50" height="50" y="469" clip-path="url(#clipPath2)" stroke="none"/>
    </g>
    <g text-rendering="geometricPrecision" stroke-miterlimit="1.45" shape-rendering="geometricPrecision" transform="matrix(1,0,0,1,-285,-409)" stroke-linecap="butt">
      <rect fill="none" x="382.8859" width="50" height="50" y="469" clip-path="url(#clipPath2)"/>
      <text x="396.7628" font-size="20px" y="501.8564" clip-path="url(#clipPath2)" font-family="sans-serif" stroke="none" xml:space="preserve">16</text>
    </g>
    <g transform="matrix(1,0,0,1,-285,-409)" fill-opacity="0.498" fill="rgb(255,0,0)" text-rendering="geometricPrecision" shape-rendering="geometricPrecision" stroke="rgb(255,0,0)" stroke-opacity="0.498">
      <rect x="432.8859" width="25" height="50" y="469" clip-path="url(#clipPath2)" stroke="none"/>
    </g>
    <g text-rendering="geometricPrecision" stroke-miterlimit="1.45" shape-rendering="geometricPrecision" transform="matrix(1,0,0,1,-285,-409)" stroke-linecap="butt">
      <rect fill="none" x="432.8859" width="25" height="50" y="469" clip-path="url(#clipPath2)"/>
    </g>
    <g fill="rgb(255,204,0)" text-rendering="geometricPrecision" shape-rendering="geometricPrecision" transform="matrix(1,0,0,1,-285,-409)" stroke="rgb(255,204,0)">
      <rect x="522.2309" width="184.94" height="71.25" y="565" clip-path="url(#clipPath2)" stroke="none"/>
    </g>
    <g text-rendering="geometricPrecision" stroke-miterlimit="1.45" shape-rendering="geometricPrecision" transform="matrix(1,0,0,1,-285,-409)" stroke-linecap="butt">
      <rect fill="none" x="522.2309" width="184.94" height="71.25" y="565" clip-path="url(#clipPath2)"/>
      <text x="552.7282" font-size="20px" y="608.4814" clip-path="url(#clipPath2)" font-family="sans-serif" stroke="none" xml:space="preserve">Reductor: x+y</text>
      <rect x="567.8259" y="458.375" clip-path="url(#clipPath2)" fill="none" width="93.75" stroke-dasharray="18,6" height="71.25" stroke-width="3"/>
    </g>
    <g fill="rgb(255,255,153)" text-rendering="geometricPrecision" shape-rendering="geometricPrecision" transform="matrix(1,0,0,1,-285,-409)" stroke="rgb(255,255,153)">
      <rect x="393.871" width="93.75" height="38" y="581.625" clip-path="url(#clipPath2)" stroke="none"/>
    </g>
    <g text-rendering="geometricPrecision" stroke-miterlimit="1.45" shape-rendering="geometricPrecision" transform="matrix(1,0,0,1,-285,-409)" stroke-linecap="butt">
      <rect fill="none" x="393.871" width="93.75" height="38" y="581.625" clip-path="url(#clipPath2)"/>
      <text x="405.4433" font-size="20px" y="608.4814" clip-path="url(#clipPath2)" font-family="sans-serif" stroke="none" xml:space="preserve">init = 49</text>
    </g>
    <g fill="rgb(204,255,204)" text-rendering="geometricPrecision" shape-rendering="geometricPrecision" transform="matrix(1,0,0,1,-285,-409)" stroke="rgb(204,255,204)">
      <rect x="582.4209" width="64.56" height="30" y="690.7568" clip-path="url(#clipPath2)" stroke="none"/>
    </g>
    <g text-rendering="geometricPrecision" stroke-miterlimit="1.45" shape-rendering="geometricPrecision" transform="matrix(1,0,0,1,-285,-409)" stroke-linecap="butt">
      <rect fill="none" x="582.4209" width="64.56" height="30" y="690.7568" clip-path="url(#clipPath2)"/>
      <text x="598.0163" font-size="20px" y="713.6132" clip-path="url(#clipPath2)" font-family="sans-serif" stroke="none" xml:space="preserve">125</text>
      <text x="502.1359" font-size="20px" y="588.1732" clip-path="url(#clipPath2)" font-family="sans-serif" stroke="none" xml:space="preserve">x</text>
      <text x="609.7009" font-size="20px" y="446.8564" clip-path="url(#clipPath2)" font-family="sans-serif" stroke="none" xml:space="preserve">y</text>
      <path fill="none" d="M547.8859 494 L562.7609 494" stroke-width="4" clip-path="url(#clipPath2)"/>
      <path d="M577.8859 494 L561.3859 485.75 L561.3859 502.25 Z" stroke-width="4" clip-path="url(#clipPath2)" stroke="none"/>
      <path fill="none" d="M645.3859 494 L660.2609 494" stroke-width="4" clip-path="url(#clipPath2)"/>
      <path d="M675.3859 494 L658.8859 485.75 L658.8859 502.25 Z" stroke-width="4" clip-path="url(#clipPath2)" stroke="none"/>
      <path fill="none" d="M742.8859 494 L757.7609 494" stroke-width="4" clip-path="url(#clipPath2)"/>
      <path d="M772.8859 494 L756.3859 485.75 L756.3859 502.25 Z" stroke-width="4" clip-path="url(#clipPath2)" stroke="none"/>
      <path fill="none" d="M840.3859 494 L860.3859 494 L860.3859 503.875" stroke-width="4" clip-path="url(#clipPath2)"/>
      <path d="M860.3859 519 L868.6359 502.5 L852.1359 502.5 Z" stroke-width="4" clip-path="url(#clipPath2)" stroke="none"/>
      <path fill="none" d="M358.9859 494 L367.7142 494" stroke-width="4" clip-path="url(#clipPath2)"/>
      <path d="M382.8392 494 L366.3392 485.75 L366.3392 502.25 Z" stroke-width="4" clip-path="url(#clipPath2)" stroke="none"/>
      <path fill="none" d="M450.3859 494 L465.2316 494" stroke-width="4" clip-path="url(#clipPath2)"/>
      <path d="M480.3566 494 L463.8566 485.75 L463.8566 502.25 Z" stroke-width="4" clip-path="url(#clipPath2)" stroke="none"/>
      <path fill="none" stroke-dasharray="18,6" d="M568.1036 529.627 L524.187 564.6707" stroke-width="3" clip-path="url(#clipPath2)"/>
      <path fill="none" stroke-dasharray="18,6" d="M659.187 530.0457 L703.6242 564.9703" stroke-width="3" clip-path="url(#clipPath2)"/>
      <path fill="none" d="M487.621 600.625 L507.1059 600.625" stroke-width="4" clip-path="url(#clipPath2)"/>
      <path d="M522.2308 600.625 L505.7308 592.375 L505.7308 608.875 Z" stroke-width="4" clip-path="url(#clipPath2)" stroke="none"/>
      <path fill="none" d="M614.7009 636.25 L614.7009 677.0068" stroke-width="3" clip-path="url(#clipPath2)"/>
      <path d="M614.7009 690.7568 L622.2009 675.7568 L607.2009 675.7568 Z" stroke-width="3" clip-path="url(#clipPath2)" stroke="none"/>
      <path fill="none" stroke-dasharray="12,4" d="M582.4392 711.5046 L581.4577 711.6416 L566.0682 712.5455 L551.4999 712.0904 L537.7531 710.2762 L524.8275 707.103 L512.7233 702.5709 L501.4405 696.6796 L490.979 689.4294 L481.3388 680.8201 L472.52 670.8518 L464.5225 659.5245 L457.3464 646.8381 L450.9916 632.7928 L449.3112 628.115" stroke-width="2" clip-path="url(#clipPath2)"/>
      <path stroke-dasharray="12,4" d="M446.2687 619.6449 L445.5387 634.2516 L449.6916 629.1738 L456.1264 630.4484 Z" stroke-width="2" clip-path="url(#clipPath2)" stroke="none"/>
    </g>
  </g>
</svg>
