<?xml version="1.0" encoding="UTF-8"?><svg xmlns="http://www.w3.org/2000/svg" xmlns:xlink="http://www.w3.org/1999/xlink" fill-opacity="1" color-rendering="auto" color-interpolation="auto" text-rendering="auto" stroke="black" stroke-linecap="square" width="609" stroke-miterlimit="10" shape-rendering="auto" stroke-opacity="1" fill="black" stroke-dasharray="none" font-weight="normal" stroke-width="1" height="352" font-family="'Dialog'" font-style="normal" stroke-linejoin="miter" font-size="12px" stroke-dashoffset="0" image-rendering="auto">
  <!--Generated by ySVG 2.5-->
  <defs id="genericDefs"/>
  <g>
    <defs id="defs1">
      <clipPath clipPathUnits="userSpaceOnUse" id="clipPath1">
        <path d="M0 0 L609 0 L609 352 L0 352 L0 0 Z"/>
      </clipPath>
      <clipPath clipPathUnits="userSpaceOnUse" id="clipPath2">
        <path d="M260 404 L869 404 L869 756 L260 756 L260 404 Z"/>
      </clipPath>
    </defs>
    <g transform="matrix(1,0,0,1,-260,-404)" fill-opacity="0.498" fill="rgb(255,102,0)" text-rendering="geometricPrecision" shape-rendering="geometricPrecision" stroke="rgb(255,102,0)" stroke-opacity="0.498">
      <rect x="454.96" width="50" height="50" y="429.625" clip-path="url(#clipPath2)" stroke="none"/>
    </g>
    <g text-rendering="geometricPrecision" stroke-miterlimit="1.45" shape-rendering="geometricPrecision" transform="matrix(1,0,0,1,-260,-404)" stroke-linecap="butt">
      <rect fill="none" x="454.96" width="50" height="50" y="429.625" clip-path="url(#clipPath2)"/>
      <text x="468.8369" font-size="20px" y="462.4814" clip-path="url(#clipPath2)" font-family="sans-serif" stroke="none" xml:space="preserve">33</text>
    </g>
    <g transform="matrix(1,0,0,1,-260,-404)" fill-opacity="0.498" fill="rgb(255,102,0)" text-rendering="geometricPrecision" shape-rendering="geometricPrecision" stroke="rgb(255,102,0)" stroke-opacity="0.498">
      <rect x="504.96" width="25" height="50" y="429.625" clip-path="url(#clipPath2)" stroke="none"/>
    </g>
    <g text-rendering="geometricPrecision" stroke-miterlimit="1.45" shape-rendering="geometricPrecision" transform="matrix(1,0,0,1,-260,-404)" stroke-linecap="butt">
      <rect fill="none" x="504.96" width="25" height="50" y="429.625" clip-path="url(#clipPath2)"/>
    </g>
    <g transform="matrix(1,0,0,1,-260,-404)" fill-opacity="0.498" fill="rgb(0,128,0)" text-rendering="geometricPrecision" shape-rendering="geometricPrecision" stroke="rgb(0,128,0)" stroke-opacity="0.498">
      <rect x="552.46" width="50" height="50" y="429.625" clip-path="url(#clipPath2)" stroke="none"/>
    </g>
    <g text-rendering="geometricPrecision" stroke-miterlimit="1.45" shape-rendering="geometricPrecision" transform="matrix(1,0,0,1,-260,-404)" stroke-linecap="butt">
      <rect fill="none" x="552.46" width="50" height="50" y="429.625" clip-path="url(#clipPath2)"/>
      <text x="566.337" font-size="20px" y="462.4814" clip-path="url(#clipPath2)" font-family="sans-serif" stroke="none" xml:space="preserve">76</text>
    </g>
    <g transform="matrix(1,0,0,1,-260,-404)" fill-opacity="0.498" fill="rgb(0,128,0)" text-rendering="geometricPrecision" shape-rendering="geometricPrecision" stroke="rgb(0,128,0)" stroke-opacity="0.498">
      <rect x="602.46" width="25" height="50" y="429.625" clip-path="url(#clipPath2)" stroke="none"/>
    </g>
    <g text-rendering="geometricPrecision" stroke-miterlimit="1.45" shape-rendering="geometricPrecision" transform="matrix(1,0,0,1,-260,-404)" stroke-linecap="butt">
      <rect fill="none" x="602.46" width="25" height="50" y="429.625" clip-path="url(#clipPath2)"/>
    </g>
    <g transform="matrix(1,0,0,1,-260,-404)" fill-opacity="0.498" fill="rgb(0,0,255)" text-rendering="geometricPrecision" shape-rendering="geometricPrecision" stroke="rgb(0,0,255)" stroke-opacity="0.498">
      <rect x="649.96" width="50" height="50" y="429.625" clip-path="url(#clipPath2)" stroke="none"/>
    </g>
    <g text-rendering="geometricPrecision" stroke-miterlimit="1.45" shape-rendering="geometricPrecision" transform="matrix(1,0,0,1,-260,-404)" stroke-linecap="butt">
      <rect fill="none" x="649.96" width="50" height="50" y="429.625" clip-path="url(#clipPath2)"/>
      <text x="663.837" font-size="20px" y="462.4814" clip-path="url(#clipPath2)" font-family="sans-serif" stroke="none" xml:space="preserve">23</text>
    </g>
    <g transform="matrix(1,0,0,1,-260,-404)" fill-opacity="0.498" fill="rgb(0,0,255)" text-rendering="geometricPrecision" shape-rendering="geometricPrecision" stroke="rgb(0,0,255)" stroke-opacity="0.498">
      <rect x="699.96" width="25" height="50" y="429.625" clip-path="url(#clipPath2)" stroke="none"/>
    </g>
    <g text-rendering="geometricPrecision" stroke-miterlimit="1.45" shape-rendering="geometricPrecision" transform="matrix(1,0,0,1,-260,-404)" stroke-linecap="butt">
      <rect fill="none" x="699.96" width="25" height="50" y="429.625" clip-path="url(#clipPath2)"/>
    </g>
    <g transform="matrix(1,0,0,1,-260,-404)" fill-opacity="0.498" fill="rgb(181,35,196)" text-rendering="geometricPrecision" shape-rendering="geometricPrecision" stroke="rgb(181,35,196)" stroke-opacity="0.498">
      <rect x="747.46" width="50" height="50" y="429.625" clip-path="url(#clipPath2)" stroke="none"/>
    </g>
    <g text-rendering="geometricPrecision" stroke-miterlimit="1.45" shape-rendering="geometricPrecision" transform="matrix(1,0,0,1,-260,-404)" stroke-linecap="butt">
      <rect fill="none" x="747.46" width="50" height="50" y="429.625" clip-path="url(#clipPath2)"/>
      <text x="761.337" font-size="20px" y="462.4814" clip-path="url(#clipPath2)" font-family="sans-serif" stroke="none" xml:space="preserve">55</text>
    </g>
    <g transform="matrix(1,0,0,1,-260,-404)" fill-opacity="0.498" fill="rgb(181,35,196)" text-rendering="geometricPrecision" shape-rendering="geometricPrecision" stroke="rgb(181,35,196)" stroke-opacity="0.498">
      <rect x="797.46" width="25" height="50" y="429.625" clip-path="url(#clipPath2)" stroke="none"/>
    </g>
    <g text-rendering="geometricPrecision" stroke-miterlimit="1.45" shape-rendering="geometricPrecision" transform="matrix(1,0,0,1,-260,-404)" stroke-linecap="butt">
      <rect fill="none" x="797.46" width="25" height="50" y="429.625" clip-path="url(#clipPath2)"/>
      <circle fill="none" r="10" clip-path="url(#clipPath2)" cx="834.96" cy="489.625"/>
      <text x="830.7925" font-size="10px" y="493.5532" clip-path="url(#clipPath2)" font-family="sans-serif" stroke="none" xml:space="preserve">///</text>
    </g>
    <g transform="matrix(1,0,0,1,-260,-404)" fill-opacity="0.498" fill="rgb(255,0,0)" text-rendering="geometricPrecision" shape-rendering="geometricPrecision" stroke="rgb(255,0,0)" stroke-opacity="0.498">
      <rect x="275.4" width="58.16" height="30" y="439.625" clip-path="url(#clipPath2)" stroke="none"/>
    </g>
    <g text-rendering="geometricPrecision" stroke-miterlimit="1.45" shape-rendering="geometricPrecision" transform="matrix(1,0,0,1,-260,-404)" stroke-linecap="butt">
      <rect fill="none" x="275.4" width="58.16" height="30" y="439.625" clip-path="url(#clipPath2)"/>
      <text x="279.4654" font-size="20px" y="462.4814" clip-path="url(#clipPath2)" font-family="sans-serif" stroke="none" xml:space="preserve">Lnum</text>
    </g>
    <g transform="matrix(1,0,0,1,-260,-404)" fill-opacity="0.498" fill="rgb(255,0,0)" text-rendering="geometricPrecision" shape-rendering="geometricPrecision" stroke="rgb(255,0,0)" stroke-opacity="0.498">
      <rect x="357.46" width="50" height="50" y="429.625" clip-path="url(#clipPath2)" stroke="none"/>
    </g>
    <g text-rendering="geometricPrecision" stroke-miterlimit="1.45" shape-rendering="geometricPrecision" transform="matrix(1,0,0,1,-260,-404)" stroke-linecap="butt">
      <rect fill="none" x="357.46" width="50" height="50" y="429.625" clip-path="url(#clipPath2)"/>
      <text x="371.3369" font-size="20px" y="462.4814" clip-path="url(#clipPath2)" font-family="sans-serif" stroke="none" xml:space="preserve">16</text>
    </g>
    <g transform="matrix(1,0,0,1,-260,-404)" fill-opacity="0.498" fill="rgb(255,0,0)" text-rendering="geometricPrecision" shape-rendering="geometricPrecision" stroke="rgb(255,0,0)" stroke-opacity="0.498">
      <rect x="407.46" width="25" height="50" y="429.625" clip-path="url(#clipPath2)" stroke="none"/>
    </g>
    <g text-rendering="geometricPrecision" stroke-miterlimit="1.45" shape-rendering="geometricPrecision" transform="matrix(1,0,0,1,-260,-404)" stroke-linecap="butt">
      <rect fill="none" x="407.46" width="25" height="50" y="429.625" clip-path="url(#clipPath2)"/>
    </g>
    <g fill="rgb(255,204,0)" text-rendering="geometricPrecision" shape-rendering="geometricPrecision" transform="matrix(1,0,0,1,-260,-404)" stroke="rgb(255,204,0)">
      <rect x="497.29" width="184.94" height="71.25" y="525.625" clip-path="url(#clipPath2)" stroke="none"/>
    </g>
    <g text-rendering="geometricPrecision" stroke-miterlimit="1.45" shape-rendering="geometricPrecision" transform="matrix(1,0,0,1,-260,-404)" stroke-linecap="butt">
      <rect fill="none" x="497.29" width="184.94" height="71.25" y="525.625" clip-path="url(#clipPath2)"/>
      <text x="537.2307" font-size="20px" y="569.1064" clip-path="url(#clipPath2)" font-family="sans-serif" stroke="none" xml:space="preserve">Mapa: x + 3</text>
      <rect x="542.885" y="419" clip-path="url(#clipPath2)" fill="none" width="93.75" stroke-dasharray="18,6" height="71.25" stroke-width="3"/>
      <rect fill="none" x="341.01" width="512.94" height="98" y="642.875" clip-path="url(#clipPath2)"/>
    </g>
    <g transform="matrix(1,0,0,1,-260,-404)" fill-opacity="0.498" fill="rgb(255,0,0)" text-rendering="geometricPrecision" shape-rendering="geometricPrecision" stroke="rgb(255,0,0)" stroke-opacity="0.498">
      <rect x="354.05" width="50" height="50" y="666.875" clip-path="url(#clipPath2)" stroke="none"/>
    </g>
    <g text-rendering="geometricPrecision" stroke-miterlimit="1.45" shape-rendering="geometricPrecision" transform="matrix(1,0,0,1,-260,-404)" stroke-linecap="butt">
      <rect fill="none" x="354.05" width="50" height="50" y="666.875" clip-path="url(#clipPath2)"/>
      <text x="367.9269" font-size="20px" y="699.7314" clip-path="url(#clipPath2)" font-family="sans-serif" stroke="none" xml:space="preserve">19</text>
      <circle fill="none" r="10" clip-path="url(#clipPath2)" cx="639.05" cy="726.875"/>
      <text x="634.8825" font-size="10px" y="730.8032" clip-path="url(#clipPath2)" font-family="sans-serif" stroke="none" xml:space="preserve">///</text>
    </g>
    <g transform="matrix(1,0,0,1,-260,-404)" fill-opacity="0.498" fill="rgb(255,102,0)" text-rendering="geometricPrecision" shape-rendering="geometricPrecision" stroke="rgb(255,102,0)" stroke-opacity="0.498">
      <rect x="451.55" width="50" height="50" y="666.875" clip-path="url(#clipPath2)" stroke="none"/>
    </g>
    <g text-rendering="geometricPrecision" stroke-miterlimit="1.45" shape-rendering="geometricPrecision" transform="matrix(1,0,0,1,-260,-404)" stroke-linecap="butt">
      <rect fill="none" x="451.55" width="50" height="50" y="666.875" clip-path="url(#clipPath2)"/>
      <text x="465.4269" font-size="20px" y="699.7314" clip-path="url(#clipPath2)" font-family="sans-serif" stroke="none" xml:space="preserve">36</text>
    </g>
    <g transform="matrix(1,0,0,1,-260,-404)" fill-opacity="0.498" fill="rgb(255,102,0)" text-rendering="geometricPrecision" shape-rendering="geometricPrecision" stroke="rgb(255,102,0)" stroke-opacity="0.498">
      <rect x="501.55" width="25" height="50" y="666.875" clip-path="url(#clipPath2)" stroke="none"/>
    </g>
    <g text-rendering="geometricPrecision" stroke-miterlimit="1.45" shape-rendering="geometricPrecision" transform="matrix(1,0,0,1,-260,-404)" stroke-linecap="butt">
      <rect fill="none" x="501.55" width="25" height="50" y="666.875" clip-path="url(#clipPath2)"/>
    </g>
    <g transform="matrix(1,0,0,1,-260,-404)" fill-opacity="0.498" fill="rgb(255,0,0)" text-rendering="geometricPrecision" shape-rendering="geometricPrecision" stroke="rgb(255,0,0)" stroke-opacity="0.498">
      <rect x="404.05" width="25" height="50" y="666.875" clip-path="url(#clipPath2)" stroke="none"/>
    </g>
    <g text-rendering="geometricPrecision" stroke-miterlimit="1.45" shape-rendering="geometricPrecision" transform="matrix(1,0,0,1,-260,-404)" stroke-linecap="butt">
      <rect fill="none" x="404.05" width="25" height="50" y="666.875" clip-path="url(#clipPath2)"/>
    </g>
    <g transform="matrix(1,0,0,1,-260,-404)" fill-opacity="0.498" fill="rgb(0,128,0)" text-rendering="geometricPrecision" shape-rendering="geometricPrecision" stroke="rgb(0,128,0)" stroke-opacity="0.498">
      <rect x="549.05" width="50" height="50" y="666.875" clip-path="url(#clipPath2)" stroke="none"/>
    </g>
    <g text-rendering="geometricPrecision" stroke-miterlimit="1.45" shape-rendering="geometricPrecision" transform="matrix(1,0,0,1,-260,-404)" stroke-linecap="butt">
      <rect fill="none" x="549.05" width="50" height="50" y="666.875" clip-path="url(#clipPath2)"/>
      <text x="562.9269" font-size="20px" y="699.7314" clip-path="url(#clipPath2)" font-family="sans-serif" stroke="none" xml:space="preserve">79</text>
    </g>
    <g transform="matrix(1,0,0,1,-260,-404)" fill-opacity="0.498" fill="rgb(0,128,0)" text-rendering="geometricPrecision" shape-rendering="geometricPrecision" stroke="rgb(0,128,0)" stroke-opacity="0.498">
      <rect x="599.05" width="25" height="50" y="666.875" clip-path="url(#clipPath2)" stroke="none"/>
    </g>
    <g text-rendering="geometricPrecision" stroke-miterlimit="1.45" shape-rendering="geometricPrecision" transform="matrix(1,0,0,1,-260,-404)" stroke-linecap="butt">
      <rect fill="none" x="599.05" width="25" height="50" y="666.875" clip-path="url(#clipPath2)"/>
      <path fill="none" d="M522.46 454.625 L537.335 454.625" stroke-width="4" clip-path="url(#clipPath2)"/>
      <path d="M552.46 454.625 L535.96 446.375 L535.96 462.875 Z" stroke-width="4" clip-path="url(#clipPath2)" stroke="none"/>
      <path fill="none" d="M619.96 454.625 L634.835 454.625" stroke-width="4" clip-path="url(#clipPath2)"/>
      <path d="M649.96 454.625 L633.46 446.375 L633.46 462.875 Z" stroke-width="4" clip-path="url(#clipPath2)" stroke="none"/>
      <path fill="none" d="M717.46 454.625 L732.335 454.625" stroke-width="4" clip-path="url(#clipPath2)"/>
      <path d="M747.46 454.625 L730.96 446.375 L730.96 462.875 Z" stroke-width="4" clip-path="url(#clipPath2)" stroke="none"/>
      <path fill="none" d="M814.96 454.625 L834.96 454.625 L834.96 464.5" stroke-width="4" clip-path="url(#clipPath2)"/>
      <path d="M834.96 479.625 L843.21 463.125 L826.71 463.125 Z" stroke-width="4" clip-path="url(#clipPath2)" stroke="none"/>
      <path fill="none" d="M333.56 454.625 L342.2883 454.625" stroke-width="4" clip-path="url(#clipPath2)"/>
      <path d="M357.4133 454.625 L340.9133 446.375 L340.9133 462.875 Z" stroke-width="4" clip-path="url(#clipPath2)" stroke="none"/>
      <path fill="none" d="M424.96 454.625 L439.8057 454.625" stroke-width="4" clip-path="url(#clipPath2)"/>
      <path d="M454.9307 454.625 L438.4307 446.375 L438.4307 462.875 Z" stroke-width="4" clip-path="url(#clipPath2)" stroke="none"/>
      <path fill="none" stroke-dasharray="18,6" d="M543.1627 490.252 L499.2461 525.2957" stroke-width="3" clip-path="url(#clipPath2)"/>
      <path fill="none" stroke-dasharray="18,6" d="M634.2462 490.6706 L678.6833 525.5953" stroke-width="3" clip-path="url(#clipPath2)"/>
    </g>
    <g stroke-linecap="butt" transform="matrix(1,0,0,1,-260,-404)" fill-opacity="0.498" fill="rgb(0,128,0)" text-rendering="geometricPrecision" shape-rendering="geometricPrecision" stroke="rgb(0,128,0)" stroke-width="4" stroke-opacity="0.498" stroke-miterlimit="1.45">
      <path fill="none" d="M589.76 596.875 L589.76 627.7388" clip-path="url(#clipPath2)"/>
      <path d="M589.76 642.8638 L598.01 626.3638 L581.51 626.3638 Z" clip-path="url(#clipPath2)" stroke="none"/>
    </g>
    <g text-rendering="geometricPrecision" stroke-miterlimit="1.45" stroke-width="4" shape-rendering="geometricPrecision" transform="matrix(1,0,0,1,-260,-404)" stroke-linecap="butt">
      <path fill="none" d="M421.55 691.875 L436.425 691.875" clip-path="url(#clipPath2)"/>
      <path d="M451.55 691.875 L435.05 683.625 L435.05 700.125 Z" clip-path="url(#clipPath2)" stroke="none"/>
      <path fill="none" d="M519.05 691.875 L533.925 691.875" clip-path="url(#clipPath2)"/>
      <path d="M549.05 691.875 L532.55 683.625 L532.55 700.125 Z" clip-path="url(#clipPath2)" stroke="none"/>
      <path fill="none" d="M616.55 691.875 L639.05 691.875 L639.05 701.75" clip-path="url(#clipPath2)"/>
      <path d="M639.05 716.875 L647.3 700.375 L630.8 700.375 Z" clip-path="url(#clipPath2)" stroke="none"/>
    </g>
  </g>
</svg>
