<?xml version="1.0" encoding="UTF-8"?><svg xmlns="http://www.w3.org/2000/svg" xmlns:xlink="http://www.w3.org/1999/xlink" fill-opacity="1" color-rendering="auto" color-interpolation="auto" text-rendering="auto" stroke="black" stroke-linecap="square" width="600" stroke-miterlimit="10" shape-rendering="auto" stroke-opacity="1" fill="black" stroke-dasharray="none" font-weight="normal" stroke-width="1" height="100" font-family="'Dialog'" font-style="normal" stroke-linejoin="miter" font-size="12px" stroke-dashoffset="0" image-rendering="auto">
  <!--Generated by ySVG 2.5-->
  <defs id="genericDefs"/>
  <g>
    <defs id="defs1">
      <clipPath clipPathUnits="userSpaceOnUse" id="clipPath1">
        <path d="M0 0 L600 0 L600 100 L0 100 L0 0 Z"/>
      </clipPath>
      <clipPath clipPathUnits="userSpaceOnUse" id="clipPath2">
        <path d="M127 283 L727 283 L727 383 L127 383 L127 283 Z"/>
      </clipPath>
    </defs>
    <g transform="matrix(1,0,0,1,-127,-283)" fill-opacity="0.498" fill="rgb(255,102,0)" text-rendering="geometricPrecision" shape-rendering="geometricPrecision" stroke="rgb(255,102,0)" stroke-opacity="0.498">
      <rect x="322" width="50" height="50" y="298" clip-path="url(#clipPath2)" stroke="none"/>
    </g>
    <g text-rendering="geometricPrecision" stroke-miterlimit="1.45" shape-rendering="geometricPrecision" transform="matrix(1,0,0,1,-127,-283)" stroke-linecap="butt">
      <rect fill="none" x="322" width="50" height="50" y="298" clip-path="url(#clipPath2)"/>
      <text x="335.877" font-size="20px" y="330.8564" clip-path="url(#clipPath2)" font-family="sans-serif" stroke="none" xml:space="preserve">33</text>
    </g>
    <g transform="matrix(1,0,0,1,-127,-283)" fill-opacity="0.498" fill="rgb(255,102,0)" text-rendering="geometricPrecision" shape-rendering="geometricPrecision" stroke="rgb(255,102,0)" stroke-opacity="0.498">
      <rect x="372" width="25" height="50" y="298" clip-path="url(#clipPath2)" stroke="none"/>
    </g>
    <g text-rendering="geometricPrecision" stroke-miterlimit="1.45" shape-rendering="geometricPrecision" transform="matrix(1,0,0,1,-127,-283)" stroke-linecap="butt">
      <rect fill="none" x="372" width="25" height="50" y="298" clip-path="url(#clipPath2)"/>
    </g>
    <g transform="matrix(1,0,0,1,-127,-283)" fill-opacity="0.498" fill="rgb(0,128,0)" text-rendering="geometricPrecision" shape-rendering="geometricPrecision" stroke="rgb(0,128,0)" stroke-opacity="0.498">
      <rect x="419.5" width="50" height="50" y="298" clip-path="url(#clipPath2)" stroke="none"/>
    </g>
    <g text-rendering="geometricPrecision" stroke-miterlimit="1.45" shape-rendering="geometricPrecision" transform="matrix(1,0,0,1,-127,-283)" stroke-linecap="butt">
      <rect fill="none" x="419.5" width="50" height="50" y="298" clip-path="url(#clipPath2)"/>
      <text x="433.377" font-size="20px" y="330.8564" clip-path="url(#clipPath2)" font-family="sans-serif" stroke="none" xml:space="preserve">76</text>
    </g>
    <g transform="matrix(1,0,0,1,-127,-283)" fill-opacity="0.498" fill="rgb(0,128,0)" text-rendering="geometricPrecision" shape-rendering="geometricPrecision" stroke="rgb(0,128,0)" stroke-opacity="0.498">
      <rect x="469.5" width="25" height="50" y="298" clip-path="url(#clipPath2)" stroke="none"/>
    </g>
    <g text-rendering="geometricPrecision" stroke-miterlimit="1.45" shape-rendering="geometricPrecision" transform="matrix(1,0,0,1,-127,-283)" stroke-linecap="butt">
      <rect fill="none" x="469.5" width="25" height="50" y="298" clip-path="url(#clipPath2)"/>
    </g>
    <g transform="matrix(1,0,0,1,-127,-283)" fill-opacity="0.498" fill="rgb(0,0,255)" text-rendering="geometricPrecision" shape-rendering="geometricPrecision" stroke="rgb(0,0,255)" stroke-opacity="0.498">
      <rect x="517" width="50" height="50" y="298" clip-path="url(#clipPath2)" stroke="none"/>
    </g>
    <g text-rendering="geometricPrecision" stroke-miterlimit="1.45" shape-rendering="geometricPrecision" transform="matrix(1,0,0,1,-127,-283)" stroke-linecap="butt">
      <rect fill="none" x="517" width="50" height="50" y="298" clip-path="url(#clipPath2)"/>
      <text x="530.877" font-size="20px" y="330.8564" clip-path="url(#clipPath2)" font-family="sans-serif" stroke="none" xml:space="preserve">23</text>
    </g>
    <g transform="matrix(1,0,0,1,-127,-283)" fill-opacity="0.498" fill="rgb(0,0,255)" text-rendering="geometricPrecision" shape-rendering="geometricPrecision" stroke="rgb(0,0,255)" stroke-opacity="0.498">
      <rect x="567" width="25" height="50" y="298" clip-path="url(#clipPath2)" stroke="none"/>
    </g>
    <g text-rendering="geometricPrecision" stroke-miterlimit="1.45" shape-rendering="geometricPrecision" transform="matrix(1,0,0,1,-127,-283)" stroke-linecap="butt">
      <rect fill="none" x="567" width="25" height="50" y="298" clip-path="url(#clipPath2)"/>
    </g>
    <g transform="matrix(1,0,0,1,-127,-283)" fill-opacity="0.498" fill="rgb(181,35,196)" text-rendering="geometricPrecision" shape-rendering="geometricPrecision" stroke="rgb(181,35,196)" stroke-opacity="0.498">
      <rect x="614.5" width="50" height="50" y="298" clip-path="url(#clipPath2)" stroke="none"/>
    </g>
    <g text-rendering="geometricPrecision" stroke-miterlimit="1.45" shape-rendering="geometricPrecision" transform="matrix(1,0,0,1,-127,-283)" stroke-linecap="butt">
      <rect fill="none" x="614.5" width="50" height="50" y="298" clip-path="url(#clipPath2)"/>
      <text x="628.377" font-size="20px" y="330.8564" clip-path="url(#clipPath2)" font-family="sans-serif" stroke="none" xml:space="preserve">55</text>
    </g>
    <g transform="matrix(1,0,0,1,-127,-283)" fill-opacity="0.498" fill="rgb(181,35,196)" text-rendering="geometricPrecision" shape-rendering="geometricPrecision" stroke="rgb(181,35,196)" stroke-opacity="0.498">
      <rect x="664.5" width="25" height="50" y="298" clip-path="url(#clipPath2)" stroke="none"/>
    </g>
    <g text-rendering="geometricPrecision" stroke-miterlimit="1.45" shape-rendering="geometricPrecision" transform="matrix(1,0,0,1,-127,-283)" stroke-linecap="butt">
      <rect fill="none" x="664.5" width="25" height="50" y="298" clip-path="url(#clipPath2)"/>
      <circle fill="none" r="10" clip-path="url(#clipPath2)" cx="702" cy="358"/>
      <text x="697.8325" font-size="10px" y="361.9282" clip-path="url(#clipPath2)" font-family="sans-serif" stroke="none" xml:space="preserve">///</text>
    </g>
    <g transform="matrix(1,0,0,1,-127,-283)" fill-opacity="0.498" fill="rgb(255,0,0)" text-rendering="geometricPrecision" shape-rendering="geometricPrecision" stroke="rgb(255,0,0)" stroke-opacity="0.498">
      <rect x="142.44" width="58.16" height="30" y="308" clip-path="url(#clipPath2)" stroke="none"/>
    </g>
    <g text-rendering="geometricPrecision" stroke-miterlimit="1.45" shape-rendering="geometricPrecision" transform="matrix(1,0,0,1,-127,-283)" stroke-linecap="butt">
      <rect fill="none" x="142.44" width="58.16" height="30" y="308" clip-path="url(#clipPath2)"/>
      <text x="146.5054" font-size="20px" y="330.8564" clip-path="url(#clipPath2)" font-family="sans-serif" stroke="none" xml:space="preserve">Lnum</text>
    </g>
    <g transform="matrix(1,0,0,1,-127,-283)" fill-opacity="0.498" fill="rgb(255,0,0)" text-rendering="geometricPrecision" shape-rendering="geometricPrecision" stroke="rgb(255,0,0)" stroke-opacity="0.498">
      <rect x="224.5" width="50" height="50" y="298" clip-path="url(#clipPath2)" stroke="none"/>
    </g>
    <g text-rendering="geometricPrecision" stroke-miterlimit="1.45" shape-rendering="geometricPrecision" transform="matrix(1,0,0,1,-127,-283)" stroke-linecap="butt">
      <rect fill="none" x="224.5" width="50" height="50" y="298" clip-path="url(#clipPath2)"/>
      <text x="238.377" font-size="20px" y="330.8564" clip-path="url(#clipPath2)" font-family="sans-serif" stroke="none" xml:space="preserve">16</text>
    </g>
    <g transform="matrix(1,0,0,1,-127,-283)" fill-opacity="0.498" fill="rgb(255,0,0)" text-rendering="geometricPrecision" shape-rendering="geometricPrecision" stroke="rgb(255,0,0)" stroke-opacity="0.498">
      <rect x="274.5" width="25" height="50" y="298" clip-path="url(#clipPath2)" stroke="none"/>
    </g>
    <g text-rendering="geometricPrecision" stroke-miterlimit="1.45" shape-rendering="geometricPrecision" transform="matrix(1,0,0,1,-127,-283)" stroke-linecap="butt">
      <rect fill="none" x="274.5" width="25" height="50" y="298" clip-path="url(#clipPath2)"/>
      <path fill="none" d="M389.5 323 L404.375 323" stroke-width="4" clip-path="url(#clipPath2)"/>
      <path d="M419.5 323 L403 314.75 L403 331.25 Z" stroke-width="4" clip-path="url(#clipPath2)" stroke="none"/>
      <path fill="none" d="M487 323 L501.875 323" stroke-width="4" clip-path="url(#clipPath2)"/>
      <path d="M517 323 L500.5 314.75 L500.5 331.25 Z" stroke-width="4" clip-path="url(#clipPath2)" stroke="none"/>
      <path fill="none" d="M584.5 323 L599.375 323" stroke-width="4" clip-path="url(#clipPath2)"/>
      <path d="M614.5 323 L598 314.75 L598 331.25 Z" stroke-width="4" clip-path="url(#clipPath2)" stroke="none"/>
      <path fill="none" d="M682 323 L702 323 L702 332.875" stroke-width="4" clip-path="url(#clipPath2)"/>
      <path d="M702 348 L710.25 331.5 L693.75 331.5 Z" stroke-width="4" clip-path="url(#clipPath2)" stroke="none"/>
      <path fill="none" d="M200.6 323 L209.3283 323" stroke-width="4" clip-path="url(#clipPath2)"/>
      <path d="M224.4533 323 L207.9533 314.75 L207.9533 331.25 Z" stroke-width="4" clip-path="url(#clipPath2)" stroke="none"/>
      <path fill="none" d="M292 323 L306.8457 323" stroke-width="4" clip-path="url(#clipPath2)"/>
      <path d="M321.9707 323 L305.4707 314.75 L305.4707 331.25 Z" stroke-width="4" clip-path="url(#clipPath2)" stroke="none"/>
    </g>
  </g>
</svg>
