<?xml version="1.0" encoding="UTF-8"?><svg xmlns="http://www.w3.org/2000/svg" xmlns:xlink="http://www.w3.org/1999/xlink" fill-opacity="1" color-rendering="auto" color-interpolation="auto" text-rendering="auto" stroke="black" stroke-linecap="square" width="609" stroke-miterlimit="10" shape-rendering="auto" stroke-opacity="1" fill="black" stroke-dasharray="none" font-weight="normal" stroke-width="1" height="353" font-family="'Dialog'" font-style="normal" stroke-linejoin="miter" font-size="12px" stroke-dashoffset="0" image-rendering="auto">
  <!--Generated by ySVG 2.5-->
  <defs id="genericDefs"/>
  <g>
    <defs id="defs1">
      <clipPath clipPathUnits="userSpaceOnUse" id="clipPath1">
        <path d="M0 0 L609 0 L609 353 L0 353 L0 0 Z"/>
      </clipPath>
      <clipPath clipPathUnits="userSpaceOnUse" id="clipPath2">
        <path d="M209 353 L818 353 L818 706 L209 706 L209 353 Z"/>
      </clipPath>
    </defs>
    <g transform="matrix(1,0,0,1,-209,-353)" fill-opacity="0.498" fill="rgb(255,102,0)" text-rendering="geometricPrecision" shape-rendering="geometricPrecision" stroke="rgb(255,102,0)" stroke-opacity="0.498">
      <rect x="403.91" width="50" height="50" y="379.125" clip-path="url(#clipPath2)" stroke="none"/>
    </g>
    <g text-rendering="geometricPrecision" stroke-miterlimit="1.45" shape-rendering="geometricPrecision" transform="matrix(1,0,0,1,-209,-353)" stroke-linecap="butt">
      <rect fill="none" x="403.91" width="50" height="50" y="379.125" clip-path="url(#clipPath2)"/>
      <text x="417.787" font-size="20px" y="411.9814" clip-path="url(#clipPath2)" font-family="sans-serif" stroke="none" xml:space="preserve">33</text>
    </g>
    <g transform="matrix(1,0,0,1,-209,-353)" fill-opacity="0.498" fill="rgb(255,102,0)" text-rendering="geometricPrecision" shape-rendering="geometricPrecision" stroke="rgb(255,102,0)" stroke-opacity="0.498">
      <rect x="453.91" width="25" height="50" y="379.125" clip-path="url(#clipPath2)" stroke="none"/>
    </g>
    <g text-rendering="geometricPrecision" stroke-miterlimit="1.45" shape-rendering="geometricPrecision" transform="matrix(1,0,0,1,-209,-353)" stroke-linecap="butt">
      <rect fill="none" x="453.91" width="25" height="50" y="379.125" clip-path="url(#clipPath2)"/>
    </g>
    <g transform="matrix(1,0,0,1,-209,-353)" fill-opacity="0.498" fill="rgb(0,128,0)" text-rendering="geometricPrecision" shape-rendering="geometricPrecision" stroke="rgb(0,128,0)" stroke-opacity="0.498">
      <rect x="501.41" width="50" height="50" y="379.125" clip-path="url(#clipPath2)" stroke="none"/>
    </g>
    <g text-rendering="geometricPrecision" stroke-miterlimit="1.45" shape-rendering="geometricPrecision" transform="matrix(1,0,0,1,-209,-353)" stroke-linecap="butt">
      <rect fill="none" x="501.41" width="50" height="50" y="379.125" clip-path="url(#clipPath2)"/>
      <text x="515.2869" font-size="20px" y="411.9814" clip-path="url(#clipPath2)" font-family="sans-serif" stroke="none" xml:space="preserve">76</text>
    </g>
    <g transform="matrix(1,0,0,1,-209,-353)" fill-opacity="0.498" fill="rgb(0,128,0)" text-rendering="geometricPrecision" shape-rendering="geometricPrecision" stroke="rgb(0,128,0)" stroke-opacity="0.498">
      <rect x="551.41" width="25" height="50" y="379.125" clip-path="url(#clipPath2)" stroke="none"/>
    </g>
    <g text-rendering="geometricPrecision" stroke-miterlimit="1.45" shape-rendering="geometricPrecision" transform="matrix(1,0,0,1,-209,-353)" stroke-linecap="butt">
      <rect fill="none" x="551.41" width="25" height="50" y="379.125" clip-path="url(#clipPath2)"/>
    </g>
    <g transform="matrix(1,0,0,1,-209,-353)" fill-opacity="0.498" fill="rgb(0,0,255)" text-rendering="geometricPrecision" shape-rendering="geometricPrecision" stroke="rgb(0,0,255)" stroke-opacity="0.498">
      <rect x="598.91" width="50" height="50" y="379.125" clip-path="url(#clipPath2)" stroke="none"/>
    </g>
    <g text-rendering="geometricPrecision" stroke-miterlimit="1.45" shape-rendering="geometricPrecision" transform="matrix(1,0,0,1,-209,-353)" stroke-linecap="butt">
      <rect fill="none" x="598.91" width="50" height="50" y="379.125" clip-path="url(#clipPath2)"/>
      <text x="612.7869" font-size="20px" y="411.9814" clip-path="url(#clipPath2)" font-family="sans-serif" stroke="none" xml:space="preserve">23</text>
    </g>
    <g transform="matrix(1,0,0,1,-209,-353)" fill-opacity="0.498" fill="rgb(0,0,255)" text-rendering="geometricPrecision" shape-rendering="geometricPrecision" stroke="rgb(0,0,255)" stroke-opacity="0.498">
      <rect x="648.91" width="25" height="50" y="379.125" clip-path="url(#clipPath2)" stroke="none"/>
    </g>
    <g text-rendering="geometricPrecision" stroke-miterlimit="1.45" shape-rendering="geometricPrecision" transform="matrix(1,0,0,1,-209,-353)" stroke-linecap="butt">
      <rect fill="none" x="648.91" width="25" height="50" y="379.125" clip-path="url(#clipPath2)"/>
    </g>
    <g transform="matrix(1,0,0,1,-209,-353)" fill-opacity="0.498" fill="rgb(181,35,196)" text-rendering="geometricPrecision" shape-rendering="geometricPrecision" stroke="rgb(181,35,196)" stroke-opacity="0.498">
      <rect x="696.41" width="50" height="50" y="379.125" clip-path="url(#clipPath2)" stroke="none"/>
    </g>
    <g text-rendering="geometricPrecision" stroke-miterlimit="1.45" shape-rendering="geometricPrecision" transform="matrix(1,0,0,1,-209,-353)" stroke-linecap="butt">
      <rect fill="none" x="696.41" width="50" height="50" y="379.125" clip-path="url(#clipPath2)"/>
      <text x="710.2869" font-size="20px" y="411.9814" clip-path="url(#clipPath2)" font-family="sans-serif" stroke="none" xml:space="preserve">55</text>
    </g>
    <g transform="matrix(1,0,0,1,-209,-353)" fill-opacity="0.498" fill="rgb(181,35,196)" text-rendering="geometricPrecision" shape-rendering="geometricPrecision" stroke="rgb(181,35,196)" stroke-opacity="0.498">
      <rect x="746.41" width="25" height="50" y="379.125" clip-path="url(#clipPath2)" stroke="none"/>
    </g>
    <g text-rendering="geometricPrecision" stroke-miterlimit="1.45" shape-rendering="geometricPrecision" transform="matrix(1,0,0,1,-209,-353)" stroke-linecap="butt">
      <rect fill="none" x="746.41" width="25" height="50" y="379.125" clip-path="url(#clipPath2)"/>
      <circle fill="none" r="10" clip-path="url(#clipPath2)" cx="783.91" cy="439.125"/>
      <text x="779.7425" font-size="10px" y="443.0532" clip-path="url(#clipPath2)" font-family="sans-serif" stroke="none" xml:space="preserve">///</text>
    </g>
    <g transform="matrix(1,0,0,1,-209,-353)" fill-opacity="0.498" fill="rgb(255,0,0)" text-rendering="geometricPrecision" shape-rendering="geometricPrecision" stroke="rgb(255,0,0)" stroke-opacity="0.498">
      <rect x="224.35" width="58.16" height="30" y="389.125" clip-path="url(#clipPath2)" stroke="none"/>
    </g>
    <g text-rendering="geometricPrecision" stroke-miterlimit="1.45" shape-rendering="geometricPrecision" transform="matrix(1,0,0,1,-209,-353)" stroke-linecap="butt">
      <rect fill="none" x="224.35" width="58.16" height="30" y="389.125" clip-path="url(#clipPath2)"/>
      <text x="228.4153" font-size="20px" y="411.9814" clip-path="url(#clipPath2)" font-family="sans-serif" stroke="none" xml:space="preserve">Lnum</text>
    </g>
    <g transform="matrix(1,0,0,1,-209,-353)" fill-opacity="0.498" fill="rgb(255,0,0)" text-rendering="geometricPrecision" shape-rendering="geometricPrecision" stroke="rgb(255,0,0)" stroke-opacity="0.498">
      <rect x="306.41" width="50" height="50" y="379.125" clip-path="url(#clipPath2)" stroke="none"/>
    </g>
    <g text-rendering="geometricPrecision" stroke-miterlimit="1.45" shape-rendering="geometricPrecision" transform="matrix(1,0,0,1,-209,-353)" stroke-linecap="butt">
      <rect fill="none" x="306.41" width="50" height="50" y="379.125" clip-path="url(#clipPath2)"/>
      <text x="320.287" font-size="20px" y="411.9814" clip-path="url(#clipPath2)" font-family="sans-serif" stroke="none" xml:space="preserve">16</text>
    </g>
    <g transform="matrix(1,0,0,1,-209,-353)" fill-opacity="0.498" fill="rgb(255,0,0)" text-rendering="geometricPrecision" shape-rendering="geometricPrecision" stroke="rgb(255,0,0)" stroke-opacity="0.498">
      <rect x="356.41" width="25" height="50" y="379.125" clip-path="url(#clipPath2)" stroke="none"/>
    </g>
    <g text-rendering="geometricPrecision" stroke-miterlimit="1.45" shape-rendering="geometricPrecision" transform="matrix(1,0,0,1,-209,-353)" stroke-linecap="butt">
      <rect fill="none" x="356.41" width="25" height="50" y="379.125" clip-path="url(#clipPath2)"/>
    </g>
    <g fill="rgb(255,204,0)" text-rendering="geometricPrecision" shape-rendering="geometricPrecision" transform="matrix(1,0,0,1,-209,-353)" stroke="rgb(255,204,0)">
      <rect x="248.96" width="184.94" height="71.25" y="475.125" clip-path="url(#clipPath2)" stroke="none"/>
    </g>
    <g text-rendering="geometricPrecision" stroke-miterlimit="1.45" shape-rendering="geometricPrecision" transform="matrix(1,0,0,1,-209,-353)" stroke-linecap="butt">
      <rect fill="none" x="248.96" width="184.94" height="71.25" y="475.125" clip-path="url(#clipPath2)"/>
      <text x="288.9007" font-size="20px" y="518.6064" clip-path="url(#clipPath2)" font-family="sans-serif" stroke="none" xml:space="preserve">Mapa: x + 3</text>
      <rect x="294.555" y="368.5" clip-path="url(#clipPath2)" fill="none" width="93.75" stroke-dasharray="18,6" height="71.25" stroke-width="3"/>
      <rect fill="none" x="289.96" width="512.94" height="98" y="592.375" clip-path="url(#clipPath2)"/>
    </g>
    <g transform="matrix(1,0,0,1,-209,-353)" fill-opacity="0.498" fill="rgb(255,0,0)" text-rendering="geometricPrecision" shape-rendering="geometricPrecision" stroke="rgb(255,0,0)" stroke-opacity="0.498">
      <rect x="303" width="50" height="50" y="616.375" clip-path="url(#clipPath2)" stroke="none"/>
    </g>
    <g text-rendering="geometricPrecision" stroke-miterlimit="1.45" shape-rendering="geometricPrecision" transform="matrix(1,0,0,1,-209,-353)" stroke-linecap="butt">
      <rect fill="none" x="303" width="50" height="50" y="616.375" clip-path="url(#clipPath2)"/>
      <text x="316.877" font-size="20px" y="649.2314" clip-path="url(#clipPath2)" font-family="sans-serif" stroke="none" xml:space="preserve">19</text>
    </g>
    <g transform="matrix(1,0,0,1,-209,-353)" fill-opacity="0.498" fill="rgb(255,0,0)" text-rendering="geometricPrecision" shape-rendering="geometricPrecision" stroke="rgb(255,0,0)" stroke-opacity="0.498">
      <rect x="353" width="25" height="50" y="616.375" clip-path="url(#clipPath2)" stroke="none"/>
    </g>
    <g text-rendering="geometricPrecision" stroke-miterlimit="1.45" shape-rendering="geometricPrecision" transform="matrix(1,0,0,1,-209,-353)" stroke-linecap="butt">
      <rect fill="none" x="353" width="25" height="50" y="616.375" clip-path="url(#clipPath2)"/>
      <circle fill="none" r="10" clip-path="url(#clipPath2)" cx="390.5" cy="676.375"/>
      <text x="386.3325" font-size="10px" y="680.3032" clip-path="url(#clipPath2)" font-family="sans-serif" stroke="none" xml:space="preserve">///</text>
      <path fill="none" d="M471.41 404.125 L486.285 404.125" stroke-width="4" clip-path="url(#clipPath2)"/>
      <path d="M501.41 404.125 L484.91 395.875 L484.91 412.375 Z" stroke-width="4" clip-path="url(#clipPath2)" stroke="none"/>
      <path fill="none" d="M568.91 404.125 L583.785 404.125" stroke-width="4" clip-path="url(#clipPath2)"/>
      <path d="M598.91 404.125 L582.41 395.875 L582.41 412.375 Z" stroke-width="4" clip-path="url(#clipPath2)" stroke="none"/>
      <path fill="none" d="M666.41 404.125 L681.285 404.125" stroke-width="4" clip-path="url(#clipPath2)"/>
      <path d="M696.41 404.125 L679.91 395.875 L679.91 412.375 Z" stroke-width="4" clip-path="url(#clipPath2)" stroke="none"/>
      <path fill="none" d="M763.91 404.125 L783.91 404.125 L783.91 414" stroke-width="4" clip-path="url(#clipPath2)"/>
      <path d="M783.91 429.125 L792.16 412.625 L775.66 412.625 Z" stroke-width="4" clip-path="url(#clipPath2)" stroke="none"/>
      <path fill="none" d="M282.51 404.125 L291.2383 404.125" stroke-width="4" clip-path="url(#clipPath2)"/>
      <path d="M306.3633 404.125 L289.8633 395.875 L289.8633 412.375 Z" stroke-width="4" clip-path="url(#clipPath2)" stroke="none"/>
      <path fill="none" d="M373.91 404.125 L388.7557 404.125" stroke-width="4" clip-path="url(#clipPath2)"/>
      <path d="M403.8807 404.125 L387.3807 395.875 L387.3807 412.375 Z" stroke-width="4" clip-path="url(#clipPath2)" stroke="none"/>
      <path fill="none" stroke-dasharray="18,6" d="M294.8327 439.752 L250.9161 474.7956" stroke-width="3" clip-path="url(#clipPath2)"/>
      <path fill="none" stroke-dasharray="18,6" d="M385.9161 440.1706 L430.3534 475.0953" stroke-width="3" clip-path="url(#clipPath2)"/>
    </g>
    <g stroke-linecap="butt" transform="matrix(1,0,0,1,-209,-353)" fill-opacity="0.498" fill="rgb(0,128,0)" text-rendering="geometricPrecision" shape-rendering="geometricPrecision" stroke="rgb(0,128,0)" stroke-width="4" stroke-opacity="0.498" stroke-miterlimit="1.45">
      <path fill="none" d="M341.43 546.375 L341.43 577.2422" clip-path="url(#clipPath2)"/>
      <path d="M341.43 592.3672 L349.68 575.8672 L333.18 575.8672 Z" clip-path="url(#clipPath2)" stroke="none"/>
    </g>
    <g text-rendering="geometricPrecision" stroke-miterlimit="1.45" stroke-width="4" shape-rendering="geometricPrecision" transform="matrix(1,0,0,1,-209,-353)" stroke-linecap="butt">
      <path fill="none" d="M370.5 641.375 L390.5 641.375 L390.5 651.25" clip-path="url(#clipPath2)"/>
      <path d="M390.5 666.375 L398.75 649.875 L382.25 649.875 Z" clip-path="url(#clipPath2)" stroke="none"/>
    </g>
  </g>
</svg>
