<?xml version="1.0" encoding="UTF-8"?><svg xmlns="http://www.w3.org/2000/svg" xmlns:xlink="http://www.w3.org/1999/xlink" fill-opacity="1" color-rendering="auto" color-interpolation="auto" text-rendering="auto" stroke="black" stroke-linecap="square" width="601" stroke-miterlimit="10" shape-rendering="auto" stroke-opacity="1" fill="black" stroke-dasharray="none" font-weight="normal" stroke-width="1" height="352" font-family="'Dialog'" font-style="normal" stroke-linejoin="miter" font-size="12px" stroke-dashoffset="0" image-rendering="auto">
  <!--Generated by ySVG 2.5-->
  <defs id="genericDefs"/>
  <g>
    <defs id="defs1">
      <clipPath clipPathUnits="userSpaceOnUse" id="clipPath1">
        <path d="M0 0 L601 0 L601 352 L0 352 L0 0 Z"/>
      </clipPath>
      <clipPath clipPathUnits="userSpaceOnUse" id="clipPath2">
        <path d="M279 424 L880 424 L880 776 L279 776 L279 424 Z"/>
      </clipPath>
    </defs>
    <g transform="matrix(1,0,0,1,-279,-424)" fill-opacity="0.498" fill="rgb(255,102,0)" text-rendering="geometricPrecision" shape-rendering="geometricPrecision" stroke="rgb(255,102,0)" stroke-opacity="0.498">
      <rect x="474.52" width="50" height="50" y="449.625" clip-path="url(#clipPath2)" stroke="none"/>
    </g>
    <g text-rendering="geometricPrecision" stroke-miterlimit="1.45" shape-rendering="geometricPrecision" transform="matrix(1,0,0,1,-279,-424)" stroke-linecap="butt">
      <rect fill="none" x="474.52" width="50" height="50" y="449.625" clip-path="url(#clipPath2)"/>
      <text x="488.3969" font-size="20px" y="482.4814" clip-path="url(#clipPath2)" font-family="sans-serif" stroke="none" xml:space="preserve">33</text>
    </g>
    <g transform="matrix(1,0,0,1,-279,-424)" fill-opacity="0.498" fill="rgb(255,102,0)" text-rendering="geometricPrecision" shape-rendering="geometricPrecision" stroke="rgb(255,102,0)" stroke-opacity="0.498">
      <rect x="524.52" width="25" height="50" y="449.625" clip-path="url(#clipPath2)" stroke="none"/>
    </g>
    <g text-rendering="geometricPrecision" stroke-miterlimit="1.45" shape-rendering="geometricPrecision" transform="matrix(1,0,0,1,-279,-424)" stroke-linecap="butt">
      <rect fill="none" x="524.52" width="25" height="50" y="449.625" clip-path="url(#clipPath2)"/>
    </g>
    <g transform="matrix(1,0,0,1,-279,-424)" fill-opacity="0.498" fill="rgb(0,128,0)" text-rendering="geometricPrecision" shape-rendering="geometricPrecision" stroke="rgb(0,128,0)" stroke-opacity="0.498">
      <rect x="572.02" width="50" height="50" y="449.625" clip-path="url(#clipPath2)" stroke="none"/>
    </g>
    <g text-rendering="geometricPrecision" stroke-miterlimit="1.45" shape-rendering="geometricPrecision" transform="matrix(1,0,0,1,-279,-424)" stroke-linecap="butt">
      <rect fill="none" x="572.02" width="50" height="50" y="449.625" clip-path="url(#clipPath2)"/>
      <text x="585.897" font-size="20px" y="482.4814" clip-path="url(#clipPath2)" font-family="sans-serif" stroke="none" xml:space="preserve">76</text>
    </g>
    <g transform="matrix(1,0,0,1,-279,-424)" fill-opacity="0.498" fill="rgb(0,128,0)" text-rendering="geometricPrecision" shape-rendering="geometricPrecision" stroke="rgb(0,128,0)" stroke-opacity="0.498">
      <rect x="622.02" width="25" height="50" y="449.625" clip-path="url(#clipPath2)" stroke="none"/>
    </g>
    <g text-rendering="geometricPrecision" stroke-miterlimit="1.45" shape-rendering="geometricPrecision" transform="matrix(1,0,0,1,-279,-424)" stroke-linecap="butt">
      <rect fill="none" x="622.02" width="25" height="50" y="449.625" clip-path="url(#clipPath2)"/>
    </g>
    <g transform="matrix(1,0,0,1,-279,-424)" fill-opacity="0.498" fill="rgb(0,0,255)" text-rendering="geometricPrecision" shape-rendering="geometricPrecision" stroke="rgb(0,0,255)" stroke-opacity="0.498">
      <rect x="669.52" width="50" height="50" y="449.625" clip-path="url(#clipPath2)" stroke="none"/>
    </g>
    <g text-rendering="geometricPrecision" stroke-miterlimit="1.45" shape-rendering="geometricPrecision" transform="matrix(1,0,0,1,-279,-424)" stroke-linecap="butt">
      <rect fill="none" x="669.52" width="50" height="50" y="449.625" clip-path="url(#clipPath2)"/>
      <text x="683.397" font-size="20px" y="482.4814" clip-path="url(#clipPath2)" font-family="sans-serif" stroke="none" xml:space="preserve">23</text>
    </g>
    <g transform="matrix(1,0,0,1,-279,-424)" fill-opacity="0.498" fill="rgb(0,0,255)" text-rendering="geometricPrecision" shape-rendering="geometricPrecision" stroke="rgb(0,0,255)" stroke-opacity="0.498">
      <rect x="719.52" width="25" height="50" y="449.625" clip-path="url(#clipPath2)" stroke="none"/>
    </g>
    <g text-rendering="geometricPrecision" stroke-miterlimit="1.45" shape-rendering="geometricPrecision" transform="matrix(1,0,0,1,-279,-424)" stroke-linecap="butt">
      <rect fill="none" x="719.52" width="25" height="50" y="449.625" clip-path="url(#clipPath2)"/>
    </g>
    <g transform="matrix(1,0,0,1,-279,-424)" fill-opacity="0.498" fill="rgb(181,35,196)" text-rendering="geometricPrecision" shape-rendering="geometricPrecision" stroke="rgb(181,35,196)" stroke-opacity="0.498">
      <rect x="767.02" width="50" height="50" y="449.625" clip-path="url(#clipPath2)" stroke="none"/>
    </g>
    <g text-rendering="geometricPrecision" stroke-miterlimit="1.45" shape-rendering="geometricPrecision" transform="matrix(1,0,0,1,-279,-424)" stroke-linecap="butt">
      <rect fill="none" x="767.02" width="50" height="50" y="449.625" clip-path="url(#clipPath2)"/>
      <text x="780.897" font-size="20px" y="482.4814" clip-path="url(#clipPath2)" font-family="sans-serif" stroke="none" xml:space="preserve">55</text>
    </g>
    <g transform="matrix(1,0,0,1,-279,-424)" fill-opacity="0.498" fill="rgb(181,35,196)" text-rendering="geometricPrecision" shape-rendering="geometricPrecision" stroke="rgb(181,35,196)" stroke-opacity="0.498">
      <rect x="817.02" width="25" height="50" y="449.625" clip-path="url(#clipPath2)" stroke="none"/>
    </g>
    <g text-rendering="geometricPrecision" stroke-miterlimit="1.45" shape-rendering="geometricPrecision" transform="matrix(1,0,0,1,-279,-424)" stroke-linecap="butt">
      <rect fill="none" x="817.02" width="25" height="50" y="449.625" clip-path="url(#clipPath2)"/>
      <circle fill="none" r="10" clip-path="url(#clipPath2)" cx="854.52" cy="509.625"/>
      <text x="850.3525" font-size="10px" y="513.5532" clip-path="url(#clipPath2)" font-family="sans-serif" stroke="none" xml:space="preserve">///</text>
    </g>
    <g transform="matrix(1,0,0,1,-279,-424)" fill-opacity="0.498" fill="rgb(255,0,0)" text-rendering="geometricPrecision" shape-rendering="geometricPrecision" stroke="rgb(255,0,0)" stroke-opacity="0.498">
      <rect x="294.96" width="58.16" height="30" y="459.625" clip-path="url(#clipPath2)" stroke="none"/>
    </g>
    <g text-rendering="geometricPrecision" stroke-miterlimit="1.45" shape-rendering="geometricPrecision" transform="matrix(1,0,0,1,-279,-424)" stroke-linecap="butt">
      <rect fill="none" x="294.96" width="58.16" height="30" y="459.625" clip-path="url(#clipPath2)"/>
      <text x="299.0254" font-size="20px" y="482.4814" clip-path="url(#clipPath2)" font-family="sans-serif" stroke="none" xml:space="preserve">Lnum</text>
    </g>
    <g transform="matrix(1,0,0,1,-279,-424)" fill-opacity="0.498" fill="rgb(255,0,0)" text-rendering="geometricPrecision" shape-rendering="geometricPrecision" stroke="rgb(255,0,0)" stroke-opacity="0.498">
      <rect x="377.02" width="50" height="50" y="449.625" clip-path="url(#clipPath2)" stroke="none"/>
    </g>
    <g text-rendering="geometricPrecision" stroke-miterlimit="1.45" shape-rendering="geometricPrecision" transform="matrix(1,0,0,1,-279,-424)" stroke-linecap="butt">
      <rect fill="none" x="377.02" width="50" height="50" y="449.625" clip-path="url(#clipPath2)"/>
      <text x="390.8969" font-size="20px" y="482.4814" clip-path="url(#clipPath2)" font-family="sans-serif" stroke="none" xml:space="preserve">16</text>
    </g>
    <g transform="matrix(1,0,0,1,-279,-424)" fill-opacity="0.498" fill="rgb(255,0,0)" text-rendering="geometricPrecision" shape-rendering="geometricPrecision" stroke="rgb(255,0,0)" stroke-opacity="0.498">
      <rect x="427.02" width="25" height="50" y="449.625" clip-path="url(#clipPath2)" stroke="none"/>
    </g>
    <g text-rendering="geometricPrecision" stroke-miterlimit="1.45" shape-rendering="geometricPrecision" transform="matrix(1,0,0,1,-279,-424)" stroke-linecap="butt">
      <rect fill="none" x="427.02" width="25" height="50" y="449.625" clip-path="url(#clipPath2)"/>
    </g>
    <g fill="rgb(255,204,0)" text-rendering="geometricPrecision" shape-rendering="geometricPrecision" transform="matrix(1,0,0,1,-279,-424)" stroke="rgb(255,204,0)">
      <rect x="614.125" width="184.94" height="71.25" y="545.625" clip-path="url(#clipPath2)" stroke="none"/>
    </g>
    <g text-rendering="geometricPrecision" stroke-miterlimit="1.45" shape-rendering="geometricPrecision" transform="matrix(1,0,0,1,-279,-424)" stroke-linecap="butt">
      <rect fill="none" x="614.125" width="184.94" height="71.25" y="545.625" clip-path="url(#clipPath2)"/>
      <text x="645.7356" font-size="20px" y="589.1064" clip-path="url(#clipPath2)" font-family="sans-serif" stroke="none" xml:space="preserve">Filtro: x &gt; 50?</text>
      <rect x="659.72" y="439" clip-path="url(#clipPath2)" fill="none" width="93.75" stroke-dasharray="18,6" height="71.25" stroke-width="3"/>
      <rect fill="none" x="614.125" width="184.94" height="98" y="662.875" clip-path="url(#clipPath2)"/>
    </g>
    <g transform="matrix(1,0,0,1,-279,-424)" fill-opacity="0.498" fill="rgb(0,128,0)" text-rendering="geometricPrecision" shape-rendering="geometricPrecision" stroke="rgb(0,128,0)" stroke-opacity="0.498">
      <rect x="619.095" width="50" height="50" y="680" clip-path="url(#clipPath2)" stroke="none"/>
    </g>
    <g text-rendering="geometricPrecision" stroke-miterlimit="1.45" shape-rendering="geometricPrecision" transform="matrix(1,0,0,1,-279,-424)" stroke-linecap="butt">
      <rect fill="none" x="619.095" width="50" height="50" y="680" clip-path="url(#clipPath2)"/>
      <text x="632.9719" font-size="20px" y="712.8564" clip-path="url(#clipPath2)" font-family="sans-serif" stroke="none" xml:space="preserve">76</text>
    </g>
    <g transform="matrix(1,0,0,1,-279,-424)" fill-opacity="0.498" fill="rgb(0,128,0)" text-rendering="geometricPrecision" shape-rendering="geometricPrecision" stroke="rgb(0,128,0)" stroke-opacity="0.498">
      <rect x="669.095" width="25" height="50" y="680" clip-path="url(#clipPath2)" stroke="none"/>
    </g>
    <g text-rendering="geometricPrecision" stroke-miterlimit="1.45" shape-rendering="geometricPrecision" transform="matrix(1,0,0,1,-279,-424)" stroke-linecap="butt">
      <rect fill="none" x="669.095" width="25" height="50" y="680" clip-path="url(#clipPath2)"/>
      <circle fill="none" r="10" clip-path="url(#clipPath2)" cx="706.595" cy="740"/>
      <text x="702.4275" font-size="10px" y="743.9282" clip-path="url(#clipPath2)" font-family="sans-serif" stroke="none" xml:space="preserve">///</text>
      <path fill="none" d="M542.02 474.625 L556.895 474.625" stroke-width="4" clip-path="url(#clipPath2)"/>
      <path d="M572.02 474.625 L555.52 466.375 L555.52 482.875 Z" stroke-width="4" clip-path="url(#clipPath2)" stroke="none"/>
      <path fill="none" d="M639.52 474.625 L654.395 474.625" stroke-width="4" clip-path="url(#clipPath2)"/>
      <path d="M669.52 474.625 L653.02 466.375 L653.02 482.875 Z" stroke-width="4" clip-path="url(#clipPath2)" stroke="none"/>
      <path fill="none" d="M737.02 474.625 L751.895 474.625" stroke-width="4" clip-path="url(#clipPath2)"/>
      <path d="M767.02 474.625 L750.52 466.375 L750.52 482.875 Z" stroke-width="4" clip-path="url(#clipPath2)" stroke="none"/>
      <path fill="none" d="M834.52 474.625 L854.52 474.625 L854.52 484.5" stroke-width="4" clip-path="url(#clipPath2)"/>
      <path d="M854.52 499.625 L862.77 483.125 L846.27 483.125 Z" stroke-width="4" clip-path="url(#clipPath2)" stroke="none"/>
      <path fill="none" d="M353.12 474.625 L361.8483 474.625" stroke-width="4" clip-path="url(#clipPath2)"/>
      <path d="M376.9733 474.625 L360.4733 466.375 L360.4733 482.875 Z" stroke-width="4" clip-path="url(#clipPath2)" stroke="none"/>
      <path fill="none" d="M444.52 474.625 L459.3657 474.625" stroke-width="4" clip-path="url(#clipPath2)"/>
      <path d="M474.4907 474.625 L457.9907 466.375 L457.9907 482.875 Z" stroke-width="4" clip-path="url(#clipPath2)" stroke="none"/>
      <path fill="none" stroke-dasharray="18,6" d="M659.9977 510.252 L616.0811 545.2957" stroke-width="3" clip-path="url(#clipPath2)"/>
      <path fill="none" stroke-dasharray="18,6" d="M751.0811 510.6706 L795.5184 545.5953" stroke-width="3" clip-path="url(#clipPath2)"/>
    </g>
    <g stroke-linecap="butt" transform="matrix(1,0,0,1,-279,-424)" fill-opacity="0.498" fill="rgb(255,0,0)" text-rendering="geometricPrecision" shape-rendering="geometricPrecision" stroke="rgb(255,0,0)" stroke-width="4" stroke-opacity="0.498" stroke-miterlimit="1.45">
      <path fill="none" d="M706.595 616.875 L706.595 647.7051" clip-path="url(#clipPath2)"/>
      <path d="M706.595 662.8301 L714.845 646.3301 L698.345 646.3301 Z" clip-path="url(#clipPath2)" stroke="none"/>
    </g>
    <g text-rendering="geometricPrecision" stroke-miterlimit="1.45" stroke-width="4" shape-rendering="geometricPrecision" transform="matrix(1,0,0,1,-279,-424)" stroke-linecap="butt">
      <path fill="none" d="M686.595 705 L706.595 705 L706.595 714.875" clip-path="url(#clipPath2)"/>
      <path d="M706.595 730 L714.845 713.5 L698.345 713.5 Z" clip-path="url(#clipPath2)" stroke="none"/>
    </g>
  </g>
</svg>
