<?xml version="1.0" encoding="UTF-8"?><svg xmlns="http://www.w3.org/2000/svg" xmlns:xlink="http://www.w3.org/1999/xlink" fill-opacity="1" color-rendering="auto" color-interpolation="auto" text-rendering="auto" stroke="black" stroke-linecap="square" width="604" stroke-miterlimit="10" shape-rendering="auto" stroke-opacity="1" fill="black" stroke-dasharray="none" font-weight="normal" stroke-width="1" height="327" font-family="'Dialog'" font-style="normal" stroke-linejoin="miter" font-size="12px" stroke-dashoffset="0" image-rendering="auto">
  <!--Generated by ySVG 2.5-->
  <defs id="genericDefs"/>
  <g>
    <defs id="defs1">
      <clipPath clipPathUnits="userSpaceOnUse" id="clipPath1">
        <path d="M0 0 L604 0 L604 327 L0 327 L0 0 Z"/>
      </clipPath>
      <clipPath clipPathUnits="userSpaceOnUse" id="clipPath2">
        <path d="M256 380 L860 380 L860 707 L256 707 L256 380 Z"/>
      </clipPath>
    </defs>
    <g transform="matrix(1,0,0,1,-256,-380)" fill-opacity="0.498" fill="rgb(255,102,0)" text-rendering="geometricPrecision" shape-rendering="geometricPrecision" stroke="rgb(255,102,0)" stroke-opacity="0.498">
      <rect x="454.8504" width="50" height="50" y="439.5" clip-path="url(#clipPath2)" stroke="none"/>
    </g>
    <g text-rendering="geometricPrecision" stroke-miterlimit="1.45" shape-rendering="geometricPrecision" transform="matrix(1,0,0,1,-256,-380)" stroke-linecap="butt">
      <rect fill="none" x="454.8504" width="50" height="50" y="439.5" clip-path="url(#clipPath2)"/>
      <text x="468.7273" font-size="20px" y="472.3564" clip-path="url(#clipPath2)" font-family="sans-serif" stroke="none" xml:space="preserve">33</text>
    </g>
    <g transform="matrix(1,0,0,1,-256,-380)" fill-opacity="0.498" fill="rgb(255,102,0)" text-rendering="geometricPrecision" shape-rendering="geometricPrecision" stroke="rgb(255,102,0)" stroke-opacity="0.498">
      <rect x="504.8504" width="25" height="50" y="439.5" clip-path="url(#clipPath2)" stroke="none"/>
    </g>
    <g text-rendering="geometricPrecision" stroke-miterlimit="1.45" shape-rendering="geometricPrecision" transform="matrix(1,0,0,1,-256,-380)" stroke-linecap="butt">
      <rect fill="none" x="504.8504" width="25" height="50" y="439.5" clip-path="url(#clipPath2)"/>
    </g>
    <g transform="matrix(1,0,0,1,-256,-380)" fill-opacity="0.498" fill="rgb(0,128,0)" text-rendering="geometricPrecision" shape-rendering="geometricPrecision" stroke="rgb(0,128,0)" stroke-opacity="0.498">
      <rect x="552.3504" width="50" height="50" y="439.5" clip-path="url(#clipPath2)" stroke="none"/>
    </g>
    <g text-rendering="geometricPrecision" stroke-miterlimit="1.45" shape-rendering="geometricPrecision" transform="matrix(1,0,0,1,-256,-380)" stroke-linecap="butt">
      <rect fill="none" x="552.3504" width="50" height="50" y="439.5" clip-path="url(#clipPath2)"/>
      <text x="566.2274" font-size="20px" y="472.3564" clip-path="url(#clipPath2)" font-family="sans-serif" stroke="none" xml:space="preserve">76</text>
    </g>
    <g transform="matrix(1,0,0,1,-256,-380)" fill-opacity="0.498" fill="rgb(0,128,0)" text-rendering="geometricPrecision" shape-rendering="geometricPrecision" stroke="rgb(0,128,0)" stroke-opacity="0.498">
      <rect x="602.3504" width="25" height="50" y="439.5" clip-path="url(#clipPath2)" stroke="none"/>
    </g>
    <g text-rendering="geometricPrecision" stroke-miterlimit="1.45" shape-rendering="geometricPrecision" transform="matrix(1,0,0,1,-256,-380)" stroke-linecap="butt">
      <rect fill="none" x="602.3504" width="25" height="50" y="439.5" clip-path="url(#clipPath2)"/>
    </g>
    <g transform="matrix(1,0,0,1,-256,-380)" fill-opacity="0.498" fill="rgb(0,0,255)" text-rendering="geometricPrecision" shape-rendering="geometricPrecision" stroke="rgb(0,0,255)" stroke-opacity="0.498">
      <rect x="649.8504" width="50" height="50" y="439.5" clip-path="url(#clipPath2)" stroke="none"/>
    </g>
    <g text-rendering="geometricPrecision" stroke-miterlimit="1.45" shape-rendering="geometricPrecision" transform="matrix(1,0,0,1,-256,-380)" stroke-linecap="butt">
      <rect fill="none" x="649.8504" width="50" height="50" y="439.5" clip-path="url(#clipPath2)"/>
      <text x="663.7274" font-size="20px" y="472.3564" clip-path="url(#clipPath2)" font-family="sans-serif" stroke="none" xml:space="preserve">23</text>
    </g>
    <g transform="matrix(1,0,0,1,-256,-380)" fill-opacity="0.498" fill="rgb(0,0,255)" text-rendering="geometricPrecision" shape-rendering="geometricPrecision" stroke="rgb(0,0,255)" stroke-opacity="0.498">
      <rect x="699.8504" width="25" height="50" y="439.5" clip-path="url(#clipPath2)" stroke="none"/>
    </g>
    <g text-rendering="geometricPrecision" stroke-miterlimit="1.45" shape-rendering="geometricPrecision" transform="matrix(1,0,0,1,-256,-380)" stroke-linecap="butt">
      <rect fill="none" x="699.8504" width="25" height="50" y="439.5" clip-path="url(#clipPath2)"/>
    </g>
    <g transform="matrix(1,0,0,1,-256,-380)" fill-opacity="0.498" fill="rgb(181,35,196)" text-rendering="geometricPrecision" shape-rendering="geometricPrecision" stroke="rgb(181,35,196)" stroke-opacity="0.498">
      <rect x="747.3504" width="50" height="50" y="439.5" clip-path="url(#clipPath2)" stroke="none"/>
    </g>
    <g text-rendering="geometricPrecision" stroke-miterlimit="1.45" shape-rendering="geometricPrecision" transform="matrix(1,0,0,1,-256,-380)" stroke-linecap="butt">
      <rect fill="none" x="747.3504" width="50" height="50" y="439.5" clip-path="url(#clipPath2)"/>
      <text x="761.2274" font-size="20px" y="472.3564" clip-path="url(#clipPath2)" font-family="sans-serif" stroke="none" xml:space="preserve">55</text>
    </g>
    <g transform="matrix(1,0,0,1,-256,-380)" fill-opacity="0.498" fill="rgb(181,35,196)" text-rendering="geometricPrecision" shape-rendering="geometricPrecision" stroke="rgb(181,35,196)" stroke-opacity="0.498">
      <rect x="797.3504" width="25" height="50" y="439.5" clip-path="url(#clipPath2)" stroke="none"/>
    </g>
    <g text-rendering="geometricPrecision" stroke-miterlimit="1.45" shape-rendering="geometricPrecision" transform="matrix(1,0,0,1,-256,-380)" stroke-linecap="butt">
      <rect fill="none" x="797.3504" width="25" height="50" y="439.5" clip-path="url(#clipPath2)"/>
      <circle fill="none" r="10" clip-path="url(#clipPath2)" cx="834.8504" cy="499.5"/>
      <text x="830.6829" font-size="10px" y="503.4282" clip-path="url(#clipPath2)" font-family="sans-serif" stroke="none" xml:space="preserve">///</text>
    </g>
    <g transform="matrix(1,0,0,1,-256,-380)" fill-opacity="0.498" fill="rgb(255,0,0)" text-rendering="geometricPrecision" shape-rendering="geometricPrecision" stroke="rgb(255,0,0)" stroke-opacity="0.498">
      <rect x="275.2904" width="58.16" height="30" y="449.5" clip-path="url(#clipPath2)" stroke="none"/>
    </g>
    <g text-rendering="geometricPrecision" stroke-miterlimit="1.45" shape-rendering="geometricPrecision" transform="matrix(1,0,0,1,-256,-380)" stroke-linecap="butt">
      <rect fill="none" x="275.2904" width="58.16" height="30" y="449.5" clip-path="url(#clipPath2)"/>
      <text x="279.3557" font-size="20px" y="472.3564" clip-path="url(#clipPath2)" font-family="sans-serif" stroke="none" xml:space="preserve">Lnum</text>
    </g>
    <g transform="matrix(1,0,0,1,-256,-380)" fill-opacity="0.498" fill="rgb(255,0,0)" text-rendering="geometricPrecision" shape-rendering="geometricPrecision" stroke="rgb(255,0,0)" stroke-opacity="0.498">
      <rect x="357.3504" width="50" height="50" y="439.5" clip-path="url(#clipPath2)" stroke="none"/>
    </g>
    <g text-rendering="geometricPrecision" stroke-miterlimit="1.45" shape-rendering="geometricPrecision" transform="matrix(1,0,0,1,-256,-380)" stroke-linecap="butt">
      <rect fill="none" x="357.3504" width="50" height="50" y="439.5" clip-path="url(#clipPath2)"/>
      <text x="371.2273" font-size="20px" y="472.3564" clip-path="url(#clipPath2)" font-family="sans-serif" stroke="none" xml:space="preserve">16</text>
    </g>
    <g transform="matrix(1,0,0,1,-256,-380)" fill-opacity="0.498" fill="rgb(255,0,0)" text-rendering="geometricPrecision" shape-rendering="geometricPrecision" stroke="rgb(255,0,0)" stroke-opacity="0.498">
      <rect x="407.3504" width="25" height="50" y="439.5" clip-path="url(#clipPath2)" stroke="none"/>
    </g>
    <g text-rendering="geometricPrecision" stroke-miterlimit="1.45" shape-rendering="geometricPrecision" transform="matrix(1,0,0,1,-256,-380)" stroke-linecap="butt">
      <rect fill="none" x="407.3504" width="25" height="50" y="439.5" clip-path="url(#clipPath2)"/>
    </g>
    <g fill="rgb(255,204,0)" text-rendering="geometricPrecision" shape-rendering="geometricPrecision" transform="matrix(1,0,0,1,-256,-380)" stroke="rgb(255,204,0)">
      <rect x="399.8954" width="184.94" height="71.25" y="535.5" clip-path="url(#clipPath2)" stroke="none"/>
    </g>
    <g text-rendering="geometricPrecision" stroke-miterlimit="1.45" shape-rendering="geometricPrecision" transform="matrix(1,0,0,1,-256,-380)" stroke-linecap="butt">
      <rect fill="none" x="399.8954" width="184.94" height="71.25" y="535.5" clip-path="url(#clipPath2)"/>
      <text x="430.3927" font-size="20px" y="578.9814" clip-path="url(#clipPath2)" font-family="sans-serif" stroke="none" xml:space="preserve">Reductor: x+y</text>
      <rect x="445.4904" y="428.875" clip-path="url(#clipPath2)" fill="none" width="93.75" stroke-dasharray="18,6" height="71.25" stroke-width="3"/>
    </g>
    <g fill="rgb(255,255,153)" text-rendering="geometricPrecision" shape-rendering="geometricPrecision" transform="matrix(1,0,0,1,-256,-380)" stroke="rgb(255,255,153)">
      <rect x="271.5355" width="93.75" height="38" y="552.125" clip-path="url(#clipPath2)" stroke="none"/>
    </g>
    <g text-rendering="geometricPrecision" stroke-miterlimit="1.45" shape-rendering="geometricPrecision" transform="matrix(1,0,0,1,-256,-380)" stroke-linecap="butt">
      <rect fill="none" x="271.5355" width="93.75" height="38" y="552.125" clip-path="url(#clipPath2)"/>
      <text x="283.1078" font-size="20px" y="578.9814" clip-path="url(#clipPath2)" font-family="sans-serif" stroke="none" xml:space="preserve">init = 16</text>
    </g>
    <g fill="rgb(204,255,204)" text-rendering="geometricPrecision" shape-rendering="geometricPrecision" transform="matrix(1,0,0,1,-256,-380)" stroke="rgb(204,255,204)">
      <rect x="460.0854" width="64.56" height="30" y="661.2568" clip-path="url(#clipPath2)" stroke="none"/>
    </g>
    <g text-rendering="geometricPrecision" stroke-miterlimit="1.45" shape-rendering="geometricPrecision" transform="matrix(1,0,0,1,-256,-380)" stroke-linecap="butt">
      <rect fill="none" x="460.0854" width="64.56" height="30" y="661.2568" clip-path="url(#clipPath2)"/>
      <text x="481.2423" font-size="20px" y="684.1132" clip-path="url(#clipPath2)" font-family="sans-serif" stroke="none" xml:space="preserve">49</text>
      <text x="379.8004" font-size="20px" y="558.6732" clip-path="url(#clipPath2)" font-family="sans-serif" stroke="none" xml:space="preserve">x</text>
      <text x="487.3654" font-size="20px" y="417.3564" clip-path="url(#clipPath2)" font-family="sans-serif" stroke="none" xml:space="preserve">y</text>
      <path fill="none" d="M522.3504 464.5 L537.2254 464.5" stroke-width="4" clip-path="url(#clipPath2)"/>
      <path d="M552.3504 464.5 L535.8504 456.25 L535.8504 472.75 Z" stroke-width="4" clip-path="url(#clipPath2)" stroke="none"/>
      <path fill="none" d="M619.8504 464.5 L634.7254 464.5" stroke-width="4" clip-path="url(#clipPath2)"/>
      <path d="M649.8504 464.5 L633.3504 456.25 L633.3504 472.75 Z" stroke-width="4" clip-path="url(#clipPath2)" stroke="none"/>
      <path fill="none" d="M717.3504 464.5 L732.2254 464.5" stroke-width="4" clip-path="url(#clipPath2)"/>
      <path d="M747.3504 464.5 L730.8504 456.25 L730.8504 472.75 Z" stroke-width="4" clip-path="url(#clipPath2)" stroke="none"/>
      <path fill="none" d="M814.8504 464.5 L834.8504 464.5 L834.8504 474.375" stroke-width="4" clip-path="url(#clipPath2)"/>
      <path d="M834.8504 489.5 L843.1004 473 L826.6004 473 Z" stroke-width="4" clip-path="url(#clipPath2)" stroke="none"/>
      <path fill="none" d="M333.4504 464.5 L342.1787 464.5" stroke-width="4" clip-path="url(#clipPath2)"/>
      <path d="M357.3037 464.5 L340.8037 456.25 L340.8037 472.75 Z" stroke-width="4" clip-path="url(#clipPath2)" stroke="none"/>
      <path fill="none" d="M424.8504 464.5 L439.6961 464.5" stroke-width="4" clip-path="url(#clipPath2)"/>
      <path d="M454.8211 464.5 L438.3211 456.25 L438.3211 472.75 Z" stroke-width="4" clip-path="url(#clipPath2)" stroke="none"/>
      <path fill="none" stroke-dasharray="18,6" d="M445.7681 500.127 L401.8515 535.1707" stroke-width="3" clip-path="url(#clipPath2)"/>
      <path fill="none" stroke-dasharray="18,6" d="M536.8515 500.5456 L581.2887 535.4703" stroke-width="3" clip-path="url(#clipPath2)"/>
      <path fill="none" d="M365.2855 571.125 L384.7704 571.125" stroke-width="4" clip-path="url(#clipPath2)"/>
      <path d="M399.8954 571.125 L383.3954 562.875 L383.3954 579.375 Z" stroke-width="4" clip-path="url(#clipPath2)" stroke="none"/>
      <path fill="none" d="M492.3654 606.75 L492.3654 647.5068" stroke-width="3" clip-path="url(#clipPath2)"/>
      <path d="M492.3654 661.2568 L499.8654 646.2568 L484.8654 646.2568 Z" stroke-width="3" clip-path="url(#clipPath2)" stroke="none"/>
      <path fill="none" stroke-dasharray="12,4" d="M460.1037 682.0046 L459.1222 682.1416 L443.7327 683.0455 L429.1644 682.5904 L415.4176 680.7762 L402.492 677.603 L390.3878 673.0709 L379.105 667.1796 L368.6435 659.9294 L359.0033 651.3201 L350.1845 641.3518 L342.187 630.0245 L335.0109 617.3381 L328.6561 603.2928 L326.9758 598.615" stroke-width="2" clip-path="url(#clipPath2)"/>
      <path stroke-dasharray="12,4" d="M323.9332 590.1449 L323.2032 604.7516 L327.3561 599.6738 L333.7909 600.9484 Z" stroke-width="2" clip-path="url(#clipPath2)" stroke="none"/>
    </g>
  </g>
</svg>
