<?xml version="1.0" encoding="UTF-8"?><svg xmlns="http://www.w3.org/2000/svg" xmlns:xlink="http://www.w3.org/1999/xlink" fill-opacity="1" color-rendering="auto" color-interpolation="auto" text-rendering="auto" stroke="black" stroke-linecap="square" width="457" stroke-miterlimit="10" shape-rendering="auto" stroke-opacity="1" fill="black" stroke-dasharray="none" font-weight="normal" stroke-width="1" height="220" font-family="'Dialog'" font-style="normal" stroke-linejoin="miter" font-size="12px" stroke-dashoffset="0" image-rendering="auto">
  <!--Generated by ySVG 2.6-->
  <defs id="genericDefs"/>
  <g>
    <defs id="defs1">
      <clipPath clipPathUnits="userSpaceOnUse" id="clipPath1">
        <path d="M0 0 L457 0 L457 220 L0 220 L0 0 Z"/>
      </clipPath>
      <clipPath clipPathUnits="userSpaceOnUse" id="clipPath2">
        <path d="M188 149 L645 149 L645 369 L188 369 L188 149 Z"/>
      </clipPath>
    </defs>
    <g text-rendering="geometricPrecision" stroke-miterlimit="1.45" shape-rendering="geometricPrecision" font-family="'Courier New'" transform="matrix(1,0,0,1,-188,-149)" stroke-linecap="butt">
      <text x="558.7894" xml:space="preserve" y="176.3965" clip-path="url(#clipPath2)" stroke="none">contenido</text>
    </g>
    <g text-rendering="geometricPrecision" stroke-miterlimit="1.45" shape-rendering="geometricPrecision" font-family="'Courier New'" transform="matrix(1,0,0,1,-188,-149)" stroke-linecap="butt">
      <text x="558.7894" xml:space="preserve" y="189.9902" clip-path="url(#clipPath2)" stroke="none">(valores)</text>
      <rect fill="none" x="230" width="80" height="30" y="195" clip-path="url(#clipPath2)"/>
      <text x="265.7993" xml:space="preserve" font-size="14px" y="213.7256" clip-path="url(#clipPath2)" stroke="none">2</text>
      <rect fill="none" x="230" width="80" height="30" y="255" clip-path="url(#clipPath2)"/>
      <text x="257.3979" xml:space="preserve" font-size="14px" y="273.7256" clip-path="url(#clipPath2)" stroke="none">'4'</text>
      <rect fill="none" x="230" width="80" height="30" y="225" clip-path="url(#clipPath2)"/>
      <text x="236.3945" xml:space="preserve" font-size="14px" y="243.7256" clip-path="url(#clipPath2)" stroke="none">'gatito'</text>
      <rect fill="none" x="230" width="80" height="30" y="315" clip-path="url(#clipPath2)"/>
      <text x="236.3945" xml:space="preserve" font-size="14px" y="333.7256" clip-path="url(#clipPath2)" stroke="none">'cuatro'</text>
      <rect fill="none" x="230" width="80" height="30" y="285" clip-path="url(#clipPath2)"/>
      <text x="240.5952" xml:space="preserve" font-size="14px" y="303.7256" clip-path="url(#clipPath2)" stroke="none">'clave'</text>
      <rect fill="none" x="435" width="150" height="30" y="195" clip-path="url(#clipPath2)"/>
      <text x="493.1973" xml:space="preserve" font-size="14px" y="213.7256" clip-path="url(#clipPath2)" stroke="none">3312</text>
      <rect fill="none" x="435" width="150" height="30" y="255" clip-path="url(#clipPath2)"/>
      <text x="505.7993" xml:space="preserve" font-size="14px" y="273.7256" clip-path="url(#clipPath2)" stroke="none">4</text>
      <rect fill="none" x="435" width="150" height="30" y="225" clip-path="url(#clipPath2)"/>
      <text x="446.9897" xml:space="preserve" font-size="14px" y="243.7256" clip-path="url(#clipPath2)" stroke="none">'felino que...'</text>
      <rect fill="none" x="435" width="150" height="30" y="315" clip-path="url(#clipPath2)"/>
      <text x="505.7993" xml:space="preserve" font-size="14px" y="333.7256" clip-path="url(#clipPath2)" stroke="none">4</text>
      <rect fill="none" x="435" width="150" height="30" y="285" clip-path="url(#clipPath2)"/>
      <text x="463.7925" xml:space="preserve" font-size="14px" y="303.7256" clip-path="url(#clipPath2)" stroke="none">'kawaii123'</text>
      <text x="213.1918" xml:space="preserve" y="176.3965" clip-path="url(#clipPath2)" stroke="none">índice</text>
      <text x="205.9906" xml:space="preserve" y="189.9902" clip-path="url(#clipPath2)" stroke="none">(llaves)</text>
      <path fill="none" d="M310.0138 209.1787 L320.9868 209.6296 L326.6176 210.6354 L334.4967 213.2824 L344.6242 217.5706 L357 223.5 L363 226.5 L369.6446 229.4655 L376.0782 231.6118 L382.3009 232.9391 L388.3128 233.4473 L394.1137 233.1364 L399.7038 232.0065 L405.0829 230.0574 L410.2512 227.2893 L428.2026 216.0221" clip-path="url(#clipPath2)"/>
      <path d="M434.9785 211.7692 L422.1566 213.9136 L427.3556 216.5537 L427.4727 222.3835 Z" clip-path="url(#clipPath2)" stroke="none"/>
      <path fill="none" d="M310.0219 272.4138 L321.0098 271.0862 L326.6305 271.4547 L334.5024 273.6465 L344.6256 277.6616 L357 283.5 L363 286.5 L369.6447 289.4514 L376.079 291.5556 L382.3027 292.8127 L388.3159 293.2225 L394.1186 292.7852 L399.7108 291.5006 L405.0924 289.3689 L410.2636 286.39 L428.3649 274.2324" clip-path="url(#clipPath2)"/>
      <path d="M435.006 269.7719 L422.2566 272.3119 L427.5348 274.7899 L427.8322 280.6133 Z" clip-path="url(#clipPath2)" stroke="none"/>
      <path fill="none" d="M310.0296 240.0881 L320.994 240.0397 L326.6216 240.8661 L334.4985 243.3849 L344.6246 247.5962 L357 253.5 L363 256.5 L369.6447 259.4719 L376.0786 261.6377 L382.3019 262.9972 L388.3145 263.5506 L394.1164 263.2979 L399.7076 262.2389 L405.0882 260.3738 L410.258 257.7025 L428.155 246.8383" clip-path="url(#clipPath2)"/>
      <path d="M434.9936 242.687 L422.1411 244.6399 L427.3001 247.3573 L427.3302 253.1881 Z" clip-path="url(#clipPath2)" stroke="none"/>
      <path fill="none" d="M310.0278 331.0865 L321.0125 330.4889 L326.632 331.1188 L334.5031 333.4972 L344.6258 337.6243 L357 343.5 L363 346.5 L369.6446 349.4531 L376.0785 351.5625 L382.3016 352.8281 L388.3139 353.25 L394.1155 352.8281 L399.7063 351.5625 L405.0864 349.4531 L410.2556 346.5 L428.3314 334.4529" clip-path="url(#clipPath2)"/>
      <path d="M434.9884 330.0161 L422.23 332.5106 L427.4993 335.0074 L427.7759 340.8318 Z" clip-path="url(#clipPath2)" stroke="none"/>
      <path fill="none" d="M310.0175 300.7649 L321.0079 300.3442 L326.6294 301.0374 L334.502 303.4611 L344.6255 307.6153 L357 313.5 L363 316.5 L369.6446 319.4531 L376.0785 321.5625 L382.3016 322.8281 L388.3139 323.25 L394.1155 322.8281 L399.7063 321.5625 L405.0864 319.4531 L410.2556 316.5 L428.3314 304.4529" clip-path="url(#clipPath2)"/>
      <path d="M434.9884 300.0161 L422.23 302.5106 L427.4993 305.0074 L427.7759 310.8318 Z" clip-path="url(#clipPath2)" stroke="none"/>
    </g>
  </g>
</svg>
