<?xml version="1.0" encoding="UTF-8"?><svg xmlns="http://www.w3.org/2000/svg" xmlns:xlink="http://www.w3.org/1999/xlink" fill-opacity="1" color-rendering="auto" color-interpolation="auto" text-rendering="auto" stroke="black" stroke-linecap="square" width="539" stroke-miterlimit="10" shape-rendering="auto" stroke-opacity="1" fill="black" stroke-dasharray="none" font-weight="normal" stroke-width="1" height="869" font-family="'Dialog'" font-style="normal" stroke-linejoin="miter" font-size="12px" stroke-dashoffset="0" image-rendering="auto">
  <!--Generated by ySVG 2.6-->
  <defs id="genericDefs"/>
  <g>
    <defs id="defs1">
      <clipPath clipPathUnits="userSpaceOnUse" id="clipPath1">
        <path d="M0 0 L539 0 L539 869 L0 869 L0 0 Z"/>
      </clipPath>
      <clipPath clipPathUnits="userSpaceOnUse" id="clipPath2">
        <path d="M197 -167 L736 -167 L736 702 L197 702 L197 -167 Z"/>
      </clipPath>
    </defs>
    <g transform="matrix(1,0,0,1,-197,167)" fill-opacity="0.498" fill="rgb(255,102,0)" text-rendering="geometricPrecision" shape-rendering="geometricPrecision" stroke="rgb(255,102,0)" stroke-opacity="0.498">
      <rect x="278.45" width="50" height="50" y="288.65" clip-path="url(#clipPath2)" stroke="none"/>
    </g>
    <g text-rendering="geometricPrecision" stroke-miterlimit="1.45" shape-rendering="geometricPrecision" transform="matrix(1,0,0,1,-197,167)" stroke-linecap="butt">
      <rect fill="none" x="278.45" width="50" height="50" y="288.65" clip-path="url(#clipPath2)"/>
      <text x="292.327" font-size="20px" y="321.5064" clip-path="url(#clipPath2)" font-family="sans-serif" stroke="none" xml:space="preserve">58</text>
    </g>
    <g transform="matrix(1,0,0,1,-197,167)" fill-opacity="0.498" fill="rgb(255,102,0)" text-rendering="geometricPrecision" shape-rendering="geometricPrecision" stroke="rgb(255,102,0)" stroke-opacity="0.498">
      <rect x="328.45" width="25" height="50" y="288.65" clip-path="url(#clipPath2)" stroke="none"/>
    </g>
    <g text-rendering="geometricPrecision" stroke-miterlimit="1.45" shape-rendering="geometricPrecision" transform="matrix(1,0,0,1,-197,167)" stroke-linecap="butt">
      <rect fill="none" x="328.45" width="25" height="50" y="288.65" clip-path="url(#clipPath2)"/>
    </g>
    <g transform="matrix(1,0,0,1,-197,167)" fill-opacity="0.498" fill="rgb(0,128,0)" text-rendering="geometricPrecision" shape-rendering="geometricPrecision" stroke="rgb(0,128,0)" stroke-opacity="0.498">
      <rect x="375.95" width="50" height="50" y="288.65" clip-path="url(#clipPath2)" stroke="none"/>
    </g>
    <g text-rendering="geometricPrecision" stroke-miterlimit="1.45" shape-rendering="geometricPrecision" transform="matrix(1,0,0,1,-197,167)" stroke-linecap="butt">
      <rect fill="none" x="375.95" width="50" height="50" y="288.65" clip-path="url(#clipPath2)"/>
      <text x="389.827" font-size="20px" y="321.5064" clip-path="url(#clipPath2)" font-family="sans-serif" stroke="none" xml:space="preserve">42</text>
    </g>
    <g transform="matrix(1,0,0,1,-197,167)" fill-opacity="0.498" fill="rgb(0,128,0)" text-rendering="geometricPrecision" shape-rendering="geometricPrecision" stroke="rgb(0,128,0)" stroke-opacity="0.498">
      <rect x="425.95" width="25" height="50" y="288.65" clip-path="url(#clipPath2)" stroke="none"/>
    </g>
    <g text-rendering="geometricPrecision" stroke-miterlimit="1.45" shape-rendering="geometricPrecision" transform="matrix(1,0,0,1,-197,167)" stroke-linecap="butt">
      <rect fill="none" x="425.95" width="25" height="50" y="288.65" clip-path="url(#clipPath2)"/>
    </g>
    <g transform="matrix(1,0,0,1,-197,167)" fill-opacity="0.498" fill="rgb(0,0,255)" text-rendering="geometricPrecision" shape-rendering="geometricPrecision" stroke="rgb(0,0,255)" stroke-opacity="0.498">
      <rect x="473.45" width="50" height="50" y="288.65" clip-path="url(#clipPath2)" stroke="none"/>
    </g>
    <g text-rendering="geometricPrecision" stroke-miterlimit="1.45" shape-rendering="geometricPrecision" transform="matrix(1,0,0,1,-197,167)" stroke-linecap="butt">
      <rect fill="none" x="473.45" width="50" height="50" y="288.65" clip-path="url(#clipPath2)"/>
      <text x="487.327" font-size="20px" y="321.5064" clip-path="url(#clipPath2)" font-family="sans-serif" stroke="none" xml:space="preserve">23</text>
    </g>
    <g transform="matrix(1,0,0,1,-197,167)" fill-opacity="0.498" fill="rgb(0,0,255)" text-rendering="geometricPrecision" shape-rendering="geometricPrecision" stroke="rgb(0,0,255)" stroke-opacity="0.498">
      <rect x="523.45" width="25" height="50" y="288.65" clip-path="url(#clipPath2)" stroke="none"/>
    </g>
    <g text-rendering="geometricPrecision" stroke-miterlimit="1.45" shape-rendering="geometricPrecision" transform="matrix(1,0,0,1,-197,167)" stroke-linecap="butt">
      <rect fill="none" x="523.45" width="25" height="50" y="288.65" clip-path="url(#clipPath2)"/>
    </g>
    <g transform="matrix(1,0,0,1,-197,167)" fill-opacity="0.498" fill="rgb(181,35,196)" text-rendering="geometricPrecision" shape-rendering="geometricPrecision" stroke="rgb(181,35,196)" stroke-opacity="0.498">
      <rect x="570.95" width="50" height="50" y="288.65" clip-path="url(#clipPath2)" stroke="none"/>
    </g>
    <g text-rendering="geometricPrecision" stroke-miterlimit="1.45" shape-rendering="geometricPrecision" transform="matrix(1,0,0,1,-197,167)" stroke-linecap="butt">
      <rect fill="none" x="570.95" width="50" height="50" y="288.65" clip-path="url(#clipPath2)"/>
      <text x="584.827" font-size="20px" y="321.5064" clip-path="url(#clipPath2)" font-family="sans-serif" stroke="none" xml:space="preserve">35</text>
    </g>
    <g transform="matrix(1,0,0,1,-197,167)" fill-opacity="0.498" fill="rgb(181,35,196)" text-rendering="geometricPrecision" shape-rendering="geometricPrecision" stroke="rgb(181,35,196)" stroke-opacity="0.498">
      <rect x="620.95" width="25" height="50" y="288.65" clip-path="url(#clipPath2)" stroke="none"/>
    </g>
    <g text-rendering="geometricPrecision" stroke-miterlimit="1.45" shape-rendering="geometricPrecision" transform="matrix(1,0,0,1,-197,167)" stroke-linecap="butt">
      <rect fill="none" x="620.95" width="25" height="50" y="288.65" clip-path="url(#clipPath2)"/>
      <circle fill="none" r="10" clip-path="url(#clipPath2)" cx="658.45" cy="348.65"/>
      <text x="654.2825" font-size="10px" y="352.5782" clip-path="url(#clipPath2)" font-family="sans-serif" stroke="none" xml:space="preserve">///</text>
    </g>
    <g transform="matrix(1,0,0,1,-197,167)" fill-opacity="0.498" fill="rgb(255,0,0)" text-rendering="geometricPrecision" shape-rendering="geometricPrecision" stroke="rgb(255,0,0)" stroke-opacity="0.498">
      <rect x="218.45" width="30" height="30" y="298.65" clip-path="url(#clipPath2)" stroke="none"/>
    </g>
    <g text-rendering="geometricPrecision" stroke-miterlimit="1.45" shape-rendering="geometricPrecision" transform="matrix(1,0,0,1,-197,167)" stroke-linecap="butt">
      <rect fill="none" x="218.45" width="30" height="30" y="298.65" clip-path="url(#clipPath2)"/>
      <text x="227.449" font-size="20px" y="318.9723" clip-path="url(#clipPath2)" font-family="'Courier New'" stroke="none" xml:space="preserve">L</text>
      <rect fill="none" x="212.7" width="459.5" height="80.65" y="282.525" clip-path="url(#clipPath2)"/>
    </g>
    <g fill="rgb(255,204,0)" text-rendering="geometricPrecision" shape-rendering="geometricPrecision" transform="matrix(1,0,0,1,-197,167)" stroke="rgb(255,204,0)">
      <rect x="243.95" width="130" height="30" y="413.6531" clip-path="url(#clipPath2)" stroke="none"/>
    </g>
    <g text-rendering="geometricPrecision" stroke-miterlimit="1.45" shape-rendering="geometricPrecision" transform="matrix(1,0,0,1,-197,167)" stroke-linecap="butt">
      <rect fill="none" x="243.95" width="130" height="30" y="413.6531" clip-path="url(#clipPath2)"/>
      <text x="266.9432" font-size="20px" y="433.9754" clip-path="url(#clipPath2)" font-family="'Courier New'" stroke="none" xml:space="preserve">cola(L)</text>
      <rect fill="none" x="416.45" width="304" height="82" y="385.65" clip-path="url(#clipPath2)"/>
    </g>
    <g fill="rgb(204,255,204)" text-rendering="geometricPrecision" shape-rendering="geometricPrecision" transform="matrix(1,0,0,1,-197,167)" stroke="rgb(204,255,204)">
      <rect x="434.85" width="53.75" height="30" y="-20.4438" clip-path="url(#clipPath2)" stroke="none"/>
    </g>
    <g text-rendering="geometricPrecision" stroke-miterlimit="1.45" shape-rendering="geometricPrecision" transform="matrix(1,0,0,1,-197,167)" stroke-linecap="butt">
      <rect fill="none" x="434.85" width="53.75" height="30" y="-20.4438" clip-path="url(#clipPath2)"/>
      <text x="441.1635" font-size="20px" y="2.4127" clip-path="url(#clipPath2)" font-family="sans-serif" stroke="none" xml:space="preserve">True</text>
    </g>
    <g transform="matrix(1,0,0,1,-197,167)" fill-opacity="0.498" fill="rgb(0,128,0)" text-rendering="geometricPrecision" shape-rendering="geometricPrecision" stroke="rgb(0,128,0)" stroke-opacity="0.498">
      <rect x="423.45" width="50" height="50" y="393.175" clip-path="url(#clipPath2)" stroke="none"/>
    </g>
    <g text-rendering="geometricPrecision" stroke-miterlimit="1.45" shape-rendering="geometricPrecision" transform="matrix(1,0,0,1,-197,167)" stroke-linecap="butt">
      <rect fill="none" x="423.45" width="50" height="50" y="393.175" clip-path="url(#clipPath2)"/>
      <text x="437.327" font-size="20px" y="426.0314" clip-path="url(#clipPath2)" font-family="sans-serif" stroke="none" xml:space="preserve">42</text>
    </g>
    <g transform="matrix(1,0,0,1,-197,167)" fill-opacity="0.498" fill="rgb(0,128,0)" text-rendering="geometricPrecision" shape-rendering="geometricPrecision" stroke="rgb(0,128,0)" stroke-opacity="0.498">
      <rect x="473.45" width="25" height="50" y="393.175" clip-path="url(#clipPath2)" stroke="none"/>
    </g>
    <g text-rendering="geometricPrecision" stroke-miterlimit="1.45" shape-rendering="geometricPrecision" transform="matrix(1,0,0,1,-197,167)" stroke-linecap="butt">
      <rect fill="none" x="473.45" width="25" height="50" y="393.175" clip-path="url(#clipPath2)"/>
    </g>
    <g transform="matrix(1,0,0,1,-197,167)" fill-opacity="0.498" fill="rgb(0,0,255)" text-rendering="geometricPrecision" shape-rendering="geometricPrecision" stroke="rgb(0,0,255)" stroke-opacity="0.498">
      <rect x="520.95" width="50" height="50" y="393.175" clip-path="url(#clipPath2)" stroke="none"/>
    </g>
    <g text-rendering="geometricPrecision" stroke-miterlimit="1.45" shape-rendering="geometricPrecision" transform="matrix(1,0,0,1,-197,167)" stroke-linecap="butt">
      <rect fill="none" x="520.95" width="50" height="50" y="393.175" clip-path="url(#clipPath2)"/>
      <text x="534.827" font-size="20px" y="426.0314" clip-path="url(#clipPath2)" font-family="sans-serif" stroke="none" xml:space="preserve">23</text>
    </g>
    <g transform="matrix(1,0,0,1,-197,167)" fill-opacity="0.498" fill="rgb(0,0,255)" text-rendering="geometricPrecision" shape-rendering="geometricPrecision" stroke="rgb(0,0,255)" stroke-opacity="0.498">
      <rect x="570.95" width="25" height="50" y="393.175" clip-path="url(#clipPath2)" stroke="none"/>
    </g>
    <g text-rendering="geometricPrecision" stroke-miterlimit="1.45" shape-rendering="geometricPrecision" transform="matrix(1,0,0,1,-197,167)" stroke-linecap="butt">
      <rect fill="none" x="570.95" width="25" height="50" y="393.175" clip-path="url(#clipPath2)"/>
    </g>
    <g transform="matrix(1,0,0,1,-197,167)" fill-opacity="0.498" fill="rgb(181,35,196)" text-rendering="geometricPrecision" shape-rendering="geometricPrecision" stroke="rgb(181,35,196)" stroke-opacity="0.498">
      <rect x="618.45" width="50" height="50" y="393.175" clip-path="url(#clipPath2)" stroke="none"/>
    </g>
    <g text-rendering="geometricPrecision" stroke-miterlimit="1.45" shape-rendering="geometricPrecision" transform="matrix(1,0,0,1,-197,167)" stroke-linecap="butt">
      <rect fill="none" x="618.45" width="50" height="50" y="393.175" clip-path="url(#clipPath2)"/>
      <text x="632.327" font-size="20px" y="426.0314" clip-path="url(#clipPath2)" font-family="sans-serif" stroke="none" xml:space="preserve">35</text>
    </g>
    <g transform="matrix(1,0,0,1,-197,167)" fill-opacity="0.498" fill="rgb(181,35,196)" text-rendering="geometricPrecision" shape-rendering="geometricPrecision" stroke="rgb(181,35,196)" stroke-opacity="0.498">
      <rect x="668.45" width="25" height="50" y="393.175" clip-path="url(#clipPath2)" stroke="none"/>
    </g>
    <g text-rendering="geometricPrecision" stroke-miterlimit="1.45" shape-rendering="geometricPrecision" transform="matrix(1,0,0,1,-197,167)" stroke-linecap="butt">
      <rect fill="none" x="668.45" width="25" height="50" y="393.175" clip-path="url(#clipPath2)"/>
      <circle fill="none" r="10" clip-path="url(#clipPath2)" cx="705.95" cy="453.175"/>
      <text x="701.7825" font-size="10px" y="457.1032" clip-path="url(#clipPath2)" font-family="sans-serif" stroke="none" xml:space="preserve">///</text>
    </g>
    <g transform="matrix(1,0,0,1,-197,167)" fill-opacity="0.498" fill="rgb(255,102,0)" text-rendering="geometricPrecision" shape-rendering="geometricPrecision" stroke="rgb(255,102,0)" stroke-opacity="0.498">
      <rect x="278.45" width="50" height="50" y="505.6188" clip-path="url(#clipPath2)" stroke="none"/>
    </g>
    <g text-rendering="geometricPrecision" stroke-miterlimit="1.45" shape-rendering="geometricPrecision" transform="matrix(1,0,0,1,-197,167)" stroke-linecap="butt">
      <rect fill="none" x="278.45" width="50" height="50" y="505.6188" clip-path="url(#clipPath2)"/>
      <text x="292.327" font-size="20px" y="538.4752" clip-path="url(#clipPath2)" font-family="sans-serif" stroke="none" xml:space="preserve">58</text>
    </g>
    <g transform="matrix(1,0,0,1,-197,167)" fill-opacity="0.498" fill="rgb(255,102,0)" text-rendering="geometricPrecision" shape-rendering="geometricPrecision" stroke="rgb(255,102,0)" stroke-opacity="0.498">
      <rect x="328.45" width="25" height="50" y="505.6188" clip-path="url(#clipPath2)" stroke="none"/>
    </g>
    <g text-rendering="geometricPrecision" stroke-miterlimit="1.45" shape-rendering="geometricPrecision" transform="matrix(1,0,0,1,-197,167)" stroke-linecap="butt">
      <rect fill="none" x="328.45" width="25" height="50" y="505.6188" clip-path="url(#clipPath2)"/>
    </g>
    <g transform="matrix(1,0,0,1,-197,167)" fill-opacity="0.498" fill="rgb(0,128,0)" text-rendering="geometricPrecision" shape-rendering="geometricPrecision" stroke="rgb(0,128,0)" stroke-opacity="0.498">
      <rect x="375.95" width="50" height="50" y="505.6188" clip-path="url(#clipPath2)" stroke="none"/>
    </g>
    <g text-rendering="geometricPrecision" stroke-miterlimit="1.45" shape-rendering="geometricPrecision" transform="matrix(1,0,0,1,-197,167)" stroke-linecap="butt">
      <rect fill="none" x="375.95" width="50" height="50" y="505.6188" clip-path="url(#clipPath2)"/>
      <text x="389.827" font-size="20px" y="538.4752" clip-path="url(#clipPath2)" font-family="sans-serif" stroke="none" xml:space="preserve">42</text>
    </g>
    <g transform="matrix(1,0,0,1,-197,167)" fill-opacity="0.498" fill="rgb(0,128,0)" text-rendering="geometricPrecision" shape-rendering="geometricPrecision" stroke="rgb(0,128,0)" stroke-opacity="0.498">
      <rect x="425.95" width="25" height="50" y="505.6188" clip-path="url(#clipPath2)" stroke="none"/>
    </g>
    <g text-rendering="geometricPrecision" stroke-miterlimit="1.45" shape-rendering="geometricPrecision" transform="matrix(1,0,0,1,-197,167)" stroke-linecap="butt">
      <rect fill="none" x="425.95" width="25" height="50" y="505.6188" clip-path="url(#clipPath2)"/>
    </g>
    <g transform="matrix(1,0,0,1,-197,167)" fill-opacity="0.498" fill="rgb(0,0,255)" text-rendering="geometricPrecision" shape-rendering="geometricPrecision" stroke="rgb(0,0,255)" stroke-opacity="0.498">
      <rect x="473.45" width="50" height="50" y="505.6188" clip-path="url(#clipPath2)" stroke="none"/>
    </g>
    <g text-rendering="geometricPrecision" stroke-miterlimit="1.45" shape-rendering="geometricPrecision" transform="matrix(1,0,0,1,-197,167)" stroke-linecap="butt">
      <rect fill="none" x="473.45" width="50" height="50" y="505.6188" clip-path="url(#clipPath2)"/>
      <text x="487.327" font-size="20px" y="538.4752" clip-path="url(#clipPath2)" font-family="sans-serif" stroke="none" xml:space="preserve">23</text>
    </g>
    <g transform="matrix(1,0,0,1,-197,167)" fill-opacity="0.498" fill="rgb(0,0,255)" text-rendering="geometricPrecision" shape-rendering="geometricPrecision" stroke="rgb(0,0,255)" stroke-opacity="0.498">
      <rect x="523.45" width="25" height="50" y="505.6188" clip-path="url(#clipPath2)" stroke="none"/>
    </g>
    <g text-rendering="geometricPrecision" stroke-miterlimit="1.45" shape-rendering="geometricPrecision" transform="matrix(1,0,0,1,-197,167)" stroke-linecap="butt">
      <rect fill="none" x="523.45" width="25" height="50" y="505.6188" clip-path="url(#clipPath2)"/>
    </g>
    <g transform="matrix(1,0,0,1,-197,167)" fill-opacity="0.498" fill="rgb(181,35,196)" text-rendering="geometricPrecision" shape-rendering="geometricPrecision" stroke="rgb(181,35,196)" stroke-opacity="0.498">
      <rect x="570.95" width="50" height="50" y="505.6188" clip-path="url(#clipPath2)" stroke="none"/>
    </g>
    <g text-rendering="geometricPrecision" stroke-miterlimit="1.45" shape-rendering="geometricPrecision" transform="matrix(1,0,0,1,-197,167)" stroke-linecap="butt">
      <rect fill="none" x="570.95" width="50" height="50" y="505.6188" clip-path="url(#clipPath2)"/>
      <text x="584.827" font-size="20px" y="538.4752" clip-path="url(#clipPath2)" font-family="sans-serif" stroke="none" xml:space="preserve">35</text>
    </g>
    <g transform="matrix(1,0,0,1,-197,167)" fill-opacity="0.498" fill="rgb(181,35,196)" text-rendering="geometricPrecision" shape-rendering="geometricPrecision" stroke="rgb(181,35,196)" stroke-opacity="0.498">
      <rect x="620.95" width="25" height="50" y="505.6188" clip-path="url(#clipPath2)" stroke="none"/>
    </g>
    <g text-rendering="geometricPrecision" stroke-miterlimit="1.45" shape-rendering="geometricPrecision" transform="matrix(1,0,0,1,-197,167)" stroke-linecap="butt">
      <rect fill="none" x="620.95" width="25" height="50" y="505.6188" clip-path="url(#clipPath2)"/>
      <circle fill="none" r="10" clip-path="url(#clipPath2)" cx="658.45" cy="565.6188"/>
      <text x="654.2825" font-size="10px" y="569.547" clip-path="url(#clipPath2)" font-family="sans-serif" stroke="none" xml:space="preserve">///</text>
    </g>
    <g transform="matrix(1,0,0,1,-197,167)" fill-opacity="0.498" fill="rgb(255,0,0)" text-rendering="geometricPrecision" shape-rendering="geometricPrecision" stroke="rgb(255,0,0)" stroke-opacity="0.498">
      <rect x="218.45" width="30" height="30" y="515.6188" clip-path="url(#clipPath2)" stroke="none"/>
    </g>
    <g text-rendering="geometricPrecision" stroke-miterlimit="1.45" shape-rendering="geometricPrecision" transform="matrix(1,0,0,1,-197,167)" stroke-linecap="butt">
      <rect fill="none" x="218.45" width="30" height="30" y="515.6188" clip-path="url(#clipPath2)"/>
      <text x="227.449" font-size="20px" y="535.941" clip-path="url(#clipPath2)" font-family="'Courier New'" stroke="none" xml:space="preserve">L</text>
      <rect fill="none" x="212.7" width="459.5" height="80.65" y="499.4938" clip-path="url(#clipPath2)"/>
    </g>
    <g fill="rgb(255,204,0)" text-rendering="geometricPrecision" shape-rendering="geometricPrecision" transform="matrix(1,0,0,1,-197,167)" stroke="rgb(255,204,0)">
      <rect x="243.95" width="130" height="30" y="630.6219" clip-path="url(#clipPath2)" stroke="none"/>
    </g>
    <g text-rendering="geometricPrecision" stroke-miterlimit="1.45" shape-rendering="geometricPrecision" transform="matrix(1,0,0,1,-197,167)" stroke-linecap="butt">
      <rect fill="none" x="243.95" width="130" height="30" y="630.6219" clip-path="url(#clipPath2)"/>
      <text x="260.9422" font-size="20px" y="650.9442" clip-path="url(#clipPath2)" font-family="'Courier New'" stroke="none" xml:space="preserve">largo(L)</text>
      <rect fill="none" x="416.45" width="90.55" height="82" y="604.4625" clip-path="url(#clipPath2)"/>
      <text x="456.1635" font-size="20px" y="653.319" clip-path="url(#clipPath2)" font-family="sans-serif" stroke="none" xml:space="preserve">4</text>
    </g>
    <g transform="matrix(1,0,0,1,-197,167)" fill-opacity="0.498" fill="rgb(255,102,0)" text-rendering="geometricPrecision" shape-rendering="geometricPrecision" stroke="rgb(255,102,0)" stroke-opacity="0.498">
      <rect x="278.45" width="50" height="50" y="71.6812" clip-path="url(#clipPath2)" stroke="none"/>
    </g>
    <g text-rendering="geometricPrecision" stroke-miterlimit="1.45" shape-rendering="geometricPrecision" transform="matrix(1,0,0,1,-197,167)" stroke-linecap="butt">
      <rect fill="none" x="278.45" width="50" height="50" y="71.6812" clip-path="url(#clipPath2)"/>
      <text x="292.327" font-size="20px" y="104.5377" clip-path="url(#clipPath2)" font-family="sans-serif" stroke="none" xml:space="preserve">58</text>
    </g>
    <g transform="matrix(1,0,0,1,-197,167)" fill-opacity="0.498" fill="rgb(255,102,0)" text-rendering="geometricPrecision" shape-rendering="geometricPrecision" stroke="rgb(255,102,0)" stroke-opacity="0.498">
      <rect x="328.45" width="25" height="50" y="71.6812" clip-path="url(#clipPath2)" stroke="none"/>
    </g>
    <g text-rendering="geometricPrecision" stroke-miterlimit="1.45" shape-rendering="geometricPrecision" transform="matrix(1,0,0,1,-197,167)" stroke-linecap="butt">
      <rect fill="none" x="328.45" width="25" height="50" y="71.6812" clip-path="url(#clipPath2)"/>
    </g>
    <g transform="matrix(1,0,0,1,-197,167)" fill-opacity="0.498" fill="rgb(0,128,0)" text-rendering="geometricPrecision" shape-rendering="geometricPrecision" stroke="rgb(0,128,0)" stroke-opacity="0.498">
      <rect x="375.95" width="50" height="50" y="71.6812" clip-path="url(#clipPath2)" stroke="none"/>
    </g>
    <g text-rendering="geometricPrecision" stroke-miterlimit="1.45" shape-rendering="geometricPrecision" transform="matrix(1,0,0,1,-197,167)" stroke-linecap="butt">
      <rect fill="none" x="375.95" width="50" height="50" y="71.6812" clip-path="url(#clipPath2)"/>
      <text x="389.827" font-size="20px" y="104.5377" clip-path="url(#clipPath2)" font-family="sans-serif" stroke="none" xml:space="preserve">42</text>
    </g>
    <g transform="matrix(1,0,0,1,-197,167)" fill-opacity="0.498" fill="rgb(0,128,0)" text-rendering="geometricPrecision" shape-rendering="geometricPrecision" stroke="rgb(0,128,0)" stroke-opacity="0.498">
      <rect x="425.95" width="25" height="50" y="71.6812" clip-path="url(#clipPath2)" stroke="none"/>
    </g>
    <g text-rendering="geometricPrecision" stroke-miterlimit="1.45" shape-rendering="geometricPrecision" transform="matrix(1,0,0,1,-197,167)" stroke-linecap="butt">
      <rect fill="none" x="425.95" width="25" height="50" y="71.6812" clip-path="url(#clipPath2)"/>
    </g>
    <g transform="matrix(1,0,0,1,-197,167)" fill-opacity="0.498" fill="rgb(0,0,255)" text-rendering="geometricPrecision" shape-rendering="geometricPrecision" stroke="rgb(0,0,255)" stroke-opacity="0.498">
      <rect x="473.45" width="50" height="50" y="71.6812" clip-path="url(#clipPath2)" stroke="none"/>
    </g>
    <g text-rendering="geometricPrecision" stroke-miterlimit="1.45" shape-rendering="geometricPrecision" transform="matrix(1,0,0,1,-197,167)" stroke-linecap="butt">
      <rect fill="none" x="473.45" width="50" height="50" y="71.6812" clip-path="url(#clipPath2)"/>
      <text x="487.327" font-size="20px" y="104.5377" clip-path="url(#clipPath2)" font-family="sans-serif" stroke="none" xml:space="preserve">23</text>
    </g>
    <g transform="matrix(1,0,0,1,-197,167)" fill-opacity="0.498" fill="rgb(0,0,255)" text-rendering="geometricPrecision" shape-rendering="geometricPrecision" stroke="rgb(0,0,255)" stroke-opacity="0.498">
      <rect x="523.45" width="25" height="50" y="71.6812" clip-path="url(#clipPath2)" stroke="none"/>
    </g>
    <g text-rendering="geometricPrecision" stroke-miterlimit="1.45" shape-rendering="geometricPrecision" transform="matrix(1,0,0,1,-197,167)" stroke-linecap="butt">
      <rect fill="none" x="523.45" width="25" height="50" y="71.6812" clip-path="url(#clipPath2)"/>
    </g>
    <g transform="matrix(1,0,0,1,-197,167)" fill-opacity="0.498" fill="rgb(181,35,196)" text-rendering="geometricPrecision" shape-rendering="geometricPrecision" stroke="rgb(181,35,196)" stroke-opacity="0.498">
      <rect x="570.95" width="50" height="50" y="71.6812" clip-path="url(#clipPath2)" stroke="none"/>
    </g>
    <g text-rendering="geometricPrecision" stroke-miterlimit="1.45" shape-rendering="geometricPrecision" transform="matrix(1,0,0,1,-197,167)" stroke-linecap="butt">
      <rect fill="none" x="570.95" width="50" height="50" y="71.6812" clip-path="url(#clipPath2)"/>
      <text x="584.827" font-size="20px" y="104.5377" clip-path="url(#clipPath2)" font-family="sans-serif" stroke="none" xml:space="preserve">35</text>
    </g>
    <g transform="matrix(1,0,0,1,-197,167)" fill-opacity="0.498" fill="rgb(181,35,196)" text-rendering="geometricPrecision" shape-rendering="geometricPrecision" stroke="rgb(181,35,196)" stroke-opacity="0.498">
      <rect x="620.95" width="25" height="50" y="71.6812" clip-path="url(#clipPath2)" stroke="none"/>
    </g>
    <g text-rendering="geometricPrecision" stroke-miterlimit="1.45" shape-rendering="geometricPrecision" transform="matrix(1,0,0,1,-197,167)" stroke-linecap="butt">
      <rect fill="none" x="620.95" width="25" height="50" y="71.6812" clip-path="url(#clipPath2)"/>
      <circle fill="none" r="10" clip-path="url(#clipPath2)" cx="658.45" cy="131.6812"/>
      <text x="654.2825" font-size="10px" y="135.6095" clip-path="url(#clipPath2)" font-family="sans-serif" stroke="none" xml:space="preserve">///</text>
    </g>
    <g transform="matrix(1,0,0,1,-197,167)" fill-opacity="0.498" fill="rgb(255,0,0)" text-rendering="geometricPrecision" shape-rendering="geometricPrecision" stroke="rgb(255,0,0)" stroke-opacity="0.498">
      <rect x="218.45" width="30" height="30" y="81.6812" clip-path="url(#clipPath2)" stroke="none"/>
    </g>
    <g text-rendering="geometricPrecision" stroke-miterlimit="1.45" shape-rendering="geometricPrecision" transform="matrix(1,0,0,1,-197,167)" stroke-linecap="butt">
      <rect fill="none" x="218.45" width="30" height="30" y="81.6812" clip-path="url(#clipPath2)"/>
      <text x="227.449" font-size="20px" y="102.0035" clip-path="url(#clipPath2)" font-family="'Courier New'" stroke="none" xml:space="preserve">L</text>
      <rect fill="none" x="212.7" width="459.5" height="80.65" y="65.5562" clip-path="url(#clipPath2)"/>
    </g>
    <g fill="rgb(255,204,0)" text-rendering="geometricPrecision" shape-rendering="geometricPrecision" transform="matrix(1,0,0,1,-197,167)" stroke="rgb(255,204,0)">
      <rect x="243.95" width="130" height="30" y="196.6844" clip-path="url(#clipPath2)" stroke="none"/>
    </g>
    <g text-rendering="geometricPrecision" stroke-miterlimit="1.45" shape-rendering="geometricPrecision" transform="matrix(1,0,0,1,-197,167)" stroke-linecap="butt">
      <rect fill="none" x="243.95" width="130" height="30" y="196.6844" clip-path="url(#clipPath2)"/>
      <text x="254.9412" font-size="20px" y="217.0066" clip-path="url(#clipPath2)" font-family="'Courier New'" stroke="none" xml:space="preserve">cabeza(L)</text>
      <rect fill="none" x="416.45" width="90.55" height="82" y="170.525" clip-path="url(#clipPath2)"/>
      <text x="450.602" font-size="20px" y="219.3814" clip-path="url(#clipPath2)" font-family="sans-serif" stroke="none" xml:space="preserve">58</text>
    </g>
    <g transform="matrix(1,0,0,1,-197,167)" fill-opacity="0.498" fill="rgb(255,102,0)" text-rendering="geometricPrecision" shape-rendering="geometricPrecision" stroke="rgb(255,102,0)" stroke-opacity="0.498">
      <rect x="278.45" width="50" height="50" y="-145.2875" clip-path="url(#clipPath2)" stroke="none"/>
    </g>
    <g text-rendering="geometricPrecision" stroke-miterlimit="1.45" shape-rendering="geometricPrecision" transform="matrix(1,0,0,1,-197,167)" stroke-linecap="butt">
      <rect fill="none" x="278.45" width="50" height="50" y="-145.2875" clip-path="url(#clipPath2)"/>
      <text x="292.327" font-size="20px" y="-112.4311" clip-path="url(#clipPath2)" font-family="sans-serif" stroke="none" xml:space="preserve">58</text>
    </g>
    <g transform="matrix(1,0,0,1,-197,167)" fill-opacity="0.498" fill="rgb(255,102,0)" text-rendering="geometricPrecision" shape-rendering="geometricPrecision" stroke="rgb(255,102,0)" stroke-opacity="0.498">
      <rect x="328.45" width="25" height="50" y="-145.2875" clip-path="url(#clipPath2)" stroke="none"/>
    </g>
    <g text-rendering="geometricPrecision" stroke-miterlimit="1.45" shape-rendering="geometricPrecision" transform="matrix(1,0,0,1,-197,167)" stroke-linecap="butt">
      <rect fill="none" x="328.45" width="25" height="50" y="-145.2875" clip-path="url(#clipPath2)"/>
    </g>
    <g transform="matrix(1,0,0,1,-197,167)" fill-opacity="0.498" fill="rgb(0,128,0)" text-rendering="geometricPrecision" shape-rendering="geometricPrecision" stroke="rgb(0,128,0)" stroke-opacity="0.498">
      <rect x="375.95" width="50" height="50" y="-145.2875" clip-path="url(#clipPath2)" stroke="none"/>
    </g>
    <g text-rendering="geometricPrecision" stroke-miterlimit="1.45" shape-rendering="geometricPrecision" transform="matrix(1,0,0,1,-197,167)" stroke-linecap="butt">
      <rect fill="none" x="375.95" width="50" height="50" y="-145.2875" clip-path="url(#clipPath2)"/>
      <text x="389.827" font-size="20px" y="-112.4311" clip-path="url(#clipPath2)" font-family="sans-serif" stroke="none" xml:space="preserve">42</text>
    </g>
    <g transform="matrix(1,0,0,1,-197,167)" fill-opacity="0.498" fill="rgb(0,128,0)" text-rendering="geometricPrecision" shape-rendering="geometricPrecision" stroke="rgb(0,128,0)" stroke-opacity="0.498">
      <rect x="425.95" width="25" height="50" y="-145.2875" clip-path="url(#clipPath2)" stroke="none"/>
    </g>
    <g text-rendering="geometricPrecision" stroke-miterlimit="1.45" shape-rendering="geometricPrecision" transform="matrix(1,0,0,1,-197,167)" stroke-linecap="butt">
      <rect fill="none" x="425.95" width="25" height="50" y="-145.2875" clip-path="url(#clipPath2)"/>
    </g>
    <g transform="matrix(1,0,0,1,-197,167)" fill-opacity="0.498" fill="rgb(0,0,255)" text-rendering="geometricPrecision" shape-rendering="geometricPrecision" stroke="rgb(0,0,255)" stroke-opacity="0.498">
      <rect x="473.45" width="50" height="50" y="-145.2875" clip-path="url(#clipPath2)" stroke="none"/>
    </g>
    <g text-rendering="geometricPrecision" stroke-miterlimit="1.45" shape-rendering="geometricPrecision" transform="matrix(1,0,0,1,-197,167)" stroke-linecap="butt">
      <rect fill="none" x="473.45" width="50" height="50" y="-145.2875" clip-path="url(#clipPath2)"/>
      <text x="487.327" font-size="20px" y="-112.4311" clip-path="url(#clipPath2)" font-family="sans-serif" stroke="none" xml:space="preserve">23</text>
    </g>
    <g transform="matrix(1,0,0,1,-197,167)" fill-opacity="0.498" fill="rgb(0,0,255)" text-rendering="geometricPrecision" shape-rendering="geometricPrecision" stroke="rgb(0,0,255)" stroke-opacity="0.498">
      <rect x="523.45" width="25" height="50" y="-145.2875" clip-path="url(#clipPath2)" stroke="none"/>
    </g>
    <g text-rendering="geometricPrecision" stroke-miterlimit="1.45" shape-rendering="geometricPrecision" transform="matrix(1,0,0,1,-197,167)" stroke-linecap="butt">
      <rect fill="none" x="523.45" width="25" height="50" y="-145.2875" clip-path="url(#clipPath2)"/>
    </g>
    <g transform="matrix(1,0,0,1,-197,167)" fill-opacity="0.498" fill="rgb(181,35,196)" text-rendering="geometricPrecision" shape-rendering="geometricPrecision" stroke="rgb(181,35,196)" stroke-opacity="0.498">
      <rect x="570.95" width="50" height="50" y="-145.2875" clip-path="url(#clipPath2)" stroke="none"/>
    </g>
    <g text-rendering="geometricPrecision" stroke-miterlimit="1.45" shape-rendering="geometricPrecision" transform="matrix(1,0,0,1,-197,167)" stroke-linecap="butt">
      <rect fill="none" x="570.95" width="50" height="50" y="-145.2875" clip-path="url(#clipPath2)"/>
      <text x="584.827" font-size="20px" y="-112.4311" clip-path="url(#clipPath2)" font-family="sans-serif" stroke="none" xml:space="preserve">35</text>
    </g>
    <g transform="matrix(1,0,0,1,-197,167)" fill-opacity="0.498" fill="rgb(181,35,196)" text-rendering="geometricPrecision" shape-rendering="geometricPrecision" stroke="rgb(181,35,196)" stroke-opacity="0.498">
      <rect x="620.95" width="25" height="50" y="-145.2875" clip-path="url(#clipPath2)" stroke="none"/>
    </g>
    <g text-rendering="geometricPrecision" stroke-miterlimit="1.45" shape-rendering="geometricPrecision" transform="matrix(1,0,0,1,-197,167)" stroke-linecap="butt">
      <rect fill="none" x="620.95" width="25" height="50" y="-145.2875" clip-path="url(#clipPath2)"/>
      <circle fill="none" r="10" clip-path="url(#clipPath2)" cx="658.45" cy="-85.2875"/>
      <text x="654.2825" font-size="10px" y="-81.3593" clip-path="url(#clipPath2)" font-family="sans-serif" stroke="none" xml:space="preserve">///</text>
    </g>
    <g transform="matrix(1,0,0,1,-197,167)" fill-opacity="0.498" fill="rgb(255,0,0)" text-rendering="geometricPrecision" shape-rendering="geometricPrecision" stroke="rgb(255,0,0)" stroke-opacity="0.498">
      <rect x="218.45" width="30" height="30" y="-135.2875" clip-path="url(#clipPath2)" stroke="none"/>
    </g>
    <g text-rendering="geometricPrecision" stroke-miterlimit="1.45" shape-rendering="geometricPrecision" transform="matrix(1,0,0,1,-197,167)" stroke-linecap="butt">
      <rect fill="none" x="218.45" width="30" height="30" y="-135.2875" clip-path="url(#clipPath2)"/>
      <text x="227.449" font-size="20px" y="-114.9652" clip-path="url(#clipPath2)" font-family="'Courier New'" stroke="none" xml:space="preserve">L</text>
      <rect fill="none" x="212.7" width="459.5" height="80.65" y="-151.4125" clip-path="url(#clipPath2)"/>
    </g>
    <g fill="rgb(255,204,0)" text-rendering="geometricPrecision" shape-rendering="geometricPrecision" transform="matrix(1,0,0,1,-197,167)" stroke="rgb(255,204,0)">
      <rect x="243.95" width="130" height="30" y="-20.2844" clip-path="url(#clipPath2)" stroke="none"/>
    </g>
    <g text-rendering="geometricPrecision" stroke-miterlimit="1.45" shape-rendering="geometricPrecision" transform="matrix(1,0,0,1,-197,167)" stroke-linecap="butt">
      <rect fill="none" x="243.95" width="130" height="30" y="-20.2844" clip-path="url(#clipPath2)"/>
      <text x="248.9402" font-size="20px" y="0.0379" clip-path="url(#clipPath2)" font-family="'Courier New'" stroke="none" xml:space="preserve">esLista(L)</text>
      <rect fill="none" x="416.45" width="90.55" height="82" y="-46.4438" clip-path="url(#clipPath2)"/>
      <path fill="none" d="M345.95 313.65 L360.825 313.65" stroke-width="4" clip-path="url(#clipPath2)"/>
      <path d="M375.95 313.65 L359.45 305.4 L359.45 321.9 Z" stroke-width="4" clip-path="url(#clipPath2)" stroke="none"/>
      <path fill="none" d="M443.45 313.65 L458.325 313.65" stroke-width="4" clip-path="url(#clipPath2)"/>
      <path d="M473.45 313.65 L456.95 305.4 L456.95 321.9 Z" stroke-width="4" clip-path="url(#clipPath2)" stroke="none"/>
      <path fill="none" d="M540.95 313.65 L555.825 313.65" stroke-width="4" clip-path="url(#clipPath2)"/>
      <path d="M570.95 313.65 L554.45 305.4 L554.45 321.9 Z" stroke-width="4" clip-path="url(#clipPath2)" stroke="none"/>
      <path fill="none" d="M638.45 313.65 L658.45 313.65 L658.45 323.525" stroke-width="4" clip-path="url(#clipPath2)"/>
      <path d="M658.45 338.65 L666.7 322.15 L650.2 322.15 Z" stroke-width="4" clip-path="url(#clipPath2)" stroke="none"/>
      <path fill="none" d="M248.45 313.65 L263.325 313.65" stroke-width="4" clip-path="url(#clipPath2)"/>
      <path d="M278.45 313.65 L261.95 305.4 L261.95 321.9 Z" stroke-width="4" clip-path="url(#clipPath2)" stroke="none"/>
      <path fill="none" d="M308.95 363.2 L308.95 399.9031" stroke-width="3" clip-path="url(#clipPath2)"/>
      <path d="M308.95 413.6531 L316.45 398.6531 L301.45 398.6531 Z" stroke-width="3" clip-path="url(#clipPath2)" stroke="none"/>
      <path fill="none" d="M373.95 427.4419 L402.6609 426.907" stroke-width="3" clip-path="url(#clipPath2)"/>
      <path d="M416.4085 426.6508 L401.2714 419.4315 L401.5508 434.4289 Z" stroke-width="3" clip-path="url(#clipPath2)" stroke="none"/>
      <path fill="none" d="M490.95 418.175 L505.825 418.175" stroke-width="4" clip-path="url(#clipPath2)"/>
      <path d="M520.95 418.175 L504.45 409.925 L504.45 426.425 Z" stroke-width="4" clip-path="url(#clipPath2)" stroke="none"/>
      <path fill="none" d="M588.45 418.175 L603.325 418.175" stroke-width="4" clip-path="url(#clipPath2)"/>
      <path d="M618.45 418.175 L601.95 409.925 L601.95 426.425 Z" stroke-width="4" clip-path="url(#clipPath2)" stroke="none"/>
      <path fill="none" d="M685.95 418.175 L705.95 418.175 L705.95 428.05" stroke-width="4" clip-path="url(#clipPath2)"/>
      <path d="M705.95 443.175 L714.2 426.675 L697.7 426.675 Z" stroke-width="4" clip-path="url(#clipPath2)" stroke="none"/>
      <path fill="none" d="M345.95 530.6188 L360.825 530.6188" stroke-width="4" clip-path="url(#clipPath2)"/>
      <path d="M375.95 530.6188 L359.45 522.3688 L359.45 538.8688 Z" stroke-width="4" clip-path="url(#clipPath2)" stroke="none"/>
      <path fill="none" d="M443.45 530.6188 L458.325 530.6188" stroke-width="4" clip-path="url(#clipPath2)"/>
      <path d="M473.45 530.6188 L456.95 522.3688 L456.95 538.8688 Z" stroke-width="4" clip-path="url(#clipPath2)" stroke="none"/>
      <path fill="none" d="M540.95 530.6188 L555.825 530.6188" stroke-width="4" clip-path="url(#clipPath2)"/>
      <path d="M570.95 530.6188 L554.45 522.3688 L554.45 538.8688 Z" stroke-width="4" clip-path="url(#clipPath2)" stroke="none"/>
      <path fill="none" d="M638.45 530.6188 L658.45 530.6188 L658.45 540.4938" stroke-width="4" clip-path="url(#clipPath2)"/>
      <path d="M658.45 555.6188 L666.7 539.1188 L650.2 539.1188 Z" stroke-width="4" clip-path="url(#clipPath2)" stroke="none"/>
      <path fill="none" d="M248.45 530.6188 L263.325 530.6188" stroke-width="4" clip-path="url(#clipPath2)"/>
      <path d="M278.45 530.6188 L261.95 522.3688 L261.95 538.8688 Z" stroke-width="4" clip-path="url(#clipPath2)" stroke="none"/>
      <path fill="none" d="M308.95 580.1688 L308.95 616.8719" stroke-width="3" clip-path="url(#clipPath2)"/>
      <path d="M308.95 630.6219 L316.45 615.6219 L301.45 615.6219 Z" stroke-width="3" clip-path="url(#clipPath2)" stroke="none"/>
      <path fill="none" d="M373.95 645.5541 L402.7 645.524" stroke-width="3" clip-path="url(#clipPath2)"/>
      <path d="M416.45 645.5097 L401.4422 638.0253 L401.4579 653.0253 Z" stroke-width="3" clip-path="url(#clipPath2)" stroke="none"/>
      <path fill="none" d="M345.95 96.6813 L360.825 96.6813" stroke-width="4" clip-path="url(#clipPath2)"/>
      <path d="M375.95 96.6813 L359.45 88.4313 L359.45 104.9313 Z" stroke-width="4" clip-path="url(#clipPath2)" stroke="none"/>
      <path fill="none" d="M443.45 96.6813 L458.325 96.6813" stroke-width="4" clip-path="url(#clipPath2)"/>
      <path d="M473.45 96.6813 L456.95 88.4313 L456.95 104.9313 Z" stroke-width="4" clip-path="url(#clipPath2)" stroke="none"/>
      <path fill="none" d="M540.95 96.6813 L555.825 96.6813" stroke-width="4" clip-path="url(#clipPath2)"/>
      <path d="M570.95 96.6813 L554.45 88.4313 L554.45 104.9313 Z" stroke-width="4" clip-path="url(#clipPath2)" stroke="none"/>
      <path fill="none" d="M638.45 96.6813 L658.45 96.6813 L658.45 106.5563" stroke-width="4" clip-path="url(#clipPath2)"/>
      <path d="M658.45 121.6813 L666.7 105.1813 L650.2 105.1813 Z" stroke-width="4" clip-path="url(#clipPath2)" stroke="none"/>
      <path fill="none" d="M248.45 96.6813 L263.325 96.6813" stroke-width="4" clip-path="url(#clipPath2)"/>
      <path d="M278.45 96.6813 L261.95 88.4313 L261.95 104.9313 Z" stroke-width="4" clip-path="url(#clipPath2)" stroke="none"/>
      <path fill="none" d="M308.95 146.2313 L308.95 182.9344" stroke-width="3" clip-path="url(#clipPath2)"/>
      <path d="M308.95 196.6844 L316.45 181.6844 L301.45 181.6844 Z" stroke-width="3" clip-path="url(#clipPath2)" stroke="none"/>
      <path fill="none" d="M373.95 211.6166 L402.7 211.5866" stroke-width="3" clip-path="url(#clipPath2)"/>
      <path d="M416.45 211.5722 L401.4422 204.0879 L401.4579 219.0879 Z" stroke-width="3" clip-path="url(#clipPath2)" stroke="none"/>
      <path fill="none" d="M345.95 -120.2875 L360.825 -120.2875" stroke-width="4" clip-path="url(#clipPath2)"/>
      <path d="M375.95 -120.2875 L359.45 -128.5375 L359.45 -112.0375 Z" stroke-width="4" clip-path="url(#clipPath2)" stroke="none"/>
      <path fill="none" d="M443.45 -120.2875 L458.325 -120.2875" stroke-width="4" clip-path="url(#clipPath2)"/>
      <path d="M473.45 -120.2875 L456.95 -128.5375 L456.95 -112.0375 Z" stroke-width="4" clip-path="url(#clipPath2)" stroke="none"/>
      <path fill="none" d="M540.95 -120.2875 L555.825 -120.2875" stroke-width="4" clip-path="url(#clipPath2)"/>
      <path d="M570.95 -120.2875 L554.45 -128.5375 L554.45 -112.0375 Z" stroke-width="4" clip-path="url(#clipPath2)" stroke="none"/>
      <path fill="none" d="M638.45 -120.2875 L658.45 -120.2875 L658.45 -110.4125" stroke-width="4" clip-path="url(#clipPath2)"/>
      <path d="M658.45 -95.2875 L666.7 -111.7875 L650.2 -111.7875 Z" stroke-width="4" clip-path="url(#clipPath2)" stroke="none"/>
      <path fill="none" d="M248.45 -120.2875 L263.325 -120.2875" stroke-width="4" clip-path="url(#clipPath2)"/>
      <path d="M278.45 -120.2875 L261.95 -128.5375 L261.95 -112.0375 Z" stroke-width="4" clip-path="url(#clipPath2)" stroke="none"/>
      <path fill="none" d="M308.95 -70.7374 L308.95 -34.0344" stroke-width="3" clip-path="url(#clipPath2)"/>
      <path d="M308.95 -20.2844 L316.45 -35.2844 L301.45 -35.2844 Z" stroke-width="3" clip-path="url(#clipPath2)" stroke="none"/>
      <path fill="none" d="M373.95 -5.3522 L402.7 -5.3822" stroke-width="3" clip-path="url(#clipPath2)"/>
      <path d="M416.45 -5.3965 L401.4422 -12.8809 L401.4579 2.1191 Z" stroke-width="3" clip-path="url(#clipPath2)" stroke="none"/>
    </g>
  </g>
</svg>
