<?xml version="1.0" encoding="UTF-8"?><svg xmlns="http://www.w3.org/2000/svg" xmlns:xlink="http://www.w3.org/1999/xlink" fill-opacity="1" color-rendering="auto" color-interpolation="auto" text-rendering="auto" stroke="black" stroke-linecap="square" width="491" stroke-miterlimit="10" shape-rendering="auto" stroke-opacity="1" fill="black" stroke-dasharray="none" font-weight="normal" stroke-width="1" height="435" font-family="'Dialog'" font-style="normal" stroke-linejoin="miter" font-size="12px" stroke-dashoffset="0" image-rendering="auto">
  <!--Generated by ySVG 2.6-->
  <defs id="genericDefs"/>
  <g>
    <defs id="defs1">
      <clipPath clipPathUnits="userSpaceOnUse" id="clipPath1">
        <path d="M0 0 L491 0 L491 435 L0 435 L0 0 Z"/>
      </clipPath>
      <clipPath clipPathUnits="userSpaceOnUse" id="clipPath2">
        <path d="M594 351 L1085 351 L1085 786 L594 786 L594 351 Z"/>
      </clipPath>
    </defs>
    <g fill="rgb(204,255,204)" text-rendering="geometricPrecision" shape-rendering="geometricPrecision" transform="matrix(1,0,0,1,-594,-351)" stroke="rgb(204,255,204)">
      <rect x="831.85" width="53.75" height="30" y="497.5562" clip-path="url(#clipPath2)" stroke="none"/>
    </g>
    <g text-rendering="geometricPrecision" stroke-miterlimit="1.45" shape-rendering="geometricPrecision" transform="matrix(1,0,0,1,-594,-351)" stroke-linecap="butt">
      <rect fill="none" x="831.85" width="53.75" height="30" y="497.5562" clip-path="url(#clipPath2)"/>
      <text x="838.1635" font-size="20px" y="520.4127" clip-path="url(#clipPath2)" font-family="sans-serif" stroke="none" xml:space="preserve">True</text>
    </g>
    <g transform="matrix(1,0,0,1,-594,-351)" fill-opacity="0.498" fill="rgb(255,102,0)" text-rendering="geometricPrecision" shape-rendering="geometricPrecision" stroke="rgb(255,102,0)" stroke-opacity="0.498">
      <rect x="675.45" width="50" height="50" y="589.6812" clip-path="url(#clipPath2)" stroke="none"/>
    </g>
    <g text-rendering="geometricPrecision" stroke-miterlimit="1.45" shape-rendering="geometricPrecision" transform="matrix(1,0,0,1,-594,-351)" stroke-linecap="butt">
      <rect fill="none" x="675.45" width="50" height="50" y="589.6812" clip-path="url(#clipPath2)"/>
      <text x="689.327" font-size="20px" y="622.5377" clip-path="url(#clipPath2)" font-family="sans-serif" stroke="none" xml:space="preserve">58</text>
    </g>
    <g transform="matrix(1,0,0,1,-594,-351)" fill-opacity="0.498" fill="rgb(255,102,0)" text-rendering="geometricPrecision" shape-rendering="geometricPrecision" stroke="rgb(255,102,0)" stroke-opacity="0.498">
      <rect x="725.45" width="25" height="50" y="589.6812" clip-path="url(#clipPath2)" stroke="none"/>
    </g>
    <g text-rendering="geometricPrecision" stroke-miterlimit="1.45" shape-rendering="geometricPrecision" transform="matrix(1,0,0,1,-594,-351)" stroke-linecap="butt">
      <rect fill="none" x="725.45" width="25" height="50" y="589.6812" clip-path="url(#clipPath2)"/>
    </g>
    <g transform="matrix(1,0,0,1,-594,-351)" fill-opacity="0.498" fill="rgb(0,128,0)" text-rendering="geometricPrecision" shape-rendering="geometricPrecision" stroke="rgb(0,128,0)" stroke-opacity="0.498">
      <rect x="772.95" width="50" height="50" y="589.6812" clip-path="url(#clipPath2)" stroke="none"/>
    </g>
    <g text-rendering="geometricPrecision" stroke-miterlimit="1.45" shape-rendering="geometricPrecision" transform="matrix(1,0,0,1,-594,-351)" stroke-linecap="butt">
      <rect fill="none" x="772.95" width="50" height="50" y="589.6812" clip-path="url(#clipPath2)"/>
      <text x="786.827" font-size="20px" y="622.5377" clip-path="url(#clipPath2)" font-family="sans-serif" stroke="none" xml:space="preserve">42</text>
    </g>
    <g transform="matrix(1,0,0,1,-594,-351)" fill-opacity="0.498" fill="rgb(0,128,0)" text-rendering="geometricPrecision" shape-rendering="geometricPrecision" stroke="rgb(0,128,0)" stroke-opacity="0.498">
      <rect x="822.95" width="25" height="50" y="589.6812" clip-path="url(#clipPath2)" stroke="none"/>
    </g>
    <g text-rendering="geometricPrecision" stroke-miterlimit="1.45" shape-rendering="geometricPrecision" transform="matrix(1,0,0,1,-594,-351)" stroke-linecap="butt">
      <rect fill="none" x="822.95" width="25" height="50" y="589.6812" clip-path="url(#clipPath2)"/>
    </g>
    <g transform="matrix(1,0,0,1,-594,-351)" fill-opacity="0.498" fill="rgb(0,0,255)" text-rendering="geometricPrecision" shape-rendering="geometricPrecision" stroke="rgb(0,0,255)" stroke-opacity="0.498">
      <rect x="870.45" width="50" height="50" y="589.6812" clip-path="url(#clipPath2)" stroke="none"/>
    </g>
    <g text-rendering="geometricPrecision" stroke-miterlimit="1.45" shape-rendering="geometricPrecision" transform="matrix(1,0,0,1,-594,-351)" stroke-linecap="butt">
      <rect fill="none" x="870.45" width="50" height="50" y="589.6812" clip-path="url(#clipPath2)"/>
      <text x="884.327" font-size="20px" y="622.5377" clip-path="url(#clipPath2)" font-family="sans-serif" stroke="none" xml:space="preserve">23</text>
    </g>
    <g transform="matrix(1,0,0,1,-594,-351)" fill-opacity="0.498" fill="rgb(0,0,255)" text-rendering="geometricPrecision" shape-rendering="geometricPrecision" stroke="rgb(0,0,255)" stroke-opacity="0.498">
      <rect x="920.45" width="25" height="50" y="589.6812" clip-path="url(#clipPath2)" stroke="none"/>
    </g>
    <g text-rendering="geometricPrecision" stroke-miterlimit="1.45" shape-rendering="geometricPrecision" transform="matrix(1,0,0,1,-594,-351)" stroke-linecap="butt">
      <rect fill="none" x="920.45" width="25" height="50" y="589.6812" clip-path="url(#clipPath2)"/>
    </g>
    <g transform="matrix(1,0,0,1,-594,-351)" fill-opacity="0.498" fill="rgb(181,35,196)" text-rendering="geometricPrecision" shape-rendering="geometricPrecision" stroke="rgb(181,35,196)" stroke-opacity="0.498">
      <rect x="967.95" width="50" height="50" y="589.6812" clip-path="url(#clipPath2)" stroke="none"/>
    </g>
    <g text-rendering="geometricPrecision" stroke-miterlimit="1.45" shape-rendering="geometricPrecision" transform="matrix(1,0,0,1,-594,-351)" stroke-linecap="butt">
      <rect fill="none" x="967.95" width="50" height="50" y="589.6812" clip-path="url(#clipPath2)"/>
      <text x="981.827" font-size="20px" y="622.5377" clip-path="url(#clipPath2)" font-family="sans-serif" stroke="none" xml:space="preserve">35</text>
    </g>
    <g transform="matrix(1,0,0,1,-594,-351)" fill-opacity="0.498" fill="rgb(181,35,196)" text-rendering="geometricPrecision" shape-rendering="geometricPrecision" stroke="rgb(181,35,196)" stroke-opacity="0.498">
      <rect x="1017.95" width="25" height="50" y="589.6812" clip-path="url(#clipPath2)" stroke="none"/>
    </g>
    <g text-rendering="geometricPrecision" stroke-miterlimit="1.45" shape-rendering="geometricPrecision" transform="matrix(1,0,0,1,-594,-351)" stroke-linecap="butt">
      <rect fill="none" x="1017.95" width="25" height="50" y="589.6812" clip-path="url(#clipPath2)"/>
      <circle fill="none" r="10" clip-path="url(#clipPath2)" cx="1055.45" cy="649.6812"/>
      <text x="1051.2825" font-size="10px" y="653.6095" clip-path="url(#clipPath2)" font-family="sans-serif" stroke="none" xml:space="preserve">///</text>
    </g>
    <g transform="matrix(1,0,0,1,-594,-351)" fill-opacity="0.498" fill="rgb(255,0,0)" text-rendering="geometricPrecision" shape-rendering="geometricPrecision" stroke="rgb(255,0,0)" stroke-opacity="0.498">
      <rect x="615.45" width="30" height="30" y="599.6812" clip-path="url(#clipPath2)" stroke="none"/>
    </g>
    <g text-rendering="geometricPrecision" stroke-miterlimit="1.45" shape-rendering="geometricPrecision" transform="matrix(1,0,0,1,-594,-351)" stroke-linecap="butt">
      <rect fill="none" x="615.45" width="30" height="30" y="599.6812" clip-path="url(#clipPath2)"/>
      <text x="624.449" font-size="20px" y="620.0035" clip-path="url(#clipPath2)" font-family="'Courier New'" stroke="none" xml:space="preserve">L</text>
      <rect fill="none" x="609.7" width="459.5" height="80.65" y="583.5562" clip-path="url(#clipPath2)"/>
    </g>
    <g fill="rgb(255,204,0)" text-rendering="geometricPrecision" shape-rendering="geometricPrecision" transform="matrix(1,0,0,1,-594,-351)" stroke="rgb(255,204,0)">
      <rect x="640.95" width="130" height="30" y="714.6844" clip-path="url(#clipPath2)" stroke="none"/>
    </g>
    <g text-rendering="geometricPrecision" stroke-miterlimit="1.45" shape-rendering="geometricPrecision" transform="matrix(1,0,0,1,-594,-351)" stroke-linecap="butt">
      <rect fill="none" x="640.95" width="130" height="30" y="714.6844" clip-path="url(#clipPath2)"/>
      <text x="651.9412" font-size="20px" y="735.0067" clip-path="url(#clipPath2)" font-family="'Courier New'" stroke="none" xml:space="preserve">cabeza(L)</text>
      <rect fill="none" x="813.45" width="90.55" height="82" y="688.525" clip-path="url(#clipPath2)"/>
      <text x="847.6019" font-size="20px" y="737.3815" clip-path="url(#clipPath2)" font-family="sans-serif" stroke="none" xml:space="preserve">58</text>
    </g>
    <g transform="matrix(1,0,0,1,-594,-351)" fill-opacity="0.498" fill="rgb(255,102,0)" text-rendering="geometricPrecision" shape-rendering="geometricPrecision" stroke="rgb(255,102,0)" stroke-opacity="0.498">
      <rect x="675.45" width="50" height="50" y="372.7125" clip-path="url(#clipPath2)" stroke="none"/>
    </g>
    <g text-rendering="geometricPrecision" stroke-miterlimit="1.45" shape-rendering="geometricPrecision" transform="matrix(1,0,0,1,-594,-351)" stroke-linecap="butt">
      <rect fill="none" x="675.45" width="50" height="50" y="372.7125" clip-path="url(#clipPath2)"/>
      <text x="689.327" font-size="20px" y="405.5689" clip-path="url(#clipPath2)" font-family="sans-serif" stroke="none" xml:space="preserve">58</text>
    </g>
    <g transform="matrix(1,0,0,1,-594,-351)" fill-opacity="0.498" fill="rgb(255,102,0)" text-rendering="geometricPrecision" shape-rendering="geometricPrecision" stroke="rgb(255,102,0)" stroke-opacity="0.498">
      <rect x="725.45" width="25" height="50" y="372.7125" clip-path="url(#clipPath2)" stroke="none"/>
    </g>
    <g text-rendering="geometricPrecision" stroke-miterlimit="1.45" shape-rendering="geometricPrecision" transform="matrix(1,0,0,1,-594,-351)" stroke-linecap="butt">
      <rect fill="none" x="725.45" width="25" height="50" y="372.7125" clip-path="url(#clipPath2)"/>
    </g>
    <g transform="matrix(1,0,0,1,-594,-351)" fill-opacity="0.498" fill="rgb(0,128,0)" text-rendering="geometricPrecision" shape-rendering="geometricPrecision" stroke="rgb(0,128,0)" stroke-opacity="0.498">
      <rect x="772.95" width="50" height="50" y="372.7125" clip-path="url(#clipPath2)" stroke="none"/>
    </g>
    <g text-rendering="geometricPrecision" stroke-miterlimit="1.45" shape-rendering="geometricPrecision" transform="matrix(1,0,0,1,-594,-351)" stroke-linecap="butt">
      <rect fill="none" x="772.95" width="50" height="50" y="372.7125" clip-path="url(#clipPath2)"/>
      <text x="786.827" font-size="20px" y="405.5689" clip-path="url(#clipPath2)" font-family="sans-serif" stroke="none" xml:space="preserve">42</text>
    </g>
    <g transform="matrix(1,0,0,1,-594,-351)" fill-opacity="0.498" fill="rgb(0,128,0)" text-rendering="geometricPrecision" shape-rendering="geometricPrecision" stroke="rgb(0,128,0)" stroke-opacity="0.498">
      <rect x="822.95" width="25" height="50" y="372.7125" clip-path="url(#clipPath2)" stroke="none"/>
    </g>
    <g text-rendering="geometricPrecision" stroke-miterlimit="1.45" shape-rendering="geometricPrecision" transform="matrix(1,0,0,1,-594,-351)" stroke-linecap="butt">
      <rect fill="none" x="822.95" width="25" height="50" y="372.7125" clip-path="url(#clipPath2)"/>
    </g>
    <g transform="matrix(1,0,0,1,-594,-351)" fill-opacity="0.498" fill="rgb(0,0,255)" text-rendering="geometricPrecision" shape-rendering="geometricPrecision" stroke="rgb(0,0,255)" stroke-opacity="0.498">
      <rect x="870.45" width="50" height="50" y="372.7125" clip-path="url(#clipPath2)" stroke="none"/>
    </g>
    <g text-rendering="geometricPrecision" stroke-miterlimit="1.45" shape-rendering="geometricPrecision" transform="matrix(1,0,0,1,-594,-351)" stroke-linecap="butt">
      <rect fill="none" x="870.45" width="50" height="50" y="372.7125" clip-path="url(#clipPath2)"/>
      <text x="884.327" font-size="20px" y="405.5689" clip-path="url(#clipPath2)" font-family="sans-serif" stroke="none" xml:space="preserve">23</text>
    </g>
    <g transform="matrix(1,0,0,1,-594,-351)" fill-opacity="0.498" fill="rgb(0,0,255)" text-rendering="geometricPrecision" shape-rendering="geometricPrecision" stroke="rgb(0,0,255)" stroke-opacity="0.498">
      <rect x="920.45" width="25" height="50" y="372.7125" clip-path="url(#clipPath2)" stroke="none"/>
    </g>
    <g text-rendering="geometricPrecision" stroke-miterlimit="1.45" shape-rendering="geometricPrecision" transform="matrix(1,0,0,1,-594,-351)" stroke-linecap="butt">
      <rect fill="none" x="920.45" width="25" height="50" y="372.7125" clip-path="url(#clipPath2)"/>
    </g>
    <g transform="matrix(1,0,0,1,-594,-351)" fill-opacity="0.498" fill="rgb(181,35,196)" text-rendering="geometricPrecision" shape-rendering="geometricPrecision" stroke="rgb(181,35,196)" stroke-opacity="0.498">
      <rect x="967.95" width="50" height="50" y="372.7125" clip-path="url(#clipPath2)" stroke="none"/>
    </g>
    <g text-rendering="geometricPrecision" stroke-miterlimit="1.45" shape-rendering="geometricPrecision" transform="matrix(1,0,0,1,-594,-351)" stroke-linecap="butt">
      <rect fill="none" x="967.95" width="50" height="50" y="372.7125" clip-path="url(#clipPath2)"/>
      <text x="981.827" font-size="20px" y="405.5689" clip-path="url(#clipPath2)" font-family="sans-serif" stroke="none" xml:space="preserve">35</text>
    </g>
    <g transform="matrix(1,0,0,1,-594,-351)" fill-opacity="0.498" fill="rgb(181,35,196)" text-rendering="geometricPrecision" shape-rendering="geometricPrecision" stroke="rgb(181,35,196)" stroke-opacity="0.498">
      <rect x="1017.95" width="25" height="50" y="372.7125" clip-path="url(#clipPath2)" stroke="none"/>
    </g>
    <g text-rendering="geometricPrecision" stroke-miterlimit="1.45" shape-rendering="geometricPrecision" transform="matrix(1,0,0,1,-594,-351)" stroke-linecap="butt">
      <rect fill="none" x="1017.95" width="25" height="50" y="372.7125" clip-path="url(#clipPath2)"/>
      <circle fill="none" r="10" clip-path="url(#clipPath2)" cx="1055.45" cy="432.7125"/>
      <text x="1051.2825" font-size="10px" y="436.6407" clip-path="url(#clipPath2)" font-family="sans-serif" stroke="none" xml:space="preserve">///</text>
    </g>
    <g transform="matrix(1,0,0,1,-594,-351)" fill-opacity="0.498" fill="rgb(255,0,0)" text-rendering="geometricPrecision" shape-rendering="geometricPrecision" stroke="rgb(255,0,0)" stroke-opacity="0.498">
      <rect x="615.45" width="30" height="30" y="382.7125" clip-path="url(#clipPath2)" stroke="none"/>
    </g>
    <g text-rendering="geometricPrecision" stroke-miterlimit="1.45" shape-rendering="geometricPrecision" transform="matrix(1,0,0,1,-594,-351)" stroke-linecap="butt">
      <rect fill="none" x="615.45" width="30" height="30" y="382.7125" clip-path="url(#clipPath2)"/>
      <text x="624.449" font-size="20px" y="403.0348" clip-path="url(#clipPath2)" font-family="'Courier New'" stroke="none" xml:space="preserve">L</text>
      <rect fill="none" x="609.7" width="459.5" height="80.65" y="366.5875" clip-path="url(#clipPath2)"/>
    </g>
    <g fill="rgb(255,204,0)" text-rendering="geometricPrecision" shape-rendering="geometricPrecision" transform="matrix(1,0,0,1,-594,-351)" stroke="rgb(255,204,0)">
      <rect x="640.95" width="130" height="30" y="497.7156" clip-path="url(#clipPath2)" stroke="none"/>
    </g>
    <g text-rendering="geometricPrecision" stroke-miterlimit="1.45" shape-rendering="geometricPrecision" transform="matrix(1,0,0,1,-594,-351)" stroke-linecap="butt">
      <rect fill="none" x="640.95" width="130" height="30" y="497.7156" clip-path="url(#clipPath2)"/>
      <text x="645.9402" font-size="20px" y="518.0379" clip-path="url(#clipPath2)" font-family="'Courier New'" stroke="none" xml:space="preserve">esLista(L)</text>
      <rect fill="none" x="813.45" width="90.55" height="82" y="471.5562" clip-path="url(#clipPath2)"/>
      <path fill="none" d="M742.95 614.6813 L757.825 614.6813" stroke-width="4" clip-path="url(#clipPath2)"/>
      <path d="M772.95 614.6813 L756.45 606.4313 L756.45 622.9313 Z" stroke-width="4" clip-path="url(#clipPath2)" stroke="none"/>
      <path fill="none" d="M840.45 614.6813 L855.325 614.6813" stroke-width="4" clip-path="url(#clipPath2)"/>
      <path d="M870.45 614.6813 L853.95 606.4313 L853.95 622.9313 Z" stroke-width="4" clip-path="url(#clipPath2)" stroke="none"/>
      <path fill="none" d="M937.95 614.6813 L952.825 614.6813" stroke-width="4" clip-path="url(#clipPath2)"/>
      <path d="M967.95 614.6813 L951.45 606.4313 L951.45 622.9313 Z" stroke-width="4" clip-path="url(#clipPath2)" stroke="none"/>
      <path fill="none" d="M1035.45 614.6813 L1055.45 614.6813 L1055.45 624.5563" stroke-width="4" clip-path="url(#clipPath2)"/>
      <path d="M1055.45 639.6813 L1063.7 623.1813 L1047.2 623.1813 Z" stroke-width="4" clip-path="url(#clipPath2)" stroke="none"/>
      <path fill="none" d="M645.45 614.6813 L660.325 614.6813" stroke-width="4" clip-path="url(#clipPath2)"/>
      <path d="M675.45 614.6813 L658.95 606.4313 L658.95 622.9313 Z" stroke-width="4" clip-path="url(#clipPath2)" stroke="none"/>
      <path fill="none" d="M705.95 664.2313 L705.95 700.9344" stroke-width="3" clip-path="url(#clipPath2)"/>
      <path d="M705.95 714.6844 L713.45 699.6844 L698.45 699.6844 Z" stroke-width="3" clip-path="url(#clipPath2)" stroke="none"/>
      <path fill="none" d="M770.95 729.6166 L799.7 729.5865" stroke-width="3" clip-path="url(#clipPath2)"/>
      <path d="M813.45 729.5722 L798.4422 722.0878 L798.4578 737.0878 Z" stroke-width="3" clip-path="url(#clipPath2)" stroke="none"/>
      <path fill="none" d="M742.95 397.7125 L757.825 397.7125" stroke-width="4" clip-path="url(#clipPath2)"/>
      <path d="M772.95 397.7125 L756.45 389.4625 L756.45 405.9625 Z" stroke-width="4" clip-path="url(#clipPath2)" stroke="none"/>
      <path fill="none" d="M840.45 397.7125 L855.325 397.7125" stroke-width="4" clip-path="url(#clipPath2)"/>
      <path d="M870.45 397.7125 L853.95 389.4625 L853.95 405.9625 Z" stroke-width="4" clip-path="url(#clipPath2)" stroke="none"/>
      <path fill="none" d="M937.95 397.7125 L952.825 397.7125" stroke-width="4" clip-path="url(#clipPath2)"/>
      <path d="M967.95 397.7125 L951.45 389.4625 L951.45 405.9625 Z" stroke-width="4" clip-path="url(#clipPath2)" stroke="none"/>
      <path fill="none" d="M1035.45 397.7125 L1055.45 397.7125 L1055.45 407.5875" stroke-width="4" clip-path="url(#clipPath2)"/>
      <path d="M1055.45 422.7125 L1063.7 406.2125 L1047.2 406.2125 Z" stroke-width="4" clip-path="url(#clipPath2)" stroke="none"/>
      <path fill="none" d="M645.45 397.7125 L660.325 397.7125" stroke-width="4" clip-path="url(#clipPath2)"/>
      <path d="M675.45 397.7125 L658.95 389.4625 L658.95 405.9625 Z" stroke-width="4" clip-path="url(#clipPath2)" stroke="none"/>
      <path fill="none" d="M705.95 447.2625 L705.95 483.9656" stroke-width="3" clip-path="url(#clipPath2)"/>
      <path d="M705.95 497.7156 L713.45 482.7156 L698.45 482.7156 Z" stroke-width="3" clip-path="url(#clipPath2)" stroke="none"/>
      <path fill="none" d="M770.95 512.6478 L799.7 512.6178" stroke-width="3" clip-path="url(#clipPath2)"/>
      <path d="M813.45 512.6035 L798.4422 505.1191 L798.4578 520.1191 Z" stroke-width="3" clip-path="url(#clipPath2)" stroke="none"/>
    </g>
  </g>
</svg>
