<?xml version="1.0" encoding="UTF-8"?><svg xmlns="http://www.w3.org/2000/svg" xmlns:xlink="http://www.w3.org/1999/xlink" fill-opacity="1" color-rendering="auto" color-interpolation="auto" text-rendering="auto" stroke="black" stroke-linecap="square" width="539" stroke-miterlimit="10" shape-rendering="auto" stroke-opacity="1" fill="black" stroke-dasharray="none" font-weight="normal" stroke-width="1" height="434" font-family="'Dialog'" font-style="normal" stroke-linejoin="miter" font-size="12px" stroke-dashoffset="0" image-rendering="auto">
  <!--Generated by ySVG 2.6-->
  <defs id="genericDefs"/>
  <g>
    <defs id="defs1">
      <clipPath clipPathUnits="userSpaceOnUse" id="clipPath1">
        <path d="M0 0 L539 0 L539 434 L0 434 L0 0 Z"/>
      </clipPath>
      <clipPath clipPathUnits="userSpaceOnUse" id="clipPath2">
        <path d="M228 298 L767 298 L767 732 L228 732 L228 298 Z"/>
      </clipPath>
    </defs>
    <g transform="matrix(1,0,0,1,-228,-298)" fill-opacity="0.498" fill="rgb(255,102,0)" text-rendering="geometricPrecision" shape-rendering="geometricPrecision" stroke="rgb(255,102,0)" stroke-opacity="0.498">
      <rect x="309.15" width="50" height="50" y="319.175" clip-path="url(#clipPath2)" stroke="none"/>
    </g>
    <g text-rendering="geometricPrecision" stroke-miterlimit="1.45" shape-rendering="geometricPrecision" transform="matrix(1,0,0,1,-228,-298)" stroke-linecap="butt">
      <rect fill="none" x="309.15" width="50" height="50" y="319.175" clip-path="url(#clipPath2)"/>
      <text x="323.0269" font-size="20px" y="352.0314" clip-path="url(#clipPath2)" font-family="sans-serif" stroke="none" xml:space="preserve">58</text>
    </g>
    <g transform="matrix(1,0,0,1,-228,-298)" fill-opacity="0.498" fill="rgb(255,102,0)" text-rendering="geometricPrecision" shape-rendering="geometricPrecision" stroke="rgb(255,102,0)" stroke-opacity="0.498">
      <rect x="359.15" width="25" height="50" y="319.175" clip-path="url(#clipPath2)" stroke="none"/>
    </g>
    <g text-rendering="geometricPrecision" stroke-miterlimit="1.45" shape-rendering="geometricPrecision" transform="matrix(1,0,0,1,-228,-298)" stroke-linecap="butt">
      <rect fill="none" x="359.15" width="25" height="50" y="319.175" clip-path="url(#clipPath2)"/>
    </g>
    <g transform="matrix(1,0,0,1,-228,-298)" fill-opacity="0.498" fill="rgb(0,128,0)" text-rendering="geometricPrecision" shape-rendering="geometricPrecision" stroke="rgb(0,128,0)" stroke-opacity="0.498">
      <rect x="406.65" width="50" height="50" y="319.175" clip-path="url(#clipPath2)" stroke="none"/>
    </g>
    <g text-rendering="geometricPrecision" stroke-miterlimit="1.45" shape-rendering="geometricPrecision" transform="matrix(1,0,0,1,-228,-298)" stroke-linecap="butt">
      <rect fill="none" x="406.65" width="50" height="50" y="319.175" clip-path="url(#clipPath2)"/>
      <text x="420.5269" font-size="20px" y="352.0314" clip-path="url(#clipPath2)" font-family="sans-serif" stroke="none" xml:space="preserve">42</text>
    </g>
    <g transform="matrix(1,0,0,1,-228,-298)" fill-opacity="0.498" fill="rgb(0,128,0)" text-rendering="geometricPrecision" shape-rendering="geometricPrecision" stroke="rgb(0,128,0)" stroke-opacity="0.498">
      <rect x="456.65" width="25" height="50" y="319.175" clip-path="url(#clipPath2)" stroke="none"/>
    </g>
    <g text-rendering="geometricPrecision" stroke-miterlimit="1.45" shape-rendering="geometricPrecision" transform="matrix(1,0,0,1,-228,-298)" stroke-linecap="butt">
      <rect fill="none" x="456.65" width="25" height="50" y="319.175" clip-path="url(#clipPath2)"/>
    </g>
    <g transform="matrix(1,0,0,1,-228,-298)" fill-opacity="0.498" fill="rgb(0,0,255)" text-rendering="geometricPrecision" shape-rendering="geometricPrecision" stroke="rgb(0,0,255)" stroke-opacity="0.498">
      <rect x="504.15" width="50" height="50" y="319.175" clip-path="url(#clipPath2)" stroke="none"/>
    </g>
    <g text-rendering="geometricPrecision" stroke-miterlimit="1.45" shape-rendering="geometricPrecision" transform="matrix(1,0,0,1,-228,-298)" stroke-linecap="butt">
      <rect fill="none" x="504.15" width="50" height="50" y="319.175" clip-path="url(#clipPath2)"/>
      <text x="518.027" font-size="20px" y="352.0314" clip-path="url(#clipPath2)" font-family="sans-serif" stroke="none" xml:space="preserve">23</text>
    </g>
    <g transform="matrix(1,0,0,1,-228,-298)" fill-opacity="0.498" fill="rgb(0,0,255)" text-rendering="geometricPrecision" shape-rendering="geometricPrecision" stroke="rgb(0,0,255)" stroke-opacity="0.498">
      <rect x="554.15" width="25" height="50" y="319.175" clip-path="url(#clipPath2)" stroke="none"/>
    </g>
    <g text-rendering="geometricPrecision" stroke-miterlimit="1.45" shape-rendering="geometricPrecision" transform="matrix(1,0,0,1,-228,-298)" stroke-linecap="butt">
      <rect fill="none" x="554.15" width="25" height="50" y="319.175" clip-path="url(#clipPath2)"/>
    </g>
    <g transform="matrix(1,0,0,1,-228,-298)" fill-opacity="0.498" fill="rgb(181,35,196)" text-rendering="geometricPrecision" shape-rendering="geometricPrecision" stroke="rgb(181,35,196)" stroke-opacity="0.498">
      <rect x="601.65" width="50" height="50" y="319.175" clip-path="url(#clipPath2)" stroke="none"/>
    </g>
    <g text-rendering="geometricPrecision" stroke-miterlimit="1.45" shape-rendering="geometricPrecision" transform="matrix(1,0,0,1,-228,-298)" stroke-linecap="butt">
      <rect fill="none" x="601.65" width="50" height="50" y="319.175" clip-path="url(#clipPath2)"/>
      <text x="615.527" font-size="20px" y="352.0314" clip-path="url(#clipPath2)" font-family="sans-serif" stroke="none" xml:space="preserve">35</text>
    </g>
    <g transform="matrix(1,0,0,1,-228,-298)" fill-opacity="0.498" fill="rgb(181,35,196)" text-rendering="geometricPrecision" shape-rendering="geometricPrecision" stroke="rgb(181,35,196)" stroke-opacity="0.498">
      <rect x="651.65" width="25" height="50" y="319.175" clip-path="url(#clipPath2)" stroke="none"/>
    </g>
    <g text-rendering="geometricPrecision" stroke-miterlimit="1.45" shape-rendering="geometricPrecision" transform="matrix(1,0,0,1,-228,-298)" stroke-linecap="butt">
      <rect fill="none" x="651.65" width="25" height="50" y="319.175" clip-path="url(#clipPath2)"/>
      <circle fill="none" r="10" clip-path="url(#clipPath2)" cx="689.15" cy="379.175"/>
      <text x="684.9825" font-size="10px" y="383.1032" clip-path="url(#clipPath2)" font-family="sans-serif" stroke="none" xml:space="preserve">///</text>
    </g>
    <g transform="matrix(1,0,0,1,-228,-298)" fill-opacity="0.498" fill="rgb(255,0,0)" text-rendering="geometricPrecision" shape-rendering="geometricPrecision" stroke="rgb(255,0,0)" stroke-opacity="0.498">
      <rect x="249.15" width="30" height="30" y="329.175" clip-path="url(#clipPath2)" stroke="none"/>
    </g>
    <g text-rendering="geometricPrecision" stroke-miterlimit="1.45" shape-rendering="geometricPrecision" transform="matrix(1,0,0,1,-228,-298)" stroke-linecap="butt">
      <rect fill="none" x="249.15" width="30" height="30" y="329.175" clip-path="url(#clipPath2)"/>
      <text x="258.149" font-size="20px" y="349.4973" clip-path="url(#clipPath2)" font-family="'Courier New'" stroke="none" xml:space="preserve">L</text>
      <rect fill="none" x="243.4" width="459.5" height="80.65" y="313.05" clip-path="url(#clipPath2)"/>
    </g>
    <g fill="rgb(255,204,0)" text-rendering="geometricPrecision" shape-rendering="geometricPrecision" transform="matrix(1,0,0,1,-228,-298)" stroke="rgb(255,204,0)">
      <rect x="274.65" width="130" height="30" y="444.1781" clip-path="url(#clipPath2)" stroke="none"/>
    </g>
    <g text-rendering="geometricPrecision" stroke-miterlimit="1.45" shape-rendering="geometricPrecision" transform="matrix(1,0,0,1,-228,-298)" stroke-linecap="butt">
      <rect fill="none" x="274.65" width="130" height="30" y="444.1781" clip-path="url(#clipPath2)"/>
      <text x="297.6432" font-size="20px" y="464.5004" clip-path="url(#clipPath2)" font-family="'Courier New'" stroke="none" xml:space="preserve">cola(L)</text>
      <rect fill="none" x="447.15" width="304" height="82" y="416.175" clip-path="url(#clipPath2)"/>
    </g>
    <g transform="matrix(1,0,0,1,-228,-298)" fill-opacity="0.498" fill="rgb(0,128,0)" text-rendering="geometricPrecision" shape-rendering="geometricPrecision" stroke="rgb(0,128,0)" stroke-opacity="0.498">
      <rect x="454.15" width="50" height="50" y="423.7" clip-path="url(#clipPath2)" stroke="none"/>
    </g>
    <g text-rendering="geometricPrecision" stroke-miterlimit="1.45" shape-rendering="geometricPrecision" transform="matrix(1,0,0,1,-228,-298)" stroke-linecap="butt">
      <rect fill="none" x="454.15" width="50" height="50" y="423.7" clip-path="url(#clipPath2)"/>
      <text x="468.0269" font-size="20px" y="456.5565" clip-path="url(#clipPath2)" font-family="sans-serif" stroke="none" xml:space="preserve">42</text>
    </g>
    <g transform="matrix(1,0,0,1,-228,-298)" fill-opacity="0.498" fill="rgb(0,128,0)" text-rendering="geometricPrecision" shape-rendering="geometricPrecision" stroke="rgb(0,128,0)" stroke-opacity="0.498">
      <rect x="504.15" width="25" height="50" y="423.7" clip-path="url(#clipPath2)" stroke="none"/>
    </g>
    <g text-rendering="geometricPrecision" stroke-miterlimit="1.45" shape-rendering="geometricPrecision" transform="matrix(1,0,0,1,-228,-298)" stroke-linecap="butt">
      <rect fill="none" x="504.15" width="25" height="50" y="423.7" clip-path="url(#clipPath2)"/>
    </g>
    <g transform="matrix(1,0,0,1,-228,-298)" fill-opacity="0.498" fill="rgb(0,0,255)" text-rendering="geometricPrecision" shape-rendering="geometricPrecision" stroke="rgb(0,0,255)" stroke-opacity="0.498">
      <rect x="551.65" width="50" height="50" y="423.7" clip-path="url(#clipPath2)" stroke="none"/>
    </g>
    <g text-rendering="geometricPrecision" stroke-miterlimit="1.45" shape-rendering="geometricPrecision" transform="matrix(1,0,0,1,-228,-298)" stroke-linecap="butt">
      <rect fill="none" x="551.65" width="50" height="50" y="423.7" clip-path="url(#clipPath2)"/>
      <text x="565.527" font-size="20px" y="456.5565" clip-path="url(#clipPath2)" font-family="sans-serif" stroke="none" xml:space="preserve">23</text>
    </g>
    <g transform="matrix(1,0,0,1,-228,-298)" fill-opacity="0.498" fill="rgb(0,0,255)" text-rendering="geometricPrecision" shape-rendering="geometricPrecision" stroke="rgb(0,0,255)" stroke-opacity="0.498">
      <rect x="601.65" width="25" height="50" y="423.7" clip-path="url(#clipPath2)" stroke="none"/>
    </g>
    <g text-rendering="geometricPrecision" stroke-miterlimit="1.45" shape-rendering="geometricPrecision" transform="matrix(1,0,0,1,-228,-298)" stroke-linecap="butt">
      <rect fill="none" x="601.65" width="25" height="50" y="423.7" clip-path="url(#clipPath2)"/>
    </g>
    <g transform="matrix(1,0,0,1,-228,-298)" fill-opacity="0.498" fill="rgb(181,35,196)" text-rendering="geometricPrecision" shape-rendering="geometricPrecision" stroke="rgb(181,35,196)" stroke-opacity="0.498">
      <rect x="649.15" width="50" height="50" y="423.7" clip-path="url(#clipPath2)" stroke="none"/>
    </g>
    <g text-rendering="geometricPrecision" stroke-miterlimit="1.45" shape-rendering="geometricPrecision" transform="matrix(1,0,0,1,-228,-298)" stroke-linecap="butt">
      <rect fill="none" x="649.15" width="50" height="50" y="423.7" clip-path="url(#clipPath2)"/>
      <text x="663.027" font-size="20px" y="456.5565" clip-path="url(#clipPath2)" font-family="sans-serif" stroke="none" xml:space="preserve">35</text>
    </g>
    <g transform="matrix(1,0,0,1,-228,-298)" fill-opacity="0.498" fill="rgb(181,35,196)" text-rendering="geometricPrecision" shape-rendering="geometricPrecision" stroke="rgb(181,35,196)" stroke-opacity="0.498">
      <rect x="699.15" width="25" height="50" y="423.7" clip-path="url(#clipPath2)" stroke="none"/>
    </g>
    <g text-rendering="geometricPrecision" stroke-miterlimit="1.45" shape-rendering="geometricPrecision" transform="matrix(1,0,0,1,-228,-298)" stroke-linecap="butt">
      <rect fill="none" x="699.15" width="25" height="50" y="423.7" clip-path="url(#clipPath2)"/>
      <circle fill="none" r="10" clip-path="url(#clipPath2)" cx="736.65" cy="483.7"/>
      <text x="732.4825" font-size="10px" y="487.6282" clip-path="url(#clipPath2)" font-family="sans-serif" stroke="none" xml:space="preserve">///</text>
    </g>
    <g transform="matrix(1,0,0,1,-228,-298)" fill-opacity="0.498" fill="rgb(255,102,0)" text-rendering="geometricPrecision" shape-rendering="geometricPrecision" stroke="rgb(255,102,0)" stroke-opacity="0.498">
      <rect x="309.15" width="50" height="50" y="536.1438" clip-path="url(#clipPath2)" stroke="none"/>
    </g>
    <g text-rendering="geometricPrecision" stroke-miterlimit="1.45" shape-rendering="geometricPrecision" transform="matrix(1,0,0,1,-228,-298)" stroke-linecap="butt">
      <rect fill="none" x="309.15" width="50" height="50" y="536.1438" clip-path="url(#clipPath2)"/>
      <text x="323.0269" font-size="20px" y="569.0002" clip-path="url(#clipPath2)" font-family="sans-serif" stroke="none" xml:space="preserve">58</text>
    </g>
    <g transform="matrix(1,0,0,1,-228,-298)" fill-opacity="0.498" fill="rgb(255,102,0)" text-rendering="geometricPrecision" shape-rendering="geometricPrecision" stroke="rgb(255,102,0)" stroke-opacity="0.498">
      <rect x="359.15" width="25" height="50" y="536.1438" clip-path="url(#clipPath2)" stroke="none"/>
    </g>
    <g text-rendering="geometricPrecision" stroke-miterlimit="1.45" shape-rendering="geometricPrecision" transform="matrix(1,0,0,1,-228,-298)" stroke-linecap="butt">
      <rect fill="none" x="359.15" width="25" height="50" y="536.1438" clip-path="url(#clipPath2)"/>
    </g>
    <g transform="matrix(1,0,0,1,-228,-298)" fill-opacity="0.498" fill="rgb(0,128,0)" text-rendering="geometricPrecision" shape-rendering="geometricPrecision" stroke="rgb(0,128,0)" stroke-opacity="0.498">
      <rect x="406.65" width="50" height="50" y="536.1438" clip-path="url(#clipPath2)" stroke="none"/>
    </g>
    <g text-rendering="geometricPrecision" stroke-miterlimit="1.45" shape-rendering="geometricPrecision" transform="matrix(1,0,0,1,-228,-298)" stroke-linecap="butt">
      <rect fill="none" x="406.65" width="50" height="50" y="536.1438" clip-path="url(#clipPath2)"/>
      <text x="420.5269" font-size="20px" y="569.0002" clip-path="url(#clipPath2)" font-family="sans-serif" stroke="none" xml:space="preserve">42</text>
    </g>
    <g transform="matrix(1,0,0,1,-228,-298)" fill-opacity="0.498" fill="rgb(0,128,0)" text-rendering="geometricPrecision" shape-rendering="geometricPrecision" stroke="rgb(0,128,0)" stroke-opacity="0.498">
      <rect x="456.65" width="25" height="50" y="536.1438" clip-path="url(#clipPath2)" stroke="none"/>
    </g>
    <g text-rendering="geometricPrecision" stroke-miterlimit="1.45" shape-rendering="geometricPrecision" transform="matrix(1,0,0,1,-228,-298)" stroke-linecap="butt">
      <rect fill="none" x="456.65" width="25" height="50" y="536.1438" clip-path="url(#clipPath2)"/>
    </g>
    <g transform="matrix(1,0,0,1,-228,-298)" fill-opacity="0.498" fill="rgb(0,0,255)" text-rendering="geometricPrecision" shape-rendering="geometricPrecision" stroke="rgb(0,0,255)" stroke-opacity="0.498">
      <rect x="504.15" width="50" height="50" y="536.1438" clip-path="url(#clipPath2)" stroke="none"/>
    </g>
    <g text-rendering="geometricPrecision" stroke-miterlimit="1.45" shape-rendering="geometricPrecision" transform="matrix(1,0,0,1,-228,-298)" stroke-linecap="butt">
      <rect fill="none" x="504.15" width="50" height="50" y="536.1438" clip-path="url(#clipPath2)"/>
      <text x="518.027" font-size="20px" y="569.0002" clip-path="url(#clipPath2)" font-family="sans-serif" stroke="none" xml:space="preserve">23</text>
    </g>
    <g transform="matrix(1,0,0,1,-228,-298)" fill-opacity="0.498" fill="rgb(0,0,255)" text-rendering="geometricPrecision" shape-rendering="geometricPrecision" stroke="rgb(0,0,255)" stroke-opacity="0.498">
      <rect x="554.15" width="25" height="50" y="536.1438" clip-path="url(#clipPath2)" stroke="none"/>
    </g>
    <g text-rendering="geometricPrecision" stroke-miterlimit="1.45" shape-rendering="geometricPrecision" transform="matrix(1,0,0,1,-228,-298)" stroke-linecap="butt">
      <rect fill="none" x="554.15" width="25" height="50" y="536.1438" clip-path="url(#clipPath2)"/>
    </g>
    <g transform="matrix(1,0,0,1,-228,-298)" fill-opacity="0.498" fill="rgb(181,35,196)" text-rendering="geometricPrecision" shape-rendering="geometricPrecision" stroke="rgb(181,35,196)" stroke-opacity="0.498">
      <rect x="601.65" width="50" height="50" y="536.1438" clip-path="url(#clipPath2)" stroke="none"/>
    </g>
    <g text-rendering="geometricPrecision" stroke-miterlimit="1.45" shape-rendering="geometricPrecision" transform="matrix(1,0,0,1,-228,-298)" stroke-linecap="butt">
      <rect fill="none" x="601.65" width="50" height="50" y="536.1438" clip-path="url(#clipPath2)"/>
      <text x="615.527" font-size="20px" y="569.0002" clip-path="url(#clipPath2)" font-family="sans-serif" stroke="none" xml:space="preserve">35</text>
    </g>
    <g transform="matrix(1,0,0,1,-228,-298)" fill-opacity="0.498" fill="rgb(181,35,196)" text-rendering="geometricPrecision" shape-rendering="geometricPrecision" stroke="rgb(181,35,196)" stroke-opacity="0.498">
      <rect x="651.65" width="25" height="50" y="536.1438" clip-path="url(#clipPath2)" stroke="none"/>
    </g>
    <g text-rendering="geometricPrecision" stroke-miterlimit="1.45" shape-rendering="geometricPrecision" transform="matrix(1,0,0,1,-228,-298)" stroke-linecap="butt">
      <rect fill="none" x="651.65" width="25" height="50" y="536.1438" clip-path="url(#clipPath2)"/>
      <circle fill="none" r="10" clip-path="url(#clipPath2)" cx="689.15" cy="596.1438"/>
      <text x="684.9825" font-size="10px" y="600.072" clip-path="url(#clipPath2)" font-family="sans-serif" stroke="none" xml:space="preserve">///</text>
    </g>
    <g transform="matrix(1,0,0,1,-228,-298)" fill-opacity="0.498" fill="rgb(255,0,0)" text-rendering="geometricPrecision" shape-rendering="geometricPrecision" stroke="rgb(255,0,0)" stroke-opacity="0.498">
      <rect x="249.15" width="30" height="30" y="546.1438" clip-path="url(#clipPath2)" stroke="none"/>
    </g>
    <g text-rendering="geometricPrecision" stroke-miterlimit="1.45" shape-rendering="geometricPrecision" transform="matrix(1,0,0,1,-228,-298)" stroke-linecap="butt">
      <rect fill="none" x="249.15" width="30" height="30" y="546.1438" clip-path="url(#clipPath2)"/>
      <text x="258.149" font-size="20px" y="566.466" clip-path="url(#clipPath2)" font-family="'Courier New'" stroke="none" xml:space="preserve">L</text>
      <rect fill="none" x="243.4" width="459.5" height="80.65" y="530.0188" clip-path="url(#clipPath2)"/>
    </g>
    <g fill="rgb(255,204,0)" text-rendering="geometricPrecision" shape-rendering="geometricPrecision" transform="matrix(1,0,0,1,-228,-298)" stroke="rgb(255,204,0)">
      <rect x="274.65" width="130" height="30" y="661.1469" clip-path="url(#clipPath2)" stroke="none"/>
    </g>
    <g text-rendering="geometricPrecision" stroke-miterlimit="1.45" shape-rendering="geometricPrecision" transform="matrix(1,0,0,1,-228,-298)" stroke-linecap="butt">
      <rect fill="none" x="274.65" width="130" height="30" y="661.1469" clip-path="url(#clipPath2)"/>
      <text x="291.6422" font-size="20px" y="681.4691" clip-path="url(#clipPath2)" font-family="'Courier New'" stroke="none" xml:space="preserve">largo(L)</text>
      <rect fill="none" x="447.15" width="90.55" height="82" y="634.9875" clip-path="url(#clipPath2)"/>
      <text x="486.8635" font-size="20px" y="683.8439" clip-path="url(#clipPath2)" font-family="sans-serif" stroke="none" xml:space="preserve">4</text>
      <path fill="none" d="M376.65 344.175 L391.525 344.175" stroke-width="4" clip-path="url(#clipPath2)"/>
      <path d="M406.65 344.175 L390.15 335.925 L390.15 352.425 Z" stroke-width="4" clip-path="url(#clipPath2)" stroke="none"/>
      <path fill="none" d="M474.15 344.175 L489.025 344.175" stroke-width="4" clip-path="url(#clipPath2)"/>
      <path d="M504.15 344.175 L487.65 335.925 L487.65 352.425 Z" stroke-width="4" clip-path="url(#clipPath2)" stroke="none"/>
      <path fill="none" d="M571.65 344.175 L586.525 344.175" stroke-width="4" clip-path="url(#clipPath2)"/>
      <path d="M601.65 344.175 L585.15 335.925 L585.15 352.425 Z" stroke-width="4" clip-path="url(#clipPath2)" stroke="none"/>
      <path fill="none" d="M669.15 344.175 L689.15 344.175 L689.15 354.05" stroke-width="4" clip-path="url(#clipPath2)"/>
      <path d="M689.15 369.175 L697.4 352.675 L680.9 352.675 Z" stroke-width="4" clip-path="url(#clipPath2)" stroke="none"/>
      <path fill="none" d="M279.15 344.175 L294.025 344.175" stroke-width="4" clip-path="url(#clipPath2)"/>
      <path d="M309.15 344.175 L292.65 335.925 L292.65 352.425 Z" stroke-width="4" clip-path="url(#clipPath2)" stroke="none"/>
      <path fill="none" d="M339.65 393.7251 L339.65 430.4281" stroke-width="3" clip-path="url(#clipPath2)"/>
      <path d="M339.65 444.1781 L347.15 429.1781 L332.15 429.1781 Z" stroke-width="3" clip-path="url(#clipPath2)" stroke="none"/>
      <path fill="none" d="M404.65 457.9669 L433.3609 457.4319" stroke-width="3" clip-path="url(#clipPath2)"/>
      <path d="M447.1085 457.1758 L431.9714 449.9565 L432.2508 464.9539 Z" stroke-width="3" clip-path="url(#clipPath2)" stroke="none"/>
      <path fill="none" d="M521.65 448.7 L536.525 448.7" stroke-width="4" clip-path="url(#clipPath2)"/>
      <path d="M551.65 448.7 L535.15 440.45 L535.15 456.95 Z" stroke-width="4" clip-path="url(#clipPath2)" stroke="none"/>
      <path fill="none" d="M619.15 448.7 L634.025 448.7" stroke-width="4" clip-path="url(#clipPath2)"/>
      <path d="M649.15 448.7 L632.65 440.45 L632.65 456.95 Z" stroke-width="4" clip-path="url(#clipPath2)" stroke="none"/>
      <path fill="none" d="M716.65 448.7 L736.65 448.7 L736.65 458.575" stroke-width="4" clip-path="url(#clipPath2)"/>
      <path d="M736.65 473.7 L744.9 457.2 L728.4 457.2 Z" stroke-width="4" clip-path="url(#clipPath2)" stroke="none"/>
      <path fill="none" d="M376.65 561.1437 L391.525 561.1437" stroke-width="4" clip-path="url(#clipPath2)"/>
      <path d="M406.65 561.1437 L390.15 552.8937 L390.15 569.3937 Z" stroke-width="4" clip-path="url(#clipPath2)" stroke="none"/>
      <path fill="none" d="M474.15 561.1437 L489.025 561.1437" stroke-width="4" clip-path="url(#clipPath2)"/>
      <path d="M504.15 561.1437 L487.65 552.8937 L487.65 569.3937 Z" stroke-width="4" clip-path="url(#clipPath2)" stroke="none"/>
      <path fill="none" d="M571.65 561.1437 L586.525 561.1437" stroke-width="4" clip-path="url(#clipPath2)"/>
      <path d="M601.65 561.1437 L585.15 552.8937 L585.15 569.3937 Z" stroke-width="4" clip-path="url(#clipPath2)" stroke="none"/>
      <path fill="none" d="M669.15 561.1437 L689.15 561.1437 L689.15 571.0187" stroke-width="4" clip-path="url(#clipPath2)"/>
      <path d="M689.15 586.1437 L697.4 569.6437 L680.9 569.6437 Z" stroke-width="4" clip-path="url(#clipPath2)" stroke="none"/>
      <path fill="none" d="M279.15 561.1437 L294.025 561.1437" stroke-width="4" clip-path="url(#clipPath2)"/>
      <path d="M309.15 561.1437 L292.65 552.8937 L292.65 569.3937 Z" stroke-width="4" clip-path="url(#clipPath2)" stroke="none"/>
      <path fill="none" d="M339.65 610.6938 L339.65 647.3969" stroke-width="3" clip-path="url(#clipPath2)"/>
      <path d="M339.65 661.1469 L347.15 646.1469 L332.15 646.1469 Z" stroke-width="3" clip-path="url(#clipPath2)" stroke="none"/>
      <path fill="none" d="M404.65 676.079 L433.4 676.0491" stroke-width="3" clip-path="url(#clipPath2)"/>
      <path d="M447.15 676.0347 L432.1422 668.5504 L432.1578 683.5504 Z" stroke-width="3" clip-path="url(#clipPath2)" stroke="none"/>
    </g>
  </g>
</svg>
