<?xml version="1.0" encoding="UTF-8"?><svg xmlns="http://www.w3.org/2000/svg" xmlns:xlink="http://www.w3.org/1999/xlink" fill-opacity="1" color-rendering="auto" color-interpolation="auto" text-rendering="auto" stroke="black" stroke-linecap="square" width="480" stroke-miterlimit="10" shape-rendering="auto" stroke-opacity="1" fill="black" stroke-dasharray="none" font-weight="normal" stroke-width="1" height="100" font-family="'Dialog'" font-style="normal" stroke-linejoin="miter" font-size="12px" stroke-dashoffset="0" image-rendering="auto">
  <!--Generated by ySVG 2.6-->
  <defs id="genericDefs"/>
  <g>
    <defs id="defs1">
      <clipPath clipPathUnits="userSpaceOnUse" id="clipPath1">
        <path d="M0 0 L480 0 L480 100 L0 100 L0 0 Z"/>
      </clipPath>
      <clipPath clipPathUnits="userSpaceOnUse" id="clipPath2">
        <path d="M217 253 L697 253 L697 353 L217 353 L217 253 Z"/>
      </clipPath>
    </defs>
    <g transform="matrix(1,0,0,1,-217,-253)" fill-opacity="0.498" fill="rgb(255,102,0)" text-rendering="geometricPrecision" shape-rendering="geometricPrecision" stroke="rgb(255,102,0)" stroke-opacity="0.498">
      <rect x="292" width="50" height="50" y="268" clip-path="url(#clipPath2)" stroke="none"/>
    </g>
    <g text-rendering="geometricPrecision" stroke-miterlimit="1.45" shape-rendering="geometricPrecision" transform="matrix(1,0,0,1,-217,-253)" stroke-linecap="butt">
      <rect fill="none" x="292" width="50" height="50" y="268" clip-path="url(#clipPath2)"/>
      <text x="305.877" font-size="20px" y="300.8564" clip-path="url(#clipPath2)" font-family="sans-serif" stroke="none" xml:space="preserve">58</text>
    </g>
    <g transform="matrix(1,0,0,1,-217,-253)" fill-opacity="0.498" fill="rgb(255,102,0)" text-rendering="geometricPrecision" shape-rendering="geometricPrecision" stroke="rgb(255,102,0)" stroke-opacity="0.498">
      <rect x="342" width="25" height="50" y="268" clip-path="url(#clipPath2)" stroke="none"/>
    </g>
    <g text-rendering="geometricPrecision" stroke-miterlimit="1.45" shape-rendering="geometricPrecision" transform="matrix(1,0,0,1,-217,-253)" stroke-linecap="butt">
      <rect fill="none" x="342" width="25" height="50" y="268" clip-path="url(#clipPath2)"/>
    </g>
    <g transform="matrix(1,0,0,1,-217,-253)" fill-opacity="0.498" fill="rgb(0,128,0)" text-rendering="geometricPrecision" shape-rendering="geometricPrecision" stroke="rgb(0,128,0)" stroke-opacity="0.498">
      <rect x="389.5" width="50" height="50" y="268" clip-path="url(#clipPath2)" stroke="none"/>
    </g>
    <g text-rendering="geometricPrecision" stroke-miterlimit="1.45" shape-rendering="geometricPrecision" transform="matrix(1,0,0,1,-217,-253)" stroke-linecap="butt">
      <rect fill="none" x="389.5" width="50" height="50" y="268" clip-path="url(#clipPath2)"/>
      <text x="403.377" font-size="20px" y="300.8564" clip-path="url(#clipPath2)" font-family="sans-serif" stroke="none" xml:space="preserve">42</text>
    </g>
    <g transform="matrix(1,0,0,1,-217,-253)" fill-opacity="0.498" fill="rgb(0,128,0)" text-rendering="geometricPrecision" shape-rendering="geometricPrecision" stroke="rgb(0,128,0)" stroke-opacity="0.498">
      <rect x="439.5" width="25" height="50" y="268" clip-path="url(#clipPath2)" stroke="none"/>
    </g>
    <g text-rendering="geometricPrecision" stroke-miterlimit="1.45" shape-rendering="geometricPrecision" transform="matrix(1,0,0,1,-217,-253)" stroke-linecap="butt">
      <rect fill="none" x="439.5" width="25" height="50" y="268" clip-path="url(#clipPath2)"/>
    </g>
    <g transform="matrix(1,0,0,1,-217,-253)" fill-opacity="0.498" fill="rgb(0,0,255)" text-rendering="geometricPrecision" shape-rendering="geometricPrecision" stroke="rgb(0,0,255)" stroke-opacity="0.498">
      <rect x="487" width="50" height="50" y="268" clip-path="url(#clipPath2)" stroke="none"/>
    </g>
    <g text-rendering="geometricPrecision" stroke-miterlimit="1.45" shape-rendering="geometricPrecision" transform="matrix(1,0,0,1,-217,-253)" stroke-linecap="butt">
      <rect fill="none" x="487" width="50" height="50" y="268" clip-path="url(#clipPath2)"/>
      <text x="500.877" font-size="20px" y="300.8564" clip-path="url(#clipPath2)" font-family="sans-serif" stroke="none" xml:space="preserve">23</text>
    </g>
    <g transform="matrix(1,0,0,1,-217,-253)" fill-opacity="0.498" fill="rgb(0,0,255)" text-rendering="geometricPrecision" shape-rendering="geometricPrecision" stroke="rgb(0,0,255)" stroke-opacity="0.498">
      <rect x="537" width="25" height="50" y="268" clip-path="url(#clipPath2)" stroke="none"/>
    </g>
    <g text-rendering="geometricPrecision" stroke-miterlimit="1.45" shape-rendering="geometricPrecision" transform="matrix(1,0,0,1,-217,-253)" stroke-linecap="butt">
      <rect fill="none" x="537" width="25" height="50" y="268" clip-path="url(#clipPath2)"/>
    </g>
    <g transform="matrix(1,0,0,1,-217,-253)" fill-opacity="0.498" fill="rgb(181,35,196)" text-rendering="geometricPrecision" shape-rendering="geometricPrecision" stroke="rgb(181,35,196)" stroke-opacity="0.498">
      <rect x="584.5" width="50" height="50" y="268" clip-path="url(#clipPath2)" stroke="none"/>
    </g>
    <g text-rendering="geometricPrecision" stroke-miterlimit="1.45" shape-rendering="geometricPrecision" transform="matrix(1,0,0,1,-217,-253)" stroke-linecap="butt">
      <rect fill="none" x="584.5" width="50" height="50" y="268" clip-path="url(#clipPath2)"/>
      <text x="598.377" font-size="20px" y="300.8564" clip-path="url(#clipPath2)" font-family="sans-serif" stroke="none" xml:space="preserve">35</text>
    </g>
    <g transform="matrix(1,0,0,1,-217,-253)" fill-opacity="0.498" fill="rgb(181,35,196)" text-rendering="geometricPrecision" shape-rendering="geometricPrecision" stroke="rgb(181,35,196)" stroke-opacity="0.498">
      <rect x="634.5" width="25" height="50" y="268" clip-path="url(#clipPath2)" stroke="none"/>
    </g>
    <g text-rendering="geometricPrecision" stroke-miterlimit="1.45" shape-rendering="geometricPrecision" transform="matrix(1,0,0,1,-217,-253)" stroke-linecap="butt">
      <rect fill="none" x="634.5" width="25" height="50" y="268" clip-path="url(#clipPath2)"/>
      <circle fill="none" r="10" clip-path="url(#clipPath2)" cx="672" cy="328"/>
      <text x="667.8325" font-size="10px" y="331.9282" clip-path="url(#clipPath2)" font-family="sans-serif" stroke="none" xml:space="preserve">///</text>
    </g>
    <g transform="matrix(1,0,0,1,-217,-253)" fill-opacity="0.498" fill="rgb(255,0,0)" text-rendering="geometricPrecision" shape-rendering="geometricPrecision" stroke="rgb(255,0,0)" stroke-opacity="0.498">
      <rect x="232" width="30" height="30" y="278" clip-path="url(#clipPath2)" stroke="none"/>
    </g>
    <g text-rendering="geometricPrecision" stroke-miterlimit="1.45" shape-rendering="geometricPrecision" transform="matrix(1,0,0,1,-217,-253)" stroke-linecap="butt">
      <rect fill="none" x="232" width="30" height="30" y="278" clip-path="url(#clipPath2)"/>
      <text x="240.999" font-size="20px" y="298.3223" clip-path="url(#clipPath2)" font-family="'Courier New'" stroke="none" xml:space="preserve">L</text>
      <path fill="none" d="M359.5 293 L374.375 293" stroke-width="4" clip-path="url(#clipPath2)"/>
      <path d="M389.5 293 L373 284.75 L373 301.25 Z" stroke-width="4" clip-path="url(#clipPath2)" stroke="none"/>
      <path fill="none" d="M457 293 L471.875 293" stroke-width="4" clip-path="url(#clipPath2)"/>
      <path d="M487 293 L470.5 284.75 L470.5 301.25 Z" stroke-width="4" clip-path="url(#clipPath2)" stroke="none"/>
      <path fill="none" d="M554.5 293 L569.375 293" stroke-width="4" clip-path="url(#clipPath2)"/>
      <path d="M584.5 293 L568 284.75 L568 301.25 Z" stroke-width="4" clip-path="url(#clipPath2)" stroke="none"/>
      <path fill="none" d="M652 293 L672 293 L672 302.875" stroke-width="4" clip-path="url(#clipPath2)"/>
      <path d="M672 318 L680.25 301.5 L663.75 301.5 Z" stroke-width="4" clip-path="url(#clipPath2)" stroke="none"/>
      <path fill="none" d="M262 293 L276.875 293" stroke-width="4" clip-path="url(#clipPath2)"/>
      <path d="M292 293 L275.5 284.75 L275.5 301.25 Z" stroke-width="4" clip-path="url(#clipPath2)" stroke="none"/>
    </g>
  </g>
</svg>
