<?xml version="1.0" encoding="UTF-8"?><svg xmlns="http://www.w3.org/2000/svg" xmlns:xlink="http://www.w3.org/1999/xlink" fill-opacity="1" color-rendering="auto" color-interpolation="auto" text-rendering="auto" stroke="black" stroke-linecap="square" width="128" stroke-miterlimit="10" shape-rendering="auto" stroke-opacity="1" fill="black" stroke-dasharray="none" font-weight="normal" stroke-width="1" height="101" font-family="'Dialog'" font-style="normal" stroke-linejoin="miter" font-size="12px" stroke-dashoffset="0" image-rendering="auto">
  <!--Generated by ySVG 2.6-->
  <defs id="genericDefs"/>
  <g>
    <defs id="defs1">
      <clipPath clipPathUnits="userSpaceOnUse" id="clipPath1">
        <path d="M0 0 L128 0 L128 101 L0 101 L0 0 Z"/>
      </clipPath>
      <clipPath clipPathUnits="userSpaceOnUse" id="clipPath2">
        <path d="M690 575 L818 575 L818 676 L690 676 L690 575 Z"/>
      </clipPath>
    </defs>
    <g transform="matrix(1,0,0,1,-690,-575)" fill-opacity="0.498" fill="rgb(181,35,196)" text-rendering="geometricPrecision" shape-rendering="geometricPrecision" stroke="rgb(181,35,196)" stroke-opacity="0.498">
      <rect x="705.05" width="50" height="50" y="590.5375" clip-path="url(#clipPath2)" stroke="none"/>
    </g>
    <g text-rendering="geometricPrecision" stroke-miterlimit="1.45" shape-rendering="geometricPrecision" transform="matrix(1,0,0,1,-690,-575)" stroke-linecap="butt">
      <rect fill="none" x="705.05" width="50" height="50" y="590.5375" clip-path="url(#clipPath2)"/>
    </g>
    <g transform="matrix(1,0,0,1,-690,-575)" fill-opacity="0.498" fill="rgb(181,35,196)" text-rendering="geometricPrecision" shape-rendering="geometricPrecision" stroke="rgb(181,35,196)" stroke-opacity="0.498">
      <rect x="755.05" width="25" height="50" y="590.5375" clip-path="url(#clipPath2)" stroke="none"/>
    </g>
    <g text-rendering="geometricPrecision" stroke-miterlimit="1.45" shape-rendering="geometricPrecision" transform="matrix(1,0,0,1,-690,-575)" stroke-linecap="butt">
      <rect fill="none" x="755.05" width="25" height="50" y="590.5375" clip-path="url(#clipPath2)"/>
      <circle fill="none" r="10" clip-path="url(#clipPath2)" cx="792.55" cy="650.5375"/>
      <text x="788.3825" font-size="10px" y="654.4657" clip-path="url(#clipPath2)" font-family="sans-serif" stroke="none" xml:space="preserve">///</text>
      <path fill="none" d="M772.55 615.5375 L792.55 615.5375 L792.55 625.4125" stroke-width="4" clip-path="url(#clipPath2)"/>
      <path d="M792.55 640.5375 L800.8 624.0375 L784.3 624.0375 Z" stroke-width="4" clip-path="url(#clipPath2)" stroke="none"/>
    </g>
  </g>
</svg>
