<?xml version="1.0" encoding="UTF-8"?><svg xmlns="http://www.w3.org/2000/svg" xmlns:xlink="http://www.w3.org/1999/xlink" fill-opacity="1" color-rendering="auto" color-interpolation="auto" text-rendering="auto" stroke="black" stroke-linecap="square" width="250" stroke-miterlimit="10" shape-rendering="auto" stroke-opacity="1" fill="black" stroke-dasharray="none" font-weight="normal" stroke-width="1" height="141" font-family="'Dialog'" font-style="normal" stroke-linejoin="miter" font-size="12px" stroke-dashoffset="0" image-rendering="auto">
  <!--Generated by ySVG 2.6-->
  <defs id="genericDefs"/>
  <g>
    <defs id="defs1">
      <clipPath clipPathUnits="userSpaceOnUse" id="clipPath1">
        <path d="M0 0 L250 0 L250 141 L0 141 L0 0 Z"/>
      </clipPath>
      <clipPath clipPathUnits="userSpaceOnUse" id="clipPath2">
        <path d="M880 426 L1130 426 L1130 567 L880 567 L880 426 Z"/>
      </clipPath>
    </defs>
    <g text-rendering="geometricPrecision" stroke-miterlimit="1.45" shape-rendering="geometricPrecision" transform="matrix(1,0,0,1,-880,-426)" stroke-linecap="butt">
      <rect fill="none" x="895.9" width="80" height="30" y="441.425" clip-path="url(#clipPath2)"/>
    </g>
    <g font-size="20px" stroke-linecap="butt" transform="matrix(1,0,0,1,-880,-426)" text-rendering="geometricPrecision" font-family="'Courier New'" shape-rendering="geometricPrecision" stroke-miterlimit="1.45">
      <text x="905.8951" xml:space="preserve" y="461.7473" clip-path="url(#clipPath2)" stroke="none">valor</text>
    </g>
    <g transform="matrix(1,0,0,1,-880,-426)" fill-opacity="0.498" fill="rgb(0,128,0)" text-rendering="geometricPrecision" shape-rendering="geometricPrecision" stroke="rgb(0,128,0)" stroke-opacity="0.498">
      <rect x="910.9" width="50" height="50" y="501.425" clip-path="url(#clipPath2)" stroke="none"/>
    </g>
    <g text-rendering="geometricPrecision" stroke-miterlimit="1.45" shape-rendering="geometricPrecision" transform="matrix(1,0,0,1,-880,-426)" stroke-linecap="butt">
      <rect fill="none" x="910.9" width="50" height="50" y="501.425" clip-path="url(#clipPath2)"/>
    </g>
    <g transform="matrix(1,0,0,1,-880,-426)" fill-opacity="0.498" fill="rgb(0,128,0)" text-rendering="geometricPrecision" shape-rendering="geometricPrecision" stroke="rgb(0,128,0)" stroke-opacity="0.498">
      <rect x="960.9" width="25" height="50" y="501.425" clip-path="url(#clipPath2)" stroke="none"/>
    </g>
    <g text-rendering="geometricPrecision" stroke-miterlimit="1.45" shape-rendering="geometricPrecision" transform="matrix(1,0,0,1,-880,-426)" stroke-linecap="butt">
      <rect fill="none" x="960.9" width="25" height="50" y="501.425" clip-path="url(#clipPath2)"/>
      <rect fill="none" x="984.9" width="130" height="30" y="441.425" clip-path="url(#clipPath2)"/>
      <text x="995.8912" font-size="20px" y="461.7473" clip-path="url(#clipPath2)" font-family="'Courier New'" stroke="none" xml:space="preserve">siguiente</text>
      <path fill="none" stroke-dasharray="6,2" d="M935.9 471.425 L935.9 496.425" clip-path="url(#clipPath2)"/>
      <path stroke-dasharray="6,2" d="M935.9 500.425 L941.9 488.425 L935.9 500.425 L929.9 488.425 Z" clip-path="url(#clipPath2)" stroke="none"/>
      <path fill="none" stroke-miterlimit="10" d="M935.9 500.425 L941.9 488.425 L935.9 500.425 L929.9 488.425 Z" clip-path="url(#clipPath2)" stroke-linecap="square"/>
      <path fill="none" d="M978.4 526.425 L993.275 526.425" stroke-width="4" clip-path="url(#clipPath2)"/>
      <path d="M1008.4 526.425 L991.9 518.175 L991.9 534.675 Z" stroke-width="4" clip-path="url(#clipPath2)" stroke="none"/>
      <path fill="none" stroke-dasharray="6,2" d="M1033.5072 471.425 L989.5887 511.6118" clip-path="url(#clipPath2)"/>
      <path stroke-dasharray="6,2" d="M986.6378 514.3121 L999.5412 510.6376 L986.6378 514.3121 L991.4403 501.7846 Z" clip-path="url(#clipPath2)" stroke="none"/>
      <path fill="none" stroke-miterlimit="10" d="M986.6378 514.3121 L999.5412 510.6376 L986.6378 514.3121 L991.4403 501.7846 Z" clip-path="url(#clipPath2)" stroke-linecap="square"/>
    </g>
  </g>
</svg>
