<?xml version="1.0" encoding="UTF-8"?><svg xmlns="http://www.w3.org/2000/svg" xmlns:xlink="http://www.w3.org/1999/xlink" fill-opacity="1" color-rendering="auto" color-interpolation="auto" text-rendering="auto" stroke="black" stroke-linecap="square" width="166" stroke-miterlimit="10" shape-rendering="auto" stroke-opacity="1" fill="black" stroke-dasharray="none" font-weight="normal" stroke-width="1" height="81" font-family="'Dialog'" font-style="normal" stroke-linejoin="miter" font-size="12px" stroke-dashoffset="0" image-rendering="auto">
  <!--Generated by ySVG 2.6-->
  <defs id="genericDefs"/>
  <g>
    <defs id="defs1">
      <clipPath clipPathUnits="userSpaceOnUse" id="clipPath1">
        <path d="M0 0 L166 0 L166 81 L0 81 L0 0 Z"/>
      </clipPath>
      <clipPath clipPathUnits="userSpaceOnUse" id="clipPath2">
        <path d="M895 585 L1061 585 L1061 666 L895 666 L895 585 Z"/>
      </clipPath>
    </defs>
    <g transform="matrix(1,0,0,1,-895,-585)" fill-opacity="0.498" fill="rgb(255,102,0)" text-rendering="geometricPrecision" shape-rendering="geometricPrecision" stroke="rgb(255,102,0)" stroke-opacity="0.498">
      <rect x="970.9" width="50" height="50" y="600.5375" clip-path="url(#clipPath2)" stroke="none"/>
    </g>
    <g text-rendering="geometricPrecision" stroke-miterlimit="1.45" shape-rendering="geometricPrecision" transform="matrix(1,0,0,1,-895,-585)" stroke-linecap="butt">
      <rect fill="none" x="970.9" width="50" height="50" y="600.5375" clip-path="url(#clipPath2)"/>
    </g>
    <g transform="matrix(1,0,0,1,-895,-585)" fill-opacity="0.498" fill="rgb(255,102,0)" text-rendering="geometricPrecision" shape-rendering="geometricPrecision" stroke="rgb(255,102,0)" stroke-opacity="0.498">
      <rect x="1020.9" width="25" height="50" y="600.5375" clip-path="url(#clipPath2)" stroke="none"/>
    </g>
    <g text-rendering="geometricPrecision" stroke-miterlimit="1.45" shape-rendering="geometricPrecision" transform="matrix(1,0,0,1,-895,-585)" stroke-linecap="butt">
      <rect fill="none" x="1020.9" width="25" height="50" y="600.5375" clip-path="url(#clipPath2)"/>
    </g>
    <g transform="matrix(1,0,0,1,-895,-585)" fill-opacity="0.498" fill="rgb(255,0,0)" text-rendering="geometricPrecision" shape-rendering="geometricPrecision" stroke="rgb(255,0,0)" stroke-opacity="0.498">
      <rect x="910.9" width="30" height="30" y="610.5375" clip-path="url(#clipPath2)" stroke="none"/>
    </g>
    <g text-rendering="geometricPrecision" stroke-miterlimit="1.45" shape-rendering="geometricPrecision" transform="matrix(1,0,0,1,-895,-585)" stroke-linecap="butt">
      <rect fill="none" x="910.9" width="30" height="30" y="610.5375" clip-path="url(#clipPath2)"/>
      <text x="919.899" font-size="20px" y="630.8597" clip-path="url(#clipPath2)" font-family="'Courier New'" stroke="none" xml:space="preserve">L</text>
      <path fill="none" d="M940.9 625.5375 L955.775 625.5375" stroke-width="4" clip-path="url(#clipPath2)"/>
      <path d="M970.9 625.5375 L954.4 617.2875 L954.4 633.7875 Z" stroke-width="4" clip-path="url(#clipPath2)" stroke="none"/>
    </g>
  </g>
</svg>
