<svg width="2721" height="1622" xmlns="http://www.w3.org/2000/svg" xmlns:xlink="http://www.w3.org/1999/xlink" xml:space="preserve" overflow="hidden"><defs><clipPath id="clip0"><rect x="324" y="650" width="2721" height="1622"/></clipPath></defs><g clip-path="url(#clip0)" transform="translate(-324 -650)"><rect x="326.5" y="2001.5" width="549" height="268" stroke="#000000" stroke-width="4.58333" stroke-miterlimit="8" fill="#FBE5D6"/><text font-family="Courier New,Courier New_MSFontService,sans-serif" font-weight="400" font-size="83" transform="matrix(1 0 0 1 421.724 2159)">n<tspan font-family="Calibri,Calibri_MSFontService,sans-serif" font-size="83" x="68.1771" y="0">es impar</tspan></text><path d="M1015.5 1473 1650.5 1233.5 2285.5 1473 1650.5 1712.5Z" stroke="#000000" stroke-width="4.58333" stroke-miterlimit="8" fill="#900090" fill-rule="evenodd"/><text fill="#FFFFFF" font-family="Calibri,Calibri_MSFontService,sans-serif" font-weight="400" font-size="83" transform="matrix(1 0 0 1 1380.44 1497)">¿ <tspan font-family="Courier New,Courier New_MSFontService,sans-serif" font-size="83" x="57.2918" y="0">n%2 == 0 </tspan><tspan font-size="83" x="500.729" y="0">?</tspan></text><rect x="2493.5" y="2001.5" width="549" height="268" stroke="#000000" stroke-width="4.58333" stroke-miterlimit="8" fill="#E2F0D9"/><text font-family="Courier New,Courier New_MSFontService,sans-serif" font-weight="400" font-size="83" transform="matrix(1 0 0 1 2631.12 2159)">n<tspan font-family="Calibri,Calibri_MSFontService,sans-serif" font-size="83" x="68.177" y="0">es par</tspan></text><path d="M0-6.875 421.438-6.875 421.438 493.625 407.688 493.625 407.688 0 414.562 6.875 0 6.875ZM435.188 486.75 414.562 528 393.938 486.75Z" fill="#FF0000" transform="matrix(-1 1.22465e-16 1.22465e-16 1 1014.56 1473)"/><path d="M2285 1466.12 2773.81 1466.12 2773.81 1966.63 2760.06 1966.63 2760.06 1473 2766.94 1479.88 2285 1479.88ZM2787.56 1959.75 2766.94 2001 2746.31 1959.75Z" fill="#00AA00"/><path d="M1520.5 782C1520.5 710.479 1578.7 652.5 1650.5 652.5 1722.3 652.5 1780.5 710.479 1780.5 782 1780.5 853.521 1722.3 911.5 1650.5 911.5 1578.7 911.5 1520.5 853.521 1520.5 782Z" stroke="#2F528F" stroke-width="4.58333" stroke-miterlimit="8" fill="#DEEBF7" fill-rule="evenodd"/><text font-family="Courier New,Courier New_MSFontService,sans-serif" font-weight="400" font-size="83" transform="matrix(1 0 0 1 1625.36 805)">n</text><path d="M1656.88 911 1656.88 1198.59 1643.13 1198.59 1643.12 911ZM1670.63 1191.71 1650 1232.96 1629.38 1191.71Z" fill="#0000FF"/><rect x="2285.5" y="1286.5" width="126" height="134" stroke="#000000" stroke-width="3.4375" stroke-linejoin="round" stroke-miterlimit="10" fill="none"/><text font-family="Calibri,Calibri_MSFontService,sans-serif" font-weight="400" font-size="83" transform="matrix(1 0 0 1 2318.25 1380)">SI</text><rect x="839.5" y="1286.5" width="176" height="134" stroke="#000000" stroke-width="3.4375" stroke-linejoin="round" stroke-miterlimit="10" fill="none"/><text font-family="Calibri,Calibri_MSFontService,sans-serif" font-weight="400" font-size="83" transform="matrix(1 0 0 1 872.345 1380)">N<tspan font-size="83" x="53.2812" y="0">O</tspan></text></g></svg>