<svg width="3241" height="1721" xmlns="http://www.w3.org/2000/svg" xmlns:xlink="http://www.w3.org/1999/xlink" xml:space="preserve" overflow="hidden"><defs><clipPath id="clip0"><rect x="25" y="608" width="3241" height="1721"/></clipPath></defs><g clip-path="url(#clip0)" transform="translate(-25 -608)"><path d="M1227.5 1209.5 1650.5 998.5 2073.5 1209.5 1650.5 1420.5Z" stroke="#000000" stroke-width="4.58333" stroke-miterlimit="8" fill="#900090" fill-rule="evenodd"/><text fill="#FFFFFF" font-family="Courier New,Courier New_MSFontService,sans-serif" font-weight="400" font-size="73" transform="matrix(1 0 0 1 1473.54 1231)">x &gt;= y ?</text><rect x="2918.5" y="2045.5" width="345" height="269" stroke="#000000" stroke-width="4.58333" stroke-miterlimit="8" fill="#E2F0D9"/><text font-family="Courier New,Courier New_MSFontService,sans-serif" font-weight="400" font-size="83" transform="matrix(1 0 0 1 3019.89 2155)">x<tspan font-family="Calibri,Calibri_MSFontService,sans-serif" font-size="83" x="68.177" y="0">es </tspan><tspan font-family="Calibri,Calibri_MSFontService,sans-serif" font-size="83" x="-35.4063" y="102">mayor</tspan></text><path d="M0-6.875 440-6.875 440 134.814 426.25 134.814 426.25 0 433.125 6.875 0 6.875ZM453.75 127.939 433.125 169.189 412.5 127.939Z" fill="#FF0000" transform="matrix(-1 1.22465e-16 1.22465e-16 1 1227.13 1209)"/><path d="M2073 1202.12 2502.69 1202.12 2502.69 1343.81 2488.94 1343.81 2488.94 1209 2495.81 1215.88 2073 1215.88ZM2516.44 1336.94 2495.81 1378.19 2475.19 1336.94Z" fill="#00AA00"/><path d="M1387.5 740.5C1387.5 668.703 1505.25 610.5 1650.5 610.5 1795.75 610.5 1913.5 668.703 1913.5 740.5 1913.5 812.297 1795.75 870.5 1650.5 870.5 1505.25 870.5 1387.5 812.297 1387.5 740.5Z" stroke="#2F528F" stroke-width="4.58333" stroke-miterlimit="8" fill="#DEEBF7" fill-rule="evenodd"/><text font-family="Courier New,Courier New_MSFontService,sans-serif" font-weight="400" font-size="83" transform="matrix(1 0 0 1 1526.82 764)">x<tspan font-size="83" x="98.5416" y="0">y</tspan><tspan font-size="83" x="197.083" y="0">z</tspan></text><path d="M1656.88 870 1656.88 963.932 1643.13 963.932 1643.12 870ZM1670.63 957.057 1650 998.307 1629.38 957.057Z" fill="#0000FF"/><rect x="2083.5" y="1037.5" width="126" height="133" stroke="#000000" stroke-width="3.4375" stroke-linejoin="round" stroke-miterlimit="10" fill="none"/><text font-family="Calibri,Calibri_MSFontService,sans-serif" font-weight="400" font-size="83" transform="matrix(1 0 0 1 2116.12 1131)">SI</text><rect x="1041.5" y="1033.5" width="176" height="133" stroke="#000000" stroke-width="3.4375" stroke-linejoin="round" stroke-miterlimit="10" fill="none"/><text font-family="Calibri,Calibri_MSFontService,sans-serif" font-weight="400" font-size="83" transform="matrix(1 0 0 1 1074.47 1126)">N<tspan font-size="83" x="53.2813" y="0">O</tspan></text><path d="M371.5 1589.5 794.5 1378.5 1217.5 1589.5 794.5 1800.5Z" stroke="#000000" stroke-width="4.58333" stroke-miterlimit="8" fill="#900090" fill-rule="evenodd"/><text fill="#FFFFFF" font-family="Courier New,Courier New_MSFontService,sans-serif" font-weight="400" font-size="73" transform="matrix(1 0 0 1 617.604 1611)">y<tspan font-size="73" x="88.2292" y="0">&gt;= z ?</tspan></text><path d="M2073.5 1589.5 2496 1378.5 2918.5 1589.5 2496 1800.5Z" stroke="#000000" stroke-width="4.58333" stroke-miterlimit="8" fill="#900090" fill-rule="evenodd"/><text fill="#FFFFFF" font-family="Courier New,Courier New_MSFontService,sans-serif" font-weight="400" font-size="73" transform="matrix(1 0 0 1 2319.17 1611)">x &gt;= z ?</text><rect x="1728.5" y="2019.5" width="345" height="268" stroke="#000000" stroke-width="4.58333" stroke-miterlimit="8" fill="#E2F0D9"/><text font-family="Courier New,Courier New_MSFontService,sans-serif" font-weight="400" font-size="83" transform="matrix(1 0 0 1 1829.83 2128)">z<tspan font-family="Calibri,Calibri_MSFontService,sans-serif" font-size="83" x="68.177" y="0">es </tspan><tspan font-family="Calibri,Calibri_MSFontService,sans-serif" font-size="83" x="-35.4063" y="102">mayor</tspan></text><rect x="1217.5" y="2019.5" width="344" height="268" stroke="#000000" stroke-width="4.58333" stroke-miterlimit="8" fill="#E2F0D9"/><text font-family="Courier New,Courier New_MSFontService,sans-serif" font-weight="400" font-size="83" transform="matrix(1 0 0 1 1318.33 2128)">y<tspan font-family="Calibri,Calibri_MSFontService,sans-serif" font-size="83" x="68.1771" y="0">es </tspan><tspan font-family="Calibri,Calibri_MSFontService,sans-serif" font-size="83" x="-35.4063" y="102">mayor</tspan></text><rect x="27.5" y="2019.5" width="344" height="268" stroke="#000000" stroke-width="4.58333" stroke-miterlimit="8" fill="#E2F0D9"/><text font-family="Courier New,Courier New_MSFontService,sans-serif" font-weight="400" font-size="83" transform="matrix(1 0 0 1 128.265 2128)">z<tspan font-family="Calibri,Calibri_MSFontService,sans-serif" font-size="83" x="68.1771" y="0">es </tspan><tspan font-family="Calibri,Calibri_MSFontService,sans-serif" font-size="83" x="-35.4062" y="102">mayor</tspan></text><path d="M1217 1582.13 1396.09 1582.13 1396.09 1984.3 1382.34 1984.3 1382.34 1589 1389.22 1595.88 1217 1595.88ZM1409.84 1977.42 1389.22 2018.67 1368.59 1977.42Z" fill="#00AA00"/><path d="M2918 1582.13 3097.09 1582.13 3097.09 2011.17 3083.34 2011.17 3083.34 1589 3090.22 1595.88 2918 1595.88ZM3110.84 2004.3 3090.22 2045.55 3069.59 2004.3Z" fill="#00AA00"/><path d="M0-6.875 179.094-6.875 179.094 395.298 165.344 395.298 165.344 0 172.219 6.875 0 6.875ZM192.844 388.423 172.219 429.673 151.594 388.423Z" fill="#FF0000" transform="matrix(-1 1.22465e-16 1.22465e-16 1 371.219 1589)"/><path d="M0-6.875 179.094-6.875 179.094 395.298 165.344 395.298 165.344 0 172.219 6.875 0 6.875ZM192.844 388.423 172.219 429.673 151.594 388.423Z" fill="#FF0000" transform="matrix(-1 1.22465e-16 1.22465e-16 1 2073.22 1589)"/></g></svg>