<svg width="2777" height="1724" xmlns="http://www.w3.org/2000/svg" xmlns:xlink="http://www.w3.org/1999/xlink" xml:space="preserve" overflow="hidden"><defs><clipPath id="clip0"><rect x="363" y="598" width="2777" height="1724"/></clipPath></defs><g clip-path="url(#clip0)" transform="translate(-363 -598)"><path d="M1299.5 1294 1686.5 998.5 2073.5 1294 1686.5 1589.5Z" stroke="#000000" stroke-width="4.58333" stroke-miterlimit="8" fill="#900090" fill-rule="evenodd"/><text fill="#FFFFFF" font-family="Courier New,Courier New_MSFontService,sans-serif" font-weight="400" font-size="73" transform="matrix(1 0 0 1 1553.75 1183)">jugada <tspan font-size="73" x="88.2293" y="88">== </tspan><tspan font-size="73" x="22.0687" y="176">papel</tspan><tspan font-size="73" x="110.298" y="265">?</tspan></text><rect x="2564.5" y="1160.5" width="573" height="268" stroke="#000000" stroke-width="4.58333" stroke-miterlimit="8" fill="#E2F0D9"/><text font-family="Courier New,Courier New_MSFontService,sans-serif" font-weight="400" font-size="83" transform="matrix(1 0 0 1 2653.29 1318)">"tijera"</text><path d="M1423.5 730.5C1423.5 658.703 1541.25 600.5 1686.5 600.5 1831.75 600.5 1949.5 658.703 1949.5 730.5 1949.5 802.297 1831.75 860.5 1686.5 860.5 1541.25 860.5 1423.5 802.297 1423.5 730.5Z" stroke="#2F528F" stroke-width="4.58333" stroke-miterlimit="8" fill="#DEEBF7" fill-rule="evenodd"/><text font-family="Courier New,Courier New_MSFontService,sans-serif" font-weight="400" font-size="83" transform="matrix(1 0 0 1 1538.28 754)">jugada</text><path d="M1692.88 860 1692.88 963.829 1679.13 963.829 1679.13 860ZM1706.63 956.954 1686 998.204 1665.38 956.954Z" fill="#0000FF"/><rect x="2092.5" y="1115.5" width="126" height="133" stroke="#000000" stroke-width="3.4375" stroke-linejoin="round" stroke-miterlimit="10" fill="none"/><text font-family="Calibri,Calibri_MSFontService,sans-serif" font-weight="400" font-size="83" transform="matrix(1 0 0 1 2125.49 1208)">SI</text><rect x="1104.5" y="1843.5" width="176" height="133" stroke="#000000" stroke-width="3.4375" stroke-linejoin="round" stroke-miterlimit="10" fill="none"/><text font-family="Calibri,Calibri_MSFontService,sans-serif" font-weight="400" font-size="83" transform="matrix(1 0 0 1 1137.25 1936)">N<tspan font-size="83" x="53.2813" y="0">O</tspan></text><path d="M2073 1287.12 2529.5 1287.13 2529.5 1300.88 2073 1300.87ZM2522.63 1273.38 2563.88 1294 2522.63 1314.63Z" fill="#00AA00"/><path d="M1692.88 1589 1692.88 1692.83 1679.13 1692.83 1679.13 1589ZM1706.63 1685.95 1686 1727.2 1665.38 1685.95Z" fill="#FF0000"/><path d="M1299.5 2023 1686.5 1727.5 2073.5 2023 1686.5 2318.5Z" stroke="#000000" stroke-width="4.58333" stroke-miterlimit="8" fill="#900090" fill-rule="evenodd"/><text fill="#FFFFFF" font-family="Courier New,Courier New_MSFontService,sans-serif" font-weight="400" font-size="73" transform="matrix(1 0 0 1 1553.75 1911)">jugada <tspan font-size="73" x="88.2293" y="88">== </tspan><tspan font-size="73" x="0" y="176">piedra</tspan><tspan font-size="73" x="110.298" y="265">?</tspan></text><path d="M2073 2015.12 2529.5 2015.13 2529.5 2028.88 2073 2028.87ZM2522.63 2001.38 2563.88 2022 2522.63 2042.63Z" fill="#00AA00"/><rect x="2564.5" y="1888.5" width="573" height="268" stroke="#000000" stroke-width="4.58333" stroke-miterlimit="8" fill="#E2F0D9"/><text font-family="Courier New,Courier New_MSFontService,sans-serif" font-weight="400" font-size="83" transform="matrix(1 0 0 1 2677.93 2047)">"papel"</text><path d="M7.18028e-06-6.875 311.174-6.87467 311.174 6.87532-7.18028e-06 6.875ZM304.299-20.6247 345.549 0.000360892 304.299 20.6253Z" fill="#FF0000" transform="matrix(-1 0 0 1 1299.55 2022)"/><rect x="2092.5" y="1843.5" width="126" height="133" stroke="#000000" stroke-width="3.4375" stroke-linejoin="round" stroke-miterlimit="10" fill="none"/><text font-family="Calibri,Calibri_MSFontService,sans-serif" font-weight="400" font-size="83" transform="matrix(1 0 0 1 2125.49 1936)">SI</text><rect x="380.5" y="1888.5" width="574" height="268" stroke="#000000" stroke-width="4.58333" stroke-miterlimit="8" fill="#E2F0D9"/><text font-family="Courier New,Courier New_MSFontService,sans-serif" font-weight="400" font-size="83" transform="matrix(1 0 0 1 470.055 2047)">"piedra"</text><rect x="1756.5" y="1589.5" width="176" height="133" stroke="#000000" stroke-width="3.4375" stroke-linejoin="round" stroke-miterlimit="10" fill="none"/><text font-family="Calibri,Calibri_MSFontService,sans-serif" font-weight="400" font-size="83" transform="matrix(1 0 0 1 1789.13 1682)">N<tspan font-size="83" x="53.2813" y="0">O</tspan></text><rect x="380.5" y="1507.5" width="635" height="234" stroke="#000000" stroke-width="3.4375" stroke-linejoin="round" stroke-miterlimit="10" fill="none"/><text font-family="Calibri,Calibri_MSFontService,sans-serif" font-weight="400" font-size="83" transform="matrix(1 0 0 1 413.452 1601)">(por descarte la <tspan font-size="83" x="0" y="99">jugada es tijeras)</tspan></text></g></svg>